<svg xmlns="http://www.w3.org/2000/svg" width="960" height="560" fill="none"><g clip-path="url(#a)"><path fill="#fff" d="M0 0h960v560H0z"/><path fill="url(#b)" d="M0 0h960v560H0V0Z"/><path stroke="#F8FAFC" stroke-miterlimit="10" stroke-width="2.7" d="M80 0H0v80M80 0v80m0-80h80M80 80H0m80 0h80m-80 0v80M0 80v80M160 0v80m0-80h80m-80 80h80m-80 0v80M240 0v80m0-80h80m-80 80h80m-80 0v80M320 0v80m0-80h80m-80 80h80m-80 0v80M400 0v80m0-80h80m-80 80h80m-80 0v80M480 0v80m0-80h80m-80 80h80m-80 0v80M560 0v80m0-80h80m-80 80h80m-80 0v80M640 0v80m0-80h80m-80 80h80m-80 0v80M720 0v80m0-80h80m-80 80h80m-80 0v80M800 0v80m0-80h80m-80 80h80m-80 0v80M880 0v80m0-80h80v80m-80 0h80m-80 0v80m80-80v80m-880 0H0m80 0h80m-80 0v80M0 160v80m160-80h80m-80 0v80m80-80h80m-80 0v80m80-80h80m-80 0v80m80-80h80m-80 0v80m80-80h80m-80 0v80m80-80h80m-80 0v80m80-80h80m-80 0v80m80-80h80m-80 0v80m80-80h80m-80 0v80m80-80h80m-80 0v80m80-80v80m-880 0H0m80 0h80m-80 0v80M0 240v80m160-80h80m-80 0v80m80-80h80m-80 0v80m80-80h80m-80 0v80m80-80h80m-80 0v80m80-80h80m-80 0v80m80-80h80m-80 0v80m80-80h80m-80 0v80m80-80h80m-80 0v80m80-80h80m-80 0v80m80-80h80m-80 0v80m80-80v80m-880 0H0m80 0h80m-80 0v80M0 320v80m160-80h80m-80 0v80m80-80h80m-80 0v80m80-80h80m-80 0v80m80-80h80m-80 0v80m80-80h80m-80 0v80m80-80h80m-80 0v80m80-80h80m-80 0v80m80-80h80m-80 0v80m80-80h80m-80 0v80m80-80h80m-80 0v80m80-80v80m-880 0H0m80 0h80m-80 0v80M0 400v80m160-80h80m-80 0v80m80-80h80m-80 0v80m80-80h80m-80 0v80m80-80h80m-80 0v80m80-80h80m-80 0v80m80-80h80m-80 0v80m80-80h80m-80 0v80m80-80h80m-80 0v80m80-80h80m-80 0v80m80-80h80m-80 0v80m80-80v80m-880 0H0m80 0h80m-80 0v80M0 480v80h80m80-80h80m-80 0v80m80-80h80m-80 0v80m80-80h80m-80 0v80m80-80h80m-80 0v80m80-80h80m-80 0v80m80-80h80m-80 0v80m80-80h80m-80 0v80m80-80h80m-80 0v80m80-80h80m-80 0v80m80-80h80m-80 0v80m80-80v80h-80m-800 0h80m0 0h80m0 0h80m0 0h80m0 0h80m0 0h80m0 0h80m0 0h80m0 0h80m0 0h80"/><path stroke="#F8FAFC" stroke-miterlimit="10" stroke-width="2.7" d="M916 540H44a24 24 0 0 1-24-24V44a24 24 0 0 1 24-24h872a24 24 0 0 1 24 24v472a24 24 0 0 1-24 24Z"/><path fill="url(#c)" d="M265 349.8h-20.4v-68.7a36.3 36.3 0 0 1 18.8-32.5 40.1 40.1 0 0 1 19.8-4.9c7.4 0 14 1.7 19.8 5.2a37.4 37.4 0 0 1 18.8 32.2c0 7.4-1.6 14-4.7 19.8a34.8 34.8 0 0 1-13.3 13.4c-5.5 3.1-12 4.7-19.4 4.7a30.7 30.7 0 0 1-25.2-12.7c-2.7-3.8-4-8-4-12.3l9.9 1.7v54.1Zm18.2-50a17.7 17.7 0 0 0 15.9-9.3c1.5-2.8 2.3-5.9 2.3-9.2 0-3.4-.8-6.4-2.3-9.2a17.7 17.7 0 0 0-15.8-9c-3.5-.1-6.6.7-9.4 2.3a18.6 18.6 0 0 0-6.5 6.7 18.8 18.8 0 0 0-2.3 9.2c0 3.3.8 6.4 2.3 9.2 1.6 2.8 3.8 5 6.5 6.8 2.8 1.6 5.9 2.4 9.3 2.4Zm84 19c-7 0-13-1.6-18.3-5a37.4 37.4 0 0 1-17-32.7 36 36 0 0 1 5-18.7 38.5 38.5 0 0 1 33.6-18.8 39.2 39.2 0 0 1 33.7 18.4c3.3 5.6 5 12 5 19.1V317h-19.4v-25.8l6.2-1.7c0 5.6-1.2 10.6-3.6 15.1-2.4 4.4-5.7 8-10 10.5a29.5 29.5 0 0 1-15.2 3.8Zm3.3-19a17.7 17.7 0 0 0 15.8-9.3c1.6-2.8 2.5-5.9 2.5-9.2 0-3.4-.9-6.4-2.5-9.2-1.5-2.8-3.7-5-6.5-6.7a17 17 0 0 0-9.3-2.5c-3.5 0-6.6.8-9.4 2.5a18.6 18.6 0 0 0-6.5 6.7 18.8 18.8 0 0 0-2.3 9.2c0 3.3.8 6.4 2.3 9.2 1.7 2.8 3.8 5 6.5 6.8 2.8 1.6 6 2.4 9.4 2.4Zm83.8 19.2a41 41 0 0 1-19-4c-5.1-2.8-9.2-6.8-12.1-12.1l15-8.5a16 16 0 0 0 6.1 6.3c2.4 1.3 5.4 1.9 9 1.9 2.2 0 4-.2 5.6-.7a9 9 0 0 0 3.7-2.3c1-1 1.5-2.3 1.5-3.8 0-1.9-1-3.3-3-4.1-1.8-1-4.3-1.8-7.3-2.3l-9.3-2c-3.4-.8-6.6-2-9.5-3.4-3-1.4-5.5-3.5-7.4-6.2a20 20 0 0 1-2.7-11c0-4.4 1.1-8.3 3.4-11.7 2.4-3.5 5.8-6.2 10.1-8.2 4.3-2 9.4-3 15.3-3 5.2 0 9.6.7 13.4 2.1a29 29 0 0 1 15.4 13.3l-15.1 8.5c-1-2.6-2.9-4.6-5.4-5.8a17 17 0 0 0-7.9-1.9c-1.6 0-3.1.3-4.4.9a7 7 0 0 0-3.2 2.1c-.8 1-1.2 2-1.2 3.2 0 2 1 3.4 2.8 4.5 1.9 1 4.3 1.7 7.3 2.3 3 .6 6.2 1.2 9.5 2 3.4.8 6.5 2 9.4 3.5 3 1.4 5.4 3.5 7.3 6.1a18 18 0 0 1 2.9 10.7c0 4.8-1.4 9-4.2 12.5a28.7 28.7 0 0 1-11 8.2c-4.7 2-9.7 3-15 3Zm72.2 0a41 41 0 0 1-19-4c-5-2.8-9-6.8-12-12.1l15-8.5a16 16 0 0 0 6.1 6.3c2.4 1.3 5.4 1.9 9 1.9 2.1 0 4-.2 5.6-.7a9 9 0 0 0 3.7-2.3c1-1 1.4-2.3 1.4-3.8 0-1.9-1-3.3-2.8-4.1-2-1-4.4-1.8-7.4-2.3l-9.3-2c-3.4-.8-6.6-2-9.6-3.4s-5.4-3.5-7.3-6.2a20 20 0 0 1-2.7-11c0-4.4 1.1-8.3 3.4-11.7 2.4-3.5 5.8-6.2 10.1-8.2 4.3-2 9.4-3 15.3-3 5.2 0 9.6.7 13.4 2.1a29 29 0 0 1 15.4 13.3l-15.2 8.5c-1-2.6-2.8-4.6-5.3-5.8a17 17 0 0 0-7.9-1.9c-1.6 0-3.1.3-4.5.9a7 7 0 0 0-3.1 2.1c-.8 1-1.2 2-1.2 3.2 0 2 1 3.4 2.8 4.5 1.9 1 4.3 1.7 7.3 2.3l9.5 2c3.4.8 6.5 2 9.4 3.5 3 1.4 5.4 3.5 7.3 6.1a18 18 0 0 1 2.9 10.7c0 4.8-1.4 9-4.2 12.5a28.7 28.7 0 0 1-11 8.2c-4.7 2-9.7 3-15 3ZM573.8 213h20.4V317h-20.4V212.9Zm74.8 139a43 43 0 0 1-21.9-5.4c-6-3.4-10.7-8.5-14-15.1l17-9.2c1.5 3 3.9 5.6 7 7.8 3.1 2 7 3.1 11.6 3.1a17.8 17.8 0 0 0 17-10.6c1.6-3.3 2.3-7.1 2.3-11.5v-11.1l4-1.6c-.6 4.2-2 7.8-4 10.6a19 19 0 0 1-7.6 6.7c-3.2 1.5-7 2.3-11.4 2.3a35 35 0 0 1-18.8-4.6c-5-3.1-8.6-7.3-11-12.7a47.9 47.9 0 0 1-3.4-18.7v-36.2h20.1v35.4c0 5.2 1.4 9.5 4 12.7 2.7 3.2 6.6 4.8 11.7 4.8a15.3 15.3 0 0 0 14-8.6c1.4-2.9 2.1-6 2.1-9.3v-35h20.8v65c0 8.2-1.7 15.4-5 21.6-3.3 6.2-8 11-13.9 14.4a39.8 39.8 0 0 1-20.6 5.1Z"/><path fill="#2563EB" d="M716.3 318.2a9.6 9.6 0 0 1-8.4-4.8c-.7-1.4-1.1-3-1.1-4.7 0-1.8.4-3.4 1.1-4.8a9.6 9.6 0 0 1 13-3.5 9 9 0 0 1 3.5 3.5c.8 1.4 1.3 3 1.3 4.8a9 9 0 0 1-1.3 4.7 9 9 0 0 1-8.1 4.8Z"/></g><defs><linearGradient id="b" x1="480" x2="480" y1="560" y2="0" gradientUnits="userSpaceOnUse"><stop stop-color="#F8FAFC"/><stop offset=".1" stop-color="#F8FAFC"/><stop offset=".3" stop-color="#F9FBFD"/><stop offset=".4" stop-color="#FAFCFD"/><stop offset=".5" stop-color="#FBFCFD"/><stop offset=".6" stop-color="#FCFDFE"/><stop offset=".8" stop-color="#FDFDFE"/><stop offset=".9" stop-color="#FEFEFE"/><stop offset="1" stop-color="#fff"/></linearGradient><linearGradient id="c" x1="485" x2="485" y1="205.5" y2="359.8" gradientUnits="userSpaceOnUse"><stop stop-color="#334046"/><stop offset="1" stop-color="#263238"/></linearGradient><clipPath id="a"><path fill="#fff" d="M0 0h960v560H0z"/></clipPath></defs></svg>
