<svg xmlns="http://www.w3.org/2000/svg" xmlns:xlink="http://www.w3.org/1999/xlink" viewBox="0 0 720 420">
    <defs>
        <linearGradient id="b" x1="361" y1="421" x2="361" y2="1" gradientTransform="matrix(1, 0, 0, 1, 0, 0)" gradientUnits="userSpaceOnUse">
            <stop offset="0" stop-color="#f8fafc"/>
            <stop offset="1" stop-color="#fff"/>
        </linearGradient>
        <clipPath id="a">
            <path fill="none" d="M1 1h720v420H1z"/>
        </clipPath>
        <symbol id="c" viewBox="0 0 722 422">
            <g clip-path="url(#a)">
                <path fill="url(#b)" d="M1 1h720v420H1z"/>
                <path fill="none" stroke="#f8fafc" stroke-miterlimit="10" stroke-width="2" d="M1 1h60v60H1zm60 0h60v60H61zm60 0h60v60h-60zm60 0h60v60h-60zm60 0h60v60h-60zm60 0h60v60h-60zm60 0h60v60h-60zm60 0h60v60h-60zm60 0h60v60h-60zm60 0h60v60h-60zm60 0h60v60h-60zm60 0h60v60h-60zM1 61h60v60H1zm60 0h60v60H61zm60 0h60v60h-60zm60 0h60v60h-60zm60 0h60v60h-60zm60 0h60v60h-60zm60 0h60v60h-60zm60 0h60v60h-60zm60 0h60v60h-60zm60 0h60v60h-60zm60 0h60v60h-60zm60 0h60v60h-60zM1 121h60v60H1zm60 0h60v60H61zm60 0h60v60h-60zm60 0h60v60h-60zm60 0h60v60h-60zm60 0h60v60h-60zm60 0h60v60h-60zm60 0h60v60h-60zm60 0h60v60h-60zm60 0h60v60h-60zm60 0h60v60h-60zm60 0h60v60h-60zM1 181h60v60H1zm60 0h60v60H61zm60 0h60v60h-60zm60 0h60v60h-60zm60 0h60v60h-60zm60 0h60v60h-60zm60 0h60v60h-60zm60 0h60v60h-60zm60 0h60v60h-60zm60 0h60v60h-60zm60 0h60v60h-60zm60 0h60v60h-60zM1 241h60v60H1zm60 0h60v60H61zm60 0h60v60h-60zm60 0h60v60h-60zm60 0h60v60h-60zm60 0h60v60h-60zm60 0h60v60h-60zm60 0h60v60h-60zm60 0h60v60h-60zm60 0h60v60h-60zm60 0h60v60h-60zm60 0h60v60h-60zM1 301h60v60H1zm60 0h60v60H61zm60 0h60v60h-60zm60 0h60v60h-60zm60 0h60v60h-60zm60 0h60v60h-60zm60 0h60v60h-60zm60 0h60v60h-60zm60 0h60v60h-60zm60 0h60v60h-60zm60 0h60v60h-60zm60 0h60v60h-60zM1 361h60v60H1zm60 0h60v60H61zm60 0h60v60h-60zm60 0h60v60h-60zm60 0h60v60h-60zm60 0h60v60h-60zm60 0h60v60h-60zm60 0h60v60h-60zm60 0h60v60h-60zm60 0h60v60h-60zm60 0h60v60h-60zm60 0h60v60h-60z"/>
                <rect x="16" y="16" width="690" height="390" rx="18" ry="18" fill="none" stroke="#f8fafc" stroke-miterlimit="10" stroke-width="2"/>
            </g>
        </symbol>
    </defs>
    <use width="722" height="422" transform="translate(-1 -1)" xlink:href="#c"/>
    <path d="M306.42 88c54.97 0 99.51 37.55 99.51 83.88s-44.54 83.88-99.51 83.88c-8.95 0-17.61-1.1-25.88-2.95-14.64 9.05-35.77 18.2-61.69 18.2a11.9 11.9 0 0 1-8.71-20.07c.25-.19 10.83-11.68 18.65-26.69-13.66-14.34-21.88-32.55-21.88-52.37 0-46.32 44.56-83.88 99.51-83.88Zm-20.76 142.06c6.99 2 13.97 2.81 20.76 2.81 42.2 0 76.55-27.35 76.55-61s-34.35-61-76.55-61-76.55 27.35-76.55 61c0 16.77 8.47 29.17 15.58 36.65l11.26 11.87-7.55 14.44c-1.71 2.86-3.63 6.58-5.63 9.72a88.7 88.7 0 0 0 24.95-11.63l7.99-4.53 9.19 1.67Zm132.53-80.97c52.82 2 94.92 38.74 94.92 83.78 0 19.83-8.23 38.03-21.86 52.37 7.8 15.01 18.37 26.5 18.66 26.69a11.14 11.14 0 0 1 1.82 12.87c-1.44 4.38-5.79 7.2-10.57 7.2-25.88 0-47.03-9.15-61.67-18.2a117.96 117.96 0 0 1-25.88 2.95c-39.23 0-73.15-19.16-89.37-46.94a124.1 124.1 0 0 0 23.78-5.53c13.4 17.73 37.8 29.59 65.59 29.59 6.79 0 13.78-.81 20.76-2.81l9.19-1.67 7.99 4.53a88.3 88.3 0 0 0 24.97 11.63c-2.01-3.15-3.92-6.86-5.65-9.72l-7.56-14.44 11.24-11.87c7.13-7.43 15.6-19.87 15.6-36.65 0-31.6-30.28-57.62-69.32-60.71l.43-.29c0-7.86-1.05-15.49-3.06-22.78Z" fill="none" opacity=".75" stroke="#f1f5f9" stroke-miterlimit="10" stroke-width="3"/>
    <path d="M277.72 202.59v18.5c0 5.29-1.25 9.32-5.41 12.8-8.89 7.51-20.13 12.24-34.02 12.24-27.07 0-49.29-18.92-49.29-48.14s22.21-48 49.29-48c13.61 0 23.46 4.73 30.96 11.69a9.46 9.46 0 0 1 2.92 6.96 9.16 9.16 0 0 1-9.16 9.18 9.16 9.16 0 0 1-6.39-2.64c-4.72-4.59-10.97-7.65-18.33-7.65-16.8 0-29.02 12.94-29.02 30.47s12.22 30.47 29.02 30.47c8.89 0 15.97-3.62 19.72-7.1v-11.13h-16.94c-4.58 0-8.61-3.76-8.61-8.49s4.03-8.77 8.61-8.77h27.21c5.69 0 9.44 3.9 9.44 9.6Zm5.37 34.58v-77.49c0-4.9 3.94-8.97 9.01-8.97a9.02 9.02 0 0 1 8.87 8.97v77.49c0 4.9-4.08 8.97-8.87 8.97a8.96 8.96 0 0 1-9.01-8.97Zm34.38 17.13c.28 0 .56-.14.84-.14 4.59-.14 7.51-1.26 9.18-4.9l2.5-5.75-23.1-57.6a8.21 8.21 0 0 1-.56-3.22 8.65 8.65 0 0 1 8.63-8.83c3.62 0 6.96 2.1 8.07 5.47l16.14 43.17 16-43.17a8.66 8.66 0 0 1 8.21-5.47 8.68 8.68 0 0 1 8.77 8.83c0 1.12-.28 2.38-.7 3.36l-27.28 67.55c-5.01 12.61-14.33 16.26-24.35 16.4-.56 0-1.25 0-1.95-.14-4.73-.14-7.93-3.64-7.93-7.99s3.48-7.43 7.51-7.57Zm128.75-42.9c0 22.56-12.9 35.46-30 35.46-7.99 0-15.28-3.5-20.75-10.09v.7c0 4.91-4.35 8.69-8.97 8.69a8.94 8.94 0 0 1-8.97-8.97v-77.5a8.94 8.94 0 0 1 8.97-8.97 9 9 0 0 1 8.83 8.97v26.49a25.69 25.69 0 0 1 20.89-10.37c17.24 0 30 13.45 30 35.6Zm-18.36 0c0-11.77-6.87-19.76-17.24-19.76-5.75 0-12.34 3.36-15.28 7.85v23.97c2.94 4.34 9.53 7.57 15.28 7.57 10.37 0 17.24-7.85 17.24-19.62Zm58.62-35.76c20.1 0 33.78 15.02 33.78 32.54 0 5.84-3.77 8.34-10.47 8.34h-39.65c1.12 8.48 7.96 15.58 19.41 15.58 4.47 0 9.49-1.39 13.68-3.75a6.6 6.6 0 0 1 3.35-.83c3.77 0 6.98 3.2 6.98 6.95a7.05 7.05 0 0 1-3.77 6.12c-6.56 3.75-14.38 5.56-22.2 5.56-20.52 0-36.02-13.77-36.02-35.32 0-19.47 14.38-35.18 34.9-35.18Zm-16.61 28.92h33.23c-.42-6.4-4.89-14.88-16.61-14.88-11.03 0-15.78 8.2-16.61 14.88Z" fill="#0e172a"/>
    <path d="M523.49 231.19c4.08 0 7.51 3.42 7.51 7.48s-3.43 7.48-7.51 7.48-7.51-3.42-7.51-7.48 3.43-7.48 7.51-7.48Z" fill="#00a7ff"/>
</svg>
