<svg xmlns="http://www.w3.org/2000/svg" fill="none" viewBox="0 0 960 560"><g clip-path="url(#a)"><path fill="#fff" d="M0 0h960v560H0z"/><path fill="url(#b)" d="M0 0h960v560H0V0Z"/><path stroke="#344E70" stroke-miterlimit="10" stroke-width="2.667" d="M80 0H0v80M80 0v80m0-80h80M80 80H0m80 0h80m-80 0v80M0 80v80M160 0v80m0-80h80m-80 80h80m-80 0v80M240 0v80m0-80h80m-80 80h80m-80 0v80M320 0v80m0-80h80m-80 80h80m-80 0v80M400 0v80m0-80h80m-80 80h80m-80 0v80M480 0v80m0-80h80m-80 80h80m-80 0v80M560 0v80m0-80h80m-80 80h80m-80 0v80M640 0v80m0-80h80m-80 80h80m-80 0v80M720 0v80m0-80h80m-80 80h80m-80 0v80M800 0v80m0-80h80m-80 80h80m-80 0v80M880 0v80m0-80h80v80m-80 0h80m-80 0v80m80-80v80m-880 0H0m80 0h80m-80 0v80M0 160v80m160-80h80m-80 0v80m80-80h80m-80 0v80m80-80h80m-80 0v80m80-80h80m-80 0v80m80-80h80m-80 0v80m80-80h80m-80 0v80m80-80h80m-80 0v80m80-80h80m-80 0v80m80-80h80m-80 0v80m80-80h80m-80 0v80m80-80v80m-880 0H0m80 0h80m-80 0v80M0 240v80m160-80h80m-80 0v80m80-80h80m-80 0v80m80-80h80m-80 0v80m80-80h80m-80 0v80m80-80h80m-80 0v80m80-80h80m-80 0v80m80-80h80m-80 0v80m80-80h80m-80 0v80m80-80h80m-80 0v80m80-80h80m-80 0v80m80-80v80m-880 0H0m80 0h80m-80 0v80M0 320v80m160-80h80m-80 0v80m80-80h80m-80 0v80m80-80h80m-80 0v80m80-80h80m-80 0v80m80-80h80m-80 0v80m80-80h80m-80 0v80m80-80h80m-80 0v80m80-80h80m-80 0v80m80-80h80m-80 0v80m80-80h80m-80 0v80m80-80v80m-880 0H0m80 0h80m-80 0v80M0 400v80m160-80h80m-80 0v80m80-80h80m-80 0v80m80-80h80m-80 0v80m80-80h80m-80 0v80m80-80h80m-80 0v80m80-80h80m-80 0v80m80-80h80m-80 0v80m80-80h80m-80 0v80m80-80h80m-80 0v80m80-80h80m-80 0v80m80-80v80m-880 0H0m80 0h80m-80 0v80M0 480v80h80m80-80h80m-80 0v80m80-80h80m-80 0v80m80-80h80m-80 0v80m80-80h80m-80 0v80m80-80h80m-80 0v80m80-80h80m-80 0v80m80-80h80m-80 0v80m80-80h80m-80 0v80m80-80h80m-80 0v80m80-80h80m-80 0v80m80-80v80h-80m-800 0h80m0 0h80m0 0h80m0 0h80m0 0h80m0 0h80m0 0h80m0 0h80m0 0h80m0 0h80"/><path stroke="#344E70" stroke-miterlimit="10" stroke-width="2.667" d="M916 540H44c-13.255 0-24-10.745-24-24V44c0-13.255 10.745-24 24-24h872c13.255 0 24 10.745 24 24v472c0 13.255-10.745 24-24 24Z"/><path fill="#fff" d="M473.773 444.146c-2.547-.924-3.598-1.928-4.892-4.459-1.658-3.254-1.658-6.95-.041-10.325 1.739-3.655 4.003-4.861 8.936-4.861 4.286.041 7.035 2.049 8.45 6.308.809 2.45.809 3.977.04 6.909-.727 2.812-2.142 4.741-4.366 5.825-2.143 1.125-6.024 1.366-8.127.603Zm6.227-3.334c1.819-1.045 2.87-3.375 2.911-6.308.04-4.74-2.143-7.271-5.863-6.949-3.558.321-5.539 2.772-5.539 6.829 0 2.852.687 4.62 2.385 6.026 1.577 1.285 4.286 1.486 6.106.402Zm16.132 1.928c-3.639-1.165-4.205-2.451-6.389-14.221l-.727-3.897 1.051-.241c.566-.121 1.334-.321 1.698-.402.768-.201.93.402 2.385 8.075 1.092 5.664 1.699 6.91 3.68 7.512 2.062.603 4.366-.241 5.175-1.888.526-1.044.404-1.848-.849-8.155l-1.415-6.99.889-.321c.485-.161 1.294-.402 1.82-.482.849-.121 1.01.08 1.253 1.285 2.385 13.137 2.466 13.538 1.981 15.185-.445 1.688-2.021 3.254-4.083 4.018-1.537.602-5.297.883-6.469.522Zm-40.876-.723c-.647-.081-1.132-.281-1.132-.442.04-.161.404-1.888.808-3.897.445-1.968 1.173-5.504 1.658-7.793 1.011-4.861.93-4.982-2.466-5.424-2.265-.281-2.548-.562-2.184-2.049.243-1.044.364-1.084 2.143-.803 1.617.201 9.865 1.808 12.493 2.41.809.201.93.402.688 1.326-.405 1.687-.688 1.768-3.397 1.165l-2.506-.602-.405.964c-.202.562-.525 2.209-.768 3.696-.566 3.414-1.941 9.641-2.426 10.846-.202.482-.606.844-.889.844-.283-.04-1.011-.161-1.617-.241Zm58.665-5.223c-.485-1.084-1.334-3.294-1.981-4.941a433.454 433.454 0 0 0-2.628-6.95c-.808-2.209-1.334-4.097-1.172-4.298.202-.161 1.657-.764 3.194-1.326 1.577-.562 3.841-1.406 5.054-1.848 2.466-.924 4.326-1.085 5.741-.402 3.113 1.447 3.679 7.151.889 8.999-1.334.844-1.213 1.205.566 1.727 1.416.442 7.318 4.419 7.359 4.982 0 .12-.809.562-1.819.964l-1.82.683-4.003-2.692c-4.002-2.651-5.337-3.093-6.954-2.249-1.051.602-.97 1.486.445 4.62 1.455 3.254 1.496 3.575.202 4.137-1.738.804-2.224.563-3.073-1.406Zm3.963-10.967c2.992-1.366 3.355-1.687 3.355-3.294 0-1.727-1.374-2.852-3.072-2.571-1.779.362-5.822 2.129-5.822 2.611 0 .442 1.495 3.817 1.859 4.178.445.442.809.362 3.68-.924Zm-91.052 6.789a26.532 26.532 0 0 0-1.536-.883c-.364-.121-.445-.683-.889-5.504-.364-3.535-1.011-4.982-2.588-5.825-1.415-.683-1.456-.643-3.275 3.013-1.9 3.776-1.819 3.736-3.72 2.772l-1.576-.804.97-1.687c.525-.924 2.668-4.821 4.73-8.637l3.72-6.95 3.922 2.089c5.458 2.892 6.994 3.977 7.884 5.664.728 1.246.728 1.647.323 3.094-.889 2.852-2.021 3.776-4.892 3.977l-2.547.201.283 1.245c.97 4.178 1.334 9.119.728 9.039-.202 0-.849-.362-1.537-.804Zm4.044-14.422c.121-.642.08-1.486-.122-1.888-.485-.843-5.66-3.816-6.145-3.535-.849.522-2.911 5.022-2.305 5.022.041 0 1.536.602 3.275 1.366 2.952 1.285 3.275 1.325 4.124.803.485-.362 1.051-1.125 1.173-1.768Zm102.938 9.561c-.769-1.406-2.912-5.061-4.771-8.114-1.86-3.094-3.316-5.785-3.235-6.026.121-.241.809-.764 1.537-1.165l1.374-.723 5.661 3.093c8.45 4.62 7.682 4.258 7.803 3.615.081-.321-.364-1.365-.971-2.33-.606-.924-1.981-3.254-3.072-5.142-2.143-3.655-2.143-3.575.161-4.861.728-.401.405-.843 8.451 12.815 1.091 1.808 1.981 3.495 1.981 3.696 0 .442-2.345 1.607-3.316 1.607-.404 0-1.415-.442-2.264-.924-.808-.522-3.477-2.008-5.943-3.254-5.175-2.691-5.58-2.531-3.113 1.447 3.194 5.222 4.124 6.829 4.124 7.15 0 .362-2.103 1.607-2.709 1.607-.203 0-.971-1.125-1.698-2.491Zm-131.281-9.802c-3.073-2.37-5.62-4.499-5.579-4.74.081-.763 11.118-15.105 11.644-15.065.242 0 1.455.763 2.749 1.687 4.286 3.174 8.41 6.388 8.41 6.549 0 .361-1.334 2.169-1.577 2.169-.162 0-2.102-1.366-4.286-3.013-2.223-1.647-4.124-3.013-4.285-3.013-.122 0-.809.803-1.496 1.768-1.537 2.089-1.658 1.888 2.951 5.262 1.617 1.165 3.073 2.37 3.235 2.611.283.483-.849 2.009-1.496 2.009-.243 0-1.941-1.165-3.882-2.611-1.9-1.446-3.679-2.611-3.962-2.611-.283 0-1.172.924-1.981 2.048-1.779 2.451-1.9 2.25 3.396 6.026 2.022 1.406 3.639 2.772 3.639 2.973.04.522-1.132 2.21-1.536 2.21-.162 0-2.831-1.929-5.944-4.259Zm150.041 1.366c-.081-.281-.566-1.767-1.011-3.334-.485-1.527-1.375-4.339-2.022-6.227-.606-1.888-1.536-4.821-2.021-6.548-.93-3.053-.93-3.134-.162-3.817 2.102-1.847 1.86-1.888 5.903.442a818.901 818.901 0 0 0 9.137 5.062c2.911 1.607 5.337 3.093 5.337 3.254 0 .442-2.223 2.009-2.83 2.009-.242 0-1.294-.482-2.264-1.045l-1.819-1.044-2.992 2.29c-1.698 1.285-3.154 2.49-3.275 2.691-.162.241.081 1.406.485 2.611l.768 2.21-1.213.964c-1.374 1.085-1.779 1.165-2.021.482Zm3.113-11.007c.93-.804 1.779-1.607 1.86-1.768.161-.401-6.348-4.178-6.671-3.856-.203.201.323 1.888 1.94 6.186.445 1.205.809 1.125 2.871-.562Zm-80.539 4.78c-5.822-.442-10.998-1.124-15.162-2.008-4.569-.924-13.221-3.335-14.96-4.138-.444-.201-1.981-.844-3.436-1.446-23.369-9.441-42.938-28.202-53.45-51.261-4.609-10.123-6.227-15.707-8.41-28.844-.728-4.379-.97-16.189-.445-21.693 1.617-16.591 7.359-33.143 16.132-46.4 4.246-6.467 7.44-10.324 13.019-15.908 15.202-15.226 35.054-25.188 57.21-28.724 2.305-.361 7.763-.723 12.736-.843 7.52-.201 9.542-.081 14.717.642 3.316.483 7.116 1.125 8.41 1.447 1.294.321 3.477.884 4.892 1.205 4.771 1.205 13.019 4.298 18.437 6.95 7.843 3.856 14.676 8.436 21.833 14.583 15.93 13.779 26.725 31.535 31.86 52.385 2.183 8.878 3.315 22.135 2.587 30.451-.566 6.347-1.86 13.779-3.437 19.363-2.708 9.682-6.509 18.439-11.482 26.474-12.049 19.524-31.617 35.191-52.642 42.141-6.509 2.17-9.865 3.013-16.576 4.299-5.014.964-17.022 1.687-21.833 1.325Zm23.692-4.137c13.505-2.812 24.421-7.312 35.701-14.784 5.903-3.897 8.491-5.986 14.07-11.449l4.488-4.419-1.253-2.009-1.213-2.009-2.062 2.17c-1.132 1.205-3.72 3.977-5.782 6.186-2.021 2.21-3.76 3.937-3.881 3.817-.243-.241-1.375-6.95-2.749-16.069-.445-3.214-1.011-5.986-1.173-6.187-.162-.161-1.941.161-3.922.763-7.682 2.371-22.52 5.825-24.905 5.825-.203 0-2.224 1.848-4.488 4.138-4.003 4.098-10.31 9.119-18.154 14.503l-3.962 2.731.97 1.085c.97 1.045 8.248 12.373 9.704 15.105.687 1.286.889 1.406 2.668 1.406 1.051 0 3.72-.361 5.943-.803Zm-75.444-20.609c1.698-5.986 2.466-8.235 2.951-8.597.243-.201 2.184-.964 4.246-1.687 3.153-1.125 3.962-1.246 4.77-.884 1.496.643 2.224.562 1.901-.241-.324-.884-3.275-5.865-7.359-12.534l-3.073-4.981-3.841-2.25c-2.102-1.286-5.215-3.093-6.873-4.058-3.679-2.169-8.571-5.543-13.868-9.521-2.143-1.606-4.164-3.053-4.447-3.173-.283-.081-2.83.884-5.661 2.209l-5.134 2.411 1.01 2.731c1.658 4.379 6.429 13.659 9.138 17.797 4.932 7.593 11.725 15.266 18.962 21.452 4.407 3.817 5.661 4.7 6.105 4.419.202-.12.728-1.486 1.173-3.093Zm61.253-2.892c9.016-6.468 12.857-9.562 15.162-12.133 3.113-3.535 3.113-3.374 1.496-6.026-.768-1.285-4.165-7.351-7.561-13.498-6.711-12.132-6.752-12.172-10.472-12.614-2.668-.321-4.649.442-6.994 2.611l-1.941 1.808-3.275-.08c-4.649-.121-10.027-1.085-11.28-1.969-.566-.401-1.698-1.727-2.547-2.932a70.662 70.662 0 0 0-2.547-3.495c-1.011-1.286-1.092-1.326-1.82-.643-.404.361-.768 1.085-.768 1.607 0 1.406-1.9 3.374-3.235 3.374-.606 0-1.374.282-1.657.683-.768.924-11.24 9.923-14.798 12.695-1.617 1.285-2.952 2.611-2.952 2.973 0 .522 1.416 3.213 3.437 6.508.243.361 1.739 2.892 3.396 5.664 8.006 13.378 8.814 14.462 10.634 14.462.444 0 3.356.603 6.509 1.366 3.154.763 6.388 1.486 7.157 1.647.768.121 2.951.643 4.851 1.085 3.882.964 9.987 2.209 10.998 2.29.363 0 4.043-2.411 8.207-5.383Zm27.696-18.319c4.77-.964 12.129-2.893 12.129-3.214 0-.121-1.415-.362-3.113-.482-3.033-.241-7.197-1.366-9.542-2.571-1.617-.804-1.9-1.969-1.9-7.874 0-4.58.121-5.544.808-6.829 1.658-3.013.243-4.138-4.285-3.495-1.658.2-5.782.401-9.097.401-4.205 0-6.025.121-6.025.442 0 .402 2.507 5.062 5.661 10.606 2.345 4.138 6.469 11.61 6.469 11.73 0 .121.364.723.849 1.366.93 1.326.889 1.326 8.046-.08Zm-83.127-13.097c3.194-2.45 8.895-7.15 10.957-8.998.889-.804 2.264-2.049 3.032-2.732l1.415-1.286-.97-.803c-.526-.402-1.254-.763-1.617-.763-1.092 0-4.165-2.17-6.469-4.58l-2.062-2.21v-3.615c0-3.535 0-3.616-1.294-4.66-.688-.563-2.467-1.687-4.003-2.41-4.286-2.17-4.407-2.411-4.407-9.602 0-3.334-.121-6.508-.283-7.03-.243-.884-.364-.924-2.507-.683-1.253.121-4.851.522-8.046.844-3.194.321-6.105.763-6.469.964-.525.281-1.01 1.687-1.657 4.74-.526 2.37-1.294 5.624-1.698 7.151-.405 1.567-.849 3.455-.971 4.218-.242 1.446-.97 4.74-2.223 10.043a242.399 242.399 0 0 0-.971 4.058c-.202 1.004.122 1.366 4.286 4.419 5.579 4.218 9.663 7.07 12.17 8.597 1.091.683 2.911 1.767 4.043 2.49 2.871 1.768 6.469 3.696 6.914 3.737.242 0 1.496-.844 2.83-1.889Zm21.024-18.559c.404-.442.647-1.005.566-1.286-.202-.603-5.984-3.616-6.469-3.334-.162.12-.323.884-.323 1.727 0 1.487.04 1.527 2.547 2.531 3.153 1.286 2.87 1.245 3.679.362Zm55.836-8.838c3.396-.241 3.477-.282 8.086-3.737 1.941-1.446 2.183-1.526 5.256-1.566 3.679-.04 6.469-.723 6.469-1.567 0-.562-3.518-1.527-10.35-2.772l-2.669-.522-2.183 1.366c-1.213.723-2.749 1.607-3.396 1.928-1.132.603-6.631 6.669-6.672 7.392 0 .161.486.201 1.133.04.606-.161 2.547-.402 4.326-.562Zm22.641-10.646c.607-.924.849-.964 5.984-1.125 4.043-.08 5.62-.281 6.348-.763 1.577-1.005 3.841-1.286 4.447-.563.687.804 1.739.764 2.507-.08s4.326-6.709 7.682-12.534l2.385-4.218-.849-3.214c-.485-1.808-1.496-5.222-2.223-7.673a438.998 438.998 0 0 1-2.831-9.24c-2.83-9.28-3.113-10.043-4.043-11.69-1.172-1.968-2.587-2.651-5.296-2.531-2.709.121-3.477-.201-4.407-1.928-.769-1.366-1.052-1.527-4.852-2.571-3.598-.964-16.375-4.58-18.032-5.062-.849-.241-1.011.04-6.833 11.329a1217.354 1217.354 0 0 1-7.601 14.623c-2.548 4.861-2.588 5.061-2.103 6.427 1.294 3.696 9.865 24.827 10.229 25.269.243.281.93.803 1.537 1.085 1.051.562 1.213.482 3.072-.965 2.265-1.807 5.823-3.655 6.995-3.655.647 0 .809.241.809 1.366 0 1.566-.93 2.892-3.194 4.419-.93.642-1.658 1.285-1.658 1.446 0 .442 8.329 2.611 10.593 2.772.404.04 1.011-.402 1.334-.924Zm-115.835-13.097a105.8 105.8 0 0 1 5.741-.602c1.738-.161 3.275-.442 3.396-.683.121-.201-.283-1.245-.93-2.25-1.617-2.571-9.703-12.453-10.593-12.895-.566-.322-8.733.201-9.299.602-.081.081.526 2.17 1.294 4.66.768 2.491 1.9 6.107 2.466 8.035.607 1.928 1.294 3.575 1.577 3.656.485.201 1.698.12 6.348-.523Zm164.555-5.905c-.041-3.656-3.679-16.471-6.469-22.818a89.371 89.371 0 0 1-1.334-3.093c-.364-.844-.809-1.527-1.011-1.527-.243 0-.971.643-1.658 1.446-1.496 1.688-3.881 2.772-6.752 3.134l-2.102.241-2.224-2.29c-1.253-1.286-2.385-2.169-2.547-2.009-.324.281.364 2.933 3.113 11.932.89 2.972 2.143 7.231 2.79 9.4.647 2.21 1.334 4.138 1.496 4.299.202.16 2.507.602 5.175.923 2.668.362 5.66.804 6.671 1.005 1.011.201 2.507.361 3.356.402 1.375.04 1.496-.041 1.496-1.045ZM500.7 273.974a2944.789 2944.789 0 0 1 7.642-14.743c2.183-4.259 4.003-7.794 4.003-7.874 0-.201-1.213-1.647-6.227-7.472-2.021-2.33-3.437-3.616-3.841-3.536-.364.081-1.172-.12-1.819-.441-1.658-.804-7.642-5.826-10.634-8.919l-2.466-2.571-1.415.643c-.768.361-2.062 1.245-2.83 1.928l-1.456 1.246.809 1.325c.687 1.205.728 1.487.242 2.893-.687 1.888-1.334 2.048-4.124 1.044-1.455-.522-2.304-1.125-2.991-2.209-1.011-1.567-1.658-1.607-1.658-.161.04 1.607 1.455 4.098 3.841 6.628 1.94 2.089 2.466 2.973 3.073 5.223.444 1.446.768 3.334.768 4.178 0 2.169-1.294 2.732-6.227 2.732-3.76 0-3.8 0-5.539-1.447-2.102-1.727-10.027-5.624-10.471-5.142-.162.201-.243 1.326-.122 2.491.202 1.768.405 2.21 1.294 2.692.566.281 1.496.964 2.062 1.486.566.522 2.345 1.687 3.962 2.571 3.558 1.888 4.529 3.214 4.529 6.106 0 1.125.202 2.17.444 2.33.728.442 1.901-1.125 2.103-2.772.242-1.968.445-2.129 2.021-1.606.688.281 2.224.602 3.316.763 1.132.16 3.396.803 5.054 1.406 1.657.643 3.153 1.165 3.315 1.165.526 0 4.973 2.129 5.216 2.531.485.642-.486 4.499-1.254 5.182-.444.362-1.738.763-2.87.924-2.426.321-3.963 1.527-3.154 2.451.323.401 1.415.562 4.043.562h3.599v2.009c0 1.848.121 2.089 1.334 2.812.687.442 1.617.763 2.021.723.526-.081 1.86-2.25 4.407-7.151Zm-73.787-5.022c2.547-1.084 2.628-1.245 1.537-3.454l-1.011-1.969 2.021-1.004c1.133-.563 3.275-1.165 4.771-1.366 2.911-.362 4.893-1.085 5.014-1.808 0-.241.04-.964.081-1.647.04-1.085.202-1.205 1.415-1.326 1.617-.16 5.296 1.246 6.428 2.451.445.482 1.092 1.567 1.496 2.37.485 1.125 1.011 1.527 1.941 1.728.728.16 2.426.883 3.841 1.647 1.375.763 2.709 1.365 2.951 1.365.283 0 .324-1.004.162-2.892-.364-3.857-1.213-4.74-4.649-4.74-2.143 0-2.467-.121-3.194-1.165-.486-.643-.85-1.527-.85-1.969 0-1.526 2.588-3.053 6.591-3.897 1.011-.2 1.091-.361 1.091-2.169 0-2.892-.404-3.053-4.892-1.888-4.407 1.125-8.409 1.607-9.218 1.085-.445-.282-.162-.603 1.132-1.406 1.375-.884 1.658-1.246 1.658-2.371 0-2.892-2.911-4.66-8.289-4.981-1.779-.08-4.69-.522-6.428-.964-1.779-.402-3.801-.763-4.529-.763-1.536 0-2.021.522-7.965 8.838-2.142 2.972-5.013 6.909-6.347 8.757-3.275 4.54-3.316 4.58-3.558 8.356l-.202 3.334 1.091.282c.607.12 1.9.04 2.871-.241 1.011-.282 2.547-.402 3.517-.241 1.86.281 4.367 1.566 4.367 2.249 0 .643 5.499.482 7.156-.201Zm110.418-15.828c-.243-3.334-.849-4.298-3.154-5.102-1.01-.321-3.8-1.566-6.266-2.772-2.426-1.205-6.348-2.731-8.693-3.454-4.084-1.246-4.326-1.406-6.712-3.857-1.334-1.366-2.628-2.531-2.87-2.531-.526 0-1.375 1.004-2.467 2.933-1.051 1.808-1.293 1.285 3.558 7.03 2.224 2.611 3.922 4.258 4.852 4.62.768.321 5.418 1.687 10.31 3.093 4.892 1.366 9.34 2.611 9.906 2.772.566.201 1.172.241 1.374.121.202-.081.243-1.406.162-2.853Zm-120-9.641c0-.201 1.011-1.687 2.224-3.375 1.213-1.647 2.224-3.334 2.224-3.696 0-.843-.728-2.209-1.173-2.209-.243 0-6.307 4.941-7.884 6.428-.485.482.404 1.486 2.143 2.41 1.577.844 2.466 1.004 2.466.442Zm-27.695 163.021c-3.194-.924-5.863-4.66-5.863-8.276 0-2.691.849-4.579 3.154-7.03 3.436-3.696 7.156-4.74 10.916-3.133 4.043 1.727 6.51 6.267 5.337 9.802-.242.803-.606 1.446-.728 1.446-.161 0-.889-.361-1.617-.803-1.213-.723-1.294-.924-1.051-2.33.566-3.455-2.628-6.187-6.065-5.263-1.617.442-4.69 3.053-5.943 5.022-1.173 1.888-.89 4.62.606 6.146.849.844 1.456 1.045 2.992 1.045 1.051 0 2.224-.161 2.588-.362.525-.241.808 0 1.294.924.93 1.727.808 2.009-.769 2.692-1.536.642-3.032.682-4.851.12Zm176.765-6.026a966.878 966.878 0 0 1-7.075-6.508l-2.547-2.41 1.132-1.205c2.991-3.174 1.981-3.214 8.369.04 5.135 2.611 6.711 3.254 6.711 2.732 0-.121-.525-.965-1.172-1.929-2.305-3.495-5.741-8.838-5.822-9.159-.121-.522 2.911-4.017 3.558-4.017.566 0 14.353 12.333 14.353 12.855 0 .161-.445.763-1.011 1.366l-1.051 1.125-2.103-2.009c-5.781-5.423-8.531-7.794-8.692-7.392-.081.241 1.617 3.013 3.719 6.227 2.143 3.174 3.882 6.066 3.882 6.387 0 .322-.445 1.005-1.011 1.527l-1.011.964-1.94-.924c-1.052-.482-3.801-1.928-6.146-3.174-6.833-3.695-7.318-3.615-2.709.322 4.528 3.897 7.561 6.749 7.561 7.151 0 .401-1.739 2.089-2.143 2.089-.162 0-2.345-1.848-4.852-4.058Zm-191.644-10.445c-2.911-1.526-5.054-5.704-4.569-8.918 1.294-7.874 12.453-12.132 17.467-6.629 2.102 2.25 2.951 5.504 2.183 8.276-.566 2.209-1.334 2.491-2.83 1.085-1.052-1.005-1.092-1.165-.566-2.13.768-1.486.687-2.45-.243-4.017-1.051-1.687-3.113-2.691-4.892-2.33-2.183.402-5.539 2.531-6.874 4.379-1.01 1.366-1.212 1.968-1.051 3.174.364 2.852 2.224 4.338 5.378 4.338 1.576 0 1.859.121 2.223 1.045.203.602.283 1.406.162 1.808-.364 1.084-4.286 1.044-6.388-.081Zm205.269-9.521c-3.962-2.611-7.56-4.941-7.964-5.142-.647-.361-.364-.924 2.425-5.222 4.973-7.593 4.569-7.191 6.146-6.428 1.496.804 1.819 0-2.345 6.187l-2.224 3.374 1.375 1.165c2.224 1.808 2.83 1.607 4.973-1.928 3.113-5.062 3.073-5.022 4.69-3.776l.97.723-1.617 2.37c-2.871 4.218-3.76 5.624-3.76 5.905 0 .241 4.245 3.094 4.65 3.094.08 0 1.455-1.969 3.032-4.419 3.032-4.58 3.72-5.102 5.013-3.696.607.723.445 1.084-3.234 6.628-2.143 3.254-4.124 5.906-4.407 5.906-.243 0-3.72-2.129-7.723-4.741Zm-214.043-8.074c-1.981-.402-2.911-1.005-4.447-2.692-2.952-3.334-3.598-7.151-1.86-10.807 1.011-2.129 2.103-3.294 4.084-4.338 4.285-2.29 7.52-2.531 10.39-.723 1.011.642 2.305 1.767 2.912 2.531 1.091 1.446 2.264 4.66 2.264 6.226 0 1.647-1.294 4.741-2.507 6.026-2.669 2.772-7.52 4.459-10.836 3.777Zm6.065-4.942c2.911-1.767 3.841-3.093 3.801-5.463-.041-2.37-.971-3.817-3.114-4.861-3.881-1.848-9.501.964-10.593 5.263-.404 1.486.526 3.936 1.941 5.222 1.011.964 1.536 1.125 3.477 1.125 1.86 0 2.709-.241 4.488-1.286Zm226.011.201c-.607-.241-8.046-3.575-13.221-5.986-1.617-.763-3.113-1.365-3.356-1.365-.566 0-.526-.282.243-2.009.646-1.406.808-1.527 3.355-1.969 2.588-.441 11.564-1.647 12.291-1.647.647 0-.161-.803-1.455-1.366a519.789 519.789 0 0 1-5.701-2.611l-4.366-2.049.808-1.285c.405-.723 1.011-1.286 1.334-1.205.324.08 3.518 1.486 7.116 3.093 3.639 1.647 6.995 3.093 7.48 3.214.526.12 1.375.562 1.9.964l.93.723-.849 1.647c-.485.924-1.011 1.687-1.172 1.687-.485 0-10.229 1.206-12.17 1.527-.97.161-1.86.482-1.941.683-.04.241.728.763 1.82 1.165 1.051.442 3.558 1.567 5.62 2.491l3.679 1.727-.647 1.406c-.364.804-.768 1.446-.89 1.406-.121 0-.485-.12-.808-.241Zm-242.588-16.109c-1.981-.964-3.558-3.455-4.083-6.347-.566-3.254 0-5.303 1.86-6.95 1.738-1.527 2.345-1.567 2.951-.241.687 1.446.606 1.888-.526 2.932-1.293 1.246-1.657 3.174-.889 5.022 1.172 2.772 4.043 3.495 5.054 1.285.283-.602.485-2.892.485-5.222 0-3.817.081-4.258.97-5.303 1.375-1.647 3.841-2.41 5.459-1.727 2.87 1.165 4.892 4.66 4.892 8.315 0 2.089-.768 3.737-2.264 4.902-1.294 1.004-1.982.642-2.386-1.206-.202-.924-.04-1.446.809-2.45.728-.844 1.011-1.527.849-2.089-.121-.482-.243-1.045-.243-1.326 0-.803-2.062-2.933-2.83-2.933-1.455 0-1.819 1.125-1.819 5.826-.041 5.021-.405 6.025-2.75 7.432-1.617 1.004-3.679 1.004-5.539.08Zm233.369-7.312c-1.051-.441-1.091-.08 1.011-7.833 2.143-7.834 1.86-7.231 3.154-7.151.647.04 1.294.241 1.455.402.162.16.041 1.446-.323 2.852-.364 1.486-.485 2.692-.283 2.852.202.201 3.477 1.085 7.237 2.049 8.41 2.089 8.41 2.089 8.086 3.736-.161.723-.444 1.446-.606 1.607-.162.201-2.628-.281-5.499-1.044-2.87-.764-6.105-1.607-7.237-1.848-1.092-.282-2.304-.563-2.668-.683-.769-.201-1.052.361-1.739 3.254-.485 2.089-.97 2.45-2.588 1.807Zm2.992-44.27c-.647-2.491-.323-3.174 2.992-6.588 2.992-3.013 3.235-3.415 3.235-4.942 0-1.084-.202-1.767-.607-1.888-.323-.12-2.143.081-4.043.442-1.9.402-3.558.603-3.679.482-.404-.361-.889-3.093-.606-3.254 1.132-.602 18.76-3.896 19.043-3.575.404.482 2.021 9.762 2.021 11.65 0 2.009-1.374 3.857-3.396 4.54-2.547.843-5.903-.563-6.833-2.893-.162-.361-.687 0-1.536 1.085-1.537 1.888-5.62 5.825-6.065 5.825-.162 0-.364-.402-.526-.884Zm14.232-7.151c1.011-.964 1.132-2.29.405-5.744l-.486-2.371-2.223.201c-3.235.362-3.437.723-2.507 4.299 1.132 4.178 2.83 5.423 4.811 3.615Zm-255.849 4.941c0-.16.202-1.004.445-1.807l.404-1.527h6.631c3.679 0 6.671-.12 6.671-.281-.04-.201-.606-.603-1.334-.964a236.973 236.973 0 0 1-5.822-3.013c-4.933-2.531-4.933-2.611-4.165-5.423l.405-1.447 4.568-.241c2.467-.16 5.499-.281 6.672-.281 1.293 0 2.102-.161 2.021-.402-.081-.241-2.749-1.607-5.943-3.093l-5.782-2.692.202-1.566c.122-.844.324-1.688.485-1.808.122-.161 1.213.201 2.345.803 1.173.603 5.095 2.531 8.774 4.339 3.679 1.808 6.833 3.415 6.995 3.575.161.161.08 1.005-.203 1.889-.485 1.365-.727 1.566-2.142 1.847-.89.161-3.356.282-5.459.322-4.245 0-8.086.361-8.086.763 0 .121 3.032 1.768 6.712 3.656l6.671 3.415-.243 1.406c-.566 2.892.081 2.731-10.916 2.772-5.458.04-9.906-.081-9.906-.242Zm239.434-19.523c-4.407-1.607-7.318-7.794-5.782-12.454.647-1.848 2.831-4.057 5.418-5.383 1.779-.924 2.628-1.085 5.418-1.125 2.992 0 3.437.12 5.054 1.205 3.8 2.611 5.337 8.718 3.113 12.655-2.345 4.258-8.733 6.708-13.221 5.102Zm7.318-4.58c2.507-1.366 3.72-3.053 3.72-5.142-.041-3.214-2.466-5.825-5.499-5.825-1.779 0-5.013 1.285-6.348 2.531-2.83 2.611-2.749 6.548.203 8.637 2.223 1.566 4.73 1.486 7.924-.201Zm-228.881-.723c-1.981-.603-3.437-1.447-5.054-2.973-4.569-4.178-3.194-12.213 2.587-15.145 2.871-1.406 5.499-1.326 9.057.361 4.407 2.089 6.267 4.781 6.267 8.919 0 3.214-2.992 7.673-5.943 8.878-1.618.683-4.65.683-6.914-.04Zm7.116-4.098c1.334-.844 2.506-2.933 2.506-4.499 0-2.893-2.991-5.705-6.913-6.548-1.981-.402-2.426-.362-3.841.321-1.981.964-3.397 3.013-3.397 4.941 0 4.7 7.48 8.436 11.645 5.785Zm204.865-10.606c-4.69-1.084-8.046-6.99-6.671-11.81 1.091-3.817 6.509-7.834 10.593-7.834 4.973 0 9.622 4.781 9.622 9.882 0 5.986-7.277 11.249-13.544 9.762Zm4.933-4.218c2.587-1.245 4.851-3.655 5.175-5.503.364-1.808-.971-4.419-2.75-5.544-2.587-1.607-7.399-.081-9.865 3.133-2.749 3.576-.162 8.878 4.367 8.959.566 0 1.94-.482 3.073-1.045Zm-205.108-.883c-2.426-1.688-5.863-4.058-7.561-5.263-1.698-1.165-3.113-2.33-3.113-2.531 0-.482 4.083-6.347 5.782-8.356 1.576-1.848 2.587-2.37 4.487-2.41 3.235 0 5.782 2.691 5.297 5.664-.162.844-.202 1.687-.121 1.848.04.201 2.264.241 4.851.161 2.588-.04 4.893 0 5.135.12.243.161 0 .884-.687 1.848l-1.092 1.567-4.043.04c-4.811 0-6.59.442-7.641 1.888l-.769 1.045 1.173.964c.647.522 2.143 1.607 3.315 2.37 1.132.723 2.103 1.607 2.103 1.888 0 .603-1.658 2.29-2.265 2.25-.202 0-2.385-1.406-4.851-3.093Zm-.041-8.316c1.941-2.812 2.305-4.62 1.132-5.785-.849-.844-2.304-1.085-3.072-.522-1.052.683-4.286 5.343-4.003 5.744.283.442 3.8 2.772 4.164 2.772.162 0 .93-1.004 1.779-2.209Zm187.076-4.178c-2.184-.643-3.558-1.687-6.591-4.901-1.738-1.808-3.072-3.415-3.032-3.535.121-.282 6.146-5.946 11.038-10.445l3.234-2.933 3.154 3.334c4.933 5.303 5.66 7.432 3.76 11.409-.97 2.089-4.083 5.303-6.145 6.348-1.496.723-4.124 1.084-5.418.723Zm3.719-4.017c2.75-1.728 5.176-4.942 5.176-6.83 0-1.526-1.294-3.776-3.154-5.423-.849-.763-.89-.723-4.407 2.491-1.981 1.767-4.205 3.856-4.973 4.66l-1.375 1.446 1.779 1.848c1.658 1.687 3.599 2.932 4.69 2.973.202 0 1.254-.523 2.264-1.165Zm-181.01-2.612-6.833-6.548.97-1.245c.566-.683 1.213-1.246 1.415-1.246.243 0 2.952 2.411 6.065 5.384 3.073 2.972 5.822 5.423 6.105 5.423.243 0 1.779-1.446 3.356-3.214 1.617-1.768 3.153-3.214 3.436-3.214.89 0 1.982 1.487 1.577 2.17-.444.803-8.612 9.079-8.935 9.079-.162 0-3.356-2.973-7.156-6.589Zm16.576-7.432c-3.881-5.102-9.501-12.815-9.501-13.016 0-.361 7.035-5.343 8.572-6.026 3.113-1.446 6.388-.361 9.42 3.054 4.488 5.142 4.73 9.601.687 13.297-1.293 1.205-5.62 4.459-6.752 5.142-.202.12-1.293-.964-2.426-2.451Zm6.106-3.896c3.153-2.491 3.234-4.821.363-8.718-2.708-3.615-5.215-4.339-8.328-2.37-3.316 2.089-3.316 1.888.647 7.191 1.94 2.611 3.84 4.941 4.164 5.222.687.563.889.482 3.154-1.325Zm140.013 5.543-1.294-1.165.647-5.985c.404-3.295.687-6.589.687-7.352 0-1.326-.04-1.366-.768-.683-.444.402-2.183 2.571-3.922 4.901-1.698 2.29-3.274 4.178-3.436 4.178-.162 0-.809-.442-1.415-.964-1.052-.844-1.092-1.004-.566-1.727 5.498-7.513 11.078-14.583 11.482-14.583.283 0 1.011.522 1.617 1.165l1.132 1.165-.646 6.428c-.728 7.311-.769 8.114-.324 8.114.162 0 1.779-1.928 3.518-4.298 1.779-2.37 3.436-4.54 3.679-4.861.364-.522.606-.522 1.698.161.728.401 1.294.924 1.294 1.165 0 .602-11.24 15.466-11.725 15.466-.202 0-.971-.522-1.658-1.125Zm-15.606-10.565c-.728-.482-1.335-.964-1.335-1.085 0-.281.445-1.044 3.922-7.11.89-1.527 2.466-4.299 3.518-6.107 1.051-1.848 2.102-3.334 2.304-3.334.728 0 2.79 1.205 2.79 1.647 0 .241-1.011 2.17-2.264 4.299-1.253 2.129-3.275 5.624-4.488 7.713-2.871 5.021-2.83 4.981-4.447 3.977Zm-106.011-3.696c-.243-.241-.445-.603-.445-.763 0-.201-.647-1.728-1.415-3.455-2.709-6.026-5.458-12.655-5.458-13.177 0-.683 10.35-4.7 11.482-4.419 1.415.362 3.396 1.728 4.165 2.893.97 1.486.97 5.182-.041 6.668-.404.643-2.102 1.768-4.124 2.732-1.86.924-3.396 1.728-3.396 1.768 0 .08.566 1.446 1.213 3.053.687 1.607 1.213 3.133 1.213 3.415 0 .763-2.628 1.847-3.194 1.285Zm2.911-12.333c1.051-.643 2.062-1.607 2.264-2.089.364-1.004-.121-2.732-.889-3.214-.809-.522-2.992-.361-4.812.362-2.587 1.004-2.547.924-.97 4.66.808 1.888 1.779 1.928 4.407.281Zm82.763 7.794c-8.208-3.013-7.682-2.732-7.278-4.058.162-.603.647-1.848 1.011-2.732.404-.883 1.657-4.338 2.83-7.713 1.213-3.374 2.264-6.307 2.426-6.508.121-.281 1.011-.12 2.345.402 1.172.482 3.922 1.486 6.145 2.25 5.701 2.008 5.58 1.888 4.852 3.334-.364.683-.768 1.205-.97 1.205-.162 0-2.305-.723-4.69-1.607-2.386-.884-4.528-1.607-4.69-1.607-.202 0-.607.603-.93 1.326-1.294 3.093-1.456 2.852 2.83 4.459 2.143.804 4.124 1.446 4.447 1.446.284 0 .647.201.769.442.323.482-.566 2.772-1.052 2.772-.202 0-1.495-.482-2.911-1.044-1.9-.764-5.741-2.129-6.186-2.17-.283 0-1.779 5.022-1.657 5.384.121.321.728.642 1.374.803 1.577.402 7.925 2.732 8.37 3.093.444.402-.122 2.772-.688 2.732-.283 0-3.113-1.004-6.347-2.209Zm-68.936-3.054c-.161-.723-.687-2.772-1.172-4.539-.526-1.768-1.254-4.379-1.658-5.825-.404-1.446-.97-3.455-1.294-4.5-.323-1.044-.525-2.089-.444-2.37.121-.401 11.806-3.937 13.18-3.977.768 0 1.537 1.928.971 2.491-.405.402-4.61 1.687-8.491 2.611-.526.121-1.051.442-1.132.723-.283.643.526 3.696 1.051 4.018.324.2 6.954-1.366 8.572-2.009.525-.201.849 0 1.172.723.243.562.364 1.286.243 1.607-.122.361-2.022 1.085-4.529 1.727-2.385.643-4.407 1.366-4.528 1.607-.081.281.121 1.487.485 2.732.485 1.567.849 2.25 1.334 2.25.728 0 5.095-1.125 8.248-2.129l1.901-.603.485 1.406c.242.763.364 1.406.283 1.486-.404.322-13.262 3.857-13.949 3.857-.242 0-.566-.603-.728-1.286Zm49.124-2.169c-3.234-1.044-4.285-1.968-5.862-4.981-1.617-3.094-.647-8.838 2.021-11.932 2.831-3.294 6.752-4.017 10.957-2.089 2.062.964 4.205 3.777 4.205 5.504 0 .844-.121.924-1.86.803-1.738-.12-1.9-.241-2.345-1.486-.485-1.486-2.547-2.852-4.326-2.852-1.496 0-3.598 1.567-4.569 3.414-.647 1.246-.849 2.331-.849 4.902 0 3.013.081 3.414 1.011 4.338.647.643 1.658 1.085 2.871 1.246 1.738.241 1.981.16 3.517-1.206l1.617-1.486 1.456.884c.809.442 1.456.964 1.456 1.125 0 .602-2.669 3.013-3.922 3.495-1.254.562-4.165.683-5.378.321Zm-29.717-1.647c.283-.763.93-2.692 1.213-3.736.081-.321.728-2.41 1.375-4.62a204.897 204.897 0 0 0 2.102-7.352c.93-3.615 1.415-4.097 4.003-4.097 1.132 0 1.375.402 5.822 9.32 2.547 5.142 4.569 9.44 4.448 9.521-.081.08-.93.241-1.901.321l-1.738.201-.971-2.049-.929-2.049-2.669.041c-1.455 0-3.396.12-4.245.281-1.496.281-1.658.402-2.103 2.129-.647 2.611-.808 2.772-2.87 2.772-1.577 0-1.779-.08-1.537-.683Zm11.159-8.035c.445-.441-2.466-6.628-3.032-6.427-.526.16-2.264 6.548-1.9 6.95.323.321 4.528-.121 4.932-.523Zm-128.086-8.597c.121-.321.647-1.807 1.132-3.374a432.215 432.215 0 0 1 2.467-7.553c.849-2.611 1.536-5.142 1.536-5.624 0-.643-.809-1.446-2.911-2.892a620.873 620.873 0 0 1-9.704-6.95c-.808-.603-1.374-1.205-1.253-1.406.081-.161 4.124-.281 8.935-.241l8.774.04.687-1.366c.364-.723.688-1.607.728-1.968 0-.322.485-1.969 1.051-3.616s1.415-4.499 1.941-6.347c.485-1.888 1.132-3.495 1.375-3.576.242-.08.687.724 1.01 1.808a995.765 995.765 0 0 0 2.709 8.477l2.143 6.508h9.057c5.539 0 9.016.16 8.935.361-.04.241-3.275 2.692-7.075 5.464-3.841 2.772-6.995 5.262-6.995 5.503 0 .402 1.9 6.589 4.69 15.146.323 1.004.526 1.847.445 1.888-.041.04-3.356-2.25-7.318-5.102-4.003-2.853-7.359-5.183-7.561-5.183-.162 0-1.9 1.165-3.881 2.612-10.715 7.833-11.24 8.195-10.917 7.391Zm229.528-.321c0-.201 1.173-3.937 2.628-8.316 1.456-4.419 2.629-8.115 2.629-8.235 0-.161-3.275-2.611-7.238-5.423-3.962-2.853-7.156-5.343-7.035-5.504.081-.161 4.124-.281 8.895-.281 6.833.04 8.814-.04 9.057-.482.283-.402 2.385-6.187 2.587-7.151.89-3.576 2.669-8.838 2.992-8.838.445 0 .89 1.125 3.518 9.119l2.385 7.352h9.016c6.914 0 9.017.12 8.895.482-.121.281-3.153 2.611-6.752 5.182-3.639 2.611-6.792 4.901-7.035 5.142-.445.442.809 4.741 3.841 13.418.688 1.928 1.132 3.615 1.011 3.776-.283.281-1.375-.442-7.763-5.102-4.811-3.535-6.711-4.821-7.156-4.821-.121 0-1.779 1.125-3.639 2.531-5.054 3.777-10.31 7.513-10.593 7.513-.121 0-.243-.161-.243-.362Zm-152.83-34.749c0-.643 3.316-11.128 4.65-14.864.687-1.848.606-2.009-2.386-4.138-1.132-.804-2.951-2.129-4.083-2.933-1.092-.803-3.356-2.45-4.933-3.615-1.617-1.165-2.951-2.21-2.951-2.33 0-.081 4.083-.081 9.097 0 6.469.16 9.178.08 9.42-.241.405-.523 2.547-6.87 3.922-11.691 1.82-6.387 1.617-6.427 3.801.201 1.051 3.214 2.183 6.629 2.466 7.633.283 1.004.809 2.29 1.092 2.893l.566 1.124h9.056c5.014 0 9.097.121 9.097.322 0 .16-.93.924-2.062 1.687-1.091.763-4.043 2.892-6.55 4.7-2.506 1.808-4.892 3.535-5.337 3.857-.768.562-.727.763 1.982 9.079 1.496 4.7 2.668 8.597 2.587 8.677-.081.121-3.396-2.169-7.358-5.021-3.963-2.893-7.318-5.223-7.52-5.223-.243 0-11.281 7.954-14.03 10.164-.364.281-.526.201-.526-.281Zm76.82-1.326c.283-1.486 2.506-8.557 4.083-12.936.607-1.647.688-2.29.324-2.691-.243-.322-2.386-1.969-4.771-3.656-8.37-6.026-9.34-6.749-9.34-7.111 0-.2 3.962-.241 8.895-.16 6.024.12 9.016.04 9.218-.241.324-.442 2.345-6.508 4.286-12.775.607-1.929 1.253-3.616 1.415-3.736.202-.081 1.617 3.575 3.113 8.155l2.79 8.315 19.003.402-6.186 4.419a400.765 400.765 0 0 1-7.601 5.343c-.728.482-1.375 1.125-1.375 1.406 0 .241 1.173 4.098 2.628 8.517 1.456 4.379 2.628 8.034 2.628 8.115 0 .522-1.536-.442-6.145-3.817-2.952-2.169-6.146-4.459-7.076-5.061l-1.698-1.125-2.668 1.928a287.607 287.607 0 0 0-6.955 5.062c-2.345 1.727-4.407 3.133-4.568 3.133-.162 0-.162-.683 0-1.486Z"/><path stroke="#fff" stroke-width="3" d="M480.404 454.35c78.823 0 142.722-63.491 142.722-141.81 0-78.32-63.899-141.81-142.722-141.81-78.823 0-142.722 63.49-142.722 141.81 0 78.319 63.899 141.81 142.722 141.81Z"/></g><defs><linearGradient id="b" x1="480" x2="480" y1="560" y2="0" gradientUnits="userSpaceOnUse"><stop stop-color="#344E70"/><stop offset="1" stop-color="#416084"/></linearGradient><clipPath id="a"><path fill="#fff" d="M0 0h960v560H0z"/></clipPath></defs></svg>
