<svg xmlns="http://www.w3.org/2000/svg" fill="none" viewBox="0 0 960 560"><g clip-path="url(#a)"><path fill="#fff" d="M0 0h960v560H0z"/><path fill="url(#b)" d="M0 0h960v560H0z"/><path stroke="#f8fafc" stroke-miterlimit="10" stroke-width="2.67" d="M80 0H0v80M80 0v80m0-80h80M80 80H0m80 0h80m-80 0v80M0 80v80M160 0v80m0-80h80m-80 80h80m-80 0v80M240 0v80m0-80h80m-80 80h80m-80 0v80M320 0v80m0-80h80m-80 80h80m-80 0v80M400 0v80m0-80h80m-80 80h80m-80 0v80M480 0v80m0-80h80m-80 80h80m-80 0v80M560 0v80m0-80h80m-80 80h80m-80 0v80M640 0v80m0-80h80m-80 80h80m-80 0v80M720 0v80m0-80h80m-80 80h80m-80 0v80M800 0v80m0-80h80m-80 80h80m-80 0v80M880 0v80m0-80h80v80m-80 0h80m-80 0v80m80-80v80m-880 0H0m80 0h80m-80 0v80M0 160v80m160-80h80m-80 0v80m80-80h80m-80 0v80m80-80h80m-80 0v80m80-80h80m-80 0v80m80-80h80m-80 0v80m80-80h80m-80 0v80m80-80h80m-80 0v80m80-80h80m-80 0v80m80-80h80m-80 0v80m80-80h80m-80 0v80m80-80v80m-880 0H0m80 0h80m-80 0v80M0 240v80m160-80h80m-80 0v80m80-80h80m-80 0v80m80-80h80m-80 0v80m80-80h80m-80 0v80m80-80h80m-80 0v80m80-80h80m-80 0v80m80-80h80m-80 0v80m80-80h80m-80 0v80m80-80h80m-80 0v80m80-80h80m-80 0v80m80-80v80m-880 0H0m80 0h80m-80 0v80M0 320v80m160-80h80m-80 0v80m80-80h80m-80 0v80m80-80h80m-80 0v80m80-80h80m-80 0v80m80-80h80m-80 0v80m80-80h80m-80 0v80m80-80h80m-80 0v80m80-80h80m-80 0v80m80-80h80m-80 0v80m80-80h80m-80 0v80m80-80v80m-880 0H0m80 0h80m-80 0v80M0 400v80m160-80h80m-80 0v80m80-80h80m-80 0v80m80-80h80m-80 0v80m80-80h80m-80 0v80m80-80h80m-80 0v80m80-80h80m-80 0v80m80-80h80m-80 0v80m80-80h80m-80 0v80m80-80h80m-80 0v80m80-80h80m-80 0v80m80-80v80m-880 0H0m80 0h80m-80 0v80M0 480v80h80m80-80h80m-80 0v80m80-80h80m-80 0v80m80-80h80m-80 0v80m80-80h80m-80 0v80m80-80h80m-80 0v80m80-80h80m-80 0v80m80-80h80m-80 0v80m80-80h80m-80 0v80m80-80h80m-80 0v80m80-80h80m-80 0v80m80-80v80h-80m-800 0h80m0 0h80m0 0h80m0 0h80m0 0h80m0 0h80m0 0h80m0 0h80m0 0h80m0 0h80"/><path stroke="#f8fafc" stroke-miterlimit="10" stroke-width="2.67" d="M916 540H44a24 24 0 0 1-24-24V44a24 24 0 0 1 24-24h872a24 24 0 0 1 24 24v472a24 24 0 0 1-24 24Z"/><path stroke="#2258e5" stroke-linecap="round" stroke-width="16.88" d="M437 211.19q21.56-16.87 43.13 0 21.56 16.88 43.12 0M437 246.81q21.56-16.87 43.13 0 21.56 16.88 43.12 0"/><path fill="#000337" d="M629 390.25q-11.01 0-19.01-4.6a29 29 0 0 1-7.67-6.28c-2.97-3.44-1.3-8.5 2.69-10.67 4.12-2.24 9.27-.5 13.07 2.27l.54.38q4.12 2.73 10.12 2.73 5.39 0 9-2.48a15.2 15.2 0 0 0 5.76-6.72q2-4.22 2-9.95v-9.57l3.5-1.37a22 22 0 0 1-3.5 9.2 16.4 16.4 0 0 1-6.63 5.72q-4.12 2-9.88 2-10 0-16.37-3.99a24.4 24.4 0 0 1-9.5-10.94q-3-7.09-3-16.17l.1-23.1a8.75 8.75 0 1 1 17.51.09l-.11 22.4q0 6.7 3.5 10.94 3.5 4.1 10.12 4.1 4 0 7.13-1.99a13.3 13.3 0 0 0 5-5.47 17 17 0 0 0 1.88-7.96l.11-21.85a9.01 9.01 0 0 1 18.02.07l-.13 47.64q0 10.7-4.38 18.66a30 30 0 0 1-12 12.43q-7.62 4.48-17.88 4.48M567.76 279.13a8.88 8.88 0 0 1 17.75 0v72.71a8.88 8.88 0 0 1-17.75 0zM530.5 361.9q-9.75 0-16.5-3.48a26 26 0 0 1-5.94-4.43c-2.96-2.94-1.6-7.68 2.05-9.71 3.6-2.02 8.01-.36 11.58 1.72l.19.1q3.13 1.62 7.75 1.62 2.88 0 4.88-.62a8 8 0 0 0 3.25-1.99 4.6 4.6 0 0 0 1.25-3.23q0-2.49-2.5-3.6-2.5-1.25-6.38-2-3.75-.75-8.12-1.74a39 39 0 0 1-8.26-2.86 16.6 16.6 0 0 1-6.37-5.35q-2.38-3.6-2.38-9.57 0-5.6 3-10.07 3.13-4.48 8.75-7.1 5.63-2.6 13.26-2.6 6.75 0 11.62 1.86a25 25 0 0 1 9.24 5.9c2.75 2.72 1.45 7.04-1.93 8.93l-.99.56c-3.23 1.8-7.38.06-10.7-1.59a15 15 0 0 0-6.87-1.61q-2.12 0-3.87.74a6 6 0 0 0-2.75 1.87q-1 1.12-1 2.74 0 2.48 2.37 3.85 2.5 1.25 6.38 1.99 3.87.75 8.25 1.74 4.37 1 8.13 2.98a16.6 16.6 0 0 1 6.37 5.35q2.5 3.48 2.5 9.2 0 6.22-3.62 10.82a25 25 0 0 1-9.63 7.1q-6 2.48-13 2.48M471.5 361.9q-9.75 0-16.5-3.48a26 26 0 0 1-5.95-4.43c-2.96-2.94-1.59-7.68 2.05-9.71 3.61-2.02 8.01-.36 11.59 1.72l.18.1q3.13 1.62 7.75 1.62 2.88 0 4.88-.62a8 8 0 0 0 3.25-1.99 4.6 4.6 0 0 0 1.25-3.23q0-2.49-2.5-3.6-2.5-1.25-6.38-2-3.75-.75-8.12-1.74a39 39 0 0 1-8.25-2.86 16.6 16.6 0 0 1-6.38-5.35q-2.37-3.6-2.38-9.57 0-5.6 3-10.07 3.13-4.48 8.76-7.1 5.63-2.6 13.25-2.6 6.75 0 11.63 1.86a25 25 0 0 1 9.24 5.9c2.75 2.72 1.45 7.04-1.93 8.93l-1 .56c-3.22 1.8-7.38.06-10.69-1.59a15 15 0 0 0-6.87-1.61q-2.13 0-3.88.74a6 6 0 0 0-2.75 1.87q-1 1.12-1 2.74 0 2.48 2.37 3.85 2.5 1.25 6.38 1.99 3.87.75 8.25 1.74a33 33 0 0 1 8.13 2.98 16.6 16.6 0 0 1 6.37 5.35q2.5 3.48 2.5 9.2 0 6.22-3.62 10.82a25 25 0 0 1-9.63 7.1q-6 2.48-13 2.48M399.63 361.77q-9 0-15.88-4.35a32.3 32.3 0 0 1-10.88-11.81 35 35 0 0 1-3.87-16.42q0-8.82 4.37-16.16 4.5-7.46 12-11.82a33 33 0 0 1 17.13-4.47q9.63 0 17.26 4.35a31.5 31.5 0 0 1 12 11.56q4.38 7.22 4.38 16.54v24.14a8.44 8.44 0 1 1-16.88 0V337.9l5.37-1.5q0 7.22-3.12 13.06a24 24 0 0 1-8.63 9.08q-5.5 3.24-13.25 3.23m2.87-16.54q4.64 0 8.13-2.11 3.63-2.25 5.63-5.84a15.4 15.4 0 0 0 2.12-7.96q0-4.36-2.12-7.96a15 15 0 0 0-5.63-5.72 14.8 14.8 0 0 0-8.13-2.24q-4.5 0-8.12 2.24a16 16 0 0 0-5.63 5.72q-2 3.6-2 7.96t2 7.96a17 17 0 0 0 5.63 5.84 16 16 0 0 0 8.12 2.11M314.75 379.63a8.88 8.88 0 0 1-17.75 0V329.2q0-9.32 4.38-16.54a32 32 0 0 1 11.87-11.56q7.63-4.23 17.26-4.23 9.62 0 17.13 4.48a32.4 32.4 0 0 1 12 11.69 31 31 0 0 1 4.37 16.16q0 9.58-4.12 17.04a30 30 0 0 1-11.5 11.56q-7.25 4.1-16.88 4.1-6.75 0-12.5-2.98a28 28 0 0 1-9.38-7.96 18.2 18.2 0 0 1-3.5-10.69l8.62 1.5zm15.76-34.4q4.62 0 8.12-2.11a15.8 15.8 0 0 0 7.63-13.8q0-4.36-2-7.96a15.4 15.4 0 0 0-13.75-7.83q-4.5 0-8.13 2.1a16 16 0 0 0-5.63 5.73q-2 3.6-2 7.96t2 7.96a17 17 0 0 0 5.63 5.84 16 16 0 0 0 8.13 2.11"/></g><defs><linearGradient id="b" x1="480" x2="480" y1="560" y2="0" gradientUnits="userSpaceOnUse"><stop stop-color="#f8fafc"/><stop offset=".13" stop-color="#f8fafc"/><stop offset=".25" stop-color="#f9fbfd"/><stop offset=".38" stop-color="#fafcfd"/><stop offset=".5" stop-color="#fbfcfd"/><stop offset=".63" stop-color="#fcfdfe"/><stop offset=".75" stop-color="#fdfdfe"/><stop offset=".88" stop-color="#fefefe"/><stop offset="1" stop-color="#fff"/></linearGradient><clipPath id="a"><path fill="#fff" d="M0 0h960v560H0z"/></clipPath></defs></svg>
