<svg xmlns="http://www.w3.org/2000/svg" width="960" height="560" fill="none"><g clip-path="url(#a)"><path fill="#fff" d="M0 0h960v560H0z"/><path fill="url(#b)" d="M0 0h960v560H0V0Z"/><path stroke="#FFEBC6" stroke-miterlimit="10" stroke-width="2.7" d="M80 0H0v80M80 0v80m0-80h80M80 80H0m80 0h80m-80 0v80M0 80v80M160 0v80m0-80h80m-80 80h80m-80 0v80M240 0v80m0-80h80m-80 80h80m-80 0v80M320 0v80m0-80h80m-80 80h80m-80 0v80M400 0v80m0-80h80m-80 80h80m-80 0v80M480 0v80m0-80h80m-80 80h80m-80 0v80M560 0v80m0-80h80m-80 80h80m-80 0v80M640 0v80m0-80h80m-80 80h80m-80 0v80M720 0v80m0-80h80m-80 80h80m-80 0v80M800 0v80m0-80h80m-80 80h80m-80 0v80M880 0v80m0-80h80v80m-80 0h80m-80 0v80m80-80v80m-880 0H0m80 0h80m-80 0v80M0 160v80m160-80h80m-80 0v80m80-80h80m-80 0v80m80-80h80m-80 0v80m80-80h80m-80 0v80m80-80h80m-80 0v80m80-80h80m-80 0v80m80-80h80m-80 0v80m80-80h80m-80 0v80m80-80h80m-80 0v80m80-80h80m-80 0v80m80-80v80m-880 0H0m80 0h80m-80 0v80M0 240v80m160-80h80m-80 0v80m80-80h80m-80 0v80m80-80h80m-80 0v80m80-80h80m-80 0v80m80-80h80m-80 0v80m80-80h80m-80 0v80m80-80h80m-80 0v80m80-80h80m-80 0v80m80-80h80m-80 0v80m80-80h80m-80 0v80m80-80v80m-880 0H0m80 0h80m-80 0v80M0 320v80m160-80h80m-80 0v80m80-80h80m-80 0v80m80-80h80m-80 0v80m80-80h80m-80 0v80m80-80h80m-80 0v80m80-80h80m-80 0v80m80-80h80m-80 0v80m80-80h80m-80 0v80m80-80h80m-80 0v80m80-80h80m-80 0v80m80-80v80m-880 0H0m80 0h80m-80 0v80M0 400v80m160-80h80m-80 0v80m80-80h80m-80 0v80m80-80h80m-80 0v80m80-80h80m-80 0v80m80-80h80m-80 0v80m80-80h80m-80 0v80m80-80h80m-80 0v80m80-80h80m-80 0v80m80-80h80m-80 0v80m80-80h80m-80 0v80m80-80v80m-880 0H0m80 0h80m-80 0v80M0 480v80h80m80-80h80m-80 0v80m80-80h80m-80 0v80m80-80h80m-80 0v80m80-80h80m-80 0v80m80-80h80m-80 0v80m80-80h80m-80 0v80m80-80h80m-80 0v80m80-80h80m-80 0v80m80-80h80m-80 0v80m80-80h80m-80 0v80m80-80v80h-80m-800 0h80m0 0h80m0 0h80m0 0h80m0 0h80m0 0h80m0 0h80m0 0h80m0 0h80m0 0h80"/><path stroke="#FFEBC6" stroke-miterlimit="10" stroke-width="2.7" d="M916 540H44a24 24 0 0 1-24-24V44a24 24 0 0 1 24-24h872a24 24 0 0 1 24 24v472a24 24 0 0 1-24 24Z"/><g clip-path="url(#c)"><mask id="d" width="420" height="420" x="270" y="70" maskUnits="userSpaceOnUse" style="mask-type:luminance"><path fill="#fff" d="M270 70h420v420H270V70Z"/></mask><g mask="url(#d)"><path fill="#fff" stroke="#041A20" stroke-width="12" d="M480 485a205 205 0 1 0 0-410 205 205 0 0 0 0 410Z"/><mask id="e" width="362" height="362" x="299" y="99" maskUnits="userSpaceOnUse" style="mask-type:luminance"><path fill="#fff" d="M299.5 99.5h361v361h-361v-361Z"/></mask><g mask="url(#e)"><path fill="#FB8268" d="M637.3 267.2a12 12 0 1 0 0-24 12 12 0 0 0 0 24ZM656.5 308.7a2.4 2.4 0 1 0 0-4.7 2.4 2.4 0 0 0 0 4.7ZM573.4 343.9a7.2 7.2 0 1 0 0-14.4 7.2 7.2 0 0 0 0 14.4ZM552.7 364.6a2.4 2.4 0 1 0 0-4.7 2.4 2.4 0 0 0 0 4.7ZM542.3 404.6a4.8 4.8 0 1 0 0-9.6 4.8 4.8 0 0 0 0 9.6ZM519.1 404.6a2.4 2.4 0 1 0 0-4.8 2.4 2.4 0 0 0 0 4.8ZM452 414.2a2.4 2.4 0 1 0 0-4.8 2.4 2.4 0 0 0 0 4.8ZM436 441.3a2.4 2.4 0 1 0 0-4.8 2.4 2.4 0 0 0 0 4.8ZM419.3 435a3.2 3.2 0 1 0 0-6.5 3.2 3.2 0 0 0 0 6.4ZM414.5 415.8a6.4 6.4 0 1 0 0-12.8 6.4 6.4 0 0 0 0 12.8ZM393 430.1a7.2 7.2 0 1 0 0-14.3 7.2 7.2 0 0 0 0 14.3ZM465.6 449.3a14.4 14.4 0 1 0 0-28.8 14.4 14.4 0 0 0 0 28.8ZM381 224.1a6.4 6.4 0 1 0 0-12.8 6.4 6.4 0 0 0 0 12.8ZM447.3 173a7.2 7.2 0 1 0 0-14.4 7.2 7.2 0 0 0 0 14.4ZM375.4 193.8a4 4 0 1 0 0-8 4 4 0 0 0 0 8ZM573.4 134.7a4 4 0 1 0 0-8 4 4 0 0 0 0 8ZM520.7 160.2a2.4 2.4 0 1 0 0-4.8 2.4 2.4 0 0 0 0 4.8Z"/><path fill="#288BA8" d="M600.6 404.6a7.2 7.2 0 1 0 0-14.4 7.2 7.2 0 0 0 0 14.4ZM598.2 425.3a4.8 4.8 0 1 0 0-9.5 4.8 4.8 0 0 0 0 9.5ZM488.8 460.5a7.2 7.2 0 1 0 0-14.4 7.2 7.2 0 0 0 0 14.4ZM511.1 460.5a2.4 2.4 0 1 0 0-4.8 2.4 2.4 0 0 0 0 4.8ZM551 350.3a2.4 2.4 0 1 0 0-4.8 2.4 2.4 0 0 0 0 4.8ZM658 260.8a2.4 2.4 0 1 0 0-4.8 2.4 2.4 0 0 0 0 4.8ZM509.5 123.5a2.4 2.4 0 1 0 0-4.8 2.4 2.4 0 0 0 0 4.8ZM321.9 208.1a6.4 6.4 0 1 0 0-12.7 6.4 6.4 0 0 0 0 12.7ZM310.7 254.4a11.2 11.2 0 1 0 0-22.3 11.2 11.2 0 0 0 0 22.3Z"/><path fill="#74AA66" d="M307.5 291.2a4.8 4.8 0 1 0 0-9.6 4.8 4.8 0 0 0 0 9.6ZM436.9 201.7a9.6 9.6 0 1 0 0-19.1 9.6 9.6 0 0 0 0 19.1ZM547.9 152.2a12 12 0 1 0 0-24 12 12 0 0 0 0 24ZM500.8 109.1a4.8 4.8 0 1 0 0-9.6 4.8 4.8 0 0 0 0 9.6ZM654 331.1a4.8 4.8 0 1 0 0-9.6 4.8 4.8 0 0 0 0 9.6ZM645.3 351.9a7.2 7.2 0 1 0 0-14.4 7.2 7.2 0 0 0 0 14.4ZM631 391.8a5.6 5.6 0 1 0 0-11.2 5.6 5.6 0 0 0 0 11.2ZM539.9 387a7.2 7.2 0 1 0 0-14.4 7.2 7.2 0 0 0 0 14.4ZM468.8 412.6a4.8 4.8 0 1 0 0-9.6 4.8 4.8 0 0 0 0 9.6Z"/><path fill="#F6BC6E" d="M511.1 147.4a7.2 7.2 0 1 0 0-14.3 7.2 7.2 0 0 0 0 14.3Z"/><path fill="#041923" d="M549.5 452.5a2.4 2.4 0 1 0 0-4.8 2.4 2.4 0 0 0 0 4.8ZM617.3 409.4a3.2 3.2 0 1 0 0-6.4 3.2 3.2 0 0 0 0 6.4ZM635 367.8a3.2 3.2 0 1 0 0-6.3 3.2 3.2 0 0 0 0 6.3ZM522.3 396.6a4 4 0 1 0 0-8 4 4 0 0 0 0 8ZM509.5 388.6a2.4 2.4 0 1 0 0-4.8 2.4 2.4 0 0 0 0 4.8ZM435.3 428.5a4.8 4.8 0 1 0 0-9.6 4.8 4.8 0 0 0 0 9.6ZM571.8 355a2.4 2.4 0 1 0 0-4.7 2.4 2.4 0 0 0 0 4.8ZM589.4 328a4 4 0 1 0 0-8 4 4 0 0 0 0 8ZM650.9 294.4a3.2 3.2 0 1 0 0-6.4 3.2 3.2 0 0 0 0 6.4ZM610.2 296a2.4 2.4 0 1 0 0-4.8 2.4 2.4 0 0 0 0 4.8ZM614.2 280a3.2 3.2 0 1 0 0-6.4 3.2 3.2 0 0 0 0 6.4ZM653.3 280a4 4 0 1 0 0-8 4 4 0 0 0 0 8ZM653.3 236.9a2.4 2.4 0 1 0 0-4.8 2.4 2.4 0 0 0 0 4.8ZM616.5 240a2.4 2.4 0 1 0 0-4.7 2.4 2.4 0 0 0 0 4.8ZM321 401.4a2.4 2.4 0 1 0 0-4.8 2.4 2.4 0 0 0 0 4.8ZM345 358.3a5.6 5.6 0 1 0 0-11.2 5.6 5.6 0 0 0 0 11.2ZM351.4 369.4a4 4 0 1 0 0-8 4 4 0 0 0 0 8ZM345 305.6a2.4 2.4 0 1 0 0-4.8 2.4 2.4 0 0 0 0 4.8ZM373.8 292.8a4 4 0 1 0 0-8 4 4 0 0 0 0 8ZM306.7 304a2.4 2.4 0 1 0 0-4.8 2.4 2.4 0 0 0 0 4.8ZM302 332.7a2.4 2.4 0 1 0 0-4.8 2.4 2.4 0 0 0 0 4.8ZM303.5 353.5a2.4 2.4 0 1 0 0-4.8 2.4 2.4 0 0 0 0 4.8ZM321.9 225.7a3.2 3.2 0 1 0 0-6.4 3.2 3.2 0 0 0 0 6.4ZM307.5 219.3a1.6 1.6 0 1 0 0-3.2 1.6 1.6 0 0 0 0 3.2ZM330.7 181a2.4 2.4 0 1 0 0-4.8 2.4 2.4 0 0 0 0 4.8ZM401 168.2a2.4 2.4 0 1 0 0-4.8 2.4 2.4 0 0 0 0 4.8ZM471.2 131.5a2.4 2.4 0 1 0 0-4.8 2.4 2.4 0 0 0 0 4.8ZM402.5 219.3a4 4 0 1 0 0-8 4 4 0 0 0 0 8ZM345 173a4 4 0 1 0 0-8 4 4 0 0 0 0 8ZM366.6 171.4a3.2 3.2 0 1 0 0-6.4 3.2 3.2 0 0 0 0 6.4ZM361.8 157a4.8 4.8 0 1 0 0-9.6 4.8 4.8 0 0 0 0 9.6ZM442.5 150.6a2.4 2.4 0 1 0 0-4.8 2.4 2.4 0 0 0 0 4.8ZM438.5 133a3.2 3.2 0 1 0 0-6.3 3.2 3.2 0 0 0 0 6.4ZM418.5 121.9a2.4 2.4 0 1 0 0-4.8 2.4 2.4 0 0 0 0 4.8ZM442.5 117.1a4 4 0 1 0 0-8 4 4 0 0 0 0 8ZM516 112.3a4 4 0 1 0 0-8 4 4 0 0 0 0 8ZM528.7 112.3a2.4 2.4 0 1 0 0-4.8 2.4 2.4 0 0 0 0 4.8ZM528 126.7a3.2 3.2 0 1 0 0-6.4 3.2 3.2 0 0 0 0 6.4ZM551 118.7a5.6 5.6 0 1 0 0-11.2 5.6 5.6 0 0 0 0 11.2ZM589.4 123.5a2.4 2.4 0 1 0 0-4.8 2.4 2.4 0 0 0 0 4.8ZM605.4 158.6a4 4 0 1 0 0-8 4 4 0 0 0 0 8ZM584.6 168.2a4 4 0 1 0 0-8 4 4 0 0 0 0 8Z"/><path fill="#041A20" fill-rule="evenodd" d="M390 396.6a2.4 2.4 0 0 1 .4-2.6c.2-.3.5-.5.8-.6l61.5-27.4a2.4 2.4 0 0 1 2 4.4L393 397.8a2.4 2.4 0 0 1-3.1-1.2Zm97.6-43.5a2.4 2.4 0 0 1 1.3-3.2l55.8-24.9a2.4 2.4 0 0 1 3.3 2.1 2.4 2.4 0 0 1-1.4 2.3l-55.8 24.9a2.4 2.4 0 0 1-3.2-1.2Zm78.5-35a2.4 2.4 0 0 1 1.2-3.2l33.1-14.7a2.4 2.4 0 0 1 2 4.3l-33.1 14.8a2.4 2.4 0 0 1-3.2-1.2ZM305.3 273a2.4 2.4 0 0 1 1.2-3.2l69.4-31.5a2.4 2.4 0 0 1 3.4 2.1 2.4 2.4 0 0 1-1.4 2.3l-69.4 31.5a2.4 2.4 0 0 1-3.2-1.2Zm91.2-41.4a2.4 2.4 0 0 1 1.2-3.2l16.9-7.6a2.4 2.4 0 0 1 3.4 2 2.4 2.4 0 0 1-1.4 2.3l-17 7.7a2.4 2.4 0 0 1-3-1.2Zm36.3-16.5a2.4 2.4 0 0 1 1.2-3.2l21.3-9.6a2.4 2.4 0 0 1 2 4.3l-21.3 9.7a2.4 2.4 0 0 1-3.2-1.2Zm80.9-36.7a2.4 2.4 0 0 1 1.2-3.2l39.1-17.7a2.4 2.4 0 0 1 2 4.3l-39.1 17.8a2.4 2.4 0 0 1-3.2-1.2Zm54.9-25a2.4 2.4 0 0 1 1.2-3.1l13.7-6.2a2.4 2.4 0 1 1 2 4.3l-13.7 6.3a2.4 2.4 0 0 1-3.2-1.2Zm32.4-14.6a2.4 2.4 0 0 1 1.2-3.2l17.4-8a2.4 2.4 0 0 1 2 4.5L604 140a2.4 2.4 0 0 1-3.1-1.2Zm20.2 93a2.4 2.4 0 0 1 1.2-3.2l28.1-12.7a2.4 2.4 0 0 1 3.3 3 2.4 2.4 0 0 1-1.3 1.4l-28.2 12.6a2.4 2.4 0 0 1-3.1-1.2Z" clip-rule="evenodd"/><path stroke="#041A20" stroke-linecap="round" stroke-width="3" d="m390.6 340.6 4.8-1.5m-4.8 18.7 4.8-1.5m-4.8 19.5 4.8-1.5"/><path fill="#80B46F" d="M625.3 350.3a16 16 0 1 1-32 0 16 16 0 0 1 32 0Z"/><path fill="#041A20" d="M593.4 380.6a3.2 3.2 0 0 1 2-3l1.2-.2h24a3.2 3.2 0 0 1 0 6.4h-24a3.2 3.2 0 0 1-3.2-3.2ZM606.2 377.4h6.4v-8h-6.4v8Zm0-47.9a3.2 3.2 0 0 0 6.4 0V328a3.2 3.2 0 0 0-6.4 0v1.6Z"/><path fill="#041A20" fill-rule="evenodd" d="M609.4 364.6a14.4 14.4 0 1 0 0-28.7 14.4 14.4 0 0 0 0 28.7Zm0 6.4a20.8 20.8 0 1 0 0-41.5 20.8 20.8 0 0 0 0 41.5Zm15.8-87.5c1.3 0 2.4 1.1 2.4 2.4v2.4h5.7V286c0-1.3 1.1-2.4 2.5-2.4 1.3 0 2.4 1.1 2.4 2.4v6c0 2.8 1 5.5 3 7.6l.6.7c5.4 6 5 15.1-.5 20.9-6 6.2-16.3 6.3-22.4 0a15 15 0 0 1 0-20.8l.7-.8c2-2.1 3.1-5 3.1-7.9V286c0-1.3 1.1-2.4 2.5-2.4Zm8.2 9.6h-5.8c-.4 3.7-2 7-4.5 9.7l-.7.8a10.3 10.3 0 0 0 0 14.3 10.8 10.8 0 0 0 15.4-.1c3.8-4 4-10.3.3-14.4l-.6-.7c-2.4-2.7-3.8-6-4.1-9.6Z" clip-rule="evenodd"/><path fill="#041A20" d="M505.6 407c-.6-2.7-3.2-8.2-9.6-8.8-6.4-.7-8.5 5.6-8.8 8.8-.3 2.4-.8 7.2 2.4 13.5l4 6.4c.2.3 1 .7 1.6 0 .6-.6 7.7-5 11.2-7.2.3-.2 1-1 .7-1.6-1.5-3.4-1-8.2-1.5-11.1Zm3.1 16.7-11.1 7.2c-.3 0-.7.3 0 1.6.8 1.6 6.4 10.4 11.1 8.8 3-.8 8.4-3.8 6.4-9.6 0-.8-1-3.5-5.6-8 0 0-.3-.2-.8 0Zm18.4 9.6 12.8 4.8c.5.3 1.7.5 2.4-.8a73 73 0 0 0 2.4-6.4c.8-3.2 1.6-8.8-.8-14.4-1.6-3.1-3.2-6.2-9.6-7.1-4.5-.7-7.2 4.5-8 7.1-.5 1.6-1.3 5.6 0 8.8.5 1.1.8 4 0 6.4-.2.4-.3 1.2.8 1.6Zm-.8 4.8 12.8 4.8c.3 0 .6.3 0 1.6-.8 1.6-3.2 11.2-8.8 11.2-4.5 0-6.6-1.6-7.2-2.4-.8-1.3-1.9-5 0-8.8.6-1 1.8-3.7 2.4-5.6 0-.4.2-1 .8-.8Z"/><path fill="#041A20" fill-rule="evenodd" d="M570.6 362.5c1.3 0 2.3 1 2.3 2.4v2.7l4.1 3.1 1 .5c3.2.8 5.4 3.7 5.5 7.1l.3 28c1.1.2 2 1.2 2 2.4 0 1.1-.9 2.1-2 2.3l.4 22.3c0 1.4-1 2.4-2.3 2.5-1.3 0-2.3-1-2.4-2.4l-.3-22.3h-17.5v28.6c0 1.4-1 2.4-2.3 2.4-1.3 0-2.3-1-2.3-2.4v-28.6c-1.3 0-2.4-1.1-2.4-2.4 0-1.3 1-2.4 2.4-2.4v-27.4a8 8 0 0 1 6-7.8 3 3 0 0 0 1.3-.5l3.9-3V365c0-1.3 1-2.4 2.3-2.4Zm0 9.3-3.5 2.7c-.9.6-1.9 1-3 1.3a3.2 3.2 0 0 0-2.4 3.1v27.4h17.5l-.4-28c0-1.1-.8-2.2-2-2.5-.9-.2-1.8-.7-2.5-1.2l-3.7-2.8Zm-6.6 13.8c0-1.3 1-2.4 2.4-2.4h7.7c1.3 0 2.3 1 2.3 2.4 0 1.3-1 2.4-2.3 2.4h-7.7c-1.3 0-2.4-1.1-2.4-2.4Zm0 7.1c0-1.3 1-2.3 2.4-2.3h7.7c1.3 0 2.3 1 2.3 2.4 0 1.3-1 2.3-2.3 2.3h-7.7c-1.3 0-2.4-1-2.4-2.4Zm0 7.2c0-1.3 1-2.4 2.4-2.4h7.7c1.3 0 2.3 1.1 2.3 2.4 0 1.3-1 2.4-2.3 2.4h-7.7c-1.3 0-2.4-1-2.4-2.4Z" clip-rule="evenodd"/><path fill="#041A20" d="M572.6 378.4a2.4 2.4 0 1 1-4.7 0c0-1.3 1-2.4 2.3-2.4 1.3 0 2.4 1 2.4 2.4Z"/><path fill="#041A20" fill-rule="evenodd" d="M353.7 189.7a4.1 4.1 0 0 0-4.7 0l-1.3.9c-1 .6-2 1-3 1.3a3.2 3.2 0 0 0-2.6 3.1V224h18.2l-.4-29.4c0-1.2-.9-2.3-2.1-2.6-1-.2-1.8-.7-2.6-1.2l-1.5-1Zm11.4 34.2-.4-29.5c0-3.4-2.4-6.3-5.7-7.1l-1-.5-1.4-1a9 9 0 0 0-10.5 0l-1.3 1-1.2.5a8 8 0 0 0-6.4 7.7V224c-1.3 0-2.4 1-2.4 2.3 0 1.4 1 2.4 2.4 2.4v9.5c0 1.4 1 2.4 2.4 2.4s2.5-1 2.5-2.4v-9.5h18.3l.2 9.6c0 1.3 1.2 2.4 2.5 2.3 1.4 0 2.4-1.1 2.4-2.4l-.3-9.5h.3c1.3 0 2.4-1 2.4-2.4 0-1.3-1-2.3-2.4-2.3h-.4Zm-20.6-20.7c0-1.3 1-2.3 2.4-2.3h8c1.4 0 2.5 1 2.5 2.3 0 1.3-1 2.4-2.4 2.4h-8.1c-1.3 0-2.4-1-2.4-2.4Zm0 7.2c0-1.3 1-2.4 2.4-2.4h8c1.4 0 2.5 1 2.5 2.4 0 1.3-1 2.4-2.4 2.4h-8.1c-1.3 0-2.4-1.1-2.4-2.4Zm0 7.1c0-1.3 1-2.4 2.4-2.4h8c1.4 0 2.5 1.1 2.5 2.4 0 1.3-1 2.4-2.4 2.4h-8.1c-1.3 0-2.4-1-2.4-2.4Z" clip-rule="evenodd"/><path fill="#041A20" d="M353.4 196c0 1.4-1.1 2.5-2.5 2.5-1.3 0-2.4-1-2.4-2.4 0-1.3 1.1-2.4 2.4-2.4 1.4 0 2.5 1 2.5 2.4Zm92.3 191c-2.7.5-7.2 3-7.2 8.8 0 5.7 4.8 6.1 7.2 5.6 1.8-.6 4.8-2.4 4.8-8.8 0-.8-.8-1.6-2.4-.8l-2.4.8c-1.6.8-.8 2.4-.8 2.4s0 .8 1.6.8h.8c-.3 1-1 3-3.2 2.4-1.1-.3-3.5-1.8-1.6-5.6.5-.8 2-2.4 4-2.4 1.6 0 2.4-.8 2.4-2.4 0-.8-1.1-1.2-3.2-.8Z"/><path fill="#041A20" fill-rule="evenodd" d="M456 395v-11.2c0-.3.4-1.7 1.6-2.4 2.4-1.6 4.4-1.4 5.6-.8 1.1.5 2.7 2.6.8 6.4-.2.8-1.2 1.2 0 2.4.6.5 1.6 2.4.8 3.2-.5.8-2 1.6-4-1.6-.8-.8-2.4-1.1-2.4.8 0 1.6.4 4.2-.8 4.8-.5.3-1.6.3-1.6-1.6Zm2.4-7.2v-2.4c2.6-3.2 3.2-1.9 3.2-.8 0 2-2.1 3-3.2 3.2Zm11.2-5.6c-.2 2.4.5 7 5.6 6.4 5.1-.6 7-6.1 7.2-8.8.3-2.6-.6-7.6-6.4-6.4-1.9.6-5.7 3-6.4 8.8Zm3.2 0c0-4.5 3.2-5.6 4.8-5.6 3.2 0 1.6 5.6 0 7.2-3.2 3.2-4.5.3-4.8-1.6Z" clip-rule="evenodd"/><path fill="#041A20" d="M487.2 370.2v11.2c0 .5-.3 2.3 1.6 1.6 2.4-.8 5.8-2.5 7.2-3.2.5-.2.8-.8.8-2.4 0-1.4-1.6-.8-3.2 0l-3.2 1.6v-3.2l2.4-.8c1.6-.8 1.6-.8 1.6-2.4 0-1.1-1.1-.6-2.4 0l-1.6.8V371l4.8-2.4c1.6-.8 1.6-4-.8-3.2-.3.1-2 .7-6.4 3.2-.6.4-.8 1-.8 1.6Zm14.4 5.6v-12c0-2.3 1.9-2 2.4-1.6l4.7 4.8V360c0-.8 3.2-2.6 3.2 0v12c0 1-.6 2.5-3.2 0l-4-4v7.1c0 1.6-3.1 3.4-3.1.8Zm19.1-20v9.6l4.8-1.6c2.4-.8 2.4 3.2-.8 4l-4.8 1.6c-.5.3-2.4.4-2.4-1.6v-11.1c0-1.4 3.2-3.2 3.2-.8Z"/><path fill="#041A20" fill-rule="evenodd" d="M529.5 355.9c-.3 2.4 1.3 7 6.4 6.4 5.1-.7 7.2-5.6 7.2-8.8 0-2.1-1.5-6.9-7.2-5.6a8.7 8.7 0 0 0-6.4 8Zm3.6.2c0-3.9 2.8-5 4.4-5 3.2 0 2.4 4.8.8 6.4-3.2 3.2-5.2.8-5.2-1.4Z" clip-rule="evenodd"/><path fill="#041A20" d="M428.1 320.7c2.8 0 5.6.8 5.6 4 0 2.4-2.4 6.4-4.8 6.4-6.4 0-7.2.8-10.4 4-2.6 3.2-7.8 9.4-7.2 15.2.3 2.6 2.3 9.6 8 9.6 1.6 0 5.3-1 7.2-4.8.3-.8.5-2.4-.8-2.4s-1.6.2-2.4.8c-.8.5-3 .2-4-2.4-.5-1.4 0-5 2.4-6.4 3.2-2 8.3-4 10.4-4.8 1.3-.5 4-.8 4 2.4v17.6c0 4-8.8 11.1-16 11.1-4.2.3-13.6-1.6-16.8-11.1a26 26 0 0 1 2.4-22.4c4.8-8.8 12-16.8 22.4-16.8Z"/><path fill="#041A20" fill-rule="evenodd" d="M441.7 356.7v-42.4c0-.8.4-2.7 2.4-4a33 33 0 0 1 13.5-4.7c3 0 9.1 1.9 10.4 9.5.6 2.7 1.6 8-2.4 12.8l-4 4.8c-.2.5-.6 1 0 1.6l7.2 9.6c.6.8 1.6 2.8.8 4-.5.8-2 2.5-4 3.2-.8.2-2.7.4-4-.8l-8-12c-1-1.3-3.1-2.2-3.1 1.6V355c0 1-1 3.3-4.8 4-1.4.2-4 .1-4-2.4Zm8.8-27.2V320c0-.6-.3-1.8.8-2.4 1-.5 1.3-.5 2.3-.8 6.1-1.5 6.2 4 5.6 7.2-.6 3.2-4.5 5.6-6.3 6.4-1.3.6-2.4 0-2.4-.8Zm23.1 10.4 11.2-46.3c.3-1.6 1.6-4 4.8-4.8 2-.5 4.1.6 4.8 3.2.6 2.5 8.2 24.7 12 36 .5 1.5.8 3.9-2.4 6.3-1.4.5-5.2 1.6-6.4-1.6l-1.6-4c-.3-.5-1.1-1.4-2.4-.8l-7.2 3.2c-.8.3-1.6.8-2.4 3.2l-1.6 7.2c-.8 2.4-3.2 4.4-5.6 4-1.4-.3-4.8-.8-3.2-5.6Zm13.6-20.8 2.4-9.6c.2-1 .6-.4.8 0 .5 1.6 1.7 6 2.4 7.2.4.8 0 .8-1.6 1.6L488 320c-1.3.7-.8-.8-.8-.8Z" clip-rule="evenodd"/><path fill="#041A20" d="M533.5 271.2c2.1-.3 6.4 1 6.4 4.8s-2.9 5.3-4.8 5.6c-3.5.5-7.2 1.6-12 7.2-2.1 3.7-6.4 10.4-3.2 18.3 1 2 4 5.6 8.8 4 .5-.2 2-1.2 4-3.2.8-1 2.4-2.5 5.6 0 1 .8 2.4 4 .8 6.4-2.1 2.7-6.4 8-12.8 8-4.5.3-13.6-1.6-16.8-12.8-.8-3.7-.6-12.3 3.2-20 2.7-5.5 10.6-17 20.8-18.3Zm12-4v42.3c0 1.4 1 3.9 4.8 3.2 1.3-.2 4-1.7 4-5.6v-13.5c0-.8.3-2.6 1.6-3.2a225 225 0 0 1 7.1-3.2c.6-.3 1.6-.3 1.6 1.6v12c0 1.6 1 4.4 4.8 3.2 1.4-.6 4-2.3 4-4.8V256c0-1.3-.8-3.8-4-3.2-1.6.6-4.8 2.4-4.8 5.6v16c0 .3 0 .8-.8 1.6l-7.1 3.2c-.8.3-2.4.3-2.4-1.6v-12.8c0-1.6-.8-3.2-4-3.2-2.4 0-4.8 3-4.8 5.6Zm43.9-9.6v31.2c0 1.6.8 4.6 4 4 1.6-.3 4.8-1.8 4.8-5.6v-32.8c0-.8 0-2.3 3.2-4l4-1.5c2.4-.8 4.8-4 4-7.2-.6-2.4-1.2-5.1-5.6-3.2l-21.6 9.6c-1.9.8-4 3.2-3.2 8 .5 1.3 2.4 3.1 5.6 1.5l2.4-.8c2.4-.8 2.4 0 2.4.8Zm-221 7c-7.3-1.7-22.6-2-40.1 17.8-4.5 5-13.4 20-13.6 36-.2 15.9 0 32 0 38.3 0 7.7 5.1 26 23 33.5 5.3 2.4 20.1 3.1 32.2-9.4.6 7.5-.3 26.3-8.6 38-2.5 3.6-9.5 10.2-18 8.3-2.6-1-6-2.6-6-7.8-.2-1.6 1.2-4.6 4.3-5.7 2.4-.8 4.5-4.5 1.7-8.2-1.3-1.7-3-2.4-5.6-2.4-5 .3-14.4 4.7-12.8 20 .6 5.6 6.1 16 16.7 17.5 8.2.8 17.1-.9 26.8-12 3.6-3.8 12-16.2 12.6-35.2v-85.7c0-1 0-3.4-2.8-2.6-1.9.6-18.6 7.8-26.7 11.5-2.6 1.5-4.7 5.2-3.3 8.2.8 1.7 4 4 7.2 2.6l13-6.2c1.5 0 1.5.4 1.5 3v27.7c0 7.8-5 22.7-16.2 26.4-5.8 2-19 2-24.5-13.7-.9-2.5-2.7-9-2.6-14.5v-33.5c.7-7.1 4.2-21.6 14.5-31.7a34.6 34.6 0 0 1 25.2-9c3.6.7 5.2-.7 6.5-4.5.2-1.2 1-5.4-4.4-6.7Z"/><path fill="#041A20" fill-rule="evenodd" d="M390.6 256.8v64c0 1 1 3.1 4.8 3.1s4.7-2.6 4.7-4v-23.1c0-.8.5-2.7 2.4-4 2.4-1.6 4.8-2.4 6.4 0 1.3 1.9 9.6 12 13.6 16.7.8 1.1 3.4 2.6 7.2 0 3.8-2.5 1.6-7.1-.8-9.5l-12-14.4c-.8-.8-.6-1.8 0-2.4.8-.8 7.2-5.6 8-13.6.3-3.4.4-9.6-1.6-13.6-1.6-3.2-5.6-8.7-12-8.7-5.6 0-8.4.6-13.5 3.2l-4.8 2.3c-1.6.8-2.4 1.5-2.4 4Zm9.5 26.4v-18.4c0-1.9.8-3.2 1.6-4 2.4-2.4 4.8-2.6 6.4-2.4 4.8.8 6.4 5 6.4 8.8 0 3.9-1.6 7-2.4 8.8-1.7 4-7.2 8.5-9.6 9.6-1.2.6-2.4 0-2.4-2.4Zm57.5-56.7c-5.5 0-14.3 5.1-20 15.2a51 51 0 0 0-6.3 28c0 7.1 3 16.8 8 20.7a16.9 16.9 0 0 0 20 .8 35 35 0 0 0 15.1-22.4c2.9-12 2.4-21.5 0-28.7-4.2-12.8-12.8-13.6-16.8-13.6Zm-14.3 28.7c3.2-13.4 9.8-16.7 12.7-16.7 5.1 0 7 4 8 6.4 2 4.4 1.8 14.3.8 20.7-1.6 10.4-8 15.2-10.4 16-1.9.6-4.3.6-5.5 0-4.8-2.4-9.6-9.6-5.6-26.4Z" clip-rule="evenodd"/><path fill="#041A20" d="M483.2 216.1v61.5c0 1 1 2.9 4.8 1.6a80 80 0 0 0 16-7.2c2.5-1.9 4.7-4 2.4-8.8-1.6-2.4-4.8-3.2-8-.8-1.1.8-2 1.8-3.2 2.4-.8.3-2.4.2-2.4-2.4v-46.3c0-1.6 0-4.8-4.8-4.8-3.8 0-4.8 3.2-4.8 4.8Zm40-19.1c-6.3-.7-11.3 3.3-15.3 10.3-5 9-.8 17.9 1.6 20.8l10.4 13.6c1.6 2.1 3.2 7.2 0 10.4-1.6 1.5-3.2 2-6.4 4-3.2 1.9-2.4 6-1.6 8 .6 1.3 2.8 3.4 7.2 1.5a21 21 0 0 0 12.8-14.3c.8-3.2 2-11-2.4-16.8-4.5-5.8-9.3-12.3-11.2-15.2-.8-1.3-2.5-4.8 0-8 .6-.8 1.6-2.4 4-2.4 1.9 0 5.8-1.6 6.4-4.8.5-1.8.2-6.5-5.6-7.1Zm47.8-11.2c0-1.6-1.2-4.8-6.4-4.8-3.4 0-10.8.8-20 12-3.4 4.2-9.5 11.1-9.5 27.1 0 8 2 18 9.6 23.2a21.2 21.2 0 0 0 22.3 0c2.4-1.6 7-6 5.6-10.4-1.6-5.6-7.6-4-8.8-1.6-.8 1.6-5.5 5.6-10.3 3.2-4.8-2.4-8-9.6-8-14.4 0-4.8 0-13.6 8.8-23.1 1.6-1.6 5.9-4.8 10.3-4.8 2.2 0 6.4-1.3 6.4-6.4Zm8-8.8v56.7c0 1.3 1 3.8 4.8 3.2 3.8-.7 4.8-3.2 4.8-6.4v-19.2c0-1 .3-3.3 1.6-4l8-3.2c1-.5 3.2-.8 3.2 2.4v16.8c0 1.3 1.1 3.8 5.6 3.2 3.2-.5 4.8-3.2 4.8-6.4v-55.9c0-1.3-1-3.8-4.8-3.2a6.4 6.4 0 0 0-5.6 6.4v20c0 1.6.1 3.5-2.4 4.8l-7.2 3.2c-1 .2-3.2.3-3.2-1.6v-18.4c0-2.4 0-5.6-4.8-4.8-5 .8-4.8 5.6-4.8 6.4Zm40.7-18.4v56c0 1.3.8 3.6 4 2.3 3.2-1.3 15.2-7 20.8-9.6.8-.5 2.4-1.6 2.4-4.8 0-3.2-.5-5-2.4-5.5-2-.7-4 .2-4.8.8l-4.8 3.1c-1.6.8-4.8 1.6-4.8-1.6v-8c0-1 0-2.3 3.2-4 2.4-1.1 6-2 8-4 .8-.7 2.2-3.1 1.6-6.3-.8-4-4-4-5.6-3.2l-3.2 1.6c-1.3.5-4 1-4-1.6v-8c0-1 .7-3.5 3.2-4.8l10.4-4.8c1-.5 3.2-2.4 3.2-5.6 0-1.3.3-3.7-.8-4.8-1.4-1.4-2.4-1.2-5.6 0-3.2 1.3-13 5.9-17.6 8-1 .6-3.2 2.3-3.2 4.8Z"/><path fill="#041A20" fill-rule="evenodd" d="M466.4 181v26.3c0 1.4 1 3.5 4.8 1.6 4.5-2.1 12-5.6 13.6-17.5.3-4.8-.8-14.7-7.2-16-3.7-.8-11.2-.8-11.2 5.6Zm5.6 20v-16.8c0-6.4 6-1.9 6.4 3.2.6 7.6-1.9 11.4-3.2 12.7-2.5 2.6-3.2 2-3.2.8Z" clip-rule="evenodd"/><path fill="#041A20" d="M489.6 169.8v28.8c0 .7.8 2 4 .7 3.2-1.2 7.7-3.1 9.6-4 1.6-.6 3.2-6.3-2.4-4.7l-4.8 1.6v-6.4l5.6-2.4c1.6-.8 2.7-5.6 0-5.6-.6 0-2.4.3-5.6 1.6v-8.8l6.4-2.4c2.4-.8 3.2-6.2 0-5.6-8.8 2.4-12.8 3.4-12.8 7.2Z"/><path fill="#F6BC6E" d="M462.4 117.9v4c-3.4 6.1-6 19.2 11.2 22.3 7-1.3 19-7.6 12-22.3v-4H476c-.3 1.3-1.3 4-3.2 4-1.9 0-3-2.7-3.2-4h-7.2Z"/><path fill="#FFF8EB" d="M479.2 125.9v6.4c0 2.4 3.2.8 3.2 0v-6.4c0-2.4-3.2-1.6-3.2 0Zm-16.8-8c-1.8-2.7-3.8-8.3 3.2-9.6 1.6-2.6 6-6.7 10.4-1.6l3.2 3.2c2.7-.5 8-.5 8 4 .3 1.3 0 4-3.2 4h-8c-.5 1.6-2 4.8-3.2 4.8-1.3 0-2.6-3.2-3.2-4.8h-7.2Z"/><path fill="#041A20" fill-rule="evenodd" d="M460 120.3c-2.6 3.5-4.8 12.8 0 19.2 2.2 2 5.6 6.3 11.2 6.3v6.4c0 .8-.5 2.4-2.4 2.4h-5.6c-1.6 0-3.2 4.8 0 4.8H484c2.4 0 2.4-4.8 0-4.8h-5.6c-.8 0-2.4-.4-2.4-2.4v-6.4c2.4 0 7.2-1.6 11.2-6.3 3.2-4 5.1-11.5 0-19.2 1.6-1.3 4.1-5.1 1.6-9.6-1-1.6-4.2-4.5-8-3.2-2.4-2.4-4-5.6-11.2-4.8-2.1.3-5 1.3-5.6 3.2a7.2 7.2 0 0 0-6.4 7.2c0 1.6.5 5.3 2.4 7.2Zm8 0h-3.2a15.8 15.8 0 0 0-1.6 14.4c2.6 5 8 6.4 10.4 6.4 5.1 0 9-3.5 10.4-5.6 3.2-5.8-.3-12.8-2.4-15.2h-4.8c0 1.3-.8 4-4 4s-4.5-2.7-4.8-4Zm5.6-.8H472c0-3.2-2.1-4-3.2-4H464c-3.2-4 .8-5.6 3.2-4.8.7-2 2.4-3.2 4-3.2 4 0 6.1 4.3 6.4 6.4h2.4c1.3-2 3.2-1.3 4-.8 1.6 1.6 0 2.4-1.6 2.4h-4.8c-3.2 0-4 2.7-4 4Z" clip-rule="evenodd"/><path fill="#FB8268" d="M385.8 148.2v10.4c-1.6 3.7-3.5 12.3 1.6 16.8 5.3 5.8 18.8 14 30.3 0 1.3-2.4 3.4-9.3.8-17.6v-9.6h-14.4v4.8c-1.6 3-5.7 7-9.5 0v-4.8h-8.8Z"/><path fill="#FFF8EB" d="M409.7 154.6v16.8c0 1.6 4 1.6 4-4.8v-12.8c0-3.2-4-.8-4 .8Zm-16-6.4H385c-3.2-3.7-6.3-11.5 7.2-12.7 2.4 0 7.8 1 10.3 4.8 2-3 7.2-7.7 13.6-3.2 3.2 1.8 8 6.7 1.6 11.1h-13.6v4.8c-2 3.5-7 8.3-9.5 0l-.8-4.8Z"/><path fill="#041A20" fill-rule="evenodd" d="M397 196.2c.8 0 2.3-.7 2.3-3.2v-5.6c0-.6-.4-1.8-2.3-2.4-3-.8-9.6-3.9-12.8-9.6-3.2-5.8-2.4-12-1.6-14.4.2-1.6.8-7.2 0-10.4-2.4-4-3.7-10 1.6-14.3 4.2-3.5 6.2-3.9 12-3.2 1.6.2 5 1.4 6.3 4 1.6-2.2 8-5 14.4-2.4 4 1.6 9.3 6.2 4.8 15.1-.3 1.9-.8 4 0 8.8 1.1 6.7 2.9 14.6-4.8 21.6a23.6 23.6 0 0 1-9.6 4.8c-.8.2-2.4 1-2.4 2.4v5.6c0 1 .5 3.2 2.4 3.2h6.4c1.6 0 3.2 4.7 0 4.7h-23.1c-3.2 0-1.6-4.7 0-4.7h6.4Zm7.1-53.5h-4c-.6-2-2.3-3.5-3.1-4-4.5-2-7.8-.3-8.8.8-3.9 3.8-1.6 5.8 0 6.3h6.4c1.2 0 1.6 1.6 1.6 2.4v4c0 1.6 1.8 2.4 3.1 2.4 1.4 0 2.4-.8 2.4-2.4v-4c0-1.9 2.2-2.4 3.2-2.4h10.4c2.6 0 2.7-2 2.4-3.1-.6-2.6-3-3.8-4-4a8.7 8.7 0 0 0-9.6 4Zm-12.7 8h-3.2c0 5-.6 9.5-.8 11.1-1.3 9 .6 12.2 6.4 16a15.8 15.8 0 0 0 17.5 0c7-4.5 6.7-12.5 5.6-16-1.3-4.5-1-9.3-.8-11.2h-8.8c-1.2 7.7-5.6 8.8-8.8 8.8-5.7-.6-7.1-6.1-7.1-8.8Z" clip-rule="evenodd"/></g></g></g></g><defs><clipPath id="a"><path fill="#fff" d="M0 0h960v560H0z"/></clipPath><clipPath id="c"><path fill="#fff" d="M270 70h420v420H270z"/></clipPath><linearGradient id="b" x1="480" x2="480" y1="560" y2="0" gradientUnits="userSpaceOnUse"><stop stop-color="#FFEBC6"/><stop offset="1" stop-color="#FFF8EB"/></linearGradient></defs></svg>
