<svg xmlns="http://www.w3.org/2000/svg" xmlns:xlink="http://www.w3.org/1999/xlink" viewBox="0 0 720 420">
    <defs>
        <linearGradient id="b" x1="361" y1="421" x2="361" y2="1" gradientTransform="matrix(1, 0, 0, 1, 0, 0)" gradientUnits="userSpaceOnUse">
            <stop offset="0" stop-color="#f8fafc"/>
            <stop offset="1" stop-color="#fff"/>
        </linearGradient>
        <clipPath id="a">
            <path fill="none" d="M1 1h720v420H1z"/>
        </clipPath>
        <symbol id="c" viewBox="0 0 722 422">
            <g clip-path="url(#a)">
                <path fill="url(#b)" d="M1 1h720v420H1z"/>
                <path fill="none" stroke="#f8fafc" stroke-miterlimit="10" stroke-width="2" d="M1 1h60v60H1zm60 0h60v60H61zm60 0h60v60h-60zm60 0h60v60h-60zm60 0h60v60h-60zm60 0h60v60h-60zm60 0h60v60h-60zm60 0h60v60h-60zm60 0h60v60h-60zm60 0h60v60h-60zm60 0h60v60h-60zm60 0h60v60h-60zM1 61h60v60H1zm60 0h60v60H61zm60 0h60v60h-60zm60 0h60v60h-60zm60 0h60v60h-60zm60 0h60v60h-60zm60 0h60v60h-60zm60 0h60v60h-60zm60 0h60v60h-60zm60 0h60v60h-60zm60 0h60v60h-60zm60 0h60v60h-60zM1 121h60v60H1zm60 0h60v60H61zm60 0h60v60h-60zm60 0h60v60h-60zm60 0h60v60h-60zm60 0h60v60h-60zm60 0h60v60h-60zm60 0h60v60h-60zm60 0h60v60h-60zm60 0h60v60h-60zm60 0h60v60h-60zm60 0h60v60h-60zM1 181h60v60H1zm60 0h60v60H61zm60 0h60v60h-60zm60 0h60v60h-60zm60 0h60v60h-60zm60 0h60v60h-60zm60 0h60v60h-60zm60 0h60v60h-60zm60 0h60v60h-60zm60 0h60v60h-60zm60 0h60v60h-60zm60 0h60v60h-60zM1 241h60v60H1zm60 0h60v60H61zm60 0h60v60h-60zm60 0h60v60h-60zm60 0h60v60h-60zm60 0h60v60h-60zm60 0h60v60h-60zm60 0h60v60h-60zm60 0h60v60h-60zm60 0h60v60h-60zm60 0h60v60h-60zm60 0h60v60h-60zM1 301h60v60H1zm60 0h60v60H61zm60 0h60v60h-60zm60 0h60v60h-60zm60 0h60v60h-60zm60 0h60v60h-60zm60 0h60v60h-60zm60 0h60v60h-60zm60 0h60v60h-60zm60 0h60v60h-60zm60 0h60v60h-60zm60 0h60v60h-60zM1 361h60v60H1zm60 0h60v60H61zm60 0h60v60h-60zm60 0h60v60h-60zm60 0h60v60h-60zm60 0h60v60h-60zm60 0h60v60h-60zm60 0h60v60h-60zm60 0h60v60h-60zm60 0h60v60h-60zm60 0h60v60h-60zm60 0h60v60h-60z"/>
                <rect x="16" y="16" width="690" height="390" rx="18" ry="18" fill="none" stroke="#f8fafc" stroke-miterlimit="10" stroke-width="2"/>
            </g>
        </symbol>
    </defs>
    <use width="722" height="422" transform="translate(-1 -1)" xlink:href="#c"/>
    <path d="M265.85 220.57a5 5 0 0 1-1.15-.13h-.01a4.99 4.99 0 0 1-3.7-6c.19-.77.98-3.59 3.27-7.69a48.44 48.44 0 0 1 23.23-20.94c6.7-2.86 14.24-4.3 22.42-4.3.35 0 .65-.29.65-.63s-.3-.63-.65-.63c-12.66 0-23.72 3.46-32.89 10.27l-2.62 1.95.06-3.27a25.58 25.58 0 0 1 7.49-17.78 26.27 26.27 0 0 1 12.81-7.17 27.09 27.09 0 0 1 12.15 0c1.42.34 2.88.51 4.35.51 3.02 0 5.97-.73 8.53-2.1a16.6 16.6 0 0 0 6.46-6.23 3.56 3.56 0 0 1 6.33.26 42.3 42.3 0 0 1 2.82 8.77 47.61 47.61 0 0 1-.86 22.69 42.5 42.5 0 0 1-5.23 11.46 37.62 37.62 0 0 1-8.16 8.96 34.62 34.62 0 0 1-10.59 5.7 26.43 26.43 0 0 1-23.32-1.96 26.55 26.55 0 0 1-8.7-8.46c-6.07 6.24-7.78 12.78-7.82 12.93a5 5 0 0 1-4.85 3.82Z" fill="#809984"/>
    <g stroke="#f6f6f6" stroke-miterlimit="10" stroke-width="2.41">
        <path d="M152.1 253.64v-66.53c0-6.05 3.4-9.45 9.45-9.45h43.09c4.28 0 7.81 3.4 7.81 7.81 0 4.16-3.53 7.56-7.81 7.56h-34.65v18.27h33.77c4.28 0 7.81 3.4 7.81 7.69s-3.53 7.69-7.81 7.69h-33.77v26.97c0 4.79-3.91 8.95-8.82 8.95s-9.07-4.16-9.07-8.95Zm71.57.89v-69.68a8.04 8.04 0 0 1 8.06-8.06 8.1 8.1 0 0 1 7.94 8.06v69.68a8.09 8.09 0 0 1-7.94 8.06 8.03 8.03 0 0 1-8.06-8.06Zm98.79 1.38c0 4.16-2.65 7.18-6.93 7.31h-1.39c-8.32 0-13.74-3.65-15.75-10.84a23.36 23.36 0 0 1-19.78 10.84c-15.37 0-26.97-11.59-26.97-31.88s11.47-32.01 26.97-32.01c7.18 0 13.99 3.15 18.77 9.58v-1.13c0-4.41 3.65-7.81 8.06-7.81s8.06 3.65 8.06 8.06v35.41c0 3.28 1.64 5.17 3.91 5.67l.63.13c3.02.88 4.41 3.65 4.41 6.68Zm-25.08-35.28c-2.65-4.03-8.44-6.93-13.86-6.93-9.07 0-15.37 7.06-15.37 17.64s6.3 17.64 15.37 17.64c5.42 0 11.21-2.9 13.86-6.93v-21.42Zm90.85-1.89v35.79a8.04 8.04 0 0 1-8.06 8.06 8.1 8.1 0 0 1-7.94-8.06v-29.61c0-8.44-4.41-11.34-11.21-11.34-6.3 0-11.21 3.53-13.86 7.18v33.77a8.09 8.09 0 0 1-7.94 8.06 8.03 8.03 0 0 1-8.06-8.06v-46.5c0-4.54 3.53-8.19 7.94-8.19s8.19 3.65 8.19 8.19v.5a28.34 28.34 0 0 1 21.17-9.2c13.36 0 19.78 7.56 19.78 19.41Zm49.39 36.92c0 3.15-2.02 5.42-4.79 6.3a24.99 24.99 0 0 1-8.32 1.26c-11.21 0-17.26-5.8-17.26-16.63v-31.75h-3.91c-3.91 0-7.06-3.15-7.06-6.93s3.15-7.06 7.06-7.06h3.91v-9.45a8.14 8.14 0 0 1 8.19-8.06 8.1 8.1 0 0 1 7.94 8.06v9.45h6.3c3.78 0 6.93 3.15 6.93 7.06s-3.15 6.93-6.93 6.93h-6.3v27.47c0 3.78 1.89 6.68 5.42 6.68 1.13 0 1.89-.25 2.65-.25 3.78.25 6.17 3.15 6.17 6.93Z" fill="#1f0e32"/>
        <path d="M454.88 242.68c5.54 0 10.21 4.66 10.21 10.21s-4.66 10.21-10.21 10.21-10.21-4.66-10.21-10.21 4.66-10.21 10.21-10.21Zm81.14-23.94v35.79a8.04 8.04 0 0 1-8.06 8.06 8.1 8.1 0 0 1-7.94-8.06v-29.61c0-8.44-4.41-11.34-11.21-11.34-6.3 0-11.21 3.53-13.86 7.18v33.77a8.09 8.09 0 0 1-7.94 8.06 8.03 8.03 0 0 1-8.06-8.06v-46.5c0-4.54 3.53-8.19 7.94-8.19s8.19 3.65 8.19 8.19v.5a28.34 28.34 0 0 1 21.17-9.2c13.36 0 19.78 7.56 19.78 19.41Zm15.88 35.79v-69.68a8.04 8.04 0 0 1 8.06-8.06 8.1 8.1 0 0 1 7.94 8.06v69.68a8.09 8.09 0 0 1-7.94 8.06 8.03 8.03 0 0 1-8.06-8.06Z" fill="#66806a"/>
    </g>
</svg>
