<svg xmlns="http://www.w3.org/2000/svg" viewBox="0 0 720 420">
    <defs>
        <linearGradient id="b" x1="360" y1="420" x2="360" y2="0" gradientTransform="matrix(1, 0, 0, 1, 0, 0)" gradientUnits="userSpaceOnUse">
            <stop offset="0" stop-color="#454447"/>
            <stop offset="1" stop-color="#4e4d50"/>
        </linearGradient>
        <clipPath id="a">
            <path fill="none" d="M0 0h720v420H0z"/>
        </clipPath>
    </defs>
    <g clip-path="url(#a)">
        <path fill="url(#b)" d="M0 0h720v420H0z"/>
        <path d="M0 0h60v60H0zm60 0h60v60H60zm60 0h60v60h-60zm60 0h60v60h-60zm60 0h60v60h-60zm60 0h60v60h-60zm60 0h60v60h-60zm60 0h60v60h-60zm60 0h60v60h-60zm60 0h60v60h-60zm60 0h60v60h-60zm60 0h60v60h-60zM0 60h60v60H0zm60 0h60v60H60zm60 0h60v60h-60zm60 0h60v60h-60zm60 0h60v60h-60zm60 0h60v60h-60zm60 0h60v60h-60zm60 0h60v60h-60zm60 0h60v60h-60zm60 0h60v60h-60zm60 0h60v60h-60zm60 0h60v60h-60zM0 120h60v60H0zm60 0h60v60H60zm60 0h60v60h-60zm60 0h60v60h-60zm60 0h60v60h-60zm60 0h60v60h-60zm60 0h60v60h-60zm60 0h60v60h-60zm60 0h60v60h-60zm60 0h60v60h-60zm60 0h60v60h-60zm60 0h60v60h-60zM0 180h60v60H0zm60 0h60v60H60zm60 0h60v60h-60zm60 0h60v60h-60zm60 0h60v60h-60zm60 0h60v60h-60zm60 0h60v60h-60zm60 0h60v60h-60zm60 0h60v60h-60zm60 0h60v60h-60zm60 0h60v60h-60zm60 0h60v60h-60zM0 240h60v60H0zm60 0h60v60H60zm60 0h60v60h-60zm60 0h60v60h-60zm60 0h60v60h-60zm60 0h60v60h-60zm60 0h60v60h-60zm60 0h60v60h-60zm60 0h60v60h-60zm60 0h60v60h-60zm60 0h60v60h-60zm60 0h60v60h-60zM0 300h60v60H0zm60 0h60v60H60zm60 0h60v60h-60zm60 0h60v60h-60zm60 0h60v60h-60zm60 0h60v60h-60zm60 0h60v60h-60zm60 0h60v60h-60zm60 0h60v60h-60zm60 0h60v60h-60zm60 0h60v60h-60zm60 0h60v60h-60zM0 360h60v60H0zm60 0h60v60H60zm60 0h60v60h-60zm60 0h60v60h-60zm60 0h60v60h-60zm60 0h60v60h-60zm60 0h60v60h-60zm60 0h60v60h-60zm60 0h60v60h-60zm60 0h60v60h-60zm60 0h60v60h-60zm60 0h60v60h-60z" fill="none" stroke="#454447" stroke-miterlimit="10" stroke-width="2"/>
        <rect x="15" y="15" width="690" height="390" rx="18" ry="18" fill="none" stroke="#454447" stroke-miterlimit="10" stroke-width="2"/>
    </g>
    <g fill="#ceb796">
        <path d="M392.22 195.07c-2.55 2.01-6.02 5.5-9.13 8.04a1.75 1.75 0 0 0 1.05 3.09c2.01.1 3.91-.12 4.72 1.69s-2.19 4.52-3.89 6.15c-4.7 4.42-13.27 9.16-16.66 15.17-.8 1.41.12 2.23 1.22 1.85 4.42-1.51 29.32-10.91 34.12-12.6.66 1.59-14.47 7.94-19.15 10.23-6.02 2.83-10.44 4.9-14.73 7.37-2.01 1.19-1.65 2.67-2.65 8.86-.44 2.69-.56-1.61-1.55-2.69s-1.16-1.29-3.15 0a100.64 100.64 0 0 0-20.23 19.47c-4.23 4.86-14.05 7.09-19.57 1.45-1.45-1.47-4.28-6.03 1.89-3.64 7.61 1.17 13.79-.52 17.84-7.82a40.33 40.33 0 0 1 6.62-7.19c3.23-3.25 7.02-9.28 12.52-9.78 3.67-.32 2.69-4.24 4.01-6.51 3.05-5.3 7.89-7.05 12.04-10.49a17.78 17.78 0 0 0 3.25-2.67 3.82 3.82 0 0 0 1.2-3.07l-.74-1.77a1.17 1.17 0 0 0-.2-.34 6.8 6.8 0 0 0-5.12-1.17 11.99 11.99 0 0 0-6.02 3.58c-10.78 10.04-21.7 17.66-30.11 28.29-13.05 16.49-34.4 11.29-49.19-4.44-1-1.08-1.61-3.38-.82-4.26a5.12 5.12 0 0 1 4.7-.84 39.47 39.47 0 0 1 7.61 4.76c12.83 9.8 19.71 8.52 30.11.64 9.11-6.91 20.49-16.51 29.48-24.11a1.8 1.8 0 0 0-1.06-3.2c-2.71-.12-5.68.52-6.4-2.71-.46-2.01 3.67-5.34 6.9-8.78 1.12-1.21.74-2.27-.9-2.37-5.54-.3-12.4.34-16.38.14a21.63 21.63 0 0 1-6.98-1.31 3.74 3.74 0 0 1-2.61-4.02 8.03 8.03 0 0 1 4.23-6.17c8.97-6.03 9.11-8.52 28.56-12.74 4.62-1 2.37-4.36-.12-5.06-2.49-.7-12.99-3.31-15.84-4.02-12.46-2.69-19.11-3.5-31.41-6.75-3.59-.63-7-2-10.04-4.02a4.32 4.32 0 0 1-.96-6.03l.2-.26c2.83-3.42 5.08-4.22 8.65-6.49 15.62-9.92 32.66-9.86 50.04-5.63 7.55 1.83 15.05 4.02 22.7 5.12 2.58.51 5.24.51 7.83 0 4.13-.96 2.37-6.03 1.75-6.63a62.75 62.75 0 0 0-9.15-5.48c-27.58-13.46-61.6-13.76-80.28-1.33-.6.26-3.51 1.53-4.21 1.1 29.18-23.71 60.8-16.07 91.24-1.87.6.28 2.43 1.04 2.95.6.86-.7.6-1.81.7-3.13l-.54-3.92a50.03 50.03 0 0 1 4.92 3.92c.24 2.58.32 5.17.24 7.75-.3 15.23 7.11 19.65 3.13 38.01-.44 2.01 5.9 7.21 7.27 9.24.58.86 2.17 6.29 1.16 6.03l-1.81-4.7c0-1.27-4.52-5.14-5.62-4.84l-2.15.22a2.56 2.56 0 0 1-1.16-.72c-1.14-1.25-2.67-3.15-3.33-1.41-2.19 5.73-.32 15.59-.68 21.07h-.58c-.6-11.51-1.55-15.03-1.26-29.15-.14-3.42-.08-6.84.16-10.25.92-7.67-3.61-11.93-9.13-12.7-21.44-2.99-42.15-4.26-63.52-.38-1.9.55-3.74 1.29-5.5 2.21-.88.46.22 3.4 1.16 3.7 6.16 2.01 10.88 4.02 15.82 5.1 11.76 2.69 17.92 2.59 33.08 9.64 4.74 2.2 9 5.32 12.54 9.16 5.08 5.67 1.24 8.22-4.15 10.04-7.06 2.47-16.82.34-24.19 1.69-4.26.78-5.1 2.01-9.29 4.02-.48.24-2.87 2.89-2.77 3.44v2.57c.44 1.19 2.01 1 2.49.98l25.25-1.21c3.37-.16 4.11 0 2.99 2.01l-9.23 6.03a3.72 3.72 0 0 0 .3 6.19c4.74 2.75 8.83-2.71 12.04-4.54 4.7-2.73 8.93-4.34 13.39-6.53l.12 1.08Z"/>
        <path d="M427.4 216.97a.12.12 0 0 1-.03-.17.12.12 0 0 1 .17-.03c3.79 2.15 10.3 6.91 13.79 8.04 9.21 2.93 17.92 3.58 25.19-3.44a266.82 266.82 0 0 0 21.36-23.24c5.88-7.23 7.23-14.06 0-19.85-14.83-11.93-34.76-27.14-49.74-38.89-4.8-3.78.34 3.48-6.32 4.02-6.14.44-7.19-.44-10.88-2.65-.42-.26-2.59-1.69-2.13-1.87l5.9-.5c.49-.08.96-.25 1.38-.5l2.47-1.25a1.88 1.88 0 0 0 .3-3.17c-9.92-7.59-20.99-15.19-29.5-22.6a931.7 931.7 0 0 1-38.62-35.72c-11.14-10.79-18.99-24.89-17.62-40.66.92-10.75 6.26-16.69 17.12-17.78 9.92-.98 18.67 1.91 27.1 6.89 12.87 7.59 21.28 16.67 31.85 25.09 1.36 1.08 4.01 4.52 6.36 7.05.38.39 1 .4 1.39.02.14-.14.23-.31.28-.5 1.57-7.13-12.58-16.07-9.87-28.65a1.5 1.5 0 0 1 1.81-1.07l.08.02c9.25 2.01 9.25 22.1 14.35 47.81 0 .32-.44.42-.6.14a107.07 107.07 0 0 0-16.62-22.96c-10.38-11.27-26.09-23.32-40.48-28.43-8.99-3.23-19.93-3.07-26.79 3.62-6.18 6.03-3.27 17.22-.18 24.25a51.53 51.53 0 0 0 11.82 17 874.93 874.93 0 0 0 73.36 58.84c30.27 22.1 59.07 45.54 84.9 72.89 12.3 13.02 27.64 23.14 41.63 34.55 2.01 1.69 5.28 2.73 6.88 5.26a49.76 49.76 0 0 1-7.71-3.46c-25.27-19.27-35.73-23.51-53.59-37.35-8.93-8.94-13.91-6.71-14.99 4.36-.66 6.73-5.02 7.07-8.89 9.66-7.25 4.86-11.06 9.16-19.83 15.41-9.59 6.83-10.72 14.75-10.36 24.11.4 10.85 2.15 8.54 2.15 20.35 0 1.35-3.33 17.2-6.36 17.74.72-10.39 0-13.12.16-18.08.48-12.84.34-15.29.54-22 .48-15.51-10.1-22.36-21.21-32.3Zm-79.9 79.45c.5.47 1.29.45 1.76-.05l.11-.13c7.53-8.04 5.64-8.4 7.25-13.3.44-.62 1.16-1.37 1.67-1.21.76 8.04.12 9.7-2.53 14.06-8.69 14.4-13.59 17.76-22.08 26.4-12.32 12.42-27.54 23.49-33.78 32.73-.36.34-4.01 6.23-5.88 6.47-9.75 1.31-7.02 3.23-6.64 12.36a5.82 5.82 0 0 1-3.81 5.65c-2.21.78-4.34 2.01-5.56.7a2.35 2.35 0 0 1 .32-2.55c5.86-6.85 4.58-10.51 4.96-16.78a1.45 1.45 0 0 0-1.28-1.55c-5.22-.44-8.17.18-12.58-.48-6.46-.98-13.15-3.17-13.31-7.43-.5-11.93-6.76-11.81-7.37-14.79-.1-.5.26-.76.74-.58 7.17 2.87 10.46 2.39 10.04 0 0-.38-1.43-.62-1.43-.62-18.83-4.58-12.91-6.83-12.6-13.46 2.23 2.99.8 6.75 3.53 8.26 1.36.76 3.25-.34 5.08.22 1.36.42 2.81 3.6 4.32 4.02 4.88 1.35 10.26-.18 14.79-1.61l.48 1.19c-3.51 1.79-6.7 4.36-10.14 6.27-5.02 2.79-5.4 6.77-.32 9.32a23.12 23.12 0 0 0 11.36 2.01c16.5-1.39 23.96-8.04 35.16-14.06 5.48-3.7 9.59-8.04 14.63-11.71 14.05-14.06 17.68-12.05 15.53-37.33a.4.4 0 0 1 .36-.44c.12-.01.23.03.32.11 2.29 2.57 3.55 4.74 6.9 8.32Z"/>
        <path d="M480.45 301.85c-2.21-5.3-9.27-10.51-10.7-15.41-1.53-5.28 3.81-7.84 7.49-11.37a2.87 2.87 0 0 0-1-4.76c-2.01-.7-4.5-1.49-5.76-1.83-6.02-1.59-9.47-5.16-9.67-11.39a14.55 14.55 0 0 1 9.23-14.32c8.03-3.09 11.3-2.65 19.75-4.66 2.17-.52 7.39-1.02 10.88-1.49a2.25 2.25 0 0 0 1.87-2.79 2.97 2.97 0 0 0-2.99-2.23c-3.49.14-7.53 0-10.62.12-4.54.32-11.24 2.25-11.24-3.74s3.23-8.66 8.39-11.21c.18-.09.4-.02.48.16a.4.4 0 0 1 .04.18c-2.21 14.81 8.43 9.72 12.24 9.16 1.27-.15 2.56-.15 3.83 0 1.2.14 1.81.12 3.09.24 5.46.46 6.34 1.1 8.17 5.46 1.61 6.03-3.15 11.11-11.82 12.8-5.38 1.06-10.94 1.17-16.42 1.77-1.75.12-3.47.46-5.14 1-4.8 1.81-13.29 3.76-13.13 10.29 0 3.23 3.07 4.44 9.19 5.24 4.98.66 16.34-.64 17.36 6.87s-6.14 7.71-11.18 9.9c-7.53 3.27-9.41 5.04-6.56 10.91 1.16 2.39 4.01 6.35 5.08 8.8.15.86-.18 1.74-.86 2.29ZM370.8 271.67a.78.78 0 0 1 .6-.9c4.11-.64 6.42-.42 10.04-1.04.42 0 3.57-.58 2.79-2.79l-2.33-3.35c-.56-.95-1-1.97-1.3-3.03l-.62-2.17c-.9-2.71 0-2.97 1.69-2.59s7.41 2.79 8.85 7.59c3.15 10.41.28 19.19-10.9 16.73-1.1-.24-1 .62-.86.82 6.88 9.58 3.27 15.43-3.03 24.35-2.33 3.29-4.38 5.73-4.01 12.34.38 8.92 1.63 20.69-.1 29.63-1.36-13.38-3.25-28.69-4.01-42.19-.18-3.29 3.05-7.84 5.06-10.91 3.41-5.28 7.35-9.4-.48-16.07-1.77-1.51-1.14-3.66-1.36-6.41Zm-12.22 36.81c-.24 5.85-.5 3.36-.96 9.22-.8 10.21-2.29 28.33-6.02 34.72-3.07 5.24 1.45 10.37 2.21 11.85 2.01 3.86.5 11.43-.1 16.37-.92 7.53-1.73 11.53-3.43 22.48a.52.52 0 0 1-1.01 0 232.95 232.95 0 0 1-1.81-44.56c1-15.55 5.7-29.61 7.53-38.63 1.22-6.03-.46-8.68.1-10.21a19.62 19.62 0 0 1 3.55-6.03l-.06 4.78Zm26.9-64.09c-6.16 5.24-8.95 5.06-14.55 11.25a62.25 62.25 0 0 1-16.06 14.38c-5.38 3.46-13.87 8.52-21.98 5.52-.08 0-.14-.06-.14-.14s.06-.14.14-.14c19.59-1.67 28.42-18.7 36.69-24.87 5.14-3.84 9.61-4.5 15.49-7.03.84-.24 1.32.14.4 1.02Zm-173.86-10.25c-17.3 2.01-33.56 3.09-51.12-3.62-12.36-7.21-9.21-16.41 1.4-20.37a156.3 156.3 0 0 1 36.75-9.22c33.8-4.58 68.7 4.28 99.01 19.63 6.34 3.21 14.41.92 21.72 3.48-7.13.76-16.06 2.01-23.3 2.01-3.85 0-5.14-2.71-6.02-3.07-21.17-9.42-40.7-11.61-61.22-14.06-17.28-.64-24.87 0-43.86 2.79-2.89.44-10.4 3.15-13.37 6.95-1.22 1.59-.26 3.52 1.22 4.84 2.69 2.41 4.76 4.02 12.6 6.03a116.01 116.01 0 0 0 15.37 2.69c3.55.21 7.11.21 10.66 0l.14 1.93Z"/>
        <path d="M289.01 204.75c-36.35-9.6-38.7-11.41-58.67-14.06-26.47-3.54-37.59-1.21-61.4 2.69-.64-1.69-.66-4.9.84-5.89a47.74 47.74 0 0 1 11.4-4.78c15.51-4.02 36.13-1.67 51.68 1.89 26.33 6.03 35.2 13.16 56.44 19.31l-.3.84Zm-41.58 106.66a1.85 1.85 0 0 0 1.77 2.33h9.25c-16.8 2.95-14.85 5.06-13.67-11.27.66-9.22 2.67-14.18 7.15-19.41 5.66-6.61 2.63-11.75-6.46-12.56-2.23-.2-5.7.1-7.63-.96-4.74-2.61-7.19-5.89-3.77-12.05s6.78-12.84 10.94-20.81c.06-.07.16-.07.23-.02.04.03.06.08.05.14l-7.11 24.49a2.42 2.42 0 0 0 2.63 3c3.5-.6 7.09-.26 10.42.98 6.16 3.07 7.19 6.03 6.3 11.19-2.07 11.57-6.64 22.54-10.1 34.96Zm-50.18-142.88a170.2 170.2 0 0 1 68.24 11.67c.14.03.23.18.2.32s-.18.23-.32.2c-18.75-1.17-37.15-4.3-56.78-3.36-4.21.2-8.23-2.99-12.3-4.94a2 2 0 0 1-1.06-2.31 2.2 2.2 0 0 1 2.03-1.59Zm81.35 110.46c-.94 1.29 3.33 6.85 5.64 6.99s5.78-.52 7.25 0a.5.5 0 0 1 0 .9c-4.4 3.19-16.24 3.13-21.64-.52a5.2 5.2 0 0 1-2.01-1.65c-1.18-1.53.7-2.21 1.55-2.21 1.59 0 .84-3.88.22-4.48-1.1-1.04-2.11-1.13-3.21-1.89-2.13-1.49-1.38-2.73-.56-4.22.66-1.19 5.1-2.15 8.85-.76a34.6 34.6 0 0 0 18.91 2.77c4.48-.4 12.85-2.57 17.46-2.99.4-.03.75.27.78.66a.71.71 0 0 1-.3.64c-8.77 6.03-22.68 6.03-28.94 5.85-.06.02-3.23-.4-3.99.9Zm-78.76 85.38c16.28-5.5 29.77-20.57 51.14-15.53.24.07.38.33.31.58a.46.46 0 0 1-.31.31l-50.74 16.35-.4-1.71Zm110.71-198.65c2.11 1.63 1.59 3.92 0 3.88-15.45-.22-36.63-1.19-51.4-1.19 13.45-4.02 45.16 2.23 44.82-7.59"/>
        <path d="M238.13 309.24c1.87-10.81-11.32-16.27-2.95-27.38 1.16 10.04 6.22 15.07 5.34 23.16a10.32 10.32 0 0 1-2.39 4.22Zm198.53-118.49s8.89 1.17 11.56-1.13a7.42 7.42 0 0 1 4.01-2.01c1.76.15 3.47.69 5 1.59a14.73 14.73 0 0 0 7.15 2.43h4.01s1.57-.2.98.78a26.91 26.91 0 0 1-13.31 7.25c-2.2.12-4.4.04-6.58-.24a9.68 9.68 0 0 1-2.57-.84c-1.67-.92-4.7-2.77-.74-2.63 0 0 11.36 2.01 12.44.9 0 0 3.45-2.27-1.38-3.03-3.63.3-7.29.3-10.92 0a32.43 32.43 0 0 1-9.53-1.49s-2.95-1.61-.12-1.59Zm10.86-33.49s1.57 6.39-.9 10.57a12.13 12.13 0 0 0-2.37 6.47s-.26 2.37 1.51 0a21.04 21.04 0 0 1 2.59-5.56 11.52 11.52 0 0 0 1.38-8.94s-2.65-5.63-2.21-2.53Z"/>
    </g>
</svg>
