<svg xmlns="http://www.w3.org/2000/svg" viewBox="0 0 720 420">
    <defs>
        <clipPath id="a">
            <path fill="none" d="M0 0h720v420H0z"/>
        </clipPath>
        <clipPath id="c">
            <path fill="none" d="M0 0h720v420H0z"/>
        </clipPath>
        <linearGradient id="b" x1="360" y1="420" x2="360" y2="0" gradientTransform="matrix(1, 0, 0, 1, 0, 0)" gradientUnits="userSpaceOnUse">
            <stop offset="0" stop-color="#0c5e59"/>
            <stop offset="1" stop-color="#0f6a64"/>
        </linearGradient>
    </defs>
    <g clip-path="url(#a)">
        <path fill="url(#b)" d="M0 0h720v420H0z"/>
        <path d="M0 0h60v60H0zm60 0h60v60H60zm60 0h60v60h-60zm60 0h60v60h-60zm60 0h60v60h-60zm60 0h60v60h-60zm60 0h60v60h-60zm60 0h60v60h-60zm60 0h60v60h-60zm60 0h60v60h-60zm60 0h60v60h-60zm60 0h60v60h-60zM0 60h60v60H0zm60 0h60v60H60zm60 0h60v60h-60zm60 0h60v60h-60zm60 0h60v60h-60zm60 0h60v60h-60zm60 0h60v60h-60zm60 0h60v60h-60zm60 0h60v60h-60zm60 0h60v60h-60zm60 0h60v60h-60zm60 0h60v60h-60zM0 120h60v60H0zm60 0h60v60H60zm60 0h60v60h-60zm60 0h60v60h-60zm60 0h60v60h-60zm60 0h60v60h-60zm60 0h60v60h-60zm60 0h60v60h-60zm60 0h60v60h-60zm60 0h60v60h-60zm60 0h60v60h-60zm60 0h60v60h-60zM0 180h60v60H0zm60 0h60v60H60zm60 0h60v60h-60zm60 0h60v60h-60zm60 0h60v60h-60zm60 0h60v60h-60zm60 0h60v60h-60zm60 0h60v60h-60zm60 0h60v60h-60zm60 0h60v60h-60zm60 0h60v60h-60zm60 0h60v60h-60zM0 240h60v60H0zm60 0h60v60H60zm60 0h60v60h-60zm60 0h60v60h-60zm60 0h60v60h-60zm60 0h60v60h-60zm60 0h60v60h-60zm60 0h60v60h-60zm60 0h60v60h-60zm60 0h60v60h-60zm60 0h60v60h-60zm60 0h60v60h-60zM0 300h60v60H0zm60 0h60v60H60zm60 0h60v60h-60zm60 0h60v60h-60zm60 0h60v60h-60zm60 0h60v60h-60zm60 0h60v60h-60zm60 0h60v60h-60zm60 0h60v60h-60zm60 0h60v60h-60zm60 0h60v60h-60zm60 0h60v60h-60zM0 360h60v60H0zm60 0h60v60H60zm60 0h60v60h-60zm60 0h60v60h-60zm60 0h60v60h-60zm60 0h60v60h-60zm60 0h60v60h-60zm60 0h60v60h-60zm60 0h60v60h-60zm60 0h60v60h-60zm60 0h60v60h-60zm60 0h60v60h-60z" fill="none" stroke="#0c5e59" stroke-miterlimit="10" stroke-width="2"/>
        <rect x="15" y="15" width="690" height="390" rx="18" ry="18" fill="none" stroke="#0c5e59" stroke-miterlimit="10" stroke-width="2"/>
    </g>
    <g clip-path="url(#c)">
        <path d="M532.39 329.69c0 11.18-8.98 19.94-19.17 19.94h-19.17l.42 99.44c0 1.74-.12 3.35-.3 5.03v10.06c0 13.73-10.72 24.84-23.96 24.84h-9.58c-.66 0-1.32-.56-1.98-.06-.84-.5-1.68.06-2.52.06h-33.84c-13.24 0-23.96-11.12-23.96-24.84V409.5c0-10.99-8.57-19.87-19.17-19.87h-38.33c-10.6 0-19.17 8.88-19.17 19.87v54.66c0 13.73-10.72 24.84-23.96 24.84h-33.48c-.9 0-1.8-.06-2.7-.12-.72.06-1.44.12-2.16.12h-9.58c-13.23 0-23.96-11.12-23.96-24.84V394.6c0-.56.02-1.18.05-1.74v-43.23h-19.19c-10.8 0-19.2-8.76-19.2-19.94 0-5.59 1.8-10.56 6-14.91l153.57-138.8c4.19-4.36 8.98-4.98 13.18-4.98s8.98 1.24 12.64 4.36l152.92 139.43c4.79 4.35 7.25 9.32 6.59 14.91Z" fill="#0a534f"/>
    </g>
    <g fill="#fff">
        <path d="M332.33 182.36c-.02-2.86-2.33-5.9-4.55-7.17-14.53-8.37-29.34-16.8-43.66-24.96-8.68-4.94-17.35-9.88-26.02-14.84-1.64-.94-3.21-1.39-4.81-1.39s-3.15.45-4.79 1.37a14878.06 14878.06 0 0 1-72.47 40.7c-3.49 1.95-5.05 4.58-5.03 8.54.08 27.77.07 56.01.07 83.32v24.67c0 1.88 1.57 3.4 3.5 3.4h4.36a3.45 3.45 0 0 0 3.51-3.4v-24.91c0-26.45.01-53.8-.06-80.7 0-1.49.21-1.74 1.31-2.35a10392.5 10392.5 0 0 0 68.41-38.43c.53-.3.95-.46 1.19-.46s.65.16 1.17.46a9342.82 9342.82 0 0 0 65.07 36.99c1.36.76 1.56 1.1 1.55 2.58-.1 18.95-.08 38.22-.07 56.84v10.67c0 1.11.09 2.17.17 3.28l.11 1.53c.06.92.49 1.77 1.21 2.37.64.54 1.45.83 2.29.83l.31-.01 3.93-.33a3.46 3.46 0 0 0 3.18-2.98l.09-.63c.07-.45.14-.92.14-1.46v-11.32c.02-20.38.03-41.46-.11-62.2Z"/>
        <path d="M214.23 212.64h-15v12.5h14.3l.4-5.23h6.75v11.96h-35.04v-5.26l4.71-.9v-31.4l-4.71-.9v-5.29h34.98v11.99h-6.81l-.4-5.23h-14.17v11h15v6.76Zm12.07 13.97 4.26-.9v-20.16l-4.71-.9v-5.29h12.99l.4 4.75c.77-1.68 1.76-2.99 2.98-3.94s2.63-1.41 4.23-1.41a11.11 11.11 0 0 1 2.77.37l-.94 7.99-3.65-.09c-1.3 0-2.37.25-3.22.75-.85.5-1.5 1.21-1.95 2.13v15.8l4.26.9v5.26h-17.4v-5.26Zm40.06-21.96-3.1.57 4.35 14.54.58 3.06h.18l.64-3.06 4.29-14.51-3.16-.6v-5.29h14.93v5.29l-2.86.45-9.7 26.77h-8.49l-9.73-26.77-2.86-.45v-5.29h14.93v5.29Zm36.9 27.85c-4.75 0-8.54-1.5-11.38-4.51s-4.26-6.82-4.26-11.45v-1.2c0-4.83 1.34-8.8 4.03-11.93 2.69-3.12 6.29-4.68 10.81-4.66 4.44 0 7.89 1.32 10.34 3.97s3.68 6.22 3.68 10.73v4.78h-19.65l-.06.18a8.46 8.46 0 0 0 2.17 5.29c1.29 1.38 3.04 2.07 5.25 2.07 1.97 0 3.6-.2 4.9-.59s2.72-1.01 4.26-1.85l2.4 5.41c-1.36 1.06-3.12 1.95-5.28 2.67s-4.57 1.08-7.22 1.08Zm-.79-26.98c-1.64 0-2.94.62-3.89 1.86a9.6 9.6 0 0 0-1.76 4.9l.09.15h10.89v-.78c0-1.86-.44-3.35-1.32-4.46s-2.22-1.67-4-1.67Zm78.54-17.4v5.29l-4.75.9v37.56h-8.85l-17.89-29.44-.18.03v23.25l4.75.9v5.26h-18.34v-5.26l4.71-.9v-31.4l-4.71-.9v-5.29h13.6l17.89 29.44.18-.03v-23.22l-4.75-.9v-5.29h18.34Zm2.79 38.49 4.29-.9v-20.16l-4.75-.9v-5.29h13.63v26.35l4.26.9v5.26H383.8v-5.26Zm13.17-35.03h-8.88V185h8.88v6.58Zm20.23 41.49c0 3.81-1.02 6.75-3.07 8.82-2.05 2.07-4.89 3.11-8.52 3.11a17.2 17.2 0 0 1-4.38-.51l.43-6.7a10.37 10.37 0 0 0 2.89.36c1.2 0 2.12-.42 2.78-1.25.66-.83.99-2.11.99-3.83v-27.52l-4.75-.9v-5.29h13.63v33.71Zm-.18-41.55h-8.88V185h8.88v6.52Zm4.87 35.09 4.29-.9v-34.52l-4.75-.9V185h13.6v18.51c1.03-1.5 2.3-2.67 3.8-3.5 1.5-.83 3.16-1.25 4.99-1.25 3.45 0 6.15 1.13 8.11 3.38 1.96 2.25 2.94 5.73 2.94 10.44v13.13l4.26.9v5.26h-16.97v-5.26l3.83-.9v-13.19c0-2.52-.45-4.31-1.35-5.36s-2.25-1.58-4.03-1.58c-1.24 0-2.32.22-3.24.66s-1.7 1.06-2.33 1.86v17.61l3.83.9v5.26H421.9v-5.26Zm63.11 1.14c-1.05 1.52-2.36 2.69-3.91 3.52s-3.32 1.23-5.31 1.23c-3.47 0-6.18-1.1-8.15-3.29-1.97-2.19-2.95-5.6-2.95-10.23v-13.43l-3.62-.9v-5.29h12.5v19.68c0 2.36.4 4.06 1.2 5.09.8 1.03 1.99 1.55 3.57 1.55 1.4 0 2.61-.23 3.63-.68s1.86-1.1 2.51-1.94v-17.52l-3.89-.9v-5.29h12.78v26.35l3.98.9v5.26h-11.77l-.58-4.12Zm15.58-1.14 4.29-.9v-20.16l-4.75-.9v-5.29h13.63v26.35l4.26.9v5.26h-17.43v-5.26Zm13.17-35.03h-8.88V185h8.88v6.58Zm34.03 18.96h-5.96l-.94-4.06c-.61-.48-1.37-.88-2.3-1.2s-1.94-.48-3.06-.48c-1.56 0-2.8.35-3.71 1.04s-1.37 1.56-1.37 2.6c0 .98.44 1.8 1.31 2.45s2.62 1.23 5.23 1.73c4.08.8 7.1 1.98 9.06 3.53s2.95 3.69 2.95 6.41c0 2.92-1.27 5.31-3.82 7.17-2.54 1.85-5.9 2.78-10.05 2.78-2.53 0-4.86-.37-6.98-1.1s-4-1.78-5.64-3.14l-.09-7.3h6.21l1.22 4.24c.53.44 1.25.77 2.16.98s1.87.32 2.86.32c1.8 0 3.18-.32 4.12-.96a3 3 0 0 0 1.41-2.61c0-.96-.48-1.79-1.43-2.49s-2.71-1.32-5.26-1.86c-3.87-.78-6.8-1.94-8.78-3.47s-2.97-3.62-2.97-6.26 1.14-5.07 3.41-7.05c2.27-1.97 5.51-2.96 9.7-2.96 2.56 0 4.97.34 7.25 1.02s4.07 1.55 5.37 2.61l.09 8.08Z"/>
    </g>
</svg>
