<svg xmlns="http://www.w3.org/2000/svg" xmlns:xlink="http://www.w3.org/1999/xlink" viewBox="0 0 720 420">
    <defs>
        <linearGradient id="b" x1="361" y1="421" x2="361" y2="1" gradientTransform="matrix(1, 0, 0, 1, 0, 0)" gradientUnits="userSpaceOnUse">
            <stop offset="0" stop-color="#f8fafc"/>
            <stop offset="1" stop-color="#fff"/>
        </linearGradient>
        <clipPath id="a">
            <path fill="none" d="M1 1h720v420H1z"/>
        </clipPath>
        <symbol id="c" viewBox="0 0 722 422">
            <g clip-path="url(#a)">
                <path fill="url(#b)" d="M1 1h720v420H1z"/>
                <path fill="none" stroke="#f8fafc" stroke-miterlimit="10" stroke-width="2" d="M1 1h60v60H1zm60 0h60v60H61zm60 0h60v60h-60zm60 0h60v60h-60zm60 0h60v60h-60zm60 0h60v60h-60zm60 0h60v60h-60zm60 0h60v60h-60zm60 0h60v60h-60zm60 0h60v60h-60zm60 0h60v60h-60zm60 0h60v60h-60zM1 61h60v60H1zm60 0h60v60H61zm60 0h60v60h-60zm60 0h60v60h-60zm60 0h60v60h-60zm60 0h60v60h-60zm60 0h60v60h-60zm60 0h60v60h-60zm60 0h60v60h-60zm60 0h60v60h-60zm60 0h60v60h-60zm60 0h60v60h-60zM1 121h60v60H1zm60 0h60v60H61zm60 0h60v60h-60zm60 0h60v60h-60zm60 0h60v60h-60zm60 0h60v60h-60zm60 0h60v60h-60zm60 0h60v60h-60zm60 0h60v60h-60zm60 0h60v60h-60zm60 0h60v60h-60zm60 0h60v60h-60zM1 181h60v60H1zm60 0h60v60H61zm60 0h60v60h-60zm60 0h60v60h-60zm60 0h60v60h-60zm60 0h60v60h-60zm60 0h60v60h-60zm60 0h60v60h-60zm60 0h60v60h-60zm60 0h60v60h-60zm60 0h60v60h-60zm60 0h60v60h-60zM1 241h60v60H1zm60 0h60v60H61zm60 0h60v60h-60zm60 0h60v60h-60zm60 0h60v60h-60zm60 0h60v60h-60zm60 0h60v60h-60zm60 0h60v60h-60zm60 0h60v60h-60zm60 0h60v60h-60zm60 0h60v60h-60zm60 0h60v60h-60zM1 301h60v60H1zm60 0h60v60H61zm60 0h60v60h-60zm60 0h60v60h-60zm60 0h60v60h-60zm60 0h60v60h-60zm60 0h60v60h-60zm60 0h60v60h-60zm60 0h60v60h-60zm60 0h60v60h-60zm60 0h60v60h-60zm60 0h60v60h-60zM1 361h60v60H1zm60 0h60v60H61zm60 0h60v60h-60zm60 0h60v60h-60zm60 0h60v60h-60zm60 0h60v60h-60zm60 0h60v60h-60zm60 0h60v60h-60zm60 0h60v60h-60zm60 0h60v60h-60zm60 0h60v60h-60zm60 0h60v60h-60z"/>
                <rect x="16" y="16" width="690" height="390" rx="18" ry="18" fill="none" stroke="#f8fafc" stroke-miterlimit="10" stroke-width="2"/>
            </g>
        </symbol>
    </defs>
    <use width="722" height="422" transform="translate(-1 -1)" xlink:href="#c"/>
    <path d="M132.66 131.79h79.95c23.47.2 40.47 6.94 51.01 20.22 10.54 13.28 14.02 31.42 10.44 54.42a103.93 103.93 0 0 1-9.25 30.93 92.12 92.12 0 0 1-19.09 27.36c-9.95 10.31-20.58 16.85-31.92 19.63a147.28 147.28 0 0 1-35.2 4.16h-35.8l-11.34 56.5H89.99l42.66-213.21m34.9 33.9-17.9 89.21c1.19.2 2.39.3 3.58.3h4.18c19.09.2 35.01-1.68 47.73-5.65 12.73-4.16 21.28-18.63 25.66-43.42 3.58-20.82 0-32.81-10.74-35.98-10.54-3.17-23.76-4.66-39.68-4.46-2.39.2-4.67.3-6.86.3h-6.26l.3-.3M322.13 75h41.17l-11.63 56.8h36.99c20.29.4 35.4 4.56 45.35 12.49 10.14 7.93 13.13 23 8.95 45.2l-19.99 99.02H381.2l19.09-94.56c1.99-9.91 1.39-16.95-1.79-21.11-3.18-4.16-10.04-6.24-20.58-6.24l-33.11-.3-24.46 122.22h-41.17l42.96-213.51m165.09 56.78h79.95c23.47.2 40.47 6.94 51.01 20.22 10.54 13.28 14.02 31.42 10.44 54.42a103.93 103.93 0 0 1-9.25 30.93 92.12 92.12 0 0 1-19.09 27.36c-9.95 10.31-20.58 16.85-31.92 19.63a147.28 147.28 0 0 1-35.2 4.16h-35.8l-11.34 56.5h-41.47l42.66-213.21m34.9 33.9-17.9 89.21c1.19.2 2.39.3 3.58.3h4.18c19.09.2 35.01-1.68 47.73-5.65 12.73-4.16 21.28-18.63 25.66-43.42 3.58-20.82 0-32.81-10.74-35.98-10.54-3.17-23.76-4.66-39.68-4.46-2.39.2-4.67.3-6.86.3h-6.26l.3-.3" opacity=".25" fill="none" stroke="#e2e8f0" stroke-miterlimit="10" stroke-width="3"/>
    <path d="M227.5 243.57V175.5h21.59c4.78 0 8.91.84 12.4 2.52 3.49 1.68 6.2 4.07 8.13 7.18s2.89 6.78 2.89 11-1.06 8.36-3.17 11.84c-2.11 3.48-4.98 6-8.59 7.55l12.68 27.97h-14.97l-10.84-25.73h-6.43v25.73H227.5Zm13.69-37.86h7.9c3.06 0 5.43-.78 7.12-2.33 1.68-1.55 2.53-3.73 2.53-6.53s-.84-5.19-2.53-6.81c-1.68-1.61-4.06-2.42-7.12-2.42h-7.9v18.09Zm56.49 38.79c-5.08 0-9.11-1.4-12.08-4.19-2.97-2.8-4.45-6.59-4.45-11.38 0-5.22 1.84-9.22 5.51-11.98 3.67-2.77 8.94-4.15 15.8-4.15h9.64v-3.73c0-2.05-.71-3.64-2.11-4.75-1.41-1.12-3.37-1.68-5.88-1.68s-4.4.5-5.83 1.49a4.65 4.65 0 0 0-2.16 4.01h-12.86c.12-5.16 2.11-9.25 5.97-12.26s9-4.52 15.43-4.52 11.73 1.57 15.52 4.71c3.8 3.14 5.69 7.48 5.69 13.01v34.5h-13.32v-7.93h-.28a11.4 11.4 0 0 1-5.05 6.53c-2.51 1.55-5.7 2.33-9.55 2.33Zm5.14-10.16c2.69 0 4.91-.71 6.66-2.14a7 7 0 0 0 2.62-5.69v-5.41h-9.37c-2.45 0-4.36.58-5.74 1.73s-2.07 2.75-2.07 4.8.7 3.76 2.11 4.94c1.41 1.18 3.34 1.77 5.79 1.77Zm31.32 9.23L351.59 217l-16.26-24.71h15.34l6.25 10.26c.49.81.95 1.71 1.38 2.7.43 1 .77 1.8 1.01 2.43a52.83 52.83 0 0 1 2.39-5.13l6.25-10.26h15.34L367.12 217l17.36 26.57h-15.34l-7.35-12.12a47 47 0 0 1-2.48-5.13c-.25.62-.58 1.41-1.01 2.38-.43.97-.89 1.88-1.38 2.75l-7.44 12.12h-15.34Zm80.28.93c-4.47 0-8.36-.85-11.67-2.56a18.54 18.54 0 0 1-7.67-7.18 20.86 20.86 0 0 1-2.71-10.77v-12.12c0-4.1.9-7.69 2.71-10.77a18.54 18.54 0 0 1 7.67-7.18c3.31-1.71 7.2-2.56 11.67-2.56s8.44.85 11.71 2.56a18.6 18.6 0 0 1 7.62 7.18 20.86 20.86 0 0 1 2.71 10.77v12.12c0 4.1-.9 7.69-2.71 10.77a18.66 18.66 0 0 1-7.62 7.18c-3.28 1.71-7.18 2.56-11.71 2.56Zm0-12.12c2.69 0 4.75-.73 6.15-2.19 1.41-1.46 2.11-3.53 2.11-6.2v-12.12c0-2.73-.71-4.82-2.11-6.25-1.41-1.43-3.46-2.14-6.15-2.14s-4.67.71-6.11 2.14c-1.44 1.43-2.16 3.51-2.16 6.25v12.12c0 2.67.72 4.74 2.16 6.2 1.44 1.46 3.47 2.19 6.11 2.19Zm53 12.12c-4.17 0-7.81-.67-10.93-2a17.22 17.22 0 0 1-7.3-5.55 13.62 13.62 0 0 1-2.62-8.3h13.78c0 3.48 2.36 5.22 7.07 5.22h4.04c5.14 0 7.72-1.68 7.72-5.04 0-3.04-2.39-4.91-7.16-5.59l-7.26-.93c-11.15-1.43-16.72-6.71-16.72-15.85 0-4.97 1.68-8.73 5.05-11.28 3.37-2.55 8.3-3.82 14.79-3.82h3.49c6.18 0 11.11 1.37 14.79 4.1a13.03 13.03 0 0 1 5.51 11h-13.78c0-2.98-2.17-4.48-6.52-4.48h-3.49c-4.35 0-6.52 1.49-6.52 4.48 0 2.8 1.99 4.48 5.97 5.04l7.44 1.02c11.82 1.49 17.73 6.87 17.73 16.13 0 5.03-1.78 8.94-5.33 11.7-3.55 2.77-8.79 4.15-15.71 4.15h-4.04Z" fill="#4f5a94"/>
</svg>
