<svg xmlns="http://www.w3.org/2000/svg" viewBox="0 0 700 394"><path fill="#272c35" d="M0 0h700v394H0z"/><rect x="282.8" y="129.8" width="134.4" height="134.4" rx="40.51" transform="rotate(-69 349.999 196.995)" fill="#00a5ff" fill-opacity=".85"/><rect x="282.8" y="129.81" width="134.4" height="134.4" rx="40.51" fill="#0064f2"/><path d="M325.53 166.28h30.23c11.24 0 17.51 7 17.51 15.67 0 7.74-5 12.9-10.69 14.08 6.54 1 11.89 7.57 11.89 15.12 0 9.49-6.4 16.64-17.92 16.64h-31Zm28 25.42c5.52 0 8.66-3.31 8.66-7.92s-3.14-8-8.66-8h-17.21v15.92Zm.46 26.55c5.9 0 9.4-3.22 9.4-8.58 0-4.6-3.22-8.47-9.4-8.47h-17.67v17.05Z" fill="#fff"/></svg>
