<svg xmlns="http://www.w3.org/2000/svg" viewBox="0 0 700 394"><path fill="#fff" d="M0 0h700v394H0z"/><path d="m166.85 263.28 32.35-.44h32.37c1.71.06 3.41.17 5.11.17h124c-.73 2.24-.93 4.23-1.93 5.68-4.07 5.92-8.39 11.67-12.85 17.82l49.71 35.67c11.47-14.1 22.82-28.09 34.52-42.43l-14.16-9.91 86.46-48.26 3.81 22 58.37-7.87c-2.62-18.1-5.18-36-7.81-54.16l-19.89 3.7C552.71 145.2 568.34 105.71 584 66l4 1.51-44.28 112.08 16.63-3c3 20.87 6 41.56 9.06 62.83l-66.75 9c-1.14-6.58-2.25-13-3.49-20.15L424 270.21l12.35 8.61c-13.37 16.45-26.58 32.68-40 49.18l-56.55-40.54 14.24-19.27a.5.5 0 0 0 0-.61c-1.7-.06-3.4-.17-5.1-.17H180.3c-1.57 0-3.15-.09-4.72-.14l-.1-1.23c.16-1.85-.7-2.44-2.53-2.36-2.05.02-4.1-.27-6.1-.4Z" fill="#33b16c"/><path d="M231.57 262.82h-2.68c-1.57-6.12-3.15-12.23-4.93-19l-20.83 19h-3.94c7.21-6.63 14.5-13.18 21.58-19.94a11.33 11.33 0 0 0 3.2-5.51q4.11-20-8.5-36.2c-1.3-1.69-2.45-2.21-4.59-1.45-4.67 1.66-9.44 3.05-14.24 4.37-.79.23-1.9-.46-2.86-.73l.23-1.26 17.78-5.6c-4.23-3.05-7.67-5.77-11.38-8-.84-.51-2.81.42-4 1.08a14.47 14.47 0 1 1 4.3-21.66c3.88 4.87 4.09 10.09.63 17.46 1.91 1.31 3.87 2.57 5.75 3.94s3.68 2.89 6 4.72c.89-5 1.64-9.72 2.62-14.36.19-.9 1.3-1.58 2-2.41l1 .79c-.9 5.28-2 10.53-2.62 15.85a7.22 7.22 0 0 0 1.25 4.89c9 11.37 12.06 24.12 9.67 38.37a21.22 21.22 0 0 0 .37 7.7c1.15 6.05 2.74 12 4.19 17.95ZM166.85 263.28c2 .13 4.09.42 6.12.36 1.82-.06 2.69.53 2.52 2.36-2.7.08-5.5.58-8.09.11-1.41-.26-2.53-2.15-3.78-3.31v-10.35L148 262.82a35.41 35.41 0 0 0-3.61 2c-2.74 1.92-4.12 1.08-4.56-2v-16.53l-14 16.53c-1.27.57-2.57 1.67-3.82 1.62-1.88-.08-3.73-.95-5.6-1.5.39-.34.84-1 1.16-1 5.51.88 8.49-2.88 11.26-6.41 3.53-4.52 7.14-9.18 9.55-14.32 1.57-3.42 1.18-7.79 1.65-11.52-11.44-5-15.13-10.42-13.29-18.89a14.55 14.55 0 0 1 28.44.83c1.33 8.37-2.68 14-12.59 17.5v33.4c3.49-2.2 6.5-4.1 9.51-6 3.2-2 6.34-4.16 9.62-6.07 1-.56 2.6-1.05 3.34-.59s1.12 2.08 1.22 3.24c.27 3.41.36 6.79.57 10.17Z" fill="#070707"/><path d="M139.81 262.82c.44 3.11 1.83 3.93 4.57 2a34.15 34.15 0 0 1 3.59-2h15.59c1.25 1.15 2.36 3 3.79 3.3 2.6.47 5.38 0 8.09-.11 0 .41.07.79.1 1.23l-58 .21H112v-4.54h4.4c1.86.54 3.71 1.42 5.59 1.5 1.25 0 2.55-1.05 3.82-1.62Z" fill="#51ba80"/><path d="M276.24 91.82a3 3 0 0 0 1.13-.38 2 2 0 0 0 .67-.72 4.54 4.54 0 0 0 .38-1.09c.09-.44.18-1.07.29-1.92h2v3.42h4.47v1.4h-4.47v6.16a17 17 0 0 0 .11 2.14 3.19 3.19 0 0 0 .41 1.24 2 2 0 0 0 .7.64 2.13 2.13 0 0 0 1 .19 2.3 2.3 0 0 0 1-.22 3.91 3.91 0 0 0 1-.66l.62.75a7.62 7.62 0 0 1-1.86 1.38 4.09 4.09 0 0 1-1.82.43 3.24 3.24 0 0 1-2.66-1.06 5.12 5.12 0 0 1-.87-3.31v-7.68h-2.05ZM292.45 104.62a5.55 5.55 0 0 1-4.39-1.7 7.25 7.25 0 0 1-1.52-5 8.56 8.56 0 0 1 .78-3.86 5.35 5.35 0 0 1 2.18-2.36 6.43 6.43 0 0 1 3.15-.79 5.62 5.62 0 0 1 4.48 1.73 7.2 7.2 0 0 1 1.54 4.91 8.77 8.77 0 0 1-.78 3.87 5.25 5.25 0 0 1-2.16 2.36 6.5 6.5 0 0 1-3.28.84Zm-3.3-7a8.65 8.65 0 0 0 .91 4.38 2.87 2.87 0 0 0 2.59 1.53 2.77 2.77 0 0 0 1.58-.45 3.49 3.49 0 0 0 1-1.21 5.86 5.86 0 0 0 .59-1.77 12.2 12.2 0 0 0 .18-2.09 10.77 10.77 0 0 0-.45-3.38 4.19 4.19 0 0 0-1.22-2 2.74 2.74 0 0 0-1.77-.63 2.86 2.86 0 0 0-2.56 1.48 7.89 7.89 0 0 0-.89 4.1ZM314.94 104.36h-5.45v-.68a5.64 5.64 0 0 0 .78-.29 1.19 1.19 0 0 0 .4-.34 2.12 2.12 0 0 0 .25-.69A8.28 8.28 0 0 0 311 101v-3.67c0-.64 0-1.23-.05-1.76a7.87 7.87 0 0 0-.19-1.29 2.71 2.71 0 0 0-.31-.79A2.57 2.57 0 0 0 310 93a2.22 2.22 0 0 0-.59-.31 2.64 2.64 0 0 0-.88-.12 2.55 2.55 0 0 0-1 .21 4.12 4.12 0 0 0-1.06.74 4 4 0 0 0-.85 1 2.54 2.54 0 0 0-.26 1.18v5.16a8.33 8.33 0 0 0 .11 1.65 1.19 1.19 0 0 0 .42.71 2.94 2.94 0 0 0 1 .42v.68h-5.43v-.68a4.4 4.4 0 0 0 .79-.29 1.07 1.07 0 0 0 .39-.34 1.86 1.86 0 0 0 .25-.68 7.58 7.58 0 0 0 .09-1.43v-7.42a2 2 0 0 0-.19-.86 1 1 0 0 0-.51-.48 3.93 3.93 0 0 0-1-.28v-.73l3.25-.13h.78l-.15 2.26.19.06a13.62 13.62 0 0 1 1.65-1.48 5.47 5.47 0 0 1 1.28-.69 3.94 3.94 0 0 1 1.36-.24 4.69 4.69 0 0 1 1.34.17 3 3 0 0 1 1 .54 2.91 2.91 0 0 1 .74.89 4.39 4.39 0 0 1 .43 1.28 11 11 0 0 1 .14 1.9v5.21a12.74 12.74 0 0 0 .06 1.38 1.86 1.86 0 0 0 .19.66 1.18 1.18 0 0 0 .4.4 3.77 3.77 0 0 0 .92.34ZM328.33 102a11.74 11.74 0 0 1-1.62 1.45 6.24 6.24 0 0 1-1.63.82 5.89 5.89 0 0 1-1.95.3 5.33 5.33 0 0 1-4.3-1.71 7.6 7.6 0 0 1-1.46-5 8.6 8.6 0 0 1 .74-3.64 5.64 5.64 0 0 1 2.12-2.44 6.29 6.29 0 0 1 5.51-.41 3.89 3.89 0 0 1 1.57 1.21 5.35 5.35 0 0 1 .91 1.93 12.62 12.62 0 0 1 .37 3.06h-8.7v.25a8.86 8.86 0 0 0 .37 2.75 3.41 3.41 0 0 0 1.2 1.73 3.48 3.48 0 0 0 2.18.63 4.61 4.61 0 0 0 2-.42 5.9 5.9 0 0 0 1.8-1.37ZM326 96.39a10.51 10.51 0 0 0-.4-2.39 3.13 3.13 0 0 0-.87-1.46 2.27 2.27 0 0 0-1.52-.5 2.69 2.69 0 0 0-2.27 1.14 6.11 6.11 0 0 0-1 3.26ZM342.15 102a11.26 11.26 0 0 1-1.63 1.45 6 6 0 0 1-1.62.82 5.89 5.89 0 0 1-1.95.3 5.33 5.33 0 0 1-4.3-1.71 7.65 7.65 0 0 1-1.46-5 8.46 8.46 0 0 1 .75-3.64 5.61 5.61 0 0 1 2.11-2.44 5.9 5.9 0 0 1 3.15-.86 5.8 5.8 0 0 1 2.36.45 3.89 3.89 0 0 1 1.57 1.21 5.35 5.35 0 0 1 .91 1.93 12.62 12.62 0 0 1 .37 3.06h-8.72v.25a9.17 9.17 0 0 0 .37 2.75 3.55 3.55 0 0 0 1.21 1.72 3.59 3.59 0 0 0 2.18.63 4.65 4.65 0 0 0 2-.43 5.86 5.86 0 0 0 1.8-1.37Zm-2.36-5.62a10.51 10.51 0 0 0-.37-2.44 3.13 3.13 0 0 0-.87-1.46A2.27 2.27 0 0 0 337 92a2.69 2.69 0 0 0-2.27 1.14 6.11 6.11 0 0 0-1 3.26ZM348.65 100.9a7.05 7.05 0 0 0 .11 1.65 1.22 1.22 0 0 0 .41.71 3.14 3.14 0 0 0 1 .42v.68h-5.51v-.68a3.3 3.3 0 0 0 1-.37 1.19 1.19 0 0 0 .39-.47 2.58 2.58 0 0 0 .16-.73c0-.31.05-.72.05-1.21V87.46a5.41 5.41 0 0 0-.11-.89 1.71 1.71 0 0 0-.25-.57 1.09 1.09 0 0 0-.44-.33 4.07 4.07 0 0 0-1-.25v-.72l3.33-.14h.85ZM356.61 91.13v.68a4.11 4.11 0 0 0-.9.29 1 1 0 0 0-.4.36 1.24 1.24 0 0 0-.12.6 3.53 3.53 0 0 0 .08.79 7.84 7.84 0 0 0 .29.94l2.4 7 2.82-6.71a8.36 8.36 0 0 0 .4-1.09 4.18 4.18 0 0 0 .11-.79 1.2 1.2 0 0 0-.32-.88 2.38 2.38 0 0 0-1.14-.49v-.68H365v.68a2.13 2.13 0 0 0-.84.34 2.7 2.7 0 0 0-.58.72q-.29.49-.69 1.38l-4.66 10.23h-1.63l-3.75-10.33a11 11 0 0 0-.62-1.46 1.86 1.86 0 0 0-.49-.59 2.23 2.23 0 0 0-.79-.3v-.68ZM376.82 102a11.82 11.82 0 0 1-1.63 1.45 6 6 0 0 1-1.62.82 5.89 5.89 0 0 1-1.95.3 5.36 5.36 0 0 1-4.31-1.71 7.54 7.54 0 0 1-1.44-5 8.3 8.3 0 0 1 .74-3.64 5.59 5.59 0 0 1 2.1-2.44 5.93 5.93 0 0 1 3.15-.86 5.77 5.77 0 0 1 2.36.45 4 4 0 0 1 1.58 1.21 5.35 5.35 0 0 1 .91 1.93 12.62 12.62 0 0 1 .37 3.06h-8.7v.25a8.86 8.86 0 0 0 .37 2.75 3.41 3.41 0 0 0 1.2 1.73 3.46 3.46 0 0 0 2.18.63 4.64 4.64 0 0 0 2-.42 6 6 0 0 0 1.8-1.37Zm-2.36-5.62a10.51 10.51 0 0 0-.37-2.44 3.13 3.13 0 0 0-.87-1.46 2.22 2.22 0 0 0-1.52-.5 2.71 2.71 0 0 0-2.28 1.14 6.19 6.19 0 0 0-1 3.26ZM383.32 93.43h.19a10.89 10.89 0 0 1 1.42-1.43 5 5 0 0 1 1.4-.82 4.92 4.92 0 0 1 1.71-.3 11.76 11.76 0 0 1 1.45.09v3.15h-1.57a3.5 3.5 0 0 0-.7-1.09 1.49 1.49 0 0 0-1-.34 1.94 1.94 0 0 0-1 .3 3.61 3.61 0 0 0-.95.84 3.34 3.34 0 0 0-.62 1 3.22 3.22 0 0 0-.18 1.15v4.84a6.37 6.37 0 0 0 .15 1.74 1.27 1.27 0 0 0 .51.7 3.23 3.23 0 0 0 1.05.34v.68h-5.57v-.68a5.77 5.77 0 0 0 .79-.29 1.44 1.44 0 0 0 .39-.35 1.6 1.6 0 0 0 .25-.67 8.64 8.64 0 0 0 .08-1.43v-7.41a2.12 2.12 0 0 0-.2-.86.94.94 0 0 0-.5-.48 4.06 4.06 0 0 0-1-.28v-.72l3.24-.14h.84ZM401.94 102a11.26 11.26 0 0 1-1.63 1.45 6 6 0 0 1-1.62.82 5.89 5.89 0 0 1-1.95.3 5.36 5.36 0 0 1-4.31-1.71 7.54 7.54 0 0 1-1.44-5 8.3 8.3 0 0 1 .74-3.64 5.61 5.61 0 0 1 2.11-2.44 5.87 5.87 0 0 1 3.14-.86 5.77 5.77 0 0 1 2.36.45 4.09 4.09 0 0 1 1.58 1.21 5.8 5.8 0 0 1 .91 1.93 13.13 13.13 0 0 1 .36 3.06h-8.69v.25a8.86 8.86 0 0 0 .37 2.75 3.39 3.39 0 0 0 1.21 1.72 3.59 3.59 0 0 0 2.18.63 4.65 4.65 0 0 0 2-.43 6.19 6.19 0 0 0 1.81-1.37Zm-2.36-5.62a10 10 0 0 0-.38-2.38 3.13 3.13 0 0 0-.87-1.46 2.22 2.22 0 0 0-1.52-.5 2.69 2.69 0 0 0-2.27 1.14 6.11 6.11 0 0 0-1 3.26ZM418.18 104.36h-5.45v-.68a5.77 5.77 0 0 0 .79-.29 1.3 1.3 0 0 0 .4-.34 1.73 1.73 0 0 0 .24-.69 7.38 7.38 0 0 0 .1-1.41v-3.62a16.2 16.2 0 0 0-.06-1.76 6.92 6.92 0 0 0-.19-1.29 2.48 2.48 0 0 0-.32-.79 2.06 2.06 0 0 0-.44-.49 2 2 0 0 0-.59-.31 2.84 2.84 0 0 0-1.89.09 4.35 4.35 0 0 0-1.07.74 4 4 0 0 0-.84 1 2.54 2.54 0 0 0-.26 1.18v5.16a7.64 7.64 0 0 0 .11 1.65 1.19 1.19 0 0 0 .42.71 3.14 3.14 0 0 0 1 .42v.68h-5.43v-.68a4.69 4.69 0 0 0 .79-.29 1.12 1.12 0 0 0 .38-.34 1.7 1.7 0 0 0 .25-.68 7.58 7.58 0 0 0 .09-1.43v-7.42a2.12 2.12 0 0 0-.2-.86.94.94 0 0 0-.5-.48 4.06 4.06 0 0 0-1-.28v-.73l3.29-.13h.85l-.15 2.26.19.06a12.28 12.28 0 0 1 1.66-1.48 5.22 5.22 0 0 1 1.27-.69 4 4 0 0 1 1.36-.24 4.58 4.58 0 0 1 1.33.17 3 3 0 0 1 1 .54 2.78 2.78 0 0 1 .74.89 4.41 4.41 0 0 1 .44 1.28 10.07 10.07 0 0 1 .14 1.9v5.21a10.62 10.62 0 0 0 .06 1.38 1.69 1.69 0 0 0 .2.66 1 1 0 0 0 .4.4 3.55 3.55 0 0 0 .91.34ZM420.52 103.68a4.69 4.69 0 0 0 .79-.29 1.12 1.12 0 0 0 .38-.34 1.88 1.88 0 0 0 .26-.68 7.58 7.58 0 0 0 .08-1.43v-7.46a2.11 2.11 0 0 0-.19-.86 1 1 0 0 0-.51-.48 3.93 3.93 0 0 0-1-.28v-.73l3.27-.13h.84v9.9a8.33 8.33 0 0 0 .11 1.65 1.19 1.19 0 0 0 .42.71 3.14 3.14 0 0 0 1 .42v.68h-5.42Zm3.94-18v2.68h-2.55v-2.63ZM440.8 92.53l-2.56-.1-.12.16a3.09 3.09 0 0 1 .68 1.16 5.26 5.26 0 0 1 .24 1.58 4.38 4.38 0 0 1-1.39 3.47 6.9 6.9 0 0 1-5.91.94 2.16 2.16 0 0 0-1.05 1.57 1.28 1.28 0 0 0 .2.79 1.1 1.1 0 0 0 .67.37 6 6 0 0 0 1.4.11h3.32a5.49 5.49 0 0 1 2.36.46 2.76 2.76 0 0 1 1.32 1.23 4.11 4.11 0 0 1-.35 4.1 4.85 4.85 0 0 1-2.16 1.58 8.81 8.81 0 0 1-3.29.57 18.25 18.25 0 0 1-2.56-.17 6.44 6.44 0 0 1-2-.56 3.16 3.16 0 0 1-1.28-1 2.79 2.79 0 0 1-.45-1.57 2.47 2.47 0 0 1 .59-1.58 5 5 0 0 1 1.64-1.25 2.32 2.32 0 0 1-1-.78 2 2 0 0 1-.37-1.21 2.52 2.52 0 0 1 .44-1.45 6.78 6.78 0 0 1 1.57-1.5 3.93 3.93 0 0 1-1.51-1.57 5 5 0 0 1-.52-2.27 5.06 5.06 0 0 1 .4-2.07 4 4 0 0 1 1.1-1.54 4.72 4.72 0 0 1 1.65-.85 7.22 7.22 0 0 1 2.06-.29 8.25 8.25 0 0 1 2 .24h4.9Zm-9.25 12.09a3.74 3.74 0 0 0-1.06 1.11 2.55 2.55 0 0 0-.36 1.34 2 2 0 0 0 1 1.83 7.72 7.72 0 0 0 5.17.25 3 3 0 0 0 1.36-1 2.37 2.37 0 0 0 .47-1.45 3.08 3.08 0 0 0-.1-.75 1.49 1.49 0 0 0-.37-.66 1.9 1.9 0 0 0-.78-.47 4.38 4.38 0 0 0-1.3-.17h-2.06c-.74.01-1.41-.03-1.97-.03Zm-.35-9.24a4.42 4.42 0 0 0 .7 2.67 2.39 2.39 0 0 0 2 .94 2.49 2.49 0 0 0 1.2-.27 2.24 2.24 0 0 0 .79-.74 3.29 3.29 0 0 0 .46-1.09 6 6 0 0 0-.2-3.33 2.58 2.58 0 0 0-4.31-.7 3.91 3.91 0 0 0-.68 2.48ZM442.39 103.68a4.69 4.69 0 0 0 .79-.29 1.12 1.12 0 0 0 .38-.34 1.72 1.72 0 0 0 .26-.68 8.52 8.52 0 0 0 .09-1.43v-7.46a2 2 0 0 0-.2-.86.94.94 0 0 0-.5-.48 3.64 3.64 0 0 0-1-.28v-.73l3.23-.13h.75v9.9a9.15 9.15 0 0 0 .11 1.65 1.2 1.2 0 0 0 .43.71 2.89 2.89 0 0 0 1 .42v.68h-5.42Zm3.94-18v2.68h-2.54v-2.63ZM463.74 104.36h-5.46v-.68a5.77 5.77 0 0 0 .79-.29 1.16 1.16 0 0 0 .39-.34 1.91 1.91 0 0 0 .25-.69 8.28 8.28 0 0 0 .09-1.41v-3.62c0-.64 0-1.23-.05-1.76a7.87 7.87 0 0 0-.19-1.29 2.48 2.48 0 0 0-.32-.79 2.27 2.27 0 0 0-.44-.49 2.22 2.22 0 0 0-.59-.31 2.87 2.87 0 0 0-1.9.09 4.3 4.3 0 0 0-1.06.74 4 4 0 0 0-.84 1 2.43 2.43 0 0 0-.27 1.18v5.16a8.33 8.33 0 0 0 .11 1.65 1.25 1.25 0 0 0 .43.71 2.89 2.89 0 0 0 1 .42v.68h-5.42v-.68a4.69 4.69 0 0 0 .79-.29 1.26 1.26 0 0 0 .39-.34 1.68 1.68 0 0 0 .24-.68 7.59 7.59 0 0 0 .1-1.43v-7.42a2.15 2.15 0 0 0-.19-.86 1 1 0 0 0-.51-.48 4.06 4.06 0 0 0-1-.28v-.73l3.24-.13h.84l-.15 2.26.19.06a13.62 13.62 0 0 1 1.65-1.48 5.47 5.47 0 0 1 1.28-.69 3.94 3.94 0 0 1 1.36-.24 4.69 4.69 0 0 1 1.34.17 3.13 3.13 0 0 1 1 .54 2.91 2.91 0 0 1 .74.89 4.39 4.39 0 0 1 .43 1.28 10.07 10.07 0 0 1 .14 1.9v5.21q0 .69.06 1.38a1.86 1.86 0 0 0 .19.66 1.12 1.12 0 0 0 .41.4 3.55 3.55 0 0 0 .91.34ZM478.5 92.53l-2.56-.1-.12.16a2.94 2.94 0 0 1 .67 1.16 5 5 0 0 1 .25 1.58 4.36 4.36 0 0 1-1.39 3.47 6.9 6.9 0 0 1-5.91.94 2.19 2.19 0 0 0-1.05 1.57 1.28 1.28 0 0 0 .2.79 1.1 1.1 0 0 0 .66.37 6 6 0 0 0 1.4.11H474a5.47 5.47 0 0 1 2.36.46 2.79 2.79 0 0 1 1.33 1.23 3.81 3.81 0 0 1 .39 1.79 3.76 3.76 0 0 1-.75 2.31 4.77 4.77 0 0 1-2.15 1.58 8.81 8.81 0 0 1-3.29.57 18 18 0 0 1-2.55-.17 6.56 6.56 0 0 1-2-.56 3.07 3.07 0 0 1-1.27-1 2.72 2.72 0 0 1-.45-1.57 2.46 2.46 0 0 1 .58-1.58 5.19 5.19 0 0 1 1.65-1.25 2.34 2.34 0 0 1-1-.78 2.18 2.18 0 0 1-.37-1.21 2.61 2.61 0 0 1 .45-1.45 7 7 0 0 1 1.57-1.5 3.83 3.83 0 0 1-1.52-1.57 5 5 0 0 1-.52-2.27 5.22 5.22 0 0 1 .39-2.07A4.15 4.15 0 0 1 467.9 92a4.72 4.72 0 0 1 1.65-.85 7.22 7.22 0 0 1 2.06-.29 8.34 8.34 0 0 1 2 .24h4.9Zm-9.27 12.09a3.74 3.74 0 0 0-1.06 1.11 2.54 2.54 0 0 0-.35 1.34 2 2 0 0 0 1 1.83 7.71 7.71 0 0 0 5.17.25 2.86 2.86 0 0 0 1.38-1 2.31 2.31 0 0 0 .47-1.45 3.08 3.08 0 0 0-.09-.75 1.66 1.66 0 0 0-.37-.66 1.87 1.87 0 0 0-.79-.47 4.38 4.38 0 0 0-1.3-.17h-2.06c-.77.01-1.39-.03-2-.03Zm-.35-9.24a4.36 4.36 0 0 0 .71 2.67 2.4 2.4 0 0 0 2 .94 2.49 2.49 0 0 0 1.2-.27 2.33 2.33 0 0 0 .79-.74 3.61 3.61 0 0 0 .46-1.09 6.14 6.14 0 0 0 .14-1.29 5.07 5.07 0 0 0-.35-2 2.58 2.58 0 0 0-4.31-.7 4 4 0 0 0-.67 2.48Z"/><path d="M458.39 151.65c-.17 7.55-1.57 14.79-5.66 21.3-3.65 5.79-8.66 8.48-15.57 7.09-8.87-1.83-15.07-6.47-17.32-15.68a44 44 0 0 1 1.41-25.19c2.15-6.19 5.37-11.42 12.78-12 8.44-.68 15.81 1.3 20.62 9 3.01 4.65 3.88 9.96 3.74 15.48Zm-7.76-.7c.28-5.77-1.05-11-5.26-15.22-4.57-4.55-10.66-4.14-13.67 1.41a34.29 34.29 0 0 0-.85 32.27c3.38 7.08 11 7 15 .24 3.33-5.78 4.54-12.13 4.78-18.65ZM284 145.11v-15.52c0-2.06 1-2.85 2.89-2.66a77.36 77.36 0 0 1 9.66 1.08c11.12 2.5 19.26 10.23 20.25 19 1.54 13.61-4 26.24-14.5 30.88-3.86 1.72-8.55 1.66-12.89 2.17-2.17.25-3.1-1.1-3.28-3.32-.85-10.56-1.81-21.1-2.74-31.65Zm5.83-10.42c1 13.29 2 26.39 3 40.39 2.92-1.21 5-1.73 6.76-2.86 6.67-4.38 10.1-10.77 10.83-18.65 1.11-12-7.47-20.32-20.6-18.88ZM377.07 135.65c-2.59-.45-5.4-.58-7.92-1.52-1.45-.55-2.42-2.41-3.6-3.68 1.51-.89 3-2.36 4.54-2.53 2.45-.23 5 .47 7.57.78 1.58-1.81 1.8-5.76 5.36-4.5 1.58.55 2.57 2.7 3.82 4.13l-.79 1c3.33.2 6.67.3 10 .63 2.23.21 5.13.29 4.79 3.52s-3 3.34-5.56 3.15c-3.35-.29-6.69-.62-10.55-1-.26 3.31-.62 6.38-.72 9.44-.32 9.87-.45 19.73-.87 29.58-.1 2.46.17 6.15-3.61 5.89-3.63-.25-3.46-3.68-3.4-6.49.3-12.76.62-25.47.94-38.4ZM335.86 156.86c.34-7.19.67-14.37 1-21.54 0-.83 0-1.94.53-2.41 1.17-1.1 2.54-2.36 4-2.58.66-.12 2.36 2 2.43 3.14.3 3.94-.07 7.92.1 11.87.42 9.56 1 19.13 1.51 28.69.14 2.46-.06 4.72-3.2 5-2.68.25-5.59-2.25-5.61-4.87-.06-5.75 0-11.51 0-17.27ZM467.65 171.79c2.86.07 4.44 1.26 4.55 3.93s-1.19 4.14-3.8 4.28-4.37-1.25-4.44-4a3.77 3.77 0 0 1 3.69-4.21ZM414.34 176.11c-.36 2.44-1.66 3.89-4.28 3.87a3.76 3.76 0 0 1-4.1-4c0-2.66 1.58-4.22 4.4-4.1 2.64.12 3.8 1.65 3.98 4.23ZM356.74 180c-2.64-.17-4.15-1.54-4.14-4.09 0-2.74 1.57-4.22 4.36-4.1 2.61.11 3.93 1.62 3.88 4.2s-1.64 3.86-4.1 3.99ZM323.38 180.1c-.74-1-2.56-2.47-2.79-4.13-.35-2.5 1.4-4.18 4.18-4.14a3.73 3.73 0 0 1 4.09 3.94c.05 2.71-1.56 4.12-5.48 4.33Z" fill="#070707"/><path d="m343.92 215-1.07.29-1-1.08a7.22 7.22 0 0 1-1.85.79 9.07 9.07 0 0 1-2.26.26 6.14 6.14 0 0 1-5.27-2.4q-1.77-2.37-1.77-7.14a13.09 13.09 0 0 1 1-5.17 7.31 7.31 0 0 1 7-4.62 20.63 20.63 0 0 1 2.48.15 21.55 21.55 0 0 1 2.64.5v3.81h-1.44a6.15 6.15 0 0 0-.89-1.95 3 3 0 0 0-1.22-1 4.84 4.84 0 0 0-1.81-.29 3.88 3.88 0 0 0-2.63 1A6.36 6.36 0 0 0 334 201a14.72 14.72 0 0 0-.63 4.57 18 18 0 0 0 .54 4.63 6.16 6.16 0 0 0 1.57 2.9 3.67 3.67 0 0 0 2.59 1 3.53 3.53 0 0 0 2.43-.71 2.82 2.82 0 0 0 .78-2.19v-.83a8.31 8.31 0 0 0-.13-1.8 1.68 1.68 0 0 0-.39-.79 2.63 2.63 0 0 0-1.1-.5v-.68h5.6v.68a2.15 2.15 0 0 0-.75.39 1.43 1.43 0 0 0-.39.52 3.62 3.62 0 0 0-.18.79v1.32ZM351.36 204.14h.19a10.81 10.81 0 0 1 1.41-1.46 5 5 0 0 1 1.41-.79 4.7 4.7 0 0 1 1.71-.29 11.75 11.75 0 0 1 1.45.08v3.19H356a3.16 3.16 0 0 0-.71-1.09 1.47 1.47 0 0 0-1-.34 2.07 2.07 0 0 0-1 .29 3.78 3.78 0 0 0-.94.84 3.57 3.57 0 0 0-.63 1 3.45 3.45 0 0 0-.17 1.15v4.84a6.27 6.27 0 0 0 .15 1.73 1.26 1.26 0 0 0 .51.71 2.76 2.76 0 0 0 1.05.34v.68h-5.57v-.68a4 4 0 0 0 .75-.29 1 1 0 0 0 .4-.35 1.46 1.46 0 0 0 .24-.67 8.52 8.52 0 0 0 .09-1.43v-7.45a2 2 0 0 0-.19-.87 1 1 0 0 0-.51-.48 4 4 0 0 0-1-.27v-.72l3.24-.14h.84ZM364.94 215.29a5.56 5.56 0 0 1-4.39-1.7 7.29 7.29 0 0 1-1.52-5 8.57 8.57 0 0 1 .79-3.86 5.35 5.35 0 0 1 2.18-2.36 6.2 6.2 0 0 1 3.15-.79 5.67 5.67 0 0 1 4.48 1.72 7.25 7.25 0 0 1 1.52 5 8.77 8.77 0 0 1-.78 3.87 5.2 5.2 0 0 1-2.16 2.36 6.75 6.75 0 0 1-3.27.76Zm-3.29-7a8.75 8.75 0 0 0 .9 4.38 2.87 2.87 0 0 0 2.6 1.57 2.58 2.58 0 0 0 1.57-.46 3.43 3.43 0 0 0 1.07-1.2 6.41 6.41 0 0 0 .59-1.76 13.52 13.52 0 0 0 .17-2.1 10.69 10.69 0 0 0-.45-3.38 4.19 4.19 0 0 0-1.22-2 2.72 2.72 0 0 0-1.77-.63 2.86 2.86 0 0 0-2.57 1.45 7.89 7.89 0 0 0-.89 4.13ZM385 212.71a10.69 10.69 0 0 1-1.62 1.46 6.47 6.47 0 0 1-1.63.79 6.15 6.15 0 0 1-1.95.29 5.36 5.36 0 0 1-4.3-1.71 7.63 7.63 0 0 1-1.45-5 8.3 8.3 0 0 1 .74-3.64 5.59 5.59 0 0 1 2.11-2.43 6.39 6.39 0 0 1 5.51-.42 4.13 4.13 0 0 1 1.57 1.21 5.76 5.76 0 0 1 .91 1.94 12.06 12.06 0 0 1 .36 3.05h-8.68v.3a8.54 8.54 0 0 0 .37 2.75 3.26 3.26 0 0 0 3.37 2.37 4.65 4.65 0 0 0 2.05-.42 6.05 6.05 0 0 0 1.8-1.38Zm-2.36-5.61a10.67 10.67 0 0 0-.37-2.44 3 3 0 0 0-.87-1.45 2.19 2.19 0 0 0-1.53-.51 2.72 2.72 0 0 0-2.27 1.14 6.19 6.19 0 0 0-1 3.26ZM401.26 215.07h-5.46v-.68a4.4 4.4 0 0 0 .79-.29 1 1 0 0 0 .39-.35 1.7 1.7 0 0 0 .25-.68 8.23 8.23 0 0 0 .09-1.4V208c0-.65 0-1.23-.05-1.76a8.2 8.2 0 0 0-.19-1.29 2.43 2.43 0 0 0-.32-.78 2.06 2.06 0 0 0-.44-.49 2.25 2.25 0 0 0-.59-.32 2.86 2.86 0 0 0-.87-.12 2.56 2.56 0 0 0-1 .22 3.6 3.6 0 0 0-1.07.74 3.73 3.73 0 0 0-.85 1 2.48 2.48 0 0 0-.26 1.17v5.16a9.09 9.09 0 0 0 .11 1.65 1.25 1.25 0 0 0 .43.71 2.71 2.71 0 0 0 1 .42v.68h-5.42v-.68a4.4 4.4 0 0 0 .79-.29 1 1 0 0 0 .39-.35 1.75 1.75 0 0 0 .25-.67 8.59 8.59 0 0 0 .09-1.43v-7.37a2.16 2.16 0 0 0-.19-.87 1.1 1.1 0 0 0-.51-.49 3.6 3.6 0 0 0-1-.26v-.74l3.24-.12h.84l-.15 2.26.19.05a14.7 14.7 0 0 1 1.66-1.49 6.45 6.45 0 0 1 1.27-.68 4 4 0 0 1 1.36-.24 4.71 4.71 0 0 1 1.34.18 2.9 2.9 0 0 1 1.78 1.42 4.39 4.39 0 0 1 .43 1.28 10 10 0 0 1 .14 1.89v5.22c0 .46 0 .93.06 1.39a1.92 1.92 0 0 0 .19.66 1.1 1.1 0 0 0 .41.39 3.55 3.55 0 0 0 .91.34ZM407.28 211.61a9.09 9.09 0 0 0 .11 1.65 1.31 1.31 0 0 0 .43.71 2.69 2.69 0 0 0 1 .42v.68h-5.51v-.68a3.3 3.3 0 0 0 1-.37 1.23 1.23 0 0 0 .39-.46 2.74 2.74 0 0 0 .17-.74v-14.64a3.8 3.8 0 0 0-.11-.89 1.48 1.48 0 0 0-.26-.59 1.08 1.08 0 0 0-.43-.33 4.7 4.7 0 0 0-1-.25v-.72l3.34-.14h.79ZM417.3 215.29a5.56 5.56 0 0 1-4.39-1.7 7.29 7.29 0 0 1-1.52-5 8.57 8.57 0 0 1 .79-3.86 5.27 5.27 0 0 1 2.17-2.36 6.2 6.2 0 0 1 3.15-.79 5.68 5.68 0 0 1 4.49 1.72 7.24 7.24 0 0 1 1.51 5 8.77 8.77 0 0 1-.78 3.87 5.2 5.2 0 0 1-2.16 2.36 6.63 6.63 0 0 1-3.26.76Zm-3.29-7a8.76 8.76 0 0 0 .91 4.38 2.85 2.85 0 0 0 2.59 1.57 2.58 2.58 0 0 0 1.57-.46 3.31 3.31 0 0 0 1.06-1.2 6.09 6.09 0 0 0 .59-1.76 12.41 12.41 0 0 0 .18-2.1 10.69 10.69 0 0 0-.45-3.38 4.21 4.21 0 0 0-1.23-2 2.72 2.72 0 0 0-1.77-.63 2.86 2.86 0 0 0-2.57 1.45 8 8 0 0 0-.89 4.13Z"/></svg>
