<svg xmlns="http://www.w3.org/2000/svg" viewBox="0 0 700 394"><defs><clipPath id="a"><path fill="none" d="M0 0h700v394H0z"/></clipPath></defs><path fill="#e5ac1b" d="M0 0h700v394H0z"/><g clip-path="url(#a)"><path d="M750.54 284.5A18.77 18.77 0 0 1 732 303.15h-18.64l.41 93a42.85 42.85 0 0 1-.29 4.71v9.41a23.23 23.23 0 0 1-23.24 23.24h-9.3c-.64 0-1.28-.52-1.92-.06-.81-.46-1.62.06-2.44.06h-32.82a23.24 23.24 0 0 1-23.25-23.24v-51.11a18.57 18.57 0 0 0-18.59-18.59h-37.18a18.57 18.57 0 0 0-18.59 18.59v51.13a23.23 23.23 0 0 1-23.24 23.24h-32.48c-.87 0-1.75-.06-2.62-.12-.69.06-1.39.12-2.09.12h-9.3a23.24 23.24 0 0 1-23.24-23.24v-65.07c0-.53 0-1.11.06-1.63v-40.44h-18.62A18.42 18.42 0 0 1 416 284.5a18.86 18.86 0 0 1 5.82-13.94l149-129.85c4.07-4.07 8.72-4.66 12.78-4.66a19.54 19.54 0 0 1 12.26 4.08l148.29 130.43c4.65 4.06 7 8.71 6.39 13.94Z" fill="#cf9b19"/></g><path d="M347.62 170.78c0-2.87-2.3-5.91-4.5-7.19-14.37-8.38-29-16.83-43.2-25l-25.74-14.86a8.81 8.81 0 0 0-9.5 0c-27.25 15.58-50 28.54-71.7 40.78a8.91 8.91 0 0 0-5 8.56c.08 27.82.07 56.12.07 83.49v24.72a3.43 3.43 0 0 0 3.47 3.4h4.31a3.43 3.43 0 0 0 3.47-3.4v-25c0-26.5 0-53.91-.06-80.87 0-1.49.21-1.74 1.3-2.35 22.7-12.81 45.48-25.77 67.68-38.51a2.9 2.9 0 0 1 1.18-.46 2.84 2.84 0 0 1 1.16.46c23 13.38 44.09 25.5 64.38 37.06 1.34.76 1.54 1.1 1.54 2.59-.1 19-.09 38.29-.07 57v10.69c0 1.11.08 2.17.16 3.28 0 .5.08 1 .11 1.54a3.41 3.41 0 0 0 1.19 2.38 3.55 3.55 0 0 0 2.27.82h.31l3.88-.33a3.45 3.45 0 0 0 3.15-3c0-.24.06-.44.09-.63a10.57 10.57 0 0 0 .13-1.47v-11.37c.05-20.43.07-41.55-.08-62.33Z" fill="#fff"/><path d="M203.41 219.54v-5.12l4.54-.88v-30.62l-4.54-.88v-5.15h33.11v11.51H230l-.38-4.92h-13.11v10.72H231v6.59h-14.49V213h13.77l.38-5.1h6.5v11.66Zm39.17 0v-5.12l4.1-.88v-19.66l-4.54-.88v-5.16h12.51l.33 3.93.05.7a9.93 9.93 0 0 1 2.9-3.89 6.63 6.63 0 0 1 4.14-1.32 11.5 11.5 0 0 1 1.67.13 11.89 11.89 0 0 1 1.61.34l-.91 7.88-4.25-.24a5.06 5.06 0 0 0-2.94.62 6.67 6.67 0 0 0-2 2v15.53l4.1.88v5.12Zm37.65 0-9.58-26-3.43-.53v-5.16h15.38V193l-3.34.59 4.74 14.35.73 2.46h.27l.82-2.46 5.18-14.35-3.9-.62v-5.13h15.36V193l-3.52.59-10 25.95Zm39.32.62a15.29 15.29 0 0 1-7.94-2 13.77 13.77 0 0 1-5.26-5.52 16.9 16.9 0 0 1-1.86-8v-1.17a18.92 18.92 0 0 1 1.76-8.36 13.86 13.86 0 0 1 5-5.75 13.41 13.41 0 0 1 7.57-2.06A14.23 14.23 0 0 1 326 189a10.9 10.9 0 0 1 4.45 4.89 17.79 17.79 0 0 1 1.53 7.73v4.66h-18.62l-.05.18a9.27 9.27 0 0 0 1 3.7 6.25 6.25 0 0 0 2.44 2.55 7.48 7.48 0 0 0 3.84.93A15.46 15.46 0 0 0 325 213a16.88 16.88 0 0 0 4-1.78l2.31 5.28a16.38 16.38 0 0 1-4.93 2.62 20.69 20.69 0 0 1-6.83 1.04Zm-6.13-19.57H324v-.76a9.72 9.72 0 0 0-.51-3.33 4.36 4.36 0 0 0-1.64-2.15 5.13 5.13 0 0 0-2.92-.76 4.57 4.57 0 0 0-2.87.89 5.91 5.91 0 0 0-1.83 2.45 12.89 12.89 0 0 0-.9 3.51Zm46.85 18.95v-5.12l4.57-.88v-30.06h-7.76l-.47 5.1h-6.48v-11.69h38.06v11.69h-6.51l-.46-5.1h-7.83v30.06l4.6.88v5.12Zm39.26.62a10.7 10.7 0 0 1-7.5-2.54 9.63 9.63 0 0 1-1.16-12.14 10.65 10.65 0 0 1 4.8-3.54 21 21 0 0 1 7.84-1.29h4.19v-2.35a4.78 4.78 0 0 0-5.33-5.12 8.61 8.61 0 0 0-2.48.33 7.08 7.08 0 0 0-2 1l-.68 4.19h-6.15l-.12-8.24a26.78 26.78 0 0 1 5.39-2.28 22.18 22.18 0 0 1 6.48-.88q6.21 0 9.81 2.88a10 10 0 0 1 3.6 8.25v14.34a9.56 9.56 0 0 0 .1 1.22l3.31.47v5.12h-10.6c-.22-.54-.43-1.13-.65-1.75a11.75 11.75 0 0 1-.47-1.88 12 12 0 0 1-3.58 3.09 9.8 9.8 0 0 1-4.8 1.12Zm2.28-6.33a7.59 7.59 0 0 0 3.4-.8 6.38 6.38 0 0 0 2.49-2.13v-5h-4.22a6.24 6.24 0 0 0-4.26 1.29 4 4 0 0 0-1.45 3.11 3.26 3.26 0 0 0 1.07 2.62 4.42 4.42 0 0 0 2.97.91Zm20.6 5.71v-5.12l4.1-.88v-19.66L422 193v-5.16h12.51l.38 4.55a11.37 11.37 0 0 1 3.91-3.78 10.39 10.39 0 0 1 5.32-1.35 9.32 9.32 0 0 1 7.38 3q2.67 3 2.67 9.46v13.8l4.1.88v5.12h-16.38v-5.12l3.66-.88v-13.75q0-3.2-1.26-4.53a4.92 4.92 0 0 0-3.75-1.33 6.36 6.36 0 0 0-3.21.78 6.47 6.47 0 0 0-2.27 2.21v16.64l3.46.88v5.12Zm38.14 0v-5.12l4.13-.88v-33.66l-4.57-.88v-5.16h13.1v39.7l3.69.88v5.12Zm11.75-8.67-4.1-4.77 13.8-12.6.06-.09-3.26-.47v-5.1h16.5V193l-4.1 1Zm8.44 8.67v-4.86l2.4-.56-.06-.11-6.27-8.53 5.45-5.59 10.4 13.62 3.93.91v5.12Z" fill="#fff"/></svg>
