<svg xmlns="http://www.w3.org/2000/svg" viewBox="0 0 700 394"><path fill="#3500ff" d="M0 0h700v394H0z"/><path d="M119.5 215.27v-43.51h28.21v8.34h-19.33v9.66h17.77v8.34H128.5v17.17Zm55.5 0a12.48 12.48 0 0 1-6.12-1.46 10.34 10.34 0 0 1-4.11-4.08 12.24 12.24 0 0 1-1.47-6.08V179.8h-10.49v-8h19.51v31.59a4 4 0 0 0 1 2.8 3.37 3.37 0 0 0 2.61 1.07h9.31v8.05Zm30.4.6a17 17 0 0 1-7.66-1.64 12 12 0 0 1-5-4.59 13.13 13.13 0 0 1-1.77-6.89V195a13.12 13.12 0 0 1 1.77-6.88 12 12 0 0 1 5-4.59 17 17 0 0 1 7.66-1.64 16.53 16.53 0 0 1 7.59 1.64 12 12 0 0 1 5 4.59 13.12 13.12 0 0 1 1.77 6.88v6h-20.25v1.79q0 6.25 6 6.26 4.26 0 5.1-2.68h8.82a11.6 11.6 0 0 1-4.89 6.91 15.73 15.73 0 0 1-9.14 2.59ZM199.51 195v.9l11.65-.12v-.9q0-6.25-5.76-6.26a5.59 5.59 0 0 0-4.4 1.68 6.88 6.88 0 0 0-1.49 4.7Zm41.84 20.87q-6.66 0-10.41-3.58c-2.5-2.39-3.75-5.64-3.75-9.78v-20h9v20q0 5.67 5.16 5.67a4.94 4.94 0 0 0 3.81-1.46 6 6 0 0 0 1.36-4.21v-20h9v20c0 4.18-1.26 7.44-3.78 9.81s-5.99 3.55-10.39 3.55Zm22.93-.6v-32.79H273v6.26h.18a8.06 8.06 0 0 1 3.09-5 10 10 0 0 1 6.15-1.82 10.4 10.4 0 0 1 8.1 3.37q3.06 3.36 3.07 9.15v3H284V195a5.46 5.46 0 0 0-1.35-4 5.22 5.22 0 0 0-3.93-1.4c-3.6 0-5.4 2-5.4 6.08v19.55Zm70.72 0v-43.51h10.5l11.34 33.67-.42-5.09q-.24-2.9-.39-5.78t-.15-4.92v-17.88h7.93v43.51H353.3l-11.22-33.68q.18 1.91.36 4.53t.33 5.31c.1 1.79.15 3.37.15 4.77v19.07Zm36.61 0v-8.05h10.92v-16.69h-9.72v-8.05h18.73v24.74H401v8.05Zm15-38a5.89 5.89 0 0 1-3.94-1.25 4.67 4.67 0 0 1 0-6.8 6.82 6.82 0 0 1 7.87 0 4.67 4.67 0 0 1 0 6.8 5.88 5.88 0 0 1-3.92 1.28ZM407 226v-8h10.51a4.86 4.86 0 0 0 3.69-1.49 5.39 5.39 0 0 0 1.41-3.87v-22.11h-14.39v-8.05h23.42v30.4q0 6.09-3.61 9.6t-9.84 3.52Zm20.11-48.7a5.88 5.88 0 0 1-3.93-1.25 4.67 4.67 0 0 1 0-6.8 6.8 6.8 0 0 1 7.86 0 4.65 4.65 0 0 1 0 6.8 5.88 5.88 0 0 1-3.91 1.25Zm16.29 37.97v-43.51h9v10.72l-.3 6.26h.18a8.16 8.16 0 0 1 2.88-5 9 9 0 0 1 5.83-1.85 9.71 9.71 0 0 1 7.71 3.34 13 13 0 0 1 2.91 8.88v21.16h-9V195a5.46 5.46 0 0 0-1.35-4 5.74 5.74 0 0 0-7.51 0 5.46 5.46 0 0 0-1.35 4v20.27Zm50.06.6q-6.66 0-10.41-3.58c-2.5-2.39-3.75-5.64-3.75-9.78v-20h9v20q0 5.67 5.16 5.67a4.94 4.94 0 0 0 3.81-1.46 6 6 0 0 0 1.35-4.21v-20h9v20c0 4.18-1.26 7.44-3.78 9.81s-5.98 3.55-10.38 3.55Zm22.21-.6v-8.05h10.93v-16.69h-9.73v-8.05h18.73v24.74h9.48v8.05Zm15-38a5.88 5.88 0 0 1-3.93-1.25 4.67 4.67 0 0 1 0-6.8 6.8 6.8 0 0 1 7.86 0 4.67 4.67 0 0 1 0 6.8 5.88 5.88 0 0 1-3.92 1.28Zm33.44 38.6a18.27 18.27 0 0 1-7.14-1.29 11.21 11.21 0 0 1-4.77-3.58 8.57 8.57 0 0 1-1.71-5.31h9q0 3.35 4.62 3.34h2.64q5.06 0 5-3.22 0-2.92-4.69-3.58l-4.74-.59q-10.92-1.37-10.92-10.13a8.42 8.42 0 0 1 3.3-7.22q3.3-2.45 9.66-2.44h2.28q6.06 0 9.67 2.62a8.27 8.27 0 0 1 3.6 7h-9q0-2.87-4.27-2.87h-2.28q-4.26 0-4.26 2.87c0 1.78 1.3 2.86 3.9 3.22l4.86.65q11.6 1.43 11.59 10.31a8.85 8.85 0 0 1-3.48 7.48q-3.48 2.65-10.27 2.66Z" fill="#fff"/></svg>
