<svg xmlns="http://www.w3.org/2000/svg" viewBox="0 0 700 394"><defs><clipPath id="a"><path fill="none" d="M0 0h700v394H0z"/></clipPath></defs><path fill="#04387d" d="M0 0h700v394H0z"/><g clip-path="url(#a)"><path d="M556 1.93c6.85 47.44-34.58 89-79.34 79.27-39.55-8.6-56.45-54.91-30.94-84.78C457-16.89 478-21.8 493.67-14.82c15 6.71 24 22.07 22.21 38-1.41 12.42-11.45 23.61-23.73 26.47s-22.82-1.27-29.58-11.72c-6.47-10-4.38-23.53 4.78-30.82C475.67.46 487.38.56 494 8.38c2.39 2.83 4.25 9.32 2.67 11.6-3.39 4.9-6.94.32-10.54-2.16-2.54-1.74-7.25-2.8-9.67-1.57-2.6 1.33-4.93 5.59-5.17 8.73-.68 9.13 9.55 15.88 18.82 13.05 10.74-3.28 16.89-16.33 12.7-26.87-6.18-15.41-23.3-21.8-38.31-14.3-18.86 9.44-25.2 32.72-14 51.38 18.32 30.46 60.74 30.09 82.67-1 11.8-16.69 14.1-34.9 7.89-54.47-.94-3-.06-8.76 1.94-9.95 5.12-3.05 7.55 1.54 9 5.87s2.65 8.84 4 13.24Zm18.42 290.76c4-2.17 8.12-5.36 4.23-9.88-1.52-1.76-7.39-1.63-10.14-.19-18.2 9.48-36.55 10.35-55 1.6-34.35-16.26-42-58-15.18-81.28 16.45-14.27 40.48-12 53 4.93 10 13.49 6.63 31.45-7.49 40.19-9.65 6-23.57 2.13-28.66-7.91-4.38-8.64.51-19.88 9.62-20.78 3.14-.31 7.73 1.25 9.49 3.59 1.63 2.17 1.4 7 .12 9.79-1.82 4-5.72 8.25-.31 10.75 2.51 1.16 8.59-1.79 11-4.62 6.57-7.84 4.65-19.39-3.31-26.45-8.75-7.76-22.43-7.5-31.18.6-9.13 8.45-11.41 19.46-6.45 31.15s17.68 19.57 30.16 18.82c16-1 29.56-12.45 33.58-28.41 4.19-16.61-4.27-36.46-19.33-45.36-33.82-20-76.53 4.64-78.19 45.08-1.88 45.77 46.19 79.43 91.74 64.51 4.04-2.03 8.21-3.95 12.25-6.13Zm79-133.08c3.25 3.2 7.49 6.2 10.68 1.16 1.25-2-.59-7.53-2.77-9.75-14.38-14.65-20.55-31.94-17.57-52.16 5.54-37.59 43.21-57.1 73.32-38.21 18.44 11.58 23.31 35.21 10.75 52.15-10 13.48-28.16 15.51-40.63 4.55-8.53-7.48-8.91-21.92-.79-29.71 7-6.71 19.16-5.32 22.68 3.13 1.21 2.91 1.06 7.77-.67 10.13-1.6 2.19-6.28 3.38-9.33 3-4.33-.58-9.56-3.07-10.37 2.84-.38 2.74 4.21 7.69 7.61 9.14 9.42 4 19.91-1.21 24.34-10.88A23.42 23.42 0 0 0 711 75.35c-10.75-6.27-21.94-5.25-31.67 2.91s-13.57 22.62-9.22 34.33c5.59 15 20.54 24.65 37 23.85 17.1-.84 33.62-14.72 37.74-31.72C754 66.51 718 32.84 678.82 43c-44.32 11.54-62.5 67.34-35 106.57 3.18 3.43 6.25 6.82 9.51 10.04ZM20.91 315.07c-.57 4.52-.38 9.72 5.57 9.18 2.32-.2 5.62-5.05 6.06-8.12 2.88-20.33 12.85-35.74 30.72-45.67 33.22-18.46 71.61-.41 74.91 35 2 21.68-13.77 39.92-34.86 40.24-16.78.26-29.43-12.92-28.32-29.49.76-11.32 12-20.4 23.11-18.69 9.58 1.47 15.87 12 11.3 19.91-1.57 2.73-5.52 5.56-8.44 5.63-2.71.06-6.5-2.93-8-5.6-2.18-3.8-3.38-9.46-8.56-6.52-2.41 1.37-3.55 8-2.63 11.61 2.55 9.91 13.06 15.07 23.43 12.71 11.41-2.6 19.16-13.88 17.67-25.71-1.56-12.35-9.18-20.6-21.57-23.38s-26.21 3-32.86 13.57C59.88 313.27 61.32 331 72 343.57c11.06 13.07 32.13 17.74 48.13 10.68 35.94-15.86 40.78-64.92 8.86-89.82-36.11-28.17-91.47-8.68-105.85 37.05-.79 4.52-1.66 9.04-2.23 13.59ZM66.57-10.19c-3.77-2.57-8.48-4.76-10.72.77-.85 2.16 1.94 7.31 4.48 9.1C77.1 11.51 86.28 27.41 87 47.83c1.29 38-32.26 63.94-65.27 50.76C1.48 90.51-7.55 68.13 1.77 49.21 9.19 34.16 26.68 28.9 40.92 37.44c9.74 5.84 12.71 20 6.11 29.1-5.67 7.85-17.9 8.66-22.87 1-1.72-2.65-2.44-7.45-1.16-10.08 1.18-2.44 5.57-4.45 8.64-4.6 4.37-.2 10 1.3 9.7-4.65-.12-2.77-5.52-6.81-9.13-7.62-10-2.25-19.37 4.75-22 15.06C7.33 67 13.84 79 25.05 83.07c11.7 4.24 22.52 1.22 30.64-8.55s9.31-24.69 2.9-35.43C50.41 25.33 34 18.52 17.94 22.27 1.26 26.16-12.5 42.78-13.5 60.25c-2.26 39.21 39.21 65.88 75.91 48.81C103.94 89.75 111.81 31.6 77.67-2c-3.67-2.77-7.31-5.6-11.1-8.19ZM309.8 311.23c-4.39 1.23-9.1 3.44-6.29 8.7 1.09 2.06 6.84 3.22 9.84 2.42 19.84-5.25 37.93-2.07 54 10.52 29.94 23.41 28.26 65.8-3.05 82.63-19.18 10.3-42.13 2.85-50.64-16.46-6.77-15.35.44-32.13 16.14-37.56 10.73-3.71 23.46 3.1 26.22 14 2.37 9.4-4.86 19.29-14 18.17-3.13-.39-7.27-2.92-8.47-5.59-1.11-2.48.17-7.13 2-9.58 2.65-3.48 7.39-6.8 2.66-10.42-2.2-1.69-8.77-.15-11.71 2.1-8.13 6.21-8.8 17.89-2.58 26.53 6.83 9.5 20.23 12.24 30.55 6.26 10.77-6.24 15.41-16.47 13.14-29s-13-23-25.29-25c-15.8-2.57-31.58 5.66-39 20.34-7.73 15.29-3.84 36.51 8.9 48.5 28.6 26.93 75.68 12.28 86.18-26.8 11.89-44.23-27.61-87.63-75.33-83.08-4.36 1.09-8.86 2.09-13.27 3.32ZM764 398c1.42-4.33 2.22-9.47-3.72-10.08-2.31-.24-6.48 3.89-7.49 6.82-6.71 19.4-19.44 32.63-38.87 39-36.13 11.79-70.37-13.25-66.87-48.62 2.14-21.67 21.14-36.56 41.9-32.85 16.52 2.94 26.43 18.29 22.17 34.34-2.9 11-15.65 17.75-26.25 13.95-9.12-3.27-13.29-14.79-7.3-21.71 2.07-2.38 6.48-4.4 9.36-3.91 2.68.46 5.83 4.12 6.82 7 1.41 4.14 1.52 9.93 7.17 8 2.62-.89 5-7.2 4.78-10.89-.61-10.22-9.94-17.29-20.58-16.95a23.42 23.42 0 0 0-22.24 21.9c-.82 12.41 5.08 22 16.72 27.06s26.3 2.07 34.84-7.05c11-11.68 12.93-29.36 4.88-43.72-8.37-15-28.15-23.55-45.21-19.67-38.3 8.72-52.41 56-25.83 86.48 30.08 34.54 88.14 26 111-16.18 1.57-4.3 3.29-8.56 4.72-12.92ZM203.05 65.44c-4.49.76-9.41 2.46-7.18 8 .87 2.16 6.47 3.92 9.54 3.44C225.69 73.74 243.34 78.81 258 93c27.3 26.44 21.16 68.41-11.75 81.84-20.16 8.23-42.2-1.61-48.62-21.7-5.11-16 3.83-31.91 20-35.65 11.06-2.56 23 5.55 24.59 16.7 1.37 9.59-6.87 18.66-15.78 16.59-3.07-.71-6.92-3.67-7.83-6.45-.85-2.58.92-7.07 3-9.31 3-3.18 8.07-6 3.75-10.08-2-1.91-8.71-1.07-11.87.85-8.74 5.32-10.64 16.87-5.36 26.11 5.79 10.17 18.83 14.31 29.72 9.45C249.27 156.31 255 146.62 254 134s-10.46-24.22-22.51-27.52a37.24 37.24 0 0 0-40.94 16.12c-9.3 14.38-7.67 35.89 3.73 49.16 25.61 29.79 74 20.2 88.53-17.57 16.49-42.73-18.22-90.05-66.15-90.56-4.52.56-9.09 1.04-13.61 1.81Z" fill="#03326f"/></g><path d="M350 272c32.85 0 51.15 0 63.08-11.92S425 229.85 425 197s0-51.15-11.92-63.07S382.85 122 350 122s-51.15 0-63.08 11.92S275 164.15 275 197s0 51.15 11.92 63.08S317.15 272 350 272Z" fill="#0b63e9"/><path d="M339.93 154.29c18.05-4.83 31.56 1.09 40.37 9.72L365 178.17a21.22 21.22 0 0 0-20-5.09c-13.47 3.61-20.21 16.54-16.6 30s15.91 21.3 29.38 17.69c6.43-1.72 11.65-5.5 14.25-9.11l-1.85-6.93-18.91 5.07-4.74-17.67 39.8-10.67 8.67 32.28a49.33 49.33 0 0 1-32.16 25.84c-24.6 6.59-49-4.48-56.05-30.69s8.55-48.01 33.14-54.6Z" fill="#fff"/></svg>
