<svg xmlns="http://www.w3.org/2000/svg" xmlns:xlink="http://www.w3.org/1999/xlink" viewBox="0 0 700 394"><defs><radialGradient id="c" cx="404.64" cy="-1483.29" r="23.59" gradientTransform="matrix(.98 0 0 -2.29 -28.88 -3197.22)" gradientUnits="userSpaceOnUse"><stop offset="0" stop-color="#ffd86b"/><stop offset=".6" stop-color="#f5a240"/><stop offset=".68" stop-color="#e58e37"/><stop offset=".84" stop-color="#be591e"/><stop offset=".95" stop-color="#a1340d"/></radialGradient><radialGradient id="a" cx="-2630.66" cy="-1244.56" r="23.58" gradientTransform="matrix(-.98 0 0 2.29 -2241.52 3026.41)" gradientUnits="userSpaceOnUse"><stop offset=".44" stop-color="#ffd86b"/><stop offset=".75" stop-color="#f5a240"/><stop offset=".8" stop-color="#e58e37"/><stop offset=".89" stop-color="#be591e"/><stop offset=".95" stop-color="#a1340d"/></radialGradient><radialGradient id="e" cx="553.52" cy="-1332.77" r="23.22" gradientTransform="matrix(.92 .1 .18 -2.77 97.52 -3555.23)" xlink:href="#a"/><radialGradient id="b" cx="241.47" cy="-1384.53" r="15.89" gradientTransform="matrix(1.02 -.06 -.11 -2.77 -81.99 -3646.79)" gradientUnits="userSpaceOnUse"><stop offset="0" stop-color="#ffd86b"/><stop offset=".75" stop-color="#f5a240"/><stop offset=".8" stop-color="#e58e37"/><stop offset=".89" stop-color="#be591e"/><stop offset=".95" stop-color="#a1340d"/></radialGradient><radialGradient id="f" cx="-3068.27" cy="-1240.75" r="26.09" gradientTransform="matrix(-.71 .12 .27 2.27 -1523.08 3375.84)" xlink:href="#a"/><radialGradient id="g" cx="-2664.37" cy="-1366.4" r="23.26" gradientTransform="matrix(-.93 0 0 -2.78 -2111.85 -3609.28)" xlink:href="#b"/><radialGradient id="h" cx="433.9" cy="-1308.44" r="21.15" gradientTransform="matrix(1.01 .1 .17 -2.44 168.11 -3050.95)" xlink:href="#a"/><radialGradient id="i" cx="-2117.81" cy="-1400.21" r="16.38" gradientTransform="matrix(-1.44 .08 .1 3.02 -2598.58 4581.98)" xlink:href="#a"/><radialGradient id="j" cx="189.82" cy="-1255.89" r="16.78" gradientTransform="matrix(1.12 0 0 -3.33 135.02 -4006.87)" xlink:href="#a"/><radialGradient id="k" cx="-2822.87" cy="-1425.74" r="16.78" gradientTransform="matrix(-.93 0 0 3.45 -2292.8 5118.58)" gradientUnits="userSpaceOnUse"><stop offset=".04" stop-color="#ffd86b"/><stop offset=".68" stop-color="#f5a240"/><stop offset=".76" stop-color="#e58e37"/><stop offset=".9" stop-color="#be591e"/><stop offset="1" stop-color="#a1340d"/></radialGradient><radialGradient id="l" cx="633.67" cy="-1463" r="16.78" gradientTransform="matrix(.92 .17 -.44 3.41 -833.55 5084.19)" xlink:href="#a"/><radialGradient id="m" cx="-2669.54" cy="-1518.14" r="23.59" gradientTransform="matrix(-.98 .04 -.08 -1.97 -2377.39 -2705.62)" xlink:href="#c"/><radialGradient id="n" cx="-2854.55" cy="-1309.11" r="17.86" gradientTransform="matrix(-.92 -.12 -.27 2.27 -2622.34 2810.85)" gradientUnits="userSpaceOnUse"><stop offset=".24" stop-color="#ffd86b"/><stop offset=".36" stop-color="#fed468"/><stop offset=".49" stop-color="#fcc75e"/><stop offset=".63" stop-color="#f8b34d"/><stop offset=".71" stop-color="#f5a240"/><stop offset=".78" stop-color="#e58e37"/><stop offset=".91" stop-color="#be591e"/><stop offset="1" stop-color="#a1340d"/></radialGradient><radialGradient id="o" cx="-2818.76" cy="-1317.63" r="21.33" gradientTransform="matrix(-.92 -.12 -.27 2.27 -2623.15 2817.48)" xlink:href="#a"/><radialGradient id="p" cx="393.12" cy="-1198.61" r="26.45" gradientTransform="matrix(.92 -.12 .27 2.27 341.54 2919.69)" xlink:href="#a"/><radialGradient id="q" cx="272.34" cy="-1366.74" r="18.63" gradientTransform="matrix(1.01 -.03 -.12 -2.44 -114.62 -3139.67)" xlink:href="#a"/><linearGradient id="r" x1="350" y1="-2313" x2="350" y2="-2238.71" gradientTransform="matrix(1 0 0 -1 0 -2056)" gradientUnits="userSpaceOnUse"><stop offset="0" stop-color="#cf0000"/><stop offset=".16" stop-color="#df0005"/><stop offset=".42" stop-color="#f1000a"/><stop offset=".69" stop-color="#fc000d"/><stop offset="1" stop-color="#ff000e"/></linearGradient><linearGradient id="d" x1="308.08" y1="-2313" x2="308.08" y2="-2233.11" gradientTransform="matrix(1 0 0 -1 0 -2056)" gradientUnits="userSpaceOnUse"><stop offset="0" stop-color="#cf0000"/><stop offset=".35" stop-color="#d20001"/><stop offset=".6" stop-color="#db0003"/><stop offset=".81" stop-color="#ea0008"/><stop offset="1" stop-color="#ff000e"/></linearGradient><linearGradient id="s" x1="-3201.85" y1="-2313" x2="-3201.85" y2="-2233.11" gradientTransform="rotate(180 -1404.965 -1028)" xlink:href="#d"/></defs><path fill="#074663" d="M0 0h700v394H0z"/><path fill="#b00505" d="M392.52 169.44h-85.04l-9.48 7.67 9.51 42.04h84.99l9.5-42.04-9.48-7.67z"/><path d="M372.56 149.94c-1.88-2.12-4.95-4.59-8.94-2.81-6.12 41.59-2.06 81.76-2 82.34.42 6.05 9.41 8.94 10.79 8.09-4.28-50.1.59-63.7.15-87.62Z" fill-rule="evenodd" fill="url(#c)"/><path d="M330.38 224.78c1.89 2.11 5 4.58 9 2.8 6.13-41.59 2.06-81.76 2-82.35-.42-6-9.44-8.92-10.82-8.09 4.28 50.11-.56 63.71-.18 87.64Z" fill-rule="evenodd" fill="url(#a)"/><path d="M382.1 143.59c-1.65-2.3-5.93-5.28-9.82-3.91-5.11 40.84 1.17 41.11-7.66 98.95-.88 5.93 9.22.66 10.61 0 7.94-49.09 7.16-73.52 6.87-95.04Z" fill-rule="evenodd" fill="url(#e)"/><path d="M382.1 143.59c-1.81-.52-4.1 2.48-4.1 3 0 35.06 1.07 45.86-2.77 91.94a463.23 463.23 0 0 0 6.87-94.94Z" fill="#820000" fill-rule="evenodd" opacity=".1" style="isolation:isolate"/><path d="M315.21 146.31c-1.41-1.36-4.84-2.87-7.65-1.48-.8 28.3 3.92 27.73 1.59 68-.24 4.14 7-.67 8-1.31 2.27-34.18-.15-50.65-1.94-65.21Z" fill-rule="evenodd" fill="url(#b)"/><path d="M315.21 146.31c-1.39-.14-2.89 2.17-2.85 2.55 2.59 23.78 4.21 31 4.74 62.68a287.86 287.86 0 0 0-1.89-65.23Z" fill="#820000" fill-rule="evenodd" opacity=".1" style="isolation:isolate"/><path d="M309.25 243.76c1.76 1.69 5.85 3.34 8.9 1.16-2.34-38.23-7.68-36.95-9.64-91.48-.21-5.61-7.91 1.66-8.94 2.63 1.3 46.33 5.92 68.28 9.68 87.69Z" fill-rule="evenodd" fill="url(#f)"/><path d="M309.25 243.76c1.6 0 3.05-3.24 2.95-3.75-5.69-31.76-8.37-41.28-12.63-83.94a456.72 456.72 0 0 0 9.68 87.69Z" fill="#820000" fill-rule="evenodd" opacity=".1" style="isolation:isolate"/><path d="M352.59 140.45c1.79-2.11 6.24-4.62 10-2.85 2.48 41.25-3.79 40.84 1.31 99.43.52 6-12.1-2.51-13.41-3.35-4.75-49.68.42-71.81 2.1-93.23Z" fill-rule="evenodd" fill="url(#g)"/><path d="M391.93 155.74c-1.84-1.93-2.24-24.27-8.55-17.45-2.25 47.71-8.6 71.91-6 87.31.86 5 6.43-10 7.89-10.6 1.63-21.84 6.04-43.3 6.66-59.26Z" fill-rule="evenodd" fill="url(#h)"/><path d="M315.5 206.44c2.21 1.53 5 22.68 11.21 15.23-2.59-45.63 1.79-69.58-2.74-83.8-1.47-4.6-6 10.54-7.51 11.28.54 20.99-1.98 42.04-.96 57.29Z" fill-rule="evenodd" fill="url(#i)"/><path d="M352.44 141.94c-2.16-2.05-10.59-2-10.71.33-1.08 20.51-4.09 50.34-3 77.14.24 5.85 10.4 7.51 12 6.7-1.13-37.11 1.71-66.62 1.71-84.17Z" fill-rule="evenodd" fill="url(#j)"/><path d="M341.73 142.27c-1.08 20.51-4.09 50.34-3 77.14 2.21-21.24 5.79-57.85 5.93-75.18.02-.94-2.81-2.5-2.93-1.96Z" fill="#820000" opacity=".1" style="isolation:isolate"/><path d="M321.3 235.05c1.79 2.11 8.75 2.06 8.85-.35.89-21.25 3.38-52.15 2.47-79.9-.2-6.06-8.59-7.79-9.9-7 .93 38.46-1.42 69.06-1.42 87.25Z" fill-rule="evenodd" fill="url(#k)"/><path d="M330.15 234.7c.89-21.25 3.38-52.15 2.47-79.9-1.83 22-4.32 58.14-6.35 78 1.83.35 3.78 2.46 3.88 1.9Z" fill="#820000" opacity=".1" style="isolation:isolate"/><path d="M392.23 240.68c-2 1.77-8.91.47-8.7-1.93 1.84-21.18 3.34-52.18 7.8-79.47 1-5.95 9.48-6.15 10.67-5.09-5.84 37.81-7.44 68.5-9.77 86.49Z" fill-rule="evenodd" fill="url(#l)"/><path d="M348.4 168.51c1.82-1.9 4.79-4.17 8.84-2.81 7.55 35.63 4.88 70.46 4.86 71-.21 5.24-9.1 8.11-10.5 7.45 2.53-43.45-2.76-54.98-3.2-75.64Z" fill-rule="evenodd" fill="url(#m)"/><path d="M358.86 243.5c1.38 2.11 3.72 4.67 7.32 3.52 9.72-36.66 10.64-73.17 10.66-73.69.3-5.48-7-9.06-8.31-8.46-1.81 45.44-7.4 57.13-9.67 78.63Z" fill-rule="evenodd" fill="url(#n)"/><path d="M323.83 208.75c1.86-16 2.14-27.12 2.15-27.41.3-5.47-7.05-9.06-8.31-8.46-.61 15.19-1.63 26.6-2.82 35.87Z" fill-rule="evenodd" fill="url(#o)"/><path d="M384.63 207.15c-2.43-21-.08-43.09-.1-43.47-.39-7.19 6.54 2.3 8.2 3.08.79 20-.46 26.8 1.1 39Z" fill-rule="evenodd" fill="url(#p)"/><path d="M343.74 177.44c-1.81-1.48-4.51-21-9.31-14.29 3.05 41.95 0 63.82 4 77 1.27 4.25 4.56-9.51 5.78-10.16-.94-19.28.66-38.54-.47-52.55Z" fill-rule="evenodd" fill="url(#q)"/><path d="M389.1 182.71c-10.43 34.49-67.77 34.49-78.2 0 0 0-.49 43.09 7.25 74.29 0 0 31.85-4.1 63.7 0 7.75-31.2 7.25-74.29 7.25-74.29Z" fill="url(#r)"/><path d="m310.9 182.71-12.9-5.6 9.51 67L318.15 257s-3.57-41.09-7.25-74.29Z" fill="url(#d)"/><path d="m389.1 182.71 12.9-5.6-9.5 67L381.85 257s3.57-41.09 7.25-74.29Z" fill="url(#s)"/><path d="M77.64 193.34a1.43 1.43 0 0 1-1.41 1.41h-2.1l-1.5 4.44h1.23a1.43 1.43 0 0 1 0 2.85h-2.19l-1.35 4.11a1.57 1.57 0 0 1-3.06-.51 2.33 2.33 0 0 1 .06-.48l1.05-3.16h-2.61l-1.35 4.11a1.56 1.56 0 0 1-1.5 1.08 1.59 1.59 0 0 1-1.56-1.59 1.24 1.24 0 0 1 .09-.48l1-3.12h-1.03a1.39 1.39 0 0 1-1.41-1.37 1.42 1.42 0 0 1 1.41-1.44h2l1.44-4.44h-1.07a1.43 1.43 0 0 1-1.41-1.41 1.41 1.41 0 0 1 1.41-1.41h2.1l1.38-4.17a1.55 1.55 0 0 1 1.47-1.08 1.6 1.6 0 0 1 1.59 1.59 1.24 1.24 0 0 1-.09.48l-1 3.18h2.58l1.38-4.17a1.57 1.57 0 0 1 3.06.51 2.33 2.33 0 0 1-.06.48l-1.08 3.18h1.17a1.41 1.41 0 0 1 1.36 1.41Zm-6.84 1.41h-2.58l-1.47 4.44h2.55ZM84.54 204.62v-13.17h-3.63a2.25 2.25 0 0 1 0-4.5h12.36a2.25 2.25 0 1 1 0 4.5H89.7v13.17a2.58 2.58 0 1 1-5.16 0ZM101.31 192.11c4.29 0 7.41 3.15 7.41 6.81 0 1.65-1 2.25-2.76 2.25H98.4a3.46 3.46 0 0 0 3.69 2.58 6 6 0 0 0 2.52-.6 1.54 1.54 0 0 1 .75-.18 1.75 1.75 0 0 1 .69 3.36 10.37 10.37 0 0 1-4.53 1c-4.47 0-7.92-2.91-7.92-7.62a7.48 7.48 0 0 1 7.71-7.6Zm-3 6.06h6a2.78 2.78 0 0 0-3-2.49 2.86 2.86 0 0 0-2.97 2.49ZM124.17 197.9v6.9a2.36 2.36 0 0 1-2.31 2.43 2.46 2.46 0 0 1-2.34-1.71 5.87 5.87 0 0 1-4.47 1.8 4.78 4.78 0 0 1-5-4.77c0-3.51 2.76-4.56 5-4.56a5.79 5.79 0 0 1 4.5 1.68v-1.83c0-1.26-1.08-2.1-2.94-2.1a6.11 6.11 0 0 0-3 .78 1.78 1.78 0 0 1-.78.21 1.73 1.73 0 0 1-1.71-1.71 1.75 1.75 0 0 1 .9-1.5 10.9 10.9 0 0 1 5.37-1.41c3.51 0 6.78 1.29 6.78 5.79Zm-4.62 5.34V202a3.3 3.3 0 0 0-2.58-1c-1.23 0-2.31.54-2.31 1.68s1.08 1.68 2.31 1.68a3.22 3.22 0 0 0 2.58-1.12ZM150.39 196.46v8.46a2.3 2.3 0 1 1-4.59 0v-6.78a1.74 1.74 0 0 0-1.92-1.95 3.35 3.35 0 0 0-2.61 1.41v7.32a2.31 2.31 0 0 1-4.62 0v-6.78a1.73 1.73 0 0 0-1.92-1.95 3.39 3.39 0 0 0-2.58 1.41v7.32a2.31 2.31 0 0 1-4.62 0v-10.41a2.33 2.33 0 0 1 4.65-.3 6.4 6.4 0 0 1 4.74-2.1c2.07 0 3.51.87 4.11 2.58a6.24 6.24 0 0 1 5-2.58c2.68 0 4.36 1.38 4.36 4.35ZM153.9 204.62v-14.94a2.45 2.45 0 0 1 2.73-2.73h7.29c4.5 0 7 3 7 6.66s-2.46 6.57-7 6.57h-4.86v4.44a2.58 2.58 0 1 1-5.16 0Zm9.33-13.32h-4.17v4.5h4.17a2.21 2.21 0 0 0 2.4-2.22 2.24 2.24 0 0 0-2.4-2.28ZM185.64 197.9v6.9a2.36 2.36 0 0 1-2.31 2.43 2.46 2.46 0 0 1-2.34-1.71 5.87 5.87 0 0 1-4.47 1.8 4.78 4.78 0 0 1-5-4.77c0-3.51 2.76-4.56 5-4.56a5.79 5.79 0 0 1 4.5 1.68v-1.83c0-1.26-1.08-2.1-2.94-2.1a6.11 6.11 0 0 0-3 .78 1.78 1.78 0 0 1-.78.21 1.73 1.73 0 0 1-1.71-1.71 1.75 1.75 0 0 1 .9-1.5 10.9 10.9 0 0 1 5.37-1.41c3.51 0 6.78 1.29 6.78 5.79Zm-4.64 5.34V202a3.3 3.3 0 0 0-2.58-1c-1.23 0-2.31.54-2.31 1.68s1.08 1.68 2.31 1.68a3.22 3.22 0 0 0 2.58-1.12ZM197.85 205.22a1.9 1.9 0 0 1-1.47 1.86 6.9 6.9 0 0 1-1.89.24c-2.94 0-4.53-1.47-4.53-4.26v-6.57h-.66a2 2 0 0 1 0-4h.7v-1.92a2.3 2.3 0 1 1 4.59 0v1.92h1.2a2 2 0 0 1 0 4h-1.2v5.28a1.32 1.32 0 0 0 1.2 1.47h.45a1.87 1.87 0 0 1 1.61 1.98ZM213 197.9v6.9a2.36 2.36 0 0 1-2.31 2.43 2.46 2.46 0 0 1-2.34-1.71 5.87 5.87 0 0 1-4.47 1.8 4.78 4.78 0 0 1-5-4.77c0-3.51 2.76-4.56 5-4.56a5.79 5.79 0 0 1 4.5 1.68v-1.83c0-1.26-1.08-2.1-2.94-2.1a6.11 6.11 0 0 0-3 .78 1.78 1.78 0 0 1-.78.21A1.73 1.73 0 0 1 200 195a1.75 1.75 0 0 1 .9-1.5 10.9 10.9 0 0 1 5.37-1.41c3.43.02 6.73 1.31 6.73 5.81Zm-4.62 5.34V202a3.3 3.3 0 0 0-2.58-1c-1.23 0-2.31.54-2.31 1.68s1.08 1.68 2.31 1.68a3.22 3.22 0 0 0 2.55-1.12ZM225.18 205.22a1.9 1.9 0 0 1-1.47 1.86 6.9 6.9 0 0 1-1.89.24c-2.94 0-4.53-1.47-4.53-4.26v-6.57h-.66a2 2 0 1 1 0-4h.66v-1.92a2.3 2.3 0 1 1 4.59 0v1.92h1.2a2 2 0 0 1 0 4h-1.2v5.28a1.32 1.32 0 0 0 1.2 1.47h.45a1.87 1.87 0 0 1 1.65 1.98ZM501.88 194a1.43 1.43 0 0 1-1.41 1.41h-2.1l-1.5 4.44h1.23a1.43 1.43 0 0 1 0 2.85h-2.19l-1.35 4.11a1.57 1.57 0 0 1-3.06-.51 2.33 2.33 0 0 1 .06-.48l1.05-3.12H490l-1.35 4.11a1.56 1.56 0 0 1-1.5 1.08 1.59 1.59 0 0 1-1.56-1.59 1.24 1.24 0 0 1 .09-.48l1-3.12h-1.05a1.39 1.39 0 0 1-1.41-1.41 1.42 1.42 0 0 1 1.41-1.44h2l1.44-4.44H488a1.43 1.43 0 0 1-1.41-1.41 1.41 1.41 0 0 1 1.41-1.41h2.1l1.38-4.17a1.55 1.55 0 0 1 1.47-1.08 1.6 1.6 0 0 1 1.59 1.59 1.24 1.24 0 0 1-.09.48l-1.05 3.18h2.6l1.38-4.17a1.57 1.57 0 0 1 3.06.51 2.33 2.33 0 0 1-.06.48l-1.08 3.18h1.17a1.41 1.41 0 0 1 1.41 1.41Zm-6.88 1.44h-2.58l-1.42 4.44h2.55ZM508.78 205.31v-13.17h-3.63a2.25 2.25 0 0 1 0-4.5h12.36a2.25 2.25 0 1 1 0 4.5h-3.57v13.17a2.58 2.58 0 1 1-5.16 0ZM525.55 192.8c4.29 0 7.41 3.15 7.41 6.81 0 1.65-1 2.25-2.76 2.25h-7.56a3.46 3.46 0 0 0 3.69 2.58 6 6 0 0 0 2.52-.6 1.54 1.54 0 0 1 .75-.18 1.75 1.75 0 0 1 .69 3.36 10.37 10.37 0 0 1-4.53 1c-4.47 0-7.92-2.91-7.92-7.62a7.48 7.48 0 0 1 7.71-7.6Zm-3 6.06h6a2.78 2.78 0 0 0-3-2.49 2.86 2.86 0 0 0-2.97 2.49ZM548.41 198.59v6.9a2.36 2.36 0 0 1-2.31 2.43 2.46 2.46 0 0 1-2.34-1.71 5.87 5.87 0 0 1-4.47 1.8 4.78 4.78 0 0 1-5-4.77c0-3.51 2.76-4.56 5-4.56a5.79 5.79 0 0 1 4.5 1.68v-1.83c0-1.26-1.08-2.1-2.94-2.1a6.11 6.11 0 0 0-3 .78 1.78 1.78 0 0 1-.78.21 1.73 1.73 0 0 1-1.71-1.71 1.75 1.75 0 0 1 .9-1.5 10.9 10.9 0 0 1 5.37-1.41c3.51 0 6.78 1.29 6.78 5.79Zm-4.62 5.34v-1.29a3.3 3.3 0 0 0-2.58-1c-1.23 0-2.31.54-2.31 1.68s1.1 1.68 2.31 1.68a3.22 3.22 0 0 0 2.58-1.07ZM574.63 197.15v8.46a2.3 2.3 0 1 1-4.59 0v-6.78a1.74 1.74 0 0 0-1.92-2 3.35 3.35 0 0 0-2.61 1.41v7.32a2.31 2.31 0 1 1-4.62 0v-6.78a1.73 1.73 0 0 0-1.92-2 3.39 3.39 0 0 0-2.58 1.41v7.32a2.31 2.31 0 1 1-4.62 0V195.2a2.33 2.33 0 0 1 4.65-.3 6.4 6.4 0 0 1 4.74-2.1c2.07 0 3.51.87 4.11 2.58a6.24 6.24 0 0 1 5-2.58c2.73 0 4.36 1.38 4.36 4.35ZM578.14 205.31v-14.94a2.45 2.45 0 0 1 2.73-2.73h10a2.18 2.18 0 0 1 0 4.35h-7.57v3.33h7.38a2.19 2.19 0 0 1 0 4.38h-7.38v5.61a2.58 2.58 0 1 1-5.16 0ZM605 194.87a2.16 2.16 0 0 1-2 2.31 4.47 4.47 0 0 0-2.88 1.29v7.14a2.31 2.31 0 1 1-4.62 0v-10.32a2.33 2.33 0 0 1 2.31-2.4 2.27 2.27 0 0 1 2.34 2 5.33 5.33 0 0 1 1.86-1.8 2.72 2.72 0 0 1 1-.27 1.92 1.92 0 0 1 1.99 2.05ZM606.4 188.63a2.64 2.64 0 1 1 2.6 2.67 2.62 2.62 0 0 1-2.6-2.67Zm.33 17V195.2a2.31 2.31 0 0 1 4.62 0v10.41a2.31 2.31 0 1 1-4.62 0ZM621.46 192.8c4.29 0 7.41 3.15 7.41 6.81 0 1.65-1 2.25-2.76 2.25h-7.56a3.46 3.46 0 0 0 3.69 2.58 6 6 0 0 0 2.52-.6 1.54 1.54 0 0 1 .75-.18 1.75 1.75 0 0 1 .69 3.36 10.37 10.37 0 0 1-4.53 1c-4.47 0-7.92-2.91-7.92-7.62a7.48 7.48 0 0 1 7.71-7.6Zm-3 6.06h6a2.78 2.78 0 0 0-3-2.49 2.86 2.86 0 0 0-2.97 2.49ZM640 205.91a1.9 1.9 0 0 1-1.47 1.86 6.9 6.9 0 0 1-1.89.24c-2.94 0-4.53-1.47-4.53-4.26v-6.57h-.66a2 2 0 1 1 0-4h.66v-1.92a2.3 2.3 0 1 1 4.59 0v1.92h1.2a2 2 0 0 1 0 4h-1.2v5.28a1.32 1.32 0 0 0 1.2 1.47h.45a1.87 1.87 0 0 1 1.65 1.98Z" fill="#f1d290"/></svg>
