<svg xmlns="http://www.w3.org/2000/svg" viewBox="0 0 700 394"><path fill="#bf195d" d="M0 0h700v394H0z"/><path d="M140 148h420v98H140z"/><path d="M187.1 221.09q-6.9 0-10.95-3.75a13.11 13.11 0 0 1-4.05-10.11h9a6 6 0 0 0 1.62 4.41 5.86 5.86 0 0 0 4.38 1.65 6 6 0 0 0 4.38-1.59 5.82 5.82 0 0 0 1.62-4.35v-22.56h-12.3v-8.1h21.3v30.66q0 6.36-4 10.05t-11 3.69Zm33.54 0a11.14 11.14 0 0 1-7.89-2.7 9.5 9.5 0 0 1-2.91-7.32 9 9 0 0 1 3.6-7.71q3.6-2.67 10.32-2.67h6.3v-2.4a3.66 3.66 0 0 0-1.38-3.06 6.09 6.09 0 0 0-3.84-1.08 6.67 6.67 0 0 0-3.81 1 3 3 0 0 0-1.41 2.58h-8.4a9.75 9.75 0 0 1 3.9-7.89q3.78-2.91 10.08-2.91t10.14 3a10.2 10.2 0 0 1 3.72 8.37v22.2h-8.7v-5.1h-.18a7.33 7.33 0 0 1-3.3 4.2 11.82 11.82 0 0 1-6.24 1.49Zm3.36-6.54a6.71 6.71 0 0 0 4.35-1.38 4.47 4.47 0 0 0 1.71-3.66V206h-6.12a5.74 5.74 0 0 0-3.75 1.11 3.78 3.78 0 0 0-1.35 3.09 3.9 3.9 0 0 0 1.38 3.18 5.76 5.76 0 0 0 3.78 1.17Zm23.1 5.94v-8.1H258v-16.8h-9.7v-8.1H267v24.9h9.48v8.1Zm15-38.22a5.83 5.83 0 0 1-3.93-1.26 4.71 4.71 0 0 1 0-6.84 6.76 6.76 0 0 1 7.86 0 4.71 4.71 0 0 1 0 6.84 5.83 5.83 0 0 1-3.93 1.26Zm19.32 38.22v-33h7.08v4.8h.24a6.19 6.19 0 0 1 1.74-3.9 5.05 5.05 0 0 1 3.72-1.5 5.18 5.18 0 0 1 3.72 1.5 6.89 6.89 0 0 1 2 3.9h.08a6 6 0 0 1 1.8-3.9 5.4 5.4 0 0 1 3.9-1.5 5.94 5.94 0 0 1 4.83 2.34 9.34 9.34 0 0 1 1.89 6.06v25.2h-7.56v-24.18q0-2.88-2.34-2.88t-2.34 2.88v24.18h-6.54v-24.18q0-2.88-2.34-2.88t-2.3 2.88v24.18Zm37.68 0v-8.1H330v-16.8h-9.7v-8.1H339v24.9h9.48v8.1Zm15-38.22a5.83 5.83 0 0 1-3.93-1.26 4.71 4.71 0 0 1 0-6.84 6.76 6.76 0 0 1 7.86 0 4.71 4.71 0 0 1 0 6.84 5.83 5.83 0 0 1-3.93 1.26Zm34.9 38.82a16.78 16.78 0 0 1-7.65-1.65 12 12 0 0 1-5-4.62 13.28 13.28 0 0 1-1.77-6.93v-7.8a13.28 13.28 0 0 1 1.77-6.93 12 12 0 0 1 5-4.62 16.78 16.78 0 0 1 7.65-1.65 16.4 16.4 0 0 1 7.59 1.65 12.09 12.09 0 0 1 5 4.62 13.28 13.28 0 0 1 1.77 6.93v6h-20.28v1.8q0 6.3 6 6.3 4.26 0 5.1-2.7H383a11.71 11.71 0 0 1-4.89 7 15.66 15.66 0 0 1-9.11 2.6Zm-5.88-21v.9l11.64-.12V200q0-6.3-5.76-6.3a5.55 5.55 0 0 0-4.41 1.68 7 7 0 0 0-1.51 4.71Zm72.14 20.4-10.86-43.8h9.3l6.06 27.66q.3 1.44.75 3.66t.69 3.78q.24-1.56.6-3.78t.66-3.72l5.88-27.6h9.06l-10.74 43.8Zm41.64.6a16.59 16.59 0 0 1-7.62-1.65 12.05 12.05 0 0 1-5-4.62 13.28 13.28 0 0 1-1.77-6.93v-7.8a13.28 13.28 0 0 1 1.77-6.93 12.05 12.05 0 0 1 5-4.62 18.49 18.49 0 0 1 15.27 0 12.09 12.09 0 0 1 5 4.62 13.28 13.28 0 0 1 1.77 6.93v7.8a13.28 13.28 0 0 1-1.77 6.93 12.09 12.09 0 0 1-5 4.62 16.54 16.54 0 0 1-7.65 1.65Zm0-7.8a5.38 5.38 0 0 0 4-1.41 5.47 5.47 0 0 0 1.38-4v-7.8a5.68 5.68 0 0 0-9.39-4 5.38 5.38 0 0 0-1.41 4v7.8a4.91 4.91 0 0 0 5.4 5.4Zm34.62 7.8a18.27 18.27 0 0 1-7.14-1.29 11.26 11.26 0 0 1-4.77-3.57 8.65 8.65 0 0 1-1.71-5.34h9q0 3.36 4.62 3.36h2.64q5 0 5-3.24 0-2.94-4.68-3.6l-4.74-.6q-10.92-1.38-10.92-10.2a8.49 8.49 0 0 1 3.3-7.26q3.3-2.46 9.66-2.46h2.28q6.06 0 9.66 2.64a8.34 8.34 0 0 1 3.6 7.08h-9q0-2.88-4.26-2.88h-2.28q-4.26 0-4.26 2.88 0 2.7 3.9 3.24l4.86.66q11.62 1.49 11.62 10.38a8.94 8.94 0 0 1-3.48 7.53q-3.48 2.67-10.26 2.67Z" fill="#fff"/></svg>
