<svg xmlns="http://www.w3.org/2000/svg" viewBox="0 0 700 394"><path fill="#454447" d="M0 0h700v394H0z"/><path d="M382.22 182.07c-2.55 2-6 5.5-9.13 8a1.74 1.74 0 0 0 1 3.09c2 .1 3.91-.12 4.72 1.69s-2.19 4.52-3.9 6.14c-4.69 4.42-13.26 9.17-16.66 15.17-.8 1.41.13 2.23 1.23 1.85 4.41-1.51 29.32-10.91 34.12-12.6.66 1.59-14.47 7.94-19.15 10.23-6 2.83-10.43 4.9-14.73 7.37-2 1.19-1.65 2.68-2.65 8.86-.44 2.69-.56-1.6-1.54-2.69s-1.17-1.28-3.16 0a101.17 101.17 0 0 0-20.23 19.47c-4.23 4.86-14.05 7.09-19.57 1.44-1.44-1.46-4.27-6 1.89-3.63 7.61 1.16 13.79-.52 17.84-7.82a40.73 40.73 0 0 1 6.63-7.19c3.23-3.25 7-9.28 12.52-9.78 3.67-.32 2.69-4.24 4-6.51 3.05-5.31 7.88-7 12-10.49a18 18 0 0 0 3.35-2.67 3.82 3.82 0 0 0 1.2-2.71 1.09 1.09 0 0 0 0-.36l-.74-1.77a1.05 1.05 0 0 0-.2-.34 6.8 6.8 0 0 0-5.12-1.17 12 12 0 0 0-6 3.58c-10.78 10-21.7 17.66-30.11 28.28-13 16.5-34.4 11.29-49.19-4.44-1-1.08-1.61-3.37-.82-4.26a5.13 5.13 0 0 1 4.69-.84 39.17 39.17 0 0 1 7.61 4.76c12.83 9.81 19.71 8.52 30.11.64 9.11-6.91 20.49-16.51 29.48-24.1a1.81 1.81 0 0 0-1.06-3.2c-2.71-.12-5.68.52-6.4-2.71-.47-2 3.67-5.34 6.9-8.78 1.12-1.2.74-2.27-.9-2.37-5.54-.3-12.41.34-16.38.14a21.9 21.9 0 0 1-7-1.3 3.76 3.76 0 0 1-2.61-4 8.06 8.06 0 0 1 4.24-6.17c9-6 9.11-8.52 28.56-12.74 4.62-1 2.37-4.36-.12-5.06s-13-3.31-15.84-4c-12.46-2.69-19.1-3.49-31.41-6.75a26.32 26.32 0 0 1-10-4 4.33 4.33 0 0 1-1-6l.2-.25c2.83-3.42 5.08-4.22 8.66-6.49 15.61-9.93 32.65-9.87 50-5.63 7.55 1.83 15.06 4 22.7 5.12a19.85 19.85 0 0 0 7.83 0c4.13-1 2.37-6 1.75-6.63a63.75 63.75 0 0 0-9.16-5.48c-27.57-13.46-61.59-13.76-80.28-1.33-.6.27-3.51 1.53-4.22 1.11C325.38 89 357 96.63 387.44 110.83c.6.28 2.43 1 2.95.6.86-.7.6-1.8.7-3.13l-.54-3.92a50 50 0 0 1 4.92 3.92 66.89 66.89 0 0 1 .24 7.75c-.3 15.23 7.1 19.65 3.13 38-.44 2 5.9 7.22 7.26 9.25.59.86 2.17 6.28 1.17 6l-1.81-4.7c0-1.26-4.51-5.14-5.62-4.84l-2.15.22a2.62 2.62 0 0 1-1.16-.72c-1.14-1.25-2.67-3.16-3.33-1.41-2.19 5.73-.32 15.59-.68 21.08h-.59c-.6-11.52-1.54-15-1.26-29.15a92.23 92.23 0 0 1 .16-10.25c.92-7.67-3.61-11.93-9.13-12.7-21.44-3-42.15-4.26-63.53-.38a29.68 29.68 0 0 0-5.5 2.21c-.88.46.22 3.4 1.17 3.7 6.16 2 10.88 4 15.81 5.1 11.77 2.69 17.93 2.59 33.08 9.64a40.09 40.09 0 0 1 12.54 9.16c5.08 5.67 1.25 8.22-4.15 10.05-7.06 2.47-16.82.34-24.19 1.69-4.25.78-5.09 2-9.29 4-.48.25-2.87 2.9-2.77 3.44v2.57c.44 1.19 2 1 2.49 1l25.25-1.21c3.37-.16 4.11 0 3 2l-9.23 6a3.71 3.71 0 0 0-.79 5.19 3.56 3.56 0 0 0 1.09 1c4.74 2.76 8.83-2.71 12-4.54 4.7-2.73 8.93-4.34 13.39-6.53Z" fill="#ceb796"/><path d="M417.4 204a.14.14 0 0 1 0-.17.12.12 0 0 1 .17 0c3.8 2.15 10.3 6.91 13.79 8 9.22 2.94 17.93 3.58 25.19-3.43a264 264 0 0 0 21.36-23.25c5.88-7.23 7.22-14.06 0-19.85-14.83-11.93-34.76-27.14-49.74-38.89-4.79-3.78.34 3.48-6.32 4-6.14.44-7.19-.44-10.88-2.65-.42-.26-2.59-1.69-2.13-1.87l5.9-.5a4.31 4.31 0 0 0 1.39-.51l2.47-1.24a1.88 1.88 0 0 0 .82-2.54 1.79 1.79 0 0 0-.52-.64c-9.92-7.59-21-15.18-29.51-22.6-14.17-12.35-25.12-22.64-38.61-35.72-11.14-10.79-19-24.89-17.62-40.66.92-10.75 6.26-16.69 17.12-17.78 9.91-1 18.66 1.91 27.09 6.89 12.87 7.6 21.28 16.68 31.86 25.09 1.36 1.09 4 4.52 6.36 7.06a1 1 0 0 0 1.39 0 1 1 0 0 0 .27-.5c1.57-7.13-12.58-16.07-9.87-28.64a1.47 1.47 0 0 1 1.81-1.07h.08c9.25 2 9.25 22.1 14.35 47.81a.33.33 0 0 1-.61.15 107.68 107.68 0 0 0-16.61-23C396 26.27 380.27 14.22 365.88 9.12c-9-3.24-19.93-3.08-26.79 3.61-6.19 6-3.27 17.22-.18 24.25a51.53 51.53 0 0 0 11.82 17 877 877 0 0 0 73.36 58.84c30.26 22.1 59.07 45.54 84.9 72.89 12.3 13 27.64 23.14 41.63 34.55 2 1.69 5.27 2.73 6.88 5.26a49.72 49.72 0 0 1-7.71-3.45c-25.27-19.27-35.72-23.51-53.59-37.35-8.93-8.94-13.91-6.71-15 4.36-.66 6.73-5 7.07-8.89 9.66-7.25 4.87-11.06 9.17-19.83 15.41-9.6 6.83-10.72 14.75-10.36 24.11.4 10.85 2.15 8.54 2.15 20.35 0 1.35-3.33 17.2-6.36 17.74.72-10.38 0-13.12.16-18.08.48-12.84.34-15.29.54-22 .49-15.51-10.09-22.36-21.21-32.27Zm-79.9 79.42a1.24 1.24 0 0 0 1.76-.05l.11-.13c7.52-8 5.64-8.39 7.24-13.3.44-.62 1.17-1.36 1.67-1.2.76 8 .12 9.7-2.53 14.06-8.69 14.41-13.59 17.76-22.08 26.4-12.32 12.41-27.54 23.48-33.78 32.73-.36.34-4 6.22-5.88 6.46-9.75 1.31-7 3.24-6.64 12.36a5.79 5.79 0 0 1-3.82 5.64c-2.2.79-4.33 2-5.55.71a2.33 2.33 0 0 1 .32-2.55c5.86-6.85 4.57-10.51 4.95-16.78a1.45 1.45 0 0 0-1.28-1.55c-5.22-.44-8.17.19-12.59-.48-6.46-1-13.14-3.17-13.3-7.43-.5-11.93-6.77-11.81-7.37-14.79-.1-.5.26-.76.74-.58 7.17 2.87 10.46 2.39 10 0 0-.38-1.43-.62-1.43-.62-18.82-4.58-12.9-6.83-12.6-13.46 2.23 3 .8 6.75 3.53 8.25 1.37.77 3.25-.34 5.08.23 1.37.42 2.81 3.59 4.32 4 4.87 1.35 10.25-.18 14.79-1.6l.48 1.18c-3.51 1.79-6.7 4.36-10.14 6.27-5 2.79-5.4 6.77-.32 9.32a23 23 0 0 0 11.36 2c16.5-1.39 24-8 35.17-14.06 5.48-3.7 9.59-8 14.63-11.72 14.05-14.06 17.68-12.05 15.53-37.32a.41.41 0 0 1 .37-.44.39.39 0 0 1 .32.12c2.32 2.59 3.59 4.76 6.94 8.33Z" fill="#ceb796"/><path d="M470.45 288.85c-2.21-5.31-9.27-10.51-10.7-15.41-1.52-5.28 3.82-7.84 7.49-11.37a2.87 2.87 0 0 0 .07-4.06 2.8 2.8 0 0 0-1.07-.7c-2-.71-4.5-1.49-5.76-1.83-6-1.59-9.48-5.16-9.68-11.39a14.59 14.59 0 0 1 9.2-14.33c8-3.09 11.3-2.65 19.74-4.66 2.17-.52 7.39-1 10.88-1.48a2.26 2.26 0 0 0 1.92-2.54 2.38 2.38 0 0 0-.05-.26 3 3 0 0 0-3-2.23c-3.49.14-7.53 0-10.62.12-4.53.33-11.24 2.25-11.24-3.73s3.23-8.66 8.39-11.21a.35.35 0 0 1 .52.34c-2.2 14.8 8.43 9.72 12.25 9.16a16.36 16.36 0 0 1 3.83 0c1.2.14 1.81.12 3.09.24 5.46.46 6.34 1.11 8.17 5.46 1.61 6-3.15 11.11-11.82 12.8-5.38 1.07-10.94 1.17-16.42 1.77a21.46 21.46 0 0 0-5.14 1c-4.79 1.81-13.28 3.76-13.12 10.29 0 3.24 3.07 4.44 9.19 5.24 5 .67 16.34-.64 17.36 6.87s-6.14 7.72-11.18 9.91c-7.53 3.27-9.41 5-6.56 10.91 1.16 2.39 4 6.35 5.07 8.8a2.37 2.37 0 0 1-.81 2.29ZM360.8 258.67a.79.79 0 0 1 .61-.9c4.11-.64 6.42-.42 10-1 .42 0 3.57-.58 2.79-2.79l-2.33-3.35a13.59 13.59 0 0 1-1.3-3l-.62-2.17c-.91-2.71 0-3 1.68-2.59s7.41 2.79 8.85 7.6c3.15 10.4.28 19.18-10.9 16.73-1.1-.24-1 .62-.86.82 6.89 9.59 3.27 15.43-3 24.35-2.33 3.3-4.37 5.73-4 12.34.38 8.92 1.62 20.69-.1 29.63-1.37-13.38-3.25-28.69-4-42.19-.18-3.29 3.05-7.83 5.06-10.91 3.41-5.28 7.35-9.4-.48-16.07-1.8-1.6-1.2-3.75-1.4-6.5Zm-12.22 36.81c-.24 5.84-.5 3.35-1 9.22-.81 10.2-2.29 28.33-6 34.71-3.08 5.25 1.44 10.37 2.2 11.86 2 3.85.51 11.43-.1 16.37-.92 7.53-1.72 11.53-3.43 22.48a.52.52 0 0 1-1 0 233 233 0 0 1-1.81-44.56c1-15.55 5.7-29.61 7.53-38.63 1.22-6-.46-8.68.1-10.21a19.49 19.49 0 0 1 3.55-6Zm26.9-64.09c-6.17 5.24-9 5.06-14.56 11.25A62.6 62.6 0 0 1 344.87 257c-5.38 3.45-13.87 8.51-22 5.52a.14.14 0 1 1 0-.28c19.59-1.67 28.42-18.71 36.69-24.87 5.14-3.84 9.61-4.5 15.49-7 .87-.25 1.35.14.43 1.02Zm-173.86-10.25c-17.3 2-33.56 3.1-51.12-3.61-12.36-7.21-9.21-16.42 1.4-20.37a156.54 156.54 0 0 1 36.75-9.22c33.8-4.58 68.71 4.28 99 19.62 6.35 3.22 14.42.93 21.72 3.48-7.12.76-16.06 2-23.3 2-3.85 0-5.14-2.71-6-3.08-21.18-9.42-40.71-11.61-61.22-14.06-17.28-.64-24.87 0-43.85 2.79-2.89.45-10.4 3.16-13.37 7-1.23 1.58-.26 3.51 1.22 4.84 2.69 2.41 4.76 4 12.61 6a114.43 114.43 0 0 0 15.37 2.7 94.77 94.77 0 0 0 10.66 0Z" fill="#ceb796"/><path d="M279 191.75c-36.34-9.6-38.69-11.41-58.66-14.06-26.48-3.54-37.6-1.21-61.4 2.69-.64-1.69-.66-4.9.84-5.88a47.77 47.77 0 0 1 11.4-4.79c15.52-4 36.13-1.66 51.69 1.89 26.33 6 35.2 13.16 56.44 19.31Zm-41.57 106.66a1.84 1.84 0 0 0 1.3 2.27 1.82 1.82 0 0 0 .46.06h9.26c-16.8 2.95-14.86 5.06-13.67-11.27.66-9.22 2.67-14.18 7.14-19.41 5.66-6.61 2.63-11.75-6.46-12.55-2.23-.2-5.7.1-7.63-1-4.73-2.61-7.18-5.88-3.77-12.05s6.78-12.84 10.94-20.81a.15.15 0 0 1 .22 0 .17.17 0 0 1 .06.14l-7.11 24.49a2.41 2.41 0 0 0 1.74 2.93 2.23 2.23 0 0 0 .89.06 20.1 20.1 0 0 1 10.42 1c6.16 3.08 7.19 6 6.3 11.19-2.06 11.54-6.64 22.54-10.09 34.95Zm-50.18-142.88a170.2 170.2 0 0 1 68.24 11.67.27.27 0 0 1-.12.53c-18.75-1.17-37.15-4.3-56.78-3.36-4.22.2-8.23-3-12.3-4.94a2 2 0 0 1-1.07-2.31 2.18 2.18 0 0 1 2.03-1.59ZM268.6 266c-1 1.28 3.33 6.85 5.64 7s5.78-.53 7.24 0a.5.5 0 0 1 .24.67.53.53 0 0 1-.24.23c-4.39 3.2-16.23 3.13-21.63-.52a5.2 5.2 0 0 1-2-1.65c-1.18-1.53.7-2.21 1.54-2.21 1.59 0 .85-3.88.23-4.48-1.11-1-2.11-1.12-3.22-1.89-2.12-1.48-1.38-2.73-.56-4.22.66-1.18 5.1-2.15 8.85-.76a34.61 34.61 0 0 0 18.91 2.77c4.48-.4 12.85-2.57 17.46-3a.72.72 0 0 1 .48 1.31c-8.77 6-22.68 6-28.94 5.84-.07.01-3.24-.41-4 .91Zm-78.76 85.37c16.28-5.51 29.76-20.57 51.14-15.53a.46.46 0 0 1 0 .88l-50.74 16.36Zm110.71-198.65c2.11 1.63 1.59 3.92 0 3.88-15.45-.23-36.63-1.19-51.4-1.19 13.45-4 45.16 2.23 44.82-7.59" fill="#ceb796"/><path d="M228.13 296.24c1.87-10.81-11.32-16.27-2.95-27.38 1.17 10 6.23 15.07 5.34 23.16a10.15 10.15 0 0 1-2.39 4.22Zm198.53-118.49s8.89 1.17 11.56-1.12a7.35 7.35 0 0 1 4-2 11.79 11.79 0 0 1 5 1.58 14.63 14.63 0 0 0 7.14 2.43h4s1.56-.2 1 .79a27 27 0 0 1-13.3 7.25 36.27 36.27 0 0 1-6.59-.24 9.8 9.8 0 0 1-2.57-.84c-1.66-.93-4.69-2.78-.74-2.64 0 0 11.36 2 12.44.91 0 0 3.46-2.27-1.38-3a66.36 66.36 0 0 1-10.92 0 32.75 32.75 0 0 1-9.53-1.48s-2.94-1.66-.11-1.64Zm10.86-33.49s1.56 6.39-.91 10.57a12.13 12.13 0 0 0-2.37 6.47s-.26 2.37 1.51 0a21.25 21.25 0 0 1 2.59-5.57 11.55 11.55 0 0 0 1.38-8.94s-2.65-5.62-2.2-2.53Z" fill="#ceb796"/></svg>
