<svg xmlns="http://www.w3.org/2000/svg" viewBox="0 0 700 394"><defs><clipPath id="a"><path fill="none" d="M0 0h700v394H0z"/></clipPath></defs><path fill="#64493f" d="M0 0h700v394H0z"/><g clip-path="url(#a)"><path d="M382.12 38.23c-5.83.38-11.33 2.62-16.69 4.78-2.43 1-2.47-.33-4.35-1.81a57.24 57.24 0 0 0-9.71-5.84c2.27-4.09 13.6-23.92 5-25.47-2.2.1-5.36 2.71-7.28 3.74-7.75 4.12-15.82 8.53-21.06 15.82-2.12 3-7.67 3.66-11.11 4.93-23.13 8.71-44.85 20.71-67.26 31.06-6.27 3-12.43 6.21-18.54 9.51-5.59 3-10.55 7.31-16 10.71a96.24 96.24 0 0 1-12 6.51c-4 1.77-6.38 4.13-9.61 7.08q-9 8.2-18.69 15.49-5.68 4.26-11.67 8.26c-3.62 2.38-5.66 4.6-8.6 7.67a31.71 31.71 0 0 1-18.56 10c-4.47.68-8.59 1.19-12.83-.41-3.18-1.21-6.39-2.35-9.64-3.35a97.08 97.08 0 0 0-21.68-4.23 62.2 62.2 0 0 0-36 8c-3.07 1.62-6.09 4.19-9.52 4.24-4.44.08-7.71 2-11.36 4.27s-6.51 1.68-10.6 1.38c-11.49-1.17-20 4.27-27.51 12.51-.73.36-1.46.73-2.17 1.12-3.13 1.54-6.21 3.33-9.45 4.61l.64-.22c1.55-.52 3.07-1.14 4.59-1.74-.58.42-1.14.85-1.69 1.29l-.25.1c-.68.3-1.35.6-2 .91a77.67 77.67 0 0 0-14 5.76c.41-.19 2.27-1 2.77-1.19a53.15 53.15 0 0 1 6.63-2.1 43.85 43.85 0 0 0-7.7 5.84c-8 2.48-15.93 6.55-21.86 12.57.79-.72 2-1.69 2.92-2.37a44.26 44.26 0 0 1 15.61-6.83 131.82 131.82 0 0 0-11.69 8.37l1.2-.85a87 87 0 0 1 9.68-5.92c-.27.24-.55.48-.81.74a2.63 2.63 0 0 1 .06.39c-4.19 2.46-8.48 5.26-11.11 9.44-3.18 2.15-6.59 4.65-9.5 7.05a94.5 94.5 0 0 1 15.88-9.24l-1.09 1.05c-1.81.89-3.53 1.9-5.28 2.88-.56.18-2.1.59-2.41.67l1.92-.39c-1 .53-2 1.07-3.1 1.5l-1.14.47.31-.11c1-.33 2-.67 3-1s2.06-.82 3.09-1.24l.44-.22q.49-.12 1-.27a63.83 63.83 0 0 0-10.54 14.4c.08-.13.49-.8.76-1.26a55.73 55.73 0 0 1 14.2-14.69c1.19-.46 2.36-1 3.52-1.5a13.43 13.43 0 0 0 1.43 2.21c-2.35 1.27-4.74 2.47-7.06 3.84a20.48 20.48 0 0 0-5.85 4.7c-3.11 3.66-5.27 8-8.3 11.67 0-.05.29-.31.44-.49 4.43-5.06 8.26-10.77 14.14-14.29 2.34-1.58 4.72-3.29 7-4.94.21.25.43.49.65.73q-1.12 1.33-2.19 2.73l-.19.1a27.65 27.65 0 0 0-7.69 6.34c-1.61 1.9-3.16 4-4.84 5.78l.25-.24 2.41-2.39c3.31-3 6.31-6.63 9.85-9.34h.06a55.77 55.77 0 0 0-4.25 6.64 138.38 138.38 0 0 0-10.57 11.41 88.11 88.11 0 0 1 9.16-8.56 56.5 56.5 0 0 0-3.27 8.56c-.4 1.5-.83 3-1.12 4.53-.17.78-.3 1.35-.28 1.29s.23-.77.47-1.53c.35-1.26.84-2.48 1.29-3.7a50.18 50.18 0 0 1 7.68-12.87c1.82-1.36 3.67-2.7 5.52-4-4.37 5.59-10 10.83-12.73 17.44.08-.15.44-.9.73-1.38 3.77-6.46 9.89-11 15.06-16.28l.13.07a77.12 77.12 0 0 0-10.75 14.3l1.73-2.47a59.15 59.15 0 0 1 8.81-9.39c-1 1.23-2 2.44-3.06 3.61-.82.95-2 2.22-2.83 3.06.8-.75 2-1.82 2.81-2.65l1.24-1.22-1.08 1.47a15.4 15.4 0 0 0-1.58 1.66c-3 3.54-5.07 7.64-8 11.24l-.34.44c3.37-3.73 6.32-8 10.06-11.37a55.72 55.72 0 0 0-4.88 11.69c-.41 1.51-.84 3-1.13 4.53-.44 2.05-.3 1.31.19-.24.36-1.26.84-2.47 1.3-3.7s1.06-2.47 1.66-3.67c2.29-2.3 4.47-4.73 6.57-7.22a39.53 39.53 0 0 0-2.48 6.88c-.09.32-.2.78-.2.77.28-.91.74-2.21 1.12-3.15a39.32 39.32 0 0 1 8.42-12.23A56.86 56.86 0 0 0-20 213c-.4 1.51-.83 3-1.12 4.53-.17.78-.3 1.36-.28 1.29s.23-.77.47-1.53c.35-1.26.84-2.48 1.3-3.7a48.55 48.55 0 0 1 6.5-11.38 17 17 0 0 0-.87 2c-1.44 3.73-2 7.61-3.17 11.4-.22.72-.55 1.72-.77 2.37 2.63-6.4 4.31-13.36 8.82-18.79.39-.54.77-1.09 1.17-1.63l1.19-.46a59.51 59.51 0 0 0-8.12 16.62c0-.14.34-.87.54-1.36.41-1.12 1-2.19 1.43-3.28a52.94 52.94 0 0 1 10.24-14l.52-.32c-1 3.5-1.6 7.09-2.78 10.53l-.17.52c1.63-3.95 2.83-8.2 4.64-12.07l.49-.32c-.41 1.72-.82 3.44-1.3 5.14-.19.62-.37 1.24-.58 1.85-.07.22-.18.53-.17.52 1.12-2.67 2-5.53 3.05-8.22 8.86-6.56 16-18.2 26.87-20.21a107.13 107.13 0 0 0-5.13 16.68c-3.88 16.83-6.37 34-4.07 51.21 1.05 7.86 2.82 15.59 4.46 23.34-1.76 8.12-3.55 14.92-1.71 23.18 1 4.47 1.66 7.65.13 12A28.35 28.35 0 0 0 19.83 310c.28 4.28 1.33 7.89 1.17 12.29-.77 12.09-1.08 24.27-4.56 36-2 6.35-3.92 13.21-2.18 19.81a24.58 24.58 0 0 1-.47 12.82c-.93 3.27-3 6.14-3.56 9.41-.91 5.3-6.31 14.45-.34 18.1 4.52 2.76 10.77 3 15.85 2.06 5.76-1 8.73-3.2 8.78-9.29 0-3.69-.66-7.48-.08-11.15-2.18-2.59-2.82-6.2-3.42-9.43-.62-3.42-.36-6.48-.73-9.82 1.8-4.11 2.11-7.28 2.16-11.75.24-17.41.15-35.07 3.46-52.23 2.32-4.06 3.65-8.6 5-13 .09-4 .28-6.13 2.24-9.72 3.85-7 7.39-14.25 11.45-21.18 3.76-6.4 7.91-14.61 15.64-16.74 2.82-.77 6.79-4.85 8.86-3.09 2.58 2.19 5.79 3.49 8.9 4.72 2 .77 3.87 1.29 5.22 3s.92 2.08 2.85 3.11a10.76 10.76 0 0 1 5.55 7.05 56.62 56.62 0 0 1 1.49 21.53c-.44 3.61-2.54 7.39-2.37 11s2 6.6 2.93 10c2 7.2 8.08 13.4 12 19.71 6.79 10.89 11.53 23 16.8 34.61.53 2.73 4 2.79 2.73 5.95-2 4.94-3.06 11.9-9 13.59-4.7 1.35-5.89 12.59-5 16.7a19.79 19.79 0 0 0 10.8 13.65c2.23 1.1 6.87 1.43 7.22 3.82.45 3.13 1 6.25 1.15 9.41s0 6.89-2 9.56c-1.44 1.91-1.09 6.72-1.58 9.37-1.39 7.55 1.39 13.19 9.2 14.18 7.57 1 27.79 4.45 23.88-9.28-1.3-4.58-3.51-8.83-4.87-13.39-1-3.43-3.74-6.15-5.32-9.44-3.72-7.74-4.46-14.37-4-22.81.28-4.69-.53-9.18 0-13.81 1.38-11.22 2.83-22.75 7.75-33.05 3.67-7.52 7.49-16.74 7.49-25.28 0-8.22 4.24-15.41 7.67-22.73a157.68 157.68 0 0 0 9-23.47c1.39-4.86 2.81-15.89 8.48-17.88 13.52-3.17 22.2 4.82 30.82 13.9 2.5 2.64 8.91 3.39 12.38 4.74s7.17 3 10.67 4.67c12.43 6 24 13.53 36.27 19.95 2.47 1.3 1.61 2.36 1.19 4.93-1.24 7.63-4.33 14.78-6 22.31-2 9.07-4.36 18.07-5.92 27.25-2.05 3.7-3.32 6.25-7.08 8.32-2.84 1.56-7.23.32-10.16-.49-4.51-1.25-6.42-2.27-9.71 1.65-4.49 5.47-6.19 12.56-8 19.25 2.55 12.67 8.91 17.24 21.54 12.72 7.28-2.57 11.46-7.8 15.62-14.09 1.9-2.86 7.64-4 10.73-6.13 3.57-2.51 4.36-5.86 5.67-10s.63-8.54 1-12.68a103 103 0 0 1 1.91-11.27c2.7-11.92 5.24-24 9.57-35.5 1.71-4.21 1.42-7.66 1.73-12.17.25-3.52.43-4.13-2-6.84a98.22 98.22 0 0 0-12.81-11.56 31.54 31.54 0 0 1-7.99-8.87c-2-3.13-3.61-8.09-6.59-10.18-3.2-2.26-6.42-4.7-7.82-8.52.3-22.67 4.46-45.29 3.73-68-.33-10.25-5-19.88-10.24-28.52.39-6.19 0-12.42.59-18.6.46-4.94 1.26-6.26 5.64-8.56 3.29-1.72 6.41-2.79 8.89-5.62 4.38-5 8.11-10.78 13.65-14.65 2.36-1.65 6.23-4.45 8.8-2.54a36 36 0 0 1 7 7.43c7.3 9.72 15.22 19 21.44 29.5.25 3.69.51 7.66 2.15 11.05 2.69 5.51 11.31 10.39 17.1 11.46a2.48 2.48 0 0 0 2.88-1.12c1.12-1.36 1.32.58 2.87.66 3.1.18 6.61-3.13 8.87-5a56.57 56.57 0 0 0 13.71-17.67c3.48-6.7-.75-13.35-1.78-20.27-1.38-9.22-2.54-18.49-3.78-27.73-1.07-8-1.85-16.35.58-24.17 1.28-4.13-.84-9.4-2.17-13.46-.58-1.78-1.23-3.54-1.92-5.28.36-1.43 1.17-2.66 1.65-4 .8-2.25-.32-2.87 1.91-4.21 4.34-2.41 7.19-6.35 10.34-10a10.56 10.56 0 0 0 3-5.1c.41-2.66-1.95-1.79-3.88-1.67Zm-228.5 244.28c-.69 15.67-2.23 31.3-2.78 47-.74 1.52-6.91 18.85-5.47 18.86-.72 0-2.81-3.28-3.21-3.76-2.29-2.69-4.38-5.61-6.72-8.29-3.75-7.8-7.93-15.4-11.26-23.4.56-6.9-2.1-13.9-.5-20.84 1.28-5.57 6.31-12.61 6.13-18.26 7.38 1 14.48 3.48 21.94 4 3.25.26 2 1.83 1.87 4.69Z" fill="#543e35"/></g><path d="M188.32 211.19a5.64 5.64 0 0 1-3.84 1.49 3.66 3.66 0 0 1-2.61-.93 3.26 3.26 0 0 1-1-2.52l-.05-31.23-11.46 28.38a11.11 11.11 0 0 1-3.66.71 7.35 7.35 0 0 1-2.52-.47A298.33 298.33 0 0 1 150.64 178l.06 26.18a24.35 24.35 0 0 0 1 7.66 3.6 3.6 0 0 1-2.46.84c-1.52 0-2.28-.92-2.28-2.74V178.3a47.42 47.42 0 0 0-.42-7.48c.68-.6 2.2-.89 4.56-.89a5.85 5.85 0 0 1 2 .29 4.17 4.17 0 0 1 1.47.95q7.26 17.16 12.66 29.75 4.62-11.46 11.82-30.34a11.69 11.69 0 0 1 4.14-.65 7.45 7.45 0 0 1 2.73.47c.82.32 1.29.69 1.41 1.13v32.59a19.93 19.93 0 0 0 .99 7.07Zm37.43-2.37a3.19 3.19 0 0 1-1.38 2.61 5.63 5.63 0 0 1-3.54 1.07 5.23 5.23 0 0 1-4.44-2q-1.5-2-1.56-6.44a15.91 15.91 0 0 1-4.91 6.17 11.74 11.74 0 0 1-7.14 2.32 8.21 8.21 0 0 1-5.61-1.87 6.42 6.42 0 0 1-2.13-5.08 7.76 7.76 0 0 1 2.88-6.18 19.23 19.23 0 0 1 7.38-3.68 31.17 31.17 0 0 1 9.17-1.12v-1.49c0-3.44-.48-6-1.44-7.6a5.13 5.13 0 0 0-4.8-2.43 5.85 5.85 0 0 0-3.68 1.07 4.08 4.08 0 0 0-1.41 3.5 6.08 6.08 0 0 0 .54 2.55 3.57 3.57 0 0 0 1.79 1.78 3.47 3.47 0 0 1-1.58 1 6.5 6.5 0 0 1-2.07.33 5.08 5.08 0 0 1-3.87-1.57 5.41 5.41 0 0 1-1.47-3.83 5.9 5.9 0 0 1 3.24-5.38c2.16-1.24 5.13-1.87 8.93-1.87q6.48 0 9.51 3.06t3 9.77v10.92q0 3.15 2 3.15a2.32 2.32 0 0 0 1-.24 1.86 1.86 0 0 0 .81-.71 3.52 3.52 0 0 1 .78 2.19Zm-15.93-2.17a12.51 12.51 0 0 0 3.45-4.19 11.76 11.76 0 0 0 1.38-5.58 20.43 20.43 0 0 0-4.26.21 13.72 13.72 0 0 0-3.71 1 7.83 7.83 0 0 0-3.27 2.4 5.63 5.63 0 0 0-1.17 3.54 4.87 4.87 0 0 0 .87 3 3.06 3.06 0 0 0 2.67 1.19 6.71 6.71 0 0 0 4.04-1.57Zm48.18 4.54a5.42 5.42 0 0 1-3.78 1.49 4.08 4.08 0 0 1-2.76-.93 3.13 3.13 0 0 1-1.08-2.52v-15.5a18.48 18.48 0 0 0-1.17-7.27 4.08 4.08 0 0 0-4.05-2.34 5.31 5.31 0 0 0-3.63 1.48 10.41 10.41 0 0 0-2.67 4.54 24.41 24.41 0 0 0-1 7.63q0 7 .18 9.26a14.45 14.45 0 0 0 1 4.22 6.2 6.2 0 0 1-1.59 1 5.09 5.09 0 0 1-2.13.45 4 4 0 0 1-2.82-1 3.58 3.58 0 0 1-1.08-2.74v-20.27a6.2 6.2 0 0 0-.42-2.38 1.25 1.25 0 0 0-1.2-.71 1.59 1.59 0 0 0-1.56.83 3.93 3.93 0 0 1-.78-2.25 3.18 3.18 0 0 1 1.14-2.53 4.74 4.74 0 0 1 3.18-1 4.85 4.85 0 0 1 4 1.75 8.16 8.16 0 0 1 1.41 5.2v.3a10.07 10.07 0 0 1 10.14-7.25q4.92 0 7.29 3t2.37 9.08v11.34a20.21 20.21 0 0 0 1.01 7.12Zm31.59-6a4.68 4.68 0 0 1-.42 1.73 8.2 8.2 0 0 1-4.05 4.27 15.22 15.22 0 0 1-7 1.49q-6.84 0-10.77-4.16t-3.93-11.82q0-7.53 3.84-11.78t11-4.25a14.32 14.32 0 0 1 8.46 2.29 7.48 7.48 0 0 1 3.24 6.5 7.58 7.58 0 0 1-3.57 6.74q-3.57 2.34-9.69 2.34a56.74 56.74 0 0 1-6.18-.29q.42 5.52 2.82 7.89a8.87 8.87 0 0 0 6.54 2.38 11.11 11.11 0 0 0 5.55-1.31 7.09 7.09 0 0 0 3.21-3.5 1.49 1.49 0 0 1 .95 1.48Zm-17.13-18.79q-2 3.3-2 9.35a27.72 27.72 0 0 0 3.18.18 12.44 12.44 0 0 0 6.66-1.6q2.58-1.61 2.58-5.88c0-1.94-.46-3.31-1.38-4.13a5.07 5.07 0 0 0-3.48-1.21 6.2 6.2 0 0 0-5.56 3.29Zm25.41 37.32a5.63 5.63 0 0 1-3.06-5.23 4.53 4.53 0 0 1 1.32-3.41 4.7 4.7 0 0 1 3.42-1.28 3.71 3.71 0 0 1 3.06 1.13 4.63 4.63 0 0 0-1.74 3.86 4.18 4.18 0 0 0 1.32 3.27 5.27 5.27 0 0 0 3.66 1.18 7.25 7.25 0 0 0 6.57-3.5q2.18-3.51 2.18-9.91v-4.28a9 9 0 0 1-3.45 4.75 10.3 10.3 0 0 1-6 1.66 9.36 9.36 0 0 1-7.83-3.56q-2.79-3.57-2.79-11.22 0-7.31 3.3-11.91t10.91-4.6a23.46 23.46 0 0 1 6.93 1 14 14 0 0 1 5.37 2.91v24.64q0 16.22-15.41 16.21a15.72 15.72 0 0 1-7.76-1.71Zm14.78-18.2a17.26 17.26 0 0 0 1.89-8.34l.06-12.35a6 6 0 0 0-2.39-1.28 11.13 11.13 0 0 0-3.19-.44 5.84 5.84 0 0 0-5.9 3.83q-1.59 3.83-1.59 10.83 0 6 1.29 8.49a4.43 4.43 0 0 0 4.28 2.5 6 6 0 0 0 5.55-3.24Zm40.59-.33a4.68 4.68 0 0 1-.42 1.73 8.2 8.2 0 0 1-4.05 4.27 15.22 15.22 0 0 1-7 1.49q-6.84 0-10.77-4.16t-3.93-11.82q0-7.53 3.84-11.78t11-4.25a14.32 14.32 0 0 1 8.46 2.29 7.48 7.48 0 0 1 3.24 6.5 7.58 7.58 0 0 1-3.61 6.74q-3.57 2.34-9.69 2.34a56.74 56.74 0 0 1-6.18-.29q.42 5.52 2.82 7.89a8.87 8.87 0 0 0 6.54 2.38 11.11 11.11 0 0 0 5.55-1.31 7.09 7.09 0 0 0 3.21-3.5 1.49 1.49 0 0 1 .99 1.48Zm-17.13-18.79q-2 3.3-2 9.35a27.72 27.72 0 0 0 3.18.18 12.44 12.44 0 0 0 6.66-1.6q2.58-1.61 2.58-5.88c0-1.94-.46-3.31-1.38-4.13a5.07 5.07 0 0 0-3.48-1.21 6.2 6.2 0 0 0-5.56 3.29Zm37.11 25.38a22.69 22.69 0 0 0 1-7.66l-.06-25.59a67.4 67.4 0 0 0-.36-7.71 2.81 2.81 0 0 1 1.23-.6 6.63 6.63 0 0 1 1.77-.24 2.71 2.71 0 0 1 1.74.36q3.42 4.75 7.14 9.8 6.84 9.38 10.47 14.54a78.09 78.09 0 0 1 5.37 8.55l-1.62-27.78a7.27 7.27 0 0 1 .6-3.65 2.9 2.9 0 0 1 2.22-1.7 4.61 4.61 0 0 1 2.82.54 14.19 14.19 0 0 0-.36 2.94c0 1.16-.06 2.2-.06 3.11v27.61c0 1.51 0 2.89.06 4.16s.12 2.37.24 3.32a2.34 2.34 0 0 1-1.17.6 6.63 6.63 0 0 1-1.77.24 3.5 3.5 0 0 1-1.56-.3 213.07 213.07 0 0 1-13.68-17.52q-5.76-8.31-9.24-14.48l1.38 28.5a3.47 3.47 0 0 1-.93 2.76 3.28 3.28 0 0 1-2.43 1.1 4.92 4.92 0 0 1-2.8-.9Zm42.32-35.92a3.65 3.65 0 0 1-1.17-2.73 3.81 3.81 0 0 1 1.17-2.82 3.91 3.91 0 0 1 2.85-1.16 4 4 0 0 1 4 4 3.65 3.65 0 0 1-1.17 2.73 3.89 3.89 0 0 1-2.79 1.13 4 4 0 0 1-2.89-1.15Zm7.35 35.33a5.57 5.57 0 0 1-3.78 1.49 3.77 3.77 0 0 1-2.64-.93 3.21 3.21 0 0 1-1-2.52l-.06-20.07a22.22 22.22 0 0 0-1-7.12 5.87 5.87 0 0 1 3.66-1.43 3.92 3.92 0 0 1 2.67.92 3.2 3.2 0 0 1 1.05 2.53l.12 20.06a20.14 20.14 0 0 0 .98 7.07Zm-.33 12.94a4.23 4.23 0 0 1-1.83-3.56 3.56 3.56 0 0 1 .93-2.46 3.3 3.3 0 0 1 2.61-1 2.54 2.54 0 0 1 1.35.32 3.09 3.09 0 0 1 .93 1 4.55 4.55 0 0 0-.78 2.38 2.29 2.29 0 0 0 .69 1.87 2.59 2.59 0 0 0 1.71.56q2.1 0 2.73-2.64a36.09 36.09 0 0 0 .63-7.81l.06-23.57a20.7 20.7 0 0 0-1-7.12 5.94 5.94 0 0 1 3.72-1.43 3.92 3.92 0 0 1 2.67.92 3.2 3.2 0 0 1 1.05 2.53v29.8a13.73 13.73 0 0 1-2.37 8.34q-2.37 3.24-7.71 3.24a8.9 8.9 0 0 1-5.39-1.37Zm9.18-48.95a3.84 3.84 0 0 1 0-5.4 3.94 3.94 0 0 1 5.46 0 3.84 3.84 0 0 1 0 5.4 3.94 3.94 0 0 1-5.46 0Zm41.49 36.01a5.35 5.35 0 0 1-3.72 1.49 3.93 3.93 0 0 1-2.73-1 3.23 3.23 0 0 1-1-2.5v-15.5q0-5-1.17-7.45a4.19 4.19 0 0 0-4.11-2.4 5.19 5.19 0 0 0-3.57 1.51 10.72 10.72 0 0 0-2.67 4.63 25.23 25.23 0 0 0-1 7.75q0 7 .15 9.26a13.81 13.81 0 0 0 .93 4.22 5.26 5.26 0 0 1-1.5 1 5.18 5.18 0 0 1-2.22.45 3.79 3.79 0 0 1-2.73-1 3.64 3.64 0 0 1-1.05-2.74l-.06-37.05a3.18 3.18 0 0 1 1-2.52 4 4 0 0 1 2.67-.86 5.65 5.65 0 0 1 2.25.45 6.81 6.81 0 0 1 1.71 1 23.39 23.39 0 0 0-.9 4.86q-.24 2.73-.3 7.07v5.22a10.32 10.32 0 0 1 3.69-4.75 10.06 10.06 0 0 1 5.79-1.66q4.92 0 7.26 3t2.34 9.08l.06 11.34a20.14 20.14 0 0 0 .88 7.1Zm36.47-2.08a3.21 3.21 0 0 1-1.11 2.56 4.72 4.72 0 0 1-3.15 1 4.9 4.9 0 0 1-4-1.73 7.94 7.94 0 0 1-1.41-5.16v-.12a11 11 0 0 1-3.75 5.28 10 10 0 0 1-6.15 1.84q-4.92 0-7.17-2.79c-1.5-1.86-2.25-5-2.25-9.38l-.06-11.34a20.92 20.92 0 0 0-1-7.12 5.7 5.7 0 0 1 3.78-1.43 4 4 0 0 1 2.73.92 3.2 3.2 0 0 1 1 2.53v15.49c0 3.56.36 6.11 1.08 7.63a3.93 3.93 0 0 0 3.9 2.29 5.09 5.09 0 0 0 3.54-1.52 10.63 10.63 0 0 0 2.61-4.66 26.18 26.18 0 0 0 1-7.77c0-4.68-.06-7.77-.18-9.3a14.76 14.76 0 0 0-1-4.24 6 6 0 0 1 3.78-1.37 3.83 3.83 0 0 1 2.7 1 3.6 3.6 0 0 1 1.08 2.73l.05 20.25a5 5 0 0 0 .39 2.34 1.31 1.31 0 0 0 1.23.69 1.7 1.7 0 0 0 1.56-.77 3.68 3.68 0 0 1 .8 2.15Zm6.21-33.25a3.65 3.65 0 0 1-1.17-2.73 3.81 3.81 0 0 1 1.17-2.82 3.91 3.91 0 0 1 2.85-1.16 4 4 0 0 1 4 4 3.65 3.65 0 0 1-1.17 2.73 3.89 3.89 0 0 1-2.79 1.13 4 4 0 0 1-2.89-1.15Zm7.35 35.33a5.57 5.57 0 0 1-3.78 1.49 3.77 3.77 0 0 1-2.64-.93 3.21 3.21 0 0 1-1-2.52l-.06-20.07a22.22 22.22 0 0 0-1-7.12 5.87 5.87 0 0 1 3.66-1.43 3.92 3.92 0 0 1 2.67.92 3.2 3.2 0 0 1 1 2.53l.12 20.06a20.14 20.14 0 0 0 1.03 7.07Zm8.46-.41a5.85 5.85 0 0 1-2.88-5.11 4.14 4.14 0 0 1 .93-2.73 3.56 3.56 0 0 1 2.91-1.13 9.74 9.74 0 0 1 1.2.12 5.33 5.33 0 0 0-.18 1.3 7.39 7.39 0 0 0 .18 1.55 5.72 5.72 0 0 0 2.13 3.86 7.73 7.73 0 0 0 5 1.48 8.75 8.75 0 0 0 4.56-1 3.35 3.35 0 0 0 1.74-3.06 3.8 3.8 0 0 0-.81-2.4 7.09 7.09 0 0 0-2-1.75c-.8-.48-1.94-1.07-3.42-1.78q-.48-.18-1.44-.66a48.67 48.67 0 0 1-5.13-2.64 10.76 10.76 0 0 1-3.24-3.11 8.28 8.28 0 0 1-1.35-4.81 6.86 6.86 0 0 1 3.24-6.21 15.18 15.18 0 0 1 8.22-2 17 17 0 0 1 7.86 1.52 4.73 4.73 0 0 1 2.88 4.36 3.43 3.43 0 0 1-.75 2.23 3 3 0 0 1-2.37 1 4.11 4.11 0 0 1-.78.06 9.87 9.87 0 0 1-1.14-.12 7.08 7.08 0 0 0 .06-1.07 4.19 4.19 0 0 0-.36-2A3.9 3.9 0 0 0 545 184a7 7 0 0 0-3.81-.92 7.28 7.28 0 0 0-3.75.89 2.94 2.94 0 0 0-1.53 2.73 4.3 4.3 0 0 0 1 2.85 9.09 9.09 0 0 0 2.43 2q1.44.83 4.08 2.08 3.66 1.71 5.46 2.76a11.59 11.59 0 0 1 3.24 2.82 6.65 6.65 0 0 1 1.44 4.33 8.06 8.06 0 0 1-3.21 6.44q-3.21 2.64-10 2.65c-3.87.05-6.71-.63-8.63-1.85Z" fill="#fff"/></svg>
