<svg xmlns="http://www.w3.org/2000/svg" viewBox="0 0 700 394"><path fill="#4f5b93" d="M0 0h700v394H0z"/><path d="M321 232.06h60.65q26.71.23 38.7 15.35t7.93 41.32a79.32 79.32 0 0 1-7 23.48A69.8 69.8 0 0 1 406.81 333q-11.32 11.75-24.22 14.9a111.73 111.73 0 0 1-26.71 3.1h-27.16l-8.6 42.9h-31.46L321 232.06m26.48 25.74-13.58 67.73a16.52 16.52 0 0 0 2.71.23h3.17q21.74.23 36.21-4.29 14.49-4.74 19.47-33 4.06-23.7-8.15-27.31-12-3.62-30.1-3.39c-1.81.15-3.55.22-5.21.22h-4.75l.23-.22M464.77 189H496l-8.82 43.12h28.06q23.09.45 34.4 9.48 11.55 9 6.79 34.32l-15.16 75.18h-31.69l14.49-71.79q2.26-11.29-1.36-16t-15.62-4.74l-25.09-.31-18.56 92.79h-31.26L464.77 189M590 232.06h60.65q26.72.23 38.7 15.35t7.93 41.32a79.32 79.32 0 0 1-7 23.48A69.8 69.8 0 0 1 675.81 333q-11.32 11.75-24.22 14.9a111.73 111.73 0 0 1-26.71 3.1h-27.16l-8.6 42.9h-31.46L590 232.06m26.48 25.74-13.58 67.73a16.52 16.52 0 0 0 2.71.23h3.17q21.74.23 36.21-4.29 14.49-4.74 19.47-33 4.07-23.7-8.15-27.31-12-3.62-30.1-3.39c-1.81.15-3.55.22-5.21.22h-4.75l.23-.22" fill="#5d699e"/><path d="M263.45 218.6v-43.8h14.1a18.76 18.76 0 0 1 8.1 1.62A12.36 12.36 0 0 1 291 181a13 13 0 0 1 1.89 7.08 14.23 14.23 0 0 1-2.07 7.62 11.93 11.93 0 0 1-5.61 4.86l8.28 18h-9.78L276.59 202h-4.2v16.6Zm8.94-24.36h5.16a6.67 6.67 0 0 0 4.65-1.5 5.39 5.39 0 0 0 1.65-4.2 5.74 5.74 0 0 0-1.65-4.38 6.5 6.5 0 0 0-4.65-1.56h-5.16Zm36.9 24.96a11.14 11.14 0 0 1-7.89-2.7 9.5 9.5 0 0 1-2.91-7.32 9 9 0 0 1 3.6-7.71q3.6-2.67 10.32-2.67h6.3v-2.4a3.66 3.66 0 0 0-1.38-3.06 6.09 6.09 0 0 0-3.84-1.08 6.67 6.67 0 0 0-3.81 1 3 3 0 0 0-1.41 2.58h-8.4a9.75 9.75 0 0 1 3.9-7.89q3.78-2.91 10.08-2.91T324 188a10.2 10.2 0 0 1 3.72 8.37v22.2H319v-5.1h-.18a7.33 7.33 0 0 1-3.3 4.2 11.82 11.82 0 0 1-6.23 1.53Zm3.36-6.54a6.71 6.71 0 0 0 4.35-1.38 4.47 4.47 0 0 0 1.71-3.66v-3.48h-6.12a5.74 5.74 0 0 0-3.75 1.11 3.78 3.78 0 0 0-1.35 3.09 3.9 3.9 0 0 0 1.38 3.18 5.76 5.76 0 0 0 3.78 1.14Zm20.46 5.94 11.4-17.1-10.62-15.9h10l4.08 6.6a14.11 14.11 0 0 1 .9 1.74q.42 1 .66 1.56.24-.6.69-1.56t.87-1.74l4.08-6.6h10l-10.56 15.9L366 218.6h-10l-4.8-7.8q-.48-.84-.93-1.77t-.69-1.53q-.24.6-.66 1.53t-.9 1.77l-4.86 7.8Zm52.44.6a16.59 16.59 0 0 1-7.62-1.65 12.05 12.05 0 0 1-5-4.62 13.28 13.28 0 0 1-1.77-6.93v-7.8a13.28 13.28 0 0 1 1.77-6.93 12.05 12.05 0 0 1 5-4.62 18.49 18.49 0 0 1 15.27 0 12.09 12.09 0 0 1 5 4.62 13.28 13.28 0 0 1 1.8 6.93v7.8a13.28 13.28 0 0 1-1.77 6.93 12.09 12.09 0 0 1-5 4.62 16.54 16.54 0 0 1-7.68 1.65Zm0-7.8a5.38 5.38 0 0 0 4-1.41 5.47 5.47 0 0 0 1.38-4v-7.8a5.68 5.68 0 0 0-9.39-4 5.38 5.38 0 0 0-1.41 4V206a4.91 4.91 0 0 0 5.4 5.4Zm34.62 7.8a18.27 18.27 0 0 1-7.14-1.29 11.26 11.26 0 0 1-4.77-3.57 8.65 8.65 0 0 1-1.71-5.34h9q0 3.36 4.62 3.36h2.64q5 0 5-3.24 0-2.94-4.68-3.6l-4.74-.6q-10.92-1.38-10.92-10.2a8.49 8.49 0 0 1 3.3-7.26q3.3-2.46 9.66-2.46h2.28q6.06 0 9.66 2.64a8.34 8.34 0 0 1 3.6 7.08h-9q0-2.88-4.26-2.88h-2.28q-4.26 0-4.26 2.88 0 2.7 3.9 3.24l4.86.66q11.58 1.44 11.58 10.38a8.94 8.94 0 0 1-3.48 7.53q-3.48 2.67-10.26 2.67Z" fill="#fff"/></svg>
