<svg xmlns="http://www.w3.org/2000/svg" viewBox="0 0 700 394"><defs><clipPath id="a"><path fill="none" d="M0 0h700v394H0z"/></clipPath></defs><path fill="#0073aa" d="M0 0h700v394H0z"/><g clip-path="url(#a)"><path d="M133 53C26.58 53-60 139.58-60 246s86.58 193 193 193 193-86.59 193-193S239.42 53 133 53ZM-40.52 246a173 173 0 0 1 15-70.62l82.8 226.78A173.53 173.53 0 0 1-40.52 246ZM133 419.53a173.56 173.56 0 0 1-49-7.07l52.07-151.29 53.31 146.13a15.83 15.83 0 0 0 1.24 2.39 173.09 173.09 0 0 1-57.62 9.84Zm23.91-254.89c10.45-.55 19.86-1.65 19.86-1.65 9.35-1.11 8.25-14.85-1.1-14.3 0 0-28.11 2.2-46.25 2.2-17 0-45.7-2.2-45.7-2.2-9.36-.55-10.46 13.75-1.11 14.3 0 0 8.86 1.1 18.2 1.65l27 74.07-38 113.89-63.19-188c10.46-.55 19.86-1.65 19.86-1.65 9.35-1.11 8.24-14.85-1.11-14.3 0 0-28.1 2.2-46.25 2.2-3.25 0-7.09-.08-11.16-.21A173.47 173.47 0 0 1 250.17 118c-.74 0-1.47-.14-2.24-.14-17.05 0-29.14 14.85-29.14 30.8 0 14.3 8.25 26.4 17 40.7 6.6 11.55 14.31 26.4 14.31 47.85 0 14.85-5.71 32.09-13.2 56.1l-17.32 57.82Zm128.36-1.89a173.56 173.56 0 0 1-65 233.23l53-153.24c9.89-24.75 13.19-44.55 13.19-62.15a134 134 0 0 0-1.19-17.84Z" fill="#006799"/></g><path d="M183.2 215.39v-35.7h-11.1v-8.1h31.2v8.1h-11.1v35.7Zm31.92 10.8 4.5-12.42-12.78-31.38h9.78l5.4 14.4a33.33 33.33 0 0 1 1.14 3.93q.54 2.31.84 3.75.3-1.44.84-3.75a33.33 33.33 0 0 1 1.14-3.93l5.22-14.4h9.36l-16 43.8Zm30.54 0v-43.8h8.7v5.7h.18a9.54 9.54 0 0 1 3.36-4.65 9.16 9.16 0 0 1 5.52-1.65 9.6 9.6 0 0 1 7.74 3.51q2.94 3.51 2.94 9.39v8.4q0 5.88-2.94 9.39a9.6 9.6 0 0 1-7.74 3.51 9.16 9.16 0 0 1-5.52-1.65 9.54 9.54 0 0 1-3.36-4.65h-.18l.3 7.5v9Zm14.28-18a5 5 0 0 0 3.81-1.41 5.54 5.54 0 0 0 1.35-4V195a5.52 5.52 0 0 0-1.35-4 6 6 0 0 0-7.74.09 6 6 0 0 0-1.35 4.23v7.2a6 6 0 0 0 1.35 4.23 5.07 5.07 0 0 0 3.93 1.44Zm35.82 7.81a16.78 16.78 0 0 1-7.65-1.65 12 12 0 0 1-5-4.62 13.28 13.28 0 0 1-1.77-6.93V195a13.28 13.28 0 0 1 1.77-6.93 12 12 0 0 1 5-4.62 16.78 16.78 0 0 1 7.65-1.65 16.4 16.4 0 0 1 7.59 1.65 12.09 12.09 0 0 1 5 4.62 13.28 13.28 0 0 1 1.75 6.93v6h-20.22v1.8q0 6.3 6 6.3 4.26 0 5.1-2.7h8.82a11.71 11.71 0 0 1-4.89 7 15.66 15.66 0 0 1-9.15 2.6Zm-5.88-21v.9l11.64-.12v-.9q0-6.3-5.76-6.3a5.55 5.55 0 0 0-4.41 1.68 7 7 0 0 0-1.47 4.74Zm28.5 20.39-4.08-43.8h7.38l2.22 29.28q.06.84.12 2.37t.15 3.18q.09 1.65.09 3l.27-3q.15-1.65.33-3.18t.24-2.37l3.24-29.28h6.84l3.12 29.28q.12.84.27 2.37t.36 3.18q.21 1.65.33 3 .06-1.32.12-3t.12-3.18q.06-1.53.12-2.37l2-29.28h7.44l-4.38 43.8h-9.36l-2.94-29.1q-.12-1-.24-2.67t-.24-3.45q-.12-1.8-.24-3.18-.06 1.38-.18 3.18t-.24 3.45q-.12 1.65-.24 2.67l-3.24 29.1Zm36.24 0v-33h8.7v6.3h.18a8.13 8.13 0 0 1 3.09-5.07 9.94 9.94 0 0 1 6.15-1.83 10.38 10.38 0 0 1 8.1 3.39q3.06 3.39 3.06 9.21v3h-9.6V195a5.54 5.54 0 0 0-1.35-4 5.19 5.19 0 0 0-3.93-1.41q-5.4 0-5.4 6.12v19.68Zm35.28 0v-8.1h10.92v-16.8h-9.72v-8.1h18.72v24.9h9.48v8.1Zm15-38.22a5.83 5.83 0 0 1-3.93-1.26 4.71 4.71 0 0 1 0-6.84 6.76 6.76 0 0 1 7.86 0 4.71 4.71 0 0 1 0 6.84 5.83 5.83 0 0 1-3.93 1.26Zm38.4 38.22a10 10 0 0 1-10.8-10.8v-14.1h-8.7v-8.1h8.7v-9.3h9v9.3h12.3v8.1h-12.3v13.8a3.29 3.29 0 0 0 .69 2.16 2.45 2.45 0 0 0 2 .84h9v8.1Zm32.46.61a16.78 16.78 0 0 1-7.65-1.65 12 12 0 0 1-5-4.62 13.28 13.28 0 0 1-1.77-6.93V195a13.28 13.28 0 0 1 1.77-6.93 12 12 0 0 1 5-4.62 16.78 16.78 0 0 1 7.65-1.65 16.4 16.4 0 0 1 7.59 1.65 12.09 12.09 0 0 1 5 4.62 13.28 13.28 0 0 1 1.75 6.93v6h-20.22v1.8q0 6.3 6 6.3 4.26 0 5.1-2.7h8.82a11.71 11.71 0 0 1-4.89 7 15.66 15.66 0 0 1-9.15 2.6Zm-5.88-21v.9l11.64-.12v-.9q0-6.3-5.76-6.3a5.55 5.55 0 0 0-4.41 1.68 7 7 0 0 0-1.47 4.74Zm28.74 20.39v-33h8.7v6.3h.18a8.13 8.13 0 0 1 3.09-5.07 9.94 9.94 0 0 1 6.15-1.83 10.38 10.38 0 0 1 8.1 3.39q3.06 3.39 3.06 9.21v3h-9.6V195a5.54 5.54 0 0 0-1.35-4 5.19 5.19 0 0 0-3.93-1.41q-5.4 0-5.4 6.12v19.68Z" fill="#fff"/></svg>
