<svg xmlns="http://www.w3.org/2000/svg" viewBox="0 0 700 394"><defs><clipPath id="a"><path fill="none" d="M0 0h700v394H0z"/></clipPath></defs><path d="M0 0h700v394H0z"/><g clip-path="url(#a)" fill="#0f0f0f"><path d="M40.06 300.23c0-2.85-.31-5.76.16-8.54.19-1.1 2-2.42 3.28-2.66.78-.15 2.71 1.55 2.75 2.48.26 6.1.31 12.22 0 18.32 0 1-2.18 2.73-3.27 2.67s-2.7-1.88-2.88-3.1a66.68 66.68 0 0 1-.13-9.17Zm96.75-156.52c0 2.87.3 5.8-.14 8.6-.18 1.18-1.95 2.92-3 2.92s-3.14-1.71-3.2-2.76a168.7 168.7 0 0 1 0-17.85c.06-1.15 2-2.2 3.07-3.3 1.11 1.25 2.93 2.38 3.18 3.78.51 2.79.15 5.73.15 8.61ZM278.52 41.76c0 3.07.29 6.18-.16 9.18-.16 1.12-2.08 2-3.2 3-.85-1-2.4-2-2.44-3-.24-6.13-.28-12.28 0-18.4 0-1 2-2.35 3.26-2.66.61-.15 2.37 1.68 2.49 2.73a82.94 82.94 0 0 1 .12 9.2ZM75.42 182.14c0 2.85.36 5.77-.16 8.53-.26 1.33-2.17 2.33-3.34 3.53-1-1.1-2.86-2.14-2.93-3.3a145.44 145.44 0 0 1-.12-17.09c.07-1.21 2.21-2.31 3.4-3.47 1 1.29 2.67 2.45 2.94 3.88.48 2.55.14 5.27.14 7.92ZM40.9 231.26c-1.77.34-4.41 1.61-5.21.88a178.39 178.39 0 0 1-13.25-13.69c-.64-.71-.48-3 .21-3.77s3.17-1.18 3.75-.61c4.81 4.72 9.37 9.69 14 14.62.21.31.15.78.5 2.57ZM177 191.84c-4.38 5.73-8.63 11.39-13.09 16.89-.34.43-2.68 0-3.09-.6-.65-1-1.05-3-.5-3.86 3.1-5 6.39-10 9.94-14.72.69-.92 2.88-1.14 4.28-1 .76.13 1.34 1.74 2.46 3.29Zm-37.77 46.39c6 1.33 11.07 2.15 15.92 3.67 1.63.51 2.7 2.79 4 4.27-1.81.76-3.76 2.37-5.42 2.12a90.63 90.63 0 0 1-14.87-3.55c-1.37-.44-2.12-2.74-3.16-4.18Zm56.2-163.29c0-2.85-.36-5.76.16-8.52.24-1.33 2.13-2.35 3.27-3.52 1 1.1 2.78 2.15 2.84 3.29a147.46 147.46 0 0 1 .05 17.08c-.08 1.25-2.15 2.38-3.31 3.57-1-1.32-2.65-2.52-2.92-4-.48-2.55-.14-5.27-.14-7.92Zm-80.26 155.7c-4 5.51-7.82 11-12 16.32-.48.63-2.95.48-3.8-.19a3.78 3.78 0 0 1-.75-3.64c3.27-5.2 6.75-10.29 10.44-15.21.58-.78 2.66-1 3.83-.62.86.23 1.3 1.79 2.28 3.34ZM326 331.05c-1.87.35-4.61 1.67-5.49.89a178.78 178.78 0 0 1-13.27-13.42 3.55 3.55 0 0 1-.07-3.34c.51-.82 2.59-1.71 3-1.39 5.57 4.81 11 9.83 16.4 14.8-.26.82-.44 1.64-.57 2.46ZM216.51 210.07c-6.12-1.4-11.19-2.32-16.07-3.84-1.47-.47-2.42-2.62-3.61-4 1.7-.74 3.5-2.27 5.08-2.07a97.38 97.38 0 0 1 15 3.13c1.44.43 2.34 2.73 3.49 4.17Zm54.66 137.79c-5.89-3.7-11.77-7.3-17.49-11.14-.54-.37-.55-2.73 0-3.29.85-.81 2.83-1.53 3.69-1.07 5.42 2.83 10.73 5.9 15.9 9.16.83.53 1.23 2.54 1 3.7-.15.88-1.65 1.48-3.1 2.64ZM112.39 93.89c-.89 1.26-1.54 3.09-2.44 3.23-1.28.19-3.53-.48-4-1.45a175.49 175.49 0 0 1-7-16.25c-.41-1.11.48-3.12 1.4-4.13.45-.49 3.15 0 3.52.7 2.93 5.77 5.61 11.71 8.52 17.9Zm-95.7 49.78c-4.05 5.63-8 11.29-12.22 16.77-.38.51-2.46.38-3.18-.18s-1.6-2.52-1.22-3.12q5.31-8.55 11.17-16.76c.42-.6 2.41-.65 3.28-.19s1.22 1.87 2.17 3.48ZM151 375.93c6.14 3.71 12 7.12 17.63 10.79.61.4.8 2.66.26 3.34-.7.9-2.71 1.86-3.46 1.47-5.81-3-11.5-6.29-17.09-9.71-.68-.41-1-2.42-.63-3.24.55-1.05 2-1.65 3.29-2.65Zm182.06.45a15 15 0 0 1 2.81 1.75c3.73 3.8 7.57 7.51 10.93 11.62 1 1.21.52 3.61.72 5.47-1.8-.34-4.13-.09-5.31-1.13a119.2 119.2 0 0 1-10.66-11 6.47 6.47 0 0 1-1.07-4.42c.07-.81 1.61-1.48 2.58-2.29Zm-345.87 14.25c-1.2-1.06-3.09-2-3.18-3a4.59 4.59 0 0 1 2.3-3.63 170.91 170.91 0 0 1 16.29-5.59c1.11-.32 3.46.69 3.84 1.65S5.94 383.6 5 384c-5.66 2.38-11.48 4.33-17.81 6.63Zm294.5-127.18c-2.8 4-5.13 7.87-8 11.25-2.13 2.49-3.57 8.61-7.8 5.5-4.42-3.24.88-6.73 2.7-9.74a66.11 66.11 0 0 1 6.58-8.87 4.42 4.42 0 0 1 3.63-1.32c1.03.26 1.75 1.84 2.89 3.18ZM264.91 71.88c-4.1 5.64-8.06 11.27-12.3 16.68-.43.54-2.91.22-3.71-.51a3.75 3.75 0 0 1-.54-3.61c3.11-5 6.39-10 9.93-14.7.7-.95 2.82-1.24 4.21-1.11.74.07 1.33 1.71 2.41 3.25ZM14.31 253.56c3 0 4.81-.41 6.23.12 1.24.47 2.84 2 2.86 3.08a4.22 4.22 0 0 1-2.77 3.08 151.55 151.55 0 0 1-17 1.27c-1.36 0-2.75-1.82-4.12-2.81 1.15-1.2 2.15-3.18 3.49-3.44a111.15 111.15 0 0 1 11.31-1.3ZM143.33 36.31c-4.15 5.57-8.3 11.25-12.67 16.76-.35.44-2.72.07-3.19-.59-.68-1-1.08-2.92-.54-3.8 3.19-5.22 6.58-10.33 10.18-15.28.59-.82 2.63-1.08 3.81-.8.79.2 1.24 1.8 2.41 3.71Zm148.72 165.4c2.19-.5 4.4-1.77 5.65-1.14a161.21 161.21 0 0 1 15.25 9 4 4 0 0 1 1.23 3.61c-.3.94-2.52 2.25-3.12 1.93-5.92-3.11-11.69-6.5-17.43-9.92-.56-.34-.63-1.41-1.58-3.48Zm-47.89.85c1.45-.49 3.8-1.88 4.34-1.37 4.85 4.61 9.47 9.48 13.9 14.51.52.58-.16 2.77-.9 3.73a3.18 3.18 0 0 1-3.14.24c-4.6-4.6-9-9.38-13.44-14.17-.36-.39-.32-1.15-.76-2.94ZM92.9 297.72c-1.55.41-4.16 1.8-4.82 1.16-4.68-4.52-9.08-9.38-13.28-14.35-.55-.65 0-2.8.71-3.74.48-.64 2.72-.92 3.21-.42 4.7 4.78 9.2 9.76 13.72 14.71.23.25.15.78.46 2.64ZM208.74 290a59.28 59.28 0 0 1-8.54-.13c-1.22-.19-3.15-1.82-3.12-2.74 0-1.17 1.66-3.2 2.72-3.28 6.08-.46 12.2-.6 18.3-.45 1 0 2.74 2.06 2.72 3.14s-1.77 2.79-2.93 3a66.4 66.4 0 0 1-9.15.14Zm152.98 40c5.85 3.67 11.71 7.24 17.37 11.09.56.38.32 2.75-.28 3.76a3.31 3.31 0 0 1-3.17.75c-5.54-3-11-6.12-16.33-9.49-.79-.5-1.08-2.56-.8-3.7.2-.84 1.72-1.36 3.21-2.41ZM94.58-5.34C100.47-1.61 106.34 2 112 5.88c.55.37.54 2.75-.05 3.32-.83.81-2.82 1.5-3.68 1-5.44-2.86-10.77-6-16-9.25-.82-.52-1.2-2.54-1-3.69.3-.83 1.8-1.43 3.31-2.6ZM338.46 12.3c-.54.77-1 2.24-1.88 2.49-1.18.36-3.12.29-3.88-.46-4.2-4.13-8.26-8.42-12.06-12.92-.7-.84-.41-3.14.25-4.28.39-.67 3-1 3.62-.43 4.54 4.35 8.85 9 13.19 13.52.38.4.42 1.12.76 2.08ZM169.18 113.67a14.79 14.79 0 0 1 2.74 1.74c3.85 4 7.77 7.88 11.33 12.1.9 1.08.55 3.21.78 4.86-1.84-.12-4.34.49-5.41-.48a142.16 142.16 0 0 1-11.41-12 4.89 4.89 0 0 1-.71-3.85c.23-.91 1.65-1.51 2.68-2.37ZM-5.69 60C-7.1 58.84-8.52 58.19-9 57.11c-.37-.83.07-2.82.77-3.22Q.23 49.09 9 44.82a3.27 3.27 0 0 1 3.08 1c.45 1.11.43 3.41-.25 3.84C6.19 53.26.36 56.51-5.69 60ZM67 69.24C62.62 75 58.38 80.63 53.92 86.13c-.36.44-2.56.07-3.25-.6a3.5 3.5 0 0 1-.62-3.27q5.09-8.06 10.69-15.77c.5-.69 2.38-.92 3.35-.59s1.5 1.65 2.91 3.34Zm215.47 81.14c-4.31 5.66-8.51 11.29-12.92 16.75-.33.41-2.72 0-3.13-.69-.64-1-1-3-.44-3.9q4.66-7.51 9.95-14.62c.61-.83 2.58-1.13 3.77-.89.84.16 1.43 1.64 2.77 3.35Zm-184.64 5.33c-1.51 2-2 3.5-2.93 3.74-1.18.32-3.1.17-3.88-.61q-6.33-6.26-12.14-13c-.72-.83-.59-2.71-.29-4 .14-.56 2.17-1.37 2.49-1.09 5.6 4.84 11.07 9.83 16.75 14.96Zm132.85-30.44c.37 1.92 1.58 4.2.89 5.37a161.25 161.25 0 0 1-10 14.69 3.93 3.93 0 0 1-3.71.91c-.9-.42-1.93-2.76-1.53-3.4 3.54-5.66 7.37-11.15 11.19-16.64.31-.38 1.17-.36 3.16-.93Zm126.49-1.92c-3.28 0-5.41.35-7.34-.12-1.3-.31-2.31-1.79-3.45-2.74 1-1.1 2-3 3.1-3.17a175.08 175.08 0 0 1 17.72-1.14c1.1 0 2.21 1.81 3.32 2.79-1 1.08-1.85 2.87-3 3.11-3.8.77-7.7.98-10.35 1.27Zm-62.81-9.48c-.41-1.86-1.69-4.13-1-5.25a166.79 166.79 0 0 1 10-14.77 4 4 0 0 1 3.72-1c.89.35 2 2.7 1.63 3.31-3.52 5.72-7.32 11.28-11.12 16.83-.33.34-1.2.32-3.23.88Zm47.12 155.68c-1.62.53-3.8 2.05-4.93 1.48-5.45-2.72-10.66-5.93-15.83-9.19a3.52 3.52 0 0 1-1-3.17c.28-.88 2.12-2.18 2.57-1.94 6.21 3.28 12.3 6.78 18.4 10.27.31.14.31.75.79 2.55Zm-211.01 72.81-3.77-3.06c1.18-1.2 2.19-3.11 3.6-3.48a113.44 113.44 0 0 1 15.7-3.08c1.42-.16 3.07 1.73 4.61 2.68-1.13 1.23-2.08 3.19-3.44 3.55-5.17 1.34-10.43 2.17-16.7 3.39ZM219 361.94a16.4 16.4 0 0 1-3.25-2 149.09 149.09 0 0 1-10.52-11.12c-1-1.19-.45-3.6-.61-5.45 1.79.29 4.14 0 5.26 1a140.57 140.57 0 0 1 11 11.51 5.07 5.07 0 0 1 .84 3.87c-.18.83-1.72 1.4-2.72 2.19Zm-141.64-6.41c-4.11 5.54-8.14 11.12-12.43 16.49-.4.5-3 .1-3.63-.67a4.06 4.06 0 0 1-.28-3.8c3-4.86 6.22-9.63 9.67-14.19.74-1 2.8-1.35 4.21-1.26.7.04 1.3 1.74 2.46 3.43ZM317.6 166.1a11.52 11.52 0 0 1 2.84 1.5c3.87 3.9 7.81 7.75 11.35 11.94.85 1 .26 3.24.34 4.9-1.68-.16-3.92.32-4.92-.58A139.14 139.14 0 0 1 315.74 172c-.83-.95-.71-3-.52-4.42.08-.58 1.52-.96 2.38-1.48Zm-58.05 228.18c-4 .24-6.29.74-8.46.39-1.53-.25-2.87-1.65-4.3-2.54 1.27-1.32 2.42-3.61 3.83-3.79a125.7 125.7 0 0 1 16.58-.83c1.13 0 2.24 1.76 3.36 2.7-1 1.13-1.78 3-2.94 3.25a54.51 54.51 0 0 1-8.07.82ZM128.6 305.61c2.25 0 4.59-.36 6.73.13 1.47.33 2.67 1.85 4 2.83-1.06 1.1-2 3-3.18 3.16a170.12 170.12 0 0 1-17.77 1c-1.08 0-2.18-1.89-3.26-2.9 1-1.09 1.9-2.91 3.09-3.14a91.79 91.79 0 0 1 10.39-1Zm-21.19 92.52c-8.41 2.75-14-3.14-20.12-7.08-.76-.48-1.09-2.8-.6-3.72s2.68-1.78 3.44-1.38c6.19 3.22 12.21 6.75 18.29 10.19-.34.66-.68 1.32-1.01 1.99Zm-97.27-76.19c0 2.67.37 5.41-.14 8-.28 1.39-2 2.49-3.13 3.72-1.07-1.09-3-2.14-3.06-3.28A168.15 168.15 0 0 1 4 312.54c.06-1 2.12-2.3 3.41-2.51.72-.11 2.42 1.65 2.54 2.7a80.75 80.75 0 0 1 .12 9.21Zm1-216.94c0 2.85.34 5.76-.16 8.52-.24 1.34-2.06 2.4-3.17 3.58-.97-1.1-2.72-2.1-2.81-3.3a154.11 154.11 0 0 1 0-17.06c.08-1.3 2-2.48 3.12-3.71 1 1.35 2.57 2.59 2.84 4.07.53 2.56.19 5.27.18 7.9Zm38.54-90.17c0 2.66.35 5.39-.14 8-.27 1.46-1.92 2.66-2.95 4-1.16-1.2-3.25-2.34-3.33-3.6A146.64 146.64 0 0 1 43.32 6c.06-1.16 1.89-2.21 2.91-3.32 1.13 1.18 3 2.23 3.24 3.57.5 2.77.15 5.7.15 8.57ZM188.24-6.7c3.65 4.62 7.93 8.56 10.15 13.44 1.15 2.51-2.77 3.63-5.06 1.68a65.77 65.77 0 0 1-8-8.37 4.86 4.86 0 0 1-.54-3.85c.29-.9 1.7-1.48 3.45-2.9Zm226.82 334.93c0-2.85-.31-5.76.16-8.54.19-1.1 2-2.42 3.28-2.66.78-.15 2.71 1.55 2.75 2.48.26 6.1.31 12.22 0 18.32-.05 1-2.18 2.73-3.27 2.67s-2.7-1.88-2.88-3.1a66.68 66.68 0 0 1-.13-9.17Zm96.75-156.52c0 2.87.3 5.8-.14 8.6-.18 1.18-1.95 2.92-3 2.92s-3.14-1.71-3.2-2.76a168.7 168.7 0 0 1 0-17.85c.06-1.15 2-2.2 3.07-3.3 1.11 1.25 2.93 2.38 3.18 3.78.51 2.79.15 5.73.15 8.61ZM653.52 69.76c0 3.07.29 6.18-.16 9.18-.16 1.12-2.08 2-3.2 3-.85-1-2.4-2-2.44-3-.24-6.13-.28-12.28 0-18.4 0-1 2-2.35 3.26-2.66.61-.15 2.37 1.68 2.49 2.73a82.94 82.94 0 0 1 .12 9.2Zm-203.1 140.38c0 2.85.36 5.77-.16 8.53-.26 1.34-2.17 2.36-3.34 3.53-1-1.1-2.86-2.14-2.93-3.3a145.44 145.44 0 0 1-.12-17.09c.07-1.21 2.21-2.31 3.4-3.47 1 1.29 2.67 2.45 2.94 3.88.48 2.55.14 5.27.14 7.92Zm-34.52 49.12c-1.77.34-4.41 1.61-5.21.88a178.39 178.39 0 0 1-13.25-13.69c-.64-.71-.48-3 .21-3.77s3.17-1.18 3.75-.61c4.81 4.72 9.37 9.69 14 14.62.21.31.15.78.5 2.57ZM552 219.84c-4.38 5.73-8.63 11.39-13.09 16.89-.34.43-2.68 0-3.09-.6-.65-1-1-3-.5-3.86 3.1-5 6.39-10 9.94-14.72.69-.92 2.88-1.14 4.28-1 .76.13 1.34 1.74 2.46 3.29Zm-37.77 46.39c6 1.33 11.07 2.15 15.92 3.67 1.63.51 2.7 2.79 4 4.27-1.81.76-3.76 2.37-5.42 2.12a90.63 90.63 0 0 1-14.87-3.55c-1.37-.44-2.12-2.74-3.16-4.18Zm56.2-163.29c0-2.85-.36-5.76.16-8.52.24-1.33 2.13-2.35 3.27-3.52 1 1.1 2.78 2.15 2.84 3.29a147.46 147.46 0 0 1 0 17.08c-.08 1.25-2.15 2.38-3.31 3.57-1-1.32-2.65-2.52-2.92-4-.48-2.55-.14-5.27-.14-7.92Zm-80.26 155.7c-4 5.51-7.82 11-12 16.32-.48.63-2.95.48-3.8-.19a3.78 3.78 0 0 1-.75-3.64c3.27-5.2 6.75-10.29 10.44-15.21.58-.78 2.66-1 3.83-.62.86.23 1.3 1.79 2.28 3.34ZM701 359.05c-1.87.35-4.61 1.67-5.49.89a178.78 178.78 0 0 1-13.27-13.42 3.55 3.55 0 0 1-.07-3.34c.51-.82 2.59-1.71 3-1.39 5.57 4.81 11 9.83 16.4 14.8-.26.82-.44 1.64-.57 2.46ZM591.51 238.07c-6.12-1.4-11.19-2.32-16.07-3.84-1.47-.47-2.42-2.62-3.61-4 1.7-.74 3.5-2.27 5.08-2.07a97.38 97.38 0 0 1 15 3.13c1.44.43 2.34 2.73 3.49 4.17Zm54.66 137.79c-5.89-3.7-11.77-7.3-17.49-11.14-.54-.37-.55-2.73 0-3.29.85-.81 2.83-1.53 3.69-1.07 5.42 2.83 10.73 5.9 15.9 9.16.83.53 1.23 2.54 1 3.7-.15.88-1.65 1.48-3.1 2.64ZM487.39 121.89c-.89 1.26-1.54 3.09-2.44 3.23-1.28.19-3.53-.48-4-1.45a175.49 175.49 0 0 1-7-16.25c-.41-1.11.48-3.12 1.4-4.13.45-.49 3.15 0 3.52.7 2.93 5.77 5.61 11.71 8.52 17.9Zm-95.7 49.78c-4.05 5.63-8 11.29-12.22 16.77-.38.51-2.46.38-3.18-.18s-1.6-2.52-1.22-3.12q5.31-8.55 11.17-16.76c.42-.6 2.41-.65 3.28-.19s1.22 1.87 2.17 3.48Zm265 119.78c-2.8 4-5.13 7.87-8 11.25-2.13 2.49-3.57 8.61-7.8 5.5-4.42-3.24.88-6.73 2.7-9.74a66.11 66.11 0 0 1 6.58-8.87 4.42 4.42 0 0 1 3.63-1.32c1.03.26 1.75 1.84 2.89 3.18ZM639.91 99.88c-4.1 5.64-8.06 11.27-12.3 16.68-.43.54-2.91.22-3.71-.51a3.75 3.75 0 0 1-.54-3.61c3.11-5 6.39-10 9.93-14.7.7-.95 2.82-1.24 4.21-1.11.74.07 1.33 1.71 2.41 3.25Zm-250.6 181.68c3 0 4.81-.41 6.23.12 1.24.47 2.84 2 2.86 3.08a4.22 4.22 0 0 1-2.77 3.08 151.55 151.55 0 0 1-17 1.27c-1.36 0-2.75-1.82-4.12-2.81 1.15-1.2 2.15-3.18 3.49-3.44a111.15 111.15 0 0 1 11.31-1.3ZM518.33 64.31c-4.15 5.57-8.3 11.25-12.67 16.76-.35.44-2.72.07-3.19-.59-.68-1-1.08-2.92-.54-3.8 3.19-5.22 6.58-10.33 10.18-15.28.59-.82 2.63-1.08 3.81-.8.79.2 1.24 1.8 2.41 3.71ZM613.14-.16c5.77 3.63 11.62 7.22 17.33 11 .55.37.64 2.39.15 3.13s-2.35 1.76-3 1.43q-8.86-4.68-17.44-9.9c-.64-.4-.85-2.37-.48-3.3s1.77-1.2 3.44-2.36Zm53.91 229.87c2.19-.5 4.4-1.77 5.65-1.14a161.21 161.21 0 0 1 15.25 9 4 4 0 0 1 1.23 3.61c-.3.94-2.52 2.25-3.12 1.93-5.92-3.11-11.69-6.5-17.43-9.92-.56-.34-.63-1.41-1.58-3.48Zm-47.89.85c1.45-.49 3.8-1.88 4.34-1.37 4.85 4.61 9.47 9.48 13.9 14.51.52.58-.16 2.77-.9 3.73a3.18 3.18 0 0 1-3.14.24c-4.6-4.6-9-9.38-13.44-14.17-.36-.39-.32-1.15-.76-2.94ZM467.9 325.72c-1.55.41-4.16 1.8-4.82 1.16-4.68-4.52-9.06-9.38-13.28-14.35-.55-.65 0-2.8.71-3.74.48-.64 2.72-.92 3.21-.42 4.7 4.78 9.2 9.76 13.72 14.71.23.25.15.78.46 2.64ZM351.36 208.86c.76 1.45 1.62 2.87 2.27 4.37 2.13 4.89 4.37 9.75 6.12 14.78.44 1.26-.8 3.09-1.26 4.66-1.53-.68-3.85-.94-4.45-2.1a119 119 0 0 1-6.61-15.25c-.52-1.48.78-3.6 1.25-5.43ZM583.74 318a59.28 59.28 0 0 1-8.54-.13c-1.22-.19-3.15-1.82-3.12-2.74 0-1.17 1.66-3.2 2.72-3.28 6.08-.46 12.2-.6 18.3-.45 1 0 2.74 2.06 2.72 3.14s-1.77 2.79-2.93 3a66.4 66.4 0 0 1-9.15.14ZM469.58 22.66c5.89 3.73 11.76 7.34 17.42 11.22.55.37.54 2.75-.05 3.32-.83.81-2.82 1.5-3.68 1-5.44-2.86-10.77-6-16-9.25-.82-.52-1.2-2.54-.95-3.69.25-.83 1.75-1.43 3.26-2.6ZM713.46 40.3c-.54.77-1 2.24-1.88 2.49-1.18.36-3.12.29-3.88-.46-4.2-4.13-8.26-8.42-12.06-12.92-.7-.84-.41-3.14.25-4.28.39-.67 3-1 3.62-.43 4.54 4.35 8.85 9 13.19 13.52.38.4.42 1.12.76 2.08ZM544.18 141.67a14.79 14.79 0 0 1 2.74 1.74c3.85 4 7.77 7.88 11.33 12.1.9 1.08.55 3.21.78 4.86-1.84-.12-4.34.49-5.41-.48a142.16 142.16 0 0 1-11.41-12 4.89 4.89 0 0 1-.71-3.85c.23-.91 1.65-1.51 2.68-2.37ZM369.31 88c-1.41-1.17-2.83-1.82-3.31-2.9-.37-.83.07-2.82.77-3.22q8.46-4.8 17.22-9.07a3.27 3.27 0 0 1 3.08 1c.45 1.11.43 3.41-.25 3.84-5.63 3.61-11.46 6.86-17.51 10.35ZM442 97.24c-4.36 5.72-8.6 11.39-13.06 16.89-.36.44-2.56.07-3.25-.6a3.5 3.5 0 0 1-.62-3.27q5.08-8.06 10.69-15.77c.5-.69 2.38-.92 3.35-.59s1.48 1.65 2.89 3.34Zm87.45-83.72c-6.21-1.42-11.67-2.45-17-4-1.2-.36-1.82-2.66-2.7-4.07 1.32-.72 2.78-2.2 3.95-2a166.53 166.53 0 0 1 16.82 3.72c1.07.3 2.51 2.72 2.2 3.61-.4 1.22-2.3 1.99-3.27 2.74Zm128.02 164.86c-4.31 5.66-8.51 11.29-12.92 16.75-.33.41-2.72 0-3.13-.69-.64-1-1-3-.44-3.9q4.66-7.51 9.95-14.62c.61-.83 2.58-1.13 3.77-.89.84.16 1.43 1.64 2.77 3.35Zm-184.64 5.33c-1.51 2-2.05 3.5-2.93 3.74-1.18.32-3.1.17-3.88-.61q-6.33-6.26-12.14-13c-.72-.83-.59-2.71-.29-4 .14-.56 2.17-1.37 2.49-1.09 5.6 4.84 11.07 9.83 16.75 14.96Zm132.85-30.44c.37 1.92 1.58 4.2.89 5.37a161.25 161.25 0 0 1-10 14.69 3.93 3.93 0 0 1-3.71.91c-.9-.42-1.93-2.76-1.53-3.4 3.54-5.66 7.37-11.15 11.19-16.64.31-.38 1.17-.36 3.16-.93Zm63.68-11.4c-.41-1.86-1.69-4.13-1-5.25a166.79 166.79 0 0 1 10-14.77 4 4 0 0 1 3.72-1c.89.35 2 2.7 1.63 3.31-3.52 5.72-7.32 11.28-11.12 16.83-.33.34-1.2.32-3.23.88Zm47.12 155.68c-1.62.53-3.8 2.05-4.93 1.48-5.45-2.72-10.66-5.93-15.83-9.19a3.52 3.52 0 0 1-1-3.17c.28-.88 2.12-2.18 2.57-1.94 6.21 3.28 12.3 6.78 18.4 10.27.31.14.31.75.79 2.55Zm-211.01 72.81-3.77-3.06c1.18-1.2 2.19-3.11 3.6-3.48a113.44 113.44 0 0 1 15.7-3.08c1.42-.16 3.07 1.73 4.61 2.68-1.13 1.23-2.08 3.19-3.44 3.55-5.17 1.34-10.43 2.17-16.7 3.39ZM594 389.94a16.4 16.4 0 0 1-3.25-2 149.09 149.09 0 0 1-10.52-11.12c-1-1.19-.45-3.6-.61-5.45 1.79.29 4.14 0 5.26 1a140.57 140.57 0 0 1 11 11.51 5.07 5.07 0 0 1 .84 3.87c-.18.83-1.72 1.4-2.72 2.19Zm-141.64-6.41c-4.11 5.54-8.14 11.12-12.43 16.49-.4.5-3 .1-3.63-.67a4.06 4.06 0 0 1-.28-3.8c3-4.86 6.22-9.63 9.67-14.19.74-1 2.8-1.35 4.21-1.26.7.04 1.3 1.74 2.46 3.43ZM692.6 194.1a11.52 11.52 0 0 1 2.84 1.5c3.87 3.9 7.81 7.75 11.35 11.94.85 1 .26 3.24.34 4.9-1.68-.16-3.92.32-4.92-.58A139.14 139.14 0 0 1 690.74 200c-.83-.95-.71-3-.52-4.42.08-.58 1.52-.96 2.38-1.48Zm-189 139.51c2.25 0 4.59-.36 6.73.13 1.47.33 2.67 1.85 4 2.83-1.06 1.1-2 3-3.18 3.16a170.12 170.12 0 0 1-17.77 1c-1.08 0-2.18-1.89-3.26-2.9 1-1.09 1.9-2.91 3.09-3.14a91.79 91.79 0 0 1 10.39-1Z"/><path d="M385.14 349.94c0 2.67.37 5.41-.14 8-.28 1.39-2 2.49-3.13 3.72-1.07-1.09-3-2.14-3.06-3.28a168.15 168.15 0 0 1 .15-17.82c.06-1 2.12-2.3 3.41-2.51.72-.11 2.42 1.65 2.54 2.7a80.75 80.75 0 0 1 .12 9.21Zm1-216.94c0 2.85.34 5.76-.16 8.52-.24 1.34-2.06 2.4-3.17 3.58-1-1.1-2.72-2.16-2.78-3.31a154.11 154.11 0 0 1 0-17.06c.08-1.3 2-2.48 3.12-3.71 1 1.35 2.57 2.59 2.84 4.07.5 2.57.16 5.28.15 7.91Zm38.54-90.17c0 2.66.35 5.39-.14 8-.27 1.46-1.92 2.66-3 4-1.16-1.2-3.25-2.34-3.33-3.6a146.64 146.64 0 0 1 .11-17.23c.06-1.16 1.89-2.21 2.91-3.32 1.13 1.18 3 2.23 3.24 3.57.5 2.77.15 5.7.15 8.57Zm-27.9-41.41c-3.82 5.59-7 10.52-10.54 15.23-.64.86-2.51 1.12-3.77 1.06-.64 0-1.55-1.36-1.74-2.23-1.16-5.13 9.27-15.11 16.05-14.06ZM347.24 54c-2-4.13-1.27-6.31 2.52-7.12 3.21-.67 6.4-1.68 9.64-1.87 1.37-.08 2.85 1.55 4.28 2.4-1 1.32-1.75 3.44-3 3.8-4.29 1.24-8.75 1.86-13.44 2.79Zm216-32.7c3.65 4.62 7.93 8.56 10.15 13.44 1.15 2.51-2.77 3.63-5.06 1.68a65.77 65.77 0 0 1-8-8.37 4.86 4.86 0 0 1-.54-3.85c.29-.9 1.7-1.48 3.45-2.9ZM670.32 2.31a66.85 66.85 0 0 1-7.19 5.44c-1.08.63-2.88 0-4.36-.06.15-1.63-.2-4.37.52-4.69 3.23-1.44 6.76-2.17 10.19-3.16Z"/></g><path d="M202.27 218.09h-7.86a1.39 1.39 0 0 1-1.5-1.26l-9.3-35.94q-.42-1.38 1.2-1.38h5.64a1.36 1.36 0 0 1 1.44 1.26l6.3 29.52h.24l6.3-29.52a1.36 1.36 0 0 1 1.44-1.26h5.64q1.5 0 1.2 1.38l-9.3 35.94a1.4 1.4 0 0 1-1.44 1.26Zm15.24-35.76v-5.22a1.06 1.06 0 0 1 1.2-1.2h5.22q1.2 0 1.2 1.14v5.28a1.06 1.06 0 0 1-1.2 1.2h-5.22a1.06 1.06 0 0 1-1.2-1.2Zm0 34.5v-28.08q0-1.26 1.2-1.26h5.16a1.11 1.11 0 0 1 1.26 1.26v28.08a1.38 1.38 0 0 1-.27 1 1.4 1.4 0 0 1-.93.24h-5.16a1.11 1.11 0 0 1-1.26-1.24Zm26.1 1.26h-11.4q-1.2 0-1.2-1.26V213a1.4 1.4 0 0 1 .24-.93 1.28 1.28 0 0 1 1-.27h10q2.94 0 2.94-1.8v-.3q0-1.44-2.46-2.76l-5.94-3.3a13.58 13.58 0 0 1-4.5-3.36 7.17 7.17 0 0 1-1.44-4.62q0-4.2 2.22-6.18t7-2h10q1.2 0 1.2 1.26v3.9a1.4 1.4 0 0 1-.24.93 1.28 1.28 0 0 1-1 .27h-8.34q-2.94 0-2.94 1.5v.3q0 1.32 2.58 2.7l6.06 3.6a12.68 12.68 0 0 1 4.38 3.45 7.85 7.85 0 0 1 1.26 4.65q-.03 8.05-9.42 8.05Zm25.74 0h-2c-3.09 0-5.41-.84-7-2.52s-2.37-4.1-2.37-7.26v-19.56a1.11 1.11 0 0 1 1.26-1.26h5.1a1.11 1.11 0 0 1 1.26 1.26V208a3.77 3.77 0 0 0 .81 2.73 3.68 3.68 0 0 0 2.67.81h2.22q4.14 0 4.14-4.56v-18.23a1.11 1.11 0 0 1 1.26-1.26h5c.87 0 1.32.42 1.32 1.26v28.08c0 .84-.45 1.26-1.32 1.26h-5a1.11 1.11 0 0 1-1.26-1.26v-2h-.24a4.59 4.59 0 0 1-2.34 2.43 8.05 8.05 0 0 1-3.51.83Zm31.08 0H299q-4.74 0-7.31-2.52c-1.73-1.68-2.58-4.1-2.58-7.26v-11c0-3.16.85-5.58 2.58-7.26s4.15-2.52 7.31-2.52h13.87c.87 0 1.32.42 1.32 1.26v28.08c0 .84-.45 1.26-1.32 1.26h-5a1.11 1.11 0 0 1-1.26-1.26v-2h-.24a4.62 4.62 0 0 1-2.34 2.43 8.08 8.08 0 0 1-3.6.79Zm6.12-11.16v-12.18q0-.66-.72-.66h-5.65a3.66 3.66 0 0 0-2.7.81 3.92 3.92 0 0 0-.77 2.73V208a3.92 3.92 0 0 0 .77 2.73 3.66 3.66 0 0 0 2.7.81h2.22q4.16-.05 4.15-4.61Zm20.87 11.16h-5.1a1.11 1.11 0 0 1-1.26-1.26v-39.66a1.11 1.11 0 0 1 1.26-1.26h5.1a1.11 1.11 0 0 1 1.26 1.26v39.66a1.11 1.11 0 0 1-1.26 1.26Zm42.84 0h-19.62a1.11 1.11 0 0 1-1.26-1.26v-36.06a1.11 1.11 0 0 1 1.26-1.26h19.62q1.2 0 1.2 1.26v4.08q0 1.26-1.2 1.26h-12.54q-.72 0-.72.66v7.8q0 .66.72.66H368a1.11 1.11 0 0 1 1.26 1.26v4.08a1.11 1.11 0 0 1-1.26 1.26h-10.28q-.72 0-.72.66v8.34q0 .66.72.66h12.54q1.2 0 1.2 1.26v4.08q0 1.26-1.2 1.26Zm18.36-30.6h4.8a1.4 1.4 0 0 1 1 .27 1.29 1.29 0 0 1 .27.93v4.14a1.11 1.11 0 0 1-1.26 1.26h-4.8a.58.58 0 0 0-.66.66v22.08q0 1.26-1.32 1.26h-5a1.11 1.11 0 0 1-1.26-1.26v-22.08q0-.66-.72-.66h-2.76a1.11 1.11 0 0 1-1.26-1.26v-4.14a1.28 1.28 0 0 1 .27-1 1.52 1.52 0 0 1 1-.24h2.76q.72 0 .72-.66v-1.14q0-4.74 2.49-7.26t7.23-2.52h3.42a1.28 1.28 0 0 1 1 .27 1.4 1.4 0 0 1 .24.93v4.14q0 1.26-1.2 1.26h-2.22a3.34 3.34 0 0 0-2.61.81 4.23 4.23 0 0 0-.69 2.73v.78a.58.58 0 0 0 .56.7Zm21.24 0h4.8a1.4 1.4 0 0 1 1 .27 1.29 1.29 0 0 1 .27.93v4.14a1.11 1.11 0 0 1-1.26 1.26h-4.8a.58.58 0 0 0-.66.66v22.08q0 1.26-1.32 1.26h-5a1.11 1.11 0 0 1-1.26-1.26v-22.08q0-.66-.72-.66h-2.81a1.11 1.11 0 0 1-1.26-1.26v-4.14a1.28 1.28 0 0 1 .27-1 1.52 1.52 0 0 1 1-.24h2.76q.72 0 .72-.66v-1.14q0-4.74 2.49-7.26t7.23-2.52h3.42a1.28 1.28 0 0 1 1 .27 1.4 1.4 0 0 1 .24.93v4.14q0 1.26-1.2 1.26h-2.27a3.34 3.34 0 0 0-2.61.81 4.23 4.23 0 0 0-.69 2.73v.78a.58.58 0 0 0 .66.7Zm32.7 30.6H429.3q-4.74 0-7.32-2.52t-2.58-7.26v-11q0-4.74 2.58-7.26t7.32-2.52h4.7q4.74 0 7.32 2.52t2.58 7.26v7.62a1.11 1.11 0 0 1-1.26 1.26h-15.02q-.72 0-.72.66v1.32a3.68 3.68 0 0 0 .81 2.67 3.77 3.77 0 0 0 2.73.81h12.12q1.26 0 1.26 1.32v4a1.29 1.29 0 0 1-.27.93 1.4 1.4 0 0 1-.99.19Zm-14.94-17h8.16a.58.58 0 0 0 .66-.66v-2.88A2.91 2.91 0 0 0 433 194h-2.52a2.91 2.91 0 0 0-3.48 3.48v2.88a.58.58 0 0 0 .62.69Zm41.52 11.66v4.14a1.29 1.29 0 0 1-.27.93 1.4 1.4 0 0 1-1 .27h-8.94q-4.74 0-7.32-2.52t-2.61-7.26v-11q0-4.74 2.58-7.26t7.32-2.52h8.94a1.11 1.11 0 0 1 1.26 1.26v4.14a1.29 1.29 0 0 1-.27.93 1.4 1.4 0 0 1-1 .27h-7.74a3.68 3.68 0 0 0-2.67.81 3.77 3.77 0 0 0-.81 2.73V208a3.77 3.77 0 0 0 .81 2.73 3.68 3.68 0 0 0 2.67.81h7.74a1.11 1.11 0 0 1 1.31 1.21Zm5.86-18.66h-2.4a1.52 1.52 0 0 1-1-.24 1.28 1.28 0 0 1-.27-1v-4.14a1.11 1.11 0 0 1 1.26-1.26H475a.58.58 0 0 0 .66-.66v-5.7q0-1.26 1.32-1.26h5a1.11 1.11 0 0 1 1.26 1.26v5.7q0 .66.72.66h4.68a1.11 1.11 0 0 1 1.26 1.26v4.14a1.29 1.29 0 0 1-.27.93 1.4 1.4 0 0 1-1 .27H484q-.72 0-.72.66V208a3.59 3.59 0 0 0 .84 2.67 3.89 3.89 0 0 0 2.76.81h2.4a1.11 1.11 0 0 1 1.26 1.26v4.14a1.29 1.29 0 0 1-.27.93 1.4 1.4 0 0 1-1 .27h-3.66q-4.74 0-7.35-2.52t-2.61-7.2v-13.61a.58.58 0 0 0-.65-.66Zm32.06 24h-11.4q-1.2 0-1.2-1.26V213a1.4 1.4 0 0 1 .24-.93 1.28 1.28 0 0 1 1-.27h10q2.94 0 2.94-1.8v-.3q0-1.44-2.46-2.76l-5.94-3.3a13.58 13.58 0 0 1-4.5-3.36 7.17 7.17 0 0 1-1.44-4.62q0-4.2 2.22-6.18t7-2h10q1.2 0 1.2 1.26v3.9a1.4 1.4 0 0 1-.24.93 1.28 1.28 0 0 1-1 .27h-8.34q-2.94 0-2.94 1.5v.3q0 1.32 2.58 2.7l6.06 3.6a12.68 12.68 0 0 1 4.38 3.45 7.85 7.85 0 0 1 1.26 4.65q0 8.05-9.42 8.05Z" fill="#5fffe0"/><path d="M350 114.45V83m0 228v-31.45m58.29-140.92 22.21-22.24m-161 161.22 22.21-22.24m0-116.74-22.21-22.24m138.79 139 22.21 22.24" fill="none" stroke="#dd60ff" stroke-linecap="round" stroke-miterlimit="10" stroke-width="12"/></svg>
