<svg xmlns="http://www.w3.org/2000/svg" viewBox="0 0 700 394"><defs><linearGradient id="b" x1="323.4" y1="150.92" x2="376.6" y2="243.08" gradientUnits="userSpaceOnUse"><stop offset="0" stop-color="#fbbf24"/><stop offset=".45" stop-color="#fbbf24"/><stop offset="1" stop-color="#f59e0b"/></linearGradient><clipPath id="a"><path fill="none" d="M0 0h700v394H0z"/></clipPath></defs><path fill="#3392d7" d="M0 0h700v394H0z"/><g clip-path="url(#a)"><path d="M663.25 251.61c-1.16 0-2.3.13-3.46.18a114.83 114.83 0 0 0-209.22-87.88 76.52 76.52 0 0 0-115.77 65.81 77.21 77.21 0 0 0 1.09 12.43 82.09 82.09 0 0 0 15.33 162.74c1.85 0 3.66-.15 5.47-.27v.27h306.56a76.64 76.64 0 0 0 0-153.28Z" fill="#2885c9"/></g><circle cx="350" cy="197" r="53.2" stroke="#f8af18" stroke-miterlimit="10" stroke-width="3" fill="url(#b)"/><path d="M350 114.45V83m0 228v-31.45m58.37-140.92 22.24-22.24M269.39 277.61l22.24-22.24m0-116.74-22.24-22.24m161.22 161.22-22.24-22.24M267.45 197H236m228 0h-31.45" fill="none" stroke="#fbbf24" stroke-linecap="round" stroke-miterlimit="10" stroke-width="12"/></svg>
