<svg xmlns="http://www.w3.org/2000/svg" viewBox="0 0 700 394"><defs><clipPath id="a"><path fill="none" d="M358.37 120h203.81v170.74H358.37z"/></clipPath><clipPath id="b"><path fill="none" d="M331.39 162.77 525.7 73.81l75.01 163.47-194.31 88.94-75.01-163.45z"/></clipPath><clipPath id="c"><path fill="none" d="M562.57 193.3H639v76.32h-76.43z"/></clipPath><clipPath id="d"><path fill="none" d="M521.95 270.13h25.91V296h-25.91z"/></clipPath></defs><path fill="#fff" d="M0 0h700v394H0z"/><g clip-path="url(#a)"><g clip-path="url(#b)"><path d="M496 275.61c-35.65 26.1-86.22 16.66-110.82-19.9-28.75-42.82-48.32-95.42 21.7-127.47 37.41-17.12 82.38-3.12 124 18 34 17.27 40.67 63 12.73 89-15.22 14.16-31.23 28.49-47.57 40.44" fill="#f4d532"/></g></g><g clip-path="url(#c)"><path d="M600.78 193.3A38.16 38.16 0 1 0 639 231.45a38.23 38.23 0 0 0-38.22-38.15Z" fill="#f4d532"/></g><path d="M230.23 180.6h-13.44l-7.48 30.58-9.41-30.58h-10.59l-9.41 30.53-7.48-30.53H159l13.42 47.4h11.4l10.79-31.63L205.46 228h11.31ZM280.37 206.06c0-19.14-10.88-25.89-22.64-25.89-11 0-23.49 6.73-23.49 24.42 0 17.42 12.62 24.08 23.38 24.08 11.5 0 18.72-4.66 21.47-14.23h-11.61c-1.36 2.74-4.11 4.38-9.13 4.38-6.48 0-10.21-3-11.23-10.29h33.16a21.94 21.94 0 0 0 .09-2.47Zm-33.16-5.74c1-6.94 4.66-10.32 10.52-10.32 6.28 0 9.75 4.11 9.94 10.32ZM315.05 180.17c-8.12 0-12.78 4.56-14.16 10.94v-10.49h-13.3V228h13.33v-25.22c1.09-6.55 5.39-10.67 15.15-10.67.64 0 1.28 0 3.11.08v-11.65a18.89 18.89 0 0 0-4.11-.37ZM355.69 228 374 180.6h-13.37l-12.23 34.13-12.33-34.11h-13.33L341 228ZM380.25 163.39v10.13h13.34v-10.13Zm0 17.23V228h13.34v-47.4ZM431.67 180.17a17 17 0 0 0-15.25 9.83v-9.38h-13.34V228h13.34v-28c.45-3 3.64-8.85 10.31-8.85 4.75 0 8.5 2.47 8.5 9V228h13.33v-28.51c0-14.4-7.13-19.32-16.89-19.32ZM479.24 217.91c-6.58 0-10.61-4.66-10.61-13.49 0-8.66 3.94-13.5 10.5-13.5 5.48 0 7.5 2.65 8.4 6.38h12.24c-2.47-13.85-12.24-17.13-20.72-17.13-10.89 0-23.29 6.47-23.29 24.25s12.51 24.25 23.37 24.25c8.22 0 18.73-3.47 21-17.59h-12c-1.09 3.91-3.37 6.83-8.95 6.83ZM507.46 212.89V228h14.42v-15.11Z"/><g clip-path="url(#d)"><path d="M534.9 270.13a12.94 12.94 0 1 0 13 12.94 13 13 0 0 0-13-12.94Z" fill="#f4d532"/></g></svg>
