<svg xmlns="http://www.w3.org/2000/svg" viewBox="0 0 720 420"><defs><linearGradient id="b" x1="360" y1="420" x2="360" gradientUnits="userSpaceOnUse"><stop offset="0" stop-color="#eca909"/><stop offset="1" stop-color="#f5b61a"/></linearGradient><clipPath id="a"><path fill="none" d="M0 0h720v420H0z"/></clipPath></defs><g clip-path="url(#a)"><path fill="url(#b)" d="M0 0h720v420H0z"/><path fill="none" stroke="#eca909" stroke-miterlimit="10" stroke-width="2" d="M0 0h60v60H0zm60 0h60v60H60zm60 0h60v60h-60zm60 0h60v60h-60zm60 0h60v60h-60zm60 0h60v60h-60zm60 0h60v60h-60zm60 0h60v60h-60zm60 0h60v60h-60zm60 0h60v60h-60zm60 0h60v60h-60zm60 0h60v60h-60zM0 60h60v60H0zm60 0h60v60H60zm60 0h60v60h-60zm60 0h60v60h-60zm60 0h60v60h-60zm60 0h60v60h-60zm60 0h60v60h-60zm60 0h60v60h-60zm60 0h60v60h-60zm60 0h60v60h-60zm60 0h60v60h-60zm60 0h60v60h-60zM0 120h60v60H0zm60 0h60v60H60zm60 0h60v60h-60zm60 0h60v60h-60zm60 0h60v60h-60zm60 0h60v60h-60zm60 0h60v60h-60zm60 0h60v60h-60zm60 0h60v60h-60zm60 0h60v60h-60zm60 0h60v60h-60zm60 0h60v60h-60zM0 180h60v60H0zm60 0h60v60H60zm60 0h60v60h-60zm60 0h60v60h-60zm60 0h60v60h-60zm60 0h60v60h-60zm60 0h60v60h-60zm60 0h60v60h-60zm60 0h60v60h-60zm60 0h60v60h-60zm60 0h60v60h-60zm60 0h60v60h-60zM0 240h60v60H0zm60 0h60v60H60zm60 0h60v60h-60zm60 0h60v60h-60zm60 0h60v60h-60zm60 0h60v60h-60zm60 0h60v60h-60zm60 0h60v60h-60zm60 0h60v60h-60zm60 0h60v60h-60zm60 0h60v60h-60zm60 0h60v60h-60zM0 300h60v60H0zm60 0h60v60H60zm60 0h60v60h-60zm60 0h60v60h-60zm60 0h60v60h-60zm60 0h60v60h-60zm60 0h60v60h-60zm60 0h60v60h-60zm60 0h60v60h-60zm60 0h60v60h-60zm60 0h60v60h-60zm60 0h60v60h-60zM0 360h60v60H0zm60 0h60v60H60zm60 0h60v60h-60zm60 0h60v60h-60zm60 0h60v60h-60zm60 0h60v60h-60zm60 0h60v60h-60zm60 0h60v60h-60zm60 0h60v60h-60zm60 0h60v60h-60zm60 0h60v60h-60zm60 0h60v60h-60z"/><rect x="15" y="15" width="690" height="390" rx="18" fill="none" stroke="#eca909" stroke-miterlimit="10" stroke-width="2"/></g><g clip-path="url(#a)"><path d="M532.39 329.69c0 11.18-9 19.94-19.16 19.94h-19.17l.42 99.43a46.07 46.07 0 0 1-.3 5v10.07c0 13.72-10.72 24.84-24 24.84h-9.58c-.66 0-1.32-.56-2-.06-.84-.5-1.68.06-2.52.06H422.3c-13.24 0-24-11.12-24-24.84V409.5c0-11-8.56-19.87-19.17-19.87h-38.29c-10.6 0-19.17 8.88-19.17 19.87v54.66c0 13.72-10.72 24.84-24 24.84h-33.44c-.9 0-1.8-.06-2.7-.12-.71.06-1.43.12-2.15.12h-9.59c-13.23 0-24-11.12-24-24.84v-69.57c0-.56 0-1.18.06-1.74v-43.22H206.7c-10.8 0-19.2-8.76-19.2-19.94a20.56 20.56 0 0 1 6-14.91L347.07 176c4.19-4.36 9-5 13.18-5a19.66 19.66 0 0 1 12.64 4.36l152.92 139.42c4.79 4.35 7.24 9.32 6.58 14.91Z" fill="#d3970b"/></g><path d="M365.34 182.36c0-2.86-2.31-5.89-4.51-7.17-14.39-8.37-29.07-16.8-43.26-25l-25.77-14.84a8.88 8.88 0 0 0-9.51 0 14808.86 14808.86 0 0 1-71.8 40.7 8.88 8.88 0 0 0-5 8.54c.08 27.77.07 56 .07 83.32v24.69A3.43 3.43 0 0 0 209 296h4.32a3.44 3.44 0 0 0 3.48-3.4v-24.9c0-26.45 0-53.81-.06-80.71 0-1.49.21-1.74 1.29-2.35 22.74-12.78 45.54-25.71 67.78-38.42a3 3 0 0 1 1.18-.47 3.06 3.06 0 0 1 1.16.46 9566.06 9566.06 0 0 0 64.47 37c1.34.76 1.54 1.1 1.54 2.58-.1 18.95-.09 38.21-.07 56.84v10.67c0 1.12.08 2.17.16 3.28 0 .5.08 1 .11 1.53a3.31 3.31 0 0 0 1.2 2.37 3.49 3.49 0 0 0 2.27.83h.3l3.89-.33a3.45 3.45 0 0 0 3.15-3q0-.36.09-.63a9.18 9.18 0 0 0 .14-1.47v-11.32c.07-20.38.08-41.46-.06-62.2Z" fill="#fff"/><path d="M220.93 231v-5.11l4.55-.88v-30.53l-4.55-.88v-5.14h33.15V200h-6.57l-.38-4.92h-13.08v10.7h14.46v6.58h-14.46v12.17h13.78l.39-5.09h6.51V231Zm39.23 0v-5.11l4.1-.88v-19.6l-4.54-.87v-5.15h12.52l.33 3.92.05.7a9.94 9.94 0 0 1 2.91-3.89 6.6 6.6 0 0 1 4.13-1.31 11.53 11.53 0 0 1 1.68.13 12 12 0 0 1 1.61.33l-.91 7.87-4.25-.24a5.08 5.08 0 0 0-3 .62 6.78 6.78 0 0 0-2 2V225l4.11.88V231Zm37.69 0-9.59-26-3.43-.52v-5.15h15.4v5.12l-3.35.58 4.79 14.36.73 2.45h.18l.82-2.45 5.25-14.33-3.9-.61v-5.12h15.37v5.15l-3.52.58-10 25.9Zm39.37.64a15.44 15.44 0 0 1-8-2 13.77 13.77 0 0 1-5.26-5.52 16.68 16.68 0 0 1-1.87-8v-1.17a19 19 0 0 1 1.76-8.34 13.85 13.85 0 0 1 5-5.73 13.34 13.34 0 0 1 7.58-2.06 14.32 14.32 0 0 1 7.25 1.69 10.93 10.93 0 0 1 4.45 4.88 17.74 17.74 0 0 1 1.53 7.72v4.65H331l-.06.18a9.61 9.61 0 0 0 1 3.69 6.4 6.4 0 0 0 2.45 2.55 7.59 7.59 0 0 0 3.85.92 15.46 15.46 0 0 0 4.38-.6 16.9 16.9 0 0 0 4-1.77L349 228a16.28 16.28 0 0 1-5 2.6 20.71 20.71 0 0 1-6.78 1.04Zm-6.13-19.53h10.59v-.76a9.65 9.65 0 0 0-.51-3.32 4.27 4.27 0 0 0-1.65-2.15 5.07 5.07 0 0 0-2.91-.76 4.64 4.64 0 0 0-2.88.89 5.94 5.94 0 0 0-1.83 2.44 13.08 13.08 0 0 0-.9 3.55ZM378 231v-5.11l4.58-.88V195h-7.78l-.47 5.09h-6.48v-11.63H406v11.66h-6.52L399 195h-7.83v30l4.61.88V231Zm39.31.64a10.73 10.73 0 0 1-7.51-2.53 8.84 8.84 0 0 1-2.79-6.89 8.74 8.74 0 0 1 1.63-5.23 10.74 10.74 0 0 1 4.81-3.54 21.18 21.18 0 0 1 7.85-1.28h4.19v-2.34a5.17 5.17 0 0 0-1.33-3.7 5.23 5.23 0 0 0-4-1.42 8.26 8.26 0 0 0-2.48.34 6.73 6.73 0 0 0-2 .95l-.68 4.18h-6.16l-.12-8.22a27.71 27.71 0 0 1 5.4-2.28 22.58 22.58 0 0 1 6.48-.87q6.22 0 9.83 2.88a9.9 9.9 0 0 1 3.61 8.23v14.28a7.9 7.9 0 0 0 .1 1.21l3.31.47V231h-10.58c-.21-.54-.43-1.13-.64-1.75a10.67 10.67 0 0 1-.47-1.87 12 12 0 0 1-3.6 3.08 9.75 9.75 0 0 1-4.85 1.18Zm2.29-6.32a7.59 7.59 0 0 0 3.4-.8 6.22 6.22 0 0 0 2.49-2.12v-5h-4.22a6.25 6.25 0 0 0-4.27 1.29 4 4 0 0 0-1.45 3.1 3.26 3.26 0 0 0 1.07 2.61 4.39 4.39 0 0 0 2.98.92Zm20.62 5.68v-5.11l4.11-.88v-19.6l-4.55-.87v-5.15h12.53l.38 4.53a11.46 11.46 0 0 1 3.92-3.77 10.39 10.39 0 0 1 5.32-1.34 9.35 9.35 0 0 1 7.39 3q2.67 3 2.67 9.44V225l4.11.88V231h-16.37v-5.11l3.67-.88v-13.72c0-2.13-.42-3.63-1.26-4.52a5 5 0 0 0-3.76-1.33 6.36 6.36 0 0 0-3.21.78 6.47 6.47 0 0 0-2.28 2.2V225l3.47.88V231Zm38.2 0v-5.11l4.13-.88v-33.57l-4.57-.88v-5.15h13.11V225l3.7.88V231Zm11.76-8.65-4.11-4.77L499.86 205l.06-.08-3.26-.47v-5.09h16.52v5.15l-4.11 1Zm8.45 8.65v-4.85l2.4-.55v-.12L494.7 217l5.45-5.58L510.57 225l3.93.91V231Z" fill="#fff"/></svg>
