<svg xmlns="http://www.w3.org/2000/svg" xmlns:xlink="http://www.w3.org/1999/xlink" viewBox="0 0 720 420"><defs><linearGradient id="c" x1="361" y1="421" x2="361" y2="1" gradientUnits="userSpaceOnUse"><stop offset="0" stop-color="#e2e8f0"/><stop offset="1" stop-color="#f8fafc"/></linearGradient><linearGradient id="a" x1="359.15" y1="203.86" x2="359.15" y2="185.36" gradientUnits="userSpaceOnUse"><stop offset="0" stop-color="#0055ce"/><stop offset="1" stop-color="#3081f5"/></linearGradient><linearGradient id="e" x1="359.84" y1="234.65" x2="359.84" y2="214.87" xlink:href="#a"/><linearGradient id="f" x1="360" y1="287.96" x2="360" y2="132.05" xlink:href="#a"/><linearGradient id="g" x1="341.92" y1="136.37" x2="341.92" y2="123" xlink:href="#a"/><linearGradient id="h" x1="279.68" y1="260.61" x2="279.68" y2="195.55" xlink:href="#a"/><linearGradient id="i" x1="378.08" y1="297" x2="378.08" y2="283.65" xlink:href="#a"/><linearGradient id="j" x1="440.32" y1="224.45" x2="440.32" y2="159.38" xlink:href="#a"/><clipPath id="b"><path fill="none" d="M1 1h720v420H1z"/></clipPath><symbol id="d" viewBox="0 0 722 422"><g clip-path="url(#b)"><path fill="url(#c)" d="M1 1h720v420H1z"/><path fill="none" stroke="#e2e8f0" stroke-miterlimit="10" stroke-width="2" d="M1 1h60v60H1zm60 0h60v60H61zm60 0h60v60h-60zm60 0h60v60h-60zm60 0h60v60h-60zm60 0h60v60h-60zm60 0h60v60h-60zm60 0h60v60h-60zm60 0h60v60h-60zm60 0h60v60h-60zm60 0h60v60h-60zm60 0h60v60h-60zM1 61h60v60H1zm60 0h60v60H61zm60 0h60v60h-60zm60 0h60v60h-60zm60 0h60v60h-60zm60 0h60v60h-60zm60 0h60v60h-60zm60 0h60v60h-60zm60 0h60v60h-60zm60 0h60v60h-60zm60 0h60v60h-60zm60 0h60v60h-60zM1 121h60v60H1zm60 0h60v60H61zm60 0h60v60h-60zm60 0h60v60h-60zm60 0h60v60h-60zm60 0h60v60h-60zm60 0h60v60h-60zm60 0h60v60h-60zm60 0h60v60h-60zm60 0h60v60h-60zm60 0h60v60h-60zm60 0h60v60h-60zM1 181h60v60H1zm60 0h60v60H61zm60 0h60v60h-60zm60 0h60v60h-60zm60 0h60v60h-60zm60 0h60v60h-60zm60 0h60v60h-60zm60 0h60v60h-60zm60 0h60v60h-60zm60 0h60v60h-60zm60 0h60v60h-60zm60 0h60v60h-60zM1 241h60v60H1zm60 0h60v60H61zm60 0h60v60h-60zm60 0h60v60h-60zm60 0h60v60h-60zm60 0h60v60h-60zm60 0h60v60h-60zm60 0h60v60h-60zm60 0h60v60h-60zm60 0h60v60h-60zm60 0h60v60h-60zm60 0h60v60h-60zM1 301h60v60H1zm60 0h60v60H61zm60 0h60v60h-60zm60 0h60v60h-60zm60 0h60v60h-60zm60 0h60v60h-60zm60 0h60v60h-60zm60 0h60v60h-60zm60 0h60v60h-60zm60 0h60v60h-60zm60 0h60v60h-60zm60 0h60v60h-60zM1 361h60v60H1zm60 0h60v60H61zm60 0h60v60h-60zm60 0h60v60h-60zm60 0h60v60h-60zm60 0h60v60h-60zm60 0h60v60h-60zm60 0h60v60h-60zm60 0h60v60h-60zm60 0h60v60h-60zm60 0h60v60h-60zm60 0h60v60h-60z"/><rect x="16" y="16" width="690" height="390" rx="18" fill="none" stroke="#e2e8f0" stroke-miterlimit="10" stroke-width="2"/></g></symbol></defs><use width="722" height="422" transform="translate(-1 -1)" xlink:href="#d"/><path d="M374.17 194.67c0-5.35-3.64-9.31-10.06-9.31h-20v18.5h20c6.42 0 10.06-3.86 10.06-9.19Z" fill="url(#a)"/><path d="M364.65 214.87h-20.52v19.78h20.52c6.84 0 10.91-3.74 10.91-10 0-5.29-3.74-9.78-10.91-9.78Z" fill="url(#e)"/><path d="M391 132.05h-62a47 47 0 0 0-47 47V241a47 47 0 0 0 47 47h62a47 47 0 0 0 47-47v-61.95a47 47 0 0 0-47-47Zm-23.4 113.66h-36v-71.34h35.07c13 0 20.31 8.12 20.31 18.17 0 9-5.77 15-12.39 16.34 7.58 1.18 13.79 8.77 13.79 17.53.01 11.02-7.38 19.3-20.78 19.3Z" fill="url(#f)"/><g opacity=".5" fill-opacity=".85"><path d="M329 132.05h45.42L359 126.13a47 47 0 0 0-49.65 10.24 46.65 46.65 0 0 1 19.65-4.32Z" fill="url(#g)"/><path d="M282.05 241v-45.45L276.13 211a47 47 0 0 0 10.22 49.64 46.9 46.9 0 0 1-4.3-19.64Z" fill="url(#h)"/><path d="M391 288h-45.4l15.4 5.87a47 47 0 0 0 49.64-10.22A46.79 46.79 0 0 1 391 288Z" fill="url(#i)"/><path d="M433.64 159.38a46.85 46.85 0 0 1 4.36 19.67v45.4l5.87-15.45a47 47 0 0 0-10.23-49.62Z" fill="url(#j)"/></g></svg>
