<svg xmlns="http://www.w3.org/2000/svg" xmlns:xlink="http://www.w3.org/1999/xlink" viewBox="0 0 720 420"><defs><radialGradient id="c" cx="412" cy="1906.47" fx="412" fy="1906.47" r="57.57" gradientTransform="translate(-2 4729.84) scale(.98 -2.27)" gradientUnits="userSpaceOnUse"><stop offset="0" stop-color="#ffd86b"/><stop offset=".6" stop-color="#f5a240"/><stop offset=".68" stop-color="#e58e37"/><stop offset=".84" stop-color="#be591e"/><stop offset=".95" stop-color="#a1340d"/></radialGradient><radialGradient id="a" cx="-307.72" cy="145.68" fx="-307.72" fy="145.68" r="57.54" gradientTransform="translate(26 44.35) rotate(-180) scale(.98 -2.27)" gradientUnits="userSpaceOnUse"><stop offset=".44" stop-color="#ffd86b"/><stop offset=".75" stop-color="#f5a240"/><stop offset=".8" stop-color="#e58e37"/><stop offset=".89" stop-color="#be591e"/><stop offset=".95" stop-color="#a1340d"/></radialGradient><radialGradient id="i" cx="355.78" cy="1838.43" fx="355.78" fy="1838.43" r="56.66" gradientTransform="translate(-239.97 5408.57) rotate(6.04) scale(.93 -2.75) skewX(-6.96)" xlink:href="#a"/><radialGradient id="b" cx="310.48" cy="1862.83" fx="310.48" fy="1862.83" r="38.78" gradientTransform="translate(144.28 5517.14) rotate(-3.59) scale(1.02 -2.76) skewX(3.77)" gradientUnits="userSpaceOnUse"><stop offset="0" stop-color="#ffd86b"/><stop offset=".75" stop-color="#f5a240"/><stop offset=".8" stop-color="#e58e37"/><stop offset=".89" stop-color="#be591e"/><stop offset=".95" stop-color="#a1340d"/></radialGradient><radialGradient id="j" cx="-652.31" cy="79.35" fx="-652.31" fy="79.35" r="63.67" gradientTransform="translate(-208.73 291.85) rotate(170.35) scale(.72 -2.27) skewX(9.07)" xlink:href="#a"/><radialGradient id="k" cx="-309.12" cy="1850.94" fx="-309.12" fy="1850.94" r="56.77" gradientTransform="translate(95.25 5489.34) rotate(-180) scale(.93 2.76)" xlink:href="#b"/><radialGradient id="l" cx="353.65" cy="1974.84" fx="353.65" fy="1974.84" r="51.63" gradientTransform="translate(-245.32 5126.37) rotate(5.59) scale(1.01 -2.43) skewX(-3.86)" xlink:href="#a"/><radialGradient id="m" cx="-207.52" cy="213.63" fx="-207.52" fy="213.63" r="39.97" gradientTransform="translate(-30.13 -256.01) rotate(176.85) scale(1.44 -3.01) skewX(2.79)" xlink:href="#a"/><radialGradient id="n" cx="321.36" cy="1827.16" fx="321.36" fy="1827.16" r="40.96" gradientTransform="translate(-4.92 6415.03) scale(1.12 -3.31)" xlink:href="#a"/><radialGradient id="o" cx="-414.85" cy="309.89" fx="-414.85" fy="309.89" r="40.96" gradientTransform="translate(-85.48 -649.73) rotate(-180) scale(.93 -3.43)" gradientUnits="userSpaceOnUse"><stop offset=".04" stop-color="#ffd86b"/><stop offset=".68" stop-color="#f5a240"/><stop offset=".76" stop-color="#e58e37"/><stop offset=".9" stop-color="#be591e"/><stop offset="1" stop-color="#a1340d"/></radialGradient><radialGradient id="p" cx="321.95" cy="335.26" fx="321.95" fy="335.26" r="40.96" gradientTransform="translate(320.65 -782.25) rotate(10.22) scale(.93 3.42) skewX(10.22)" xlink:href="#a"/><radialGradient id="q" cx="-454.2" cy="2065.23" fx="-454.2" fy="2065.23" r="57.57" gradientTransform="translate(73.7 4424.89) rotate(177.55) scale(.98 1.96) skewX(-.32)" xlink:href="#c"/><radialGradient id="r" cx="-219.34" cy="154.14" fx="-219.34" fy="154.14" r="43.58" gradientTransform="translate(232.27 9.1) rotate(-172.6) scale(.93 -2.27) skewX(-1.17)" gradientUnits="userSpaceOnUse"><stop offset=".24" stop-color="#ffd86b"/><stop offset=".36" stop-color="#fed468"/><stop offset=".49" stop-color="#fcc75e"/><stop offset=".63" stop-color="#f8b34d"/><stop offset=".71" stop-color="#f5a240"/><stop offset=".78" stop-color="#e58e37"/><stop offset=".91" stop-color="#be591e"/><stop offset="1" stop-color="#a1340d"/></radialGradient><radialGradient id="s" cx="-132" cy="137.57" fx="-132" fy="137.57" r="52.07" gradientTransform="translate(231.47 15.7) rotate(-172.6) scale(.93 -2.27) skewX(-1.17)" xlink:href="#a"/><radialGradient id="t" cx="663.34" cy="119.86" fx="663.34" fy="119.86" r="64.55" gradientTransform="translate(-222.2 117.32) rotate(-7.4) scale(.93 2.27) skewX(-1.17)" xlink:href="#a"/><radialGradient id="u" cx="381.63" cy="1975.01" fx="381.63" fy="1975.01" r="45.47" gradientTransform="translate(165.05 5193.41) rotate(-1.75) scale(1.01 -2.43) skewX(-2.74)" xlink:href="#a"/><clipPath id="d"><path fill="none" d="M1 1h720v420H1z"/></clipPath><clipPath id="g"><path fill="none" d="M0 0h720v420H0z"/></clipPath><clipPath id="h"><path fill="none" d="M204 255h312v165H204z"/></clipPath><linearGradient id="e" x1="361" y1="421" x2="361" y2="1" gradientTransform="matrix(1, 0, 0, 1, 0, 0)" gradientUnits="userSpaceOnUse"><stop offset="0" stop-color="#f8fafc"/><stop offset="1" stop-color="#fff"/></linearGradient><symbol id="f" viewBox="0 0 722 422"><g clip-path="url(#d)"><path fill="url(#e)" d="M1 1h720v420H1z"/><path fill="none" stroke="#f8fafc" stroke-miterlimit="10" stroke-width="2" d="M1 1h60v60H1zm60 0h60v60H61zm60 0h60v60h-60zm60 0h60v60h-60zm60 0h60v60h-60zm60 0h60v60h-60zm60 0h60v60h-60zm60 0h60v60h-60zm60 0h60v60h-60zm60 0h60v60h-60zm60 0h60v60h-60zm60 0h60v60h-60zM1 61h60v60H1zm60 0h60v60H61zm60 0h60v60h-60zm60 0h60v60h-60zm60 0h60v60h-60zm60 0h60v60h-60zm60 0h60v60h-60zm60 0h60v60h-60zm60 0h60v60h-60zm60 0h60v60h-60zm60 0h60v60h-60zm60 0h60v60h-60zM1 121h60v60H1zm60 0h60v60H61zm60 0h60v60h-60zm60 0h60v60h-60zm60 0h60v60h-60zm60 0h60v60h-60zm60 0h60v60h-60zm60 0h60v60h-60zm60 0h60v60h-60zm60 0h60v60h-60zm60 0h60v60h-60zm60 0h60v60h-60zM1 181h60v60H1zm60 0h60v60H61zm60 0h60v60h-60zm60 0h60v60h-60zm60 0h60v60h-60zm60 0h60v60h-60zm60 0h60v60h-60zm60 0h60v60h-60zm60 0h60v60h-60zm60 0h60v60h-60zm60 0h60v60h-60zm60 0h60v60h-60zM1 241h60v60H1zm60 0h60v60H61zm60 0h60v60h-60zm60 0h60v60h-60zm60 0h60v60h-60zm60 0h60v60h-60zm60 0h60v60h-60zm60 0h60v60h-60zm60 0h60v60h-60zm60 0h60v60h-60zm60 0h60v60h-60zm60 0h60v60h-60zM1 301h60v60H1zm60 0h60v60H61zm60 0h60v60h-60zm60 0h60v60h-60zm60 0h60v60h-60zm60 0h60v60h-60zm60 0h60v60h-60zm60 0h60v60h-60zm60 0h60v60h-60zm60 0h60v60h-60zm60 0h60v60h-60zm60 0h60v60h-60zM1 361h60v60H1zm60 0h60v60H61zm60 0h60v60h-60zm60 0h60v60h-60zm60 0h60v60h-60zm60 0h60v60h-60zm60 0h60v60h-60zm60 0h60v60h-60zm60 0h60v60h-60zm60 0h60v60h-60zm60 0h60v60h-60zm60 0h60v60h-60z"/><rect x="16" y="16" width="690" height="390" rx="18" ry="18" fill="none" stroke="#f8fafc" stroke-miterlimit="10" stroke-width="2"/></g></symbol></defs><use width="722" height="422" transform="translate(-1 -1)" xlink:href="#f"/><g clip-path="url(#g)"><g clip-path="url(#h)"><path d="M415 296.09c-4.6-5.14-12.07-11.12-21.8-6.81-14.91 100.94-5.03 198.39-4.93 199.81 1.02 14.68 22.95 21.67 26.31 19.63-10.39-121.58 1.37-154.57.42-212.63Z" fill="url(#c)" fill-rule="evenodd"/><path d="M312.17 477.7c4.62 5.13 12.1 11.1 21.88 6.8 14.94-100.94 5.04-198.4 4.94-199.82-1.03-14.67-23.01-21.66-26.39-19.64 10.43 121.59-1.37 154.58-.43 212.66Z" fill="url(#a)" fill-rule="evenodd"/><path d="M438.23 280.68c-4.02-5.57-14.44-12.8-23.94-9.48-12.45 99.1 2.86 99.75-18.67 240.1-2.15 14.39 22.49 1.62 25.87-.11 19.34-118.99 17.45-178.28 16.73-230.51Z" fill="url(#i)" fill-rule="evenodd"/><path d="M438.23 280.68c-4.39-1.26-9.99 6.03-9.99 7.4-.03 85.08 2.63 111.3-6.74 223.1 17.63-96.98 17.99-177.86 16.74-230.51Z" style="isolation:isolate" fill="#820000" fill-rule="evenodd" opacity=".1"/><path d="M275.19 287.28c-3.43-3.3-11.79-6.95-18.64-3.58-1.95 68.67 9.56 67.28 3.88 165.04-.58 10.06 17.03-1.62 19.38-3.16 5.65-82.99-.2-122.96-4.62-158.3Z" fill="url(#b)" fill-rule="evenodd"/><path d="M275.19 287.28c-3.38-.33-7.04 5.27-6.94 6.19 6.32 57.72 10.26 75.16 11.56 152.1 6-67.85.24-122.75-4.62-158.29Z" style="isolation:isolate" fill="#820000" fill-rule="evenodd" opacity=".1"/><path d="M260.67 523.77c4.29 4.08 14.25 8.09 21.7 2.8-5.71-92.77-18.72-89.64-23.51-221.97-.51-13.63-19.26 4.03-21.78 6.37 3.15 112.42 14.43 165.68 23.59 212.8Z" fill="url(#j)" fill-rule="evenodd"/><path d="M260.67 523.77c3.9.08 7.42-7.87 7.2-9.12-13.88-77.06-20.41-100.16-30.79-203.68.99 92.09 13.92 165.45 23.59 212.8Z" style="isolation:isolate" fill="#820000" fill-rule="evenodd" opacity=".1"/><path d="M366.3 273.08c4.37-5.12 15.22-11.22 24.46-6.92 6.05 100.09-9.25 99.1 3.18 241.26 1.29 14.64-29.49-6.1-32.68-8.12-11.65-120.62.96-174.25 5.04-226.22Z" fill="url(#k)" fill-rule="evenodd"/><path d="M462.19 310.18c-4.47-4.68-5.46-58.9-20.83-42.34-5.48 115.76-20.95 174.48-14.52 211.86 2.09 12.08 15.66-24.38 19.23-25.73 3.87-53 14.61-105.08 16.12-143.79Z" fill="url(#l)" fill-rule="evenodd"/><path d="M275.9 433.2c5.41 3.73 12.28 55.04 27.33 36.96-6.32-110.71 4.36-168.84-6.67-203.34-3.58-11.15-14.54 25.57-18.32 27.38 1.4 50.92-4.82 102-2.34 139Z" fill="url(#m)" fill-rule="evenodd"/><path d="M365.96 276.68c-5.27-4.95-25.81-4.84-26.11.81-2.64 49.78-9.98 122.16-7.29 187.18.59 14.21 25.35 18.23 29.21 16.27-2.74-89.96 4.18-161.66 4.19-204.26Z" fill="url(#n)" fill-rule="evenodd"/><path d="M339.84 277.49c-2.64 49.78-9.98 122.16-7.29 187.18 5.39-51.54 14.12-140.38 14.45-182.41.02-2.3-6.86-6.07-7.17-4.77Z" style="isolation:isolate" fill="#820000" opacity=".1"/><path d="M290.04 502.61c4.36 5.13 21.32 5.01 21.57-.84 2.17-51.57 8.23-126.55 6.01-193.88-.47-14.71-20.94-18.89-24.13-16.85 2.27 93.19-3.45 167.46-3.46 211.58Z" fill="url(#o)" fill-rule="evenodd"/><path d="M311.62 501.78c2.17-51.57 8.23-126.55 6.01-193.88-4.46 53.39-10.51 141.09-15.46 189.35 4.46.77 9.19 5.89 9.45 4.54Z" style="isolation:isolate" fill="#820000" opacity=".1"/><path d="M462.93 516.28c-4.96 4.29-21.71 1.15-21.19-4.68 4.48-51.38 8.14-126.61 19-192.82 2.36-14.46 23.11-14.94 26-12.37-14.23 91.75-18.13 166.24-23.81 209.88Z" fill="url(#p)" fill-rule="evenodd"/><path d="M356.11 341.16c4.42-4.62 11.67-10.11 21.54-6.81 18.39 86.45 11.89 170.96 11.85 172.2-.52 12.71-22.19 19.68-25.61 18.07 6.18-105.34-6.71-133.32-7.78-183.46Z" fill="url(#q)" fill-rule="evenodd"/><path d="M381.6 523.13c3.35 5.12 9.07 11.31 17.84 8.53 23.71-88.95 25.93-177.54 26-178.82.72-13.29-17.19-21.98-20.27-20.53-4.41 110.28-18.03 138.59-23.57 190.81Z" fill="url(#r)" fill-rule="evenodd"/><path d="M296.22 438.8c4.52-38.84 5.21-65.81 5.25-66.5.72-13.28-17.19-21.97-20.27-20.53-1.47 36.86-3.98 64.54-6.87 87.04h21.89Z" fill="url(#s)" fill-rule="evenodd"/><path d="M444.41 434.93c-5.93-51-.2-104.57-.25-105.49-.95-17.44 15.94 5.6 19.99 7.49 1.93 48.4-1.11 65.02 2.69 94.56l-22.42 3.44Z" fill="url(#t)" fill-rule="evenodd"/><path d="M344.73 362.82c-4.4-3.58-10.98-50.86-22.67-34.65 7.41 101.79.08 154.86 9.65 186.79 3.1 10.32 11.11-23.08 14.09-24.65-2.2-46.76 1.7-93.48-1.07-127.49Z" fill="url(#u)" fill-rule="evenodd"/></g></g><path d="M172.51 199.51c0 2.61-2.17 4.7-4.7 4.7h-5.39l-3.82 11.49h2.43c2.61 0 4.7 2.09 4.7 4.7s-2.09 4.79-4.7 4.79h-5.65l-3.65 11.06a5.24 5.24 0 0 1-9.92-3.31l2.61-7.75h-6.87l-3.65 11.06a5.24 5.24 0 0 1-9.92-3.31l2.61-7.75h-1.91c-2.61 0-4.69-2.09-4.69-4.79s2.09-4.7 4.69-4.7h5.13l3.74-11.49h-2.09c-2.52 0-4.69-2.09-4.69-4.7s2.17-4.7 4.69-4.7h5.3l3.74-11.23a5.24 5.24 0 0 1 9.92 3.3l-2.61 7.92h6.78l3.74-11.23a5.17 5.17 0 0 1 4.95-3.57 5.24 5.24 0 0 1 4.96 6.87l-2.69 7.92h2.26c2.52 0 4.7 2.09 4.7 4.7Zm-21.13 4.7h-6.78l-3.74 11.49h6.69l3.83-11.49Zm41.04 27.95v-38.23H181.9c-3.56 0-6.52-2.87-6.52-6.53s2.96-6.53 6.52-6.53h35.82c3.56 0 6.61 2.87 6.61 6.53s-3.04 6.53-6.61 6.53h-10.35v38.23c0 4.09-3.39 7.58-7.48 7.58s-7.48-3.48-7.48-7.58Zm48.6-36.31c12.43 0 21.47 9.14 21.47 19.77 0 4.79-2.87 6.53-8 6.53h-21.91c.78 3.92 4.43 7.49 10.69 7.49 2.35 0 4.96-.61 7.3-1.74a4.44 4.44 0 0 1 2.17-.52 5.1 5.1 0 0 1 2 9.76c-4.09 2-8.69 2.87-13.13 2.87-12.95 0-22.95-8.45-22.95-22.12 0-12.19 9.22-22.03 22.34-22.03Zm-8.61 17.59h17.3c-.35-2.96-2.52-7.23-8.69-7.23-5.82 0-8.09 4.18-8.61 7.23Zm74.86-.78v20.03c0 3.83-2.87 7.05-6.69 7.05a7.13 7.13 0 0 1-6.78-4.96c-2.52 3.14-7.56 5.22-12.95 5.22-6.43 0-14.43-4.35-14.43-13.85 0-10.19 8-13.24 14.43-13.24 5.56 0 10.52 1.74 13.04 4.88v-5.31c0-3.66-3.13-6.1-8.52-6.1-2.87 0-5.74.7-8.61 2.26-.7.35-1.48.61-2.26.61a5.01 5.01 0 0 1-4.96-4.96 5.08 5.08 0 0 1 2.61-4.35 31.57 31.57 0 0 1 15.56-4.09c10.09 0 19.56 3.74 19.56 16.81Zm-13.39 15.5v-3.74c-1.39-1.92-4.52-2.96-7.48-2.96-3.56 0-6.69 1.57-6.69 4.88s3.13 4.88 6.69 4.88c2.95 0 6.08-1.04 7.48-3.05Zm89.37-19.68v24.56a6.64 6.64 0 1 1-13.3 0v-19.68c0-3.22-1.57-5.66-5.56-5.66-3.65 0-6.26 2.35-7.56 4.09v21.25c0 3.66-3.04 6.71-6.69 6.71s-6.69-3.05-6.69-6.71v-19.68c0-3.22-1.48-5.66-5.56-5.66-3.56 0-6.09 2.35-7.48 4.09v21.25c0 3.66-2.96 6.71-6.69 6.71s-6.69-3.05-6.69-6.71v-30.22a6.69 6.69 0 0 1 6.69-6.88 6.73 6.73 0 0 1 6.78 6.01c1.83-2.44 7.22-6.1 13.74-6.1 6 0 10.17 2.53 11.91 7.49 2.44-3.66 7.91-7.49 14.52-7.49 7.74 0 12.61 4.01 12.61 12.63Zm10.18 23.68v-43.37c0-5.14 2.78-7.92 7.91-7.92h21.13c13.04 0 20.17 8.8 20.17 19.33s-7.13 19.07-20.17 19.07h-14.08v12.89c0 4.09-3.3 7.58-7.48 7.58s-7.48-3.48-7.48-7.58Zm27.04-38.67h-12.08v13.06h12.08c4 0 6.96-2.53 6.96-6.44s-2.96-6.62-6.96-6.62Zm64.94 19.17v20.03c0 3.83-2.87 7.05-6.69 7.05a7.13 7.13 0 0 1-6.78-4.96c-2.52 3.14-7.56 5.22-12.95 5.22-6.43 0-14.43-4.35-14.43-13.85 0-10.19 8-13.24 14.43-13.24 5.56 0 10.52 1.74 13.04 4.88v-5.31c0-3.66-3.13-6.1-8.52-6.1-2.87 0-5.74.7-8.61 2.26-.7.35-1.48.61-2.26.61a5.01 5.01 0 0 1-4.96-4.96 5.08 5.08 0 0 1 2.61-4.35 31.57 31.57 0 0 1 15.56-4.09c10.09 0 19.56 3.74 19.56 16.81Zm-13.39 15.5v-3.74c-1.39-1.92-4.52-2.96-7.48-2.96-3.56 0-6.69 1.57-6.69 4.88s3.13 4.88 6.69 4.88c2.95 0 6.08-1.04 7.48-3.05Zm48.78 5.74c0 2.7-1.83 4.79-4.26 5.4-1.48.44-3.39.7-5.48.7-8.52 0-13.13-4.27-13.13-12.37v-19.07h-1.91c-3.22 0-5.82-2.7-5.82-5.83s2.61-5.83 5.82-5.83h1.91v-5.57a6.64 6.64 0 1 1 13.3 0v5.57h3.48a5.82 5.82 0 0 1 0 11.66h-3.48v15.33c0 2.35 1.3 4.18 3.48 4.27h1.3c2.87.17 4.78 2.79 4.78 5.75Zm43.81-21.24v20.03c0 3.83-2.87 7.05-6.69 7.05a7.13 7.13 0 0 1-6.78-4.96c-2.52 3.14-7.56 5.22-12.95 5.22-6.43 0-14.43-4.35-14.43-13.85 0-10.19 8-13.24 14.43-13.24 5.56 0 10.52 1.74 13.04 4.88v-5.31c0-3.66-3.13-6.1-8.52-6.1-2.87 0-5.74.7-8.61 2.26-.69.35-1.48.61-2.26.61a5.01 5.01 0 0 1-4.96-4.96 5.08 5.08 0 0 1 2.61-4.35 31.57 31.57 0 0 1 15.56-4.09c10.09 0 19.56 3.74 19.56 16.81Zm-13.39 15.5v-3.74c-1.39-1.92-4.52-2.96-7.48-2.96-3.56 0-6.69 1.57-6.69 4.88s3.13 4.88 6.69 4.88c2.95 0 6.08-1.04 7.48-3.05ZM600 233.9c0 2.7-1.83 4.79-4.26 5.4-1.48.44-3.39.7-5.48.7-8.52 0-13.13-4.27-13.13-12.37v-19.07h-1.91c-3.22 0-5.82-2.7-5.82-5.83s2.61-5.83 5.82-5.83h1.91v-5.57c0-3.66 2.95-6.71 6.69-6.71s6.61 3.05 6.61 6.71v5.57h3.48a5.82 5.82 0 0 1 0 11.66h-3.48v15.33c0 2.35 1.3 4.18 3.48 4.27h1.3c2.87.17 4.78 2.79 4.78 5.75Z" fill="#376eb0"/></svg>
