<svg xmlns="http://www.w3.org/2000/svg" xmlns:xlink="http://www.w3.org/1999/xlink" viewBox="0 0 720 420"><defs><linearGradient id="b" x1="361" y1="421" x2="361" y2="1" gradientUnits="userSpaceOnUse"><stop offset="0" stop-color="#e2e8f0"/><stop offset="1" stop-color="#f8fafc"/></linearGradient><clipPath id="a"><path fill="none" d="M1 1h720v420H1z"/></clipPath><symbol id="c" viewBox="0 0 722 422"><g clip-path="url(#a)"><path fill="url(#b)" d="M1 1h720v420H1z"/><path fill="none" stroke="#e2e8f0" stroke-miterlimit="10" stroke-width="2" d="M1 1h60v60H1zm60 0h60v60H61zm60 0h60v60h-60zm60 0h60v60h-60zm60 0h60v60h-60zm60 0h60v60h-60zm60 0h60v60h-60zm60 0h60v60h-60zm60 0h60v60h-60zm60 0h60v60h-60zm60 0h60v60h-60zm60 0h60v60h-60zM1 61h60v60H1zm60 0h60v60H61zm60 0h60v60h-60zm60 0h60v60h-60zm60 0h60v60h-60zm60 0h60v60h-60zm60 0h60v60h-60zm60 0h60v60h-60zm60 0h60v60h-60zm60 0h60v60h-60zm60 0h60v60h-60zm60 0h60v60h-60zM1 121h60v60H1zm60 0h60v60H61zm60 0h60v60h-60zm60 0h60v60h-60zm60 0h60v60h-60zm60 0h60v60h-60zm60 0h60v60h-60zm60 0h60v60h-60zm60 0h60v60h-60zm60 0h60v60h-60zm60 0h60v60h-60zm60 0h60v60h-60zM1 181h60v60H1zm60 0h60v60H61zm60 0h60v60h-60zm60 0h60v60h-60zm60 0h60v60h-60zm60 0h60v60h-60zm60 0h60v60h-60zm60 0h60v60h-60zm60 0h60v60h-60zm60 0h60v60h-60zm60 0h60v60h-60zm60 0h60v60h-60zM1 241h60v60H1zm60 0h60v60H61zm60 0h60v60h-60zm60 0h60v60h-60zm60 0h60v60h-60zm60 0h60v60h-60zm60 0h60v60h-60zm60 0h60v60h-60zm60 0h60v60h-60zm60 0h60v60h-60zm60 0h60v60h-60zm60 0h60v60h-60zM1 301h60v60H1zm60 0h60v60H61zm60 0h60v60h-60zm60 0h60v60h-60zm60 0h60v60h-60zm60 0h60v60h-60zm60 0h60v60h-60zm60 0h60v60h-60zm60 0h60v60h-60zm60 0h60v60h-60zm60 0h60v60h-60zm60 0h60v60h-60zM1 361h60v60H1zm60 0h60v60H61zm60 0h60v60h-60zm60 0h60v60h-60zm60 0h60v60h-60zm60 0h60v60h-60zm60 0h60v60h-60zm60 0h60v60h-60zm60 0h60v60h-60zm60 0h60v60h-60zm60 0h60v60h-60zm60 0h60v60h-60z"/><rect x="16" y="16" width="690" height="390" rx="18" fill="none" stroke="#e2e8f0" stroke-miterlimit="10" stroke-width="2"/></g></symbol></defs><use width="722" height="422" transform="translate(-1 -1)" xlink:href="#c"/><path d="M132.66 131.79h80q35.2.28 51 20.22t10.44 54.42a104.25 104.25 0 0 1-9.25 30.92 92.12 92.12 0 0 1-19.09 27.36q-14.92 15.46-31.92 19.63a147.88 147.88 0 0 1-35.21 4.16H142.8L131.47 345H90l42.66-213.21m34.91 33.9-17.9 89.21a22.65 22.65 0 0 0 3.58.29h4.17q28.64.3 47.73-5.65 19.1-6.24 25.66-43.41 5.37-31.23-10.74-36-15.81-4.76-39.68-4.46-3.57.28-6.86.29h-6.26l.3-.29M322.13 75h41.17l-11.63 56.8h37q30.43.6 45.34 12.49 15.22 11.9 8.95 45.2l-20 99H381.2L400.29 194q3-14.88-1.79-21.12t-20.58-6.24l-33.12-.3-24.46 122.17h-41.17L322.13 75m165.1 56.79h79.95q35.21.28 51 20.22t10.44 54.42a104.25 104.25 0 0 1-9.25 30.92 92.12 92.12 0 0 1-19.09 27.36q-14.92 15.46-31.92 19.63a147.88 147.88 0 0 1-35.21 4.16h-35.8L486 345h-41.43l42.66-213.21m34.91 33.9-17.9 89.21a22.65 22.65 0 0 0 3.58.29H512q28.65.3 47.73-5.65 19.1-6.24 25.66-43.41 5.37-31.23-10.74-36-15.81-4.76-39.68-4.46-3.57.28-6.86.29h-6.26l.3-.29" opacity=".5" fill="none" stroke="#e2e8f0" stroke-miterlimit="10" stroke-width="3"/><path d="M227.5 243.57V175.5h21.59a28.35 28.35 0 0 1 12.4 2.52 19 19 0 0 1 8.13 7.18 20.51 20.51 0 0 1 2.89 11 22.39 22.39 0 0 1-3.17 11.8 18.32 18.32 0 0 1-8.59 7.55l12.68 28h-15l-10.83-25.74h-6.43v25.74Zm13.69-37.86h7.9q4.59 0 7.11-2.33a8.42 8.42 0 0 0 2.53-6.53 9 9 0 0 0-2.53-6.8q-2.52-2.43-7.11-2.43h-7.9Zm56.49 38.79q-7.64 0-12.08-4.19t-4.46-11.38q0-7.83 5.51-12t15.8-4.15h9.65v-3.73a5.74 5.74 0 0 0-2.12-4.76 9.19 9.19 0 0 0-5.87-1.68 10.09 10.09 0 0 0-5.84 1.5 4.63 4.63 0 0 0-2.16 4h-12.86a15.3 15.3 0 0 1 6-12.27q5.79-4.51 15.44-4.52 9.82 0 15.52 4.71t5.7 13v34.5h-13.35v-7.93h-.28a11.36 11.36 0 0 1-5 6.53 17.92 17.92 0 0 1-9.6 2.37Zm5.14-10.16a10.18 10.18 0 0 0 6.66-2.15 7 7 0 0 0 2.62-5.69v-5.4h-9.37a8.7 8.7 0 0 0-5.74 1.72 5.91 5.91 0 0 0-2.07 4.8 6.11 6.11 0 0 0 2.11 4.95 8.75 8.75 0 0 0 5.79 1.77Zm31.32 9.23L351.59 217l-16.25-24.71h15.34l6.24 10.26a22.65 22.65 0 0 1 1.38 2.7c.43 1 .77 1.81 1 2.43a52.83 52.83 0 0 1 2.39-5.13l6.24-10.26h15.35L367.12 217l17.36 26.58h-15.34l-7.35-12.12c-.49-.87-1-1.79-1.42-2.75s-.82-1.76-1.06-2.38c-.24.62-.58 1.41-1 2.38s-.89 1.88-1.38 2.75l-7.44 12.12Zm80.28.93a25 25 0 0 1-11.66-2.56 18.55 18.55 0 0 1-7.67-7.18 20.86 20.86 0 0 1-2.71-10.76v-12.14a20.8 20.8 0 0 1 2.71-10.76 18.48 18.48 0 0 1 7.67-7.18 27.85 27.85 0 0 1 23.37 0 18.62 18.62 0 0 1 7.63 7.18 20.9 20.9 0 0 1 2.71 10.76V224a21 21 0 0 1-2.71 10.77 18.69 18.69 0 0 1-7.63 7.18 25 25 0 0 1-11.71 2.55Zm0-12.12a8.17 8.17 0 0 0 6.16-2.19 8.61 8.61 0 0 0 2.11-6.2v-12.13a8.57 8.57 0 0 0-2.11-6.24 9.83 9.83 0 0 0-12.27 0c-1.44 1.43-2.15 3.51-2.15 6.24V224a8.45 8.45 0 0 0 2.15 6.2 8.2 8.2 0 0 0 6.11 2.18Zm53 12.12a27.72 27.72 0 0 1-10.93-2 17.3 17.3 0 0 1-7.3-5.55 13.62 13.62 0 0 1-2.62-8.3h13.78q0 5.22 7.07 5.22h4q7.73 0 7.72-5 0-4.56-7.16-5.59l-7.26-.93Q448 220.17 448 206.46q0-7.47 5-11.29t14.79-3.82h3.49q9.28 0 14.79 4.1a13 13 0 0 1 5.51 11h-13.69q0-4.49-6.52-4.48h-3.49q-6.53 0-6.52 4.48 0 4.18 6 5l7.44 1q17.73 2.23 17.73 16.13c0 5-1.78 8.94-5.33 11.7s-8.79 4.15-15.71 4.15Z" fill="#4f5a94"/></svg>
