<svg xmlns="http://www.w3.org/2000/svg" xmlns:xlink="http://www.w3.org/1999/xlink" viewBox="0 0 720 420"><defs><radialGradient id="a" cx="525.34" cy="49.28" r="71.08" gradientTransform="matrix(0.98, 0, 0, -2.29, -106.12, 107.49)" gradientUnits="userSpaceOnUse"><stop offset="0" stop-color="#ffd86b"/><stop offset=".6" stop-color="#f5a240"/><stop offset=".68" stop-color="#e58e37"/><stop offset=".84" stop-color="#be591e"/><stop offset=".95" stop-color="#a1340d"/></radialGradient><radialGradient id="b" cx="-9369.04" cy="-773.52" r="71.05" gradientTransform="matrix(-0.98, 0, 0, 2.29, -8864.66, 1733.7)" gradientUnits="userSpaceOnUse"><stop offset=".44" stop-color="#ffd86b"/><stop offset=".75" stop-color="#f5a240"/><stop offset=".8" stop-color="#e58e37"/><stop offset=".89" stop-color="#be591e"/><stop offset=".95" stop-color="#a1340d"/></radialGradient><radialGradient id="c" cx="135.02" cy="-8.82" r="47.88" gradientTransform="matrix(1.02, -0.06, -0.11, -2.77, 101.45, -67.01)" gradientUnits="userSpaceOnUse"><stop offset="0" stop-color="#ffd86b"/><stop offset=".75" stop-color="#f5a240"/><stop offset=".8" stop-color="#e58e37"/><stop offset=".89" stop-color="#be591e"/><stop offset=".95" stop-color="#a1340d"/></radialGradient><radialGradient id="d" cx="-9728.75" cy="-764.75" r="50.57" gradientTransform="matrix(-0.93, 0, 0, 3.45, -8739.65, 2652.87)" gradientUnits="userSpaceOnUse"><stop offset=".04" stop-color="#ffd86b"/><stop offset=".68" stop-color="#f5a240"/><stop offset=".76" stop-color="#e58e37"/><stop offset=".9" stop-color="#be591e"/><stop offset="1" stop-color="#a1340d"/></radialGradient><radialGradient id="e" cx="-9657.32" cy="-1022.72" r="53.81" gradientTransform="matrix(-0.92, -0.12, -0.27, 2.27, -8769.36, 1134.31)" gradientUnits="userSpaceOnUse"><stop offset=".24" stop-color="#ffd86b"/><stop offset=".36" stop-color="#fed468"/><stop offset=".49" stop-color="#fcc75e"/><stop offset=".63" stop-color="#f8b34d"/><stop offset=".71" stop-color="#f5a240"/><stop offset=".78" stop-color="#e58e37"/><stop offset=".91" stop-color="#be591e"/><stop offset="1" stop-color="#a1340d"/></radialGradient><radialGradient id="j" cx="525.34" cy="-137.15" r="71.08" xlink:href="#a"/><radialGradient id="k" cx="-9369.04" cy="-587.09" r="71.05" xlink:href="#b"/><radialGradient id="l" cx="805.58" cy="85.77" r="69.96" gradientTransform="matrix(0.92, 0.1, 0.18, -2.77, -334.67, 563.09)" xlink:href="#b"/><radialGradient id="m" cx="119.21" cy="-162.08" r="47.88" xlink:href="#c"/><radialGradient id="n" cx="-11088.92" cy="-330.51" r="78.61" gradientTransform="matrix(-0.71, 0.12, 0.27, 2.27, -7503.2, 2503.1)" xlink:href="#b"/><radialGradient id="o" cx="-9644.01" cy="-74.87" r="70.1" gradientTransform="translate(-8558.7 189.78) rotate(180) scale(0.93 2.78)" xlink:href="#c"/><radialGradient id="p" cx="404.83" cy="159.57" r="63.74" gradientTransform="matrix(1.01, 0.1, 0.17, -2.44, 26.56, 739.5)" xlink:href="#b"/><radialGradient id="q" cx="-7761.63" cy="-598.64" r="49.35" gradientTransform="matrix(-1.44, 0.08, 0.1, 3.02, -10860.35, 2812.9)" xlink:href="#b"/><radialGradient id="r" cx="-172.09" cy="-7.63" r="50.57" gradientTransform="matrix(1.12, 0, 0, -3.33, 545.16, 350.72)" xlink:href="#b"/><radialGradient id="s" cx="-9728.75" cy="-641.31" r="50.57" xlink:href="#d"/><radialGradient id="t" cx="852.17" cy="-855.6" r="50.57" gradientTransform="matrix(0.92, 0.17, -0.44, 3.41, -668.97, 3212.08)" xlink:href="#b"/><radialGradient id="u" cx="-9471.67" cy="-174.36" r="71.08" gradientTransform="matrix(-0.98, 0.04, -0.08, -1.97, -8908.41, 424.19)" xlink:href="#a"/><radialGradient id="v" cx="-9712.42" cy="-837.74" r="53.81" xlink:href="#e"/><radialGradient id="w" cx="-9604.59" cy="-857.52" r="64.29" gradientTransform="matrix(-0.92, -0.12, -0.27, 2.27, -8770.17, 1140.95)" xlink:href="#b"/><radialGradient id="x" cx="798.68" cy="-369.73" r="79.69" gradientTransform="matrix(0.92, -0.12, 0.27, 2.27, -201.44, 1243.15)" xlink:href="#b"/><radialGradient id="y" cx="230.38" cy="-80.98" r="56.14" gradientTransform="matrix(1.01, -0.03, -0.12, -2.44, 51.1, 217.85)" xlink:href="#b"/><clipPath id="f"><path fill="none" d="M1 1h720v420H1z"/></clipPath><clipPath id="i"><path fill="none" d="M0 0h720v420H0z"/></clipPath><linearGradient id="g" x1="361" y1="421" x2="361" y2="1" gradientUnits="userSpaceOnUse"><stop offset="0" stop-color="#e2e8f0"/><stop offset="1" stop-color="#f8fafc"/></linearGradient><symbol id="h" viewBox="0 0 722 422"><g clip-path="url(#f)"><path fill="url(#g)" d="M1 1h720v420H1z"/><path fill="none" stroke="#e2e8f0" stroke-miterlimit="10" stroke-width="2" d="M1 1h60v60H1zm60 0h60v60H61zm60 0h60v60h-60zm60 0h60v60h-60zm60 0h60v60h-60zm60 0h60v60h-60zm60 0h60v60h-60zm60 0h60v60h-60zm60 0h60v60h-60zm60 0h60v60h-60zm60 0h60v60h-60zm60 0h60v60h-60zM1 61h60v60H1zm60 0h60v60H61zm60 0h60v60h-60zm60 0h60v60h-60zm60 0h60v60h-60zm60 0h60v60h-60zm60 0h60v60h-60zm60 0h60v60h-60zm60 0h60v60h-60zm60 0h60v60h-60zm60 0h60v60h-60zm60 0h60v60h-60zM1 121h60v60H1zm60 0h60v60H61zm60 0h60v60h-60zm60 0h60v60h-60zm60 0h60v60h-60zm60 0h60v60h-60zm60 0h60v60h-60zm60 0h60v60h-60zm60 0h60v60h-60zm60 0h60v60h-60zm60 0h60v60h-60zm60 0h60v60h-60zM1 181h60v60H1zm60 0h60v60H61zm60 0h60v60h-60zm60 0h60v60h-60zm60 0h60v60h-60zm60 0h60v60h-60zm60 0h60v60h-60zm60 0h60v60h-60zm60 0h60v60h-60zm60 0h60v60h-60zm60 0h60v60h-60zm60 0h60v60h-60zM1 241h60v60H1zm60 0h60v60H61zm60 0h60v60h-60zm60 0h60v60h-60zm60 0h60v60h-60zm60 0h60v60h-60zm60 0h60v60h-60zm60 0h60v60h-60zm60 0h60v60h-60zm60 0h60v60h-60zm60 0h60v60h-60zm60 0h60v60h-60zM1 301h60v60H1zm60 0h60v60H61zm60 0h60v60h-60zm60 0h60v60h-60zm60 0h60v60h-60zm60 0h60v60h-60zm60 0h60v60h-60zm60 0h60v60h-60zm60 0h60v60h-60zm60 0h60v60h-60zm60 0h60v60h-60zm60 0h60v60h-60zM1 361h60v60H1zm60 0h60v60H61zm60 0h60v60h-60zm60 0h60v60h-60zm60 0h60v60h-60zm60 0h60v60h-60zm60 0h60v60h-60zm60 0h60v60h-60zm60 0h60v60h-60zm60 0h60v60h-60zm60 0h60v60h-60zm60 0h60v60h-60z"/><rect x="16" y="16" width="690" height="390" rx="18" fill="none" stroke="#e2e8f0" stroke-miterlimit="10" stroke-width="2"/></g></symbol></defs><use width="722" height="422" transform="translate(-1 -1)" xlink:href="#h"/><path d="M198.72 202a4.42 4.42 0 0 1-4.36 4.41h-5l-3.55 10.79h2.26a4.46 4.46 0 0 1 0 8.91h-5.24l-3.39 10.38a4.81 4.81 0 0 1-4.6 3.36 4.89 4.89 0 0 1-4.84-4.91 4.84 4.84 0 0 1 .24-1.55l2.43-7.28h-6.38l-3.38 10.38a4.81 4.81 0 0 1-4.6 3.36 4.89 4.89 0 0 1-4.84-4.91 4.84 4.84 0 0 1 .24-1.55l2.42-7.28h-1.78a4.46 4.46 0 0 1 0-8.91h4.76l3.47-10.79h-1.93a4.42 4.42 0 0 1 0-8.83h4.92L169 187a4.79 4.79 0 0 1 4.59-3.35 4.94 4.94 0 0 1 4.6 6.46l-2.42 7.43h6.29l3.51-10.54a4.81 4.81 0 0 1 4.6-3.35 4.89 4.89 0 0 1 4.84 4.9 4.6 4.6 0 0 1-.25 1.56l-2.5 7.43h2.1a4.43 4.43 0 0 1 4.36 4.46Zm-19.6 4.41h-6.29l-3.47 10.79h6.21Zm38.07 26.23v-35.88h-9.76a6.13 6.13 0 0 1 0-12.26h33.23a6.13 6.13 0 0 1 0 12.26h-9.6v35.88a6.94 6.94 0 1 1-13.87 0Zm45.09-34.08c11.53 0 19.92 8.58 19.92 18.55 0 4.5-2.66 6.13-7.42 6.13h-20.32c.72 3.68 4.11 7 9.92 7a15.9 15.9 0 0 0 6.77-1.63 4.08 4.08 0 0 1 2-.49 4.78 4.78 0 0 1 1.85 9.18 27.56 27.56 0 0 1-12.18 2.7c-12 0-21.29-7.93-21.29-20.76a20.24 20.24 0 0 1 20.75-20.68Zm-8 16.51h16.06c-.33-2.78-2.34-6.79-8.07-6.79a7.75 7.75 0 0 0-7.98 6.79Zm69.46-.74v18.8a6.38 6.38 0 0 1-6.21 6.62 6.63 6.63 0 0 1-6.29-4.65c-2.34 2.94-7 4.9-12 4.9-6 0-13.39-4.09-13.39-13 0-9.56 7.42-12.42 13.39-12.42 5.16 0 9.76 1.63 12.1 4.57v-5c0-3.43-2.9-5.72-7.9-5.72a16.25 16.25 0 0 0-8 2.12 4.5 4.5 0 0 1-6.69-4.08 4.76 4.76 0 0 1 2.42-4.09 28.94 28.94 0 0 1 14.43-3.84c9.4.02 18.14 3.53 18.14 15.79Zm-12.42 14.55v-3.51c-1.29-1.8-4.19-2.78-6.94-2.78-3.3 0-6.21 1.47-6.21 4.58s2.91 4.57 6.21 4.57c2.75 0 5.62-.98 6.94-2.86Zm82.92-18.47v23.05a6.17 6.17 0 1 1-12.34 0V215c0-3-1.45-5.32-5.16-5.32a9 9 0 0 0-7 3.84v20a6.21 6.21 0 1 1-12.42 0V215c0-3-1.37-5.32-5.17-5.32-3.3 0-5.64 2.21-6.93 3.84v20a6.21 6.21 0 1 1-12.42 0V205.1a6.27 6.27 0 0 1 12.5-.82c1.7-2.28 6.7-5.72 12.7-5.72 5.57 0 9.44 2.37 11.05 7a16.69 16.69 0 0 1 13.47-7c7.2 0 11.72 3.76 11.72 11.85Zm9.44 22.23v-40.71c0-4.82 2.58-7.43 7.34-7.43H438a5.93 5.93 0 0 1 0 11.85h-20.45v9.07h19.84a6 6 0 0 1 0 11.94h-19.84v15.28a6.94 6.94 0 1 1-13.87 0Zm72.19-28.44c0 3.18-1.7 5.8-5.41 6.29-2.33.33-6.12 1.23-7.74 3.52v19.45a6.21 6.21 0 1 1-12.42 0v-28.12a6.31 6.31 0 0 1 6.21-6.54 6.13 6.13 0 0 1 6.29 5.56 14.46 14.46 0 0 1 5-4.9 7.26 7.26 0 0 1 2.83-.74 5.21 5.21 0 0 1 5.24 5.48Zm3.79-17.01a7.1 7.1 0 1 1 7.1 7.28 7.11 7.11 0 0 1-7.1-7.28Zm.89 46.27V205.1a6.21 6.21 0 1 1 12.42 0v28.36a6.21 6.21 0 1 1-12.42 0Zm39.6-34.9c11.54 0 19.92 8.58 19.92 18.55 0 4.5-2.66 6.13-7.42 6.13h-20.32c.72 3.68 4.11 7 9.92 7a15.83 15.83 0 0 0 6.77-1.63 4.08 4.08 0 0 1 2-.49 4.78 4.78 0 0 1 1.85 9.15 27.55 27.55 0 0 1-12.17 2.7c-12 0-21.3-7.93-21.3-20.76a20.24 20.24 0 0 1 20.75-20.65Zm-8 16.51h16.05c-.33-2.78-2.34-6.79-8.07-6.79a7.73 7.73 0 0 0-7.96 6.79ZM570 234.28a5.18 5.18 0 0 1-4 5.07 18.67 18.67 0 0 1-5 .65c-7.91 0-12.18-4-12.18-11.61v-17.9H547a5.48 5.48 0 0 1 0-11h1.78v-5.19a6.17 6.17 0 1 1 12.34 0v5.24h3.22a5.48 5.48 0 0 1 0 11h-3.22v14.39c0 2.2 1.21 3.92 3.22 4h1.21c2.68.12 4.45 2.57 4.45 5.35Z" fill="#044663"/><g clip-path="url(#i)"><path d="M425.62 293.79c-5.68-6.38-14.91-13.81-26.95-8.46-18.43 125.34-6.21 246.36-6.09 248.13 1.27 18.22 28.37 26.91 32.52 24.38-12.85-150.98 1.7-191.95.52-264.05Z" fill-rule="evenodd" fill="url(#j)"/><path d="M298.51 519.32c5.71 6.37 15 13.78 27.05 8.44 18.47-125.34 6.23-246.37 6.11-248.14-1.27-18.21-28.45-26.89-32.62-24.38 12.89 150.98-1.7 191.96-.54 264.08Z" fill-rule="evenodd" fill="url(#k)"/><path d="M454.35 274.66c-5-6.91-17.86-15.89-29.59-11.77C409.37 386 428.29 386.75 401.68 561c-2.66 17.88 27.8 2 32-.14 23.9-147.72 21.55-221.34 20.67-286.2Z" fill-rule="evenodd" fill="url(#l)"/><path d="M454.35 274.66c-5.43-1.57-12.35 7.49-12.36 9.19 0 105.65 3.25 138.21-8.33 277 21.8-120.38 22.24-220.85 20.69-286.19Z" fill="#820000" fill-rule="evenodd" opacity=".1" style="isolation:isolate"/><path d="M252.79 282.85c-4.24-4.09-14.57-8.63-23-4.44-2.41 85.27 11.82 83.55 4.8 205-.73 12.49 21-2 24-3.93 6.9-103.1-.33-152.75-5.8-196.63Z" fill-rule="evenodd" fill="url(#m)"/><path d="M252.79 282.85c-4.18-.41-8.7 6.54-8.58 7.69 7.81 71.67 12.69 93.34 14.29 188.88 7.41-84.26.3-152.42-5.71-196.57Z" fill="#820000" fill-rule="evenodd" opacity=".1" style="isolation:isolate"/><path d="M234.85 576.52c5.29 5.07 17.62 10.05 26.82 3.47-7.06-115.19-23.14-111.31-29.07-275.63-.62-16.93-23.81 5-26.92 7.91 3.9 139.6 17.85 205.73 29.17 264.25Z" fill-rule="evenodd" fill="url(#n)"/><path d="M234.85 576.52c4.82.09 9.17-9.78 8.9-11.33-17.16-95.69-25.23-124.37-38.06-252.93 1.22 114.36 17.21 205.45 29.16 264.26Z" fill="#820000" fill-rule="evenodd" opacity=".1" style="isolation:isolate"/><path d="M365.43 265.22c5.4-6.36 18.81-13.94 30.24-8.59 7.47 124.29-11.43 123.07 3.93 299.6 1.59 18.17-36.46-7.57-40.4-10.09-14.4-149.79 1.19-216.38 6.23-280.92Z" fill-rule="evenodd" fill="url(#o)"/><path d="M484 311.29c-5.52-5.81-6.75-73.14-25.75-52.58-6.78 143.75-25.91 216.66-18 263.08 2.58 15 19.36-30.27 23.77-31.94C468.82 424 482.1 359.36 484 311.29Z" fill-rule="evenodd" fill="url(#p)"/><path d="M253.67 464.05c6.68 4.63 15.17 68.34 33.79 45.89-7.82-137.48 5.39-209.66-8.25-252.51-4.43-13.84-18 31.76-22.65 34 1.73 63.23-5.95 126.67-2.89 172.62Z" fill-rule="evenodd" fill="url(#q)"/><path d="M365 269.69c-6.52-6.16-31.91-6-32.28 1-3.26 61.82-12.33 151.7-9 232.44.73 17.64 31.34 22.63 36.11 20.2-3.39-111.71 5.17-200.74 5.17-253.64Z" fill-rule="evenodd" fill="url(#r)"/><path d="M332.72 270.69c-3.26 61.82-12.34 151.7-9 232.44 6.66-64 17.45-174.32 17.86-226.52.02-2.85-8.49-7.54-8.86-5.92Z" fill="#820000" opacity=".1" style="isolation:isolate"/><path d="M271.16 550.25c5.38 6.37 26.35 6.22 26.66-1 2.68-64 10.18-157.15 7.43-240.77-.58-18.26-25.88-23.45-29.82-20.93 2.8 115.69-4.27 207.91-4.27 262.7Z" fill-rule="evenodd" fill="url(#s)"/><path d="M297.82 549.21c2.68-64 10.18-157.14 7.43-240.76-5.51 66.3-13 175.2-19.11 235.13 5.52.96 11.37 7.31 11.68 5.63Z" fill="#820000" opacity=".1" style="isolation:isolate"/><path d="M484.88 567.22c-6.13 5.33-26.84 1.42-26.2-5.82 5.54-63.8 10.06-157.22 23.49-239.44 2.92-17.95 28.57-18.55 32.15-15.36-17.6 113.94-22.41 206.4-29.44 260.62Z" fill-rule="evenodd" fill="url(#t)"/><path d="M352.83 349.76c5.46-5.73 14.42-12.55 26.63-8.46 22.73 107.36 14.69 212.31 14.64 213.84-.64 15.79-27.43 24.44-31.66 22.44 7.65-130.82-8.29-165.58-9.61-227.82Z" fill-rule="evenodd" fill="url(#u)"/><path d="M384.33 575.73c4.15 6.36 11.21 14 22.05 10.6 29.31-110.46 32.06-220.46 32.14-222.05.89-16.5-21.25-27.3-25.06-25.5-5.46 136.95-22.29 172.1-29.13 236.95Z" fill-rule="evenodd" fill="url(#v)"/><path d="M278.78 471c5.59-48.24 6.44-81.73 6.49-82.59.89-16.49-21.25-27.28-25.06-25.49-1.82 45.77-4.92 80.14-8.49 108.08Z" fill-rule="evenodd" fill="url(#w)"/><path d="M462 466.21c-7.33-63.34-.24-129.86-.31-131-1.16-21.65 19.71 6.95 24.71 9.3 2.39 60.1-1.37 80.74 3.32 117.43Z" fill-rule="evenodd" fill="url(#x)"/><path d="M338.76 376.66c-5.44-4.45-13.58-63.16-28-43 9.17 126.4.1 192.3 11.93 232 3.83 12.81 13.73-28.66 17.42-30.62-2.75-58.13 2.07-116.15-1.35-158.38Z" fill-rule="evenodd" fill="url(#y)"/></g></svg>
