<svg xmlns="http://www.w3.org/2000/svg" xmlns:xlink="http://www.w3.org/1999/xlink" viewBox="0 0 720 420"><defs><clipPath id="a"><path fill="none" d="M1 1h720v420H1z"/></clipPath><clipPath id="d"><path fill="none" d="M374.37 126h203.81v170.74H374.37z"/></clipPath><clipPath id="e"><path fill="none" d="M347.39 168.77 541.7 79.81l75.01 163.47-194.31 88.94-75.01-163.45z"/></clipPath><clipPath id="f"><path fill="none" d="M578.57 199.3H655v76.32h-76.43z"/></clipPath><clipPath id="g"><path fill="none" d="M537.95 276.13h25.91V302h-25.91z"/></clipPath><linearGradient id="b" x1="361" y1="421" x2="361" y2="1" gradientUnits="userSpaceOnUse"><stop offset="0" stop-color="#e2e8f0"/><stop offset="1" stop-color="#f8fafc"/></linearGradient><symbol id="c" viewBox="0 0 722 422"><g clip-path="url(#a)"><path fill="url(#b)" d="M1 1h720v420H1z"/><path fill="none" stroke="#e2e8f0" stroke-miterlimit="10" stroke-width="2" d="M1 1h60v60H1zm60 0h60v60H61zm60 0h60v60h-60zm60 0h60v60h-60zm60 0h60v60h-60zm60 0h60v60h-60zm60 0h60v60h-60zm60 0h60v60h-60zm60 0h60v60h-60zm60 0h60v60h-60zm60 0h60v60h-60zm60 0h60v60h-60zM1 61h60v60H1zm60 0h60v60H61zm60 0h60v60h-60zm60 0h60v60h-60zm60 0h60v60h-60zm60 0h60v60h-60zm60 0h60v60h-60zm60 0h60v60h-60zm60 0h60v60h-60zm60 0h60v60h-60zm60 0h60v60h-60zm60 0h60v60h-60zM1 121h60v60H1zm60 0h60v60H61zm60 0h60v60h-60zm60 0h60v60h-60zm60 0h60v60h-60zm60 0h60v60h-60zm60 0h60v60h-60zm60 0h60v60h-60zm60 0h60v60h-60zm60 0h60v60h-60zm60 0h60v60h-60zm60 0h60v60h-60zM1 181h60v60H1zm60 0h60v60H61zm60 0h60v60h-60zm60 0h60v60h-60zm60 0h60v60h-60zm60 0h60v60h-60zm60 0h60v60h-60zm60 0h60v60h-60zm60 0h60v60h-60zm60 0h60v60h-60zm60 0h60v60h-60zm60 0h60v60h-60zM1 241h60v60H1zm60 0h60v60H61zm60 0h60v60h-60zm60 0h60v60h-60zm60 0h60v60h-60zm60 0h60v60h-60zm60 0h60v60h-60zm60 0h60v60h-60zm60 0h60v60h-60zm60 0h60v60h-60zm60 0h60v60h-60zm60 0h60v60h-60zM1 301h60v60H1zm60 0h60v60H61zm60 0h60v60h-60zm60 0h60v60h-60zm60 0h60v60h-60zm60 0h60v60h-60zm60 0h60v60h-60zm60 0h60v60h-60zm60 0h60v60h-60zm60 0h60v60h-60zm60 0h60v60h-60zm60 0h60v60h-60zM1 361h60v60H1zm60 0h60v60H61zm60 0h60v60h-60zm60 0h60v60h-60zm60 0h60v60h-60zm60 0h60v60h-60zm60 0h60v60h-60zm60 0h60v60h-60zm60 0h60v60h-60zm60 0h60v60h-60zm60 0h60v60h-60zm60 0h60v60h-60z"/><rect x="16" y="16" width="690" height="390" rx="18" fill="none" stroke="#e2e8f0" stroke-miterlimit="10" stroke-width="2"/></g></symbol></defs><use width="722" height="422" transform="translate(-1 -1)" xlink:href="#c"/><g clip-path="url(#d)"><g clip-path="url(#e)"><path d="M512 281.61c-35.65 26.1-86.22 16.66-110.82-19.9-28.75-42.82-48.32-95.42 21.7-127.47 37.41-17.12 82.38-3.12 124 18 34 17.27 40.67 63 12.73 89-15.22 14.16-31.23 28.49-47.57 40.44" fill="#f4d532"/></g></g><g clip-path="url(#f)"><path d="M616.78 199.3A38.16 38.16 0 1 0 655 237.45a38.23 38.23 0 0 0-38.22-38.15Z" fill="#f4d532"/></g><path d="M246.23 186.6h-13.44l-7.48 30.58-9.41-30.58h-10.59l-9.41 30.53-7.48-30.53H175l13.42 47.4h11.4l10.79-31.63L221.46 234h11.31Zm50.14 25.46c0-19.14-10.88-25.89-22.64-25.89-11 0-23.49 6.73-23.49 24.42 0 17.42 12.62 24.08 23.38 24.08 11.5 0 18.72-4.66 21.47-14.23h-11.61c-1.36 2.74-4.11 4.38-9.13 4.38-6.48 0-10.21-3-11.23-10.29h33.16a21.94 21.94 0 0 0 .09-2.47Zm-33.16-5.74c1-6.94 4.66-10.32 10.52-10.32 6.28 0 9.75 4.11 9.94 10.32Zm67.84-20.15c-8.12 0-12.78 4.56-14.16 10.94v-10.49h-13.3V234h13.33v-25.22c1.09-6.55 5.39-10.67 15.15-10.67.64 0 1.28 0 3.11.08v-11.65a18.89 18.89 0 0 0-4.11-.37ZM371.69 234 390 186.6h-13.37l-12.23 34.13-12.33-34.11h-13.33L357 234Zm24.56-64.61v10.13h13.34v-10.13Zm0 17.23V234h13.34v-47.4Zm51.42-.45a17 17 0 0 0-15.25 9.83v-9.38h-13.34V234h13.34v-28c.45-3 3.64-8.85 10.31-8.85 4.75 0 8.5 2.47 8.5 9V234h13.33v-28.51c0-14.4-7.13-19.32-16.89-19.32Zm47.57 37.74c-6.58 0-10.61-4.66-10.61-13.49 0-8.66 3.94-13.5 10.5-13.5 5.48 0 7.5 2.65 8.4 6.38h12.24c-2.47-13.85-12.24-17.13-20.72-17.13-10.89 0-23.29 6.47-23.29 24.25s12.51 24.25 23.37 24.25c8.22 0 18.73-3.47 21-17.59h-12c-1.09 3.91-3.37 6.83-8.95 6.83Zm28.22-5.02V234h14.42v-15.11Z"/><g clip-path="url(#g)"><path d="M550.9 276.13a12.94 12.94 0 1 0 13 12.94 13 13 0 0 0-13-12.94Z" fill="#f4d532"/></g></svg>
