<svg xmlns="http://www.w3.org/2000/svg" xmlns:xlink="http://www.w3.org/1999/xlink" viewBox="0 0 720 420"><defs><linearGradient id="b" x1="361" y1="421" x2="361" y2="1" gradientUnits="userSpaceOnUse"><stop offset="0" stop-color="#e2e8f0"/><stop offset="1" stop-color="#f8fafc"/></linearGradient><clipPath id="a"><path fill="none" d="M1 1h720v420H1z"/></clipPath><symbol id="c" viewBox="0 0 722 422"><g clip-path="url(#a)"><path fill="url(#b)" d="M1 1h720v420H1z"/><path fill="none" stroke="#e2e8f0" stroke-miterlimit="10" stroke-width="2" d="M1 1h60v60H1zm60 0h60v60H61zm60 0h60v60h-60zm60 0h60v60h-60zm60 0h60v60h-60zm60 0h60v60h-60zm60 0h60v60h-60zm60 0h60v60h-60zm60 0h60v60h-60zm60 0h60v60h-60zm60 0h60v60h-60zm60 0h60v60h-60zM1 61h60v60H1zm60 0h60v60H61zm60 0h60v60h-60zm60 0h60v60h-60zm60 0h60v60h-60zm60 0h60v60h-60zm60 0h60v60h-60zm60 0h60v60h-60zm60 0h60v60h-60zm60 0h60v60h-60zm60 0h60v60h-60zm60 0h60v60h-60zM1 121h60v60H1zm60 0h60v60H61zm60 0h60v60h-60zm60 0h60v60h-60zm60 0h60v60h-60zm60 0h60v60h-60zm60 0h60v60h-60zm60 0h60v60h-60zm60 0h60v60h-60zm60 0h60v60h-60zm60 0h60v60h-60zm60 0h60v60h-60zM1 181h60v60H1zm60 0h60v60H61zm60 0h60v60h-60zm60 0h60v60h-60zm60 0h60v60h-60zm60 0h60v60h-60zm60 0h60v60h-60zm60 0h60v60h-60zm60 0h60v60h-60zm60 0h60v60h-60zm60 0h60v60h-60zm60 0h60v60h-60zM1 241h60v60H1zm60 0h60v60H61zm60 0h60v60h-60zm60 0h60v60h-60zm60 0h60v60h-60zm60 0h60v60h-60zm60 0h60v60h-60zm60 0h60v60h-60zm60 0h60v60h-60zm60 0h60v60h-60zm60 0h60v60h-60zm60 0h60v60h-60zM1 301h60v60H1zm60 0h60v60H61zm60 0h60v60h-60zm60 0h60v60h-60zm60 0h60v60h-60zm60 0h60v60h-60zm60 0h60v60h-60zm60 0h60v60h-60zm60 0h60v60h-60zm60 0h60v60h-60zm60 0h60v60h-60zm60 0h60v60h-60zM1 361h60v60H1zm60 0h60v60H61zm60 0h60v60h-60zm60 0h60v60h-60zm60 0h60v60h-60zm60 0h60v60h-60zm60 0h60v60h-60zm60 0h60v60h-60zm60 0h60v60h-60zm60 0h60v60h-60zm60 0h60v60h-60zm60 0h60v60h-60z"/><rect x="16" y="16" width="690" height="390" rx="18" fill="none" stroke="#e2e8f0" stroke-miterlimit="10" stroke-width="2"/></g></symbol></defs><use width="722" height="422" transform="translate(-1 -1)" xlink:href="#c"/><path d="M360 17c-106.42 0-193 86.58-193 193s86.58 193 193 193 193-86.59 193-193S466.42 17 360 17ZM186.48 210a173 173 0 0 1 15-70.62l82.78 226.79A173.53 173.53 0 0 1 186.48 210ZM360 383.53a173.56 173.56 0 0 1-49-7.07l52.07-151.29 53.31 146.13a15.83 15.83 0 0 0 1.24 2.39 173.09 173.09 0 0 1-57.62 9.84Zm23.91-254.89a352.85 352.85 0 0 0 19.86-1.65c9.35-1.11 8.25-14.85-1.1-14.3 0 0-28.11 2.2-46.25 2.2-17.05 0-45.7-2.2-45.7-2.2-9.36-.55-10.46 13.75-1.11 14.3 0 0 8.86 1.1 18.2 1.65l27 74.07-38 113.89-63.19-188c10.46-.55 19.86-1.65 19.86-1.65 9.35-1.11 8.24-14.85-1.11-14.3 0 0-28.1 2.2-46.25 2.2-3.25 0-7.09-.08-11.16-.21A173.47 173.47 0 0 1 477.17 82c-.74 0-1.47-.14-2.24-.14-17.05 0-29.14 14.85-29.14 30.8 0 14.3 8.25 26.4 17 40.7 6.6 11.55 14.31 26.4 14.31 47.85 0 14.85-5.71 32.09-13.2 56.1l-17.32 57.82Zm128.36-1.89a173.56 173.56 0 0 1-65 233.23l53-153.24c9.89-24.75 13.19-44.55 13.19-62.15a134 134 0 0 0-1.19-17.84Z" fill="none" stroke="#e2e8f0" stroke-miterlimit="10" stroke-width="3" opacity=".75"/><path fill="#334055" d="M202.96 188.47v-10.66H160v10.66h14.64v40.79h13.75v-40.79h14.57z"/><path d="M223.52 214.28a99.7 99.7 0 0 1-1.51 6.41h-.77a156.32 156.32 0 0 0-1.02-6.41l-5.49-22.08h-14.11l11.27 33.86a4.59 4.59 0 0 0 1.57 2.31 4.19 4.19 0 0 0 2.67.89h2.26a11.21 11.21 0 0 1-3.76 4.55 20.82 20.82 0 0 1-7.06 2.84l1 7.45a19.7 19.7 0 0 0 8.93-.22 16.47 16.47 0 0 0 6.47-3.54 21.54 21.54 0 0 0 4.36-5.48 34.8 34.8 0 0 0 2.63-6l12.22-36.69h-14.24Zm49.03-22.97a19.54 19.54 0 0 0-5.89.89 18 18 0 0 0-5 2.46 12.62 12.62 0 0 0-2.9 2.83l-1.05-5.29H247v50.86h13.32v-8.13c0-1.64 0-3.34-.11-5.11 0-1-.1-2-.17-3a13.85 13.85 0 0 0 4.08 2.25 23.36 23.36 0 0 0 7.62 1.23 15.47 15.47 0 0 0 7.57-1.68 10.62 10.62 0 0 0 4.61-5.82q1.57-4.14 1.57-11.67 0-9.54-3-14.69t-9.94-5.13Zm-1.24 26.28a4.4 4.4 0 0 1-1.65 2.84 5.72 5.72 0 0 1-3 .71 12.83 12.83 0 0 1-4.06-.56l-2.23-.74v-16.32a32.12 32.12 0 0 1 3-1.62 8.77 8.77 0 0 1 3.66-.67 4.84 4.84 0 0 1 2.74.7 4.64 4.64 0 0 1 1.58 2.87 30.11 30.11 0 0 1 .51 6.42 29.39 29.39 0 0 1-.55 6.37Zm54.15-5.92c1.9-1.59 2.83-4.11 2.78-7.54q0-6.4-4.17-9.69t-14-3.28a28.91 28.91 0 0 0-11.45 1.9 12 12 0 0 0-6.33 6.23q-2 4.32-2 11.63a26.2 26.2 0 0 0 1.94 10.77 12.65 12.65 0 0 0 6.33 6.38q4.39 2.09 11.71 2.09 3 0 6-.3a43.62 43.62 0 0 0 5.82-1 23.48 23.48 0 0 0 5.16-1.86l-1.24-8.21q-4.24.45-8.09.64t-6.19.18a9.81 9.81 0 0 1-4.64-.89 4.77 4.77 0 0 1-2.27-3.06 12.06 12.06 0 0 1-.34-1.64h10.84q7.29.03 10.14-2.35Zm-13.83-4.4h-7.34a19.55 19.55 0 0 1 .46-3.81 3.8 3.8 0 0 1 1.87-2.68 8.41 8.41 0 0 1 3.91-.6 7.13 7.13 0 0 1 3.81.75 3.43 3.43 0 0 1 1.17 2.91 3.92 3.92 0 0 1-.7 2.68q-.69.75-3.18.75Zm71.37 4.17c-.05 1.19-.14 2.49-.26 3.88s-.18 2.73-.18 4h-1.32c-.19-1.25-.39-2.56-.58-4s-.37-2.73-.52-4L375.66 182a4.93 4.93 0 0 0-1.57-3 4.49 4.49 0 0 0-3.11-1.16h-10.39a4.63 4.63 0 0 0-3.15 1.16 4.57 4.57 0 0 0-1.54 3l-4.39 29.23a115.3 115.3 0 0 1-.55 4.1l-.62 4h-1.24a162.42 162.42 0 0 0-.44-8.06l-3.81-33.48h-13.68l7.24 47.65a4 4 0 0 0 1.57 2.76 5.07 5.07 0 0 0 3.19 1h12.15a5 5 0 0 0 3.14-1 3.93 3.93 0 0 0 1.61-2.76l4.39-30.65c.15-1.19.28-2.4.41-3.61s.2-2.43.25-3.62h1.32c.15 1.19.27 2.39.37 3.58s.21 2.38.36 3.58l4.47 30.72a4 4 0 0 0 1.57 2.76 5 5 0 0 0 3.18 1h12.08a4.94 4.94 0 0 0 3.11-1 4.27 4.27 0 0 0 1.64-2.76l7.18-47.65h-13.69Zm40.63-18.53a27 27 0 0 0-7 4.84l-1.2-5.55H405v37.06h13.32V205.2a73.4 73.4 0 0 1 5.26-1.14 28.93 28.93 0 0 1 4.83-.45h3.52l1.17-12.45h-2.05a17.83 17.83 0 0 0-7.42 1.75Zm23.31-17.41h-5.71q-3.89 0-3.88 4v3.87q0 4 3.88 4h5.71c2.58 0 3.88-1.34 3.88-4v-3.87c0-2.66-1.3-4-3.88-4Zm-9.44 16.7h13.25v37.06H437.5zm37.83-9.99H462v10l-6.24.34v8h6.26v19.31a9.74 9.74 0 0 0 3 7.57c2 1.82 4.67 2.72 8.09 2.72a45.75 45.75 0 0 0 7.86-.74 17.63 17.63 0 0 0 3.55-1l-1.46-8.88h-4.25a3.91 3.91 0 0 1-2.7-.74 3.11 3.11 0 0 1-.81-2.39v-15.77h9.44v-8.43h-9.44Zm48.01 29.46c1.9-1.59 2.83-4.11 2.78-7.54q0-6.4-4.17-9.69t-14-3.28a28.91 28.91 0 0 0-11.45 1.9 12 12 0 0 0-6.33 6.23q-2 4.32-2 11.63a26.2 26.2 0 0 0 1.94 10.77 12.65 12.65 0 0 0 6.33 6.38q4.39 2.09 11.71 2.09 3 0 6-.3a43.62 43.62 0 0 0 5.82-1 23.85 23.85 0 0 0 5.16-1.86l-1.25-8.21q-4.24.45-8.08.64t-6.19.18a9.78 9.78 0 0 1-4.64-.89 4.77 4.77 0 0 1-2.27-3.06 12.06 12.06 0 0 1-.34-1.64h10.84q7.29.03 10.14-2.35Zm-13.83-4.4h-7.35a20.23 20.23 0 0 1 .47-3.81 3.82 3.82 0 0 1 1.86-2.68 8.48 8.48 0 0 1 3.92-.6 7.06 7.06 0 0 1 3.8.75 3.38 3.38 0 0 1 1.17 2.91 4 4 0 0 1-.69 2.68c-.46.48-1.53.75-3.18.75ZM558 191.16a17.83 17.83 0 0 0-7.43 1.75 27 27 0 0 0-7 4.84l-1.2-5.55H531.9v37.06h13.32V205.2c2.06-.51 3.83-.9 5.27-1.14a28.75 28.75 0 0 1 4.83-.45h3.51l1.17-12.45Z" fill="#334055"/></svg>
