<svg xmlns="http://www.w3.org/2000/svg" xmlns:xlink="http://www.w3.org/1999/xlink" viewBox="0 0 720 420"><defs><linearGradient id="b" x1="361" y1="421" x2="361" y2="1" gradientUnits="userSpaceOnUse"><stop offset="0" stop-color="#e2e8f0"/><stop offset="1" stop-color="#f8fafc"/></linearGradient><linearGradient id="e" x1="249" y1="-362.47" x2="471" y2="-362.47" gradientTransform="matrix(1, 0, 0, -1, 0, -44)" gradientUnits="userSpaceOnUse"><stop offset=".25" stop-color="#e6ebed"/><stop offset=".7" stop-color="#e4e9ec"/><stop offset=".87" stop-color="#dde4e7"/><stop offset=".98" stop-color="#d2dadf"/><stop offset="1" stop-color="#cfd8dd"/></linearGradient><linearGradient id="f" x1="360.53" y1="-392.68" x2="360.53" y2="-329.72" gradientTransform="matrix(1, 0, 0, -1, 0, -44)" gradientUnits="userSpaceOnUse"><stop offset="0" stop-color="#4e5e67"/><stop offset=".04" stop-color="#5b6a72"/><stop offset=".19" stop-color="#859198"/><stop offset=".35" stop-color="#a8b1b7"/><stop offset=".51" stop-color="#c3cbd0"/><stop offset=".67" stop-color="#d7dde1"/><stop offset=".83" stop-color="#e2e7ec"/><stop offset="1" stop-color="#e6ebef"/></linearGradient><clipPath id="a"><path fill="none" d="M1 1h720v420H1z"/></clipPath><clipPath id="d"><path fill="none" d="M0 0h720v420H0z"/></clipPath><symbol id="c" viewBox="0 0 722 422"><g clip-path="url(#a)"><path fill="url(#b)" d="M1 1h720v420H1z"/><path fill="none" stroke="#e2e8f0" stroke-miterlimit="10" stroke-width="2" d="M1 1h60v60H1zm60 0h60v60H61zm60 0h60v60h-60zm60 0h60v60h-60zm60 0h60v60h-60zm60 0h60v60h-60zm60 0h60v60h-60zm60 0h60v60h-60zm60 0h60v60h-60zm60 0h60v60h-60zm60 0h60v60h-60zm60 0h60v60h-60zM1 61h60v60H1zm60 0h60v60H61zm60 0h60v60h-60zm60 0h60v60h-60zm60 0h60v60h-60zm60 0h60v60h-60zm60 0h60v60h-60zm60 0h60v60h-60zm60 0h60v60h-60zm60 0h60v60h-60zm60 0h60v60h-60zm60 0h60v60h-60zM1 121h60v60H1zm60 0h60v60H61zm60 0h60v60h-60zm60 0h60v60h-60zm60 0h60v60h-60zm60 0h60v60h-60zm60 0h60v60h-60zm60 0h60v60h-60zm60 0h60v60h-60zm60 0h60v60h-60zm60 0h60v60h-60zm60 0h60v60h-60zM1 181h60v60H1zm60 0h60v60H61zm60 0h60v60h-60zm60 0h60v60h-60zm60 0h60v60h-60zm60 0h60v60h-60zm60 0h60v60h-60zm60 0h60v60h-60zm60 0h60v60h-60zm60 0h60v60h-60zm60 0h60v60h-60zm60 0h60v60h-60zM1 241h60v60H1zm60 0h60v60H61zm60 0h60v60h-60zm60 0h60v60h-60zm60 0h60v60h-60zm60 0h60v60h-60zm60 0h60v60h-60zm60 0h60v60h-60zm60 0h60v60h-60zm60 0h60v60h-60zm60 0h60v60h-60zm60 0h60v60h-60zM1 301h60v60H1zm60 0h60v60H61zm60 0h60v60h-60zm60 0h60v60h-60zm60 0h60v60h-60zm60 0h60v60h-60zm60 0h60v60h-60zm60 0h60v60h-60zm60 0h60v60h-60zm60 0h60v60h-60zm60 0h60v60h-60zm60 0h60v60h-60zM1 361h60v60H1zm60 0h60v60H61zm60 0h60v60h-60zm60 0h60v60h-60zm60 0h60v60h-60zm60 0h60v60h-60zm60 0h60v60h-60zm60 0h60v60h-60zm60 0h60v60h-60zm60 0h60v60h-60zm60 0h60v60h-60zm60 0h60v60h-60z"/><rect x="16" y="16" width="690" height="390" rx="18" fill="none" stroke="#e2e8f0" stroke-miterlimit="10" stroke-width="2"/></g></symbol></defs><use width="722" height="422" transform="translate(-1 -1)" xlink:href="#c"/><g clip-path="url(#d)"><path d="M446.4 442.27a241.72 241.72 0 0 1-171.73 0L256 329.73a294.33 294.33 0 0 0 209.07 0L446.4 442.27Z" fill="#8c6143"/><path d="M271 426.4c3.66 1.87 7.33 3.63 11 5.31q-.82-5.59-1.66-11.17a296.08 296.08 0 0 1-11.26-5.38Zm180.93-11.24q-5.35 1.41-10.84 2.59l-1.66 11.16q5.35-1.12 10.62-2.51.95-5.61 1.88-11.24Z" fill="#d6a57c"/><path d="M439.43 428.91q-11.15 5.05-22.43 9l1.19-11q11.51-4 22.9-9.16c-.55 3.73-1.09 7.44-1.66 11.16Z" fill="#c4926e"/><path d="m348.25 403.29.24 10.9q12.06 1.89 24 2.72l.24-10.9q-12.16-.81-24.48-2.72Zm49.03-2.29-.72 11q11.85-.27 23.43-1.63l1.19-11q-11.79 1.36-23.9 1.63Zm-97.7-4.44 1.19 11q11.93 4.14 23.91 7.13l-.68-10.91q-12.25-3.04-24.42-7.22Z" fill="#d6a57c"/><path d="M348.49 414.19q-12 .81-23.81.53l-.68-10.94q12 .3 24.29-.49Z" fill="#c4926e"/><path d="M266.3 398.29q5.77 2.9 11.6 5.5l-1.65-11.16q-6-2.65-11.84-5.59Z" fill="#d6a57c"/><path d="M300.78 407.59q-11.62-1.35-22.88-3.79l-1.65-11.17q11.46 2.5 23.34 3.93l1.19 11.03Z" fill="#c4926e"/><path d="M456.65 387.05q-5.65 1.53-11.42 2.79L443.58 401c3.76-.81 7.49-1.72 11.19-2.7q.93-5.64 1.88-11.25Z" fill="#d6a57c"/><path d="M443.58 401q-11.71 5.25-23.59 9.35l1.19-11q12.1-4.17 24.05-9.49L443.58 401Zm-47.02 11q-12 3-24.05 4.93l.24-10.9q12.24-1.92 24.53-5Z" fill="#c4926e"/><path d="m347.65 376 .24 10.9q12.66 1.95 25.22 2.73l.24-10.9q-12.78-.73-25.7-2.73Zm51.43-2.32-.72 10.94q12.45-.35 24.62-1.85.58-5.5 1.19-11-12.39 1.52-25.09 1.91ZM296.6 369l1.19 11q12.51 4.26 25.09 7.35l-.71-10.95q-12.82-3.11-25.57-7.4Z" fill="#d6a57c"/><path d="M347.89 386.93q-12.6.79-25 .43l-.71-10.94c8.41.25 16.92.13 25.48-.39Z" fill="#c4926e"/><path d="M261.58 370.18q6.06 3 12.18 5.71l-1.66-11.17q-6.23-2.73-12.4-5.79.93 5.63 1.88 11.25Z" fill="#d6a57c"/><path d="M297.79 380q-12.21-1.5-24-4.12l-1.66-11.17q12 2.7 24.5 4.26.57 5.53 1.16 11.03Z" fill="#c4926e"/><path d="M461.37 358.93q-5.94 1.65-12 3l-1.66 11.17q5.94-1.32 11.76-2.92Z" fill="#d6a57c"/><path d="M447.72 373.1q-12.29 5.43-24.74 9.67.58-5.5 1.19-11 12.68-4.31 25.21-9.81l-1.66 11.14Zm-49.36 11.52q-12.63 3.11-25.25 5l.24-10.9q12.84-2 25.73-5.08Z" fill="#c4926e"/><path d="m347.05 348.79.24 10.89q13.26 2 26.42 2.73l.24-10.9q-13.38-.76-26.9-2.72Zm53.83-2.46-.72 10.94q13.05-.45 25.8-2.08l1.19-11a299.1 299.1 0 0 1-26.27 2.14Zm-107.27-4.93 1.2 11c8.72 2.93 17.5 5.46 26.28 7.57l-.72-10.94q-13.37-3.18-26.76-7.63Z" fill="#d6a57c"/><path d="M347.29 359.68c-8.8.51-17.55.61-26.2.32l-.72-10.94c8.81.31 17.72.22 26.68-.27l.24 10.89Z" fill="#c4926e"/><path d="m255 330.82 1.89 11.24q6.33 3.12 12.74 5.91l-1.66-11.16q-6.53-2.81-12.97-5.99Z" fill="#d6a57c"/><path d="M294.81 352.43q-12.8-1.64-25.2-4.46l-1.66-11.16q12.62 2.9 25.66 4.59Z" fill="#c4926e"/><path d="M466.09 330.82q-6.22 1.76-12.56 3.2-.84 5.58-1.66 11.17 6.22-1.43 12.33-3.13Z" fill="#d6a57c"/><path d="M451.87 345.19q-12.86 5.63-25.91 10l1.19-11q13.28-4.44 26.38-10.14-.84 5.55-1.66 11.14Zm-51.71 12.08q-13.23 3.18-26.45 5.14l.24-10.9q13.46-2 26.93-5.18Z" fill="#c4926e"/><path fill="#b47d56" d="m323.69 455.98-7.21-109.62 7.39-.42 7.21 109.61-7.39.43zm22.06 1.87-2.4-109.17 7.4-.13 2.4 109.16-7.4.14zm-65.29-11.72-16.61-111.8 7.33-.96 16.61 111.82-7.33.94zm21.41 5.94-11.96-110.49 7.37-.7 11.96 110.49-7.37.7zm117.32 0-7.36-.7 11.96-110.49 7.36.7-11.96 110.49zm21.41-5.94-7.32-.94 16.61-111.82 7.32.96-16.61 111.8zm-65.29 11.72-7.4-.14 2.41-109.16 7.4.13-2.41 109.17zm22.07-1.87-7.39-.43 7.21-109.61 7.38.42-7.2 109.62z"/><path d="M347.65 376q-12.9-1.95-25.84-5.08l-.72-10.92q13.17 3.18 26.32 5.14Zm-51.05-7q-12.74-4.32-25.33-9.85-.84-5.58-1.66-11.17 12.81 5.61 25.8 10L296.6 369Z" fill="#d6a57c"/><path d="M259.22 356.12q6 1.65 12 3-.84-5.58-1.66-11.17-6.19-1.39-12.27-3.1.98 5.65 1.93 11.27ZM295.4 358l1.2 11q12.43 1.54 25.2 2l-.71-10.95q-12.99-.49-25.69-2.05Z" fill="#c4926e"/><path d="M449.38 361.93q-12.11 2.71-24.62 4.29l1.2-11q12.74-1.62 25.08-4.42l-1.66 11.13Z" fill="#d6a57c"/><path d="M463.73 344.87q-6.32 3.11-12.69 5.9l-1.66 11.16q6.25-2.74 12.46-5.81Z" fill="#c4926e"/><path d="M399.08 373.68q-12.69.39-25.61-.37l.24-10.9q13.16.76 26.09.33Z" fill="#d6a57c"/><path d="m347.41 365.14.24 10.89q12.84-.78 25.82-2.72l.24-10.9q-13.2 1.97-26.3 2.73Zm52.39-2.4-.72 10.94q12.87-3.14 25.68-7.46l1.2-11q-13.04 4.37-26.16 7.52Z" fill="#c4926e"/><path d="M348.25 403.29q-12.3-1.94-24.64-5l-.72-10.94q12.57 3.09 25.12 5Zm-48.67-6.73q-12.15-4.19-24.17-9.51l-1.65-11.16q12.23 5.42 24.63 9.64.61 5.47 1.19 11.03Z" fill="#d6a57c"/><path d="M263.94 384.23q5.69 1.54 11.48 2.82l-1.66-11.16q-5.91-1.32-11.7-2.9l1.88 11.24Zm34.45 1.31 1.19 11c7.9 1 15.92 1.53 24 1.76l-.72-10.95c-8.23-.22-16.41-.83-24.47-1.81Z" fill="#c4926e"/><path d="M445.23 389.84q-11.52 2.52-23.45 4l1.19-11c8.1-1 16.09-2.36 23.92-4.09l-1.66 11.09Z" fill="#d6a57c"/><path d="M459 373q-6 3-12.11 5.69l-1.66 11.16q6-2.65 11.89-5.61L459 373Z" fill="#c4926e"/><path d="M397.28 401q-12.09.31-24.41-.48l.24-10.9q12.54.79 24.89.44Z" fill="#d6a57c"/><path d="m348 392.38.24 10.9q12.24-.81 24.62-2.72l.24-10.9q-12.59 1.94-25.1 2.72Zm50-2.28-.72 10.9q12.27-3 24.5-7.24l1.2-11Q410.52 387 398 390.1Z" fill="#c4926e"/><path d="M348.85 430.54q-11.7-1.91-23.45-4.87l-.71-10.95q12 3 23.93 4.91l.23 10.91Zm-46.28-6.4q-11.56-4-23-9.18l-1.66-11.17q11.67 5.22 23.48 9.32.61 5.52 1.18 11.03Z" fill="#d6a57c"/><path d="M268.66 412.35c3.6.95 7.23 1.83 10.9 2.61l-1.66-11.17c-3.74-.81-7.46-1.7-11.13-2.69Zm32.72.76q.58 5.52 1.19 11 11.26 1.29 22.83 1.53l-.71-10.95q-11.8-.24-23.31-1.58Z" fill="#c4926e"/><path d="M441.09 417.75q-11 2.33-22.3 3.63l1.2-11q11.56-1.35 22.75-3.77Z" fill="#d6a57c"/><path d="M454.29 401.1a288.82 288.82 0 0 1-11.55 5.49l-1.65 11.16q5.69-2.56 11.32-5.4.95-5.62 1.88-11.25Z" fill="#c4926e"/><path d="M395.48 428.41q-11.49.22-23.21-.6l.24-10.9q11.94.81 23.69.55Z" fill="#d6a57c"/><path d="m348.61 419.63.24 10.91q11.64-.84 23.42-2.73l.24-10.9q-12 1.91-23.9 2.72Zm47.59-2.17-.72 11q11.68-3 23.31-7l1.2-11q-11.86 4-23.79 7Z" fill="#c4926e"/><path d="M360.53 279.1c-56.37-.63-124 9.14-109.55 39.37 7.45 15.56-4.43 13.06 7 19.39 68.7 38 211.13 14.57 211.13-10.17 0-9.45.15-10.6 1.78-19.56 2.35-12.76-38.11-28.75-110.36-29.03Z" fill="url(#e)"/><ellipse cx="360.53" cy="306.46" rx="100.04" ry="24.33" fill="url(#f)"/><path d="M414.89 282.81c-1.17-.17-.54 5.79 0 7.4 1.36.56 8.25 2.07 9.12 1.69-.06-1.75 1.61-6.6 3.54-6.91 0 .01-7.05-2.5-12.66-2.18Zm-115 42.98a26.93 26.93 0 0 0 .88 12.08c1.36.55 11.89 2.44 12.76 2.06-.06-1.74 2.49-11.13 4.42-11.44a98.44 98.44 0 0 0-18.06-2.7Zm-44.23-17.48s-2.92 3-1.18 9.63c.92 1.6 4.9 4.46 5.77 4.08.25-3.8 4.2-7.35 6.09-7.35a34.13 34.13 0 0 0-10.68-6.36ZM460.91 296c-1.17-.18-3.6 4.49-4.18 9.17.68 2.14 2.35 4.4 3.21 4 1.87-3 6.91-7.13 9.42-6.61 0 .03-3.1-5.19-8.45-6.56Z" fill="#8c6143"/><path d="M455.52 301.41c1.09-35.42-31.69-41.62-31-16.86.08 2.64-8.79 4.69-8.7-.64.73-40.06 54.33-26.77 50.16 17.5-.3 3.66-10.55 3.07-10.46 0Z" fill="#b47d56"/><path d="M454 299.57c5.95-3 6.39 11.3 3.57 6.4-1.77-3.12-5.08-5.63-3.57-6.4Z" fill="#c4926e"/><path d="M466.72 300.26c-10-3-11.19 11.11-6.46 6.2 3-3.12 9.02-5.46 6.46-6.2Z" fill="#d6a57c"/><path d="M415.15 283.54c4.57-2.34 5.37 9.4 3.21 5.64-1.36-2.39-4.36-5.05-3.21-5.64Z" fill="#c4926e"/><path d="M424.9 284.06c-7.67-2.32-9 9.4-5.4 5.64 2.31-2.38 7.36-5.05 5.4-5.64Z" fill="#d6a57c"/><path d="M302.79 329.57c1.33-43.23-40.13-53.28-38.21-17.11.14 2.64-10.24 3.66-10.1-1.66 1.25-48.86 66.45-31.39 58.8 19.29-.55 3.64-10.58 2.55-10.49-.52Z" fill="#b47d56"/><path d="M299 325c8.51-3.79 8.77 17.53 5.24 10.52C302 331.11 296.83 326 299 325Z" fill="#c4926e"/><path d="M316.62 326.87c-13.68-4.9-17.31 16.24-10.35 9.74 4.42-4.11 13.84-8.49 10.35-9.74Z" fill="#d6a57c"/><path d="M253 309.34c6.53-2.91 6.72 13.43 4 8.06-1.67-3.4-5.63-7.32-4-8.06Z" fill="#c4926e"/><path d="M266.53 310.74c-10.48-3.76-13.26 12.44-7.93 7.48 3.4-3.17 10.61-6.52 7.93-7.48Z" fill="#d6a57c"/><path d="M313.32 352.8s2.94 2.84 5.36.5c5.8-5.63-2.9-16.31-12.64-16.31-24.39 0-17.88 22.81-7.32 11.58a483.59 483.59 0 0 1-4.21 6.8l1.73 2.37c.27-.43 5.93-9.45 9.26-15.34a79.93 79.93 0 0 0 12.69 22.32l1.47-2.72a79.63 79.63 0 0 1-6.34-9.2Zm3.83-2.77c-2.22 2.69-6.78-5.54-8.49-9 2.79.04 10.89 6.07 8.49 8.97Zm-24.68-2.2c-1.57-2.32 6.15-6.64 9.91-6.64-1.56 1.54-8.73 8.38-9.91 6.64Zm-29.4-17.89s1.72 2 3.13.36c3.4-3.94-1.7-11.42-7.38-11.42-14.28 0-10.47 16-4.29 8.1-1.32 2.59-2.45 4.73-2.46 4.77l1 1.65c.15-.3 3.47-6.61 5.42-10.74a58.45 58.45 0 0 0 7.42 15.62l.86-1.89a55.94 55.94 0 0 1-3.7-6.45Zm2.24-1.93c-1.29 1.88-4-3.88-5-6.28 1.69 0 6.4 4.27 5 6.27Zm-14.44-1.54c-.92-1.62 3.6-4.65 5.8-4.65-.91 1.08-5.11 5.87-5.8 4.65Z" fill="#cfd8dd"/></g><path d="M246.78 193.57a14.6 14.6 0 0 0-7.13-1.72 14.93 14.93 0 0 0-7.35 1.8 13.85 13.85 0 0 0-3.77 3.07 12.23 12.23 0 0 0-3.61-3.18 12.77 12.77 0 0 0-6.56-1.69 14.54 14.54 0 0 0-7 1.65 12.14 12.14 0 0 0-2.43 1.73v-2.65H198v35.61h11v-20.81a5.84 5.84 0 0 1 .75-3.07 5.21 5.21 0 0 1 2-1.94 6 6 0 0 1 2.94-.7 5.61 5.61 0 0 1 4 1.5 5.46 5.46 0 0 1 1.61 4.21v20.81h11v-20.81a5.84 5.84 0 0 1 .75-3.07 5.24 5.24 0 0 1 2.05-1.94 6 6 0 0 1 2.94-.7 5.6 5.6 0 0 1 4 1.5 5.46 5.46 0 0 1 1.62 4.21v20.81h11v-22.05a15.16 15.16 0 0 0-1.82-7.66 12.76 12.76 0 0 0-5.06-4.91Zm37.95 1.98a12.63 12.63 0 0 0-3.26-2.31 14.29 14.29 0 0 0-6.34-1.39 15.54 15.54 0 0 0-8.57 2.42 17.1 17.1 0 0 0-5.95 6.59 21.9 21.9 0 0 0 0 19 17.06 17.06 0 0 0 5.95 6.6 15.54 15.54 0 0 0 8.57 2.42 14.39 14.39 0 0 0 6.38-1.4 12.25 12.25 0 0 0 3.22-2.26v2.92h10.76v-35.56h-10.76Zm-7.38 23.27a7.53 7.53 0 0 1-4-1.1 7.66 7.66 0 0 1-2.8-3 9.11 9.11 0 0 1-1-4.32 9 9 0 0 1 1-4.4 8 8 0 0 1 10.89-3 7.26 7.26 0 0 1 2.73 3 9.66 9.66 0 0 1 1 4.4 8.63 8.63 0 0 1-2.16 6 7.25 7.25 0 0 1-5.66 2.42Zm53.44-25.1a12.55 12.55 0 0 0-6.85-1.87 15 15 0 0 0-7.2 1.72 12.37 12.37 0 0 0-2.54 1.83v-2.82h-11v35.61h11V207.9a6.69 6.69 0 0 1 .78-3.26 5.55 5.55 0 0 1 2.15-2.2 6.35 6.35 0 0 1 3.16-.77 5.73 5.73 0 0 1 4.26 1.72 6.15 6.15 0 0 1 1.69 4.51v20.29h11v-22.78a13.67 13.67 0 0 0-6.42-11.69Zm37.38 1.16a13.87 13.87 0 0 0-2.61-1.64 15 15 0 0 0-6.49-1.39 16.11 16.11 0 0 0-8.78 2.42 16.81 16.81 0 0 0-6 6.59 21.81 21.81 0 0 0 0 19 16.77 16.77 0 0 0 6 6.6 16.11 16.11 0 0 0 8.78 2.42 14 14 0 0 0 6.52-1.51 13.67 13.67 0 0 0 2.8-1.87v2.64h10.75V175h-11Zm-3.08 22.87a7.62 7.62 0 0 1-4.09 1.07 7.53 7.53 0 0 1-4-1.1 7.66 7.66 0 0 1-2.8-3 9.11 9.11 0 0 1-1-4.32 8.9 8.9 0 0 1 1-4.32 7.89 7.89 0 0 1 2.8-3 7.61 7.61 0 0 1 10.82 3 9.43 9.43 0 0 1 1 4.36 9.23 9.23 0 0 1-1 4.39 7.39 7.39 0 0 1-2.73 2.92Zm28.67-2.31a6.18 6.18 0 0 0-4.66 1.95 7.16 7.16 0 0 0 0 9.63 6.52 6.52 0 0 0 9.36 0 7.28 7.28 0 0 0 0-9.63 6.16 6.16 0 0 0-4.7-1.95ZM408.39 175h10.97v53.19h-10.97zm18.7 17.58h10.97v35.61h-10.97zm5.52-17.21a5.64 5.64 0 0 0-4.26 1.75 6.52 6.52 0 0 0 0 8.76 5.57 5.57 0 0 0 4.26 1.8 5.48 5.48 0 0 0 4.23-1.8 6.64 6.64 0 0 0 0-8.76 5.54 5.54 0 0 0-4.23-1.75Zm40.75 18.35a12.54 12.54 0 0 0-6.84-1.87 15 15 0 0 0-7.21 1.72 12.64 12.64 0 0 0-2.54 1.83v-2.82h-11v35.61h11V207.9a6.58 6.58 0 0 1 .79-3.26 5.43 5.43 0 0 1 2.15-2.2 6.34 6.34 0 0 1 3.15-.77 5.77 5.77 0 0 1 4.27 1.72 6.18 6.18 0 0 1 1.68 4.51v20.29h11v-22.78a13.67 13.67 0 0 0-6.42-11.69ZM522 228.19l-13.46-18.82 12.74-16.79h-12.26l-11.25 15.93V175H486.8v53.19h10.97v-17.16l11.33 17.16H522z" fill="#bb7b56"/></svg>
