<svg xmlns="http://www.w3.org/2000/svg" viewBox="0 0 720 420"><defs><linearGradient id="b" x1="360" y1="420" x2="360" gradientUnits="userSpaceOnUse"><stop offset="0" stop-color="#68483e"/><stop offset="1" stop-color="#704d43"/></linearGradient><clipPath id="a"><path fill="none" d="M0 0h720v420H0z"/></clipPath></defs><g clip-path="url(#a)"><path fill="url(#b)" d="M0 0h720v420H0z"/><path fill="none" stroke="#68483e" stroke-miterlimit="10" stroke-width="2" d="M0 0h60v60H0zm60 0h60v60H60zm60 0h60v60h-60zm60 0h60v60h-60zm60 0h60v60h-60zm60 0h60v60h-60zm60 0h60v60h-60zm60 0h60v60h-60zm60 0h60v60h-60zm60 0h60v60h-60zm60 0h60v60h-60zm60 0h60v60h-60zM0 60h60v60H0zm60 0h60v60H60zm60 0h60v60h-60zm60 0h60v60h-60zm60 0h60v60h-60zm60 0h60v60h-60zm60 0h60v60h-60zm60 0h60v60h-60zm60 0h60v60h-60zm60 0h60v60h-60zm60 0h60v60h-60zm60 0h60v60h-60zM0 120h60v60H0zm60 0h60v60H60zm60 0h60v60h-60zm60 0h60v60h-60zm60 0h60v60h-60zm60 0h60v60h-60zm60 0h60v60h-60zm60 0h60v60h-60zm60 0h60v60h-60zm60 0h60v60h-60zm60 0h60v60h-60zm60 0h60v60h-60zM0 180h60v60H0zm60 0h60v60H60zm60 0h60v60h-60zm60 0h60v60h-60zm60 0h60v60h-60zm60 0h60v60h-60zm60 0h60v60h-60zm60 0h60v60h-60zm60 0h60v60h-60zm60 0h60v60h-60zm60 0h60v60h-60zm60 0h60v60h-60zM0 240h60v60H0zm60 0h60v60H60zm60 0h60v60h-60zm60 0h60v60h-60zm60 0h60v60h-60zm60 0h60v60h-60zm60 0h60v60h-60zm60 0h60v60h-60zm60 0h60v60h-60zm60 0h60v60h-60zm60 0h60v60h-60zm60 0h60v60h-60zM0 300h60v60H0zm60 0h60v60H60zm60 0h60v60h-60zm60 0h60v60h-60zm60 0h60v60h-60zm60 0h60v60h-60zm60 0h60v60h-60zm60 0h60v60h-60zm60 0h60v60h-60zm60 0h60v60h-60zm60 0h60v60h-60zm60 0h60v60h-60zM0 360h60v60H0zm60 0h60v60H60zm60 0h60v60h-60zm60 0h60v60h-60zm60 0h60v60h-60zm60 0h60v60h-60zm60 0h60v60h-60zm60 0h60v60h-60zm60 0h60v60h-60zm60 0h60v60h-60zm60 0h60v60h-60zm60 0h60v60h-60z"/><rect x="15" y="15" width="690" height="390" rx="18" fill="none" stroke="#68483e" stroke-miterlimit="10" stroke-width="2"/></g><g clip-path="url(#a)"><path d="M574.76 70.71c-5.83.37-11.33 2.62-16.69 4.78-2.43 1-2.47-.33-4.35-1.81a56.6 56.6 0 0 0-9.72-5.84c2.27-4.09 13.6-23.92 5-25.47-2.2.09-5.36 2.71-7.28 3.73-7.75 4.13-15.82 8.54-21.06 15.83-2.12 3-7.67 3.65-11.11 4.93-23.13 8.71-44.85 20.71-67.26 31.06-6.27 3-12.43 6.21-18.54 9.51-5.59 3-10.55 7.31-16 10.71a96.24 96.24 0 0 1-12 6.51c-4 1.77-6.38 4.13-9.61 7.08a242.37 242.37 0 0 1-18.69 15.48q-5.73 4.29-11.72 8.22c-3.62 2.39-5.66 4.6-8.6 7.68a31.71 31.71 0 0 1-18.56 10c-4.47.68-8.59 1.19-12.83-.41a163.99 163.99 0 0 0-9.64-3.36 97.06 97.06 0 0 0-21.68-4.22 62.2 62.2 0 0 0-36 8c-3.07 1.62-6.09 4.18-9.52 4.24-4.44.08-7.71 2-11.36 4.26s-6.51 1.69-10.6 1.39c-11.49-1.18-20 4.26-27.51 12.51-.73.36-1.46.73-2.17 1.12-3.13 1.54-6.21 3.33-9.45 4.6l.64-.21c1.55-.53 3.07-1.14 4.59-1.74-.58.42-1.14.85-1.69 1.29l-.25.1c-.68.29-1.35.6-2 .91a77.67 77.67 0 0 0-14 5.76c.41-.19 2.27-1 2.77-1.2a53.11 53.11 0 0 1 6.63-2.09 44.29 44.29 0 0 0-7.7 5.83c-8 2.48-15.93 6.56-21.86 12.57.79-.71 2-1.69 2.92-2.36a44.46 44.46 0 0 1 15.61-6.84 129.91 129.91 0 0 0-11.62 8.47l1.2-.85a85.5 85.5 0 0 1 9.68-5.92c-.27.24-.55.48-.81.73a3 3 0 0 1 .06.4c-4.19 2.46-8.48 5.25-11.11 9.44a129.06 129.06 0 0 0-9.5 7.05 93.16 93.16 0 0 1 15.88-9.24c-.37.34-.73.69-1.09 1.05-1.81.88-3.53 1.9-5.28 2.88-.56.17-2.1.58-2.41.67l1.92-.39c-1 .53-2 1.07-3.1 1.5l-1.14.47.31-.11a71.36 71.36 0 0 0 6.09-2.3l.44-.21q.49-.12 1-.27A63.83 63.83 0 0 0 143.44 241l.76-1.26a55.58 55.58 0 0 1 14.2-14.69c1.19-.46 2.36-1 3.52-1.5a12.94 12.94 0 0 0 1.43 2.2c-2.35 1.28-4.74 2.48-7.06 3.85a20.48 20.48 0 0 0-5.85 4.7c-3.11 3.66-5.27 8-8.3 11.67l.44-.5c4.43-5.05 8.26-10.77 14.14-14.28 2.34-1.59 4.72-3.3 7-4.94.21.25.43.49.65.72-.75.9-1.48 1.8-2.19 2.73l-.19.11a27.48 27.48 0 0 0-7.69 6.34c-1.61 1.9-3.16 3.95-4.84 5.78l.25-.25 2.41-2.38c3.31-3 6.31-6.63 9.85-9.34h.06a55.77 55.77 0 0 0-4.25 6.64 136.79 136.79 0 0 0-10.53 11.4 87 87 0 0 1 9.12-8.57 56.5 56.5 0 0 0-3.27 8.57c-.4 1.5-.83 3-1.12 4.52l-.28 1.3.47-1.53c.35-1.27.84-2.48 1.29-3.7a50 50 0 0 1 7.68-12.87c1.82-1.37 3.67-2.7 5.52-4.05-4.37 5.59-10 10.83-12.73 17.43.08-.14.44-.89.73-1.37 3.77-6.46 9.89-11 15.06-16.28l.13.07a77.39 77.39 0 0 0-10.75 14.28l1.73-2.47a59.52 59.52 0 0 1 8.81-9.28 104.23 104.23 0 0 1-5.89 6.67c.8-.75 2-1.82 2.81-2.65l1.24-1.23-1.08 1.48a15.4 15.4 0 0 0-1.58 1.66c-3 3.54-5.07 7.64-8 11.24l-.34.43c3.37-3.72 6.32-8 10.06-11.36A55.5 55.5 0 0 0 162 252c-.41 1.5-.84 3-1.13 4.52-.44 2.06-.3 1.31.19-.23.36-1.26.84-2.47 1.3-3.7s1.06-2.47 1.66-3.67c2.29-2.3 4.47-4.74 6.57-7.22a39.43 39.43 0 0 0-2.48 6.87l-.2.78c.28-.91.74-2.21 1.12-3.15a39.09 39.09 0 0 1 8.43-12.2 56.63 56.63 0 0 0-4.8 11.54c-.4 1.5-.83 3-1.12 4.52l-.28 1.3.47-1.54c.35-1.25.84-2.47 1.3-3.69a48.62 48.62 0 0 1 6.5-11.39 17.12 17.12 0 0 0-.87 2c-1.44 3.73-2 7.61-3.17 11.4-.22.72-.55 1.72-.77 2.37 2.63-6.41 4.31-13.36 8.82-18.79.39-.54.77-1.09 1.17-1.63l1.19-.46a59.51 59.51 0 0 0-8.12 16.62l.54-1.36c.41-1.12 1-2.2 1.43-3.28a52.94 52.94 0 0 1 10.24-14l.52-.32c-1 3.5-1.6 7.09-2.78 10.52l-.17.53c1.63-4 2.83-8.2 4.64-12.07l.49-.32c-.41 1.72-.82 3.44-1.3 5.14-.19.62-.37 1.23-.58 1.84l-.17.52c1.12-2.66 2-5.52 3.05-8.22 8.86-6.55 16-18.19 26.87-20.2a106.8 106.8 0 0 0-5.13 16.68c-3.88 16.83-6.37 34-4.07 51.21 1 7.86 2.82 15.58 4.46 23.34-1.76 8.12-3.55 14.92-1.71 23.17 1 4.48 1.66 7.66.13 12a28.4 28.4 0 0 0-1.77 11.1c.28 4.27 1.33 7.89 1.17 12.29-.77 12.09-1.08 24.27-4.56 35.94-2 6.36-3.92 13.21-2.18 19.82a24.58 24.58 0 0 1-.47 12.82c-.93 3.27-3 6.14-3.56 9.4-.91 5.31-6.31 14.45-.34 18.1 4.52 2.77 10.77 3 15.85 2.07 5.76-1 8.73-3.2 8.78-9.29 0-3.69-.66-7.48-.08-11.15-2.18-2.59-2.82-6.21-3.42-9.43-.62-3.42-.36-6.48-.73-9.82 1.8-4.12 2.11-7.29 2.16-11.75.24-17.41.15-35.07 3.46-52.23 2.32-4.06 3.65-8.6 5-13 .09-4 .28-6.13 2.24-9.72 3.85-7.05 7.39-14.25 11.45-21.18 3.76-6.41 7.91-14.61 15.64-16.74 2.82-.77 6.79-4.85 8.86-3.09 2.58 2.19 5.79 3.49 8.9 4.72 2 .77 3.87 1.28 5.22 3s.92 2.08 2.85 3.11a10.76 10.76 0 0 1 5.55 7.05 56.62 56.62 0 0 1 1.49 21.53c-.44 3.61-2.54 7.39-2.37 11s2 6.6 2.93 10c2 7.21 8.08 13.41 12 19.72 6.79 10.88 11.53 22.95 16.8 34.6.53 2.73 4 2.79 2.73 6-2 4.94-3.06 11.9-9 13.59-4.7 1.34-5.89 12.59-5 16.7a19.81 19.81 0 0 0 10.75 13.77c2.23 1.1 6.87 1.43 7.22 3.82.45 3.13 1 6.25 1.15 9.4s0 6.9-2 9.57c-1.44 1.91-1.09 6.72-1.58 9.37-1.39 7.55 1.39 13.19 9.2 14.18 7.57 1 27.79 4.45 23.88-9.28-1.3-4.58-3.51-8.84-4.87-13.4-1-3.42-3.74-6.14-5.32-9.43-3.72-7.74-4.46-14.37-3.95-22.82.28-4.68-.53-9.17 0-13.81 1.38-11.21 2.83-22.74 7.75-33 3.67-7.52 7.49-16.74 7.49-25.28 0-8.22 4.24-15.41 7.67-22.74a158 158 0 0 0 9-23.46c1.39-4.86 2.81-15.9 8.48-17.88 13.52-3.18 22.2 4.81 30.82 13.9 2.5 2.64 8.91 3.39 12.38 4.74s7.17 3 10.67 4.66c12.43 6 24.05 13.54 36.27 20 2.47 1.3 1.61 2.36 1.19 4.93-1.24 7.63-4.33 14.78-6 22.31-2 9.07-4.36 18.07-5.92 27.25-2.05 3.7-3.32 6.25-7.08 8.32-2.84 1.56-7.23.31-10.16-.5-4.51-1.25-6.42-2.26-9.71 1.66-4.49 5.47-6.19 12.56-8 19.24 2.55 12.68 8.91 17.25 21.54 12.73 7.28-2.57 11.46-7.8 15.62-14.09 1.9-2.86 7.64-4 10.73-6.13 3.57-2.51 4.36-5.86 5.67-10s.63-8.54 1-12.68a103 103 0 0 1 1.76-11.31c2.7-11.92 5.24-24 9.57-35.5 1.71-4.22 1.42-7.66 1.73-12.18.25-3.51.43-4.12-2-6.83a99 99 0 0 0-12.81-11.57 31.41 31.41 0 0 1-7.94-8.85c-2-3.12-3.61-8.08-6.59-10.18-3.2-2.25-6.42-4.69-7.82-8.51.3-22.68 4.46-45.3 3.73-68-.33-10.25-5-19.88-10.24-28.53.39-6.19 0-12.42.59-18.59.46-5 1.26-6.27 5.64-8.56 3.29-1.72 6.41-2.79 8.89-5.63 4.38-5 8.11-10.77 13.65-14.64 2.36-1.66 6.23-4.46 8.8-2.54a36.17 36.17 0 0 1 7 7.42c7.3 9.72 15.22 19 21.44 29.51.25 3.69.51 7.66 2.15 11 2.69 5.51 11.31 10.39 17.1 11.46a2.5 2.5 0 0 0 2.88-1.12c1.12-1.36 1.32.57 2.87.66 3.1.17 6.61-3.13 8.87-5a56.42 56.42 0 0 0 13.71-17.66c3.48-6.7-.75-13.35-1.78-20.27-1.38-9.22-2.54-18.49-3.78-27.73-1.07-8-1.85-16.35.58-24.17 1.28-4.14-.84-9.4-2.17-13.46a90.22 90.22 0 0 0-1.92-5.29c.36-1.42 1.17-2.65 1.65-4 .8-2.25-.32-2.87 1.91-4.21 4.27-2.37 7.15-6.31 10.26-9.93a10.56 10.56 0 0 0 3-5.1c.59-2.91-1.77-2.04-3.7-1.92ZM346.26 315c-.69 15.67-2.23 31.29-2.78 47-.74 1.52-6.91 18.84-5.47 18.86-.72 0-2.81-3.28-3.21-3.76-2.29-2.7-4.38-5.61-6.72-8.29-3.75-7.8-7.93-15.4-11.26-23.4.56-6.91-2.1-13.9-.5-20.84 1.28-5.57 6.31-12.61 6.13-18.26 7.38 1 14.48 3.48 21.94 4 3.28.25 2 1.81 1.87 4.69Z" fill="#543e35"/></g><path d="M172.89 226.43a6.49 6.49 0 0 1-4.44 1.72 4.25 4.25 0 0 1-3-1.07 3.77 3.77 0 0 1-1.15-2.92l-.09-36.16L151 220.86a13 13 0 0 1-4.23.83 8.78 8.78 0 0 1-2.92-.55A345.06 345.06 0 0 1 129.29 188l.07 30.32a28.28 28.28 0 0 0 1.11 8.87 4.2 4.2 0 0 1-2.85 1c-1.75 0-2.63-1.05-2.63-3.16v-36.69a55.48 55.48 0 0 0-.49-8.66q1.19-1 5.28-1a7 7 0 0 1 2.32.34 4.74 4.74 0 0 1 1.7 1.1q8.4 19.88 14.65 34.45 5.36-13.28 13.68-35.13a13.49 13.49 0 0 1 4.79-.76 8.63 8.63 0 0 1 3.16.55c.95.37 1.49.8 1.63 1.31v37.74a23 23 0 0 0 1.18 8.15Zm43.33-2.75a3.74 3.74 0 0 1-1.6 3 6.53 6.53 0 0 1-4.1 1.23 6 6 0 0 1-5.13-2.3q-1.74-2.29-1.81-7.46a18.45 18.45 0 0 1-5.69 7.15 13.51 13.51 0 0 1-8.27 2.68 9.51 9.51 0 0 1-6.49-2.16 7.45 7.45 0 0 1-2.46-5.88 9 9 0 0 1 3.33-7.15 22.17 22.17 0 0 1 8.54-4.26 35.9 35.9 0 0 1 10.62-1.31v-1.72q0-6-1.66-8.8c-1.11-1.88-3-2.82-5.56-2.82a6.85 6.85 0 0 0-4.27 1.24 4.77 4.77 0 0 0-1.63 4.06 7 7 0 0 0 .63 2.95 4.11 4.11 0 0 0 2.08 2.07 4.26 4.26 0 0 1-1.84 1.13 7.63 7.63 0 0 1-2.4.38 5.83 5.83 0 0 1-4.47-1.82 6.27 6.27 0 0 1-1.71-4.44 6.82 6.82 0 0 1 3.75-6.22q3.75-2.16 10.35-2.17c5 0 8.67 1.19 11 3.54s3.51 6.13 3.51 11.31v12.65q0 3.65 2.36 3.65a2.66 2.66 0 0 0 1.15-.28 2.17 2.17 0 0 0 .93-.82 4.06 4.06 0 0 1 .84 2.57Zm-18.44-2.51a14.27 14.27 0 0 0 4-4.85 13.56 13.56 0 0 0 1.6-6.46 24.15 24.15 0 0 0-4.93.24 16.49 16.49 0 0 0-4.3 1.21 9.17 9.17 0 0 0-3.79 2.78 6.51 6.51 0 0 0-1.35 4.09 5.61 5.61 0 0 0 1 3.44 3.56 3.56 0 0 0 3.09 1.38 7.73 7.73 0 0 0 4.68-1.83Zm55.79 5.26a6.26 6.26 0 0 1-4.38 1.72 4.75 4.75 0 0 1-3.19-1.07 3.64 3.64 0 0 1-1.25-2.92v-17.94q-.08-5.7-1.35-8.42a4.73 4.73 0 0 0-4.69-2.72 6.16 6.16 0 0 0-4.2 1.72 12.16 12.16 0 0 0-3.09 5.26 28.2 28.2 0 0 0-1.18 8.83q0 8.12.21 10.73a16.8 16.8 0 0 0 1.11 4.88 7.17 7.17 0 0 1-1.84 1.13 5.88 5.88 0 0 1-2.47.52A4.57 4.57 0 0 1 224 227a4.13 4.13 0 0 1-1.25-3.16v-23.46a7.47 7.47 0 0 0-.48-2.76 1.46 1.46 0 0 0-1.39-.82 1.84 1.84 0 0 0-1.81 1 4.57 4.57 0 0 1-.9-2.61 3.67 3.67 0 0 1 1.32-2.92 5.44 5.44 0 0 1 3.68-1.14 5.57 5.57 0 0 1 4.61 2q1.64 2 1.64 6v.34a11.67 11.67 0 0 1 11.73-8.39c3.79 0 6.61 1.17 8.44 3.51s2.74 5.84 2.74 10.52v13.13q.13 5.65 1.24 8.19Zm36.52-6.94a5.46 5.46 0 0 1-.49 2 9.45 9.45 0 0 1-4.69 5 17.53 17.53 0 0 1-8.08 1.72q-7.92 0-12.47-4.81t-4.54-13.68q0-8.73 4.44-13.65t12.74-4.98a16.61 16.61 0 0 1 9.78 2.65 9.43 9.43 0 0 1-.38 15.33q-4.12 2.72-11.21 2.72a65.74 65.74 0 0 1-7.15-.35q.48 6.41 3.26 9.15a10.31 10.31 0 0 0 7.57 2.75 12.81 12.81 0 0 0 6.42-1.52 8.22 8.22 0 0 0 3.72-4 1.72 1.72 0 0 1 1.08 1.67Zm-19.82-21.76q-2.34 3.81-2.33 10.83a34.19 34.19 0 0 0 3.68.2 14.5 14.5 0 0 0 7.71-1.85q3-1.86 3-6.81c0-2.24-.53-3.84-1.6-4.78a5.83 5.83 0 0 0-4-1.41 7.18 7.18 0 0 0-6.46 3.82Zm29.4 43.21a6.51 6.51 0 0 1-3.54-6.05 5.3 5.3 0 0 1 1.52-4 5.48 5.48 0 0 1 4-1.47 4.27 4.27 0 0 1 3.54 1.3 5.37 5.37 0 0 0-2 4.47 4.83 4.83 0 0 0 1.53 3.78 6.07 6.07 0 0 0 4.23 1.38 8.38 8.38 0 0 0 7.6-4.06q2.53-4.05 2.54-11.48v-4.91a10.4 10.4 0 0 1-4 5.5 12 12 0 0 1-6.91 1.92 10.84 10.84 0 0 1-9.06-4.12q-3.24-4.12-3.23-13 0-8.46 3.82-13.79c2.54-3.55 6.76-5.33 12.63-5.33a27 27 0 0 1 8 1.17 16.19 16.19 0 0 1 6.22 3.37v28.53q0 18.76-17.85 18.77a18.22 18.22 0 0 1-9.04-1.98Zm17.11-21.07a20.06 20.06 0 0 0 2.19-9.66l.07-14.3a6.82 6.82 0 0 0-2.78-1.48 12.64 12.64 0 0 0-3.68-.52 6.79 6.79 0 0 0-6.84 4.44c-1.22 3-1.84 7.14-1.84 12.54q0 6.95 1.5 9.83a5.14 5.14 0 0 0 5 2.89 6.92 6.92 0 0 0 6.38-3.74Zm46.97-.38a5.26 5.26 0 0 1-.49 2 9.47 9.47 0 0 1-4.68 5 17.57 17.57 0 0 1-8.09 1.72q-7.92 0-12.46-4.81t-4.55-13.68q0-8.73 4.44-13.65t12.71-4.92a16.67 16.67 0 0 1 9.79 2.65 8.68 8.68 0 0 1 3.75 7.53 8.79 8.79 0 0 1-4.13 7.8q-4.14 2.72-11.22 2.72a65.74 65.74 0 0 1-7.15-.35q.48 6.41 3.27 9.15a10.28 10.28 0 0 0 7.56 2.75 12.88 12.88 0 0 0 6.43-1.52 8.15 8.15 0 0 0 3.71-4 1.72 1.72 0 0 1 1.11 1.61Zm-19.82-21.76q-2.32 3.81-2.33 10.83a34.33 34.33 0 0 0 3.68.2 14.48 14.48 0 0 0 7.71-1.85q3-1.86 3-6.81c0-2.24-.53-3.84-1.59-4.78a5.88 5.88 0 0 0-4-1.41 7.18 7.18 0 0 0-6.47 3.82Zm42.94 29.39a26.23 26.23 0 0 0 1.18-8.87l-.05-29.63a77.77 77.77 0 0 0-.42-8.94A3.45 3.45 0 0 1 389 179a7.85 7.85 0 0 1 2.05-.27 3.2 3.2 0 0 1 2 .41l8.26 11.35q7.92 10.86 12.12 16.84a89.1 89.1 0 0 1 6.21 9.9L417.77 185a8.29 8.29 0 0 1 .69-4.22 3.32 3.32 0 0 1 2.57-2 5.35 5.35 0 0 1 3.26.62 16.11 16.11 0 0 0-.41 3.4 97.6 97.6 0 0 0-.07 3.61v32c0 1.74 0 3.34.07 4.81s.13 2.75.27 3.85a2.79 2.79 0 0 1-1.35.69 7.85 7.85 0 0 1-2.05.27 4 4 0 0 1-1.8-.34 248.73 248.73 0 0 1-15.83-20.28q-6.67-9.63-10.7-16.78l1.6 33a4 4 0 0 1-1.08 3.2 3.76 3.76 0 0 1-2.81 1.27 5.69 5.69 0 0 1-3.26-.98Zm48.98-41.59a4.26 4.26 0 0 1-1.35-3.17 4.42 4.42 0 0 1 1.35-3.26 4.48 4.48 0 0 1 3.3-1.34 4.59 4.59 0 0 1 4.58 4.6 4.26 4.26 0 0 1-1.35 3.17 4.5 4.5 0 0 1-3.23 1.3 4.56 4.56 0 0 1-3.3-1.3Zm8.51 40.9a6.44 6.44 0 0 1-4.38 1.72 4.36 4.36 0 0 1-3.05-1.07 3.72 3.72 0 0 1-1.18-2.92l-.07-23.24a25.75 25.75 0 0 0-1.11-8.24 6.76 6.76 0 0 1 4.23-1.68 4.51 4.51 0 0 1 3.09 1.06 3.69 3.69 0 0 1 1.22 2.92l.13 23.24a23.08 23.08 0 0 0 1.12 8.21Zm-.36 14.99a4.92 4.92 0 0 1-2.11-4.13 4.11 4.11 0 0 1 1.07-2.85 3.86 3.86 0 0 1 3-1.2 2.77 2.77 0 0 1 1.56.38 3.37 3.37 0 0 1 1.08 1.2 5.22 5.22 0 0 0-.9 2.75 2.6 2.6 0 0 0 .8 2.16 3 3 0 0 0 2 .66c1.62 0 2.68-1 3.16-3.06a41.62 41.62 0 0 0 .73-9l.07-27.3a24 24 0 0 0-1.18-8.25 6.86 6.86 0 0 1 4.31-1.65 4.52 4.52 0 0 1 3.09 1.07 3.71 3.71 0 0 1 1.21 2.92v34.51a16 16 0 0 1-2.74 9.66q-2.75 3.75-8.92 3.75a10.36 10.36 0 0 1-6.23-1.62Zm10.63-56.69a4.43 4.43 0 0 1 0-6.25 4.55 4.55 0 0 1 6.31 0 4.43 4.43 0 0 1 0 6.25 4.53 4.53 0 0 1-6.31 0Zm47.98 41.7a6.18 6.18 0 0 1-4.31 1.72 4.54 4.54 0 0 1-3.16-1.1 3.69 3.69 0 0 1-1.21-2.89v-17.94c0-3.9-.45-6.77-1.36-8.63a4.83 4.83 0 0 0-4.75-2.78 6 6 0 0 0-4.13 1.75 12.26 12.26 0 0 0-3.09 5.36 29.15 29.15 0 0 0-1.18 9c0 5.41.05 9 .17 10.73a15.58 15.58 0 0 0 1.08 4.88 6.16 6.16 0 0 1-1.74 1.13 6 6 0 0 1-2.57.52 4.36 4.36 0 0 1-3.16-1.18 4.17 4.17 0 0 1-1.21-3.16l-.07-42.9a3.67 3.67 0 0 1 1.14-2.92 4.54 4.54 0 0 1 3.09-1 6.51 6.51 0 0 1 2.61.52 8.26 8.26 0 0 1 2 1.13 27.51 27.51 0 0 0-1.05 5.64c-.18 2.11-.3 4.83-.34 8.18v6.05a11.85 11.85 0 0 1 4.27-5.5 11.57 11.57 0 0 1 6.7-1.93q5.69 0 8.4 3.51t2.71 10.52l.07 13.13a23.12 23.12 0 0 0 1.09 8.16Zm42.21-2.43a3.69 3.69 0 0 1-1.29 3 5.44 5.44 0 0 1-3.64 1.1 5.71 5.71 0 0 1-4.69-2c-1.09-1.33-1.63-3.33-1.63-6v-.1a12.83 12.83 0 0 1-4.34 6.12 11.64 11.64 0 0 1-7.12 2.13c-3.79 0-6.56-1.08-8.29-3.23s-2.61-5.78-2.61-10.86l-.07-13.16a24.34 24.34 0 0 0-1.11-8.25 6.61 6.61 0 0 1 4.38-1.65 4.63 4.63 0 0 1 3.16 1.07 3.67 3.67 0 0 1 1.21 2.92V213c0 4.12.42 7.07 1.25 8.83a4.56 4.56 0 0 0 4.51 2.65 5.88 5.88 0 0 0 4.1-1.76 12.26 12.26 0 0 0 3-5.39 30.19 30.19 0 0 0 1.15-9c0-5.41-.07-9-.21-10.76a16.85 16.85 0 0 0-1.11-4.91 6.9 6.9 0 0 1 4.37-1.59 4.42 4.42 0 0 1 3.13 1.17 4.14 4.14 0 0 1 1.25 3.16l.06 23.45a5.82 5.82 0 0 0 .46 2.71 1.52 1.52 0 0 0 1.42.8 2 2 0 0 0 1.8-.9 4.27 4.27 0 0 1 .86 2.54Zm7.18-38.47a4.26 4.26 0 0 1-1.35-3.17 4.42 4.42 0 0 1 1.35-3.26 4.51 4.51 0 0 1 3.3-1.34 4.59 4.59 0 0 1 4.58 4.6 4.26 4.26 0 0 1-1.35 3.17 4.48 4.48 0 0 1-3.23 1.3 4.6 4.6 0 0 1-3.3-1.3Zm8.51 40.9a6.44 6.44 0 0 1-4.38 1.72 4.38 4.38 0 0 1-3-1.07 3.72 3.72 0 0 1-1.18-2.92l-.07-23.24a25.75 25.75 0 0 0-1.11-8.24A6.78 6.78 0 0 1 555 191a4.51 4.51 0 0 1 3.09 1.06 3.69 3.69 0 0 1 1.22 2.92l.14 23.24a23.35 23.35 0 0 0 1.06 8.21Zm9.79-.43a6.78 6.78 0 0 1-3.3-6 4.78 4.78 0 0 1 1.07-3.16 4.09 4.09 0 0 1 3.37-1.31 10 10 0 0 1 1.39.14 6.14 6.14 0 0 0-.21 1.51 8.5 8.5 0 0 0 .21 1.79 6.63 6.63 0 0 0 2.46 4.47 9 9 0 0 0 5.8 1.71 10.27 10.27 0 0 0 5.28-1.2 3.87 3.87 0 0 0 2-3.54 4.37 4.37 0 0 0-.94-2.78 8.13 8.13 0 0 0-2.32-2q-1.4-.82-4-2.07a16.07 16.07 0 0 1-1.67-.75 58.49 58.49 0 0 1-5.93-3.06 12.37 12.37 0 0 1-3.75-3.61 9.6 9.6 0 0 1-1.57-5.57 7.92 7.92 0 0 1 3.81-7.17 17.52 17.52 0 0 1 9.52-2.37q5.76 0 9.09 1.75a5.48 5.48 0 0 1 3.33 5.05 4 4 0 0 1-.86 2.58 3.51 3.51 0 0 1-2.75 1.13 4.43 4.43 0 0 1-.9.07 11.42 11.42 0 0 1-1.32-.13 7.7 7.7 0 0 0 .07-1.24 4.79 4.79 0 0 0-.42-2.27 4.52 4.52 0 0 0-2.11-3 8.23 8.23 0 0 0-4.41-1.07 8.58 8.58 0 0 0-4.34 1 3.43 3.43 0 0 0-1.77 3.17 5 5 0 0 0 1.14 3.3 10.42 10.42 0 0 0 2.82 2.33q1.66 1 4.72 2.41a91.01 91.01 0 0 1 6.31 3.2 13.51 13.51 0 0 1 3.75 3.26 7.7 7.7 0 0 1 1.67 5 9.36 9.36 0 0 1-3.71 7.46q-3.72 3.06-11.63 3.06-6.56.06-9.9-2.09Z" fill="#fff"/></svg>
