<svg xmlns="http://www.w3.org/2000/svg" fill="none" viewBox="0 0 960 560"><g clip-path="url(#a)"><path fill="#fff" d="M0 0h960v560H0z"/><path fill="url(#b)" d="M0 0h960v560H0V0Z"/><path stroke="#F8FAFC" stroke-miterlimit="10" stroke-width="2.667" d="M80 0H0v80M80 0v80m0-80h80M80 80H0m80 0h80m-80 0v80M0 80v80M160 0v80m0-80h80m-80 80h80m-80 0v80M240 0v80m0-80h80m-80 80h80m-80 0v80M320 0v80m0-80h80m-80 80h80m-80 0v80M400 0v80m0-80h80m-80 80h80m-80 0v80M480 0v80m0-80h80m-80 80h80m-80 0v80M560 0v80m0-80h80m-80 80h80m-80 0v80M640 0v80m0-80h80m-80 80h80m-80 0v80M720 0v80m0-80h80m-80 80h80m-80 0v80M800 0v80m0-80h80m-80 80h80m-80 0v80M880 0v80m0-80h80v80m-80 0h80m-80 0v80m80-80v80m-880 0H0m80 0h80m-80 0v80M0 160v80m160-80h80m-80 0v80m80-80h80m-80 0v80m80-80h80m-80 0v80m80-80h80m-80 0v80m80-80h80m-80 0v80m80-80h80m-80 0v80m80-80h80m-80 0v80m80-80h80m-80 0v80m80-80h80m-80 0v80m80-80h80m-80 0v80m80-80v80m-880 0H0m80 0h80m-80 0v80M0 240v80m160-80h80m-80 0v80m80-80h80m-80 0v80m80-80h80m-80 0v80m80-80h80m-80 0v80m80-80h80m-80 0v80m80-80h80m-80 0v80m80-80h80m-80 0v80m80-80h80m-80 0v80m80-80h80m-80 0v80m80-80h80m-80 0v80m80-80v80m-880 0H0m80 0h80m-80 0v80M0 320v80m160-80h80m-80 0v80m80-80h80m-80 0v80m80-80h80m-80 0v80m80-80h80m-80 0v80m80-80h80m-80 0v80m80-80h80m-80 0v80m80-80h80m-80 0v80m80-80h80m-80 0v80m80-80h80m-80 0v80m80-80h80m-80 0v80m80-80v80m-880 0H0m80 0h80m-80 0v80M0 400v80m160-80h80m-80 0v80m80-80h80m-80 0v80m80-80h80m-80 0v80m80-80h80m-80 0v80m80-80h80m-80 0v80m80-80h80m-80 0v80m80-80h80m-80 0v80m80-80h80m-80 0v80m80-80h80m-80 0v80m80-80h80m-80 0v80m80-80v80m-880 0H0m80 0h80m-80 0v80M0 480v80h80m80-80h80m-80 0v80m80-80h80m-80 0v80m80-80h80m-80 0v80m80-80h80m-80 0v80m80-80h80m-80 0v80m80-80h80m-80 0v80m80-80h80m-80 0v80m80-80h80m-80 0v80m80-80h80m-80 0v80m80-80h80m-80 0v80m80-80v80h-80m-800 0h80m0 0h80m0 0h80m0 0h80m0 0h80m0 0h80m0 0h80m0 0h80m0 0h80m0 0h80"/><path stroke="#F8FAFC" stroke-miterlimit="10" stroke-width="2.667" d="M916 540H44c-13.255 0-24-10.745-24-24V44c0-13.255 10.745-24 24-24h872c13.255 0 24 10.745 24 24v472c0 13.255-10.745 24-24 24Z"/><path fill="#2970FF" d="M284.237 195.611c3.076-9.882 12.194-16.611 22.508-16.611h104.656c15.91 0 27.254 15.49 22.509 30.733l-48.147 154.656C382.687 374.271 373.569 381 363.255 381H258.599c-15.91 0-27.254-15.49-22.509-30.733l48.147-154.656Z"/><path fill="#364152" d="M546.704 236.864v16.896h-45.44v19.584h39.68v16.896h-39.68V328H482.32v-91.136h64.384ZM573.103 328h-18.048v-91.136h18.048V328Zm55.903-30.72v-35.328h18.048V328H629.39l-.256-8.96c-4.267 7.083-10.624 10.624-19.072 10.624-6.827 0-12.16-2.091-16-6.272-3.755-4.181-5.632-9.899-5.632-17.152v-44.288h18.048v40.192c0 3.584.811 6.357 2.432 8.32 1.707 1.963 4.096 2.944 7.168 2.944 3.84 0 6.955-1.451 9.344-4.352 2.389-2.987 3.584-6.912 3.584-11.776Zm70.672-4.096L722.974 328h-20.992l-11.904-21.632L676.894 328H656.67l24.448-34.688-21.248-31.36h20.608l10.24 18.56 11.136-18.56h19.072l-21.248 31.232Z"/></g><defs><linearGradient id="b" x1="480" x2="480" y1="560" y2="0" gradientUnits="userSpaceOnUse"><stop stop-color="#F8FAFC"/><stop offset=".125" stop-color="#F8FAFC"/><stop offset=".25" stop-color="#F9FBFD"/><stop offset=".375" stop-color="#FAFCFD"/><stop offset=".5" stop-color="#FBFCFD"/><stop offset=".625" stop-color="#FCFDFE"/><stop offset=".75" stop-color="#FDFDFE"/><stop offset=".875" stop-color="#FEFEFE"/><stop offset="1" stop-color="#fff"/></linearGradient><clipPath id="a"><path fill="#fff" d="M0 0h960v560H0z"/></clipPath></defs></svg>
