<svg xmlns="http://www.w3.org/2000/svg" xmlns:xlink="http://www.w3.org/1999/xlink" viewBox="0 0 720 420">
    <defs>
        <linearGradient id="b" x1="361" y1="421" x2="361" y2="1" gradientTransform="matrix(1, 0, 0, 1, 0, 0)" gradientUnits="userSpaceOnUse">
            <stop offset="0" stop-color="#f8fafc"/>
            <stop offset="1" stop-color="#fff"/>
        </linearGradient>
        <clipPath id="a">
            <path fill="none" d="M1 1h720v420H1z"/>
        </clipPath>
        <symbol id="c" viewBox="0 0 722 422">
            <g clip-path="url(#a)">
                <path fill="url(#b)" d="M1 1h720v420H1z"/>
                <path fill="none" stroke="#f8fafc" stroke-miterlimit="10" stroke-width="2" d="M1 1h60v60H1zm60 0h60v60H61zm60 0h60v60h-60zm60 0h60v60h-60zm60 0h60v60h-60zm60 0h60v60h-60zm60 0h60v60h-60zm60 0h60v60h-60zm60 0h60v60h-60zm60 0h60v60h-60zm60 0h60v60h-60zm60 0h60v60h-60zM1 61h60v60H1zm60 0h60v60H61zm60 0h60v60h-60zm60 0h60v60h-60zm60 0h60v60h-60zm60 0h60v60h-60zm60 0h60v60h-60zm60 0h60v60h-60zm60 0h60v60h-60zm60 0h60v60h-60zm60 0h60v60h-60zm60 0h60v60h-60zM1 121h60v60H1zm60 0h60v60H61zm60 0h60v60h-60zm60 0h60v60h-60zm60 0h60v60h-60zm60 0h60v60h-60zm60 0h60v60h-60zm60 0h60v60h-60zm60 0h60v60h-60zm60 0h60v60h-60zm60 0h60v60h-60zm60 0h60v60h-60zM1 181h60v60H1zm60 0h60v60H61zm60 0h60v60h-60zm60 0h60v60h-60zm60 0h60v60h-60zm60 0h60v60h-60zm60 0h60v60h-60zm60 0h60v60h-60zm60 0h60v60h-60zm60 0h60v60h-60zm60 0h60v60h-60zm60 0h60v60h-60zM1 241h60v60H1zm60 0h60v60H61zm60 0h60v60h-60zm60 0h60v60h-60zm60 0h60v60h-60zm60 0h60v60h-60zm60 0h60v60h-60zm60 0h60v60h-60zm60 0h60v60h-60zm60 0h60v60h-60zm60 0h60v60h-60zm60 0h60v60h-60zM1 301h60v60H1zm60 0h60v60H61zm60 0h60v60h-60zm60 0h60v60h-60zm60 0h60v60h-60zm60 0h60v60h-60zm60 0h60v60h-60zm60 0h60v60h-60zm60 0h60v60h-60zm60 0h60v60h-60zm60 0h60v60h-60zm60 0h60v60h-60zM1 361h60v60H1zm60 0h60v60H61zm60 0h60v60h-60zm60 0h60v60h-60zm60 0h60v60h-60zm60 0h60v60h-60zm60 0h60v60h-60zm60 0h60v60h-60zm60 0h60v60h-60zm60 0h60v60h-60zm60 0h60v60h-60zm60 0h60v60h-60z"/>
                <rect x="16" y="16" width="690" height="390" rx="18" ry="18" fill="none" stroke="#f8fafc" stroke-miterlimit="10" stroke-width="2"/>
            </g>
        </symbol>
    </defs>
    <use width="722" height="422" transform="translate(-1 -1)" xlink:href="#c"/>
    <path d="M186.96 234h-9.21c-.98 0-1.57-.48-1.76-1.43l-10.89-40.9c-.33-1.05.14-1.57 1.41-1.57h6.61c.94 0 1.5.48 1.69 1.43l7.38 33.59h.28l7.38-33.59c.19-.96.75-1.43 1.69-1.43h6.61c1.17 0 1.64.52 1.41 1.57l-10.89 40.9c-.24.96-.8 1.43-1.69 1.43Zm17.85-40.69v-5.94c0-.91.47-1.37 1.41-1.37h6.11c.94 0 1.41.43 1.41 1.3v6.01c0 .91-.47 1.37-1.41 1.37h-6.11c-.94 0-1.41-.45-1.41-1.37Zm0 39.26v-31.95c0-.96.47-1.43 1.41-1.43h6.04c.98 0 1.48.48 1.48 1.43v31.95c0 .59-.11.98-.32 1.16-.21.18-.57.27-1.09.27h-6.04c-.98 0-1.48-.48-1.48-1.43Zm30.57 1.43h-13.35c-.94 0-1.41-.48-1.41-1.43v-4.37c0-.5.09-.85.28-1.06.19-.21.56-.31 1.12-.31h11.74c2.3 0 3.44-.68 3.44-2.05v-.34c0-1.09-.96-2.14-2.88-3.14l-6.96-3.76c-2.39-1.18-4.15-2.46-5.27-3.82a8.04 8.04 0 0 1-1.69-5.26c0-3.19.87-5.53 2.6-7.03s4.45-2.25 8.15-2.25h11.74c.94 0 1.41.48 1.41 1.43v4.44c0 .5-.09.85-.28 1.06-.19.2-.56.31-1.12.31h-9.77c-2.3 0-3.44.57-3.44 1.71v.34c0 1 1.01 2.03 3.02 3.07l7.1 4.1c2.44 1.28 4.15 2.58 5.13 3.93.98 1.34 1.48 3.11 1.48 5.29 0 6.1-3.68 9.15-11.03 9.15Zm30.15 0h-2.32c-3.61 0-6.34-.96-8.19-2.87-1.85-1.91-2.78-4.67-2.78-8.26v-22.26c0-.96.49-1.43 1.48-1.43h5.97c.98 0 1.48.48 1.48 1.43v21.85c0 1.46.32 2.49.95 3.11s1.67.92 3.13.92h2.6c3.23 0 4.85-1.73 4.85-5.19v-20.69c0-.96.49-1.43 1.48-1.43h5.9c1.03 0 1.55.48 1.55 1.43v31.95c0 .96-.52 1.43-1.55 1.43h-5.9c-.98 0-1.48-.48-1.48-1.43v-2.25h-.28a5.3 5.3 0 0 1-2.74 2.77 9.7 9.7 0 0 1-4.15.92Zm36.4 0h-1.69c-3.7 0-6.56-.96-8.57-2.87-2.02-1.91-3.02-4.67-3.02-8.26v-12.56c0-3.6 1.01-6.35 3.02-8.26 2.01-1.91 4.87-2.87 8.57-2.87h16.23c1.03 0 1.55.48 1.55 1.43v31.95c0 .96-.52 1.43-1.55 1.43h-5.9c-.98 0-1.48-.48-1.48-1.43v-2.25h-.28a5.3 5.3 0 0 1-2.74 2.77 9.7 9.7 0 0 1-4.15.92Zm7.17-12.7v-13.86c0-.5-.28-.75-.84-.75h-6.61c-1.5 0-2.55.31-3.16.92s-.91 1.65-.91 3.11v11.74c0 1.46.3 2.49.91 3.11s1.66.92 3.16.92h2.6c3.23 0 4.85-1.73 4.85-5.19Zm24.46 12.7h-5.97c-.98 0-1.48-.48-1.48-1.43v-45.13c0-.96.49-1.43 1.48-1.43h5.97c.98 0 1.48.48 1.48 1.43v45.13c0 .96-.49 1.43-1.48 1.43Zm50.18 0h-22.98c-.98 0-1.48-.48-1.48-1.43v-41.04c0-.96.49-1.43 1.48-1.43h22.98c.94 0 1.41.48 1.41 1.43v4.64c0 .96-.47 1.43-1.41 1.43h-14.69c-.56 0-.84.25-.84.75v8.88c0 .5.28.75.84.75h12.02c.98 0 1.48.48 1.48 1.43v4.64c0 .96-.49 1.43-1.48 1.43h-12.02c-.56 0-.84.25-.84.75v9.49c0 .5.28.75.84.75h14.69c.94 0 1.41.48 1.41 1.43v4.64c0 .96-.47 1.43-1.41 1.43Zm21.5-34.82h5.62c.56 0 .95.1 1.16.31.21.21.32.56.32 1.06v4.71c0 .96-.49 1.43-1.48 1.43h-5.62c-.52 0-.77.25-.77.75v25.13c0 .96-.52 1.43-1.55 1.43h-5.9c-.98 0-1.48-.48-1.48-1.43v-25.13c0-.5-.28-.75-.84-.75h-3.23c-.98 0-1.48-.48-1.48-1.43v-4.71c0-.55.11-.91.32-1.09.21-.18.6-.27 1.16-.27h3.23c.56 0 .84-.25.84-.75v-1.3c0-3.6.97-6.35 2.92-8.26 1.94-1.91 4.77-2.87 8.47-2.87h4.01c.56 0 .94.1 1.12.31.19.21.28.56.28 1.06v4.71c0 .96-.47 1.43-1.41 1.43h-2.6c-1.5 0-2.52.31-3.06.92s-.81 1.65-.81 3.11v.89c0 .5.26.75.77.75Zm24.88 0h5.62c.56 0 .95.1 1.16.31.21.21.32.56.32 1.06v4.71c0 .96-.49 1.43-1.48 1.43h-5.62c-.52 0-.77.25-.77.75v25.13c0 .96-.52 1.43-1.55 1.43h-5.9c-.98 0-1.48-.48-1.48-1.43v-25.13c0-.5-.28-.75-.84-.75h-3.23c-.98 0-1.48-.48-1.48-1.43v-4.71c0-.55.11-.91.32-1.09.21-.18.6-.27 1.16-.27h3.23c.56 0 .84-.25.84-.75v-1.3c0-3.6.97-6.35 2.92-8.26 1.94-1.91 4.77-2.87 8.47-2.87h4.01c.56 0 .94.1 1.12.31.19.21.28.56.28 1.06v4.71c0 .96-.47 1.43-1.41 1.43h-2.6c-1.5 0-2.52.31-3.06.92s-.81 1.65-.81 3.11v.89c0 .5.26.75.77.75Zm38.3 34.82h-15.53c-3.7 0-6.56-.96-8.57-2.87-2.02-1.91-3.02-4.67-3.02-8.26v-12.56c0-3.6 1.01-6.35 3.02-8.26 2.01-1.91 4.87-2.87 8.57-2.87h5.55c3.7 0 6.56.96 8.57 2.87 2.01 1.91 3.02 4.67 3.02 8.26v8.67c0 .96-.49 1.43-1.48 1.43h-17.64c-.56 0-.84.25-.84.75v1.5c0 1.41.32 2.42.95 3.04s1.7.92 3.2.92h14.2c.98 0 1.48.5 1.48 1.5v4.51c0 .5-.11.85-.32 1.06-.21.21-.6.31-1.16.31Zm-17.5-19.39h9.56c.51 0 .77-.25.77-.75v-3.28c0-1.46-.31-2.48-.91-3.07-.61-.59-1.66-.89-3.16-.89h-2.95c-1.5 0-2.55.3-3.16.89-.61.59-.91 1.62-.91 3.07v3.28c0 .5.26.75.77.75Zm48.63 13.31v4.71c0 .5-.11.85-.32 1.06-.21.21-.6.31-1.16.31H487.6c-3.7 0-6.56-.96-8.57-2.87-2.02-1.91-3.02-4.67-3.02-8.26v-12.56c0-3.6 1.01-6.35 3.02-8.26 2.01-1.91 4.87-2.87 8.57-2.87h10.47c.98 0 1.48.48 1.48 1.43v4.71c0 .5-.11.85-.32 1.06-.21.21-.6.31-1.16.31H489c-1.45 0-2.49.31-3.13.92s-.95 1.65-.95 3.11v11.74c0 1.46.32 2.49.95 3.11s1.67.92 3.13.92h9.07c.98 0 1.48.48 1.48 1.43Zm6.82-21.23h-2.81c-.56 0-.95-.09-1.16-.27-.21-.18-.32-.55-.32-1.09v-4.71c0-.96.49-1.43 1.48-1.43h2.81c.51 0 .77-.25.77-.75v-6.49c0-.96.51-1.43 1.55-1.43h5.9c.98 0 1.48.48 1.48 1.43v6.49c0 .5.28.75.84.75h5.48c.98 0 1.48.48 1.48 1.43v4.71c0 .5-.11.85-.32 1.06s-.6.31-1.16.31h-5.48c-.56 0-.84.25-.84.75v15.09c0 1.41.33 2.42.98 3.04.66.61 1.73.92 3.23.92h2.81c.98 0 1.48.48 1.48 1.43v4.71c0 .5-.11.85-.32 1.06-.21.21-.6.31-1.16.31h-4.29c-3.7 0-6.57-.96-8.61-2.87-2.04-1.91-3.06-4.64-3.06-8.19v-15.5c0-.5-.26-.75-.77-.75Zm37.6 27.31h-13.35c-.94 0-1.41-.48-1.41-1.43v-4.37c0-.5.09-.85.28-1.06.19-.21.56-.31 1.13-.31h11.74c2.29 0 3.44-.68 3.44-2.05v-.34c0-1.09-.96-2.14-2.88-3.14l-6.96-3.76c-2.39-1.18-4.15-2.46-5.27-3.82a8.04 8.04 0 0 1-1.69-5.26c0-3.19.87-5.53 2.6-7.03s4.45-2.25 8.15-2.25h11.74c.94 0 1.41.48 1.41 1.43v4.44c0 .5-.09.85-.28 1.06-.19.2-.56.31-1.12.31h-9.77c-2.3 0-3.44.57-3.44 1.71v.34c0 1 1.01 2.03 3.02 3.07l7.1 4.1c2.44 1.28 4.15 2.58 5.13 3.93.98 1.34 1.48 3.11 1.48 5.29 0 6.1-3.68 9.15-11.03 9.15Z" fill="#0fb981"/>
    <path d="M360 127.45V96m0 228v-31.45m58.29-140.92 22.21-22.24m-161 161.22 22.21-22.24m0-116.75-22.21-22.24m138.79 138.98 22.21 22.24" fill="none" stroke="#ec4899" stroke-linecap="round" stroke-miterlimit="10" stroke-width="12"/>
</svg>
