<svg xmlns="http://www.w3.org/2000/svg" xmlns:xlink="http://www.w3.org/1999/xlink" viewBox="0 0 720 420"><defs><linearGradient id="b" x1="361" y1="421" x2="361" y2="1" gradientUnits="userSpaceOnUse"><stop offset="0" stop-color="#e2e8f0"/><stop offset="1" stop-color="#f8fafc"/></linearGradient><clipPath id="a"><path fill="none" d="M1 1h720v420H1z"/></clipPath><symbol id="c" viewBox="0 0 722 422"><g clip-path="url(#a)"><path fill="url(#b)" d="M1 1h720v420H1z"/><path fill="none" stroke="#e2e8f0" stroke-miterlimit="10" stroke-width="2" d="M1 1h60v60H1zm60 0h60v60H61zm60 0h60v60h-60zm60 0h60v60h-60zm60 0h60v60h-60zm60 0h60v60h-60zm60 0h60v60h-60zm60 0h60v60h-60zm60 0h60v60h-60zm60 0h60v60h-60zm60 0h60v60h-60zm60 0h60v60h-60zM1 61h60v60H1zm60 0h60v60H61zm60 0h60v60h-60zm60 0h60v60h-60zm60 0h60v60h-60zm60 0h60v60h-60zm60 0h60v60h-60zm60 0h60v60h-60zm60 0h60v60h-60zm60 0h60v60h-60zm60 0h60v60h-60zm60 0h60v60h-60zM1 121h60v60H1zm60 0h60v60H61zm60 0h60v60h-60zm60 0h60v60h-60zm60 0h60v60h-60zm60 0h60v60h-60zm60 0h60v60h-60zm60 0h60v60h-60zm60 0h60v60h-60zm60 0h60v60h-60zm60 0h60v60h-60zm60 0h60v60h-60zM1 181h60v60H1zm60 0h60v60H61zm60 0h60v60h-60zm60 0h60v60h-60zm60 0h60v60h-60zm60 0h60v60h-60zm60 0h60v60h-60zm60 0h60v60h-60zm60 0h60v60h-60zm60 0h60v60h-60zm60 0h60v60h-60zm60 0h60v60h-60zM1 241h60v60H1zm60 0h60v60H61zm60 0h60v60h-60zm60 0h60v60h-60zm60 0h60v60h-60zm60 0h60v60h-60zm60 0h60v60h-60zm60 0h60v60h-60zm60 0h60v60h-60zm60 0h60v60h-60zm60 0h60v60h-60zm60 0h60v60h-60zM1 301h60v60H1zm60 0h60v60H61zm60 0h60v60h-60zm60 0h60v60h-60zm60 0h60v60h-60zm60 0h60v60h-60zm60 0h60v60h-60zm60 0h60v60h-60zm60 0h60v60h-60zm60 0h60v60h-60zm60 0h60v60h-60zm60 0h60v60h-60zM1 361h60v60H1zm60 0h60v60H61zm60 0h60v60h-60zm60 0h60v60h-60zm60 0h60v60h-60zm60 0h60v60h-60zm60 0h60v60h-60zm60 0h60v60h-60zm60 0h60v60h-60zm60 0h60v60h-60zm60 0h60v60h-60zm60 0h60v60h-60z"/><rect x="16" y="16" width="690" height="390" rx="18" fill="none" stroke="#e2e8f0" stroke-miterlimit="10" stroke-width="2"/></g></symbol></defs><use width="722" height="422" transform="translate(-1 -1)" xlink:href="#c"/><path d="M265.85 226.57a5 5 0 0 1-1.15-.13 5 5 0 0 1-3.11-2.26 4.92 4.92 0 0 1-.59-3.74 33 33 0 0 1 3.27-7.69 49.14 49.14 0 0 1 8.38-11 47.79 47.79 0 0 1 14.84-9.93 56.76 56.76 0 0 1 22.42-4.31.63.63 0 1 0 0-1.26c-12.66 0-23.73 3.46-32.9 10.27l-2.62 2 .06-3.27a26.21 26.21 0 0 1 .53-4.93 25.66 25.66 0 0 1 7-12.86 26.27 26.27 0 0 1 12.81-7.17 27.09 27.09 0 0 1 6.11-.7 26.19 26.19 0 0 1 6.05.7 18.66 18.66 0 0 0 4.34.51 18.13 18.13 0 0 0 8.53-2.1 17 17 0 0 0 3.6-2.6 16.27 16.27 0 0 0 2.85-3.63 3.59 3.59 0 0 1 3.13-1.8 3.49 3.49 0 0 1 3.21 2.06 41.88 41.88 0 0 1 2.81 8.77 46.09 46.09 0 0 1 1 9.47 47.66 47.66 0 0 1-1.84 13.23 42.43 42.43 0 0 1-5.23 11.45 37.64 37.64 0 0 1-8.16 9 34.73 34.73 0 0 1-10.59 5.7 26.56 26.56 0 0 1-32-10.42 31.81 31.81 0 0 0-7.82 12.93 5 5 0 0 1-1.79 2.77 5 5 0 0 1-3.14.94Z" fill="#809984"/><path d="M329.36 162.22a2 2 0 0 0-1.74 1c-4.39 7.54-13.17 10.44-21.08 8.58a24.87 24.87 0 0 0-30 18.79 25.6 25.6 0 0 0-.5 4.63c7.73-5.74 18.69-10.59 33.86-10.59a2.24 2.24 0 1 1 0 4.48c-34.57 0-46 26.17-47.35 31.71a3.36 3.36 0 0 0 2.51 4.05 3.55 3.55 0 0 0 .79.09 3.37 3.37 0 0 0 3.29-2.58 34.07 34.07 0 0 1 9.74-15.13A24.84 24.84 0 0 0 310 218.73c14.87-4.87 24.76-19.91 24.76-37.82a43.5 43.5 0 0 0-3.66-17.57 1.86 1.86 0 0 0-1.74-1.12m0-3.22a5.14 5.14 0 0 1 2.68.75 5 5 0 0 1 2 2.26 43.68 43.68 0 0 1 2.93 9.1 48.59 48.59 0 0 1 1 9.8 49.22 49.22 0 0 1-1.9 13.67 43.59 43.59 0 0 1-5.43 11.89 39 39 0 0 1-8.51 9.34 36.14 36.14 0 0 1-11 5.95 28.17 28.17 0 0 1-32.74-9.36 32 32 0 0 0-4.22 6.24 24.9 24.9 0 0 0-1.87 4.51 6.56 6.56 0 0 1-2.37 3.65 6.64 6.64 0 0 1-4 1.38 7.08 7.08 0 0 1-1.52-.17 6.57 6.57 0 0 1-4.1-3 6.48 6.48 0 0 1-.78-5 34.46 34.46 0 0 1 3.42-8.09 50.59 50.59 0 0 1 8.67-11.37c.41-.4.82-.8 1.24-1.18l.08-4.25a27.54 27.54 0 0 1 .57-5.22 27.22 27.22 0 0 1 7.39-13.67 28 28 0 0 1 13.59-7.61 29.13 29.13 0 0 1 6.47-.74 28.29 28.29 0 0 1 6.42.74 17.1 17.1 0 0 0 4 .47 16.45 16.45 0 0 0 7.77-1.91 14.73 14.73 0 0 0 5.83-5.62 5.22 5.22 0 0 1 2-1.95 5.32 5.32 0 0 1 2.38-.61Z" fill="#f6f6f6"/><g style="isolation:isolate" stroke="#f6f6f6" stroke-miterlimit="10" stroke-width="2.41"><path d="M154 250.14v-60.09c0-7.12 3.86-11 11-11h40.24a8.75 8.75 0 0 1 0 17.5h-30.51V210h29.64a8.81 8.81 0 0 1 0 17.62h-29.64v22.56a10.37 10.37 0 1 1-20.73 0Zm69.65 1.21v-64.07a9.28 9.28 0 1 1 18.56 0v64.07a9.28 9.28 0 1 1-18.56 0Zm98.21.96c0 5.19-2.89 8.69-8.31 8.69h-1.45c-8.07 0-13.86-3.38-16.15-10.14A21.09 21.09 0 0 1 277.64 261c-14.34 0-25.79-10.86-25.79-30.65 0-19.06 11.2-30.52 25.79-30.52a21.21 21.21 0 0 1 17.23 8.44 9.06 9.06 0 0 1 9.16-8.08 9.36 9.36 0 0 1 9.27 9.29V240c0 2.89 1.93 4.1 3.86 4.82l.48.24c2.89 1.1 4.22 3.87 4.22 7.25Zm-27-13v-17.77c-2.41-3.13-7.23-5.18-11.21-5.18-7.35 0-12.77 5.31-12.77 14s5.42 14.24 12.77 14.24a15.27 15.27 0 0 0 11.22-5.32Zm91.71-21.02v33.06a9.28 9.28 0 1 1-18.56 0v-25.46c0-7.12-3.73-9.65-9.52-9.65a14.33 14.33 0 0 0-11.32 5.67v29.44a9.28 9.28 0 1 1-18.56 0v-41.87a9.27 9.27 0 0 1 9.28-9.53 9.41 9.41 0 0 1 9.4 8.32c3.61-4.1 10.24-8.44 20-8.44 13.26 0 19.28 7.72 19.28 18.46Zm49.05 34.26a7.64 7.64 0 0 1-5.91 7.48 27.41 27.41 0 0 1-7.59 1c-11.81 0-18.2-5.91-18.2-17.13v-26.46h-2.65a8.09 8.09 0 0 1 0-16.17h2.65v-7.72a9.22 9.22 0 1 1 18.44 0v7.72h4.82a8.09 8.09 0 0 1 0 16.17h-4.82v21.24c0 3.26 1.81 5.79 4.82 5.91H429c4 .24 6.62 3.86 6.62 7.96Z" style="isolation:isolate" fill="#1f0e32"/><path d="M154 250.14v-60.09c0-7.12 3.86-11 11-11h40.24a8.75 8.75 0 0 1 0 17.5h-30.51V210h29.64a8.81 8.81 0 0 1 0 17.62h-29.64v22.56a10.37 10.37 0 1 1-20.73 0Zm69.65 1.21v-64.07a9.28 9.28 0 1 1 18.56 0v64.07a9.28 9.28 0 1 1-18.56 0Zm98.21.96c0 5.19-2.89 8.69-8.31 8.69h-1.45c-8.07 0-13.86-3.38-16.15-10.14A21.09 21.09 0 0 1 277.64 261c-14.34 0-25.79-10.86-25.79-30.65 0-19.06 11.2-30.52 25.79-30.52a21.21 21.21 0 0 1 17.23 8.44 9.06 9.06 0 0 1 9.16-8.08 9.36 9.36 0 0 1 9.27 9.29V240c0 2.89 1.93 4.1 3.86 4.82l.48.24c2.89 1.1 4.22 3.87 4.22 7.25Zm-27-13v-17.77c-2.41-3.13-7.23-5.18-11.21-5.18-7.35 0-12.77 5.31-12.77 14s5.42 14.24 12.77 14.24a15.27 15.27 0 0 0 11.22-5.32Zm91.71-21.02v33.06a9.28 9.28 0 1 1-18.56 0v-25.46c0-7.12-3.73-9.65-9.52-9.65a14.33 14.33 0 0 0-11.32 5.67v29.44a9.28 9.28 0 1 1-18.56 0v-41.87a9.27 9.27 0 0 1 9.28-9.53 9.41 9.41 0 0 1 9.4 8.32c3.61-4.1 10.24-8.44 20-8.44 13.26 0 19.28 7.72 19.28 18.46Zm49.05 34.26a7.64 7.64 0 0 1-5.91 7.48 27.41 27.41 0 0 1-7.59 1c-11.81 0-18.2-5.91-18.2-17.13v-26.46h-2.65a8.09 8.09 0 0 1 0-16.17h2.65v-7.72a9.22 9.22 0 1 1 18.44 0v7.72h4.82a8.09 8.09 0 0 1 0 16.17h-4.82v21.24c0 3.26 1.81 5.79 4.82 5.91H429c4 .24 6.62 3.86 6.62 7.96Z" style="isolation:isolate" fill="none"/><path d="M452.85 238.32a11.34 11.34 0 1 1-11.33 11.34 11.48 11.48 0 0 1 11.33-11.34ZM534 218.29v33.06a9.28 9.28 0 1 1-18.56 0v-25.46c0-7.12-3.74-9.65-9.52-9.65a14.35 14.35 0 0 0-11.33 5.67v29.44a9.28 9.28 0 1 1-18.55 0v-41.87a9.26 9.26 0 0 1 9.27-9.53 9.41 9.41 0 0 1 9.4 8.32c3.62-4.1 10.25-8.44 20-8.44 13.21 0 19.29 7.72 19.29 18.46Zm13.44 33.06v-64.07a9.28 9.28 0 1 1 18.56 0v64.07a9.28 9.28 0 1 1-18.56 0Z" style="isolation:isolate" fill="#66806a"/><path d="M452.85 238.32a11.34 11.34 0 1 1-11.33 11.34 11.48 11.48 0 0 1 11.33-11.34ZM534 218.29v33.06a9.28 9.28 0 1 1-18.56 0v-25.46c0-7.12-3.74-9.65-9.52-9.65a14.35 14.35 0 0 0-11.33 5.67v29.44a9.28 9.28 0 1 1-18.55 0v-41.87a9.26 9.26 0 0 1 9.27-9.53 9.41 9.41 0 0 1 9.4 8.32c3.62-4.1 10.25-8.44 20-8.44 13.21 0 19.29 7.72 19.29 18.46Zm13.44 33.06v-64.07a9.28 9.28 0 1 1 18.56 0v64.07a9.28 9.28 0 1 1-18.56 0Z" style="isolation:isolate" fill="none"/></g></svg>
