<svg xmlns="http://www.w3.org/2000/svg" viewBox="0 0 720 420"><defs><linearGradient id="b" x1="360" y1="420" x2="360" y2="0" gradientTransform="matrix(1, 0, 0, 1, 0, 0)" gradientUnits="userSpaceOnUse"><stop offset="0" stop-color="#2c4134"/><stop offset="1" stop-color="#344b3e"/></linearGradient><clipPath id="a"><path fill="none" d="M0 0h720v420H0z"/></clipPath></defs><g clip-path="url(#a)"><path fill="url(#b)" d="M0 0h720v420H0z"/><path d="M0 0h60v60H0zm60 0h60v60H60zm60 0h60v60h-60zm60 0h60v60h-60zm60 0h60v60h-60zm60 0h60v60h-60zm60 0h60v60h-60zm60 0h60v60h-60zm60 0h60v60h-60zm60 0h60v60h-60zm60 0h60v60h-60zm60 0h60v60h-60zM0 60h60v60H0zm60 0h60v60H60zm60 0h60v60h-60zm60 0h60v60h-60zm60 0h60v60h-60zm60 0h60v60h-60zm60 0h60v60h-60zm60 0h60v60h-60zm60 0h60v60h-60zm60 0h60v60h-60zm60 0h60v60h-60zm60 0h60v60h-60zM0 120h60v60H0zm60 0h60v60H60zm60 0h60v60h-60zm60 0h60v60h-60zm60 0h60v60h-60zm60 0h60v60h-60zm60 0h60v60h-60zm60 0h60v60h-60zm60 0h60v60h-60zm60 0h60v60h-60zm60 0h60v60h-60zm60 0h60v60h-60zM0 180h60v60H0zm60 0h60v60H60zm60 0h60v60h-60zm60 0h60v60h-60zm60 0h60v60h-60zm60 0h60v60h-60zm60 0h60v60h-60zm60 0h60v60h-60zm60 0h60v60h-60zm60 0h60v60h-60zm60 0h60v60h-60zm60 0h60v60h-60zM0 240h60v60H0zm60 0h60v60H60zm60 0h60v60h-60zm60 0h60v60h-60zm60 0h60v60h-60zm60 0h60v60h-60zm60 0h60v60h-60zm60 0h60v60h-60zm60 0h60v60h-60zm60 0h60v60h-60zm60 0h60v60h-60zm60 0h60v60h-60zM0 300h60v60H0zm60 0h60v60H60zm60 0h60v60h-60zm60 0h60v60h-60zm60 0h60v60h-60zm60 0h60v60h-60zm60 0h60v60h-60zm60 0h60v60h-60zm60 0h60v60h-60zm60 0h60v60h-60zm60 0h60v60h-60zm60 0h60v60h-60zM0 360h60v60H0zm60 0h60v60H60zm60 0h60v60h-60zm60 0h60v60h-60zm60 0h60v60h-60zm60 0h60v60h-60zm60 0h60v60h-60zm60 0h60v60h-60zm60 0h60v60h-60zm60 0h60v60h-60zm60 0h60v60h-60zm60 0h60v60h-60z" fill="none" stroke="#2c4134" stroke-miterlimit="10" stroke-width="2"/><rect x="15" y="15" width="690" height="390" rx="18" ry="18" fill="none" stroke="#2c4134" stroke-miterlimit="10" stroke-width="2"/></g><path d="M564 255.09c-.1.02-.21.03-.3.08a18.76 18.76 0 0 1-9.12 1.82c-4.8-.21-8.31-2.44-10.47-6.74a17.17 17.17 0 0 1-1.68-8.64 16 16 0 0 1 1.31-6.02c1.96-4.28 5.18-6.99 9.92-7.68 2.96-.44 5.88-.15 8.69.94.22.09.43.2.65.3l.49.28-1.27 2.95c-.42-.12-.8-.22-1.17-.34-1.8-.62-3.65-.91-5.56-.75-3.96.33-6.68 2.39-7.97 6.08a14.97 14.97 0 0 0 .38 11.18 7.68 7.68 0 0 0 4.75 4.42c1.57.52 3.19.53 4.81.34.86-.1 1.7-.34 2.56-.51v-8.04h-6c.02-1.09.17-2.07.3-3.04.61-.21 8.6-.24 9.52-.03.02.28.06.59.06.9l-.04 11.77c0 .19.1.39.15.58v.16Zm-189.38-50.12v-40.94c.24-.03.47-.07.7-.07 5 0 9.99-.03 14.99.01 2.07.02 4.13.27 6.14.86a14.89 14.89 0 0 1 8.74 6.62 21.43 21.43 0 0 1 3.1 8.94c.42 3.44.33 6.88-.43 10.28a18.91 18.91 0 0 1-4.55 8.97 16.38 16.38 0 0 1-9.41 4.96c-1.58.28-3.17.36-4.76.36h-14.5Zm7.91-34.1v26.59c0 .73.05.78.76.78 2.34-.01 4.68.03 7.01-.07 4.6-.2 7.9-2.86 9.15-7.27.78-2.76.9-5.59.74-8.44a17.34 17.34 0 0 0-1.22-5.81 9.29 9.29 0 0 0-2.95-4.07 8.79 8.79 0 0 0-5.12-1.73c-2.52-.06-5.05-.05-7.57-.06-.23 0-.46.04-.8.08Zm89.78 34.98a28.5 28.5 0 0 1-5.68-.73 15.07 15.07 0 0 1-9.19-6.51 23.4 23.4 0 0 1-3.78-10.93c-.36-3.84-.12-7.63.99-11.33a20.01 20.01 0 0 1 4.08-7.49 16.68 16.68 0 0 1 10.28-5.56 22.6 22.6 0 0 1 9.4.43c3.85.99 6.85 3.15 9.04 6.47a23.48 23.48 0 0 1 3.69 10.06c.53 4.13.31 8.2-.86 12.2a19.51 19.51 0 0 1-5.42 8.94 16.24 16.24 0 0 1-9.04 4.15c-1.15.16-2.32.21-3.49.31Zm10.72-21.38c0-.56.02-1.11 0-1.67-.12-2.65-.62-5.2-1.78-7.61-.94-1.94-2.22-3.54-4.23-4.48a10.24 10.24 0 0 0-4.25-.9 9.09 9.09 0 0 0-6.01 1.95 12.8 12.8 0 0 0-4.25 6.92 24.9 24.9 0 0 0-.57 8.68c.19 2.23.74 4.38 1.73 6.41 1.09 2.23 2.67 3.96 5.1 4.73.83.26 1.7.43 2.57.51 2.05.19 4.03-.13 5.86-1.12a10.13 10.13 0 0 0 4.84-6.06 22.4 22.4 0 0 0 .99-7.37Zm-161.87-20.36c.73-.2 7.34-.2 8.07 0v24.95c0 1.41.12 2.8.46 4.18.89 3.59 3.73 5.26 6.54 5.7 1.54.24 3.08.2 4.58-.24 3.38-.99 5.2-3.33 5.7-6.74.15-1.02.19-2.06.19-3.09v-24.71c.58-.23 7-.29 8.04-.08.02.26.05.54.05.82v24.9c0 2.76-.48 5.39-1.84 7.8a14.65 14.65 0 0 1-8.65 7.09 21.16 21.16 0 0 1-12.48.09 14.74 14.74 0 0 1-10.51-12.72c-.08-.79-.13-1.59-.13-2.38v-25.57Zm-88.23 31.66.91.4c2.11.95 4.26 1.79 6.55 2.21 2.14.39 4.28.41 6.41-.09a5.64 5.64 0 0 0 2.16-.98 3.5 3.5 0 0 0 .71-5.01 6.9 6.9 0 0 0-1.71-1.52 70 70 0 0 0-4.81-2.8 66.52 66.52 0 0 1-8.4-5.18c-3.51-2.57-4.74-6.07-4.2-10.25.47-3.67 2.67-6.15 5.85-7.83a16.23 16.23 0 0 1 5.96-1.59c4.82-.49 9.25.85 13.54 2.85.09.04.17.11.32.21l-2.62 6.35-1.46-.64c-1.49-.64-2.97-1.32-4.57-1.6-1.89-.33-3.8-.49-5.68.11-.35.11-.69.27-1.04.41-2.45.99-2.7 3.74-1.46 5.44.46.63 1.07 1.2 1.74 1.6a121.8 121.8 0 0 0 5.66 3.25 80.4 80.4 0 0 1 7.67 4.84c5.46 3.79 5.86 12.55.02 16.82a15.27 15.27 0 0 1-6.43 2.63 22.2 22.2 0 0 1-8.86-.16c-1.83-.43-3.63-1.01-5.42-1.57a9.46 9.46 0 0 1-1.59-.72c-1.11-.59-1.1-.6-.78-1.77l1.27-4.6c.07-.25.16-.49.26-.8Zm51.13-25.46h-12.22c-.25-.71-.28-5.47-.06-6.31.24-.01.5-.04.76-.04h31.56c.76 0 .77 0 .93.75.35 1.63.69 3.27 1.02 4.9.04.18.03.36.04.63-.36.03-.7.07-1.03.07h-12.83c-.02.41-.05.74-.05 1.07v32.45c0 .34-.03.68-.05 1.07h-8c-.02-.41-.06-.8-.06-1.18V170.3Zm94.95 58.57 4.06-.65 3.61 10.99c1.19 3.61 2.38 7.23 3.68 10.84.93-2.37 1.64-4.79 2.41-7.18l2.33-7.35 2.3-7.27h3.87l7.15 21.79h.2c.65-1.75 1.15-3.56 1.72-5.35l1.72-5.46 1.72-5.46 1.72-5.49h4.17l-9.31 28.11h-3.5c-.47 0-.55-.34-.66-.67l-1.79-5.35-4.84-14.48c-.1-.29-.22-.57-.48-.85l-.36 1.03-6.19 19.47c-.28.87-.22.83-1.16.84h-2.07q-.93 0-1.23-.86L384.47 245l-5.22-15.27-.28-.87Zm-62.28 7.41v20.06h-4.03c-.17-.6-.22-26.98-.05-28.08.42-.01.86-.04 1.31-.03.74 0 1.48.03 2.23.05.45.59.91 1.17 1.34 1.77l10.96 15.36c.52.73.99 1.5 1.49 2.26.14.21.3.41.53.6.13-.95.1-1.89.1-2.83v-17.12h4.17v28.04c-.27.03-.5.07-.73.08-.74 0-1.49-.02-2.23.01-.51.03-.82-.18-1.11-.59-1.62-2.33-3.27-4.64-4.91-6.96l-7.11-10.08c-.44-.63-.85-1.28-1.28-1.92a24 24 0 0 0-.44-.63l-.23.05ZM453 228.24h3.28c.36 0 .49.28.65.51l3.05 4.27c2.82 3.95 5.65 7.9 8.46 11.86.63.89 1.21 1.81 1.82 2.71.16.24.33.47.65.68.02-.3.05-.59.05-.89v-18.14c0-.31.04-.62.07-.96h4.07v28.07c-.3.03-.55.06-.81.07-.66 0-1.33-.03-1.99.01-.6.04-.96-.18-1.31-.67-3.38-4.82-6.79-9.63-10.18-14.44-1.08-1.54-2.13-3.1-3.2-4.65-.1-.15-.22-.28-.48-.4-.01.3-.04.59-.04.89v19.21h-4.04c-.18-.58-.24-26.93-.05-28.12Zm-18.04-64.16v40.73c-.65.19-6.99.22-7.85.04V164.1c.61-.18 7.02-.2 7.85-.02Zm-184.68 81.23v10.97c-.23.05-.4.12-.58.12-.96.01-1.91.02-2.87 0-.63 0-.68-.07-.72-.68v-26.41c0-.34.04-.67.06-1.04.22-.02.37-.06.53-.06 2.74 0 5.47-.02 8.21.02 2.06.04 4.05.46 5.92 1.39 2.02 1 3.4 2.51 3.87 4.75.8 3.79-.29 7.35-4.07 9.37-.14.07-.27.16-.5.3l6.97 12.24c-.34.05-.56.1-.79.1-.98 0-1.97-.02-2.95.01-.56.02-.86-.2-1.12-.68-1.75-3.21-3.53-6.41-5.3-9.61-.12-.21-.24-.41-.35-.63-.13-.27-.35-.36-.64-.36l-5.18.07c-.13 0-.25.04-.5.09Zm.05-3.56c.28.03.48.07.69.07 1.25 0 2.5-.02 3.74-.04 1.3-.01 2.5-.4 3.66-.96a3.35 3.35 0 0 0 1.94-2.38c.17-.82.23-1.68.18-2.52a3.67 3.67 0 0 0-2.56-3.49 9.08 9.08 0 0 0-1.6-.45c-1.95-.33-3.92-.17-5.88-.14-.04 0-.09.05-.18.11v9.8Zm-19.32-10.26h-12.16c-.21.58-.28 7.63-.1 8.91.81.13 1.66.05 2.5.06.88.02 1.75 0 2.63 0h2.63l.55 3.25h-8.33v9.36c.39.02.75.05 1.12.05h11c.24 0 .49-.04.71.03.17.05.42.2.45.34.19.92.34 1.86.49 2.78-.75.19-17.17.2-17.89.03-.15-.57-.19-27.04-.04-27.95.57-.15 14.81-.19 15.9-.03l.55 3.17Zm50-3.22h15.84c.06.18.12.32.15.47l.46 2.73h-12.14c-.25.71-.27 8.16-.03 8.99h7.68l.56 3.23h-8.38c-.06 3.15-.02 6.21-.03 9.36.41.02.74.06 1.07.06h12.21l.56 3.11c-.7.22-17.07.25-17.95.05v-28.02Zm-112.18 22.18 8.22-22.18h4.09c-.09.3-.16.55-.25.79l-10.02 26.55q-.3.8-1.13.8h-2.15c-.81 0-.81 0-1.1-.74l-3.46-8.8-6.71-17.09-.32-.89 4.04-.66c2.9 7.43 5.7 14.85 8.58 22.23h.2Zm319.22-22.18h21.52l.57 3.33c-3.07-.02-6.1-.02-9.22 0v24.73c-1.42.15-2.76.1-4.18.04v-24.69c-.42-.03-.75-.08-1.08-.08h-6.62c-.31 0-.63-.03-.99-.05v-3.27Zm-118.33 3.49c-.23-.06-.47-.16-.7-.16h-7.89c-.15 0-.31.04-.57.08v24.53c-.68.26-3.29.29-4.17.05v-24.6c-.43-.03-.76-.06-1.1-.07h-7.45a9.08 9.08 0 0 1-.11-3.22c.58-.17 19.58-.25 21.39-.09.26.58.64 2.78.6 3.48Zm-171.73 24.59h-4.02v-28.07h3.99c.17.6.21 27.13.03 28.07Zm238.44.01h-3.96c-.17-.64-.2-27.21-.02-28.13h3.9c.2.59.27 26.81.07 28.13Zm90.68-28.08v28.04c-1.33.18-2.66.09-4.03.06v-28.1h4.03Z" fill="#fff"/></svg>
