<svg xmlns="http://www.w3.org/2000/svg" viewBox="0 0 720 420">
    <defs>
        <linearGradient id="b" x1="360" y1="420" x2="360" y2="0" gradientTransform="matrix(1, 0, 0, 1, 0, 0)" gradientUnits="userSpaceOnUse">
            <stop offset="0" stop-color="#4a11ff"/>
            <stop offset="1" stop-color="#3d3dff"/>
        </linearGradient>
        <clipPath id="a">
            <path fill="none" d="M0 0h720v420H0z"/>
        </clipPath>
    </defs>
    <g clip-path="url(#a)">
        <path fill="url(#b)" d="M0 0h720v420H0z"/>
        <path d="M0 0h60v60H0zm60 0h60v60H60zm60 0h60v60h-60zm60 0h60v60h-60zm60 0h60v60h-60zm60 0h60v60h-60zm60 0h60v60h-60zm60 0h60v60h-60zm60 0h60v60h-60zm60 0h60v60h-60zm60 0h60v60h-60zm60 0h60v60h-60zM0 60h60v60H0zm60 0h60v60H60zm60 0h60v60h-60zm60 0h60v60h-60zm60 0h60v60h-60zm60 0h60v60h-60zm60 0h60v60h-60zm60 0h60v60h-60zm60 0h60v60h-60zm60 0h60v60h-60zm60 0h60v60h-60zm60 0h60v60h-60zM0 120h60v60H0zm60 0h60v60H60zm60 0h60v60h-60zm60 0h60v60h-60zm60 0h60v60h-60zm60 0h60v60h-60zm60 0h60v60h-60zm60 0h60v60h-60zm60 0h60v60h-60zm60 0h60v60h-60zm60 0h60v60h-60zm60 0h60v60h-60zM0 180h60v60H0zm60 0h60v60H60zm60 0h60v60h-60zm60 0h60v60h-60zm60 0h60v60h-60zm60 0h60v60h-60zm60 0h60v60h-60zm60 0h60v60h-60zm60 0h60v60h-60zm60 0h60v60h-60zm60 0h60v60h-60zm60 0h60v60h-60zM0 240h60v60H0zm60 0h60v60H60zm60 0h60v60h-60zm60 0h60v60h-60zm60 0h60v60h-60zm60 0h60v60h-60zm60 0h60v60h-60zm60 0h60v60h-60zm60 0h60v60h-60zm60 0h60v60h-60zm60 0h60v60h-60zm60 0h60v60h-60zM0 300h60v60H0zm60 0h60v60H60zm60 0h60v60h-60zm60 0h60v60h-60zm60 0h60v60h-60zm60 0h60v60h-60zm60 0h60v60h-60zm60 0h60v60h-60zm60 0h60v60h-60zm60 0h60v60h-60zm60 0h60v60h-60zm60 0h60v60h-60zM0 360h60v60H0zm60 0h60v60H60zm60 0h60v60h-60zm60 0h60v60h-60zm60 0h60v60h-60zm60 0h60v60h-60zm60 0h60v60h-60zm60 0h60v60h-60zm60 0h60v60h-60zm60 0h60v60h-60zm60 0h60v60h-60zm60 0h60v60h-60z" fill="none" stroke="#4a11ff" stroke-miterlimit="10" stroke-width="2"/>
        <rect x="15" y="15" width="690" height="390" rx="18" ry="18" fill="none" stroke="#4a11ff" stroke-miterlimit="10" stroke-width="2"/>
    </g>
    <path d="M129.5 228.27v-43.51h28.21v8.34h-19.33v9.66h17.77v8.35H138.5v17.17h-9Zm55.52 0c-2.32 0-4.36-.49-6.12-1.46a10.34 10.34 0 0 1-4.11-4.08 12.22 12.22 0 0 1-1.47-6.08v-23.84h-10.5v-8.05h19.51v31.59c0 1.15.33 2.09.99 2.8s1.53 1.07 2.61 1.07h9.3v8.05h-10.2Zm30.38.6a16.9 16.9 0 0 1-7.65-1.64 11.95 11.95 0 0 1-5.04-4.59 13.12 13.12 0 0 1-1.77-6.88v-7.75c0-2.62.59-4.92 1.77-6.88a11.95 11.95 0 0 1 5.04-4.59c2.18-1.09 4.73-1.64 7.65-1.64s5.45.55 7.59 1.64 3.8 2.62 4.98 4.59a13.12 13.12 0 0 1 1.77 6.88v5.96h-20.23v1.79c0 4.17 2 6.26 6 6.26 2.84 0 4.54-.89 5.1-2.68h8.82a11.65 11.65 0 0 1-4.89 6.92c-2.54 1.75-5.59 2.62-9.15 2.62Zm-5.88-20.86v.89l11.64-.12v-.89c0-4.17-1.92-6.26-5.76-6.26-1.96 0-3.43.56-4.41 1.67-.98 1.11-1.47 2.68-1.47 4.71Zm41.83 20.86c-4.44 0-7.91-1.19-10.41-3.58s-3.75-5.64-3.75-9.78v-20.03h9v19.97c0 3.78 1.72 5.66 5.16 5.66 1.64 0 2.91-.49 3.81-1.46.9-.97 1.35-2.37 1.35-4.2v-19.97h9v20.03c0 4.17-1.26 7.44-3.78 9.81-2.52 2.36-5.98 3.55-10.38 3.55Zm22.93-.6v-32.78h8.7v6.26h.18a8.08 8.08 0 0 1 3.09-5.04 10 10 0 0 1 6.15-1.82c3.36 0 6.06 1.12 8.1 3.37s3.06 5.3 3.06 9.15v2.98h-9.6v-2.38c0-1.71-.45-3.03-1.35-3.96-.9-.93-2.21-1.4-3.93-1.4-3.6 0-5.4 2.03-5.4 6.08v19.55h-9Zm70.71 0v-43.51h10.5l11.35 33.68-.42-5.1c-.16-1.93-.29-3.85-.39-5.78a97.4 97.4 0 0 1-.15-4.92v-17.88h7.92v43.51h-10.5l-11.23-33.68c.12 1.27.24 2.78.36 4.53.12 1.75.23 3.52.33 5.31.1 1.79.15 3.38.15 4.77v19.07h-7.92Zm36.62 0v-8.05h10.92v-16.69h-9.72v-8.05h18.73v24.74h9.48v8.05h-29.41Zm15.01-37.97a5.88 5.88 0 0 1-3.93-1.25c-.98-.83-1.47-1.97-1.47-3.4s.49-2.56 1.47-3.4 2.29-1.25 3.93-1.25 2.95.42 3.93 1.25c.98.83 1.47 1.97 1.47 3.4s-.49 2.56-1.47 3.4a5.83 5.83 0 0 1-3.93 1.25Zm20.4 48.7v-8.05h10.5c1.52 0 2.75-.5 3.69-1.49.94-1 1.41-2.29 1.41-3.87v-22.06h-14.41v-8.05h23.41v30.4c0 4.05-1.2 7.25-3.6 9.6-2.4 2.35-5.68 3.52-9.84 3.52h-11.17Zm20.11-48.7a5.88 5.88 0 0 1-3.93-1.25c-.98-.83-1.47-1.97-1.47-3.4s.49-2.56 1.47-3.4 2.29-1.25 3.93-1.25 2.95.42 3.93 1.25c.98.83 1.47 1.97 1.47 3.4s-.49 2.56-1.47 3.4a5.83 5.83 0 0 1-3.93 1.25Zm16.27 37.97v-43.51h9v10.73l-.3 6.26h.18a8.16 8.16 0 0 1 2.88-5.01 8.96 8.96 0 0 1 5.82-1.85c3.2 0 5.77 1.11 7.71 3.34 1.94 2.23 2.91 5.19 2.91 8.88v21.16h-9V208c0-1.71-.45-3.03-1.35-3.96-.9-.93-2.15-1.4-3.75-1.4s-2.85.47-3.75 1.4c-.9.93-1.35 2.25-1.35 3.96v20.27h-9Zm50.06.6c-4.44 0-7.91-1.19-10.41-3.58s-3.75-5.64-3.75-9.78v-20.03h9v19.97c0 3.78 1.72 5.66 5.16 5.66 1.64 0 2.91-.49 3.81-1.46.9-.97 1.35-2.37 1.35-4.2v-19.97h9v20.03c0 4.17-1.26 7.44-3.78 9.81-2.52 2.36-5.98 3.55-10.38 3.55Zm22.21-.6v-8.05h10.92v-16.69h-9.72v-8.05h18.73v24.74h9.48v8.05h-29.41Zm15.01-37.97a5.88 5.88 0 0 1-3.93-1.25c-.98-.83-1.47-1.97-1.47-3.4s.49-2.56 1.47-3.4 2.29-1.25 3.93-1.25 2.95.42 3.93 1.25c.98.83 1.47 1.97 1.47 3.4s-.49 2.56-1.47 3.4a5.83 5.83 0 0 1-3.93 1.25Zm33.43 38.57c-2.72 0-5.1-.43-7.14-1.28a11.23 11.23 0 0 1-4.77-3.55 8.57 8.57 0 0 1-1.71-5.31h9c0 2.23 1.54 3.34 4.62 3.34h2.64c3.36 0 5.04-1.07 5.04-3.22 0-1.95-1.56-3.14-4.68-3.58l-4.74-.6c-7.28-.91-10.92-4.29-10.92-10.13 0-3.18 1.1-5.58 3.3-7.21 2.2-1.63 5.42-2.44 9.66-2.44h2.28c4.04 0 7.26.88 9.66 2.62a8.27 8.27 0 0 1 3.6 7.03h-9c0-1.91-1.42-2.86-4.26-2.86h-2.28c-2.84 0-4.26.95-4.26 2.86 0 1.79 1.3 2.86 3.9 3.22l4.86.65c7.72.95 11.59 4.39 11.59 10.31 0 3.22-1.16 5.71-3.48 7.48-2.32 1.77-5.74 2.65-10.26 2.65h-2.64Z" fill="#fff"/>
</svg>
