<svg xmlns="http://www.w3.org/2000/svg" fill="none" viewBox="0 0 960 560"><g clip-path="url(#a)"><path fill="#fff" d="M0 0h960v560H0z"/><path fill="url(#b)" d="M0 0h960v560H0V0Z"/><path stroke="#F8FAFC" stroke-miterlimit="10" stroke-width="2.667" d="M80 0H0v80M80 0v80m0-80h80M80 80H0m80 0h80m-80 0v80M0 80v80M160 0v80m0-80h80m-80 80h80m-80 0v80M240 0v80m0-80h80m-80 80h80m-80 0v80M320 0v80m0-80h80m-80 80h80m-80 0v80M400 0v80m0-80h80m-80 80h80m-80 0v80M480 0v80m0-80h80m-80 80h80m-80 0v80M560 0v80m0-80h80m-80 80h80m-80 0v80M640 0v80m0-80h80m-80 80h80m-80 0v80M720 0v80m0-80h80m-80 80h80m-80 0v80M800 0v80m0-80h80m-80 80h80m-80 0v80M880 0v80m0-80h80v80m-80 0h80m-80 0v80m80-80v80m-880 0H0m80 0h80m-80 0v80M0 160v80m160-80h80m-80 0v80m80-80h80m-80 0v80m80-80h80m-80 0v80m80-80h80m-80 0v80m80-80h80m-80 0v80m80-80h80m-80 0v80m80-80h80m-80 0v80m80-80h80m-80 0v80m80-80h80m-80 0v80m80-80h80m-80 0v80m80-80v80m-880 0H0m80 0h80m-80 0v80M0 240v80m160-80h80m-80 0v80m80-80h80m-80 0v80m80-80h80m-80 0v80m80-80h80m-80 0v80m80-80h80m-80 0v80m80-80h80m-80 0v80m80-80h80m-80 0v80m80-80h80m-80 0v80m80-80h80m-80 0v80m80-80h80m-80 0v80m80-80v80m-880 0H0m80 0h80m-80 0v80M0 320v80m160-80h80m-80 0v80m80-80h80m-80 0v80m80-80h80m-80 0v80m80-80h80m-80 0v80m80-80h80m-80 0v80m80-80h80m-80 0v80m80-80h80m-80 0v80m80-80h80m-80 0v80m80-80h80m-80 0v80m80-80h80m-80 0v80m80-80v80m-880 0H0m80 0h80m-80 0v80M0 400v80m160-80h80m-80 0v80m80-80h80m-80 0v80m80-80h80m-80 0v80m80-80h80m-80 0v80m80-80h80m-80 0v80m80-80h80m-80 0v80m80-80h80m-80 0v80m80-80h80m-80 0v80m80-80h80m-80 0v80m80-80h80m-80 0v80m80-80v80m-880 0H0m80 0h80m-80 0v80M0 480v80h80m80-80h80m-80 0v80m80-80h80m-80 0v80m80-80h80m-80 0v80m80-80h80m-80 0v80m80-80h80m-80 0v80m80-80h80m-80 0v80m80-80h80m-80 0v80m80-80h80m-80 0v80m80-80h80m-80 0v80m80-80h80m-80 0v80m80-80v80h-80m-800 0h80m0 0h80m0 0h80m0 0h80m0 0h80m0 0h80m0 0h80m0 0h80m0 0h80m0 0h80"/><path stroke="#F8FAFC" stroke-miterlimit="10" stroke-width="2.667" d="M916 540H44c-13.255 0-24-10.745-24-24V44c0-13.255 10.745-24 24-24h872c13.255 0 24 10.745 24 24v472c0 13.255-10.745 24-24 24Z"/><path fill="#0369A1" d="m191 294.72 12.357-12.351 11.453 6.989 58.469-58.44-6.932-11.507L278.764 207l41.109 41.088c7.917 7.913 13.08 16.769 15.492 26.569 2.451 9.76 2.149 19.621-.905 29.582-3.013 9.92-8.76 19.118-17.239 27.593l-1.386 1.385c-8.479 8.475-17.702 14.239-27.668 17.291-9.925 3.013-19.771 3.294-29.536.844s-18.605-7.632-26.522-15.544L191 294.72Zm46.414 14.338 9.644 9.64c4.461 4.458 9.323 7.069 14.587 7.832 5.264.763 10.689-.121 16.275-2.651 5.666-2.53 11.212-6.507 16.637-11.929l1.446-1.446c5.425-5.422 9.384-10.945 11.875-16.568 2.532-5.583 3.416-11.005 2.652-16.266-.763-5.262-3.375-10.122-7.836-14.58l-9.644-9.64-55.636 55.608ZM250.795 228.207c-3.994 3.993-10.471 3.993-14.466 0-3.995-3.993-3.995-10.467 0-14.459 3.995-3.993 10.472-3.993 14.466 0 3.995 3.992 3.995 10.466 0 14.459ZM213.182 265.801c-3.995 3.993-10.472 3.993-14.466 0-3.995-3.993-3.995-10.467 0-14.459 3.994-3.993 10.471-3.993 14.466 0 3.995 3.992 3.995 10.466 0 14.459Z"/><path fill="#0F172A" d="M389.263 331.803v-95.994h27.103c9.821 0 18.315 1.669 25.484 5.006 7.169 3.337 12.717 8.54 16.645 15.607 4.027 6.968 6.04 15.949 6.04 26.942 0 10.994-1.964 20.073-5.892 27.238-3.928 7.165-9.428 12.514-16.498 16.048-6.973 3.435-15.173 5.153-24.6 5.153h-28.282Zm21.653-17.52h4.125c5.499 0 10.262-.982 14.288-2.945 4.125-1.963 7.316-5.202 9.575-9.717 2.259-4.515 3.388-10.601 3.388-18.257 0-7.655-1.129-13.643-3.388-17.962-2.259-4.416-5.45-7.508-9.575-9.275-4.026-1.865-8.789-2.797-14.288-2.797h-4.125v60.953ZM480.998 331.803v-73.026h21.654v73.026h-21.654Zm10.753-83.774c-3.633 0-6.579-1.03-8.838-3.091-2.258-2.062-3.388-4.81-3.388-8.245 0-3.436 1.13-6.184 3.388-8.245 2.259-2.061 5.205-3.092 8.838-3.092 3.634 0 6.58 1.031 8.839 3.092 2.258 2.061 3.388 4.809 3.388 8.245 0 3.435-1.13 6.183-3.388 8.245-2.259 2.061-5.205 3.091-8.839 3.091ZM547.781 333.57c-9.035 0-16.302-3.387-21.801-10.159-5.401-6.871-8.102-16.245-8.102-28.121 0-7.95 1.424-14.772 4.272-20.465 2.946-5.791 6.727-10.208 11.343-13.25 4.713-3.043 9.623-4.565 14.73-4.565 4.026 0 7.414.688 10.164 2.062 2.749 1.374 5.352 3.239 7.807 5.594l-.884-11.189v-24.882h21.654v103.208h-17.677l-1.473-7.214h-.589c-2.553 2.552-5.548 4.711-8.985 6.478-3.438 1.668-6.924 2.503-10.459 2.503Zm5.598-17.668c2.356 0 4.468-.491 6.334-1.472 1.964-.982 3.829-2.699 5.597-5.153v-29.888c-1.866-1.766-3.879-2.993-6.039-3.68-2.063-.688-4.076-1.031-6.04-1.031-3.437 0-6.481 1.669-9.133 5.006-2.651 3.239-3.977 8.343-3.977 15.312 0 7.165 1.13 12.465 3.388 15.9 2.357 3.337 5.647 5.006 9.87 5.006ZM606.149 331.803v-73.026h21.654v73.026h-21.654Zm10.753-83.774c-3.633 0-6.579-1.03-8.838-3.091-2.259-2.062-3.388-4.81-3.388-8.245 0-3.436 1.129-6.184 3.388-8.245 2.259-2.061 5.205-3.092 8.838-3.092 3.634 0 6.58 1.031 8.838 3.092 2.259 2.061 3.388 4.809 3.388 8.245 0 3.435-1.129 6.183-3.388 8.245-2.258 2.061-5.204 3.091-8.838 3.091ZM679.56 333.57c-6.972 0-13.257-1.522-18.855-4.565-5.597-3.042-10.016-7.41-13.257-13.103-3.241-5.693-4.861-12.563-4.861-20.612 0-7.95 1.62-14.772 4.861-20.465 3.339-5.693 7.66-10.06 12.963-13.103 5.303-3.141 10.851-4.712 16.645-4.712 6.973 0 12.717 1.571 17.235 4.712 4.615 3.043 8.052 7.214 10.311 12.514 2.357 5.202 3.535 11.141 3.535 17.815 0 1.865-.098 3.73-.294 5.595-.197 1.766-.393 3.091-.59 3.975h-43.749c.982 5.3 3.192 9.226 6.629 11.778 3.437 2.454 7.561 3.681 12.373 3.681 5.205 0 10.459-1.62 15.762-4.859l7.218 13.104c-3.732 2.552-7.906 4.564-12.521 6.036-4.616 1.472-9.084 2.209-13.405 2.209Zm-16.203-46.23h26.367c0-4.025-.982-7.313-2.946-9.865-1.866-2.65-4.959-3.975-9.28-3.975-3.339 0-6.334 1.178-8.985 3.534-2.652 2.257-4.37 5.692-5.156 10.306ZM749.797 333.57c-9.035 0-15.516-2.601-19.445-7.804-3.829-5.202-5.744-12.023-5.744-20.464v-29.593h-10.017v-16.048l11.195-.884 2.504-19.434h17.971v19.434h17.529v16.932h-17.529v29.298c0 4.123.835 7.116 2.504 8.981 1.768 1.767 4.076 2.65 6.924 2.65 1.178 0 2.357-.147 3.535-.441 1.277-.295 2.406-.638 3.388-1.031L766 330.919c-1.866.589-4.174 1.178-6.923 1.767-2.652.589-5.745.884-9.28.884Z"/></g><defs><linearGradient id="b" x1="480" x2="480" y1="560" y2="0" gradientUnits="userSpaceOnUse"><stop stop-color="#F8FAFC"/><stop offset=".125" stop-color="#F8FAFC"/><stop offset=".25" stop-color="#F9FBFD"/><stop offset=".375" stop-color="#FAFCFD"/><stop offset=".5" stop-color="#FBFCFD"/><stop offset=".625" stop-color="#FCFDFE"/><stop offset=".75" stop-color="#FDFDFE"/><stop offset=".875" stop-color="#FEFEFE"/><stop offset="1" stop-color="#fff"/></linearGradient><clipPath id="a"><path fill="#fff" d="M0 0h960v560H0z"/></clipPath></defs></svg>
