<svg xmlns="http://www.w3.org/2000/svg" xmlns:xlink="http://www.w3.org/1999/xlink" viewBox="0 0 720 420"><defs><radialGradient id="c" cx="525.34" cy="475.28" r="71.08" gradientTransform="matrix(0.98, 0, 0, -2.29, -106.12, 1506.9)" gradientUnits="userSpaceOnUse"><stop offset="0" stop-color="#ffd86b"/><stop offset=".6" stop-color="#f5a240"/><stop offset=".68" stop-color="#e58e37"/><stop offset=".84" stop-color="#be591e"/><stop offset=".95" stop-color="#a1340d"/></radialGradient><radialGradient id="a" cx="-9369.04" cy="-347.52" r="71.05" gradientTransform="matrix(-0.98, 0, 0, 2.29, -8864.66, 1186.29)" gradientUnits="userSpaceOnUse"><stop offset=".44" stop-color="#ffd86b"/><stop offset=".75" stop-color="#f5a240"/><stop offset=".8" stop-color="#e58e37"/><stop offset=".89" stop-color="#be591e"/><stop offset=".95" stop-color="#a1340d"/></radialGradient><radialGradient id="h" cx="776.19" cy="664.69" r="69.96" gradientTransform="matrix(0.92, 0.1, 0.18, -2.77, -410.32, 2167.79)" xlink:href="#a"/><radialGradient id="b" cx="135.02" cy="417.18" r="47.88" gradientTransform="matrix(1.02, -0.06, -0.11, -2.77, 146.39, 1540.25)" gradientUnits="userSpaceOnUse"><stop offset="0" stop-color="#ffd86b"/><stop offset=".75" stop-color="#f5a240"/><stop offset=".8" stop-color="#e58e37"/><stop offset=".89" stop-color="#be591e"/><stop offset=".95" stop-color="#a1340d"/></radialGradient><radialGradient id="i" cx="-11158.63" cy="-88.53" r="78.61" gradientTransform="matrix(-0.71, 0.12, 0.27, 2.27, -7617.33, 1962.42)" xlink:href="#a"/><radialGradient id="j" cx="-9644.01" cy="504.57" r="70.1" gradientTransform="translate(-8558.7 1798.52) rotate(180) scale(0.93 2.78)" xlink:href="#b"/><radialGradient id="k" cx="375.75" cy="759.12" r="63.74" gradientTransform="matrix(1.01, 0.1, 0.17, -2.44, -45.44, 2204.09)" xlink:href="#a"/><radialGradient id="l" cx="-7770.9" cy="-313.31" r="49.35" gradientTransform="matrix(-1.44, 0.08, 0.1, 3.02, -10900.82, 1951.02)" xlink:href="#a"/><radialGradient id="m" cx="-172.09" cy="546.24" r="50.57" gradientTransform="matrix(1.12, 0, 0, -3.33, 545.16, 2195.98)" xlink:href="#a"/><radialGradient id="n" cx="-9728.75" cy="-338.75" r="50.57" gradientTransform="matrix(-0.93, 0, 0, 3.45, -8739.65, 1608.74)" gradientUnits="userSpaceOnUse"><stop offset=".04" stop-color="#ffd86b"/><stop offset=".68" stop-color="#f5a240"/><stop offset=".76" stop-color="#e58e37"/><stop offset=".9" stop-color="#be591e"/><stop offset="1" stop-color="#a1340d"/></radialGradient><radialGradient id="o" cx="793.3" cy="-551.55" r="50.57" gradientTransform="matrix(0.92, 0.17, -0.44, 3.41, -480.59, 2184.19)" xlink:href="#a"/><radialGradient id="p" cx="-9489.04" cy="467.35" r="71.08" gradientTransform="matrix(-0.98, 0.04, -0.08, -1.97, -8874.93, 1690.05)" xlink:href="#c"/><radialGradient id="q" cx="-9657.32" cy="-596.72" r="53.81" gradientTransform="matrix(-0.92, -0.12, -0.27, 2.27, -8652.6, 594.48)" gradientUnits="userSpaceOnUse"><stop offset=".24" stop-color="#ffd86b"/><stop offset=".36" stop-color="#fed468"/><stop offset=".49" stop-color="#fcc75e"/><stop offset=".63" stop-color="#f8b34d"/><stop offset=".71" stop-color="#f5a240"/><stop offset=".78" stop-color="#e58e37"/><stop offset=".91" stop-color="#be591e"/><stop offset="1" stop-color="#a1340d"/></radialGradient><radialGradient id="r" cx="-9549.48" cy="-616.5" r="64.29" gradientTransform="matrix(-0.92, -0.12, -0.27, 2.27, -8653.4, 601.12)" xlink:href="#a"/><radialGradient id="s" cx="853.78" cy="-128.71" r="79.69" gradientTransform="matrix(0.92, -0.12, 0.27, 2.27, -318.21, 703.32)" xlink:href="#a"/><radialGradient id="t" cx="251.51" cy="519.28" r="56.14" gradientTransform="matrix(1.01, -0.03, -0.12, -2.44, 103.41, 1683.67)" xlink:href="#a"/><clipPath id="d"><path fill="none" d="M1 1h720v420H1z"/></clipPath><clipPath id="g"><path fill="none" d="M0 0h720v420H0z"/></clipPath><linearGradient id="e" x1="361" y1="421" x2="361" y2="1" gradientUnits="userSpaceOnUse"><stop offset="0" stop-color="#e2e8f0"/><stop offset="1" stop-color="#f8fafc"/></linearGradient><symbol id="f" viewBox="0 0 722 422"><g clip-path="url(#d)"><path fill="url(#e)" d="M1 1h720v420H1z"/><path fill="none" stroke="#e2e8f0" stroke-miterlimit="10" stroke-width="2" d="M1 1h60v60H1zm60 0h60v60H61zm60 0h60v60h-60zm60 0h60v60h-60zm60 0h60v60h-60zm60 0h60v60h-60zm60 0h60v60h-60zm60 0h60v60h-60zm60 0h60v60h-60zm60 0h60v60h-60zm60 0h60v60h-60zm60 0h60v60h-60zM1 61h60v60H1zm60 0h60v60H61zm60 0h60v60h-60zm60 0h60v60h-60zm60 0h60v60h-60zm60 0h60v60h-60zm60 0h60v60h-60zm60 0h60v60h-60zm60 0h60v60h-60zm60 0h60v60h-60zm60 0h60v60h-60zm60 0h60v60h-60zM1 121h60v60H1zm60 0h60v60H61zm60 0h60v60h-60zm60 0h60v60h-60zm60 0h60v60h-60zm60 0h60v60h-60zm60 0h60v60h-60zm60 0h60v60h-60zm60 0h60v60h-60zm60 0h60v60h-60zm60 0h60v60h-60zm60 0h60v60h-60zM1 181h60v60H1zm60 0h60v60H61zm60 0h60v60h-60zm60 0h60v60h-60zm60 0h60v60h-60zm60 0h60v60h-60zm60 0h60v60h-60zm60 0h60v60h-60zm60 0h60v60h-60zm60 0h60v60h-60zm60 0h60v60h-60zm60 0h60v60h-60zM1 241h60v60H1zm60 0h60v60H61zm60 0h60v60h-60zm60 0h60v60h-60zm60 0h60v60h-60zm60 0h60v60h-60zm60 0h60v60h-60zm60 0h60v60h-60zm60 0h60v60h-60zm60 0h60v60h-60zm60 0h60v60h-60zm60 0h60v60h-60zM1 301h60v60H1zm60 0h60v60H61zm60 0h60v60h-60zm60 0h60v60h-60zm60 0h60v60h-60zm60 0h60v60h-60zm60 0h60v60h-60zm60 0h60v60h-60zm60 0h60v60h-60zm60 0h60v60h-60zm60 0h60v60h-60zm60 0h60v60h-60zM1 361h60v60H1zm60 0h60v60H61zm60 0h60v60h-60zm60 0h60v60h-60zm60 0h60v60h-60zm60 0h60v60h-60zm60 0h60v60h-60zm60 0h60v60h-60zm60 0h60v60h-60zm60 0h60v60h-60zm60 0h60v60h-60zm60 0h60v60h-60z"/><rect x="16" y="16" width="690" height="390" rx="18" fill="none" stroke="#e2e8f0" stroke-miterlimit="10" stroke-width="2"/></g></symbol></defs><use width="722" height="422" transform="translate(-1 -1)" xlink:href="#f"/><g clip-path="url(#g)"><path d="M425.62 293.79c-5.68-6.38-14.91-13.81-26.95-8.46-18.43 125.34-6.21 246.36-6.09 248.13 1.27 18.22 28.37 26.91 32.52 24.38-12.85-150.98 1.7-191.95.52-264.05Z" fill-rule="evenodd" fill="url(#c)"/><path d="M298.51 519.32c5.71 6.37 15 13.78 27.05 8.44 18.47-125.34 6.23-246.37 6.11-248.14-1.27-18.21-28.45-26.89-32.62-24.38 12.89 150.98-1.7 191.96-.54 264.08Z" fill-rule="evenodd" fill="url(#a)"/><path d="M454.35 274.66c-5-6.91-17.86-15.89-29.59-11.77C409.37 386 428.29 386.75 401.68 561c-2.66 17.88 27.8 2 32-.14 23.9-147.72 21.55-221.34 20.67-286.2Z" fill-rule="evenodd" fill="url(#h)"/><path d="M454.35 274.66c-5.43-1.57-12.35 7.49-12.36 9.19 0 105.65 3.25 138.21-8.33 277 21.8-120.38 22.24-220.85 20.69-286.19Z" fill="#820000" fill-rule="evenodd" opacity=".1" style="isolation:isolate"/><path d="M252.79 282.85c-4.24-4.09-14.57-8.63-23-4.44-2.41 85.27 11.82 83.55 4.8 205-.73 12.49 21-2 24-3.93 6.9-103.1-.33-152.75-5.8-196.63Z" fill-rule="evenodd" fill="url(#b)"/><path d="M252.79 282.85c-4.18-.41-8.7 6.54-8.58 7.69 7.81 71.67 12.69 93.34 14.29 188.88 7.41-84.26.3-152.42-5.71-196.57Z" fill="#820000" fill-rule="evenodd" opacity=".1" style="isolation:isolate"/><path d="M234.85 576.52c5.29 5.07 17.62 10.05 26.82 3.47-7.06-115.19-23.14-111.31-29.07-275.63-.62-16.93-23.81 5-26.92 7.91 3.9 139.6 17.85 205.73 29.17 264.25Z" fill-rule="evenodd" fill="url(#i)"/><path d="M234.85 576.52c4.82.09 9.17-9.78 8.9-11.33-17.16-95.69-25.23-124.37-38.06-252.93 1.22 114.36 17.21 205.45 29.16 264.26Z" fill="#820000" fill-rule="evenodd" opacity=".1" style="isolation:isolate"/><path d="M365.43 265.22c5.4-6.36 18.81-13.94 30.24-8.59 7.47 124.29-11.43 123.07 3.93 299.6 1.59 18.17-36.46-7.57-40.4-10.09-14.4-149.79 1.19-216.38 6.23-280.92Z" fill-rule="evenodd" fill="url(#j)"/><path d="M484 311.29c-5.52-5.81-6.75-73.14-25.75-52.58-6.78 143.75-25.91 216.66-18 263.08 2.58 15 19.36-30.27 23.77-31.94C468.82 424 482.1 359.36 484 311.29Z" fill-rule="evenodd" fill="url(#k)"/><path d="M253.67 464.05c6.68 4.63 15.17 68.34 33.79 45.89-7.82-137.48 5.39-209.66-8.25-252.51-4.43-13.84-18 31.76-22.65 34 1.73 63.23-5.95 126.67-2.89 172.62Z" fill-rule="evenodd" fill="url(#l)"/><path d="M365 269.69c-6.52-6.16-31.91-6-32.28 1-3.26 61.82-12.33 151.7-9 232.44.73 17.64 31.34 22.63 36.11 20.2-3.39-111.71 5.17-200.74 5.17-253.64Z" fill-rule="evenodd" fill="url(#m)"/><path d="M332.72 270.69c-3.26 61.82-12.34 151.7-9 232.44 6.66-64 17.45-174.32 17.86-226.52.02-2.85-8.49-7.54-8.86-5.92Z" fill="#820000" opacity=".1" style="isolation:isolate"/><path d="M271.16 550.25c5.38 6.37 26.35 6.22 26.66-1 2.68-64 10.18-157.15 7.43-240.77-.58-18.26-25.88-23.45-29.82-20.93 2.8 115.69-4.27 207.91-4.27 262.7Z" fill-rule="evenodd" fill="url(#n)"/><path d="M297.82 549.21c2.68-64 10.18-157.14 7.43-240.76-5.51 66.3-13 175.2-19.11 235.13 5.52.96 11.37 7.31 11.68 5.63Z" fill="#820000" opacity=".1" style="isolation:isolate"/><path d="M484.88 567.22c-6.13 5.33-26.84 1.42-26.2-5.82 5.54-63.8 10.06-157.22 23.49-239.44 2.92-17.95 28.57-18.55 32.15-15.36-17.6 113.94-22.41 206.4-29.44 260.62Z" fill-rule="evenodd" fill="url(#o)"/><path d="M352.83 349.76c5.46-5.73 14.42-12.55 26.63-8.46 22.73 107.36 14.69 212.31 14.64 213.84-.64 15.79-27.43 24.44-31.66 22.44 7.65-130.82-8.29-165.58-9.61-227.82Z" fill-rule="evenodd" fill="url(#p)"/><path d="M384.33 575.73c4.15 6.36 11.21 14 22.05 10.6 29.31-110.46 32.06-220.46 32.14-222.05.89-16.5-21.25-27.3-25.06-25.5-5.46 136.95-22.29 172.1-29.13 236.95Z" fill-rule="evenodd" fill="url(#q)"/><path d="M278.78 471c5.59-48.24 6.44-81.73 6.49-82.59.89-16.49-21.25-27.28-25.06-25.49-1.82 45.77-4.92 80.14-8.49 108.08Z" fill-rule="evenodd" fill="url(#r)"/><path d="M462 466.21c-7.33-63.34-.24-129.86-.31-131-1.16-21.65 19.71 6.95 24.71 9.3 2.39 60.1-1.37 80.74 3.32 117.43Z" fill-rule="evenodd" fill="url(#s)"/><path d="M338.76 376.66c-5.44-4.45-13.58-63.16-28-43 9.17 126.4.1 192.3 11.93 232 3.83 12.81 13.73-28.66 17.42-30.62-2.75-58.13 2.07-116.15-1.35-158.38Z" fill-rule="evenodd" fill="url(#t)"/></g><path d="M172.51 199.51a4.73 4.73 0 0 1-4.69 4.7h-5.39l-3.83 11.49h2.4a4.75 4.75 0 0 1 0 9.5h-5.65l-3.65 11.06a5.17 5.17 0 0 1-4.95 3.57 5.25 5.25 0 0 1-5.22-5.23 5.14 5.14 0 0 1 .26-1.65l2.61-7.75h-6.87l-3.65 11.06a5.18 5.18 0 0 1-5 3.57 5.24 5.24 0 0 1-5.21-5.23 4.88 4.88 0 0 1 .33-1.6l2.61-7.75h-1.92a4.75 4.75 0 0 1 0-9.5h5.13l3.74-11.49h-2.09a4.71 4.71 0 0 1 0-9.41h5.31l3.74-11.23a5.16 5.16 0 0 1 4.95-3.57 5.25 5.25 0 0 1 5 6.88l-2.61 7.92h6.78l3.74-11.23a5.17 5.17 0 0 1 4.95-3.57 5.25 5.25 0 0 1 5 6.88l-2.69 7.92h2.26a4.73 4.73 0 0 1 4.61 4.66Zm-21.13 4.7h-6.78l-3.73 11.49h6.69Zm41.04 27.95v-38.23H181.9a6.53 6.53 0 0 1 0-13.06h35.82a6.53 6.53 0 1 1 0 13.06h-10.35v38.23a7.48 7.48 0 1 1-15 0ZM241 195.85c12.43 0 21.47 9.14 21.47 19.77 0 4.79-2.86 6.53-8 6.53h-21.88c.78 3.92 4.43 7.49 10.69 7.49a17.24 17.24 0 0 0 7.3-1.74 4.45 4.45 0 0 1 2.18-.53 5.1 5.1 0 0 1 2 9.76 30.09 30.09 0 0 1-13.13 2.87c-12.95 0-22.95-8.45-22.95-22.12 0-12.19 9.21-22.03 22.32-22.03Zm-8.61 17.59h17.3c-.34-3-2.52-7.23-8.69-7.23a8.31 8.31 0 0 0-8.59 7.23Zm74.88-.78v20a6.84 6.84 0 0 1-6.69 7.05 7.13 7.13 0 0 1-6.79-5c-2.52 3.13-7.56 5.22-13 5.22-6.43 0-14.43-4.35-14.43-13.85 0-10.18 8-13.23 14.43-13.23 5.56 0 10.52 1.74 13 4.87v-5.31c0-3.66-3.13-6.09-8.52-6.09a17.66 17.66 0 0 0-8.61 2.26 5.09 5.09 0 0 1-2.26.61 5 5 0 0 1-4.95-5 5.11 5.11 0 0 1 2.61-4.36 31.57 31.57 0 0 1 15.56-4.09c10.17.11 19.65 3.85 19.65 16.92Zm-13.39 15.5v-3.75c-1.39-1.91-4.52-3-7.48-3-3.56 0-6.69 1.57-6.69 4.88s3.13 4.87 6.69 4.87c2.96.04 6.09-1 7.48-3Zm89.37-19.68V233a6.65 6.65 0 1 1-13.3 0v-19.65c0-3.22-1.56-5.66-5.56-5.66a9.68 9.68 0 0 0-7.56 4.1V233a6.7 6.7 0 1 1-13.39 0v-19.65c0-3.22-1.48-5.66-5.57-5.66-3.56 0-6.08 2.35-7.47 4.1V233a6.7 6.7 0 1 1-13.4 0v-30.18a6.76 6.76 0 0 1 13.47-.88c1.83-2.43 7.22-6.09 13.74-6.09 6 0 10.17 2.52 11.91 7.49a18 18 0 0 1 14.52-7.49c7.75 0 12.61 4 12.61 12.63Zm10.18 23.68V188.8c0-5.14 2.78-7.93 7.91-7.93h21.13c13 0 20.17 8.8 20.17 19.33s-7.13 19.07-20.17 19.07h-14.09v12.89a7.48 7.48 0 1 1-14.95 0Zm27-38.66h-12.05v13.06h12.09c4 0 6.95-2.53 6.95-6.44s-2.95-6.62-6.95-6.62Zm64.98 19.16v20a6.84 6.84 0 0 1-6.69 7.05 7.13 7.13 0 0 1-6.78-5c-2.53 3.13-7.57 5.22-13 5.22-6.43 0-14.43-4.35-14.43-13.85 0-10.18 8-13.23 14.43-13.23 5.57 0 10.52 1.74 13 4.87v-5.31c0-3.66-3.13-6.09-8.52-6.09a17.6 17.6 0 0 0-8.6 2.26 5.16 5.16 0 0 1-2.26.61 5 5 0 0 1-5-5 5.11 5.11 0 0 1 2.61-4.36 31.57 31.57 0 0 1 15.56-4.09c10.21.11 19.68 3.85 19.68 16.92ZM472 228.16v-3.75c-1.39-1.91-4.52-3-7.47-3-3.57 0-6.7 1.57-6.7 4.88s3.13 4.87 6.7 4.87c2.97.04 6.1-1 7.47-3Zm48.8 5.74a5.52 5.52 0 0 1-4.26 5.4 19.79 19.79 0 0 1-5.48.7c-8.52 0-13.13-4.27-13.13-12.37v-19.07H496a5.84 5.84 0 0 1 0-11.67h1.91v-5.57a6.65 6.65 0 1 1 13.3 0v5.57h3.48a5.84 5.84 0 0 1 0 11.67h-3.48v15.33c0 2.35 1.31 4.18 3.48 4.27H516c2.88.17 4.8 2.78 4.8 5.74Zm43.81-21.24v20a6.83 6.83 0 0 1-6.69 7.05 7.13 7.13 0 0 1-6.78-5c-2.52 3.13-7.56 5.22-12.95 5.22-6.44 0-14.44-4.35-14.44-13.85 0-10.18 8-13.23 14.44-13.23 5.56 0 10.51 1.74 13 4.87v-5.31c0-3.66-3.13-6.09-8.52-6.09a17.66 17.66 0 0 0-8.61 2.26 5.16 5.16 0 0 1-2.26.61 5 5 0 0 1-5-5 5.11 5.11 0 0 1 2.61-4.36 31.57 31.57 0 0 1 15.56-4.09c10.17.11 19.64 3.85 19.64 16.92Zm-13.38 15.5v-3.75c-1.4-1.91-4.53-3-7.48-3-3.56 0-6.69 1.57-6.69 4.88s3.13 4.87 6.69 4.87c2.95.04 6.08-1 7.48-3ZM600 233.9a5.52 5.52 0 0 1-4.26 5.4 19.79 19.79 0 0 1-5.48.7c-8.52 0-13.12-4.27-13.12-12.37v-19.07h-1.92a5.84 5.84 0 0 1 0-11.67h1.92v-5.57a6.65 6.65 0 1 1 13.3 0v5.57h3.47a5.84 5.84 0 0 1 0 11.67h-3.47v15.33c0 2.35 1.3 4.18 3.47 4.27h1.31c2.87.17 4.78 2.78 4.78 5.74Z" fill="#376eb0"/></svg>
