<svg xmlns="http://www.w3.org/2000/svg" xmlns:xlink="http://www.w3.org/1999/xlink" viewBox="0 0 720 420"><defs><linearGradient id="b" x1="361" y1="421" x2="361" y2="1" gradientTransform="matrix(1, 0, 0, 1, 0, 0)" gradientUnits="userSpaceOnUse"><stop offset="0" stop-color="#f8fafc"/><stop offset="1" stop-color="#fff"/></linearGradient><clipPath id="a"><path fill="none" d="M1 1h720v420H1z"/></clipPath><symbol id="c" viewBox="0 0 722 422"><g clip-path="url(#a)"><path fill="url(#b)" d="M1 1h720v420H1z"/><path fill="none" stroke="#f8fafc" stroke-miterlimit="10" stroke-width="2" d="M1 1h60v60H1zm60 0h60v60H61zm60 0h60v60h-60zm60 0h60v60h-60zm60 0h60v60h-60zm60 0h60v60h-60zm60 0h60v60h-60zm60 0h60v60h-60zm60 0h60v60h-60zm60 0h60v60h-60zm60 0h60v60h-60zm60 0h60v60h-60zM1 61h60v60H1zm60 0h60v60H61zm60 0h60v60h-60zm60 0h60v60h-60zm60 0h60v60h-60zm60 0h60v60h-60zm60 0h60v60h-60zm60 0h60v60h-60zm60 0h60v60h-60zm60 0h60v60h-60zm60 0h60v60h-60zm60 0h60v60h-60zM1 121h60v60H1zm60 0h60v60H61zm60 0h60v60h-60zm60 0h60v60h-60zm60 0h60v60h-60zm60 0h60v60h-60zm60 0h60v60h-60zm60 0h60v60h-60zm60 0h60v60h-60zm60 0h60v60h-60zm60 0h60v60h-60zm60 0h60v60h-60zM1 181h60v60H1zm60 0h60v60H61zm60 0h60v60h-60zm60 0h60v60h-60zm60 0h60v60h-60zm60 0h60v60h-60zm60 0h60v60h-60zm60 0h60v60h-60zm60 0h60v60h-60zm60 0h60v60h-60zm60 0h60v60h-60zm60 0h60v60h-60zM1 241h60v60H1zm60 0h60v60H61zm60 0h60v60h-60zm60 0h60v60h-60zm60 0h60v60h-60zm60 0h60v60h-60zm60 0h60v60h-60zm60 0h60v60h-60zm60 0h60v60h-60zm60 0h60v60h-60zm60 0h60v60h-60zm60 0h60v60h-60zM1 301h60v60H1zm60 0h60v60H61zm60 0h60v60h-60zm60 0h60v60h-60zm60 0h60v60h-60zm60 0h60v60h-60zm60 0h60v60h-60zm60 0h60v60h-60zm60 0h60v60h-60zm60 0h60v60h-60zm60 0h60v60h-60zm60 0h60v60h-60zM1 361h60v60H1zm60 0h60v60H61zm60 0h60v60h-60zm60 0h60v60h-60zm60 0h60v60h-60zm60 0h60v60h-60zm60 0h60v60h-60zm60 0h60v60h-60zm60 0h60v60h-60zm60 0h60v60h-60zm60 0h60v60h-60zm60 0h60v60h-60z"/><rect x="16" y="16" width="690" height="390" rx="18" ry="18" fill="none" stroke="#f8fafc" stroke-miterlimit="10" stroke-width="2"/></g></symbol></defs><use width="722" height="422" transform="translate(-1 -1)" xlink:href="#c"/><path d="M360 17c-106.42 0-193 86.58-193 192.99S253.58 403 360 403s193-86.59 193-193.01S466.42 17 360 17ZM186.48 209.99c0-25.16 5.4-49.04 15.03-70.62l82.77 226.78c-57.89-28.12-97.8-87.48-97.8-156.16ZM360 383.52c-17.03 0-33.47-2.5-49.02-7.07l52.07-151.28 53.33 146.13c.35.86.78 1.65 1.24 2.39a173.18 173.18 0 0 1-57.62 9.84Zm23.91-254.89c10.44-.55 19.86-1.65 19.86-1.65 9.35-1.11 8.25-14.85-1.11-14.3 0 0-28.11 2.21-46.25 2.21-17.05 0-45.7-2.21-45.7-2.21-9.36-.55-10.45 13.75-1.1 14.3 0 0 8.85 1.1 18.2 1.65l27.03 74.07-37.98 113.89-63.19-187.96a352.85 352.85 0 0 0 19.86-1.65c9.34-1.11 8.24-14.85-1.11-14.3 0 0-28.1 2.21-46.25 2.21-3.26 0-7.09-.08-11.17-.21 31.03-47.1 84.36-78.21 144.98-78.21 45.17 0 86.31 17.27 117.18 45.56-.75-.05-1.48-.14-2.25-.14-17.04 0-29.14 14.85-29.14 30.8 0 14.3 8.25 26.4 17.04 40.7 6.6 11.56 14.31 26.4 14.31 47.86 0 14.85-5.71 32.08-13.2 56.1l-17.31 57.83-62.71-186.53Zm128.35-1.89a172.72 172.72 0 0 1 21.25 83.25c0 64.02-34.69 119.91-86.28 149.98l53-153.24c9.9-24.75 13.2-44.55 13.2-62.15 0-6.39-.42-12.32-1.17-17.84Z" fill="none" opacity=".75" stroke="#f1f5f9" stroke-miterlimit="10" stroke-width="3"/><g fill="#334055"><path d="M202.96 188.47v-10.66H160v10.66h14.64v40.79h13.75v-40.79h14.57z"/><path d="M223.52 214.28c-.25 1.24-.57 2.75-.99 4.51-.16.68-.33 1.31-.51 1.9h-.77c-.15-1.04-.3-2.11-.48-3.21a97.33 97.33 0 0 0-.55-3.21l-5.49-22.07h-14.12l11.27 33.85c.29.94.82 1.71 1.57 2.31.76.6 1.65.9 2.67.9h2.26a11.34 11.34 0 0 1-3.76 4.55c-1.73 1.19-4.09 2.14-7.06 2.83l.95 7.46c3.41.6 6.39.52 8.93-.22 2.54-.75 4.7-1.93 6.48-3.54a21.12 21.12 0 0 0 4.35-5.48 34.8 34.8 0 0 0 2.63-5.97l12.22-36.69h-14.2l-5.41 22.07Zm49.03-22.97a19.24 19.24 0 0 0-10.9 3.36c-1.2.86-2.16 1.8-2.9 2.83l-1.05-5.29h-10.69v50.86h13.32v-8.13a129.58 129.58 0 0 0-.28-8.11c1.21.96 2.56 1.73 4.09 2.25a23.3 23.3 0 0 0 7.61 1.23c3.02 0 5.55-.56 7.57-1.68 2.02-1.12 3.56-3.06 4.61-5.82 1.05-2.76 1.57-6.65 1.57-11.67 0-6.36-.99-11.26-2.96-14.69-1.98-3.43-5.31-5.15-9.99-5.15Zm-1.24 26.29c-.34 1.42-.89 2.36-1.65 2.83-.76.47-1.77.71-3.04.71-1.61 0-2.96-.19-4.06-.56-.7-.24-1.46-.49-2.23-.73v-16.32c1.1-.66 2.11-1.21 3-1.62a8.7 8.7 0 0 1 3.66-.67c1.12 0 2.04.24 2.74.71.71.47 1.23 1.43 1.57 2.87.34 1.44.51 3.58.51 6.41s-.17 4.96-.51 6.38Zm54.15-5.93c1.9-1.59 2.83-4.1 2.78-7.53 0-4.27-1.39-7.51-4.17-9.69-2.78-2.19-7.44-3.28-13.98-3.28-4.73 0-8.55.63-11.45 1.9a12.04 12.04 0 0 0-6.33 6.23c-1.32 2.88-1.98 6.76-1.98 11.63 0 4.32.65 7.92 1.94 10.78a12.69 12.69 0 0 0 6.33 6.38c2.93 1.39 6.83 2.09 11.71 2.09 2 0 4-.1 6-.3 2-.2 3.94-.52 5.82-.97 1.88-.45 3.6-1.07 5.16-1.86l-1.24-8.2c-2.83.3-5.53.51-8.09.63-2.56.12-4.62.19-6.18.19-2 0-3.55-.3-4.65-.89a4.75 4.75 0 0 1-2.27-3.06c-.14-.48-.25-1.03-.34-1.64h10.84c4.83 0 8.2-.79 10.1-2.39Zm-13.83-4.4h-7.34c.07-1.59.23-2.87.46-3.8.34-1.34.96-2.24 1.87-2.68.9-.45 2.21-.65 3.92-.6 1.8 0 3.07.25 3.8.75s1.12 1.47 1.17 2.91c0 1.29-.23 2.19-.69 2.68-.46.5-1.53.75-3.18.75Zm71.35 4.17a75.75 75.75 0 0 1-.26 3.88 46.82 46.82 0 0 0-.18 4.03h-1.32a239.76 239.76 0 0 1-1.1-7.98l-4.46-29.38a5.01 5.01 0 0 0-1.57-3.02 4.48 4.48 0 0 0-3.11-1.16h-10.39a4.63 4.63 0 0 0-4.69 4.18l-4.39 29.23a115.3 115.3 0 0 1-.55 4.1l-.62 4.03h-1.24c-.05-1.49-.11-2.91-.18-4.25a120.3 120.3 0 0 0-.26-3.8l-3.81-33.48h-13.68l7.24 47.65a4.03 4.03 0 0 0 1.57 2.76c.9.7 1.96 1.04 3.18 1.04h12.15c1.17 0 2.22-.35 3.15-1.04a3.95 3.95 0 0 0 1.61-2.76l4.39-30.65c.15-1.19.28-2.4.4-3.62.12-1.22.21-2.42.26-3.62h1.32c.15 1.19.27 2.39.37 3.58.1 1.19.22 2.39.37 3.58l4.46 30.72a4.03 4.03 0 0 0 1.57 2.76c.9.7 1.96 1.04 3.18 1.04h12.07c1.17 0 2.21-.35 3.11-1.04a4.3 4.3 0 0 0 1.65-2.76l7.17-47.65h-13.68l-3.73 33.63Zm40.65-18.53a26.78 26.78 0 0 0-7.03 4.84l-1.2-5.55h-10.39v37.06h13.32V205.2c2.06-.51 3.83-.9 5.27-1.14 1.76-.3 3.37-.45 4.83-.45h3.51l1.17-12.45h-2.05c-2.39 0-4.87.59-7.43 1.75Zm23.31-17.41h-5.71c-2.59 0-3.88 1.34-3.88 4.03v3.88c0 2.68 1.29 4.03 3.88 4.03h5.71c2.59 0 3.88-1.34 3.88-4.03v-3.88c0-2.68-1.29-4.03-3.88-4.03Zm-9.44 16.7h13.25v37.06H437.5zm37.83-9.99h-13.32l.02 10.03-6.24.33v8.05h6.26l.04 19.31c0 3.23.99 5.75 2.96 7.57 1.98 1.81 4.67 2.72 8.09 2.72 1.03 0 2.24-.06 3.66-.19a45.3 45.3 0 0 0 4.21-.56c1.39-.25 2.57-.57 3.55-.97l-1.46-8.87h-4.24c-1.27 0-2.17-.25-2.71-.75s-.8-1.29-.8-2.39v-15.88h9.44v-8.43h-9.44v-9.99Zm48.01 29.46c1.9-1.59 2.83-4.1 2.78-7.53 0-4.27-1.39-7.51-4.17-9.69-2.78-2.19-7.44-3.28-13.98-3.28-4.73 0-8.55.63-11.45 1.9a12.04 12.04 0 0 0-6.33 6.23c-1.32 2.88-1.98 6.76-1.98 11.63 0 4.32.65 7.92 1.94 10.78a12.69 12.69 0 0 0 6.33 6.38c2.93 1.39 6.83 2.09 11.71 2.09 2 0 4-.1 6-.3 2-.2 3.94-.52 5.82-.97 1.88-.45 3.6-1.07 5.16-1.86l-1.24-8.2c-2.83.3-5.53.51-8.09.63-2.56.12-4.62.19-6.18.19-2 0-3.55-.3-4.65-.89a4.75 4.75 0 0 1-2.27-3.06c-.14-.48-.25-1.03-.34-1.64h10.84c4.83 0 8.2-.79 10.1-2.39Zm-13.83-4.4h-7.34c.07-1.59.23-2.87.46-3.8.34-1.34.96-2.24 1.87-2.68.9-.45 2.21-.65 3.92-.6 1.8 0 3.07.25 3.8.75s1.12 1.47 1.17 2.91c0 1.29-.23 2.19-.69 2.68-.46.5-1.53.75-3.18.75Zm48.44-16.11c-2.39 0-4.87.59-7.43 1.75a26.78 26.78 0 0 0-7.03 4.84l-1.2-5.55H531.9v37.06h13.32V205.2c2.06-.51 3.83-.9 5.27-1.14 1.76-.3 3.37-.45 4.83-.45h3.51l1.17-12.45h-2.05Z"/></g></svg>
