<svg xmlns="http://www.w3.org/2000/svg" viewBox="0 0 720 420">
    <defs>
        <linearGradient id="b" x1="360" y1="420" x2="360" y2="0" gradientTransform="matrix(1, 0, 0, 1, 0, 0)" gradientUnits="userSpaceOnUse">
            <stop offset="0" stop-color="#d1005d"/>
            <stop offset="1" stop-color="#d9317d"/>
        </linearGradient>
        <clipPath id="a">
            <path fill="none" d="M0 0h720v420H0z"/>
        </clipPath>
    </defs>
    <g clip-path="url(#a)">
        <path fill="url(#b)" d="M0 0h720v420H0z"/>
        <path d="M0 0h60v60H0zm60 0h60v60H60zm60 0h60v60h-60zm60 0h60v60h-60zm60 0h60v60h-60zm60 0h60v60h-60zm60 0h60v60h-60zm60 0h60v60h-60zm60 0h60v60h-60zm60 0h60v60h-60zm60 0h60v60h-60zm60 0h60v60h-60zM0 60h60v60H0zm60 0h60v60H60zm60 0h60v60h-60zm60 0h60v60h-60zm60 0h60v60h-60zm60 0h60v60h-60zm60 0h60v60h-60zm60 0h60v60h-60zm60 0h60v60h-60zm60 0h60v60h-60zm60 0h60v60h-60zm60 0h60v60h-60zM0 120h60v60H0zm60 0h60v60H60zm60 0h60v60h-60zm60 0h60v60h-60zm60 0h60v60h-60zm60 0h60v60h-60zm60 0h60v60h-60zm60 0h60v60h-60zm60 0h60v60h-60zm60 0h60v60h-60zm60 0h60v60h-60zm60 0h60v60h-60zM0 180h60v60H0zm60 0h60v60H60zm60 0h60v60h-60zm60 0h60v60h-60zm60 0h60v60h-60zm60 0h60v60h-60zm60 0h60v60h-60zm60 0h60v60h-60zm60 0h60v60h-60zm60 0h60v60h-60zm60 0h60v60h-60zm60 0h60v60h-60zM0 240h60v60H0zm60 0h60v60H60zm60 0h60v60h-60zm60 0h60v60h-60zm60 0h60v60h-60zm60 0h60v60h-60zm60 0h60v60h-60zm60 0h60v60h-60zm60 0h60v60h-60zm60 0h60v60h-60zm60 0h60v60h-60zm60 0h60v60h-60zM0 300h60v60H0zm60 0h60v60H60zm60 0h60v60h-60zm60 0h60v60h-60zm60 0h60v60h-60zm60 0h60v60h-60zm60 0h60v60h-60zm60 0h60v60h-60zm60 0h60v60h-60zm60 0h60v60h-60zm60 0h60v60h-60zm60 0h60v60h-60zM0 360h60v60H0zm60 0h60v60H60zm60 0h60v60h-60zm60 0h60v60h-60zm60 0h60v60h-60zm60 0h60v60h-60zm60 0h60v60h-60zm60 0h60v60h-60zm60 0h60v60h-60zm60 0h60v60h-60zm60 0h60v60h-60zm60 0h60v60h-60z" fill="none" stroke="#d1015d" stroke-miterlimit="10" stroke-width="2"/>
        <rect x="15" y="15" width="690" height="390" rx="18" ry="18" fill="none" stroke="#d1015d" stroke-miterlimit="10" stroke-width="2"/>
    </g>
    <path d="M150 161h420v98H150z"/>
    <path d="M197.1 234.09c-4.6 0-8.25-1.25-10.95-3.75-2.7-2.5-4.05-5.87-4.05-10.11h9c0 1.84.54 3.31 1.62 4.41s2.54 1.65 4.38 1.65 3.3-.53 4.38-1.59a5.82 5.82 0 0 0 1.62-4.35v-22.56h-12.3v-8.1h21.3v30.66c0 4.24-1.34 7.59-4.02 10.05s-6.34 3.69-10.98 3.69Zm33.54 0c-3.32 0-5.95-.9-7.89-2.7-1.94-1.8-2.91-4.24-2.91-7.32 0-3.36 1.2-5.93 3.6-7.71 2.4-1.78 5.84-2.67 10.32-2.67h6.3v-2.4c0-1.32-.46-2.34-1.38-3.06-.92-.72-2.2-1.08-3.84-1.08s-2.87.32-3.81.96a2.98 2.98 0 0 0-1.41 2.58h-8.4a9.75 9.75 0 0 1 3.9-7.89c2.52-1.94 5.88-2.91 10.08-2.91s7.66 1.01 10.14 3.03c2.48 2.02 3.72 4.81 3.72 8.37v22.2h-8.7v-5.1h-.18a7.33 7.33 0 0 1-3.3 4.2c-1.64 1-3.72 1.5-6.24 1.5Zm3.36-6.54a6.7 6.7 0 0 0 4.35-1.38 4.47 4.47 0 0 0 1.71-3.66v-3.48h-6.12c-1.6 0-2.85.37-3.75 1.11s-1.35 1.77-1.35 3.09.46 2.42 1.38 3.18a5.76 5.76 0 0 0 3.78 1.14Zm23.1 5.94v-8.1h10.92v-16.8h-9.72v-8.1h18.72v24.9h9.48v8.1h-29.4Zm15-38.22a5.83 5.83 0 0 1-3.93-1.26c-.98-.84-1.47-1.98-1.47-3.42s.49-2.58 1.47-3.42 2.29-1.26 3.93-1.26 2.95.42 3.93 1.26c.98.84 1.47 1.98 1.47 3.42s-.49 2.58-1.47 3.42a5.83 5.83 0 0 1-3.93 1.26Zm19.32 38.22v-33h7.08v4.8h.24a6.2 6.2 0 0 1 1.74-3.9c1-1 2.24-1.5 3.72-1.5s2.68.5 3.72 1.5 1.7 2.3 1.98 3.9h.12c.16-1.6.76-2.9 1.8-3.9a5.4 5.4 0 0 1 3.9-1.5c1.96 0 3.57.78 4.83 2.34 1.26 1.56 1.89 3.58 1.89 6.06v25.2h-7.56v-24.18c0-1.92-.78-2.88-2.34-2.88s-2.34.96-2.34 2.88v24.18h-6.54v-24.18c0-1.92-.78-2.88-2.34-2.88s-2.34.96-2.34 2.88v24.18h-7.56Zm37.68 0v-8.1h10.92v-16.8h-9.72v-8.1h18.72v24.9h9.48v8.1h-29.4Zm15-38.22a5.83 5.83 0 0 1-3.93-1.26c-.98-.84-1.47-1.98-1.47-3.42s.49-2.58 1.47-3.42 2.29-1.26 3.93-1.26 2.95.42 3.93 1.26c.98.84 1.47 1.98 1.47 3.42s-.49 2.58-1.47 3.42a5.83 5.83 0 0 1-3.93 1.26Zm34.86 38.82c-2.92 0-5.47-.55-7.65-1.65a12.01 12.01 0 0 1-5.04-4.62 13.28 13.28 0 0 1-1.77-6.93v-7.8c0-2.64.59-4.95 1.77-6.93a12.01 12.01 0 0 1 5.04-4.62c2.18-1.1 4.73-1.65 7.65-1.65s5.45.55 7.59 1.65a12.1 12.1 0 0 1 4.98 4.62 13.28 13.28 0 0 1 1.77 6.93v6h-20.22v1.8c0 4.2 2 6.3 6 6.3 2.84 0 4.54-.9 5.1-2.7H393a11.7 11.7 0 0 1-4.89 6.96 15.66 15.66 0 0 1-9.15 2.64Zm-5.88-21v.9l11.64-.12v-.9c0-4.2-1.92-6.3-5.76-6.3-1.96 0-3.43.56-4.41 1.68-.98 1.12-1.47 2.7-1.47 4.74Zm72.18 20.4-10.86-43.8h9.3l6.06 27.66.75 3.66c.3 1.48.53 2.74.69 3.78l.6-3.78c.24-1.48.46-2.72.66-3.72l5.88-27.6h9.06l-10.74 43.8h-11.4Zm41.64.6c-2.92 0-5.46-.55-7.62-1.65s-3.83-2.64-5.01-4.62a13.28 13.28 0 0 1-1.77-6.93v-7.8c0-2.64.59-4.95 1.77-6.93a12.05 12.05 0 0 1 5.01-4.62c2.16-1.1 4.7-1.65 7.62-1.65s5.51.55 7.65 1.65a12.1 12.1 0 0 1 4.98 4.62 13.28 13.28 0 0 1 1.77 6.93v7.8c0 2.64-.59 4.95-1.77 6.93a12.1 12.1 0 0 1-4.98 4.62 16.54 16.54 0 0 1-7.65 1.65Zm0-7.8c1.76 0 3.1-.47 4.02-1.41.92-.94 1.38-2.27 1.38-3.99v-7.8c0-1.76-.46-3.1-1.38-4.02-.92-.92-2.26-1.38-4.02-1.38s-3.05.46-3.99 1.38c-.94.92-1.41 2.26-1.41 4.02v7.8c0 1.72.47 3.05 1.41 3.99.94.94 2.27 1.41 3.99 1.41Zm34.62 7.8c-2.72 0-5.1-.43-7.14-1.29a11.26 11.26 0 0 1-4.77-3.57 8.65 8.65 0 0 1-1.71-5.34h9c0 2.24 1.54 3.36 4.62 3.36h2.64c3.36 0 5.04-1.08 5.04-3.24 0-1.96-1.56-3.16-4.68-3.6l-4.74-.6c-7.28-.92-10.92-4.32-10.92-10.2 0-3.2 1.1-5.62 3.3-7.26 2.2-1.64 5.42-2.46 9.66-2.46h2.28c4.04 0 7.26.88 9.66 2.64a8.34 8.34 0 0 1 3.6 7.08h-9c0-1.92-1.42-2.88-4.26-2.88h-2.28c-2.84 0-4.26.96-4.26 2.88 0 1.8 1.3 2.88 3.9 3.24l4.86.66c7.72.96 11.58 4.42 11.58 10.38 0 3.24-1.16 5.75-3.48 7.53-2.32 1.78-5.74 2.67-10.26 2.67h-2.64Z" fill="#fff"/>
</svg>
