<svg xmlns="http://www.w3.org/2000/svg" xmlns:xlink="http://www.w3.org/1999/xlink" viewBox="0 0 720 420"><defs><linearGradient id="b" x1="361" y1="421" x2="361" y2="1" gradientTransform="matrix(1, 0, 0, 1, 0, 0)" gradientUnits="userSpaceOnUse"><stop offset="0" stop-color="#f8fafc"/><stop offset="1" stop-color="#fff"/></linearGradient><clipPath id="a"><path fill="none" d="M1 1h720v420H1z"/></clipPath><symbol id="c" viewBox="0 0 722 422"><g clip-path="url(#a)"><path fill="url(#b)" d="M1 1h720v420H1z"/><path d="M1 1h60v60H1zm60 0h60v60H61zm60 0h60v60h-60zm60 0h60v60h-60zm60 0h60v60h-60zm60 0h60v60h-60zm60 0h60v60h-60zm60 0h60v60h-60zm60 0h60v60h-60zm60 0h60v60h-60zm60 0h60v60h-60zm60 0h60v60h-60zM1 61h60v60H1zm60 0h60v60H61zm60 0h60v60h-60zm60 0h60v60h-60zm60 0h60v60h-60zm60 0h60v60h-60zm60 0h60v60h-60zm60 0h60v60h-60zm60 0h60v60h-60zm60 0h60v60h-60zm60 0h60v60h-60zm60 0h60v60h-60zM1 121h60v60H1zm60 0h60v60H61zm60 0h60v60h-60zm60 0h60v60h-60zm60 0h60v60h-60zm60 0h60v60h-60zm60 0h60v60h-60zm60 0h60v60h-60zm60 0h60v60h-60zm60 0h60v60h-60zm60 0h60v60h-60zm60 0h60v60h-60zM1 181h60v60H1zm60 0h60v60H61zm60 0h60v60h-60zm60 0h60v60h-60zm60 0h60v60h-60zm60 0h60v60h-60zm60 0h60v60h-60zm60 0h60v60h-60zm60 0h60v60h-60zm60 0h60v60h-60zm60 0h60v60h-60zm60 0h60v60h-60zM1 241h60v60H1zm60 0h60v60H61zm60 0h60v60h-60zm60 0h60v60h-60zm60 0h60v60h-60zm60 0h60v60h-60zm60 0h60v60h-60zm60 0h60v60h-60zm60 0h60v60h-60zm60 0h60v60h-60zm60 0h60v60h-60zm60 0h60v60h-60zM1 301h60v60H1zm60 0h60v60H61zm60 0h60v60h-60zm60 0h60v60h-60zm60 0h60v60h-60zm60 0h60v60h-60zm60 0h60v60h-60zm60 0h60v60h-60zm60 0h60v60h-60zm60 0h60v60h-60zm60 0h60v60h-60zm60 0h60v60h-60zM1 361h60v60H1zm60 0h60v60H61zm60 0h60v60h-60zm60 0h60v60h-60zm60 0h60v60h-60zm60 0h60v60h-60zm60 0h60v60h-60zm60 0h60v60h-60zm60 0h60v60h-60zm60 0h60v60h-60zm60 0h60v60h-60zm60 0h60v60h-60z" fill="none" stroke="#f8fafc" stroke-miterlimit="10" stroke-width="2"/><rect x="16" y="16" width="690" height="390" rx="18" ry="18" fill="none" stroke="#f8fafc" stroke-miterlimit="10" stroke-width="2"/></g></symbol></defs><use width="722" height="422" transform="translate(-1 -1)" xlink:href="#c"/><path d="m148.85 319.28 32.35-.44h32.38c1.71.06 3.41.17 5.11.17h123.95c-.73 2.24-.94 4.23-1.94 5.68-4.07 5.92-8.38 11.67-12.84 17.83l49.71 35.66c11.47-14.1 22.82-28.08 34.53-42.42l-14.17-9.92 86.46-48.25 3.81 22.04 58.38-7.87-7.81-54.16-19.89 3.7c15.85-40.09 31.48-79.59 47.16-119.29l3.98 1.51-44.28 112.08 16.63-3.01 9.07 62.83-66.75 9.04-3.49-20.15-75.16 41.9 12.36 8.61-40 49.18-56.55-40.54 14.24-19.27a.47.47 0 0 0 0-.61c-1.7-.06-3.4-.17-5.1-.17H162.3c-1.57 0-3.15-.09-4.72-.13l-.1-1.23c.17-1.86-.7-2.45-2.53-2.36-2.05.02-4.1-.27-6.1-.4Z" fill="#33b16c"/><path d="M213.57 318.82h-2.68c-1.57-6.12-3.15-12.22-4.93-19.02l-20.83 19.02h-3.93c7.21-6.63 14.5-13.18 21.58-19.94a11.33 11.33 0 0 0 3.2-5.51c2.74-13.33-.09-25.4-8.5-36.2-1.31-1.68-2.46-2.2-4.59-1.45a203.7 203.7 0 0 1-14.24 4.37c-.79.23-1.9-.46-2.86-.72l.23-1.27 17.78-5.6c-4.23-3.05-7.67-5.77-11.38-8.01-.84-.5-2.81.43-4.05 1.09a14.47 14.47 0 1 1 4.3-21.66c3.88 4.87 4.09 10.09.63 17.46 1.9 1.31 3.87 2.57 5.75 3.94s3.68 2.89 5.98 4.72c.9-5.04 1.64-9.72 2.62-14.36.2-.9 1.31-1.57 2-2.4l1 .79c-.91 5.27-1.97 10.53-2.63 15.84a7.28 7.28 0 0 0 1.25 4.9c9 11.37 12.06 24.12 9.67 38.37-.35 2.57-.22 5.18.37 7.71 1.22 6.06 2.81 12 4.26 17.95Zm-64.72.46c2.04.13 4.08.42 6.11.35 1.83-.06 2.69.54 2.53 2.36-2.71.09-5.51.58-8.09.11-1.42-.26-2.53-2.15-3.79-3.31v-10.35l-15.65 10.37a37.27 37.27 0 0 0-3.6 2.02c-2.74 1.92-4.12 1.08-4.56-2.03v-16.52l-13.98 16.53c-1.27.57-2.57 1.67-3.82 1.62-1.88-.08-3.73-.95-5.6-1.5.39-.34.83-1.03 1.16-.98 5.51.88 8.49-2.87 11.26-6.41 3.53-4.52 7.14-9.18 9.55-14.32 1.57-3.42 1.19-7.79 1.65-11.52-11.44-4.99-15.13-10.42-13.28-18.89 1.46-6.6 7.72-11.3 14.77-11.07a14.41 14.41 0 0 1 13.66 11.9c1.33 8.37-2.68 13.95-12.59 17.5v33.4c3.49-2.2 6.51-4.1 9.51-6.02 3.2-2.03 6.34-4.16 9.62-6.08.97-.56 2.6-1.05 3.34-.59s1.12 2.09 1.22 3.24c.28 3.4.38 6.78.59 10.16Z" fill="#070707"/><path d="M121.81 318.82c.44 3.11 1.83 3.94 4.56 2.03a38.44 38.44 0 0 1 3.59-2.03h15.6c1.25 1.16 2.36 3.05 3.79 3.31 2.6.47 5.38 0 8.09-.11 0 .41.07.79.1 1.23l-57.96.21H94v-4.54h4.4c1.86.54 3.71 1.42 5.59 1.5 1.25.05 2.55-1.05 3.82-1.62l14 .03Z" fill="#51ba80"/><path d="M258.24 147.82c.4-.05.78-.18 1.13-.39.28-.18.51-.43.67-.72.18-.35.3-.71.38-1.09.09-.43.19-1.07.29-1.91h1.97v3.42h4.46v1.4h-4.46v6.15c-.01.72.02 1.43.11 2.14.04.44.18.86.41 1.24.17.27.41.49.69.64a2.5 2.5 0 0 0 2.04-.03c.35-.17.67-.39.95-.65l.62.75a7.43 7.43 0 0 1-1.86 1.38 4.1 4.1 0 0 1-1.82.43c-1 .08-1.99-.31-2.66-1.06a5.12 5.12 0 0 1-.87-3.31v-7.67h-2.05v-.71Zm16.21 12.8a5.56 5.56 0 0 1-4.39-1.7c-1.02-1.13-1.52-2.8-1.52-5.01a8.57 8.57 0 0 1 .79-3.86 5.35 5.35 0 0 1 2.18-2.36 6.4 6.4 0 0 1 3.15-.79 5.66 5.66 0 0 1 4.48 1.72 7.2 7.2 0 0 1 1.54 4.91 8.9 8.9 0 0 1-.79 3.87 5.2 5.2 0 0 1-2.16 2.36 6.6 6.6 0 0 1-3.28.85Zm-3.3-7a8.6 8.6 0 0 0 .91 4.38c.5.96 1.51 1.55 2.59 1.53.56.02 1.11-.14 1.57-.45.44-.32.8-.73 1.05-1.21a5.8 5.8 0 0 0 .59-1.76c.12-.69.18-1.39.18-2.09a10.5 10.5 0 0 0-.46-3.38 4.14 4.14 0 0 0-1.22-1.98 2.78 2.78 0 0 0-1.77-.63 2.85 2.85 0 0 0-2.57 1.46 7.86 7.86 0 0 0-.89 4.09v.04Zm25.79 6.74h-5.45v-.68c.27-.08.53-.18.79-.29.16-.08.29-.2.39-.35.13-.21.21-.44.25-.68.07-.47.1-.94.09-1.41v-3.62c0-.65 0-1.24-.06-1.76a8.03 8.03 0 0 0-.19-1.29 2.83 2.83 0 0 0-.31-.79 2.27 2.27 0 0 0-.44-.49 1.96 1.96 0 0 0-.59-.31 2.58 2.58 0 0 0-.87-.12c-.35 0-.7.07-1.02.21-.39.19-.75.44-1.06.74-.34.29-.62.65-.84 1.04-.19.37-.28.77-.27 1.18v5.16c-.02.55.02 1.11.11 1.65.05.28.21.53.42.71.31.2.65.35 1.02.43v.68h-5.42v-.68c.27-.08.53-.17.79-.29.15-.09.29-.2.39-.35.13-.21.21-.44.24-.68.08-.47.11-.95.09-1.43v-7.45c0-.3-.07-.59-.19-.87a1.08 1.08 0 0 0-.51-.48 4.06 4.06 0 0 0-.96-.28v-.73l3.24-.13h.79l-.15 2.26.19.06c.51-.54 1.06-1.03 1.65-1.48.39-.28.82-.51 1.27-.68.43-.17.9-.25 1.36-.24.45 0 .9.05 1.34.17a2.95 2.95 0 0 1 1.78 1.43c.21.4.35.84.43 1.28.1.63.15 1.26.14 1.9v5.21c0 .46.01.92.06 1.39.02.23.09.46.2.66.1.16.24.3.4.39.29.15.6.27.91.35v.68Zm13.39-2.35c-.5.53-1.04 1.02-1.63 1.45a6.16 6.16 0 0 1-3.57 1.13 5.33 5.33 0 0 1-4.3-1.71c-.97-1.14-1.46-2.82-1.46-5.04a8.63 8.63 0 0 1 .74-3.64 5.64 5.64 0 0 1 5.27-3.3c.81-.02 1.61.13 2.36.45.62.26 1.16.68 1.57 1.2.43.58.74 1.24.91 1.94.25 1 .37 2.02.37 3.05h-8.7v.25c-.02.93.1 1.86.37 2.75.21.69.63 1.3 1.2 1.74.64.44 1.4.66 2.18.63.7.01 1.4-.13 2.04-.43.68-.34 1.29-.8 1.8-1.37l.85.9Zm-2.36-5.62c-.03-.82-.15-1.64-.37-2.44a3.13 3.13 0 0 0-.87-1.46 2.22 2.22 0 0 0-1.52-.5c-.9-.02-1.75.41-2.27 1.14a6.1 6.1 0 0 0-1.01 3.26h6.04Zm16.18 5.62c-.5.53-1.04 1.02-1.63 1.45a6.16 6.16 0 0 1-3.57 1.13 5.33 5.33 0 0 1-4.3-1.71c-.97-1.14-1.45-2.82-1.46-5.04a8.49 8.49 0 0 1 .75-3.64 5.61 5.61 0 0 1 5.26-3.3c.81-.02 1.61.13 2.36.45.62.26 1.16.68 1.57 1.2.43.58.74 1.24.91 1.94.25 1 .37 2.02.37 3.05h-8.72v.25c-.02.93.1 1.86.37 2.75.21.69.63 1.29 1.2 1.72.64.44 1.4.66 2.18.63.7.01 1.4-.13 2.04-.43.68-.34 1.29-.8 1.8-1.37l.87.91Zm-2.36-5.62c-.03-.82-.15-1.64-.37-2.44a3.13 3.13 0 0 0-.87-1.46 2.22 2.22 0 0 0-1.52-.5c-.9-.02-1.75.41-2.27 1.14a6.2 6.2 0 0 0-1.01 3.26h6.04Zm8.86 4.51c-.02.55.02 1.11.11 1.65.05.28.2.53.42.71.31.2.65.34 1.02.43v.68h-5.51v-.68c.34-.08.66-.2.96-.38.17-.12.3-.28.39-.46.09-.23.15-.48.17-.73 0-.31.05-.72.05-1.21v-13.43c-.01-.3-.05-.6-.11-.89-.05-.21-.13-.4-.25-.57a1 1 0 0 0-.43-.33 4.03 4.03 0 0 0-.98-.25v-.72l3.34-.14h.84v16.34Zm7.96-9.77v.68c-.31.07-.61.16-.91.29a.97.97 0 0 0-.39.36c-.09.18-.14.39-.13.6 0 .26.03.53.09.79.08.32.17.64.28.94l2.41 7 2.82-6.71c.16-.36.29-.72.39-1.09.07-.26.11-.52.11-.79a1.2 1.2 0 0 0-.31-.88 2.38 2.38 0 0 0-1.14-.49v-.68h5.18v.68c-.3.05-.58.17-.83.34-.24.21-.43.45-.58.72-.19.32-.42.79-.69 1.38l-4.66 10.23h-1.63l-3.75-10.33c-.17-.5-.37-.99-.61-1.46a1.77 1.77 0 0 0-.5-.59 2.46 2.46 0 0 0-.79-.31v-.68h5.65Zm20.21 10.88c-.5.53-1.04 1.02-1.63 1.45a5.78 5.78 0 0 1-3.57 1.13 5.33 5.33 0 0 1-4.3-1.71c-.97-1.14-1.45-2.82-1.45-5.04a8.48 8.48 0 0 1 .74-3.64 5.61 5.61 0 0 1 5.26-3.3c.81-.02 1.61.13 2.36.45.62.26 1.16.68 1.57 1.2.43.58.74 1.24.91 1.94.25 1 .37 2.02.37 3.05h-8.7v.25c-.02.93.1 1.86.37 2.75.21.69.63 1.3 1.2 1.74.64.44 1.4.66 2.18.63.7.01 1.4-.13 2.04-.43.68-.34 1.29-.8 1.8-1.37l.85.9Zm-2.36-5.62a10.6 10.6 0 0 0-.37-2.44 3.13 3.13 0 0 0-.87-1.46 2.22 2.22 0 0 0-1.52-.5c-.9-.02-1.75.41-2.27 1.14a6.2 6.2 0 0 0-1.01 3.26h6.04Zm8.86-2.96.19.04c.43-.53.9-1.02 1.42-1.46a4.77 4.77 0 0 1 3.11-1.12c.49 0 .97.03 1.46.09v3.15h-1.57a3.5 3.5 0 0 0-.7-1.09 1.5 1.5 0 0 0-1.03-.34c-.35 0-.69.11-.98.29-.36.22-.69.51-.95.84a3.22 3.22 0 0 0-.8 2.19v4.84c-.03.58.03 1.17.16 1.74.08.29.26.53.5.7.33.17.69.29 1.05.35v.68h-5.57v-.68c.27-.08.53-.18.79-.29.15-.09.29-.21.39-.35.13-.2.22-.44.25-.68.06-.47.09-.95.08-1.43v-7.45c0-.3-.07-.59-.2-.87a1.1 1.1 0 0 0-.5-.48 4.6 4.6 0 0 0-.96-.28v-.72l3.23-.14h.84l-.2 2.46Zm18.62 8.58c-.5.53-1.04 1.02-1.63 1.45a5.78 5.78 0 0 1-3.57 1.13 5.36 5.36 0 0 1-4.3-1.71c-.97-1.14-1.45-2.82-1.45-5.04a8.48 8.48 0 0 1 .74-3.64 5.61 5.61 0 0 1 5.26-3.3c.81-.02 1.61.13 2.36.45.62.26 1.16.68 1.57 1.2.42.58.73 1.24.91 1.94.24 1 .36 2.02.36 3.05h-8.69v.25c-.02.93.1 1.86.36 2.75a3.4 3.4 0 0 0 1.21 1.72c.64.44 1.4.66 2.18.63.7.01 1.4-.13 2.04-.43.68-.34 1.3-.8 1.81-1.37l.83.91Zm-2.36-5.62c-.03-.83-.15-1.64-.38-2.44a3.13 3.13 0 0 0-.87-1.46 2.22 2.22 0 0 0-1.52-.5c-.9-.02-1.75.41-2.27 1.14a6.2 6.2 0 0 0-1.01 3.26h6.05Zm18.6 7.97h-5.45v-.68c.27-.08.53-.18.79-.29.16-.09.29-.2.4-.35.13-.21.21-.44.24-.68.07-.47.11-.94.09-1.41v-3.62c0-.65 0-1.24-.06-1.76a8.03 8.03 0 0 0-.19-1.29 2.58 2.58 0 0 0-.32-.79 2.06 2.06 0 0 0-.44-.49 1.76 1.76 0 0 0-.59-.31 2.54 2.54 0 0 0-.87-.12c-.35 0-.7.07-1.02.21-.39.19-.75.44-1.07.74-.34.29-.62.65-.84 1.04-.18.37-.27.77-.26 1.18v5.16c-.02.55.02 1.11.11 1.65.05.28.2.53.42.71.31.2.66.34 1.02.43v.68h-5.43v-.68c.27-.08.53-.17.79-.29.15-.09.28-.21.39-.35.13-.21.21-.44.25-.68.07-.47.1-.95.09-1.43v-7.45c0-.3-.07-.59-.2-.87a1.1 1.1 0 0 0-.5-.48 4.6 4.6 0 0 0-.96-.28v-.73l3.23-.13h.84l-.15 2.26.2.06a12.2 12.2 0 0 1 1.65-1.48c.39-.29.82-.52 1.27-.68.43-.17.9-.25 1.36-.24.45 0 .9.05 1.33.17a2.95 2.95 0 0 1 1.78 1.43c.21.4.36.84.44 1.28.1.63.15 1.26.14 1.9v5.21c0 .46 0 .92.06 1.39.02.23.09.46.2.66.09.17.23.3.4.39.29.15.6.27.91.35l-.06.68Zm2.34-.68c.27-.08.53-.18.79-.29.15-.09.28-.2.39-.35.13-.21.21-.44.25-.68.07-.47.1-.95.09-1.43v-7.45c0-.3-.07-.59-.2-.87a1.1 1.1 0 0 0-.5-.48 4.6 4.6 0 0 0-.96-.28v-.73l3.23-.13h.84v9.89c-.02.55.02 1.11.11 1.65.05.28.2.53.42.71.31.2.66.34 1.02.43v.68h-5.42l-.05-.68Zm3.93-17.98v2.68h-2.54v-2.66l2.54-.02Zm16.35 6.83-2.57-.1-.12.16c.31.33.54.73.68 1.16.16.51.25 1.04.24 1.57a4.4 4.4 0 0 1-1.39 3.48 5.77 5.77 0 0 1-3.93 1.23 5.8 5.8 0 0 1-1.98-.29c-.57.33-.96.92-1.05 1.57-.02.28.05.55.2.79.17.2.41.33.67.37.46.09.93.13 1.4.11h3.32c.81-.02 1.62.13 2.36.46.56.25 1.03.68 1.32 1.23.27.56.41 1.17.39 1.79 0 .83-.25 1.64-.75 2.31a4.77 4.77 0 0 1-2.16 1.57 8.8 8.8 0 0 1-3.29.57c-.86 0-1.71-.05-2.56-.17a6.58 6.58 0 0 1-1.98-.56 3.15 3.15 0 0 1-1.27-1.04 2.76 2.76 0 0 1-.45-1.57c0-.58.21-1.13.58-1.57a5.12 5.12 0 0 1 1.64-1.25 2.27 2.27 0 0 1-1.02-.79 1.98 1.98 0 0 1-.37-1.2c0-.52.15-1.02.44-1.45.44-.58.97-1.09 1.57-1.5a3.93 3.93 0 0 1-1.51-1.57 4.82 4.82 0 0 1-.52-2.27c-.02-.71.12-1.42.39-2.07a4.12 4.12 0 0 1 2.74-2.32 8.25 8.25 0 0 1 4.04-.04h4.9v1.39Zm-9.25 12.09a4 4 0 0 0-1.06 1.11c-.24.4-.36.87-.35 1.34-.04.75.34 1.46.99 1.83.94.45 1.98.65 3.02.58.73.02 1.45-.1 2.14-.33a2.91 2.91 0 0 0 1.36-.95c.31-.42.48-.93.47-1.46 0-.25-.04-.5-.1-.75a1.53 1.53 0 0 0-.36-.66 1.96 1.96 0 0 0-.79-.46 4.08 4.08 0 0 0-1.3-.17h-2.06c-.73-.04-1.39-.08-1.96-.08Zm-.35-9.24c-.06.94.19 1.88.7 2.67.48.64 1.24.99 2.04.94.42.01.83-.08 1.2-.27.32-.18.59-.43.79-.74.22-.33.37-.7.46-1.09a6 6 0 0 0-.2-3.33 2.36 2.36 0 0 0-2.31-1.57 2.36 2.36 0 0 0-2 .87c-.5.73-.74 1.6-.68 2.48v.04Zm11.19 8.3c.27-.08.53-.18.79-.29.15-.09.28-.2.39-.35.13-.2.22-.44.25-.68.08-.47.11-.95.09-1.43v-7.45c0-.3-.07-.6-.2-.87a1.1 1.1 0 0 0-.5-.48 4.06 4.06 0 0 0-.96-.28v-.73l3.23-.13h.76v9.89c-.02.55.02 1.11.11 1.65.05.28.2.53.42.71.31.2.65.35 1.02.43v.68h-5.42l.03-.68Zm3.93-17.98v2.68h-2.54v-2.66l2.54-.02Zm17.42 18.66h-5.45v-.68c.27-.08.53-.18.79-.29.16-.08.29-.2.39-.35.13-.21.21-.44.25-.68.07-.47.1-.94.09-1.41v-3.62c0-.65 0-1.24-.06-1.76a8.03 8.03 0 0 0-.19-1.29 2.83 2.83 0 0 0-.31-.79 2.27 2.27 0 0 0-.44-.49 1.96 1.96 0 0 0-.59-.31 2.58 2.58 0 0 0-.87-.12c-.35 0-.7.07-1.02.21-.39.19-.75.44-1.06.74-.34.29-.62.65-.84 1.04-.19.37-.28.77-.27 1.18v5.16c-.02.55.02 1.11.11 1.65.05.28.21.53.42.71.31.2.65.35 1.02.43v.68h-5.42v-.68c.27-.08.53-.17.79-.29.15-.09.29-.2.39-.35.13-.21.21-.44.24-.68.08-.47.11-.95.09-1.43v-7.45c0-.3-.07-.59-.19-.87a1.08 1.08 0 0 0-.51-.48 4.06 4.06 0 0 0-.96-.28v-.73l3.24-.13h.84l-.15 2.26.19.06c.51-.54 1.06-1.03 1.65-1.48.39-.28.82-.51 1.27-.68.43-.17.9-.25 1.36-.24.45 0 .9.05 1.34.17a2.95 2.95 0 0 1 1.78 1.43c.21.4.35.84.43 1.28.1.63.15 1.26.14 1.9v5.21c0 .46.01.92.06 1.39.02.23.09.46.2.66.1.16.24.3.4.39.29.15.6.27.91.35l-.06.68Zm14.76-11.83-2.56-.1-.13.16c.31.33.54.73.68 1.16.17.51.25 1.04.25 1.57a4.38 4.38 0 0 1-1.39 3.48 5.77 5.77 0 0 1-3.93 1.23 5.8 5.8 0 0 1-1.98-.29c-.57.33-.96.92-1.05 1.57-.02.28.05.55.2.79.17.2.4.33.66.37.46.09.93.13 1.4.11h3.32c.81-.02 1.62.13 2.36.46.56.25 1.03.68 1.32 1.23.28.56.41 1.17.39 1.79.01.83-.25 1.65-.75 2.31a4.77 4.77 0 0 1-2.16 1.57 8.8 8.8 0 0 1-3.29.57c-.85 0-1.7-.05-2.55-.17a6.5 6.5 0 0 1-1.98-.56 3.15 3.15 0 0 1-1.27-1.04 2.76 2.76 0 0 1-.45-1.57c0-.58.21-1.13.58-1.57a5.12 5.12 0 0 1 1.64-1.25 2.27 2.27 0 0 1-1.02-.79 1.98 1.98 0 0 1-.37-1.2c0-.52.15-1.02.44-1.45.44-.58.97-1.09 1.57-1.5a3.83 3.83 0 0 1-1.52-1.57 4.82 4.82 0 0 1-.52-2.27c-.02-.71.12-1.42.39-2.07a4.12 4.12 0 0 1 2.74-2.32 8.25 8.25 0 0 1 4.04-.04h4.9v1.39Zm-9.27 12.09a4 4 0 0 0-1.06 1.11c-.23.41-.35.87-.35 1.34-.04.75.34 1.46.98 1.83.94.45 1.98.65 3.02.58.73.02 1.45-.1 2.14-.33a2.93 2.93 0 0 0 1.39-.99c.31-.42.48-.93.47-1.46 0-.25-.03-.5-.09-.75-.07-.25-.2-.47-.37-.66a1.76 1.76 0 0 0-.79-.46 4.08 4.08 0 0 0-1.3-.17h-2.06c-.76 0-1.37-.04-1.98-.04Zm-.35-9.24c-.06.94.19 1.88.71 2.67.48.63 1.24.99 2.03.94.42.01.83-.08 1.2-.27.32-.18.59-.43.79-.74.21-.33.37-.7.46-1.09.1-.42.14-.86.14-1.29.02-.7-.09-1.39-.35-2.04a2.36 2.36 0 0 0-2.31-1.57 2.36 2.36 0 0 0-2.01.87c-.49.73-.73 1.6-.67 2.48v.04Z"/><path d="M440.39 207.65c-.17 7.56-1.57 14.79-5.67 21.31-3.64 5.78-8.66 8.48-15.57 7.08-8.87-1.83-15.07-6.47-17.31-15.68a43.9 43.9 0 0 1 1.4-25.19c2.16-6.19 5.38-11.42 12.79-12.01 8.44-.68 15.81 1.3 20.61 8.96 3.01 4.7 3.88 10 3.75 15.52Zm-7.76-.69c.28-5.78-1.05-11.02-5.26-15.22-4.57-4.56-10.66-4.14-13.67 1.41-5.67 10.48-5.95 21.51-.85 32.27 3.38 7.08 11.02 7.03 14.95.24 3.38-5.78 4.58-12.13 4.82-18.69Zm-166.66-5.85V185.6c0-2.06.98-2.86 2.89-2.67 3.23.31 6.52.38 9.66 1.09 11.13 2.49 19.27 10.23 20.26 19.04 1.53 13.61-4.05 26.24-14.5 30.88-3.86 1.72-8.55 1.66-12.89 2.16-2.16.25-3.1-1.09-3.27-3.32-.85-10.55-1.82-21.09-2.75-31.65l.61-.02Zm5.82-10.42 3.01 40.39c2.92-1.2 5.04-1.73 6.76-2.86 6.67-4.38 10.1-10.77 10.83-18.65 1.11-11.96-7.47-20.32-20.6-18.89Zm87.28.96c-2.59-.45-5.41-.57-7.92-1.52-1.45-.54-2.42-2.41-3.6-3.68 1.51-.89 2.97-2.36 4.54-2.53 2.45-.23 4.98.47 7.57.79 1.57-1.81 1.8-5.76 5.36-4.5 1.57.55 2.57 2.7 3.82 4.12l-.79.98c3.33.2 6.67.3 9.99.63 2.23.21 5.13.28 4.79 3.52-.32 3.1-3.01 3.34-5.56 3.15-3.34-.28-6.69-.61-10.55-.97-.26 3.31-.62 6.38-.72 9.44-.32 9.86-.45 19.72-.87 29.58-.1 2.46.17 6.15-3.61 5.89-3.63-.24-3.46-3.68-3.4-6.49l.95-38.41Zm-41.21 21.21c.34-7.19.67-14.36 1.04-21.54 0-.83 0-1.94.54-2.4 1.16-1.1 2.53-2.36 3.98-2.59.65-.12 2.36 1.98 2.42 3.15.3 3.94-.06 7.92.1 11.87.42 9.56.98 19.13 1.51 28.69.13 2.46-.06 4.72-3.2 4.97-2.68.24-5.59-2.25-5.61-4.87-.06-5.75 0-11.51 0-17.27h-.78Zm131.79 14.93c2.86.07 4.44 1.27 4.54 3.94s-1.18 4.14-3.79 4.28c-2.75.15-4.38-1.25-4.44-4.03-.06-2.64 1.48-3.94 3.69-4.19Zm-53.31 4.32c-.35 2.44-1.66 3.89-4.27 3.87s-4.1-1.57-4.1-4.05c0-2.67 1.57-4.23 4.4-4.1 2.63.13 3.8 1.7 3.97 4.27Zm-57.6 3.92c-2.64-.17-4.15-1.53-4.14-4.08 0-2.74 1.57-4.23 4.36-4.1 2.61.11 3.93 1.62 3.89 4.19s-1.64 3.83-4.11 3.99Zm-33.36.07c-.74-1.02-2.57-2.46-2.79-4.12-.35-2.5 1.4-4.18 4.18-4.14 2.57 0 4.05 1.5 4.09 3.94.05 2.72-1.56 4.12-5.48 4.33Z" fill="#070707"/><path d="m325.92 271-1.08.28-1.01-1.08c-.58.35-1.22.62-1.88.79-.74.18-1.5.27-2.26.26a6.11 6.11 0 0 1-5.26-2.4c-1.18-1.57-1.77-3.95-1.77-7.13-.04-1.77.29-3.53.97-5.17a7.3 7.3 0 0 1 7.04-4.62c.83 0 1.66.05 2.48.14.89.12 1.77.29 2.64.5v3.81h-1.44a6.1 6.1 0 0 0-.89-1.94 2.9 2.9 0 0 0-1.22-1 4.66 4.66 0 0 0-1.81-.3 3.94 3.94 0 0 0-2.64.97 6.24 6.24 0 0 0-1.77 2.86 14.7 14.7 0 0 0-.63 4.56c-.03 1.56.15 3.12.54 4.64a6.16 6.16 0 0 0 1.57 2.9c.7.65 1.63 1 2.59.98.87.07 1.73-.18 2.42-.72.56-.58.85-1.38.79-2.19v-.83c.02-.6-.03-1.2-.13-1.79a1.68 1.68 0 0 0-.39-.79 2.59 2.59 0 0 0-1.09-.5v-.68h5.6v.68c-.27.08-.53.21-.75.39-.17.14-.3.32-.39.53-.09.25-.15.52-.18.79-.03.31-.05.75-.05 1.32v4.76Zm7.44-10.86.19.04c.42-.53.9-1.02 1.41-1.46a5.01 5.01 0 0 1 3.12-1.08c.49 0 .97.02 1.46.08v3.19h-1.57c-.16-.41-.4-.78-.71-1.09a1.45 1.45 0 0 0-1.02-.34c-.35 0-.69.11-.99.29a3.6 3.6 0 0 0-.94.84c-.27.31-.48.66-.63 1.04-.12.37-.18.76-.17 1.15v4.84c-.02.58.03 1.16.15 1.73.08.29.26.54.51.7.33.18.68.3 1.05.35v.68h-5.57v-.68c.26-.07.51-.17.75-.29.16-.08.3-.2.4-.35.13-.2.22-.44.24-.68.07-.47.1-.95.09-1.42v-7.45c0-.3-.07-.59-.19-.87a1.06 1.06 0 0 0-.51-.49 4.04 4.04 0 0 0-.96-.27v-.72l3.24-.14h.84l-.17 2.39Zm13.58 11.15a5.6 5.6 0 0 1-4.39-1.69c-1.02-1.13-1.52-2.8-1.52-5.01a8.57 8.57 0 0 1 .79-3.86 5.4 5.4 0 0 1 2.18-2.36 6.4 6.4 0 0 1 3.15-.79 5.66 5.66 0 0 1 4.48 1.72 7.22 7.22 0 0 1 1.53 4.94 8.9 8.9 0 0 1-.79 3.87 5.2 5.2 0 0 1-2.16 2.36c-1 .55-2.13.83-3.27.82Zm-3.3-7a8.76 8.76 0 0 0 .91 4.38c.49.98 1.5 1.59 2.6 1.57.56.02 1.11-.14 1.57-.46a3.3 3.3 0 0 0 1.06-1.2c.29-.55.48-1.15.59-1.76.12-.69.18-1.4.17-2.1.03-1.14-.12-2.28-.45-3.38a4.19 4.19 0 0 0-1.22-1.97 2.72 2.72 0 0 0-1.77-.63 2.84 2.84 0 0 0-2.57 1.45 8 8 0 0 0-.9 4.1Zm23.37 4.42a11.8 11.8 0 0 1-1.62 1.46 6.47 6.47 0 0 1-3.58 1.08 5.3 5.3 0 0 1-4.3-1.71c-.97-1.13-1.46-2.82-1.46-5.04-.03-1.25.23-2.5.74-3.64.45-1 1.18-1.84 2.11-2.43a6.4 6.4 0 0 1 5.51-.42c.62.27 1.16.68 1.57 1.21.42.58.73 1.24.91 1.94.24 1 .36 2.02.36 3.05h-8.69v.3c-.02.93.1 1.86.37 2.75.21.69.63 1.3 1.2 1.75.64.44 1.4.66 2.17.63a4.83 4.83 0 0 0 3.85-1.8l.84.88Zm-2.36-5.61c-.03-.82-.15-1.64-.37-2.44a3.13 3.13 0 0 0-.87-1.46 2.23 2.23 0 0 0-1.53-.5c-.9-.02-1.76.4-2.27 1.14-.63.97-.98 2.1-1 3.26h6.04Zm18.61 7.97h-5.45v-.68c.27-.07.53-.17.79-.29.16-.08.29-.2.39-.35.13-.21.22-.44.25-.68.07-.46.1-.93.09-1.4v-3.63c0-.65 0-1.23-.06-1.76a8.03 8.03 0 0 0-.19-1.29 2.83 2.83 0 0 0-.31-.79 2.27 2.27 0 0 0-.44-.49 1.96 1.96 0 0 0-.59-.31 2.58 2.58 0 0 0-.87-.12c-.35 0-.7.07-1.02.21-.39.19-.75.44-1.06.74-.34.29-.63.64-.85 1.04a2.5 2.5 0 0 0-.26 1.17v5.16c-.02.55.02 1.11.11 1.65.05.28.2.53.42.71.31.2.65.34 1.02.42v.68h-5.42v-.68c.27-.07.54-.17.79-.29.16-.08.29-.2.39-.35.13-.21.21-.44.24-.68.08-.47.11-.95.09-1.42v-7.45c0-.3-.07-.59-.19-.87a1.06 1.06 0 0 0-.51-.49 4.04 4.04 0 0 0-.96-.27v-.73l3.24-.13h.84l-.16 2.26.2.06a13.7 13.7 0 0 1 1.65-1.49c.4-.28.82-.51 1.27-.68.44-.16.9-.24 1.36-.24.45 0 .9.05 1.34.17.76.21 1.4.73 1.78 1.42.21.4.35.83.43 1.28.1.63.15 1.26.14 1.9v5.22c0 .46.01.92.06 1.39.02.23.09.46.2.66.1.16.24.3.4.39.29.15.59.27.91.34l-.06.68Zm6.02-3.46c-.02.55.02 1.11.11 1.65.06.28.21.53.42.71.31.2.65.34 1.02.42v.68h-5.51v-.68c.34-.07.67-.19.97-.37.17-.12.3-.28.39-.46.09-.23.15-.48.17-.73 0-.31.05-.72.05-1.21v-13.43c0-.3-.04-.6-.11-.89a1.39 1.39 0 0 0-.26-.58 1.18 1.18 0 0 0-.43-.34c-.32-.12-.64-.2-.98-.24v-.72l3.34-.13h.79l.05 16.35Zm10.02 3.68a5.6 5.6 0 0 1-4.39-1.69c-1.01-1.13-1.52-2.8-1.52-5.01a8.29 8.29 0 0 1 .79-3.86 5.27 5.27 0 0 1 2.17-2.36 6.4 6.4 0 0 1 3.15-.79 5.68 5.68 0 0 1 4.49 1.72 7.2 7.2 0 0 1 1.52 4.94 8.61 8.61 0 0 1-.79 3.87 5.1 5.1 0 0 1-2.16 2.36c-1 .55-2.12.83-3.26.82Zm-3.29-7a8.65 8.65 0 0 0 .91 4.38c.49.98 1.5 1.59 2.59 1.57.56.02 1.11-.14 1.57-.46.44-.31.81-.72 1.05-1.2a5.8 5.8 0 0 0 .59-1.76c.12-.69.18-1.4.18-2.1.03-1.14-.12-2.28-.45-3.38a4.13 4.13 0 0 0-1.23-1.97 2.72 2.72 0 0 0-1.77-.63 2.86 2.86 0 0 0-2.57 1.45 7.88 7.88 0 0 0-.88 4.1Z"/></svg>
