<svg xmlns="http://www.w3.org/2000/svg" fill="none" viewBox="0 0 960 560"><g clip-path="url(#a)"><path fill="#fff" d="M0 0h960v560H0z"/><path fill="url(#b)" d="M0 0h960v560H0V0Z"/><path stroke="#F8FAFC" stroke-miterlimit="10" stroke-width="2.667" d="M80 0H0v80M80 0v80m0-80h80M80 80H0m80 0h80m-80 0v80M0 80v80M160 0v80m0-80h80m-80 80h80m-80 0v80M240 0v80m0-80h80m-80 80h80m-80 0v80M320 0v80m0-80h80m-80 80h80m-80 0v80M400 0v80m0-80h80m-80 80h80m-80 0v80M480 0v80m0-80h80m-80 80h80m-80 0v80M560 0v80m0-80h80m-80 80h80m-80 0v80M640 0v80m0-80h80m-80 80h80m-80 0v80M720 0v80m0-80h80m-80 80h80m-80 0v80M800 0v80m0-80h80m-80 80h80m-80 0v80M880 0v80m0-80h80v80m-80 0h80m-80 0v80m80-80v80m-880 0H0m80 0h80m-80 0v80M0 160v80m160-80h80m-80 0v80m80-80h80m-80 0v80m80-80h80m-80 0v80m80-80h80m-80 0v80m80-80h80m-80 0v80m80-80h80m-80 0v80m80-80h80m-80 0v80m80-80h80m-80 0v80m80-80h80m-80 0v80m80-80h80m-80 0v80m80-80v80m-880 0H0m80 0h80m-80 0v80M0 240v80m160-80h80m-80 0v80m80-80h80m-80 0v80m80-80h80m-80 0v80m80-80h80m-80 0v80m80-80h80m-80 0v80m80-80h80m-80 0v80m80-80h80m-80 0v80m80-80h80m-80 0v80m80-80h80m-80 0v80m80-80h80m-80 0v80m80-80v80m-880 0H0m80 0h80m-80 0v80M0 320v80m160-80h80m-80 0v80m80-80h80m-80 0v80m80-80h80m-80 0v80m80-80h80m-80 0v80m80-80h80m-80 0v80m80-80h80m-80 0v80m80-80h80m-80 0v80m80-80h80m-80 0v80m80-80h80m-80 0v80m80-80h80m-80 0v80m80-80v80m-880 0H0m80 0h80m-80 0v80M0 400v80m160-80h80m-80 0v80m80-80h80m-80 0v80m80-80h80m-80 0v80m80-80h80m-80 0v80m80-80h80m-80 0v80m80-80h80m-80 0v80m80-80h80m-80 0v80m80-80h80m-80 0v80m80-80h80m-80 0v80m80-80h80m-80 0v80m80-80v80m-880 0H0m80 0h80m-80 0v80M0 480v80h80m80-80h80m-80 0v80m80-80h80m-80 0v80m80-80h80m-80 0v80m80-80h80m-80 0v80m80-80h80m-80 0v80m80-80h80m-80 0v80m80-80h80m-80 0v80m80-80h80m-80 0v80m80-80h80m-80 0v80m80-80h80m-80 0v80m80-80v80h-80m-800 0h80m0 0h80m0 0h80m0 0h80m0 0h80m0 0h80m0 0h80m0 0h80m0 0h80m0 0h80"/><path stroke="#F8FAFC" stroke-miterlimit="10" stroke-width="2.667" d="M916 540H44c-13.255 0-24-10.745-24-24V44c0-13.255 10.745-24 24-24h872c13.255 0 24 10.745 24 24v472c0 13.255-10.745 24-24 24Z"/><g clip-path="url(#c)"><path fill="#002C74" d="M256 257.5c1.4-.9 8.6-1.4 11-1.4 2.4 0 1.7.5 2 3l4.5 34.8a720.885 720.885 0 0 0 3.2 21.6c-1.7.5-8.5.9-10.5.9a2.604 2.604 0 0 1-2.8-2.5l-2.1-20.6-2.1-22.6c-2.4 7.9-7.7 23-13.8 41.1a4.1 4.1 0 0 1-3.7 3.2 33 33 0 0 1-6.4.8c-2-6.8-10.6-32.8-14.5-44.7-1.2 11.1-3.6 32.4-5.1 43.9a1.502 1.502 0 0 1-1.7 1.4c-3 0-7.5 0-9-.9 1.7-10 5.1-34.5 9-56.4l-.2-1.6a44.877 44.877 0 0 1 11.1-1.4c1.5 0 2.1.8 3.6 5.1l13.1 36.5a775.11 775.11 0 0 1 14.4-38.9v-1.3Zm65.8 51c0 4.7-2.4 8.5-8.6 8.5a7.897 7.897 0 0 1-7.8-5.2 17 17 0 0 1-11 5.2 11.706 11.706 0 0 1-8.483-3.531 11.693 11.693 0 0 1-3.317-8.569c0-9.6 11.9-12.3 19.2-13.6l3.5-.6v-1.8c0-4.5-3.2-7.1-7.5-7.1s-7.4 1.9-9.5 3c-2.1 1.1-4.5-3.9-4.3-5.7a35.405 35.405 0 0 1 17.7-6.5c7.6 0 15.7 4.9 15.7 16 0 3.9-.4 10.7-.4 17 0 1.2 1.1 2.6 3.9 2.6h.9v.3Zm-27.3-5.7a5.61 5.61 0 0 0 1.67 4.202 5.597 5.597 0 0 0 4.23 1.598 5.206 5.206 0 0 0 3.9-1.3c.5-.4.8-1.1.8-2.8v-8.4c-8.3 1.2-10.6 4.2-10.6 6.6v.1Zm32.6-24.3c0-2.5 3.1-5.9 7-5.9s6.8 4 7 9.7c2.6-6.4 6.6-9.7 11.8-9.7a7.906 7.906 0 0 1 3.7 1 3.003 3.003 0 0 1 1.3 2.7c0 3.5-3 7.9-4.3 8.8a10.295 10.295 0 0 0-5.8-1.5c-1.4 0-3.8.5-5.1 4.2a10.799 10.799 0 0 0-.8 4.6v20.7c0 1.5-.2 2.4-2.3 2.7a72.94 72.94 0 0 1-10.6.6c.2-5.6.3-11.5.3-17.2V283c0-2-.3-3.6-2.2-4.3v-.2Zm44.4-5.9c1.4 0 2.2 1 2.7 2.3 2.1 6.9 5.4 15.9 8.7 27.8 4.1-11.2 7.8-22 10.4-30.1 2.482.05 4.93.594 7.2 1.6 2.2 1 1.5 3.4.3 6.6-3.9 9.9-10.1 24.4-13.3 32.9-.6 1.4-1.5 1.9-3.1 2.3a43.432 43.432 0 0 1-8.2 1c-3.6-10.5-7.5-20.6-11-30.2-1.5-4-2.9-7.9-4.6-11.7a30.394 30.394 0 0 1 10.8-2.5h.1Zm68.6 33.7a12.005 12.005 0 0 1-4.9 9 22.883 22.883 0 0 1-8.5 1.7c-14.1 0-21.7-7.6-21.7-21.7 0-11.4 7.5-22.7 20.5-22.7s16.7 8.8 16.7 16.4a9.09 9.09 0 0 1-.5 3c-.3 1.5-3.4 2.7-7.4 3.7-2.3.7-12.3.7-16.8.5.5 8.9 6.8 11.9 12.7 11.9 3.33.041 6.632-.606 9.7-1.9l.2.1Zm-15.7-27.1c-3.3 0-6.7 3.2-6.8 10.4 3.996.25 8.004.25 12 0 .6 0 1-1.1 1-1.9 0-4.8-1.6-8.5-6.1-8.5h-.1Zm24.6-16.3a86.573 86.573 0 0 0-.4-9.9c1.8-.8 8.9-1.9 11.1-1.9 2.2 0 2 .5 2 6.2v46c0 4.6.2 9.8.4 12.5-2.1.5-10.4.8-11.7.8-1.3 0-1.4-.3-1.4-1.3v-52.4Zm49.7.2a65.442 65.442 0 0 0-.5-10.1 52.455 52.455 0 0 1 11.2-1.9c1.5 0 1.9.5 1.9 6.3v47.9c0 3.6.8 4.6 3.5 5.4v.2c-.4 2.3-3.2 6.1-5.9 6.1-5.6 0-8.1-2.4-8.9-5.1-3.1 2.3-7.8 5.1-11.5 5.1-11.3 0-18.6-8.3-18.6-20.6a23.303 23.303 0 0 1 14.819-22.218A23.302 23.302 0 0 1 494 272.6a13.29 13.29 0 0 1 4.7.6v-10.1Zm0 17.1a11.598 11.598 0 0 0-4.1-.7c-4.9 0-11.6 3.4-11.6 14.6 0 9.6 5.4 14 11 14a10.711 10.711 0 0 0 4.7-1v-26.9Z"/><path fill="#009DDF" d="M448.6 340c.1-1.5 2.2-3.8 4.6-3.8 2.4 0 4.4 2.9 4.6 7.2 2-4.8 5-7.2 8.5-7.2a5.705 5.705 0 0 1 2.7.7 2.492 2.492 0 0 1 .9 1.9 8.702 8.702 0 0 1-2.8 5.5 8.11 8.11 0 0 0-3.9-1c-1.2 0-3.1.7-4.3 3.6a7.79 7.79 0 0 0-.6 3.5v15.5c0 1.1-.1 1.7-1.5 2-1.4.3-4.4.3-6.8.3l.2-12.7v-11.8c0-1.8-.2-3-1.6-3.5v-.2Zm48.6 21.4a7.798 7.798 0 0 1-3.2 5.9 15.404 15.404 0 0 1-6.4 1.3c-10.1 0-15.5-5.6-15.5-15.7 0-8.5 5.4-16.7 14.8-16.7s11.8 6.3 11.9 11.8a6.213 6.213 0 0 1-.4 2.2c-.2 1.1-2.7 2-5.5 2.6-2.8.6-8.9.4-12.8.3.3 6.8 4.8 9.7 9.8 9.7 2.435 0 4.847-.475 7.1-1.4h.2ZM486 340.6c-2.8 0-5.5 2.6-5.8 8.1 3.363.202 6.736.202 10.1 0 .6 0 1-.7 1-1.4 0-3.8-1.5-6.7-5.2-6.7h-.1Zm43.4 20.9a8.106 8.106 0 0 1-2.3 5.4 15.2 15.2 0 0 1-7.6 1.7c-8.8 0-16.1-5-16.1-15.5s7.5-16.9 17.2-16.9c3.8 0 7 1 8.9 2.7.2.8-.4 3.4-2 4a17.203 17.203 0 0 0-6.4-1.4c-5.1 0-9.4 3.4-9.4 10.4s5.5 10.9 10.3 10.9c2.473.06 4.929-.418 7.2-1.4l.2.1Zm5.3-21.5c.1-1.5 2.3-3.8 4.6-3.8s4.4 2.9 4.6 7.2c2-4.8 5-7.2 8.5-7.2a5.705 5.705 0 0 1 2.7.7 2.492 2.492 0 0 1 .9 1.9 8.702 8.702 0 0 1-2.8 5.5 7.604 7.604 0 0 0-3.9-1c-1.2 0-3.1.7-4.2 3.6a7.788 7.788 0 0 0-.7 3.5v15.5c0 1.1-.1 1.7-1.5 2-1.4.3-4.4.3-6.8.3.2-3.5.2-7.8.2-12.7v-11.8c0-1.8-.2-3-1.6-3.5v-.2Zm48.6 21.4a8.013 8.013 0 0 1-3.1 5.9 16.2 16.2 0 0 1-6.4 1.3c-10.2 0-15.6-5.6-15.6-15.7 0-8.5 5.4-16.7 14.8-16.7s11.9 6.3 11.9 11.8a10.67 10.67 0 0 1-.3 2.2c-.2 1.1-2.8 2-5.5 2.6-2.7.6-9 .4-12.9.3.3 6.8 4.8 9.7 9.8 9.7a19.294 19.294 0 0 0 7.2-1.4h.1Zm-11.2-20.8c-2.7 0-5.5 2.6-5.7 8.1 3.363.202 6.736.202 10.1 0 .5 0 .9-.7.9-1.4.1-3.8-1.5-6.7-5.2-6.7h-.1Zm44.4 22.5c0 3.2-1.8 5.5-5.7 5.5a5.497 5.497 0 0 1-5.4-3.9 12.101 12.101 0 0 1-8.3 3.9 8.19 8.19 0 0 1-6.038-2.434 8.194 8.194 0 0 1-2.362-6.066c0-7.2 9.2-9.1 14-10 1.3-.2 2.1-.5 2.7-.5v-1.8a5.3 5.3 0 0 0-5.7-5.6c-2.8 0-5.4 1.4-7.2 2.4-1.8 1-3-2.4-2.8-3.6 3.2-2.3 8.1-4.8 12.4-4.8 6 0 11.1 4 11.1 11.6 0 3-.3 8.5-.3 13.1 0 1 .8 2.1 2.7 2.1h.9v.1Zm-20.1-4.3a4.296 4.296 0 0 0 2.769 4.124c.552.21 1.141.304 1.731.276a4.596 4.596 0 0 0 3.8-1.7c.4-.3.6-.8.6-2.1v-6.2c-5.9.9-8.9 3.1-8.9 5.5v.1Zm44.6 3.1c.3 1.6.1 3.5-1 4.4-1.1.9-4.6 2.3-7.5 2.3-7 0-9.3-4.5-9.3-9.2v-17.2c-2.3 0-3.8-1.1-3.8-1.7.9-2.2 6.4-7.1 7.6-8.2a9.001 9.001 0 0 1 4.9-2c-.2 2.2-.4 4.9-.4 6.8h10.3c-.8 4.7-2.3 4.7-3.7 4.7l-6.8.4c-.2 5.8-.2 13.1 0 16 .2 2.9 2.4 4.8 4.8 4.8a10.8 10.8 0 0 0 4.8-1.2l.1.1Zm14.3 4.2c0 1.3-.4 1.6-1.9 1.8a51.439 51.439 0 0 1-6.4.3c.1-2.9.3-6.9.3-10.9v-11.9c0-4.3-.2-6.4-.3-7.9a35.096 35.096 0 0 1 7.1-.8c1 0 1.2.3 1.2 4.4v25Zm-3.6-44c2.5 0 3.9 1.9 3.9 4.4a4.4 4.4 0 0 1-4.4 4.6 4.012 4.012 0 0 1-1.693-.274 4.008 4.008 0 0 1-2.312-2.423A4.002 4.002 0 0 1 647 326.7a4.496 4.496 0 0 1 2.823-4.278 4.501 4.501 0 0 1 1.777-.322h.1Zm35.8 39.3a8.106 8.106 0 0 1-3.2 5.9 16.2 16.2 0 0 1-6.4 1.3c-10.1 0-15.6-5.6-15.6-15.7 0-8.5 5.5-16.7 14.8-16.7s11.9 6.3 12 11.8a6.213 6.213 0 0 1-.4 2.2c-.2 1.1-2.8 2-5.5 2.6-2.7.6-8.9.4-12.8.3.2 6.8 4.8 9.7 9.7 9.7a19.294 19.294 0 0 0 7.2-1.4h.2Zm-11.2-20.8c-2.8 0-5.5 2.6-5.8 8.1 3.363.202 6.736.202 10.1 0 .6 0 .9-.7.9-1.4.1-3.8-1.4-6.7-5.1-6.7h-.1Z"/><path fill="#FFD000" d="M640 202c-1.3-7.7-7.9-12.5-14.7-10.6-6.8 1.9-10 9.4-7.1 16.7l14.8 37.5c2.9 7.3 7.7 12.6 10.7 11.8 3-.8 4.4-7.9 3.1-15.6L640 202Zm59 29.1c4.3-4.6 4.1-11.2-.4-14.6-4.5-3.4-10.8-1.8-14 3.6l-16.8 27.5c-3.2 5.4-4.3 11-2.3 12.5s7.1-1 11.4-5.6l22.1-23.4Zm-99.4 14.2c-4-3-9.2-2.3-11.6 1.6-2.4 3.9-.4 8.8 4.1 10.9l23.5 10.9c4.6 2.1 9.2 2.4 10.2.7s-1.4-5.6-5.5-8.6l-20.7-15.5Z"/><path fill="#C8D20A" d="M537.4 268.4A36.198 36.198 0 0 0 551 308c20.1 13.9 50.4 9.8 70.7-.3 5.4-2.6 6.7-5.3 4.8-6.3-1.9-1-4.1 0-11.3 2.6-15 5.5-34.6 5.9-48.2-4.6a31.999 31.999 0 0 1-10.5-33.9c1.5-5.8-17.6-2.8-19.1 2.9Zm208.7 82.2a35.498 35.498 0 0 0 3.5-40.6c-11.7-19-41-21.9-57.7-20.9-7.2.5-11.9 1.5-12.4 3.1s2.9 3 5.2 3.1c16.9.5 37.6 5.2 46.9 21 6.4 11 4.9 24.8-2.8 34.8-2.7 3.4 2.3 4.4 4.8 4.4 4-.1 9.9-1.5 12.5-4.9Z"/><path fill="#F29500" d="M669.4 287.2a18.495 18.495 0 0 1-11.351 17.163 18.498 18.498 0 0 1-25.286-13.417A18.5 18.5 0 1 1 669.4 287.2Z"/></g></g><defs><clipPath id="a"><path fill="#fff" d="M0 0h960v560H0z"/></clipPath><clipPath id="c"><path fill="#fff" d="M205 191h549.4v177.7H205z"/></clipPath><linearGradient id="b" x1="480" x2="480" y1="560" y2="0" gradientUnits="userSpaceOnUse"><stop stop-color="#F8FAFC"/><stop offset=".125" stop-color="#F8FAFC"/><stop offset=".25" stop-color="#F9FBFD"/><stop offset=".375" stop-color="#FAFCFD"/><stop offset=".5" stop-color="#FBFCFD"/><stop offset=".625" stop-color="#FCFDFE"/><stop offset=".75" stop-color="#FDFDFE"/><stop offset=".875" stop-color="#FEFEFE"/><stop offset="1" stop-color="#fff"/></linearGradient></defs></svg>
