<svg xmlns="http://www.w3.org/2000/svg" viewBox="0 0 720 420"><defs><linearGradient id="b" x1="360" y1="420" x2="360" gradientUnits="userSpaceOnUse"><stop offset="0" stop-color="#0c5e59"/><stop offset="1" stop-color="#0f6a64"/></linearGradient><clipPath id="a"><path fill="none" d="M0 0h720v420H0z"/></clipPath></defs><g clip-path="url(#a)"><path fill="url(#b)" d="M0 0h720v420H0z"/><path fill="none" stroke="#0c5e59" stroke-miterlimit="10" stroke-width="2" d="M0 0h60v60H0zm60 0h60v60H60zm60 0h60v60h-60zm60 0h60v60h-60zm60 0h60v60h-60zm60 0h60v60h-60zm60 0h60v60h-60zm60 0h60v60h-60zm60 0h60v60h-60zm60 0h60v60h-60zm60 0h60v60h-60zm60 0h60v60h-60zM0 60h60v60H0zm60 0h60v60H60zm60 0h60v60h-60zm60 0h60v60h-60zm60 0h60v60h-60zm60 0h60v60h-60zm60 0h60v60h-60zm60 0h60v60h-60zm60 0h60v60h-60zm60 0h60v60h-60zm60 0h60v60h-60zm60 0h60v60h-60zM0 120h60v60H0zm60 0h60v60H60zm60 0h60v60h-60zm60 0h60v60h-60zm60 0h60v60h-60zm60 0h60v60h-60zm60 0h60v60h-60zm60 0h60v60h-60zm60 0h60v60h-60zm60 0h60v60h-60zm60 0h60v60h-60zm60 0h60v60h-60zM0 180h60v60H0zm60 0h60v60H60zm60 0h60v60h-60zm60 0h60v60h-60zm60 0h60v60h-60zm60 0h60v60h-60zm60 0h60v60h-60zm60 0h60v60h-60zm60 0h60v60h-60zm60 0h60v60h-60zm60 0h60v60h-60zm60 0h60v60h-60zM0 240h60v60H0zm60 0h60v60H60zm60 0h60v60h-60zm60 0h60v60h-60zm60 0h60v60h-60zm60 0h60v60h-60zm60 0h60v60h-60zm60 0h60v60h-60zm60 0h60v60h-60zm60 0h60v60h-60zm60 0h60v60h-60zm60 0h60v60h-60zM0 300h60v60H0zm60 0h60v60H60zm60 0h60v60h-60zm60 0h60v60h-60zm60 0h60v60h-60zm60 0h60v60h-60zm60 0h60v60h-60zm60 0h60v60h-60zm60 0h60v60h-60zm60 0h60v60h-60zm60 0h60v60h-60zm60 0h60v60h-60zM0 360h60v60H0zm60 0h60v60H60zm60 0h60v60h-60zm60 0h60v60h-60zm60 0h60v60h-60zm60 0h60v60h-60zm60 0h60v60h-60zm60 0h60v60h-60zm60 0h60v60h-60zm60 0h60v60h-60zm60 0h60v60h-60zm60 0h60v60h-60z"/><rect x="15" y="15" width="690" height="390" rx="18" fill="none" stroke="#0c5e59" stroke-miterlimit="10" stroke-width="2"/></g><g clip-path="url(#a)"><path d="M532.39 329.69c0 11.18-9 19.94-19.16 19.94h-19.17l.42 99.43a46.07 46.07 0 0 1-.3 5v10.07c0 13.72-10.72 24.84-24 24.84h-9.58c-.66 0-1.32-.56-2-.06-.84-.5-1.68.06-2.52.06H422.3c-13.24 0-24-11.12-24-24.84V409.5c0-11-8.56-19.87-19.17-19.87h-38.29c-10.6 0-19.17 8.88-19.17 19.87v54.66c0 13.72-10.72 24.84-24 24.84h-33.44c-.9 0-1.8-.06-2.7-.12-.71.06-1.43.12-2.15.12h-9.59c-13.23 0-24-11.12-24-24.84v-69.57c0-.56 0-1.18.06-1.74v-43.22H206.7c-10.8 0-19.2-8.76-19.2-19.94a20.56 20.56 0 0 1 6-14.91L347.07 176c4.19-4.36 9-5 13.18-5a19.66 19.66 0 0 1 12.64 4.36l152.92 139.42c4.79 4.35 7.24 9.32 6.58 14.91Z" fill="#0a534f"/></g><path d="M332.33 182.36c0-2.86-2.33-5.89-4.55-7.17-14.53-8.37-29.34-16.8-43.66-25l-26-14.84a9 9 0 0 0-9.6 0A11397.4 11397.4 0 0 1 176 176.07a8.87 8.87 0 0 0-5 8.54c.08 27.77.07 56 .07 83.32v24.67a3.45 3.45 0 0 0 3.5 3.4h4.37a3.45 3.45 0 0 0 3.5-3.4v-24.9c0-26.45 0-53.81-.07-80.71 0-1.49.21-1.74 1.31-2.35 22.95-12.78 46-25.71 68.41-38.42a1.73 1.73 0 0 1 2.36 0 9789.14 9789.14 0 0 0 65.07 37c1.36.76 1.56 1.1 1.56 2.58-.08 18.93-.08 38.2-.08 56.82v10.67c0 1.12.08 2.17.16 3.28 0 .5.08 1 .11 1.53a3.36 3.36 0 0 0 1.21 2.37 3.54 3.54 0 0 0 2.29.83h.31l3.92-.3a3.46 3.46 0 0 0 3.17-3q0-.36.09-.63a9.18 9.18 0 0 0 .14-1.47v-11.34c.06-20.38.08-41.46-.07-62.2Z" fill="#fff"/><path d="M214.23 212.64h-15v12.5h14.3l.39-5.23h6.76v12h-35v-5.26l4.71-.9v-31.4l-4.71-.9v-5.29h35v12h-6.88l-.39-5.23h-14.18v11h15Zm12.07 13.97 4.26-.9v-20.16l-4.71-.9v-5.29h13l.39 4.75a10.23 10.23 0 0 1 3-3.94 6.74 6.74 0 0 1 4.23-1.41 10.85 10.85 0 0 1 1.47.11 9.42 9.42 0 0 1 1.3.25l-1 8-3.65-.09a6.29 6.29 0 0 0-3.22.75 4.94 4.94 0 0 0-1.95 2.14v15.8l4.26.9v5.26H226.3Zm40.06-21.96-3.1.57 4.35 14.54.58 3.07h.18l.64-3.07 4.29-14.51-3.17-.6v-5.29h14.94v5.29l-2.86.45-9.7 26.77H264l-9.73-26.77-2.86-.45v-5.29h14.93Zm36.9 27.85q-7.12 0-11.38-4.51a16 16 0 0 1-4.26-11.44v-1.2a17.67 17.67 0 0 1 4-11.93 13.46 13.46 0 0 1 10.82-4.66q6.66 0 10.34 4t3.68 10.72v4.78h-19.62l-.06.18a8.46 8.46 0 0 0 2.22 5.26 6.84 6.84 0 0 0 5.25 2.07 17.35 17.35 0 0 0 4.9-.58 23.31 23.31 0 0 0 4.26-1.85l2.4 5.41a17.6 17.6 0 0 1-5.28 2.67 22.71 22.71 0 0 1-7.27 1.08Zm-.79-27a4.67 4.67 0 0 0-3.9 1.86 9.67 9.67 0 0 0-1.76 4.9l.09.15h10.89v-.78a7 7 0 0 0-1.32-4.46 4.81 4.81 0 0 0-4-1.65ZM381 188.12v5.29l-4.75.9v37.56h-8.85l-17.89-29.44h-.18v23.25l4.75.9v5.26h-18.34v-5.26l4.72-.9v-31.4l-4.72-.9v-5.29h13.6l17.89 29.45h.18v-23.23l-4.75-.9v-5.29H381Zm2.8 38.49 4.29-.9v-20.16l-4.74-.9v-5.29H397v26.35l4.26.9v5.26H383.8Zm13.17-35h-8.88V185H397Zm20.23 41.46q0 5.72-3.07 8.82t-8.52 3.11a19.41 19.41 0 0 1-2.26-.12 17.35 17.35 0 0 1-2.12-.39l.43-6.7a10.06 10.06 0 0 0 1.37.27 11.84 11.84 0 0 0 1.52.09 3.36 3.36 0 0 0 2.78-1.25 6.11 6.11 0 0 0 1-3.83v-27.52l-4.74-.9v-5.29h13.61Zm-.2-41.55h-8.88V185H417Zm4.89 35.09 4.29-.9v-34.52l-4.75-.9V185H435v18.51a11.12 11.12 0 0 1 3.8-3.5 11.09 11.09 0 0 1 13.09 2.13q2.94 3.38 2.94 10.44v13.13l4.26.9v5.26h-17v-5.26l3.84-.9v-13.19q0-3.78-1.36-5.36a5 5 0 0 0-4-1.58 7.5 7.5 0 0 0-3.24.66 6.46 6.46 0 0 0-2.33 1.86v17.61l3.83.9v5.26h-17Zm63.11 1.14a10.86 10.86 0 0 1-3.91 3.52 11.17 11.17 0 0 1-5.3 1.23 10.42 10.42 0 0 1-8.16-3.29q-2.94-3.28-2.95-10.23v-13.43l-3.62-.9v-5.29h12.51V219q0 3.54 1.2 5.09a4.22 4.22 0 0 0 3.57 1.55A9 9 0 0 0 482 225a6.46 6.46 0 0 0 2.51-1.94v-17.51l-3.9-.9v-5.29h12.78v26.35l4 .9v5.26h-11.81Zm15.58-1.14 4.28-.9v-20.16l-4.74-.9v-5.29h13.63v26.35l4.25.9v5.26h-17.42Zm13.17-35h-8.89V185h8.89Zm34.03 18.93h-6l-.94-4.06a7.89 7.89 0 0 0-2.3-1.2 9.25 9.25 0 0 0-3.05-.48 6 6 0 0 0-3.72 1 3.13 3.13 0 0 0-1.36 2.6 2.93 2.93 0 0 0 1.3 2.44 14.19 14.19 0 0 0 5.24 1.73q6.1 1.2 9.06 3.53a7.71 7.71 0 0 1 3 6.42 8.49 8.49 0 0 1-3.82 7.16q-3.81 2.78-10 2.78a21 21 0 0 1-7-1.1 17.67 17.67 0 0 1-5.64-3.14l-.09-7.3h6.2l1.22 4.24a5 5 0 0 0 2.16 1 12.66 12.66 0 0 0 2.86.31 7.36 7.36 0 0 0 4.12-1 3 3 0 0 0 1.41-2.61 3 3 0 0 0-1.43-2.5 14.64 14.64 0 0 0-5.26-1.86q-5.81-1.17-8.78-3.47a7.51 7.51 0 0 1-3-6.26 9 9 0 0 1 3.41-7.05q3.4-3 9.7-3a25.26 25.26 0 0 1 7.25 1 15.28 15.28 0 0 1 5.37 2.62Z" fill="#fff"/></svg>
