<svg xmlns="http://www.w3.org/2000/svg" xmlns:xlink="http://www.w3.org/1999/xlink" viewBox="0 0 720 420">
    <defs>
        <linearGradient id="c" x1="361" y1="421" x2="361" y2="1" gradientTransform="matrix(1, 0, 0, 1, 0, 0)" gradientUnits="userSpaceOnUse">
            <stop offset="0" stop-color="#f8fafc"/>
            <stop offset="1" stop-color="#fff"/>
        </linearGradient>
        <linearGradient id="a" x1="359.15" y1="203.86" x2="359.15" y2="185.36" gradientTransform="matrix(1, 0, 0, 1, 0, 0)" gradientUnits="userSpaceOnUse">
            <stop offset="0" stop-color="#0055ce"/>
            <stop offset="1" stop-color="#3081f5"/>
        </linearGradient>
        <linearGradient id="e" x1="359.84" y1="234.65" x2="359.84" y2="214.87" xlink:href="#a"/>
        <linearGradient id="f" x1="360" y1="287.96" x2="360" y2="132.05" xlink:href="#a"/>
        <linearGradient id="g" x1="341.92" y1="136.37" x2="341.92" y2="123" xlink:href="#a"/>
        <linearGradient id="h" x1="279.68" y1="260.61" x2="279.68" y2="195.55" xlink:href="#a"/>
        <linearGradient id="i" x1="378.08" y1="297" x2="378.08" y2="283.65" xlink:href="#a"/>
        <linearGradient id="j" x1="440.32" y1="224.45" x2="440.32" y2="159.38" xlink:href="#a"/>
        <clipPath id="b">
            <path fill="none" d="M1 1h720v420H1z"/>
        </clipPath>
        <symbol id="d" viewBox="0 0 722 422">
            <g clip-path="url(#b)">
                <path fill="url(#c)" d="M1 1h720v420H1z"/>
                <path fill="none" stroke="#f8fafc" stroke-miterlimit="10" stroke-width="2" d="M1 1h60v60H1zm60 0h60v60H61zm60 0h60v60h-60zm60 0h60v60h-60zm60 0h60v60h-60zm60 0h60v60h-60zm60 0h60v60h-60zm60 0h60v60h-60zm60 0h60v60h-60zm60 0h60v60h-60zm60 0h60v60h-60zm60 0h60v60h-60zM1 61h60v60H1zm60 0h60v60H61zm60 0h60v60h-60zm60 0h60v60h-60zm60 0h60v60h-60zm60 0h60v60h-60zm60 0h60v60h-60zm60 0h60v60h-60zm60 0h60v60h-60zm60 0h60v60h-60zm60 0h60v60h-60zm60 0h60v60h-60zM1 121h60v60H1zm60 0h60v60H61zm60 0h60v60h-60zm60 0h60v60h-60zm60 0h60v60h-60zm60 0h60v60h-60zm60 0h60v60h-60zm60 0h60v60h-60zm60 0h60v60h-60zm60 0h60v60h-60zm60 0h60v60h-60zm60 0h60v60h-60zM1 181h60v60H1zm60 0h60v60H61zm60 0h60v60h-60zm60 0h60v60h-60zm60 0h60v60h-60zm60 0h60v60h-60zm60 0h60v60h-60zm60 0h60v60h-60zm60 0h60v60h-60zm60 0h60v60h-60zm60 0h60v60h-60zm60 0h60v60h-60zM1 241h60v60H1zm60 0h60v60H61zm60 0h60v60h-60zm60 0h60v60h-60zm60 0h60v60h-60zm60 0h60v60h-60zm60 0h60v60h-60zm60 0h60v60h-60zm60 0h60v60h-60zm60 0h60v60h-60zm60 0h60v60h-60zm60 0h60v60h-60zM1 301h60v60H1zm60 0h60v60H61zm60 0h60v60h-60zm60 0h60v60h-60zm60 0h60v60h-60zm60 0h60v60h-60zm60 0h60v60h-60zm60 0h60v60h-60zm60 0h60v60h-60zm60 0h60v60h-60zm60 0h60v60h-60zm60 0h60v60h-60zM1 361h60v60H1zm60 0h60v60H61zm60 0h60v60h-60zm60 0h60v60h-60zm60 0h60v60h-60zm60 0h60v60h-60zm60 0h60v60h-60zm60 0h60v60h-60zm60 0h60v60h-60zm60 0h60v60h-60zm60 0h60v60h-60zm60 0h60v60h-60z"/>
                <rect x="16" y="16" width="690" height="390" rx="18" ry="18" fill="none" stroke="#f8fafc" stroke-miterlimit="10" stroke-width="2"/>
            </g>
        </symbol>
    </defs>
    <use width="722" height="422" transform="translate(-1 -1)" xlink:href="#d"/>
    <path d="M374.17 194.67c0-5.35-3.64-9.31-10.05-9.31h-19.99v18.5h19.99c6.41 0 10.05-3.85 10.05-9.19Z" fill="url(#a)"/>
    <path d="M364.65 214.87h-20.52v19.78h20.52c6.84 0 10.91-3.74 10.91-9.95 0-5.35-3.74-9.83-10.91-9.83Z" fill="url(#e)"/>
    <path d="M390.96 132.05h-61.92a47 47 0 0 0-46.99 46.99v61.92a47 47 0 0 0 46.99 46.99h61.92a47 47 0 0 0 46.99-46.99v-61.92a47 47 0 0 0-46.99-46.99ZM367.6 245.71h-35.99v-71.34h35.07c13.04 0 20.31 8.12 20.31 18.17 0 8.98-5.78 14.97-12.4 16.33 7.59 1.19 13.79 8.78 13.79 17.54 0 11.02-7.42 19.3-20.79 19.3Z" fill="url(#f)"/>
    <g opacity=".5" fill-opacity=".85">
        <path d="M329.04 132.05h45.42l-15.42-5.92a46.98 46.98 0 0 0-49.65 10.23 46.8 46.8 0 0 1 19.66-4.31Z" fill="url(#g)"/>
        <path d="M282.05 240.96v-45.41l-5.92 15.41a46.98 46.98 0 0 0 10.22 49.64 46.75 46.75 0 0 1-4.31-19.65Z" fill="url(#h)"/>
        <path d="M390.96 287.96h-45.39l15.4 5.91a47 47 0 0 0 49.64-10.22 46.75 46.75 0 0 1-19.65 4.31Z" fill="url(#i)"/>
        <path d="M433.64 159.38a46.8 46.8 0 0 1 4.31 19.66v45.4l5.92-15.41a46.98 46.98 0 0 0-10.23-49.65Z" fill="url(#j)"/>
    </g>
</svg>
