<svg xmlns="http://www.w3.org/2000/svg" viewBox="0 0 720 420"><defs><linearGradient id="b" x1="360" y1="420" x2="360" gradientUnits="userSpaceOnUse"><stop offset="0" stop-color="#2c4134"/><stop offset="1" stop-color="#344b3e"/></linearGradient><clipPath id="a"><path fill="none" d="M0 0h720v420H0z"/></clipPath></defs><g clip-path="url(#a)"><path fill="url(#b)" d="M0 0h720v420H0z"/><path fill="none" stroke="#2c4134" stroke-miterlimit="10" stroke-width="2" d="M0 0h60v60H0zm60 0h60v60H60zm60 0h60v60h-60zm60 0h60v60h-60zm60 0h60v60h-60zm60 0h60v60h-60zm60 0h60v60h-60zm60 0h60v60h-60zm60 0h60v60h-60zm60 0h60v60h-60zm60 0h60v60h-60zm60 0h60v60h-60zM0 60h60v60H0zm60 0h60v60H60zm60 0h60v60h-60zm60 0h60v60h-60zm60 0h60v60h-60zm60 0h60v60h-60zm60 0h60v60h-60zm60 0h60v60h-60zm60 0h60v60h-60zm60 0h60v60h-60zm60 0h60v60h-60zm60 0h60v60h-60zM0 120h60v60H0zm60 0h60v60H60zm60 0h60v60h-60zm60 0h60v60h-60zm60 0h60v60h-60zm60 0h60v60h-60zm60 0h60v60h-60zm60 0h60v60h-60zm60 0h60v60h-60zm60 0h60v60h-60zm60 0h60v60h-60zm60 0h60v60h-60zM0 180h60v60H0zm60 0h60v60H60zm60 0h60v60h-60zm60 0h60v60h-60zm60 0h60v60h-60zm60 0h60v60h-60zm60 0h60v60h-60zm60 0h60v60h-60zm60 0h60v60h-60zm60 0h60v60h-60zm60 0h60v60h-60zm60 0h60v60h-60zM0 240h60v60H0zm60 0h60v60H60zm60 0h60v60h-60zm60 0h60v60h-60zm60 0h60v60h-60zm60 0h60v60h-60zm60 0h60v60h-60zm60 0h60v60h-60zm60 0h60v60h-60zm60 0h60v60h-60zm60 0h60v60h-60zm60 0h60v60h-60zM0 300h60v60H0zm60 0h60v60H60zm60 0h60v60h-60zm60 0h60v60h-60zm60 0h60v60h-60zm60 0h60v60h-60zm60 0h60v60h-60zm60 0h60v60h-60zm60 0h60v60h-60zm60 0h60v60h-60zm60 0h60v60h-60zm60 0h60v60h-60zM0 360h60v60H0zm60 0h60v60H60zm60 0h60v60h-60zm60 0h60v60h-60zm60 0h60v60h-60zm60 0h60v60h-60zm60 0h60v60h-60zm60 0h60v60h-60zm60 0h60v60h-60zm60 0h60v60h-60zm60 0h60v60h-60zm60 0h60v60h-60z"/><rect x="15" y="15" width="690" height="390" rx="18" fill="none" stroke="#2c4134" stroke-miterlimit="10" stroke-width="2"/></g><path d="M564 255.09a1.46 1.46 0 0 0-.3.07 18.65 18.65 0 0 1-9.12 1.82 11.55 11.55 0 0 1-10.47-6.74 17.16 17.16 0 0 1-1.67-8.64 15.77 15.77 0 0 1 1.31-6c2-4.28 5.18-7 9.92-7.68a16.82 16.82 0 0 1 8.68.94 6.44 6.44 0 0 1 .65.3c.14.07.27.16.49.29l-1.27 2.95c-.42-.12-.8-.22-1.17-.34a13.47 13.47 0 0 0-5.56-.76 8.62 8.62 0 0 0-8 6.08 15 15 0 0 0 .38 11.18 7.66 7.66 0 0 0 4.75 4.42 10.69 10.69 0 0 0 4.8.34c.86-.1 1.71-.33 2.56-.51v-8h-6a25.45 25.45 0 0 1 .3-3 71.75 71.75 0 0 1 9.52 0c0 .29.06.6.06.9v11.77a2.56 2.56 0 0 0 .15.59ZM374.62 205v-41c.24 0 .47-.07.7-.07h15a22.41 22.41 0 0 1 6.14.85 14.89 14.89 0 0 1 8.74 6.62 21.42 21.42 0 0 1 3.1 9 30.62 30.62 0 0 1-.43 10.28 18.89 18.89 0 0 1-4.56 9 16.35 16.35 0 0 1-9.41 5 27 27 0 0 1-4.76.36h-14.5Zm7.91-34.1v26.59c0 .73 0 .79.76.78 2.34 0 4.68 0 7-.07a9.45 9.45 0 0 0 9.15-7.27 25.56 25.56 0 0 0 .74-8.44 17.34 17.34 0 0 0-1.22-5.81 9.29 9.29 0 0 0-3-4.07 8.72 8.72 0 0 0-5.12-1.73c-2.53-.06-5.05 0-7.58-.06a7.39 7.39 0 0 0-.73.05Zm89.78 34.95a28.59 28.59 0 0 1-5.68-.73 15.07 15.07 0 0 1-9.19-6.51 23.44 23.44 0 0 1-3.78-10.93 29.11 29.11 0 0 1 1-11.33 20 20 0 0 1 4.08-7.48A16.67 16.67 0 0 1 469 163.3a22.76 22.76 0 0 1 9.4.43 14.93 14.93 0 0 1 9 6.47 23.48 23.48 0 0 1 3.69 10.06 29.58 29.58 0 0 1-.86 12.2 19.56 19.56 0 0 1-5.42 8.94 16.19 16.19 0 0 1-9.05 4.14c-1.11.16-2.28.21-3.45.31ZM483 184.47v-1.67a19 19 0 0 0-1.77-7.6 8.92 8.92 0 0 0-4.23-4.48 10.24 10.24 0 0 0-4.25-.9 9 9 0 0 0-6 2 12.74 12.74 0 0 0-4.26 6.92 25.12 25.12 0 0 0-.57 8.68 18 18 0 0 0 1.73 6.41 8.54 8.54 0 0 0 5.1 4.73 11.82 11.82 0 0 0 2.57.51 10 10 0 0 0 5.86-1.12 10.17 10.17 0 0 0 4.84-6.06 22.4 22.4 0 0 0 .98-7.42Zm-161.84-20.36a55.74 55.74 0 0 1 8.07 0v25a17.33 17.33 0 0 0 .45 4.18 7.59 7.59 0 0 0 6.54 5.7 10.27 10.27 0 0 0 4.58-.24 7.61 7.61 0 0 0 5.7-6.73 22.79 22.79 0 0 0 .19-3.09v-24.72a48.48 48.48 0 0 1 8-.08v25.73a15.54 15.54 0 0 1-1.84 7.8 14.64 14.64 0 0 1-8.66 7.09 21.07 21.07 0 0 1-12.48.09 14.74 14.74 0 0 1-10.51-12.72 21 21 0 0 1-.13-2.38V165Zm-88.23 31.66.91.4a28.62 28.62 0 0 0 6.54 2.2 15.39 15.39 0 0 0 6.41-.09 5.78 5.78 0 0 0 2.16-1 3.51 3.51 0 0 0 .72-5 7.14 7.14 0 0 0-1.71-1.53c-1.58-1-3.18-1.94-4.82-2.8a66.52 66.52 0 0 1-8.4-5.18c-3.51-2.56-4.74-6.07-4.2-10.25.48-3.67 2.67-6.15 5.85-7.83a16.23 16.23 0 0 1 6-1.59c4.83-.49 9.25.85 13.55 2.85a2.76 2.76 0 0 1 .32.21l-2.62 6.35-1.47-.64a20.49 20.49 0 0 0-4.57-1.6 11.74 11.74 0 0 0-5.68.11c-.35.11-.69.27-1 .4a3.53 3.53 0 0 0-1.46 5.45 6 6 0 0 0 1.74 1.6c1.85 1.14 3.74 2.21 5.66 3.25a80.4 80.4 0 0 1 7.67 4.84 10.46 10.46 0 0 1 0 16.82 15.12 15.12 0 0 1-6.43 2.62 21.65 21.65 0 0 1-5.08.34 20.94 20.94 0 0 1-3.78-.5c-1.83-.43-3.62-1-5.42-1.56a8.77 8.77 0 0 1-1.59-.73c-1.11-.58-1.11-.6-.78-1.77l1.27-4.59c.02-.23.11-.48.21-.78Zm51.13-25.46h-12.22a28.25 28.25 0 0 1-.06-6.31h32.32c.76 0 .77 0 .93.74l1 4.9a3.82 3.82 0 0 1 0 .64c-.36 0-.69.06-1 .07h-12.8c0 .41-.05.74-.05 1.07v32.46c0 .33 0 .67-.05 1.07h-8c0-.42-.06-.8-.06-1.19v-32.13ZM379 228.88l4.06-.65 3.61 11c1.2 3.65 2.38 7.23 3.67 10.85.93-2.38 1.64-4.79 2.41-7.19l2.33-7.35 2.31-7.27h3.87l7.15 21.79h.2c.65-1.76 1.15-3.57 1.72-5.36l1.73-5.46 1.72-5.45 1.72-5.49h4.17l-9.3 28.11h-3.5c-.46 0-.54-.34-.65-.67l-1.8-5.35-4.83-14.48a2.22 2.22 0 0 0-.48-.85l-.36 1q-3.11 9.73-6.19 19.46c-.28.88-.22.83-1.16.84h-2.07c-.93 0-.94 0-1.23-.86q-1.82-5.27-3.61-10.53l-5.22-15.27-.27-.82Zm-62.27 7.41v20.06h-4c-.17-.6-.22-27-.06-28.08h1.31l2.23.05c.44.59.91 1.17 1.34 1.77l11 15.35c.53.74 1 1.51 1.5 2.26a2.23 2.23 0 0 0 .53.59 24.32 24.32 0 0 0 .1-2.82v-17.18h4.17v28a7.05 7.05 0 0 1-.73.08h-2.23a1.13 1.13 0 0 1-1.11-.59c-1.62-2.33-3.27-4.64-4.91-7l-7.11-10.08c-.44-.63-.86-1.28-1.28-1.92l-.44-.63ZM453 228.24h3.29c.36 0 .49.29.65.52L460 233l8.45 11.86c.63.88 1.22 1.8 1.82 2.7a2.31 2.31 0 0 0 .65.69c0-.3.05-.59.05-.89v-18.12c0-.31 0-.62.07-1h4.07v28.06c-.3 0-.56.07-.81.07h-2a1.31 1.31 0 0 1-1.3-.67c-3.38-4.82-6.79-9.63-10.18-14.44-1.08-1.54-2.13-3.11-3.2-4.66a1.11 1.11 0 0 0-.48-.4v20.1h-4c-.26-.53-.32-26.88-.14-28.06Zm-18-64.16v40.73a52.59 52.59 0 0 1-7.85 0V164.1a57 57 0 0 1 7.85-.02Zm-184.72 81.23v11a3.16 3.16 0 0 1-.58.12h-2.87c-.63 0-.68-.08-.72-.68v-26.4c0-.34 0-.67.07-1 .22 0 .37-.06.52-.06h8.21a13.71 13.71 0 0 1 5.92 1.38 6.69 6.69 0 0 1 3.87 4.76c.8 3.78-.29 7.35-4.07 9.37-.14.07-.27.16-.5.3l7 12.24c-.34 0-.56.1-.78.1h-2.95a1.08 1.08 0 0 1-1.12-.68c-1.75-3.21-3.53-6.4-5.3-9.6-.11-.21-.24-.41-.35-.63a.62.62 0 0 0-.64-.36l-5.18.07a3 3 0 0 0-.53.07Zm0-3.56c.28 0 .49.07.7.07h3.74a8.48 8.48 0 0 0 3.66-1 3.39 3.39 0 0 0 1.95-2.38 9.28 9.28 0 0 0 .17-2.52 3.67 3.67 0 0 0-2.56-3.49 9.08 9.08 0 0 0-1.6-.45 32.09 32.09 0 0 0-5.88-.15 1.06 1.06 0 0 0-.18.12ZM231 231.49h-12.15a64.89 64.89 0 0 0-.09 8.91 17.19 17.19 0 0 0 2.49.06h5.26l.55 3.25h-8.33v9.36c.39 0 .75.05 1.12.05h11a2.88 2.88 0 0 1 .72 0c.17 0 .42.2.45.34.19.92.33 1.86.49 2.78-.75.19-17.17.2-17.89 0-.15-.57-.19-27 0-28 .57-.15 14.8-.19 15.9 0Zm50-3.22h15.84a4.27 4.27 0 0 1 .15.48l.46 2.73h-12.13a54.9 54.9 0 0 0 0 9H293l.56 3.24h-8.39v9.36c.4 0 .74.06 1.07.06h12.21l.55 3.12c-.7.21-17.06.25-17.95.05Zm-112.17 22.18 8.22-22.18h4.09c-.1.3-.16.55-.25.79l-10 26.55c-.3.8-.3.8-1.13.8h-2.15c-.81 0-.81 0-1.1-.74l-3.46-8.8-6.71-17.09c-.11-.27-.19-.54-.32-.9l4-.65c2.9 7.42 5.7 14.84 8.58 22.23Zm319.22-22.18h21.53l.57 3.33h-9.22v24.73a27.77 27.77 0 0 1-4.18 0v-24.66c-.42 0-.75-.08-1.08-.08h-7.62Zm-118.33 3.49a3.53 3.53 0 0 0-.7-.16h-7.9a4.69 4.69 0 0 0-.57.08v24.53a11.34 11.34 0 0 1-4.16.05v-24.6c-.43 0-.77-.06-1.1-.06h-7.45a9.29 9.29 0 0 1-.1-3.21c.58-.18 19.58-.26 21.39-.09a13.63 13.63 0 0 1 .59 3.46ZM198 256.35h-4v-28.07h4c.13.6.17 27.13 0 28.07Zm238.43.01h-4c-.17-.65-.2-27.21 0-28.13h3.91c.21.59.28 26.77.09 28.13Zm90.68-28.08v28a25.73 25.73 0 0 1-4 .06v-28.1Z" fill="#fff"/></svg>
