<svg xmlns="http://www.w3.org/2000/svg" xmlns:xlink="http://www.w3.org/1999/xlink" viewBox="0 0 720 420"><defs><linearGradient id="b" x1="361" y1="421" x2="361" y2="1" gradientUnits="userSpaceOnUse"><stop offset="0" stop-color="#e2e8f0"/><stop offset="1" stop-color="#f8fafc"/></linearGradient><clipPath id="a"><path fill="none" d="M1 1h720v420H1z"/></clipPath><symbol id="c" viewBox="0 0 722 422"><g clip-path="url(#a)"><path fill="url(#b)" d="M1 1h720v420H1z"/><path fill="none" stroke="#e2e8f0" stroke-miterlimit="10" stroke-width="2" d="M1 1h60v60H1zm60 0h60v60H61zm60 0h60v60h-60zm60 0h60v60h-60zm60 0h60v60h-60zm60 0h60v60h-60zm60 0h60v60h-60zm60 0h60v60h-60zm60 0h60v60h-60zm60 0h60v60h-60zm60 0h60v60h-60zm60 0h60v60h-60zM1 61h60v60H1zm60 0h60v60H61zm60 0h60v60h-60zm60 0h60v60h-60zm60 0h60v60h-60zm60 0h60v60h-60zm60 0h60v60h-60zm60 0h60v60h-60zm60 0h60v60h-60zm60 0h60v60h-60zm60 0h60v60h-60zm60 0h60v60h-60zM1 121h60v60H1zm60 0h60v60H61zm60 0h60v60h-60zm60 0h60v60h-60zm60 0h60v60h-60zm60 0h60v60h-60zm60 0h60v60h-60zm60 0h60v60h-60zm60 0h60v60h-60zm60 0h60v60h-60zm60 0h60v60h-60zm60 0h60v60h-60zM1 181h60v60H1zm60 0h60v60H61zm60 0h60v60h-60zm60 0h60v60h-60zm60 0h60v60h-60zm60 0h60v60h-60zm60 0h60v60h-60zm60 0h60v60h-60zm60 0h60v60h-60zm60 0h60v60h-60zm60 0h60v60h-60zm60 0h60v60h-60zM1 241h60v60H1zm60 0h60v60H61zm60 0h60v60h-60zm60 0h60v60h-60zm60 0h60v60h-60zm60 0h60v60h-60zm60 0h60v60h-60zm60 0h60v60h-60zm60 0h60v60h-60zm60 0h60v60h-60zm60 0h60v60h-60zm60 0h60v60h-60zM1 301h60v60H1zm60 0h60v60H61zm60 0h60v60h-60zm60 0h60v60h-60zm60 0h60v60h-60zm60 0h60v60h-60zm60 0h60v60h-60zm60 0h60v60h-60zm60 0h60v60h-60zm60 0h60v60h-60zm60 0h60v60h-60zm60 0h60v60h-60zM1 361h60v60H1zm60 0h60v60H61zm60 0h60v60h-60zm60 0h60v60h-60zm60 0h60v60h-60zm60 0h60v60h-60zm60 0h60v60h-60zm60 0h60v60h-60zm60 0h60v60h-60zm60 0h60v60h-60zm60 0h60v60h-60zm60 0h60v60h-60z"/><rect x="16" y="16" width="690" height="390" rx="18" fill="none" stroke="#e2e8f0" stroke-miterlimit="10" stroke-width="2"/></g></symbol></defs><use width="722" height="422" transform="translate(-1 -1)" xlink:href="#c"/><path d="M187 234h-9.21a1.62 1.62 0 0 1-1.76-1.43l-10.89-40.9c-.33-1 .14-1.57 1.41-1.57h6.6a1.57 1.57 0 0 1 1.69 1.43l7.38 33.59h.28l7.38-33.59a1.57 1.57 0 0 1 1.69-1.43h6.6c1.17 0 1.64.52 1.41 1.57l-10.9 40.9A1.62 1.62 0 0 1 187 234Zm17.81-40.69v-5.94a1.23 1.23 0 0 1 1.4-1.37h6.12c.94 0 1.4.43 1.4 1.3v6a1.22 1.22 0 0 1-1.4 1.36h-6.12a1.22 1.22 0 0 1-1.4-1.35Zm0 39.26v-32a1.25 1.25 0 0 1 1.4-1.43h6a1.28 1.28 0 0 1 1.47 1.43v32a1.55 1.55 0 0 1-.31 1.16 1.7 1.7 0 0 1-1.09.27h-6.05a1.28 1.28 0 0 1-1.42-1.43Zm30.57 1.43H222a1.26 1.26 0 0 1-1.41-1.43v-4.37a1.55 1.55 0 0 1 .28-1.06 1.51 1.51 0 0 1 1.13-.31h11.73c2.3 0 3.45-.68 3.45-2.05v-.34q0-1.63-2.88-3.14l-7-3.76a15.7 15.7 0 0 1-5.27-3.82 8 8 0 0 1-1.69-5.26c0-3.18.87-5.53 2.6-7s4.45-2.25 8.15-2.25h11.81a1.26 1.26 0 0 1 1.41 1.43v4.44a1.56 1.56 0 0 1-.29 1.06 1.53 1.53 0 0 1-1.12.31h-9.77c-2.3 0-3.44.57-3.44 1.7v.34c0 1 1 2 3 3.08l7.1 4.09a15 15 0 0 1 5.13 3.93 8.77 8.77 0 0 1 1.47 5.29q.02 9.12-11.01 9.12Zm30.15 0h-2.32q-5.41 0-8.19-2.87t-2.77-8.26v-22.26a1.28 1.28 0 0 1 1.47-1.43h6a1.28 1.28 0 0 1 1.47 1.43v21.85a4.24 4.24 0 0 0 .95 3.11 4.4 4.4 0 0 0 3.13.92h2.6q4.84 0 4.85-5.19v-20.69a1.28 1.28 0 0 1 1.47-1.43h5.91c1 0 1.54.48 1.54 1.43v32c0 1-.51 1.43-1.54 1.43h-5.91a1.28 1.28 0 0 1-1.47-1.43v-2.26h-.28a5.28 5.28 0 0 1-2.75 2.77 9.7 9.7 0 0 1-4.16.88Zm36.4 0h-1.68c-3.71 0-6.56-1-8.58-2.87s-3-4.66-3-8.26v-12.56q0-5.4 3-8.26c2-1.92 4.87-2.87 8.58-2.87h16.23c1 0 1.55.48 1.55 1.43v32c0 1-.52 1.43-1.55 1.43h-5.9a1.29 1.29 0 0 1-1.48-1.43v-2.26h-.28a5.29 5.29 0 0 1-2.74 2.77 9.74 9.74 0 0 1-4.15.88Zm7.17-12.7v-13.86q0-.75-.84-.75h-6.61a4.39 4.39 0 0 0-3.16.92 4.31 4.31 0 0 0-.91 3.11v11.74a4.33 4.33 0 0 0 .91 3.11 4.39 4.39 0 0 0 3.16.92h2.6q4.85 0 4.85-5.19Zm24.46 12.7h-6a1.28 1.28 0 0 1-1.47-1.43v-45.14a1.28 1.28 0 0 1 1.47-1.43h6a1.28 1.28 0 0 1 1.47 1.43v45.14a1.28 1.28 0 0 1-1.47 1.43Zm50.18 0h-23a1.28 1.28 0 0 1-1.47-1.43v-41a1.28 1.28 0 0 1 1.47-1.43h23a1.25 1.25 0 0 1 1.4 1.43v4.64a1.26 1.26 0 0 1-1.4 1.44h-14.69c-.57 0-.85.25-.85.75v8.87c0 .51.28.76.85.76h12c1 0 1.48.47 1.48 1.43v4.64a1.29 1.29 0 0 1-1.48 1.44h-12c-.57 0-.85.25-.85.75v9.49c0 .5.28.75.85.75h14.69a1.25 1.25 0 0 1 1.4 1.43v4.65a1.25 1.25 0 0 1-1.4 1.39Zm21.5-34.82h5.62a1.65 1.65 0 0 1 1.16.31 1.42 1.42 0 0 1 .32 1v4.72a1.29 1.29 0 0 1-1.48 1.43h-5.62a.67.67 0 0 0-.77.75v25.13c0 1-.52 1.43-1.55 1.43H397a1.29 1.29 0 0 1-1.48-1.43v-25.08q0-.75-.84-.75h-3.24a1.28 1.28 0 0 1-1.47-1.43v-4.72a1.39 1.39 0 0 1 .32-1.09 1.81 1.81 0 0 1 1.15-.27h3.24q.84 0 .84-.75v-1.3q0-5.4 2.92-8.26t8.47-2.87h4a1.53 1.53 0 0 1 1.13.31 1.6 1.6 0 0 1 .28 1.06v4.71a1.26 1.26 0 0 1-1.41 1.43h-2.6a4 4 0 0 0-3.06.92 4.78 4.78 0 0 0-.8 3.11v.89a.67.67 0 0 0 .79.75Zm24.88 0h5.62a1.65 1.65 0 0 1 1.16.31 1.42 1.42 0 0 1 .32 1v4.72a1.29 1.29 0 0 1-1.48 1.43h-5.62q-.78 0-.78.75v25.13c0 1-.51 1.43-1.54 1.43h-5.91a1.28 1.28 0 0 1-1.47-1.43v-25.08q0-.75-.84-.75h-3.24a1.28 1.28 0 0 1-1.47-1.43v-4.72a1.43 1.43 0 0 1 .31-1.09 1.84 1.84 0 0 1 1.16-.27h3.24q.84 0 .84-.75v-1.3q0-5.4 2.92-8.26t8.46-2.87h4a1.48 1.48 0 0 1 1.12.31 1.54 1.54 0 0 1 .29 1.06v4.71a1.26 1.26 0 0 1-1.41 1.43h-2.6a4 4 0 0 0-3.06.92 4.72 4.72 0 0 0-.81 3.11v.89q.01.75.79.75Zm38.3 34.82h-15.53c-3.71 0-6.56-1-8.58-2.87s-3-4.66-3-8.26v-12.56q0-5.4 3-8.26c2-1.92 4.87-2.87 8.58-2.87h5.55c3.7 0 6.56.95 8.57 2.87s3 4.66 3 8.26V219a1.29 1.29 0 0 1-1.48 1.43h-17.61q-.84 0-.84.75v1.51a4.09 4.09 0 0 0 .94 3 4.5 4.5 0 0 0 3.2.93h14.2a1.31 1.31 0 0 1 1.47 1.5v4.5a1.43 1.43 0 0 1-.31 1.06 1.65 1.65 0 0 1-1.16.32Zm-17.5-19.39h9.56a.67.67 0 0 0 .77-.75v-3.28a4.22 4.22 0 0 0-.91-3.07 4.52 4.52 0 0 0-3.17-.89h-2.95a4.49 4.49 0 0 0-3.16.89 4.17 4.17 0 0 0-.91 3.07v3.28a.67.67 0 0 0 .77.75Zm48.63 13.31v4.71a1.43 1.43 0 0 1-.32 1.06 1.63 1.63 0 0 1-1.16.31H487.6q-5.55 0-8.57-2.87c-2-1.91-3-4.66-3-8.26v-12.56c0-3.6 1-6.35 3-8.26s4.87-2.87 8.57-2.87h10.47a1.29 1.29 0 0 1 1.48 1.43v4.71a1.44 1.44 0 0 1-.32 1.06 1.63 1.63 0 0 1-1.16.31H489a4.42 4.42 0 0 0-3.13.92 4.22 4.22 0 0 0-.95 3.11v11.74a4.24 4.24 0 0 0 .95 3.11 4.42 4.42 0 0 0 3.13.92h9.06a1.29 1.29 0 0 1 1.49 1.43Zm6.82-21.23h-2.81a1.82 1.82 0 0 1-1.16-.27 1.46 1.46 0 0 1-.32-1.1v-4.71a1.29 1.29 0 0 1 1.48-1.43h2.81a.67.67 0 0 0 .77-.75v-6.49c0-1 .52-1.43 1.55-1.43h5.9a1.29 1.29 0 0 1 1.48 1.43v6.49q0 .75.84.75h5.48a1.29 1.29 0 0 1 1.48 1.43v4.71a1.44 1.44 0 0 1-.32 1.06 1.65 1.65 0 0 1-1.16.31h-5.48q-.84 0-.84.75v15.09a4 4 0 0 0 1 3 4.67 4.67 0 0 0 3.23.92h2.81a1.29 1.29 0 0 1 1.48 1.43v4.71a1.43 1.43 0 0 1-.32 1.06 1.63 1.63 0 0 1-1.16.31h-4.28q-5.55 0-8.61-2.87t-3.06-8.19v-15.5a.67.67 0 0 0-.79-.71ZM544 234h-13.39a1.25 1.25 0 0 1-1.4-1.43v-4.37a1.55 1.55 0 0 1 .28-1.06 1.5 1.5 0 0 1 1.12-.31h11.74c2.29 0 3.44-.68 3.44-2.05v-.34q0-1.63-2.88-3.14l-7-3.76a15.91 15.91 0 0 1-5.27-3.82 8 8 0 0 1-1.68-5.26c0-3.18.86-5.53 2.6-7s4.45-2.25 8.15-2.25h11.74a1.25 1.25 0 0 1 1.4 1.43v4.44a1.57 1.57 0 0 1-.28 1.06 1.54 1.54 0 0 1-1.12.31h-9.77c-2.3 0-3.45.57-3.45 1.7v.34c0 1 1 2 3 3.08l7.09 4.09a14.81 14.81 0 0 1 5.13 3.93 8.7 8.7 0 0 1 1.48 5.29Q555 234 544 234Z" fill="#0fb981"/><path d="M360 127.45V96m0 228v-31.45m58.29-140.92 22.21-22.24m-161 161.22 22.21-22.24m0-116.74-22.21-22.24m138.79 139 22.21 22.24" fill="none" stroke="#ec4899" stroke-linecap="round" stroke-miterlimit="10" stroke-width="12"/></svg>
