<svg xmlns="http://www.w3.org/2000/svg" viewBox="0 0 720 420"><defs><clipPath id="a"><path fill="none" d="M0 0h720v420H0z"/></clipPath><clipPath id="c"><path fill="none" d="M0 0h720v420H0z"/></clipPath><linearGradient id="b" x1="360" y1="420" x2="360" y2="0" gradientTransform="matrix(1, 0, 0, 1, 0, 0)" gradientUnits="userSpaceOnUse"><stop offset="0" stop-color="#eca909"/><stop offset="1" stop-color="#f5b61a"/></linearGradient></defs><g clip-path="url(#a)"><path fill="url(#b)" d="M0 0h720v420H0z"/><path d="M0 0h60v60H0zm60 0h60v60H60zm60 0h60v60h-60zm60 0h60v60h-60zm60 0h60v60h-60zm60 0h60v60h-60zm60 0h60v60h-60zm60 0h60v60h-60zm60 0h60v60h-60zm60 0h60v60h-60zm60 0h60v60h-60zm60 0h60v60h-60zM0 60h60v60H0zm60 0h60v60H60zm60 0h60v60h-60zm60 0h60v60h-60zm60 0h60v60h-60zm60 0h60v60h-60zm60 0h60v60h-60zm60 0h60v60h-60zm60 0h60v60h-60zm60 0h60v60h-60zm60 0h60v60h-60zm60 0h60v60h-60zM0 120h60v60H0zm60 0h60v60H60zm60 0h60v60h-60zm60 0h60v60h-60zm60 0h60v60h-60zm60 0h60v60h-60zm60 0h60v60h-60zm60 0h60v60h-60zm60 0h60v60h-60zm60 0h60v60h-60zm60 0h60v60h-60zm60 0h60v60h-60zM0 180h60v60H0zm60 0h60v60H60zm60 0h60v60h-60zm60 0h60v60h-60zm60 0h60v60h-60zm60 0h60v60h-60zm60 0h60v60h-60zm60 0h60v60h-60zm60 0h60v60h-60zm60 0h60v60h-60zm60 0h60v60h-60zm60 0h60v60h-60zM0 240h60v60H0zm60 0h60v60H60zm60 0h60v60h-60zm60 0h60v60h-60zm60 0h60v60h-60zm60 0h60v60h-60zm60 0h60v60h-60zm60 0h60v60h-60zm60 0h60v60h-60zm60 0h60v60h-60zm60 0h60v60h-60zm60 0h60v60h-60zM0 300h60v60H0zm60 0h60v60H60zm60 0h60v60h-60zm60 0h60v60h-60zm60 0h60v60h-60zm60 0h60v60h-60zm60 0h60v60h-60zm60 0h60v60h-60zm60 0h60v60h-60zm60 0h60v60h-60zm60 0h60v60h-60zm60 0h60v60h-60zM0 360h60v60H0zm60 0h60v60H60zm60 0h60v60h-60zm60 0h60v60h-60zm60 0h60v60h-60zm60 0h60v60h-60zm60 0h60v60h-60zm60 0h60v60h-60zm60 0h60v60h-60zm60 0h60v60h-60zm60 0h60v60h-60zm60 0h60v60h-60z" fill="none" stroke="#eca909" stroke-miterlimit="10" stroke-width="2"/><rect x="15" y="15" width="690" height="390" rx="18" ry="18" fill="none" stroke="#eca909" stroke-miterlimit="10" stroke-width="2"/></g><g clip-path="url(#c)"><path d="M532.39 329.69c0 11.18-8.98 19.94-19.17 19.94h-19.17l.42 99.44c0 1.74-.12 3.35-.3 5.03v10.06c0 13.73-10.72 24.84-23.96 24.84h-9.58c-.66 0-1.32-.56-1.98-.06-.84-.5-1.68.06-2.52.06h-33.84c-13.24 0-23.96-11.12-23.96-24.84V409.5c0-10.99-8.57-19.87-19.17-19.87h-38.33c-10.6 0-19.17 8.88-19.17 19.87v54.66c0 13.73-10.72 24.84-23.96 24.84h-33.48c-.9 0-1.8-.06-2.7-.12-.72.06-1.44.12-2.16.12h-9.58c-13.23 0-23.96-11.12-23.96-24.84V394.6c0-.56.02-1.18.05-1.74v-43.23h-19.19c-10.8 0-19.2-8.76-19.2-19.94 0-5.59 1.8-10.56 6-14.91l153.57-138.8c4.19-4.36 8.98-4.98 13.18-4.98s8.98 1.24 12.64 4.36l152.92 139.43c4.79 4.35 7.25 9.32 6.59 14.91Z" fill="#d3970b"/></g><g fill="#fff"><path d="M365.34 182.36c-.02-2.86-2.31-5.9-4.51-7.17-14.39-8.37-29.07-16.8-43.25-24.96-8.6-4.94-17.19-9.88-25.78-14.84-1.62-.94-3.18-1.39-4.77-1.39s-3.12.45-4.74 1.37c-27.29 15.56-50.1 28.49-71.8 40.7-3.46 1.95-5 4.58-4.99 8.54.08 27.77.07 56.01.07 83.32v24.67c0 1.88 1.55 3.4 3.47 3.4h4.32a3.43 3.43 0 0 0 3.47-3.4v-24.91c0-26.45.01-53.8-.06-80.7 0-1.49.21-1.74 1.29-2.35 22.74-12.78 45.54-25.71 67.78-38.43.52-.3.94-.46 1.18-.46s.65.16 1.16.46a9366 9366 0 0 0 64.47 36.99c1.35.76 1.55 1.1 1.54 2.58-.1 18.95-.08 38.22-.07 56.84v10.67c0 1.11.09 2.17.17 3.28l.11 1.53c.05.92.49 1.77 1.2 2.37.63.54 1.44.83 2.27.83l.3-.01 3.89-.33a3.44 3.44 0 0 0 3.15-2.98l.09-.63c.07-.45.14-.92.14-1.46v-11.32c.02-20.38.03-41.46-.11-62.2Z"/><path d="M220.93 231.02v-5.12l4.55-.88v-30.55l-4.55-.88v-5.15h33.15v11.49h-6.57l-.38-4.91h-13.08v10.7h14.46v6.58h-14.46v12.16h13.79l.38-5.09h6.51v11.64h-33.8Zm39.23 0v-5.12l4.11-.88V205.4l-4.55-.88v-5.15h12.53l.32 3.92.06.7a9.93 9.93 0 0 1 2.9-3.89 6.61 6.61 0 0 1 4.14-1.32 11.57 11.57 0 0 1 3.28.47l-.91 7.86-4.25-.23a5.1 5.1 0 0 0-2.95.61 6.78 6.78 0 0 0-2.01 2.02v15.5l4.11.88v5.12h-16.78Zm37.69 0-9.59-25.96-3.43-.53v-5.15h15.4v5.12l-3.34.58 4.78 14.36.73 2.46h.18l.82-2.46 5.25-14.33-3.9-.61v-5.12h15.37v5.15l-3.52.58-10.03 25.9h-8.71Zm39.37.62c-3.03 0-5.68-.67-7.95-2a13.83 13.83 0 0 1-5.27-5.51 16.85 16.85 0 0 1-1.86-8.01v-1.17c0-3.14.59-5.92 1.76-8.35s2.83-4.34 4.97-5.73 4.67-2.08 7.58-2.06c2.87 0 5.29.57 7.25 1.7a10.95 10.95 0 0 1 4.46 4.88 17.71 17.71 0 0 1 1.53 7.72v4.65h-18.66l-.06.18a9.49 9.49 0 0 0 1.04 3.7c.58 1.08 1.39 1.93 2.45 2.54s2.34.92 3.84.92a15.83 15.83 0 0 0 8.37-2.37l2.32 5.26a16.79 16.79 0 0 1-4.94 2.62 20.75 20.75 0 0 1-6.82 1.04Zm-6.13-19.53h10.59v-.76c0-1.29-.17-2.39-.51-3.32a4.3 4.3 0 0 0-1.64-2.15c-.75-.51-1.73-.76-2.92-.76s-2.09.3-2.87.89c-.78.59-1.39 1.41-1.83 2.44s-.74 2.2-.89 3.51l.09.15ZM378 231.02v-5.12l4.58-.88v-30h-7.77l-.47 5.09h-6.48v-11.67h38.11v11.67h-6.51l-.47-5.09h-7.83v30l4.61.88v5.12h-17.75Zm39.31.62c-3.15 0-5.65-.84-7.51-2.53-1.86-1.69-2.79-3.98-2.79-6.89 0-1.99.54-3.73 1.63-5.23s2.69-2.68 4.81-3.54a20.97 20.97 0 0 1 7.85-1.29h4.2v-2.34c0-1.52-.44-2.75-1.33-3.7-.89-.95-2.23-1.42-4-1.42-.92 0-1.75.11-2.48.34s-1.39.54-1.98.95l-.67 4.18h-6.16l-.12-8.22c1.66-.94 3.46-1.7 5.4-2.28s4.1-.88 6.48-.88c4.15 0 7.42.96 9.83 2.88s3.61 4.66 3.61 8.23v13.04l.01 1.27c0 .42.04.82.1 1.21l3.31.47v5.12h-10.62c-.22-.55-.43-1.13-.65-1.75-.22-.62-.37-1.25-.47-1.87-1.02 1.29-2.21 2.31-3.59 3.08s-3 1.15-4.86 1.15Zm2.29-6.32c1.19 0 2.33-.27 3.4-.8a6.22 6.22 0 0 0 2.49-2.12v-5h-4.22c-1.88 0-3.3.43-4.27 1.29a4 4 0 0 0-1.45 3.1c0 1.13.36 2 1.07 2.62.71.61 1.71.92 2.98.92Zm20.62 5.7v-5.12l4.11-.88V205.4l-4.55-.88v-5.15h12.53l.38 4.53c1.06-1.62 2.36-2.87 3.92-3.77s3.33-1.34 5.32-1.34c3.15 0 5.61 1 7.39 3.01 1.78 2.01 2.67 5.16 2.67 9.44v13.77l4.11.88v5.12h-16.37v-5.12l3.67-.88v-13.74c0-2.12-.42-3.63-1.26-4.52-.84-.89-2.09-1.33-3.76-1.33-1.23 0-2.3.26-3.21.77s-1.67 1.25-2.27 2.21v16.61l3.46.88v5.12h-16.13Zm38.2 0v-5.12l4.14-.88v-33.59l-4.58-.88v-5.15h13.11v39.62l3.7.88v5.12h-16.37Zm11.76-8.65-4.11-4.77 13.79-12.57.06-.09-3.26-.47v-5.09h16.52v5.15l-4.11 1.02-18.89 16.81Zm8.45 8.65v-4.85l2.41-.56-.06-.12-6.28-8.51 5.46-5.58 10.41 13.6 3.93.91v5.12h-15.87Z"/></g></svg>
