<svg xmlns="http://www.w3.org/2000/svg" xmlns:xlink="http://www.w3.org/1999/xlink" viewBox="0 0 720 420"><defs><radialGradient id="a" cx="412" cy="1426.47" fx="412" fy="1426.47" r="57.57" gradientTransform="translate(-2 3159.3) scale(.98 -2.27)" gradientUnits="userSpaceOnUse"><stop offset="0" stop-color="#ffd86b"/><stop offset=".6" stop-color="#f5a240"/><stop offset=".68" stop-color="#e58e37"/><stop offset=".84" stop-color="#be591e"/><stop offset=".95" stop-color="#a1340d"/></radialGradient><radialGradient id="b" cx="-307.72" cy="-334.32" fx="-307.72" fy="-334.32" r="57.54" gradientTransform="translate(26 654.89) rotate(-180) scale(.98 -2.27)" gradientUnits="userSpaceOnUse"><stop offset=".44" stop-color="#ffd86b"/><stop offset=".75" stop-color="#f5a240"/><stop offset=".8" stop-color="#e58e37"/><stop offset=".89" stop-color="#be591e"/><stop offset=".95" stop-color="#a1340d"/></radialGradient><radialGradient id="c" cx="-309.12" cy="1370.94" fx="-309.12" fy="1370.94" r="56.77" gradientTransform="translate(95.25 3684.27) rotate(-180) scale(.93 2.76)" gradientUnits="userSpaceOnUse"><stop offset="0" stop-color="#ffd86b"/><stop offset=".75" stop-color="#f5a240"/><stop offset=".8" stop-color="#e58e37"/><stop offset=".89" stop-color="#be591e"/><stop offset=".95" stop-color="#a1340d"/></radialGradient><radialGradient id="d" cx="-414.85" cy="-170.11" fx="-414.85" fy="-170.11" r="40.96" gradientTransform="translate(-85.48 517.29) rotate(-180) scale(.93 -3.43)" gradientUnits="userSpaceOnUse"><stop offset=".04" stop-color="#ffd86b"/><stop offset=".68" stop-color="#f5a240"/><stop offset=".76" stop-color="#e58e37"/><stop offset=".9" stop-color="#be591e"/><stop offset="1" stop-color="#a1340d"/></radialGradient><radialGradient id="e" cx="-219.34" cy="-325.86" fx="-219.34" fy="-325.86" r="43.58" gradientTransform="translate(100.86 611.15) rotate(-172.6) scale(.93 -2.27) skewX(-1.17)" gradientUnits="userSpaceOnUse"><stop offset=".24" stop-color="#ffd86b"/><stop offset=".36" stop-color="#fed468"/><stop offset=".49" stop-color="#fcc75e"/><stop offset=".63" stop-color="#f8b34d"/><stop offset=".71" stop-color="#f5a240"/><stop offset=".78" stop-color="#e58e37"/><stop offset=".91" stop-color="#be591e"/><stop offset="1" stop-color="#a1340d"/></radialGradient><radialGradient id="k" cy="1215.19" fy="1215.19" xlink:href="#a"/><radialGradient id="l" cy="-123.04" fy="-123.04" r="57.54" xlink:href="#b"/><radialGradient id="m" cx="389.08" cy="1185.14" fx="389.08" fy="1185.14" r="56.66" gradientTransform="translate(-154.82 3608.04) rotate(6.04) scale(.93 -2.75) skewX(-6.96)" xlink:href="#b"/><radialGradient id="n" cx="292.57" cy="1209.15" fx="292.57" fy="1209.15" r="38.78" gradientTransform="translate(93.7 3713.75) rotate(-3.59) scale(1.02 -2.76) skewX(3.77)" xlink:href="#c"/><radialGradient id="o" cx="-573.31" cy="-192.11" fx="-573.31" fy="-192.11" r="63.67" gradientTransform="translate(-80.29 894.85) rotate(170.35) scale(.72 -2.27) skewX(9.07)" xlink:href="#b"/><radialGradient id="p" cy="1197.06" fy="1197.06" xlink:href="#c"/><radialGradient id="q" cx="386.61" cy="1298.17" fx="386.61" fy="1298.17" r="51.63" gradientTransform="translate(-164.3 3482.81) rotate(5.59) scale(1.01 -2.43) skewX(-3.86)" xlink:href="#b"/><radialGradient id="r" cx="-197.02" cy="-106.96" fx="-197.02" fy="-106.96" r="39.97" gradientTransform="translate(15.42 706.84) rotate(176.85) scale(1.44 -3.01) skewX(2.79)" xlink:href="#b"/><radialGradient id="s" cx="321.36" cy="1202.26" fx="321.36" fy="1202.26" r="40.96" gradientTransform="translate(-4.92 4344.99) scale(1.12 -3.31)" xlink:href="#b"/><radialGradient id="t" cy="-30.22" fy="-30.22" r="40.96" xlink:href="#d"/><radialGradient id="u" cx="388.66" cy="-6.53" fx="388.66" fy="-6.53" r="40.96" gradientTransform="translate(108.64 366.59) rotate(10.22) scale(.93 3.42) skewX(10.22)" xlink:href="#b"/><radialGradient id="v" cx="-434.51" cy="1340.78" fx="-434.51" fy="1340.78" r="57.57" gradientTransform="translate(36.02 3003.97) rotate(177.55) scale(.98 1.96) skewX(-.32)" xlink:href="#a"/><radialGradient id="w" cx="-281.79" cy="-116.23" fx="-281.79" fy="-116.23" r="43.58" xlink:href="#e"/><radialGradient id="x" cx="-194.45" cy="-132.81" fx="-194.45" fy="-132.81" r="52.07" gradientTransform="translate(100.06 617.75) rotate(-172.6) scale(.93 -2.27) skewX(-1.17)" xlink:href="#b"/><radialGradient id="y" cx="600.89" cy="-150.51" fx="600.89" fy="-150.51" r="64.55" gradientTransform="translate(-90.79 719.37) rotate(-7.4) scale(.93 2.27) skewX(-1.17)" xlink:href="#b"/><radialGradient id="z" cx="357.69" cy="1297.53" fx="357.69" fy="1297.53" r="45.47" gradientTransform="translate(106.17 3548.46) rotate(-1.75) scale(1.01 -2.43) skewX(-2.74)" xlink:href="#b"/><clipPath id="f"><path fill="none" d="M1 1h720v420H1z"/></clipPath><clipPath id="i"><path fill="none" d="M0 0h720v420H0z"/></clipPath><clipPath id="j"><path fill="none" d="M204 255h312v165H204z"/></clipPath><linearGradient id="g" x1="361" y1="421" x2="361" y2="1" gradientTransform="matrix(1, 0, 0, 1, 0, 0)" gradientUnits="userSpaceOnUse"><stop offset="0" stop-color="#f8fafc"/><stop offset="1" stop-color="#fff"/></linearGradient><symbol id="h" viewBox="0 0 722 422"><g clip-path="url(#f)"><path fill="url(#g)" d="M1 1h720v420H1z"/><path fill="none" stroke="#f8fafc" stroke-miterlimit="10" stroke-width="2" d="M1 1h60v60H1zm60 0h60v60H61zm60 0h60v60h-60zm60 0h60v60h-60zm60 0h60v60h-60zm60 0h60v60h-60zm60 0h60v60h-60zm60 0h60v60h-60zm60 0h60v60h-60zm60 0h60v60h-60zm60 0h60v60h-60zm60 0h60v60h-60zM1 61h60v60H1zm60 0h60v60H61zm60 0h60v60h-60zm60 0h60v60h-60zm60 0h60v60h-60zm60 0h60v60h-60zm60 0h60v60h-60zm60 0h60v60h-60zm60 0h60v60h-60zm60 0h60v60h-60zm60 0h60v60h-60zm60 0h60v60h-60zM1 121h60v60H1zm60 0h60v60H61zm60 0h60v60h-60zm60 0h60v60h-60zm60 0h60v60h-60zm60 0h60v60h-60zm60 0h60v60h-60zm60 0h60v60h-60zm60 0h60v60h-60zm60 0h60v60h-60zm60 0h60v60h-60zm60 0h60v60h-60zM1 181h60v60H1zm60 0h60v60H61zm60 0h60v60h-60zm60 0h60v60h-60zm60 0h60v60h-60zm60 0h60v60h-60zm60 0h60v60h-60zm60 0h60v60h-60zm60 0h60v60h-60zm60 0h60v60h-60zm60 0h60v60h-60zm60 0h60v60h-60zM1 241h60v60H1zm60 0h60v60H61zm60 0h60v60h-60zm60 0h60v60h-60zm60 0h60v60h-60zm60 0h60v60h-60zm60 0h60v60h-60zm60 0h60v60h-60zm60 0h60v60h-60zm60 0h60v60h-60zm60 0h60v60h-60zm60 0h60v60h-60zM1 301h60v60H1zm60 0h60v60H61zm60 0h60v60h-60zm60 0h60v60h-60zm60 0h60v60h-60zm60 0h60v60h-60zm60 0h60v60h-60zm60 0h60v60h-60zm60 0h60v60h-60zm60 0h60v60h-60zm60 0h60v60h-60zm60 0h60v60h-60zM1 361h60v60H1zm60 0h60v60H61zm60 0h60v60h-60zm60 0h60v60h-60zm60 0h60v60h-60zm60 0h60v60h-60zm60 0h60v60h-60zm60 0h60v60h-60zm60 0h60v60h-60zm60 0h60v60h-60zm60 0h60v60h-60zm60 0h60v60h-60z"/><rect x="16" y="16" width="690" height="390" rx="18" ry="18" fill="none" stroke="#f8fafc" stroke-miterlimit="10" stroke-width="2"/></g></symbol></defs><use width="722" height="422" transform="translate(-1 -1)" xlink:href="#h"/><path d="M198.72 201.99a4.42 4.42 0 0 1-4.36 4.41h-5l-3.55 10.79h2.26c2.42 0 4.36 1.96 4.36 4.41s-1.94 4.5-4.36 4.5h-5.24l-3.39 10.38a4.8 4.8 0 0 1-4.6 3.35 4.89 4.89 0 0 1-4.6-6.45l2.42-7.28h-6.37l-3.39 10.38a4.8 4.8 0 0 1-4.6 3.35 4.89 4.89 0 0 1-4.6-6.45l2.42-7.28h-1.77c-2.42 0-4.35-1.96-4.35-4.5s1.94-4.41 4.35-4.41h4.76l3.47-10.79h-1.94a4.41 4.41 0 0 1 0-8.82h4.92l3.47-10.54a4.8 4.8 0 0 1 4.6-3.35 4.89 4.89 0 0 1 4.6 6.45l-2.42 7.44h6.29l3.47-10.54a4.8 4.8 0 0 1 4.6-3.35 4.89 4.89 0 0 1 4.6 6.45l-2.5 7.44h2.1a4.42 4.42 0 0 1 4.36 4.41Zm-19.6 4.41h-6.29l-3.47 10.79h6.21l3.55-10.79Zm38.07 26.24v-35.89h-9.76c-3.31 0-6.05-2.7-6.05-6.13s2.74-6.13 6.05-6.13h33.23c3.31 0 6.13 2.7 6.13 6.13s-2.82 6.13-6.13 6.13h-9.6v35.89c0 3.84-3.15 7.11-6.94 7.11s-6.94-3.27-6.94-7.11Zm45.09-34.08c11.53 0 19.92 8.58 19.92 18.56 0 4.5-2.66 6.13-7.42 6.13h-20.33c.72 3.68 4.11 7.03 9.92 7.03 2.18 0 4.6-.57 6.78-1.63a4.06 4.06 0 0 1 2.02-.49 4.73 4.73 0 0 1 4.68 4.82c0 1.96-1.21 3.6-2.82 4.33a27.6 27.6 0 0 1-12.18 2.7c-12.02 0-21.29-7.93-21.29-20.76 0-11.44 8.55-20.68 20.73-20.68Zm-7.98 16.51h16.05c-.32-2.78-2.34-6.78-8.07-6.78-5.4 0-7.5 3.92-7.98 6.78Zm69.44-.74v18.8c0 3.6-2.66 6.62-6.21 6.62a6.61 6.61 0 0 1-6.29-4.66c-2.34 2.94-7.02 4.9-12.02 4.9-5.97 0-13.39-4.09-13.39-13 0-9.56 7.42-12.42 13.39-12.42 5.16 0 9.76 1.64 12.1 4.58v-4.99c0-3.43-2.9-5.72-7.9-5.72-2.66 0-5.32.65-7.98 2.12-.64.33-1.37.57-2.1.57-2.5 0-4.6-2.13-4.6-4.66a4.8 4.8 0 0 1 2.42-4.09 28.98 28.98 0 0 1 14.44-3.84c9.36 0 18.15 3.52 18.15 15.78Zm-12.42 14.55v-3.51c-1.29-1.8-4.19-2.78-6.94-2.78-3.31 0-6.21 1.47-6.21 4.58s2.9 4.58 6.21 4.58c2.74 0 5.65-.98 6.94-2.86Zm82.92-18.47v23.05c0 3.43-2.74 6.29-6.21 6.29s-6.13-2.86-6.13-6.29v-18.47c0-3.02-1.45-5.31-5.16-5.31-3.39 0-5.81 2.21-7.02 3.84v19.95c0 3.43-2.82 6.29-6.21 6.29s-6.21-2.86-6.21-6.29V215c0-3.02-1.37-5.31-5.16-5.31-3.31 0-5.65 2.21-6.94 3.84v19.95c0 3.43-2.74 6.29-6.21 6.29s-6.21-2.86-6.21-6.29v-28.37c0-3.6 2.66-6.46 6.21-6.46a6.26 6.26 0 0 1 6.29 5.64c1.69-2.29 6.7-5.72 12.74-5.72 5.57 0 9.44 2.37 11.05 7.03a16.72 16.72 0 0 1 13.47-7.03c7.18 0 11.7 3.76 11.7 11.85Zm9.44 22.23v-40.71c0-4.82 2.58-7.44 7.34-7.44h26.94c3.15 0 5.81 2.7 5.81 5.97s-2.66 5.89-5.81 5.89h-20.41v9.07h19.84c3.15 0 5.81 2.7 5.81 5.97s-2.66 5.97-5.81 5.97h-19.84v15.29c0 3.84-3.06 7.11-6.94 7.11s-6.94-3.27-6.94-7.11Zm72.19-28.44c0 3.19-1.69 5.8-5.4 6.29-2.34.33-6.13 1.23-7.74 3.51v19.46c0 3.43-2.74 6.29-6.21 6.29s-6.21-2.86-6.21-6.29v-28.12c0-3.6 2.66-6.54 6.21-6.54a6.13 6.13 0 0 1 6.29 5.56c1.29-1.88 2.98-3.92 5-4.9a7.26 7.26 0 0 1 2.82-.74c3.15 0 5.24 2.45 5.24 5.48Zm3.79-17.01a7.1 7.1 0 1 1 14.2 0c0 4-3.15 7.28-7.1 7.28s-7.1-3.27-7.1-7.28Zm.89 46.27v-28.37c0-3.43 2.82-6.29 6.21-6.29s6.21 2.86 6.21 6.29v28.37c0 3.43-2.74 6.29-6.21 6.29s-6.21-2.86-6.21-6.29Zm39.6-34.9c11.53 0 19.92 8.58 19.92 18.56 0 4.5-2.66 6.13-7.42 6.13h-20.33c.73 3.68 4.11 7.03 9.92 7.03 2.18 0 4.6-.57 6.78-1.63a4.06 4.06 0 0 1 2.02-.49 4.73 4.73 0 0 1 4.68 4.82c0 1.96-1.21 3.6-2.82 4.33a27.6 27.6 0 0 1-12.18 2.7c-12.02 0-21.29-7.93-21.29-20.76 0-11.44 8.55-20.68 20.73-20.68Zm-7.98 16.51h16.05c-.32-2.78-2.34-6.78-8.07-6.78-5.4 0-7.5 3.92-7.98 6.78ZM570 234.28c0 2.53-1.69 4.5-3.95 5.07a18.3 18.3 0 0 1-5.08.65c-7.9 0-12.18-4.01-12.18-11.61v-17.9h-1.77a5.5 5.5 0 0 1 0-10.96h1.77v-5.23c0-3.43 2.74-6.29 6.21-6.29s6.13 2.86 6.13 6.29v5.23h3.23c2.98 0 5.4 2.45 5.4 5.48s-2.42 5.48-5.4 5.48h-3.23v14.39c0 2.21 1.21 3.92 3.23 4h1.21c2.66.16 4.44 2.62 4.44 5.4Z" fill="#044663"/><g clip-path="url(#i)"><g clip-path="url(#j)"><path d="M415 296.09c-4.6-5.14-12.07-11.12-21.8-6.81-14.91 100.94-5.03 198.39-4.93 199.81 1.02 14.68 22.95 21.67 26.31 19.63-10.39-121.58 1.37-154.57.42-212.63Z" fill="url(#k)" fill-rule="evenodd"/><path d="M312.17 477.7c4.62 5.13 12.1 11.1 21.88 6.8 14.94-100.94 5.04-198.4 4.94-199.82-1.03-14.67-23.01-21.66-26.39-19.64 10.43 121.59-1.37 154.58-.43 212.66Z" fill="url(#l)" fill-rule="evenodd"/><path d="M438.23 280.68c-4.02-5.57-14.44-12.8-23.94-9.48-12.45 99.1 2.86 99.75-18.67 240.1-2.15 14.39 22.49 1.62 25.87-.11 19.34-118.99 17.45-178.28 16.73-230.51Z" fill="url(#m)" fill-rule="evenodd"/><path d="M438.23 280.68c-4.39-1.26-9.99 6.03-9.99 7.4-.03 85.08 2.63 111.3-6.74 223.1 17.63-96.98 17.99-177.86 16.74-230.51Z" style="isolation:isolate" fill="#820000" fill-rule="evenodd" opacity=".1"/><path d="M275.19 287.28c-3.43-3.3-11.79-6.95-18.64-3.58-1.95 68.67 9.56 67.28 3.88 165.04-.58 10.06 17.03-1.62 19.38-3.16 5.65-82.99-.2-122.96-4.62-158.3Z" fill="url(#n)" fill-rule="evenodd"/><path d="M275.19 287.28c-3.38-.33-7.04 5.27-6.94 6.19 6.32 57.72 10.26 75.16 11.56 152.1 6-67.85.24-122.75-4.62-158.29Z" style="isolation:isolate" fill="#820000" fill-rule="evenodd" opacity=".1"/><path d="M260.67 523.77c4.29 4.08 14.25 8.09 21.7 2.8-5.71-92.77-18.72-89.64-23.51-221.97-.51-13.63-19.26 4.03-21.78 6.37 3.15 112.42 14.43 165.68 23.59 212.8Z" fill="url(#o)" fill-rule="evenodd"/><path d="M260.67 523.77c3.9.08 7.42-7.87 7.2-9.12-13.88-77.06-20.41-100.16-30.79-203.68.99 92.09 13.92 165.45 23.59 212.8Z" style="isolation:isolate" fill="#820000" fill-rule="evenodd" opacity=".1"/><path d="M366.3 273.08c4.37-5.12 15.22-11.22 24.46-6.92 6.05 100.09-9.25 99.1 3.18 241.26 1.29 14.64-29.49-6.1-32.68-8.12-11.65-120.62.96-174.25 5.04-226.22Z" fill="url(#p)" fill-rule="evenodd"/><path d="M462.19 310.18c-4.47-4.68-5.46-58.9-20.83-42.34-5.48 115.76-20.95 174.48-14.52 211.86 2.09 12.08 15.66-24.38 19.23-25.73 3.87-53 14.61-105.08 16.12-143.79Z" fill="url(#q)" fill-rule="evenodd"/><path d="M275.9 433.2c5.41 3.73 12.28 55.04 27.33 36.96-6.32-110.71 4.36-168.84-6.67-203.34-3.58-11.15-14.54 25.57-18.32 27.38 1.4 50.92-4.82 102-2.34 139Z" fill="url(#r)" fill-rule="evenodd"/><path d="M365.96 276.68c-5.27-4.95-25.81-4.84-26.11.81-2.64 49.78-9.98 122.16-7.29 187.18.59 14.21 25.35 18.23 29.21 16.27-2.74-89.96 4.18-161.66 4.19-204.26Z" fill="url(#s)" fill-rule="evenodd"/><path d="M339.84 277.49c-2.64 49.78-9.98 122.16-7.29 187.18 5.39-51.54 14.12-140.38 14.45-182.41.02-2.3-6.86-6.07-7.17-4.77Z" style="isolation:isolate" fill="#820000" opacity=".1"/><path d="M290.04 502.61c4.36 5.13 21.32 5.01 21.57-.84 2.17-51.57 8.23-126.55 6.01-193.88-.47-14.71-20.94-18.89-24.13-16.85 2.27 93.19-3.45 167.46-3.46 211.58Z" fill="url(#t)" fill-rule="evenodd"/><path d="M311.62 501.78c2.17-51.57 8.23-126.55 6.01-193.88-4.46 53.39-10.51 141.09-15.46 189.35 4.46.77 9.19 5.89 9.45 4.54Z" style="isolation:isolate" fill="#820000" opacity=".1"/><path d="M462.93 516.28c-4.96 4.29-21.71 1.15-21.19-4.68 4.48-51.38 8.14-126.61 19-192.82 2.36-14.46 23.11-14.94 26-12.37-14.23 91.75-18.13 166.24-23.81 209.88Z" fill="url(#u)" fill-rule="evenodd"/><path d="M356.11 341.16c4.42-4.62 11.67-10.11 21.54-6.81 18.39 86.45 11.89 170.96 11.85 172.2-.52 12.71-22.19 19.68-25.61 18.07 6.18-105.34-6.71-133.32-7.78-183.46Z" fill="url(#v)" fill-rule="evenodd"/><path d="M381.6 523.13c3.35 5.12 9.07 11.31 17.84 8.53 23.71-88.95 25.93-177.54 26-178.82.72-13.29-17.19-21.98-20.27-20.53-4.41 110.28-18.03 138.59-23.57 190.81Z" fill="url(#w)" fill-rule="evenodd"/><path d="M296.22 438.8c4.52-38.84 5.21-65.81 5.25-66.5.72-13.28-17.19-21.97-20.27-20.53-1.47 36.86-3.98 64.54-6.87 87.04h21.89Z" fill="url(#x)" fill-rule="evenodd"/><path d="M444.41 434.93c-5.93-51-.2-104.57-.25-105.49-.95-17.44 15.94 5.6 19.99 7.49 1.93 48.4-1.11 65.02 2.69 94.56l-22.42 3.44Z" fill="url(#y)" fill-rule="evenodd"/><path d="M344.73 362.82c-4.4-3.58-10.98-50.86-22.67-34.65 7.41 101.79.08 154.86 9.65 186.79 3.1 10.32 11.11-23.08 14.09-24.65-2.2-46.76 1.7-93.48-1.07-127.49Z" fill="url(#z)" fill-rule="evenodd"/></g></g></svg>
