<svg xmlns="http://www.w3.org/2000/svg" xmlns:xlink="http://www.w3.org/1999/xlink" viewBox="0 0 720 420">
    <defs>
        <clipPath id="a">
            <path fill="none" d="M1 1h720v420H1z"/>
        </clipPath>
        <clipPath id="d">
            <path fill="none" d="M374.37 126h203.81v170.74H374.37z"/>
        </clipPath>
        <clipPath id="e">
            <path fill="none" d="M347.39 168.77 541.7 79.81l75.01 163.47-194.31 88.94-75.01-163.45z"/>
        </clipPath>
        <clipPath id="f">
            <path fill="none" d="M347.39 168.77 541.7 79.81l75.01 163.47-194.31 88.94-75.01-163.45z"/>
        </clipPath>
        <clipPath id="g">
            <path fill="none" d="M578.57 199.3H655v76.32h-76.43z"/>
        </clipPath>
        <clipPath id="h">
            <path fill="none" d="M537.95 276.13h25.91V302h-25.91z"/>
        </clipPath>
        <linearGradient id="b" x1="361" y1="421" x2="361" y2="1" gradientTransform="matrix(1, 0, 0, 1, 0, 0)" gradientUnits="userSpaceOnUse">
            <stop offset="0" stop-color="#f8fafc"/>
            <stop offset="1" stop-color="#fff"/>
        </linearGradient>
        <symbol id="c" viewBox="0 0 722 422">
            <g clip-path="url(#a)">
                <path fill="url(#b)" d="M1 1h720v420H1z"/>
                <path d="M1 1h60v60H1zm60 0h60v60H61zm60 0h60v60h-60zm60 0h60v60h-60zm60 0h60v60h-60zm60 0h60v60h-60zm60 0h60v60h-60zm60 0h60v60h-60zm60 0h60v60h-60zm60 0h60v60h-60zm60 0h60v60h-60zm60 0h60v60h-60zM1 61h60v60H1zm60 0h60v60H61zm60 0h60v60h-60zm60 0h60v60h-60zm60 0h60v60h-60zm60 0h60v60h-60zm60 0h60v60h-60zm60 0h60v60h-60zm60 0h60v60h-60zm60 0h60v60h-60zm60 0h60v60h-60zm60 0h60v60h-60zM1 121h60v60H1zm60 0h60v60H61zm60 0h60v60h-60zm60 0h60v60h-60zm60 0h60v60h-60zm60 0h60v60h-60zm60 0h60v60h-60zm60 0h60v60h-60zm60 0h60v60h-60zm60 0h60v60h-60zm60 0h60v60h-60zm60 0h60v60h-60zM1 181h60v60H1zm60 0h60v60H61zm60 0h60v60h-60zm60 0h60v60h-60zm60 0h60v60h-60zm60 0h60v60h-60zm60 0h60v60h-60zm60 0h60v60h-60zm60 0h60v60h-60zm60 0h60v60h-60zm60 0h60v60h-60zm60 0h60v60h-60zM1 241h60v60H1zm60 0h60v60H61zm60 0h60v60h-60zm60 0h60v60h-60zm60 0h60v60h-60zm60 0h60v60h-60zm60 0h60v60h-60zm60 0h60v60h-60zm60 0h60v60h-60zm60 0h60v60h-60zm60 0h60v60h-60zm60 0h60v60h-60zM1 301h60v60H1zm60 0h60v60H61zm60 0h60v60h-60zm60 0h60v60h-60zm60 0h60v60h-60zm60 0h60v60h-60zm60 0h60v60h-60zm60 0h60v60h-60zm60 0h60v60h-60zm60 0h60v60h-60zm60 0h60v60h-60zm60 0h60v60h-60zM1 361h60v60H1zm60 0h60v60H61zm60 0h60v60h-60zm60 0h60v60h-60zm60 0h60v60h-60zm60 0h60v60h-60zm60 0h60v60h-60zm60 0h60v60h-60zm60 0h60v60h-60zm60 0h60v60h-60zm60 0h60v60h-60zm60 0h60v60h-60z" fill="none" stroke="#f8fafc" stroke-miterlimit="10" stroke-width="2"/>
                <rect x="16" y="16" width="690" height="390" rx="18" ry="18" fill="none" stroke="#f8fafc" stroke-miterlimit="10" stroke-width="2"/>
            </g>
        </symbol>
    </defs>
    <use width="722" height="422" transform="translate(-1 -1)" xlink:href="#c"/>
    <g clip-path="url(#d)">
        <g clip-path="url(#e)">
            <g clip-path="url(#f)">
                <path d="M511.99 281.61c-35.65 26.09-86.22 16.66-110.82-19.9-28.76-42.82-48.33-95.42 21.69-127.47 37.41-17.13 82.39-3.12 123.96 17.97 34.03 17.26 40.68 63 12.73 88.96-15.22 14.16-31.23 28.49-47.57 40.44" fill="#f4d532"/>
            </g>
        </g>
    </g>
    <g clip-path="url(#g)">
        <path d="M616.78 199.3a38.23 38.23 0 0 0-38.21 38.17 38.21 38.21 0 0 0 76.43-.02 38.23 38.23 0 0 0-38.22-38.15Z" fill="#f4d532"/>
    </g>
    <path d="M246.23 186.6h-13.44l-7.48 30.58-9.41-30.58h-10.59l-9.41 30.53-7.48-30.53H175l13.42 47.43h11.4l10.79-31.63 10.85 31.63h11.31l13.45-47.43Zm50.14 25.46c0-19.14-10.88-25.89-22.64-25.89-10.97 0-23.49 6.73-23.49 24.42.02 17.42 12.63 24.08 23.39 24.08 11.5 0 18.72-4.66 21.47-14.23h-11.61c-1.36 2.74-4.11 4.38-9.14 4.38-6.48 0-10.21-3.02-11.23-10.3h33.16c.09-.83.09-1.55.09-2.47Zm-33.16-5.74c1.02-6.93 4.66-10.31 10.52-10.31 6.29 0 9.76 4.1 9.95 10.31h-20.47Zm67.84-20.15c-8.12 0-12.78 4.55-14.16 10.93v-10.49h-13.3v47.41h13.33v-25.25c1.09-6.55 5.39-10.68 15.15-10.68.64 0 1.28 0 3.11.09v-11.66c-1.83-.36-3.11-.36-4.11-.36h-.02Zm40.64 47.86 18.27-47.43h-13.33l-12.23 34.13-12.33-34.11h-13.33L357 234.03h14.7Zm24.56-64.64v10.12h13.33v-10.12h-13.33Zm0 17.23v47.41h13.33V186.6l-13.33.02Zm51.42-.45a17.03 17.03 0 0 0-15.25 9.83v-9.38h-13.33v47.41h13.33v-27.99c.45-3.02 3.64-8.85 10.31-8.85 4.75 0 8.5 2.47 8.5 9.04v27.8h13.33v-28.54c0-14.4-7.13-19.32-16.89-19.32Zm47.57 37.74c-6.58 0-10.6-4.66-10.6-13.49s3.94-13.5 10.5-13.5c5.48 0 7.5 2.66 8.39 6.38h12.25c-2.47-13.85-12.25-17.13-20.73-17.13-10.88 0-23.28 6.47-23.28 24.25 0 17.87 12.5 24.25 23.37 24.25 8.22 0 18.72-3.47 21-17.59h-11.97c-1.09 3.91-3.37 6.83-8.95 6.83h.02Zm28.22-5.02v15.14h14.42v-15.14h-14.42Z"/>
    <g clip-path="url(#h)">
        <path d="M550.9 276.13a12.96 12.96 0 0 0 0 25.87 12.94 12.94 0 1 0 0-25.86Z" fill="#f4d532"/>
    </g>
</svg>
