<svg xmlns="http://www.w3.org/2000/svg" viewBox="0 0 720 420"><defs><linearGradient id="b" x1="360" y1="420" x2="360" y2="0" gradientTransform="matrix(1, 0, 0, 1, 0, 0)" gradientUnits="userSpaceOnUse"><stop offset="0" stop-color="#68483e"/><stop offset="1" stop-color="#704d43"/></linearGradient><clipPath id="a"><path fill="none" d="M0 0h720v420H0z"/></clipPath></defs><g clip-path="url(#a)"><path fill="url(#b)" d="M0 0h720v420H0z"/><path d="M0 0h60v60H0zm60 0h60v60H60zm60 0h60v60h-60zm60 0h60v60h-60zm60 0h60v60h-60zm60 0h60v60h-60zm60 0h60v60h-60zm60 0h60v60h-60zm60 0h60v60h-60zm60 0h60v60h-60zm60 0h60v60h-60zm60 0h60v60h-60zM0 60h60v60H0zm60 0h60v60H60zm60 0h60v60h-60zm60 0h60v60h-60zm60 0h60v60h-60zm60 0h60v60h-60zm60 0h60v60h-60zm60 0h60v60h-60zm60 0h60v60h-60zm60 0h60v60h-60zm60 0h60v60h-60zm60 0h60v60h-60zM0 120h60v60H0zm60 0h60v60H60zm60 0h60v60h-60zm60 0h60v60h-60zm60 0h60v60h-60zm60 0h60v60h-60zm60 0h60v60h-60zm60 0h60v60h-60zm60 0h60v60h-60zm60 0h60v60h-60zm60 0h60v60h-60zm60 0h60v60h-60zM0 180h60v60H0zm60 0h60v60H60zm60 0h60v60h-60zm60 0h60v60h-60zm60 0h60v60h-60zm60 0h60v60h-60zm60 0h60v60h-60zm60 0h60v60h-60zm60 0h60v60h-60zm60 0h60v60h-60zm60 0h60v60h-60zm60 0h60v60h-60zM0 240h60v60H0zm60 0h60v60H60zm60 0h60v60h-60zm60 0h60v60h-60zm60 0h60v60h-60zm60 0h60v60h-60zm60 0h60v60h-60zm60 0h60v60h-60zm60 0h60v60h-60zm60 0h60v60h-60zm60 0h60v60h-60zm60 0h60v60h-60zM0 300h60v60H0zm60 0h60v60H60zm60 0h60v60h-60zm60 0h60v60h-60zm60 0h60v60h-60zm60 0h60v60h-60zm60 0h60v60h-60zm60 0h60v60h-60zm60 0h60v60h-60zm60 0h60v60h-60zm60 0h60v60h-60zm60 0h60v60h-60zM0 360h60v60H0zm60 0h60v60H60zm60 0h60v60h-60zm60 0h60v60h-60zm60 0h60v60h-60zm60 0h60v60h-60zm60 0h60v60h-60zm60 0h60v60h-60zm60 0h60v60h-60zm60 0h60v60h-60zm60 0h60v60h-60zm60 0h60v60h-60z" fill="none" stroke="#68483e" stroke-miterlimit="10" stroke-width="2"/><rect x="15" y="15" width="690" height="390" rx="18" ry="18" fill="none" stroke="#68483e" stroke-miterlimit="10" stroke-width="2"/></g><path d="M150.87 227.22c1.74-.99 3.47-2 5.27-2.88.36-.36.73-.71 1.1-1.05a96.03 96.03 0 0 0-8.75 4.59c.36-.1 1.83-.49 2.39-.66Zm193.52 83.1c-7.46-.56-14.56-3.04-21.94-4.04.18 5.65-4.84 12.69-6.12 18.26-1.6 6.94 1.05 13.93.5 20.83 3.32 8 7.51 15.6 11.25 23.4 2.34 2.68 4.43 5.6 6.72 8.29.4.48 2.5 3.75 3.22 3.76-1.44-.01 4.73-17.34 5.46-18.86.55-15.68 2.1-31.31 2.78-46.98.13-2.86 1.41-4.43-1.87-4.67Z" fill="none"/><path d="M574.76 70.71c-5.83.37-11.33 2.62-16.69 4.78-2.42.97-2.46-.33-4.35-1.81-2.98-2.34-6.34-4.14-9.71-5.84 2.27-4.1 13.6-23.92 5.03-25.47-2.2.1-5.36 2.71-7.28 3.74-7.75 4.13-15.82 8.54-21.05 15.82-2.12 2.96-7.67 3.66-11.11 4.93-23.14 8.72-44.85 20.71-67.26 31.07a414.92 414.92 0 0 0-18.54 9.51c-5.59 3.03-10.55 7.31-15.94 10.7a94.4 94.4 0 0 1-12.04 6.51c-4.01 1.77-6.38 4.13-9.61 7.08a242.37 242.37 0 0 1-30.41 23.7c-3.62 2.39-5.66 4.6-8.6 7.68-5.14 5.38-11.21 8.88-18.56 9.99-4.47.68-8.59 1.19-12.83-.41a156.9 156.9 0 0 0-9.64-3.35 97.04 97.04 0 0 0-21.69-4.22c-12.67-1.17-24.94 1.83-36.03 7.96-3.08 1.62-6.09 4.18-9.53 4.24-4.44.08-7.71 1.97-11.36 4.26-3.58 2.25-6.51 1.69-10.6 1.38-11.49-1.17-20.01 4.27-27.51 12.51-.73.36-1.46.73-2.17 1.12-3.12 1.54-6.21 3.33-9.44 4.61l.64-.22c1.55-.52 3.06-1.13 4.58-1.73-.58.42-1.14.84-1.69 1.29l-.25.1c-.68.29-1.35.6-2.01.91a77.67 77.67 0 0 0-14.02 5.76c.41-.19 2.27-.98 2.77-1.19a53.64 53.64 0 0 1 6.63-2.09 44.3 44.3 0 0 0-7.7 5.83c-8.06 2.48-15.93 6.56-21.87 12.57.8-.71 2.01-1.69 2.92-2.37 4.63-3.41 10.09-5.43 15.61-6.83a131.82 131.82 0 0 0-11.62 8.46l1.2-.85a86.98 86.98 0 0 1 9.68-5.92c-.27.24-.55.48-.81.73.03.14.05.26.06.4-4.18 2.46-8.48 5.25-11.11 9.44-3.19 2.15-6.6 4.65-9.5 7.05a90.71 90.71 0 0 1 7.12-4.65l1.89-.39c-1.02.53-2.03 1.07-3.1 1.5l-1.14.47.31-.11c1-.33 2.03-.67 3-1.06 1.05-.37 2.06-.81 3.09-1.24l.45-.21.96-.27c-4.04 4.32-7.89 9.22-10.51 14.45l.76-1.26c3.68-5.8 8.7-10.64 14.2-14.69 1.19-.46 2.36-.97 3.53-1.5.38.77.87 1.51 1.43 2.21-2.36 1.28-4.75 2.47-7.06 3.84a20.48 20.48 0 0 0-5.85 4.7c-3.11 3.66-5.28 7.99-8.3 11.67l.44-.49c4.43-5.05 8.26-10.77 14.13-14.28 2.35-1.59 4.72-3.3 7.04-4.95.21.26.43.49.65.73-.75.89-1.48 1.8-2.19 2.73l-.2.11a27.65 27.65 0 0 0-7.69 6.34c-1.61 1.9-3.16 3.95-4.84 5.78l.25-.24 2.41-2.38c3.31-2.99 6.3-6.63 9.85-9.34l.06-.04a54.9 54.9 0 0 0-4.24 6.64 136.79 136.79 0 0 0-10.57 11.41 88.2 88.2 0 0 1 9.12-8.58 56.91 56.91 0 0 0-3.27 8.56c-.4 1.5-.83 3-1.12 4.53l-.28 1.29.47-1.53c.36-1.26.84-2.48 1.3-3.7 1.9-4.69 4.5-8.99 7.67-12.87 1.82-1.37 3.67-2.7 5.52-4.05-4.37 5.59-9.96 10.83-12.72 17.43.08-.15.43-.89.73-1.38 3.77-6.45 9.89-11 15.06-16.28l.13.07a76.63 76.63 0 0 0-10.74 14.3l1.72-2.47a60.03 60.03 0 0 1 8.81-9.29c-1 1.23-2.01 2.43-3.06 3.61-.81.95-2.03 2.22-2.82 3.06.79-.76 1.97-1.83 2.8-2.65l1.24-1.23-1.08 1.47c-.57.52-1.11 1.08-1.59 1.66-3.02 3.54-5.07 7.64-7.96 11.24l-.35.44c3.38-3.73 6.33-7.99 10.06-11.37a55.72 55.72 0 0 0-4.88 11.69c-.4 1.51-.83 3-1.12 4.53-.44 2.06-.31 1.31.19-.23.36-1.26.84-2.48 1.3-3.7.5-1.25 1.06-2.47 1.67-3.67 2.29-2.3 4.47-4.74 6.57-7.22a38.35 38.35 0 0 0-2.48 6.87l-.2.78c.27-.91.74-2.21 1.12-3.16 1.89-4.64 4.97-8.65 8.42-12.22a56.74 56.74 0 0 0-4.79 11.53c-.4 1.51-.83 3-1.12 4.53l-.28 1.3.47-1.53c.36-1.26.84-2.48 1.3-3.7a49.01 49.01 0 0 1 6.51-11.39c-.34.65-.63 1.3-.87 1.96-1.44 3.73-2.05 7.61-3.18 11.41-.22.72-.54 1.72-.77 2.36 2.63-6.4 4.31-13.36 8.82-18.79l1.16-1.63c.4-.15.8-.29 1.19-.46a59.5 59.5 0 0 0-8.12 16.62l.54-1.36c.41-1.12.95-2.2 1.43-3.28a52.94 52.94 0 0 1 10.24-13.97l.53-.32c-.99 3.5-1.61 7.08-2.78 10.52l-.17.52c1.63-3.95 2.83-8.2 4.64-12.07.16-.11.33-.21.49-.33-.4 1.72-.81 3.44-1.3 5.14-.19.62-.37 1.23-.58 1.84l-.17.52c1.12-2.66 1.99-5.52 3.05-8.22 8.86-6.55 15.98-18.2 26.87-20.2a106.8 106.8 0 0 0-5.13 16.68c-3.88 16.83-6.37 33.98-4.07 51.2 1.05 7.86 2.82 15.59 4.46 23.35-1.75 8.12-3.55 14.92-1.7 23.17 1 4.48 1.65 7.65.13 11.98a28.4 28.4 0 0 0-1.77 11.1c.28 4.27 1.33 7.89 1.17 12.29-.77 12.09-1.08 24.27-4.56 35.95-2 6.35-3.92 13.21-2.18 19.81.81 3.09.8 6.34.27 9.49h16.13c-.16-2.27-.12-4.46-.37-6.79 1.8-4.11 2.11-7.28 2.17-11.75.23-17.41.14-35.07 3.46-52.23 2.31-4.06 3.64-8.6 5.04-13.03.09-4.03.28-6.12 2.24-9.72 3.85-7.04 7.39-14.25 11.46-21.18 3.76-6.41 7.91-14.61 15.64-16.74 2.82-.77 6.79-4.85 8.86-3.09 2.58 2.19 5.79 3.49 8.9 4.72 1.97.77 3.86 1.29 5.22 3.02 1.28 1.63.92 2.07 2.85 3.11a10.76 10.76 0 0 1 5.55 7.05 56.64 56.64 0 0 1 1.49 21.53c-.44 3.61-2.54 7.39-2.37 11 .17 3.55 2.02 6.6 2.93 9.96 1.96 7.21 8.08 13.41 11.98 19.71 6.79 10.89 11.53 22.95 16.79 34.61.53 2.73 4 2.79 2.73 5.96-1.97 4.94-3.06 11.9-9 13.59-.23.07-.46.16-.67.28h31.21c1.22-8.68 2.95-17.33 6.74-25.25 3.66-7.52 7.49-16.74 7.49-25.28s4.24-15.41 7.67-22.74c3.58-7.62 6.7-15.37 9.02-23.47 1.39-4.86 2.82-15.89 8.48-17.88 13.53-3.18 22.2 4.81 30.82 13.9 2.5 2.64 8.91 3.39 12.38 4.74 3.62 1.4 7.17 2.97 10.67 4.67 12.43 6.01 24.05 13.53 36.27 19.96 2.47 1.3 1.62 2.36 1.2 4.93-1.24 7.63-4.34 14.79-6.03 22.31-2.04 9.07-4.36 18.07-5.93 27.25-2.04 3.7-3.32 6.25-7.08 8.32-2.84 1.56-7.23.32-10.16-.49-4.51-1.25-6.41-2.27-9.71 1.66a29.38 29.38 0 0 0-4.3 7.38h47.86c.81-1.67 1.34-3.54 2-5.59 1.27-3.94.63-8.53 1.03-12.68.37-3.8.99-7.57 1.76-11.31 2.7-11.93 5.24-24.04 9.57-35.5 1.71-4.22 1.41-7.66 1.73-12.18.25-3.52.43-4.12-2-6.83-3.84-4.3-8.28-8.01-12.81-11.57a31.4 31.4 0 0 1-7.94-8.85c-1.97-3.12-3.61-8.09-6.59-10.18-3.2-2.26-6.42-4.7-7.82-8.51.29-22.68 4.45-45.3 3.73-68.03-.33-10.24-5-19.88-10.24-28.52.39-6.19.04-12.42.59-18.6.46-4.94 1.26-6.26 5.65-8.55 3.29-1.72 6.41-2.79 8.88-5.63 4.38-5.03 8.11-10.77 13.65-14.65 2.36-1.65 6.23-4.45 8.8-2.54 2.75 2.06 4.99 4.69 7.04 7.43 7.31 9.72 15.22 19.02 21.44 29.5.25 3.7.51 7.67 2.16 11.05 2.68 5.51 11.31 10.39 17.1 11.46 1.37.33 2.06-.13 2.88-1.12 1.12-1.36 1.32.57 2.87.66 3.1.17 6.61-3.13 8.86-5 5.8-4.81 10.26-11.01 13.71-17.67 3.48-6.7-.75-13.35-1.78-20.26-1.37-9.22-2.53-18.49-3.78-27.73-1.07-7.97-1.85-16.35.58-24.17 1.29-4.14-.83-9.4-2.17-13.46a83.34 83.34 0 0 0-1.93-5.28c.36-1.43 1.17-2.66 1.66-4.04.79-2.25-.32-2.87 1.91-4.21 4.27-2.37 7.15-6.31 10.26-9.93 1.33-1.46 2.63-3.09 2.98-5.1.47-2.69-1.89-1.82-3.82-1.7ZM156.15 224.34c-1.8.88-3.53 1.89-5.27 2.88-.55.17-2.02.56-2.39.66a97.36 97.36 0 0 1 8.75-4.59l-1.1 1.05Zm190.12 90.65c-.69 15.68-2.23 31.3-2.78 46.98-.73 1.52-6.91 18.85-5.46 18.86-.72-.01-2.82-3.28-3.22-3.76-2.29-2.69-4.38-5.61-6.72-8.29-3.75-7.8-7.93-15.4-11.25-23.4.55-6.9-2.1-13.9-.5-20.83 1.28-5.57 6.3-12.62 6.12-18.26 7.39.99 14.49 3.48 21.94 4.04 3.28.24 2 1.81 1.87 4.67Z" fill="#543e35"/><path d="M172.89 226.43a6.56 6.56 0 0 1-4.44 1.72 4.25 4.25 0 0 1-3.02-1.07 3.8 3.8 0 0 1-1.15-2.92l-.07-36.16-13.26 32.86a13 13 0 0 1-4.24.82c-.93 0-1.9-.18-2.92-.55a345.06 345.06 0 0 1-14.51-33.14l.07 30.32c0 3.76.37 6.71 1.11 8.87a4.2 4.2 0 0 1-2.85.96c-1.76 0-2.64-1.05-2.64-3.16v-36.64c0-3.94-.16-6.83-.49-8.66.79-.69 2.55-1.03 5.28-1.03.93 0 1.7.12 2.33.34.62.23 1.19.6 1.7 1.1 5.6 13.25 10.48 24.73 14.65 34.44 3.56-8.85 8.12-20.56 13.68-35.13 1.34-.5 2.94-.76 4.79-.76 1.16 0 2.21.18 3.16.55.95.37 1.49.8 1.63 1.31v37.74c0 3.44.39 6.17 1.18 8.18Zm43.33-2.75c0 1.19-.53 2.2-1.6 3.02a6.48 6.48 0 0 1-4.1 1.24c-2.27 0-3.98-.77-5.14-2.3-1.16-1.54-1.76-4.02-1.81-7.46a18.45 18.45 0 0 1-5.69 7.15 13.48 13.48 0 0 1-8.26 2.68c-2.68 0-4.85-.72-6.49-2.17-1.64-1.44-2.47-3.4-2.47-5.88a8.96 8.96 0 0 1 3.33-7.15c2.22-1.88 5.07-3.3 8.54-4.26s7.01-1.4 10.62-1.31v-1.72c0-3.99-.56-6.92-1.67-8.8-1.11-1.88-2.96-2.82-5.55-2.82-1.76 0-3.18.41-4.27 1.24-1.09.82-1.63 2.18-1.63 4.06 0 1.06.21 2.04.62 2.96a4.1 4.1 0 0 0 2.08 2.06c-.46.5-1.08.88-1.84 1.13-.76.25-1.56.38-2.4.38a5.87 5.87 0 0 1-4.48-1.82 6.26 6.26 0 0 1-1.7-4.43c0-2.7 1.25-4.78 3.75-6.22s5.95-2.17 10.34-2.17c5 0 8.67 1.18 11 3.54 2.34 2.36 3.51 6.13 3.51 11.31v12.65c0 2.43.79 3.64 2.36 3.64.37 0 .75-.09 1.15-.28.39-.18.71-.46.94-.82.56.73.83 1.58.83 2.54Zm-18.43-2.51a14.27 14.27 0 0 0 3.99-4.85 13.7 13.7 0 0 0 1.6-6.46 24.15 24.15 0 0 0-4.93.24c-1.67.25-3.1.65-4.3 1.2a9.24 9.24 0 0 0-3.78 2.78 6.51 6.51 0 0 0-1.35 4.09c0 1.38.34 2.52 1.01 3.44.67.92 1.7 1.38 3.09 1.38 1.53 0 3.09-.61 4.69-1.82Zm55.78 5.26a6.3 6.3 0 0 1-4.37 1.72c-1.3 0-2.36-.36-3.19-1.07a3.64 3.64 0 0 1-1.25-2.92v-17.94c-.05-3.8-.5-6.61-1.35-8.42-.86-1.81-2.42-2.72-4.69-2.72-1.53 0-2.93.57-4.2 1.72s-2.3 2.9-3.09 5.26a28.2 28.2 0 0 0-1.18 8.83c0 5.41.07 8.98.21 10.73a16.8 16.8 0 0 0 1.11 4.88c-.46.41-1.08.79-1.84 1.13s-1.59.52-2.46.52a4.57 4.57 0 0 1-3.26-1.17 4.13 4.13 0 0 1-1.25-3.16v-23.44a7.16 7.16 0 0 0-.49-2.75c-.28-.55-.74-.82-1.39-.82-.88 0-1.48.32-1.81.96-.6-.87-.9-1.74-.9-2.61 0-1.19.44-2.17 1.32-2.92.88-.76 2.11-1.13 3.68-1.13a5.6 5.6 0 0 1 4.62 2.03c1.09 1.35 1.63 3.36 1.63 6.02v.34c.93-2.7 2.4-4.78 4.41-6.22a12.24 12.24 0 0 1 7.32-2.17c3.79 0 6.61 1.17 8.44 3.51 1.83 2.34 2.74 5.84 2.74 10.52v13.13c.09 3.76.51 6.49 1.25 8.18Zm36.52-6.94c0 .55-.16 1.22-.49 1.99a9.49 9.49 0 0 1-4.69 4.95 17.7 17.7 0 0 1-8.09 1.72c-5.28 0-9.43-1.6-12.46-4.81-3.03-3.21-4.55-7.77-4.55-13.68s1.48-10.37 4.44-13.65c2.96-3.28 7.2-4.92 12.71-4.92 4.03 0 7.29.88 9.79 2.65 2.5 1.76 3.75 4.27 3.75 7.53s-1.38 5.99-4.13 7.8c-2.76 1.81-6.49 2.72-11.21 2.72-2.68 0-5.07-.11-7.15-.34.32 4.26 1.41 7.31 3.26 9.14 1.85 1.83 4.37 2.75 7.57 2.75 2.5 0 4.64-.5 6.42-1.51a8.17 8.17 0 0 0 3.71-4.06c.74.32 1.11.89 1.11 1.72Zm-19.82-21.76c-1.55 2.54-2.33 6.15-2.33 10.83 1.2.14 2.43.21 3.68.21 3.15 0 5.72-.62 7.71-1.86 1.99-1.24 2.98-3.51 2.98-6.81 0-2.24-.53-3.84-1.6-4.78a5.88 5.88 0 0 0-4.03-1.41c-2.73 0-4.87 1.27-6.42 3.82Zm29.4 43.21a6.51 6.51 0 0 1-3.54-6.05c0-1.65.51-2.97 1.53-3.95 1.02-.99 2.34-1.48 3.96-1.48s2.85.44 3.54 1.31a5.35 5.35 0 0 0-2.01 4.47c0 1.6.51 2.86 1.53 3.78 1.02.92 2.43 1.38 4.24 1.38 3.38 0 5.91-1.35 7.6-4.06 1.69-2.7 2.53-6.53 2.53-11.48v-4.95a10.4 10.4 0 0 1-3.99 5.5 11.96 11.96 0 0 1-6.91 1.92c-3.89 0-6.91-1.37-9.06-4.12-2.15-2.75-3.23-7.08-3.23-12.99s1.27-10.23 3.82-13.78c2.55-3.55 6.76-5.33 12.64-5.33a27 27 0 0 1 8.02 1.17c2.52.78 4.59 1.9 6.21 3.37v28.53c0 12.51-5.95 18.77-17.84 18.77-3.66 0-6.67-.66-9.03-1.99Zm17.11-21.07c1.41-2.5 2.14-5.72 2.19-9.66l.07-14.3a7 7 0 0 0-2.78-1.48 13.04 13.04 0 0 0-3.68-.51c-3.33 0-5.61 1.48-6.84 4.43-1.23 2.96-1.84 7.14-1.84 12.55 0 4.63.5 7.91 1.49 9.83.99 1.93 2.65 2.89 4.96 2.89a6.9 6.9 0 0 0 6.42-3.75Zm46.97-.38c0 .55-.16 1.22-.49 1.99a9.49 9.49 0 0 1-4.69 4.95 17.7 17.7 0 0 1-8.09 1.72c-5.28 0-9.43-1.6-12.46-4.81-3.03-3.21-4.55-7.77-4.55-13.68s1.48-10.37 4.44-13.65c2.96-3.28 7.2-4.92 12.71-4.92 4.03 0 7.29.88 9.79 2.65 2.5 1.76 3.75 4.27 3.75 7.53s-1.38 5.99-4.13 7.8c-2.75 1.81-6.49 2.72-11.21 2.72-2.68 0-5.07-.11-7.15-.34.32 4.26 1.41 7.31 3.26 9.14 1.85 1.83 4.37 2.75 7.57 2.75 2.5 0 4.64-.5 6.42-1.51a8.17 8.17 0 0 0 3.71-4.06c.74.32 1.11.89 1.11 1.72Zm-19.82-21.76c-1.55 2.54-2.33 6.15-2.33 10.83 1.2.14 2.43.21 3.68.21 3.15 0 5.72-.62 7.71-1.86 1.99-1.24 2.99-3.51 2.99-6.81 0-2.24-.53-3.84-1.6-4.78a5.88 5.88 0 0 0-4.03-1.41c-2.73 0-4.87 1.27-6.42 3.82Zm42.94 29.39c.79-2.11 1.18-5.06 1.18-8.87l-.07-29.63c0-3.62-.14-6.6-.42-8.94.28-.28.75-.5 1.42-.69a7.86 7.86 0 0 1 2.05-.28c1.06 0 1.74.14 2.01.41 2.64 3.67 5.39 7.45 8.26 11.34 5.28 7.24 9.31 12.86 12.12 16.84a89.1 89.1 0 0 1 6.21 9.9l-1.87-32.17c-.09-1.7.14-3.11.69-4.23a3.34 3.34 0 0 1 2.57-1.96 5.35 5.35 0 0 1 3.26.62c-.23.92-.37 2.05-.42 3.4a98 98 0 0 0-.07 3.61v31.97c0 1.74.02 3.35.07 4.81.05 1.47.14 2.75.28 3.85-.23.28-.68.5-1.35.69-.67.18-1.35.27-2.05.27-.74 0-1.34-.11-1.81-.34a245.33 245.33 0 0 1-15.83-20.28 221.13 221.13 0 0 1-10.69-16.77l1.6 33a4.02 4.02 0 0 1-1.08 3.2 3.77 3.77 0 0 1-2.81 1.27 5.67 5.67 0 0 1-3.26-1.03Zm48.98-41.59a4.52 4.52 0 0 1 0-6.43c.9-.89 2-1.34 3.3-1.34s2.33.45 3.23 1.34c.9.89 1.35 1.98 1.35 3.27s-.45 2.29-1.35 3.16c-.9.87-1.98 1.31-3.23 1.31s-2.4-.44-3.3-1.31Zm8.5 40.91a6.46 6.46 0 0 1-4.37 1.72 4.36 4.36 0 0 1-3.05-1.07 3.72 3.72 0 0 1-1.18-2.92l-.07-23.24c0-3.34-.37-6.1-1.11-8.25a6.79 6.79 0 0 1 4.24-1.65c1.25 0 2.28.36 3.09 1.07a3.69 3.69 0 0 1 1.21 2.92l.14 23.24c0 3.58.37 6.3 1.11 8.18Zm-.38 14.98a4.93 4.93 0 0 1-2.12-4.13c0-1.1.36-2.05 1.08-2.85.72-.8 1.72-1.2 3.02-1.2.65 0 1.17.13 1.56.38.39.25.75.65 1.08 1.2-.6.96-.9 1.88-.9 2.75 0 1.01.27 1.73.8 2.17.53.44 1.19.65 1.98.65 1.62 0 2.67-1.02 3.16-3.06.49-2.04.73-5.05.73-9.04l.07-27.29c0-3.39-.39-6.14-1.18-8.25a6.86 6.86 0 0 1 4.3-1.65c1.25 0 2.28.35 3.09 1.07a3.67 3.67 0 0 1 1.21 2.92v34.51c0 3.94-.91 7.16-2.74 9.66s-4.8 3.75-8.92 3.75c-2.73 0-4.8-.53-6.21-1.58Zm10.62-56.68c-.86-.85-1.28-1.89-1.28-3.13s.43-2.28 1.28-3.13c.86-.85 1.91-1.27 3.16-1.27s2.3.42 3.16 1.27c.86.85 1.28 1.89 1.28 3.13s-.43 2.28-1.28 3.13c-.86.85-1.91 1.27-3.16 1.27s-2.3-.42-3.16-1.27Zm48.02 41.69a6.2 6.2 0 0 1-4.31 1.72c-1.3 0-2.35-.37-3.16-1.1a3.7 3.7 0 0 1-1.21-2.89v-17.94c0-3.9-.45-6.77-1.35-8.63-.9-1.86-2.49-2.79-4.76-2.79-1.48 0-2.86.59-4.13 1.75-1.27 1.17-2.3 2.96-3.09 5.36a29.15 29.15 0 0 0-1.18 8.97c0 5.41.06 8.98.17 10.73.12 1.74.47 3.37 1.08 4.88a6.16 6.16 0 0 1-4.31 1.65c-1.3 0-2.35-.39-3.16-1.17a4.17 4.17 0 0 1-1.21-3.16l-.07-42.9c0-1.28.38-2.26 1.15-2.92.76-.66 1.79-1 3.09-1 .93 0 1.79.17 2.6.52.81.34 1.47.72 1.98 1.13a26.88 26.88 0 0 0-1.04 5.64c-.19 2.11-.3 4.84-.35 8.18v6.05c.97-2.38 2.4-4.22 4.27-5.5a11.59 11.59 0 0 1 6.7-1.92c3.79 0 6.6 1.17 8.4 3.51 1.8 2.34 2.71 5.84 2.71 10.52l.07 13.13c0 3.58.37 6.3 1.11 8.18Zm42.21-2.41c0 1.24-.43 2.22-1.28 2.96-.86.73-2.07 1.1-3.65 1.1-2.04 0-3.6-.66-4.69-1.99-1.09-1.33-1.63-3.32-1.63-5.98v-.14a12.83 12.83 0 0 1-4.34 6.12 11.64 11.64 0 0 1-7.12 2.13c-3.8 0-6.56-1.08-8.3-3.23-1.74-2.15-2.6-5.77-2.6-10.86l-.07-13.13c0-3.53-.37-6.28-1.11-8.25a6.58 6.58 0 0 1 4.37-1.65c1.3 0 2.35.35 3.16 1.07a3.68 3.68 0 0 1 1.22 2.92v17.94c0 4.12.42 7.07 1.25 8.83.83 1.76 2.34 2.65 4.51 2.65 1.48 0 2.85-.58 4.1-1.75 1.25-1.17 2.26-2.97 3.02-5.4a30.52 30.52 0 0 0 1.15-9.01c0-5.41-.07-8.99-.21-10.76a17 17 0 0 0-1.11-4.92 6.95 6.95 0 0 1 4.37-1.58 4.13 4.13 0 0 1 4.37 4.33l.07 23.44c0 1.28.15 2.19.45 2.72.3.53.78.79 1.42.79.83 0 1.43-.3 1.8-.89.56.78.83 1.63.83 2.54Zm7.18-38.49a4.52 4.52 0 0 1 0-6.43c.9-.89 2-1.34 3.3-1.34s2.33.45 3.23 1.34c.9.89 1.35 1.98 1.35 3.27s-.45 2.29-1.35 3.16-1.98 1.31-3.23 1.31-2.4-.44-3.3-1.31Zm8.5 40.91a6.46 6.46 0 0 1-4.37 1.72 4.36 4.36 0 0 1-3.05-1.07 3.72 3.72 0 0 1-1.18-2.92l-.07-23.24c0-3.34-.37-6.1-1.11-8.25a6.79 6.79 0 0 1 4.24-1.65c1.25 0 2.28.36 3.09 1.07a3.69 3.69 0 0 1 1.21 2.92l.14 23.24c0 3.58.37 6.3 1.11 8.18Zm9.8-.49c-2.22-1.47-3.33-3.44-3.33-5.91 0-1.24.36-2.29 1.08-3.16.72-.87 1.84-1.31 3.37-1.31.28 0 .74.05 1.39.14a6.2 6.2 0 0 0 0 3.3 6.6 6.6 0 0 0 2.47 4.47c1.41 1.15 3.34 1.72 5.8 1.72 2.18 0 3.93-.4 5.28-1.2a3.87 3.87 0 0 0 2.01-3.54c0-1.05-.31-1.98-.94-2.78a8.19 8.19 0 0 0-2.33-2.03 54.13 54.13 0 0 0-5.63-2.82 59.92 59.92 0 0 1-5.94-3.06 12.37 12.37 0 0 1-3.75-3.61 9.6 9.6 0 0 1-1.56-5.57c0-3.21 1.25-5.6 3.75-7.18s5.67-2.37 9.51-2.37 6.87.58 9.1 1.75c2.22 1.17 3.33 2.85 3.33 5.05 0 1.01-.29 1.87-.87 2.58-.58.71-1.49 1.09-2.74 1.13-.23.05-.53.07-.9.07-.23 0-.67-.04-1.32-.14.05-.28.07-.69.07-1.24 0-1.01-.14-1.76-.42-2.27a4.54 4.54 0 0 0-2.12-2.99c-1.13-.71-2.6-1.07-4.41-1.07s-3.16.34-4.34 1.03a3.41 3.41 0 0 0-1.77 3.16c0 1.28.38 2.38 1.15 3.3s1.7 1.7 2.81 2.34 2.68 1.44 4.72 2.41a94.17 94.17 0 0 1 6.32 3.2 13.4 13.4 0 0 1 3.75 3.27 7.75 7.75 0 0 1 1.67 5.02c0 2.93-1.24 5.42-3.71 7.46-2.48 2.04-6.35 3.06-11.63 3.06-4.35 0-7.64-.73-9.86-2.2Z" fill="#fff"/></svg>
