<svg xmlns="http://www.w3.org/2000/svg" xmlns:xlink="http://www.w3.org/1999/xlink" viewBox="0 0 720 420"><defs><linearGradient id="b" x1="361" y1="421" x2="361" y2="1" gradientUnits="userSpaceOnUse"><stop offset="0" stop-color="#e2e8f0"/><stop offset="1" stop-color="#f8fafc"/></linearGradient><linearGradient id="d" x1="360" y1="300" x2="360" y2="120" gradientUnits="userSpaceOnUse"><stop offset="0" stop-color="#409794"/><stop offset="1" stop-color="#50bdb9"/></linearGradient><clipPath id="a"><path fill="none" d="M1 1h720v420H1z"/></clipPath><symbol id="c" viewBox="0 0 722 422"><g clip-path="url(#a)"><path fill="url(#b)" d="M1 1h720v420H1z"/><path fill="none" stroke="#e2e8f0" stroke-miterlimit="10" stroke-width="2" d="M1 1h60v60H1zm60 0h60v60H61zm60 0h60v60h-60zm60 0h60v60h-60zm60 0h60v60h-60zm60 0h60v60h-60zm60 0h60v60h-60zm60 0h60v60h-60zm60 0h60v60h-60zm60 0h60v60h-60zm60 0h60v60h-60zm60 0h60v60h-60zM1 61h60v60H1zm60 0h60v60H61zm60 0h60v60h-60zm60 0h60v60h-60zm60 0h60v60h-60zm60 0h60v60h-60zm60 0h60v60h-60zm60 0h60v60h-60zm60 0h60v60h-60zm60 0h60v60h-60zm60 0h60v60h-60zm60 0h60v60h-60zM1 121h60v60H1zm60 0h60v60H61zm60 0h60v60h-60zm60 0h60v60h-60zm60 0h60v60h-60zm60 0h60v60h-60zm60 0h60v60h-60zm60 0h60v60h-60zm60 0h60v60h-60zm60 0h60v60h-60zm60 0h60v60h-60zm60 0h60v60h-60zM1 181h60v60H1zm60 0h60v60H61zm60 0h60v60h-60zm60 0h60v60h-60zm60 0h60v60h-60zm60 0h60v60h-60zm60 0h60v60h-60zm60 0h60v60h-60zm60 0h60v60h-60zm60 0h60v60h-60zm60 0h60v60h-60zm60 0h60v60h-60zM1 241h60v60H1zm60 0h60v60H61zm60 0h60v60h-60zm60 0h60v60h-60zm60 0h60v60h-60zm60 0h60v60h-60zm60 0h60v60h-60zm60 0h60v60h-60zm60 0h60v60h-60zm60 0h60v60h-60zm60 0h60v60h-60zm60 0h60v60h-60zM1 301h60v60H1zm60 0h60v60H61zm60 0h60v60h-60zm60 0h60v60h-60zm60 0h60v60h-60zm60 0h60v60h-60zm60 0h60v60h-60zm60 0h60v60h-60zm60 0h60v60h-60zm60 0h60v60h-60zm60 0h60v60h-60zm60 0h60v60h-60zM1 361h60v60H1zm60 0h60v60H61zm60 0h60v60h-60zm60 0h60v60h-60zm60 0h60v60h-60zm60 0h60v60h-60zm60 0h60v60h-60zm60 0h60v60h-60zm60 0h60v60h-60zm60 0h60v60h-60zm60 0h60v60h-60zm60 0h60v60h-60z"/><rect x="16" y="16" width="690" height="390" rx="18" fill="none" stroke="#e2e8f0" stroke-miterlimit="10" stroke-width="2"/></g></symbol></defs><use width="722" height="422" transform="translate(-1 -1)" xlink:href="#c"/><path d="M360 300a90 90 0 1 1 90-90 90 90 0 0 1-90 90Zm-8.44-90a7.55 7.55 0 0 0 3.76 6.71l33.75 22.5a7.74 7.74 0 0 0 11.39-2 8.14 8.14 0 0 0-2-11.71l-30-20v-43.31a8.49 8.49 0 0 0-8.76-8.44 8.62 8.62 0 0 0-8.43 8.44Z" fill="url(#d)"/></svg>
