<svg xmlns="http://www.w3.org/2000/svg" xmlns:xlink="http://www.w3.org/1999/xlink" viewBox="0 0 720 420"><defs><linearGradient id="b" x1="361" y1="421" x2="361" y2="1" gradientTransform="matrix(1, 0, 0, 1, 0, 0)" gradientUnits="userSpaceOnUse"><stop offset="0" stop-color="#f8fafc"/><stop offset="1" stop-color="#fff"/></linearGradient><linearGradient id="e" x1="249" y1="1543.53" x2="471" y2="1543.53" gradientTransform="translate(0 1862) scale(1 -1)" gradientUnits="userSpaceOnUse"><stop offset=".25" stop-color="#e6ebed"/><stop offset=".7" stop-color="#e4e9ec"/><stop offset=".87" stop-color="#dde4e7"/><stop offset=".98" stop-color="#d2dadf"/><stop offset="1" stop-color="#cfd8dd"/></linearGradient><linearGradient id="f" x1="360.53" y1="1513.32" x2="360.53" y2="1576.28" gradientTransform="translate(0 1862) scale(1 -1)" gradientUnits="userSpaceOnUse"><stop offset="0" stop-color="#4e5e67"/><stop offset=".04" stop-color="#5b6a72"/><stop offset=".19" stop-color="#859198"/><stop offset=".35" stop-color="#a8b1b7"/><stop offset=".51" stop-color="#c3cbd0"/><stop offset=".67" stop-color="#d7dde1"/><stop offset=".83" stop-color="#e2e7ec"/><stop offset="1" stop-color="#e6ebef"/></linearGradient><clipPath id="a"><path fill="none" d="M1 1h720v420H1z"/></clipPath><clipPath id="d"><path fill="none" d="M0 0h720v420H0z"/></clipPath><symbol id="c" viewBox="0 0 722 422"><g clip-path="url(#a)"><path fill="url(#b)" d="M1 1h720v420H1z"/><path fill="none" stroke="#f8fafc" stroke-miterlimit="10" stroke-width="2" d="M1 1h60v60H1zm60 0h60v60H61zm60 0h60v60h-60zm60 0h60v60h-60zm60 0h60v60h-60zm60 0h60v60h-60zm60 0h60v60h-60zm60 0h60v60h-60zm60 0h60v60h-60zm60 0h60v60h-60zm60 0h60v60h-60zm60 0h60v60h-60zM1 61h60v60H1zm60 0h60v60H61zm60 0h60v60h-60zm60 0h60v60h-60zm60 0h60v60h-60zm60 0h60v60h-60zm60 0h60v60h-60zm60 0h60v60h-60zm60 0h60v60h-60zm60 0h60v60h-60zm60 0h60v60h-60zm60 0h60v60h-60zM1 121h60v60H1zm60 0h60v60H61zm60 0h60v60h-60zm60 0h60v60h-60zm60 0h60v60h-60zm60 0h60v60h-60zm60 0h60v60h-60zm60 0h60v60h-60zm60 0h60v60h-60zm60 0h60v60h-60zm60 0h60v60h-60zm60 0h60v60h-60zM1 181h60v60H1zm60 0h60v60H61zm60 0h60v60h-60zm60 0h60v60h-60zm60 0h60v60h-60zm60 0h60v60h-60zm60 0h60v60h-60zm60 0h60v60h-60zm60 0h60v60h-60zm60 0h60v60h-60zm60 0h60v60h-60zm60 0h60v60h-60zM1 241h60v60H1zm60 0h60v60H61zm60 0h60v60h-60zm60 0h60v60h-60zm60 0h60v60h-60zm60 0h60v60h-60zm60 0h60v60h-60zm60 0h60v60h-60zm60 0h60v60h-60zm60 0h60v60h-60zm60 0h60v60h-60zm60 0h60v60h-60zM1 301h60v60H1zm60 0h60v60H61zm60 0h60v60h-60zm60 0h60v60h-60zm60 0h60v60h-60zm60 0h60v60h-60zm60 0h60v60h-60zm60 0h60v60h-60zm60 0h60v60h-60zm60 0h60v60h-60zm60 0h60v60h-60zm60 0h60v60h-60zM1 361h60v60H1zm60 0h60v60H61zm60 0h60v60h-60zm60 0h60v60h-60zm60 0h60v60h-60zm60 0h60v60h-60zm60 0h60v60h-60zm60 0h60v60h-60zm60 0h60v60h-60zm60 0h60v60h-60zm60 0h60v60h-60zm60 0h60v60h-60z"/><rect x="16" y="16" width="690" height="390" rx="18" ry="18" fill="none" stroke="#f8fafc" stroke-miterlimit="10" stroke-width="2"/></g></symbol></defs><use width="722" height="422" transform="translate(-1 -1)" xlink:href="#c"/><g clip-path="url(#d)"><path d="M446.4 442.27a241.72 241.72 0 0 1-171.73 0L256 329.72a294.28 294.28 0 0 0 209.07 0L446.4 442.27Z" fill="#8c6143"/><path d="M271.02 426.4a271.2 271.2 0 0 0 11.03 5.31l-1.66-11.17c-3.77-1.7-7.53-3.49-11.26-5.38l1.89 11.24Zm180.91-11.24c-3.58.94-7.19 1.81-10.85 2.59l-1.66 11.17c3.57-.75 7.12-1.59 10.62-2.51l1.89-11.24Z" fill="#d6a57c"/><path d="M439.43 428.91a277.8 277.8 0 0 1-22.43 9.02l1.19-11.03a281.36 281.36 0 0 0 22.89-9.16l-1.66 11.17Z" fill="#c4926e"/><path d="m348.25 403.29.24 10.9a272.04 272.04 0 0 0 24.02 2.72l.24-10.9c-8.12-.54-16.3-1.44-24.5-2.72Zm49.03-2.25-.72 10.94c7.9-.19 15.72-.73 23.43-1.63l1.19-11.03a257.9 257.9 0 0 1-23.9 1.72Zm-97.7-4.48 1.19 11.03a280.65 280.65 0 0 0 23.91 7.13l-.72-10.94a291.32 291.32 0 0 1-24.38-7.22Z" fill="#d6a57c"/><path d="M348.49 414.19c-8 .54-15.95.71-23.81.54l-.72-10.94c8.02.2 16.12.04 24.29-.5l.24 10.9Z" fill="#c4926e"/><path d="M266.3 398.29c3.85 1.93 7.72 3.76 11.61 5.5l-1.66-11.16a302.17 302.17 0 0 1-11.83-5.59l1.88 11.25Z" fill="#d6a57c"/><path d="M300.78 407.59a238.6 238.6 0 0 1-22.87-3.79l-1.66-11.16a244.86 244.86 0 0 0 23.34 3.93l1.19 11.03Z" fill="#c4926e"/><path d="M456.65 387.05a253.56 253.56 0 0 1-11.42 2.8l-1.66 11.16c3.77-.81 7.5-1.72 11.19-2.71l1.89-11.25Z" fill="#d6a57c"/><path d="M443.58 401a288.86 288.86 0 0 1-23.59 9.35l1.19-11.03a298.18 298.18 0 0 0 24.05-9.48l-1.66 11.17Zm-47.02 10.98a282.64 282.64 0 0 1-24.05 4.93l.24-10.9a281.96 281.96 0 0 0 24.53-4.97l-.72 10.94Z" fill="#c4926e"/><path d="m347.65 376.03.24 10.9c8.44 1.3 16.86 2.2 25.22 2.73l.24-10.9c-8.52-.52-17.1-1.43-25.7-2.73Zm51.43-2.35-.72 10.94a266 266 0 0 0 24.61-1.85l1.19-11.03a266.3 266.3 0 0 1-25.09 1.94Zm-102.48-4.69 1.2 11.03a300.01 300.01 0 0 0 25.09 7.35l-.72-10.94a307.25 307.25 0 0 1-25.57-7.44Z" fill="#d6a57c"/><path d="M347.89 386.93c-8.4.53-16.75.67-25.01.43l-.72-10.94c8.42.26 16.92.13 25.49-.39l.24 10.9Z" fill="#c4926e"/><path d="M261.58 370.18c4.04 2 8.1 3.9 12.17 5.71l-1.66-11.17a301.33 301.33 0 0 1-12.4-5.79l1.89 11.25Z" fill="#d6a57c"/><path d="M297.79 380.01c-8.14-1-16.16-2.38-24.04-4.12l-1.66-11.17c8.03 1.8 16.21 3.22 24.5 4.26l1.2 11.03Z" fill="#c4926e"/><path d="M461.37 358.93c-3.96 1.1-7.95 2.1-11.98 3l-1.66 11.17c3.96-.89 7.88-1.86 11.76-2.92l1.88-11.25Z" fill="#d6a57c"/><path d="M447.72 373.1a299.89 299.89 0 0 1-24.75 9.67l1.19-11.03a312.35 312.35 0 0 0 25.22-9.81l-1.66 11.17Zm-49.36 11.52a290.99 290.99 0 0 1-25.24 5.03l.24-10.9c8.56-1.3 17.15-2.99 25.73-5.08l-.72 10.94Z" fill="#c4926e"/><path d="m347.05 348.79.24 10.9a298.74 298.74 0 0 0 26.42 2.73l.24-10.9c-8.92-.5-17.9-1.4-26.9-2.72Zm53.83-2.46-.72 10.94c8.7-.3 17.31-.99 25.8-2.08l1.19-11.03a284.77 284.77 0 0 1-26.27 2.17Zm-107.27-4.93 1.2 11.03c8.72 2.93 17.5 5.45 26.28 7.57l-.72-10.94a317.02 317.02 0 0 1-26.75-7.66Z" fill="#d6a57c"/><path d="M347.29 359.68c-8.8.5-17.55.61-26.21.32l-.72-10.94c8.82.31 17.72.22 26.68-.27l.24 10.9Z" fill="#c4926e"/><path d="m254.98 330.82 1.89 11.24c4.23 2.08 8.48 4.05 12.75 5.91l-1.66-11.16c-4.35-1.89-8.67-3.9-12.98-6Z" fill="#d6a57c"/><path d="M294.81 352.43a264.78 264.78 0 0 1-25.2-4.46l-1.66-11.16a271.4 271.4 0 0 0 25.66 4.59l1.2 11.03Z" fill="#c4926e"/><path d="M466.09 330.82a248.13 248.13 0 0 1-12.56 3.2l-1.66 11.17c4.15-.95 8.26-1.99 12.33-3.13l1.89-11.24Z" fill="#d6a57c"/><path d="M451.87 345.19a314.64 314.64 0 0 1-25.91 10l1.19-11.03a322.03 322.03 0 0 0 26.38-10.14l-1.66 11.17Zm-51.71 12.08a310.35 310.35 0 0 1-26.44 5.14l.24-10.9a307.5 307.5 0 0 0 26.92-5.18l-.72 10.94Z" fill="#c4926e"/><path fill="#b47d56" d="m323.69 455.98-7.21-109.62 7.39-.42 7.21 109.61-7.39.43zm22.06 1.87-2.4-109.17 7.4-.14 2.4 109.17-7.4.14zm-65.29-11.72-16.61-111.8 7.33-.96 16.61 111.82-7.33.94zm21.41 5.94-11.96-110.49 7.37-.7 11.95 110.49-7.36.7zm117.32 0-7.36-.7 11.96-110.49 7.36.7-11.96 110.49zm21.41-5.94-7.32-.94 16.61-111.82 7.32.96-16.61 111.8zm-65.29 11.72-7.4-.14 2.41-109.17 7.4.14-2.41 109.17zm22.07-1.87-7.39-.43 7.21-109.61 7.38.42-7.2 109.62z"/><path d="M347.65 376.03c-8.6-1.3-17.22-2.99-25.84-5.09l-.72-10.94a306.35 306.35 0 0 0 26.33 5.13l.24 10.9Zm-51.05-7.04a313.48 313.48 0 0 1-25.33-9.84l-1.66-11.17a313.6 313.6 0 0 0 25.8 9.98l1.19 11.03Z" fill="#d6a57c"/><path d="M259.22 356.12c3.98 1.1 7.99 2.1 12.05 3.02l-1.66-11.17c-4.13-.93-8.23-1.97-12.27-3.1l1.88 11.25Zm36.18 1.83 1.19 11.03c8.3 1.04 16.71 1.69 25.21 1.96l-.72-10.94c-8.66-.29-17.23-.98-25.68-2.05Z" fill="#c4926e"/><path d="M449.38 361.93a258.79 258.79 0 0 1-24.62 4.29l1.2-11.03a265.41 265.41 0 0 0 25.08-4.43l-1.66 11.16Z" fill="#d6a57c"/><path d="M463.73 344.87a314.73 314.73 0 0 1-12.69 5.89l-1.66 11.16c4.17-1.83 8.32-3.77 12.46-5.81l1.89-11.25Z" fill="#c4926e"/><path d="M399.08 373.68c-8.46.26-17.01.14-25.61-.37l.24-10.9c8.76.51 17.47.61 26.08.33l-.72 10.94Z" fill="#d6a57c"/><path d="m347.41 365.14.24 10.9c8.56-.52 17.18-1.42 25.82-2.72l.24-10.9a299.48 299.48 0 0 1-26.3 2.73Zm52.39-2.4-.72 10.94a304.89 304.89 0 0 0 25.68-7.46l1.2-11.03a308.38 308.38 0 0 1-26.16 7.55Z" fill="#c4926e"/><path d="M348.25 403.29a289.15 289.15 0 0 1-24.65-4.97l-.72-10.94a287 287 0 0 0 25.13 5.01l.24 10.9Zm-48.67-6.73a302.45 302.45 0 0 1-24.17-9.51l-1.66-11.16a305.84 305.84 0 0 0 24.63 9.64l1.19 11.03Z" fill="#d6a57c"/><path d="M263.94 384.23c3.79 1.03 7.61 1.97 11.47 2.81l-1.66-11.16c-3.94-.88-7.84-1.84-11.7-2.9l1.89 11.25Zm34.45 1.31 1.19 11.03c7.9.95 15.92 1.53 24.02 1.75l-.72-10.94a266.9 266.9 0 0 1-24.49-1.83Z" fill="#c4926e"/><path d="M445.23 389.84a246.86 246.86 0 0 1-23.46 3.96l1.2-11.03a254 254 0 0 0 23.92-4.09l-1.66 11.16Z" fill="#d6a57c"/><path d="M459.01 372.99c-4.02 2-8.06 3.9-12.11 5.7l-1.66 11.16a297.5 297.5 0 0 0 11.89-5.61l1.88-11.25Z" fill="#c4926e"/><path d="M397.28 401.04c-8.06.21-16.21.06-24.41-.48l.24-10.9c8.36.53 16.66.67 24.89.44l-.72 10.94Z" fill="#d6a57c"/><path d="m348.01 392.38.24 10.9a277.8 277.8 0 0 0 24.62-2.73l.24-10.9c-8.4 1.29-16.78 2.2-25.1 2.72ZM398 390.1l-.72 10.94a293.96 293.96 0 0 0 24.5-7.23l1.2-11.03a298.4 298.4 0 0 1-24.97 7.33Z" fill="#c4926e"/><path d="M348.85 430.54a272.93 272.93 0 0 1-23.45-4.87l-.72-10.95c7.98 2 15.97 3.64 23.93 4.91l.24 10.9Zm-46.28-6.4a291.5 291.5 0 0 1-23.01-9.18l-1.66-11.16c7.77 3.48 15.6 6.58 23.47 9.31l1.19 11.03Z" fill="#d6a57c"/><path d="M268.66 412.35c3.6.96 7.23 1.83 10.9 2.61l-1.66-11.16c-3.75-.81-7.46-1.71-11.13-2.7l1.89 11.25Zm32.72.76 1.19 11.03c7.51.86 15.13 1.37 22.84 1.53l-.72-10.95c-7.86-.19-15.64-.72-23.31-1.61Z" fill="#c4926e"/><path d="M441.09 417.75a235.87 235.87 0 0 1-22.29 3.64l1.2-11.03c7.71-.9 15.3-2.16 22.75-3.77l-1.66 11.16Z" fill="#d6a57c"/><path d="M454.29 401.1a288.82 288.82 0 0 1-11.55 5.49l-1.66 11.16c3.79-1.71 7.57-3.51 11.32-5.4l1.88-11.25Z" fill="#c4926e"/><path d="M395.48 428.41c-7.66.15-15.41-.04-23.21-.6l.24-10.9c7.96.54 15.87.72 23.69.55l-.72 10.94Z" fill="#d6a57c"/><path d="m348.61 419.63.24 10.9c7.76-.56 15.58-1.47 23.42-2.73l.24-10.9c-8 1.27-15.97 2.18-23.89 2.72Zm47.59-2.17-.72 10.94a281.95 281.95 0 0 0 23.31-7.02l1.2-11.03a285.37 285.37 0 0 1-23.79 7.11Z" fill="#c4926e"/><path d="M360.53 279.1c-56.38-.62-124.02 9.14-109.55 39.37 7.45 15.56-4.43 13.07 7.01 19.39 68.7 37.99 211.13 14.57 211.12-10.17 0-9.45.15-10.6 1.79-19.56 2.33-12.76-38.13-28.75-110.37-29.04Z" fill="url(#e)"/><ellipse cx="360.53" cy="306.46" rx="100.04" ry="24.33" fill="url(#f)"/><path d="M414.89 282.81c-1.17-.17-.54 5.79 0 7.4 1.36.56 8.25 2.07 9.12 1.69-.06-1.74 1.61-6.6 3.54-6.9 0 0-7.05-2.5-12.66-2.18Zm-115 42.98s-1.12 5.12.88 12.07c1.36.56 11.89 2.44 12.76 2.06-.06-1.74 2.49-11.13 4.42-11.44 0 0-9.19-2.36-18.06-2.7Zm-44.23-17.48s-2.92 2.96-1.18 9.63c.92 1.6 4.9 4.46 5.77 4.08.25-3.8 4.2-7.35 6.09-7.35 0 0-4.48-4.18-10.68-6.36ZM460.91 296c-1.17-.18-3.6 4.49-4.18 9.17.68 2.14 2.35 4.41 3.21 4.03 1.87-3.03 6.9-7.13 9.42-6.6 0 0-3.1-5.22-8.45-6.59Z" fill="#8c6143"/><path d="M455.52 301.41c1.09-35.42-31.69-41.62-30.96-16.86.08 2.64-8.79 4.69-8.7-.64.73-40.06 54.33-26.78 50.16 17.5-.34 3.66-10.59 3.07-10.5 0Z" fill="#b47d56"/><path d="M454.01 299.57c5.96-3.03 6.39 11.3 3.58 6.4-1.79-3.12-5.1-5.63-3.58-6.4Z" fill="#c4926e"/><path d="M466.72 300.26c-10.02-3.03-11.19 11.11-6.46 6.2 3-3.12 9.02-5.43 6.46-6.2Z" fill="#d6a57c"/><path d="M415.15 283.54c4.56-2.33 5.36 9.4 3.21 5.64-1.37-2.39-4.37-5.05-3.21-5.64Z" fill="#c4926e"/><path d="M424.9 284.06c-7.67-2.31-9.02 9.4-5.39 5.64 2.31-2.39 7.35-5.05 5.39-5.64Z" fill="#d6a57c"/><path d="M302.79 329.57c1.34-43.23-40.13-53.28-38.21-17.12.14 2.64-10.25 3.67-10.1-1.65 1.25-48.87 66.45-31.39 58.8 19.29-.55 3.64-10.59 2.55-10.49-.52Z" fill="#b47d56"/><path d="M299.01 325.04c8.51-3.79 8.77 17.53 5.24 10.52-2.25-4.45-7.42-9.55-5.24-10.52Z" fill="#c4926e"/><path d="M316.62 326.87c-13.68-4.9-17.31 16.24-10.36 9.74 4.42-4.12 13.85-8.49 10.36-9.74Z" fill="#d6a57c"/><path d="M253.03 309.34c6.52-2.91 6.72 13.43 4.02 8.07-1.72-3.41-5.68-7.33-4.02-8.07Z" fill="#c4926e"/><path d="M266.53 310.74c-10.48-3.76-13.27 12.44-7.94 7.47 3.39-3.17 10.61-6.51 7.94-7.47Z" fill="#d6a57c"/><path d="M313.32 352.8s2.94 2.84 5.36.5c5.81-5.63-2.9-16.31-12.64-16.31-24.39 0-17.88 22.81-7.33 11.58-2.25 3.7-4.17 6.75-4.2 6.81l1.73 2.36c.27-.43 5.93-9.45 9.26-15.34 4.32 12.29 12.32 21.89 12.69 22.32l1.48-2.71c-.05-.07-3.07-3.7-6.35-9.2Zm3.83-2.77c-2.21 2.69-6.77-5.54-8.48-8.96 2.79 0 10.89 6.03 8.48 8.96Zm-24.67-2.2c-1.58-2.33 6.15-6.64 9.91-6.64-1.57 1.54-8.73 8.39-9.91 6.64Zm-29.41-17.89s1.72 1.99 3.13.35c3.4-3.94-1.7-11.41-7.39-11.41-14.27 0-10.47 15.96-4.29 8.1-1.32 2.59-2.44 4.72-2.46 4.76l1.01 1.66c.16-.3 3.47-6.61 5.42-10.74a59.14 59.14 0 0 0 7.42 15.62l.86-1.89c-.03-.05-1.8-2.59-3.71-6.44Zm2.24-1.94c-1.29 1.89-3.97-3.88-4.97-6.27 1.63 0 6.37 4.22 4.97 6.27Zm-14.44-1.54c-.92-1.62 3.6-4.65 5.8-4.65-.91 1.08-5.11 5.87-5.8 4.65Z" fill="#cfd8dd"/></g><path d="M246.78 193.57c-2.08-1.15-4.46-1.72-7.13-1.72s-5.17.6-7.35 1.79a13.7 13.7 0 0 0-3.77 3.08 12.43 12.43 0 0 0-10.18-4.88c-2.58 0-4.9.55-6.95 1.65-.9.48-1.7 1.07-2.44 1.73v-2.64h-10.97v35.61h10.97v-20.81c0-1.22.25-2.25.75-3.08a5.21 5.21 0 0 1 2.04-1.94c.86-.46 1.84-.7 2.94-.7 1.58 0 2.9.5 3.98 1.5s1.61 2.41 1.61 4.21v20.81h10.97v-20.81c0-1.22.25-2.25.75-3.08a5.21 5.21 0 0 1 2.04-1.94c.86-.46 1.84-.7 2.94-.7 1.58 0 2.9.5 3.98 1.5s1.61 2.41 1.61 4.21v20.81h10.97v-22.05c0-2.98-.61-5.53-1.83-7.66a12.7 12.7 0 0 0-4.95-4.91Zm37.95 1.98c-.94-.92-2.02-1.7-3.26-2.31-1.89-.93-4-1.39-6.34-1.39-3.2 0-6.06.81-8.57 2.42a17.1 17.1 0 0 0-5.95 6.59c-1.46 2.78-2.19 5.96-2.19 9.52s.73 6.74 2.19 9.52c1.46 2.78 3.44 4.98 5.95 6.59s5.36 2.42 8.57 2.42c2.34 0 4.47-.46 6.38-1.39a12.3 12.3 0 0 0 3.23-2.26v2.92h10.75v-35.61h-10.75v2.97Zm-7.38 23.26a7.53 7.53 0 0 1-6.81-4.1c-.67-1.27-1-2.71-1-4.32s.35-3.13 1.04-4.4a7.64 7.64 0 0 1 2.8-2.97c1.17-.71 2.52-1.06 4.05-1.06s2.88.36 4.05 1.06c1.17.71 2.08 1.7 2.72 2.97s.97 2.74.97 4.4c0 2.44-.72 4.46-2.15 6.05a7.25 7.25 0 0 1-5.66 2.38Zm53.44-25.09c-1.98-1.25-4.26-1.87-6.85-1.87s-5.08.57-7.2 1.72c-.95.51-1.78 1.13-2.54 1.83v-2.82h-10.97v35.61h10.97v-20.3c0-1.22.26-2.31.79-3.26.53-.95 1.24-1.69 2.15-2.2s1.96-.77 3.15-.77c1.72 0 3.14.57 4.27 1.72a6.18 6.18 0 0 1 1.68 4.51v20.3h10.97V205.4a13.6 13.6 0 0 0-6.42-11.69Zm37.38 1.16a13.12 13.12 0 0 0-2.62-1.63 14.8 14.8 0 0 0-6.49-1.39c-3.3 0-6.23.81-8.78 2.42-2.56 1.61-4.56 3.81-6.02 6.59s-2.19 5.96-2.19 9.52.73 6.74 2.19 9.52c1.46 2.78 3.47 4.98 6.02 6.59s5.48 2.42 8.78 2.42a14.13 14.13 0 0 0 9.32-3.38v2.65h10.75V175h-10.97v19.88Zm-3.08 22.88a7.62 7.62 0 0 1-4.09 1.06 7.53 7.53 0 0 1-6.81-4.1c-.67-1.27-1-2.71-1-4.32s.35-3.05 1.04-4.32a7.86 7.86 0 0 1 2.8-3c1.17-.73 2.52-1.1 4.05-1.1s2.88.37 4.05 1.1a7.42 7.42 0 0 1 2.72 2.97c.65 1.25.97 2.7.97 4.36s-.33 3.13-1 4.4a7.6 7.6 0 0 1-2.72 2.97Zm28.67-2.32c-1.86 0-3.42.65-4.66 1.94s-1.86 2.92-1.86 4.87.62 3.44 1.86 4.76 2.8 1.98 4.66 1.98 3.48-.66 4.69-1.98a6.77 6.77 0 0 0 1.83-4.76c0-1.95-.61-3.58-1.83-4.87a6.17 6.17 0 0 0-4.69-1.94ZM408.39 175h10.97v53.19h-10.97zm18.7 17.58h10.97v35.61h-10.97zm5.52-17.21c-1.72 0-3.14.59-4.27 1.76-1.12 1.17-1.68 2.64-1.68 4.4s.56 3.16 1.68 4.36c1.12 1.2 2.54 1.8 4.27 1.8s3.13-.6 4.23-1.8c1.1-1.2 1.65-2.65 1.65-4.36s-.55-3.22-1.65-4.4a5.55 5.55 0 0 0-4.23-1.76Zm40.75 18.35c-1.98-1.25-4.26-1.87-6.85-1.87s-5.08.57-7.2 1.72c-.95.51-1.78 1.13-2.54 1.83v-2.82H445.8v35.61h10.97v-20.3c0-1.22.26-2.31.79-3.26.53-.95 1.24-1.69 2.15-2.2s1.96-.77 3.15-.77c1.72 0 3.14.57 4.27 1.72a6.18 6.18 0 0 1 1.68 4.51v20.3h10.97V205.4a13.6 13.6 0 0 0-6.42-11.69ZM522 228.19l-13.46-18.82 12.74-16.79h-12.26l-11.25 15.93V175H486.8v53.19h10.97v-17.16l11.33 17.16H522z" fill="#bb7b56"/></svg>
