<svg xmlns="http://www.w3.org/2000/svg" xmlns:xlink="http://www.w3.org/1999/xlink" viewBox="0 0 720 420"><defs><linearGradient id="b" x1="361" y1="421" x2="361" y2="1" gradientUnits="userSpaceOnUse"><stop offset="0" stop-color="#e2e8f0"/><stop offset="1" stop-color="#f8fafc"/></linearGradient><clipPath id="a"><path fill="none" d="M1 1h720v420H1z"/></clipPath><symbol id="c" viewBox="0 0 722 422"><g clip-path="url(#a)"><path fill="url(#b)" d="M1 1h720v420H1z"/><path fill="none" stroke="#e2e8f0" stroke-miterlimit="10" stroke-width="2" d="M1 1h60v60H1zm60 0h60v60H61zm60 0h60v60h-60zm60 0h60v60h-60zm60 0h60v60h-60zm60 0h60v60h-60zm60 0h60v60h-60zm60 0h60v60h-60zm60 0h60v60h-60zm60 0h60v60h-60zm60 0h60v60h-60zm60 0h60v60h-60zM1 61h60v60H1zm60 0h60v60H61zm60 0h60v60h-60zm60 0h60v60h-60zm60 0h60v60h-60zm60 0h60v60h-60zm60 0h60v60h-60zm60 0h60v60h-60zm60 0h60v60h-60zm60 0h60v60h-60zm60 0h60v60h-60zm60 0h60v60h-60zM1 121h60v60H1zm60 0h60v60H61zm60 0h60v60h-60zm60 0h60v60h-60zm60 0h60v60h-60zm60 0h60v60h-60zm60 0h60v60h-60zm60 0h60v60h-60zm60 0h60v60h-60zm60 0h60v60h-60zm60 0h60v60h-60zm60 0h60v60h-60zM1 181h60v60H1zm60 0h60v60H61zm60 0h60v60h-60zm60 0h60v60h-60zm60 0h60v60h-60zm60 0h60v60h-60zm60 0h60v60h-60zm60 0h60v60h-60zm60 0h60v60h-60zm60 0h60v60h-60zm60 0h60v60h-60zm60 0h60v60h-60zM1 241h60v60H1zm60 0h60v60H61zm60 0h60v60h-60zm60 0h60v60h-60zm60 0h60v60h-60zm60 0h60v60h-60zm60 0h60v60h-60zm60 0h60v60h-60zm60 0h60v60h-60zm60 0h60v60h-60zm60 0h60v60h-60zm60 0h60v60h-60zM1 301h60v60H1zm60 0h60v60H61zm60 0h60v60h-60zm60 0h60v60h-60zm60 0h60v60h-60zm60 0h60v60h-60zm60 0h60v60h-60zm60 0h60v60h-60zm60 0h60v60h-60zm60 0h60v60h-60zm60 0h60v60h-60zm60 0h60v60h-60zM1 361h60v60H1zm60 0h60v60H61zm60 0h60v60h-60zm60 0h60v60h-60zm60 0h60v60h-60zm60 0h60v60h-60zm60 0h60v60h-60zm60 0h60v60h-60zm60 0h60v60h-60zm60 0h60v60h-60zm60 0h60v60h-60zm60 0h60v60h-60z"/><rect x="16" y="16" width="690" height="390" rx="18" fill="none" stroke="#e2e8f0" stroke-miterlimit="10" stroke-width="2"/></g></symbol></defs><use width="722" height="422" transform="translate(-1 -1)" xlink:href="#c"/><path d="M292.8 57c68.94 0 124.8 47.1 124.8 105.19s-55.86 105.19-124.8 105.19a148 148 0 0 1-32.46-3.71C242 275 215.48 286.5 183 286.5a14.93 14.93 0 0 1-11-25.16 166.27 166.27 0 0 0 23.4-33.47c-17.13-18-27.44-40.82-27.44-65.68C168 104.1 223.88 57 292.8 57Zm-26 178.16a94.19 94.19 0 0 0 26 3.53c52.92 0 96-34.31 96-76.5s-43.08-76.5-96-76.5-96 34.3-96 76.5c0 21 10.63 36.57 19.54 46L230.46 223 221 241.14c-2.15 3.58-4.55 8.25-7.06 12.19a111.25 111.25 0 0 0 31.29-14.58l10-5.68ZM433 133.62c66.24 2.51 119 48.59 119 105.07 0 24.86-10.32 47.69-27.42 65.68A163.14 163.14 0 0 0 548 337.84a14 14 0 0 1 2.26 16.16c-1.8 5.49-7.26 9-13.26 9-32.46 0-59-11.48-77.34-22.83a148 148 0 0 1-32.46 3.71c-49.2 0-91.74-24-112.08-58.87a156.13 156.13 0 0 0 29.82-6.94c16.8 22.24 47.4 37.12 82.26 37.12a94.19 94.19 0 0 0 26-3.53l11.52-2.09 10 5.68a110.77 110.77 0 0 0 31.32 14.58c-2.52-3.94-4.92-8.61-7.08-12.19l-9.48-18.11 14.1-14.88c8.94-9.33 19.56-24.92 19.56-46 0-39.63-38-72.26-86.94-76.14l.54-.36a107.28 107.28 0 0 0-3.74-28.53Z" fill="none" stroke="#e2e8f0" stroke-miterlimit="10" stroke-width="3" opacity=".75"/><path d="M277.72 202.59v18.51c0 5.29-1.25 9.32-5.41 12.8a51.31 51.31 0 0 1-34 12.24c-27.1 0-49.31-18.92-49.31-48.14s22.21-48 49.29-48c13.61 0 23.46 4.73 31 11.69a9.41 9.41 0 0 1 2.92 6.95 9.12 9.12 0 0 1-15.55 6.54 26 26 0 0 0-18.33-7.65c-16.8 0-29 12.94-29 30.47s12.22 30.47 29 30.47c8.88 0 16-3.62 19.71-7.09v-11.13h-16.97a8.63 8.63 0 0 1-8.61-8.49 8.88 8.88 0 0 1 8.61-8.77h27.21c5.72.01 9.44 3.9 9.44 9.6Zm5.37 34.58v-77.49a8.94 8.94 0 1 1 17.88 0v77.49a8.94 8.94 0 1 1-17.88 0Zm34.38 17.13c.28 0 .56-.14.84-.14 4.59-.14 7.51-1.26 9.18-4.9l2.51-5.75-23.1-57.6a8.21 8.21 0 0 1-.56-3.22 8.65 8.65 0 0 1 8.63-8.83 8.34 8.34 0 0 1 8.07 5.46l16.14 43.17 16-43.17a8.82 8.82 0 0 1 17 3.37 9 9 0 0 1-.69 3.36l-27.3 67.55c-5 12.62-14.33 16.26-24.35 16.4a9.82 9.82 0 0 1-1.95-.14 7.86 7.86 0 0 1-7.93-8 7.6 7.6 0 0 1 7.51-7.56Zm128.75-42.9c0 22.56-12.9 35.45-30 35.45a26.56 26.56 0 0 1-20.75-10.09v.7a9 9 0 0 1-17.94-.28v-77.5a8.9 8.9 0 1 1 17.8 0v26.49a25.69 25.69 0 0 1 20.89-10.37c17.24 0 30 13.45 30 35.6Zm-18.37 0c0-11.78-6.87-19.76-17.24-19.76-5.75 0-12.33 3.36-15.28 7.84v24c2.95 4.34 9.53 7.57 15.28 7.57 10.39-.05 17.24-7.88 17.24-19.65Zm58.63-35.76c20.11 0 33.79 15 33.79 32.54 0 5.84-3.77 8.34-10.47 8.34h-39.65c1.12 8.48 8 15.58 19.4 15.58a28.91 28.91 0 0 0 13.69-3.76 6.68 6.68 0 0 1 3.35-.83 6.91 6.91 0 0 1 3.21 13.07 45 45 0 0 1-22.2 5.56c-20.52 0-36-13.76-36-35.32-.02-19.47 14.4-35.18 34.88-35.18Zm-16.61 28.92h33.23c-.42-6.39-4.89-14.88-16.62-14.88-11.03 0-15.77 8.21-16.61 14.88Z" fill="#0e172a"/><path d="M523.49 231.19a7.48 7.48 0 1 1-7.52 7.47 7.58 7.58 0 0 1 7.52-7.47Z" fill="#00a7ff"/></svg>
