<svg xmlns="http://www.w3.org/2000/svg" fill="none" viewBox="0 0 960 560"><g clip-path="url(#a)"><path fill="#fff" d="M0 0h960v560H0z"/><path fill="url(#b)" d="M0 0h960v560H0z"/><path stroke="#ed7401" stroke-miterlimit="10" stroke-width="2.67" d="M80 0H0v80M80 0v80m0-80h80M80 80H0m80 0h80m-80 0v80M0 80v80M160 0v80m0-80h80m-80 80h80m-80 0v80M240 0v80m0-80h80m-80 80h80m-80 0v80M320 0v80m0-80h80m-80 80h80m-80 0v80M400 0v80m0-80h80m-80 80h80m-80 0v80M480 0v80m0-80h80m-80 80h80m-80 0v80M560 0v80m0-80h80m-80 80h80m-80 0v80M640 0v80m0-80h80m-80 80h80m-80 0v80M720 0v80m0-80h80m-80 80h80m-80 0v80M800 0v80m0-80h80m-80 80h80m-80 0v80M880 0v80m0-80h80v80m-80 0h80m-80 0v80m80-80v80m-880 0H0m80 0h80m-80 0v80M0 160v80m160-80h80m-80 0v80m80-80h80m-80 0v80m80-80h80m-80 0v80m80-80h80m-80 0v80m80-80h80m-80 0v80m80-80h80m-80 0v80m80-80h80m-80 0v80m80-80h80m-80 0v80m80-80h80m-80 0v80m80-80h80m-80 0v80m80-80v80m-880 0H0m80 0h80m-80 0v80M0 240v80m160-80h80m-80 0v80m80-80h80m-80 0v80m80-80h80m-80 0v80m80-80h80m-80 0v80m80-80h80m-80 0v80m80-80h80m-80 0v80m80-80h80m-80 0v80m80-80h80m-80 0v80m80-80h80m-80 0v80m80-80h80m-80 0v80m80-80v80m-880 0H0m80 0h80m-80 0v80M0 320v80m160-80h80m-80 0v80m80-80h80m-80 0v80m80-80h80m-80 0v80m80-80h80m-80 0v80m80-80h80m-80 0v80m80-80h80m-80 0v80m80-80h80m-80 0v80m80-80h80m-80 0v80m80-80h80m-80 0v80m80-80h80m-80 0v80m80-80v80m-880 0H0m80 0h80m-80 0v80M0 400v80m160-80h80m-80 0v80m80-80h80m-80 0v80m80-80h80m-80 0v80m80-80h80m-80 0v80m80-80h80m-80 0v80m80-80h80m-80 0v80m80-80h80m-80 0v80m80-80h80m-80 0v80m80-80h80m-80 0v80m80-80h80m-80 0v80m80-80v80m-880 0H0m80 0h80m-80 0v80M0 480v80h80m80-80h80m-80 0v80m80-80h80m-80 0v80m80-80h80m-80 0v80m80-80h80m-80 0v80m80-80h80m-80 0v80m80-80h80m-80 0v80m80-80h80m-80 0v80m80-80h80m-80 0v80m80-80h80m-80 0v80m80-80h80m-80 0v80m80-80v80h-80m-800 0h80m0 0h80m0 0h80m0 0h80m0 0h80m0 0h80m0 0h80m0 0h80m0 0h80m0 0h80"/><path stroke="#ed7401" stroke-miterlimit="10" stroke-width="2.67" d="M916 540H44a24 24 0 0 1-24-24V44a24 24 0 0 1 24-24h872a24 24 0 0 1 24 24v472a24 24 0 0 1-24 24Z"/><g clip-path="url(#c)"><path fill="#13110f" d="M278.7 175h5.8c1.4.25 2.8.37 4.2.6 9.58 1.57 18.27 5.93 23.9 13.95q.3.42.58.87c5.55-10.54 11.55-10.11 22.32-9.32 9.32.7 21.8 1.25 30.75-1.67 13.12-4.29 19.1-3.92 23.54 10.82 1.71-3.01 3.42-5.52 6.63-7.32 15.43-8.68 37.87-9.67 53.49-1.12 5.4 2.95 9.35 7.66 12.14 12.86.78-4.5 1.44-9.4 5.71-12.1 7.52-4.75 18.18-5.06 26.88-5.25 9.04-.2 24.59-.43 29.91 8.36 5.63 9.27 9.24 34.44-2.14 40.75.1 1.66.24 3.41.14 5.08 2.14-.26 3.04-.05 5.12.54 5.76-13.6 13.7-26.62 21.74-39 1.72-2.66 5.4-8.49 7.38-10.62a16 16 0 0 1 5.72-3.94 17.7 17.7 0 0 1 13.35.22c1.97.82 3.73 2.05 5.18 3.6 1.81 1.97 3.35 4.5 4.83 6.74 6.43 9.77 12.9 19.77 18.25 30.17 1.42-9.86 3.3-31.1 11.12-37.81 4.56-3.91 20.2-5.79 26.45-5.22 9.92.91 13.38 12.4 16.49 20.24 3.21-12.62 6.6-20.75 21.2-20.03 9.28.45 19.14 2.15 24.44 10.84 1.5 2.6 2.52 5.58 3.38 8.45 5.87 19.74 8.66 40.34 9.62 60.87.46 9.63 1.33 16.88-5.52 24.65 1.34 1.36 3.15 3.59 3.62 5.52 2.47 10.18 3.4 21.5 4.4 31.92.2 2.2.33 8.09.68 9.6v13.86c-.36 1.47-.4 4.71-.58 6.34-1.15 10.59-3.18 23.55-13.63 29.07-6.63 3.5-16.22 6.6-23.82 4.94-4.4-.95-7.43-5.52-9.5-9.11-4.36 11.38-23.64 13.53-33.6 9.88-3.54-1.3-5.75-3.23-7.9-6.18a48 48 0 0 1-6.65 2.63 98 98 0 0 1-35.02 4.49c-9.05-.49-16.83-1.29-19.9-10.81-2.41 5.16-8.21 7.9-13.55 9.05-9.85 2.12-26.64 3.67-29.68-8.96-3.53 3.75-7.2 5.66-12.08 7.29-12.83 4.26-44.9 6.44-48.97-10.27-5.53-22.66-7.44-63.77 3.47-84.97-2.62-1.85-3.55-3.11-4.87-5.97-7.3 5.37-18.3 8.8-27.42 6.7-4.71-1.1-7.54-4.48-9.84-8.49l-.04.08c-5 8.04-17.4 10.13-26.24 10.76-8.7.6-12.28-14.06-13.56-20.6-2.48-12.6-3.34-25.95-3.38-38.78-2.93 1.56-7.34 3.13-10.52 4.09.27 3.57.75 10.28 1.51 13.65 1.85 7.67 4.22 14.01 3.48 22.1-.83 11.08-8.2 16.02-18.52 18.02-8.36 1.62-19.03 1.99-24.88-5.45-7.24-9.2-4.23-22.68-2.69-33.19q1-6.92 1.7-13.87c-6.32 2.49-9.34 2.38-16.03 1.88l.1.47c1.94 11.88.07 28.38-7.14 38.14a31 31 0 0 1-20.88 12.3c-11.83 1.68-28.03.13-37.8-6.99-7.95-5.8-10.08-12.09-11.57-21.13v-6.12c.3-1.12.6-4.01.92-5.49 1.4-6.35 3.17-10.92 7.16-16.02a49 49 0 0 1-3.72-11.76 36.5 36.5 0 0 1 6.44-27.96c6.89-9.58 16.36-14.95 27.9-16.87m230 112.27a270 270 0 0 0-4.26 45.96c1.86-.37 2.8-.57 4.56-1.26 6.69-3.27 8.54-7.76 16.02-6.08q-.17-6.73-.13-13.47c0-9.7-.26-20.2 6.73-27.97a27 27 0 0 1-4.5-2.83c-5.6 2.79-12.34 4.3-18.42 5.65"/><path fill="#feedca" d="M635.8 183.01c10.69-2.07 12.6 7.33 15.74 15.17l8.5 21.62c1.45-7.5 5.21-29.63 10.17-34.43 2-1.94 4.84-2.24 7.5-2.2 6.4.12 14.17.8 18.85 5.67 5.38 5.6 11.2 37.77 12.37 46.4.8 5.93 1.48 12.05 1.33 18.04-.12 4.41-1.39 8.38-4.7 11.46-4.83 4.51-12.56 6.1-19.03 5.9-1.48-.05-3.37-.26-4.42-1.4a4 4 0 0 1-1-2.62c-.12-2.79.87-5.77 1.34-8.52.5-2.94.76-5.99.88-8.97.17-4.58-.4-21-3.41-24.04-.3-.3-.4-.26-.8-.27-.74.48-.98 1.2-1.35 1.98-3.68 10.9-4.72 22.95-5.4 34.5-.54 9.3-18.17 7.22-22.75 2.89-1.75-1.66-1.93-9.72-2.5-12.32-.65-3.08-3.03-21.82-7.33-21.34-.36.23-.67.47-.91.84-2.6 3.9-1.67 21.71-1.08 26.81.24 2.1.78 4.17 1.21 6.24.37 1.75.76 4.1-.32 5.66-1.13 1.65-3.49 2.28-5.38 2.6-7.05 1.22-16.33.2-22.28-3.94a19.5 19.5 0 0 0 5.19-7.19c.8-1.94 1.2-4.04 1.14-6.14-.19-6.37-5.3-19.05-7.8-24.95 1.32-8.97 3.93-36.73 8.85-42.73 2.87-3.5 12.98-4.24 17.38-4.72M691.51 282.19c4.75-.44 12.28.38 15.59 4.26a9 9 0 0 1 1.85 3.65c.63 2.6.87 8.39 1.02 11.24.58 11.08.86 22.77-.02 33.85-.47 5.84-1.57 19.42-6.18 23.29-4.92 3.75-12.15 5.38-18.24 5.24-3.24-.07-5.24-2.64-6.66-5.17-4.82-8.54-7.67-18.06-11.64-27-1.44-3.25-2.82-6.66-5.01-9.49-.46-.58-.82-.79-1.51-.85-1.27 1.01-1.13 3.84-1.13 5.33a70 70 0 0 0 3.42 20.7c.87 2.72 2.86 7.39 3.08 10 .52 5.95-10.93 8.05-14.93 8.33-5.65.42-12.68-.25-15.2-6.1 1.89-4.05 2.45-7.86 2.55-12.32.15-6.55-.2-12.98-5.64-17.44q-.02-13.85.96-27.67c.32-4.16.43-13.5 4.56-15.39 4.68-2.13 16.5-2.96 21.4-1.72 3.22.82 6.12 2.59 8.3 5.09 5.64 6.33 9.17 19.47 13.76 26.97.95 1.55 2.32 5.82 4.1 6.26 4.68-4.02-6.94-28.78-7.64-34.12-.64-4.91 10.31-6.67 13.21-6.94M420.6 182.78c.88-.12 1.76-.08 2.64-.12 13.4-.6 29.18 3.6 33.9 17.62a30 30 0 0 1 .82 15.68c-1.62 7.9-6.3 14-13 18.36 9.61 4.36 9.04 15.68 15.93 18.76l.98 6.35c-3.74 4.55-9.94 6.88-15.61 7.82-10.17 1.69-12.55-1.28-15.84-9.89-1.23-3.34-2.7-8.18-5.43-10.56a6 6 0 0 0-3.91-1.4q-.92.08-1.47.8c-2.25 2.88.6 10.72 1.04 14.15.13 1.08.07 1.69-.63 2.55-3.13 3.86-12.53 5.78-17.22 6.3-2.28.25-4.96.4-6.84-1.14-4.28-3.5-5.23-13.18-5.68-18.47-1-11.91-1.08-49.64 7.01-58.91 4.44-5.09 16.62-7.37 23.3-7.9"/><path fill="#13110f" d="M423.4 199.74c8.07.87 5.22 8.72 5.7 14.26.5 5.5.54 17.28-8.6 12.66-1.82-1.66-2.34-3.17-2.52-5.41-.42-5.59 1.04-4.18 4.51-6.9.34-.27.25-.67.2-1.04-.8-1.17-2.73-1.7-3.69-2.5-1.99-1.64-1.1-6.9.28-8.72 1.25-1.65 2.24-2.03 4.13-2.35"/><path fill="#feedca" d="M568.5 184.39c2.25-.13 5.53.76 7.02 2.45 2.64 2.98 4.81 6.67 7 10.02 10.32 15.8 20.17 32.28 25.84 50.35.82 2.79 1.87 5.99 1.97 8.88.13 3.75-4.54 9.23-8.32 9.7-3.06.36-7.14.2-10.28.2l-21.85-.03-22.79.03c-3.44 0-7.87.17-11.21-.22-3.68-.43-8-5.56-8.28-9.1-.11-2.7.76-5.47 1.55-8.08 6.67-21.97 19.38-41.78 32.26-60.63 1.74-2.53 4.25-3.25 7.1-3.57"/><path fill="#13110f" d="M559.97 211.36a6 6 0 0 1 2.21.28 4.6 4.6 0 0 1 2.66 2.25c.9 2 .81 15.86-.03 17.9a4.6 4.6 0 0 1-2.42 2.62c-1.37.54-2.8.19-4.1-.37-2.82-2.38-2.25-4.89-2.12-8.2 1.22-.85 3.6-1.56 3.47-3.15-.65-.95-2.4-1.83-3.5-2.5-.1-4.04-.75-7.23 3.83-8.83M589.12 237.95c-1.25-.54-3.13-.97-2.63-2.61 2.2-1.05 7.54 2.94 7.13 4.94-.66.49-.38.37-1.26.38-.61-.6-1.32-1.23-1.96-1.82-11.61 13.34-31.5 13.58-43.08.1-.83.8-1.6 1.9-2.87 1.55-1.01-2.26 4.05-4.7 5.6-5.45.5-.1.84.04 1.33.16l.24.43c-.09 1.24-1.67 1.8-2.66 2.23 12.48 9.81 27.68 10.12 40.16.09M576.47 219.18c.14.03.44.18.6.24-.04.45-2.87 4.07-3.55 5.72 3.14-2 7-4.28 10.8-4.4 1.15-.03 3.45-.12 4.28.64l-.2.35c-.49.37-2.92.36-4.14.62-3.66.94-6.6 3.06-9.55 5.31a8 8 0 0 1-2.37 1.39c-1.33-.14-1.42-1.54-1.19-2.65.7-3.37 2.55-5.3 5.32-7.22"/><path fill="#13110f" d="M560.88 251.1c6.6 1.93 9.72 1.5 16.35-.12l-1.67 2.23c-4.41 4.04-11.86 3.68-14.68-2.12"/><path fill="#feedca" d="M488.82 184.18c5.96-.7 14.36-.13 20.4.37 3.85.31 7.6 1.86 9.91 5.07 2.96 4.1 6.14 15.65-.2 18.3-5.01 1.87-29.48-6.26-25.6 6.13 2.14 6.39 19.58-4.95 21.94 3.57 1.13 4.17 1.26 14.98-2.98 17.92-4.02 1.38-21.51-3.29-18.6 6.47 1.75 5.93 23.89-1.71 27.5-3.11 1.1-.43 4.42-1.95 3.61.64-2.78 8.95-6.73 15.13-2.02 24.22-6.42 2.64-16.67 4.99-23.68 5.6-6.3.56-22.54 1.47-27.55-2.47-2.97-2.34-4.21-15.6-4.57-19.58q-.69-7.8-.75-15.62c-.06-7.54.53-38.26 4.5-42.84 3.35-3.86 13.15-4.31 18.1-4.67M277.66 181.84a36 36 0 0 1 7.2-.03c14.9 1.41 35.4 15.07 17.7 29.04-4.1 3.22-8.92 5.12-12.7-.06-1.59-2.17-6.07-7.91-9.5-5.25-3.78 3.64 3.45 8.03 6.41 9.41 12.5 5.84 24.88 13.18 24.69 28.7-.09 18.18-17.27 26.17-33.55 24.91a41 41 0 0 1-22.42-9.4c-7.46-6.2-10.47-14.43-3.3-22.1 1.95-2.1 6.7-6.4 9.72-6.43 4.55-.05 6.67 9.34 10.27 11.7a7 7 0 0 0 5.28 1.85c2.43 0 4.68-2.67 4.33-5.02-.46-3.05-6.1-5.51-8.57-6.78-9.53-4.89-19.12-10.3-20.64-21.96-.8-6.4.98-12.84 4.95-17.93 4.97-6.39 12.22-9.66 20.13-10.65M594.3 283.36c7.14-.47 19.5-.86 25.88 2.44 4.87 2.52 7.61 13.45 5.18 18.17-2.27 4.4-12.11.98-16.14 1.35-4.06-.2-13-1.03-11.05 5.88 1.81 6.45 14.63-1.43 18.98 1.44 4.08 2.7 2.85 10.81 2.15 14.7-1.09 6.1-4.19 5.67-9.2 5.14-2.62-.27-10.03-.6-11.1 2.43-2.19 6.17 3.73 5.8 7.87 5.36 6.8-.49 12.4-2.5 18.64-4.97 4.42-1.54 5.38 1.39 6.1 5.26.62 3.4.5 13.76-1.95 16.22-4.93 4.96-16.56 6.26-23.4 7.5-6.48.9-23.08 1.78-28.4-1.87-3.01-2.05-4.3-15.36-4.61-19.35a226 226 0 0 1 1.3-47.01c.26-2 .96-6.72 2.2-8.07 3.46-3.78 12.62-4.29 17.55-4.62M376.04 183.66c1.26-.16 2.12-.22 3.18.57 3.14 2.33 4.47 7.98 5.03 11.6 3.24 20.95-13.06 14.8-17.5 20.98a6.3 6.3 0 0 0-1.06 2.93c-.75 5.48.96 22.36 1.99 28.02.61 3.39 1.86 6.65 2.44 10.03.22 1.27.61 3.1-.2 4.21l-.08.12c-4.74 6.45-25.38 9.99-31.22 2.57-2.2-2.8-1.73-5.94-1.32-9.19 2.04-11.2 3.92-26.23 2.44-37.65-1-7.67-17.33 2.35-20.97-.57-5.24-4.2-1.7-20.08 1.09-25.26 1.09-2.02 3.23-4.08 5.45-4.37 6.4-.79 13 .65 19.45.6 12.73.55 19.4-1.47 31.28-4.6M495.04 283.12c10.33-.97 6.16 8.82 5.38 14.73-1.63 11.86-3.66 24.31-2.6 36.27.74 10.23 14.44 4.6 19.09.93 8.73-6.91 8.7-.02 8.5 7.3-.37 12.67-4.38 16.88-16.15 20.3-2.51.64-5.01 1.13-7.59 1.4-8.02.87-20.9 1.16-27.37-4.06-3.98-3.2-4.26-9.9-4.76-14.63-1.16-10.86-3.25-46.7 3.62-54.93 3.72-4.45 16.14-6.73 21.88-7.3M555.54 283.11c.66-.13 1.76-.14 2.44-.15 8.99-.11 5.8 9.77 5.16 15.38-1.47 12.87-3.35 26.23-2.34 39.2q.34 4.8 1.13 9.53c.36 2.07 1.62 8.18 1.47 9.79-.66 7.06-16.39 7.7-21.07 7.68-2.97-.07-9.5-1.1-9.49-4.65.01-5.43.89-11.1.81-16.64-.2-14.02-2.98-28.25-1.78-42.23.52-6.1 2.99-12.9 9.35-14.82a74 74 0 0 1 14.32-3.09"/><path fill="#13110f" d="M260.8 294.5c2.3-.32 4.87-.13 7.2-.13h151.15c4.16 0 8.42-.2 12.56.1 3.36.28 6.59 1.41 9.38 3.28a20.6 20.6 0 0 1 8.87 13.1c.75 3.77.43 8 .43 11.85v32.76c-.01 2.98.19 6.16-.25 9.11a20.4 20.4 0 0 1-3.3 8.52c-3.3 4.88-8.19 7.72-13.93 8.82-2.98.42-6.12.25-9.13.25H273.22c-3.83 0-7.8.21-11.62-.1a20.7 20.7 0 0 1-9.9-3.57 20.6 20.6 0 0 1-8.52-13.32c-.62-3.5-.36-7.23-.35-10.79V322.3c-.01-3.5-.23-7.12.3-10.58.5-3.18 1.74-6.2 3.61-8.84 3.4-4.77 8.32-7.42 14.05-8.37"/><path fill="#feedca" d="M260.94 299.15c3.04-.3 6.22-.16 9.28-.16h148.81c3.99-.01 8.05-.17 12.03.1a15.79 15.79 0 0 1 14.24 12.23c.87 3.85.46 8.32.46 12.28l-.01 30.96c.02 2.91.19 5.91-.16 8.8a16 16 0 0 1-2.45 6.91c-2.44 3.8-6.12 6-10.5 6.98-4.86.8-14.57.29-19.87.29H276.3c-4.37.01-8.81.2-13.16-.04-2.98-.17-5.62-.8-8.16-2.4a15.9 15.9 0 0 1-7.07-9.91c-.85-3.82-.42-8.32-.42-12.25V321c0-2.64-.19-5.38.13-8 .29-2.4 1.12-4.72 2.44-6.76 2.56-3.98 6.33-6.09 10.89-7.1"/><path fill="#13110f" d="M261.38 301.46c3.11-.24 6.33-.1 9.45-.09H419.6c3.78-.01 7.63-.15 11.4.08q3.18.21 5.88 1.89c3.1 1.88 5.3 4.93 6.11 8.45.84 3.6.4 7.98.4 11.7l-.02 31.7c0 2.5.18 5.08-.1 7.57-.25 2.23-.89 4.32-2.1 6.24-2.07 3.29-5.27 5.11-9.02 5.95-2.54.36-5.24.2-7.81.2H276.3c-4.34.02-8.74.18-13.07-.04-2.54-.13-4.73-.59-6.9-1.95-3-1.87-5.32-4.86-6.1-8.31-.86-3.77-.42-8.25-.42-12.11l.01-31.39c-.01-2.5-.2-5.11.08-7.6.25-2.23.91-4.36 2.14-6.27 2.2-3.4 5.43-5.17 9.33-6.02"/><path fill="#feedca" d="M284.57 316.88c.57.04 1.24.18 1.75.45 1.38.74 1.75 2.35 1.7 3.8-.07 2.38-1.09 4.91-1.7 7.2-1.21 4.56-3.14 13.71-1.86 18.11.22.74.67 1.67 1.4 2.02a2 2 0 0 0 1.54.03c5.1-2.28 1.22-16.48 2.28-19.34.3-.78 1.1-1.28 1.83-1.62 2.36-1.09 7.02-1.92 9.48-1 5.33 2.02.05 14.77 2.78 20.38.36.72.67.98 1.42 1.25a2 2 0 0 0 1.32-.66c3.54-3.49 1.4-15.47.02-19.64-.78-2.4-2.87-5.65-2.88-8.1.17-.4.35-.72.69-1 2.16-1.75 7.07-1.69 9.69-1.37a8.3 8.3 0 0 1 6.08 3.4c3.21 5.32 3.51 11.52 3.36 17.58-.16 6.27-2.08 13.17-6.8 17.6a14.9 14.9 0 0 1-10.98 3.96c-3.8-.13-6.27-1.53-8.84-4.25-2.9 2.62-6 4.4-9.94 4.89-4.27.55-8.59-.65-11.95-3.32a18 18 0 0 1-6.63-12.12c-.69-5.98.63-19.29 4.45-23.93 2.35-2.85 8.3-3.95 11.79-4.32M396.32 317.34c.51-.1 1.05-.09 1.57-.1.74 0 1.38.03 1.92.6 1.33 1.4.17 8.87.15 11.15-.01 1.37.05 2.96 1.1 3.98.63.6 1.4.62 2.22.59 1.17-.05 2.4-.3 3.22-1.21 2.31-2.62.16-8.06.02-11.15a3 3 0 0 1 .86-2.44c1.2-1.23 3.23-1.46 4.88-1.45 2.87 0 6.42.87 8.49 2.98 3.12 3.19 3.22 18.47 3.2 23.06-.04 4.42.25 13-3.12 16.21-1.68 1.6-3.42 1.49-5.57 1.42-1.71-.16-3.71-.26-5.22-1.13-4.07-2.35-.28-8.2-1.24-11.68a2.2 2.2 0 0 0-1.09-1.35c-.92-.51-2.22-.11-3.17.14-6.87 1.82-.17 7.7-2.26 11.06-.79 1.27-2.43 1.94-3.82 2.24-2.65.56-7.12.61-9.43-.94-2.1-1.4-2.52-5.44-2.93-7.76-1.04-5.76-3.03-26.15.34-30.74 1.74-2.36 7.18-3.12 9.88-3.48M377.7 315.88l.12-.01q.88-.01 1.47.65c1.86 2.13 2.75 6.5 2.5 9.25-.53 6.02-5.62 4.31-8.6 6.87a3.2 3.2 0 0 0-1.05 1.68c-.69 2.83.3 11.13.86 14.25.45 2.52 1.45 5.17 1.31 7.74-.28.51-.58.9-1.04 1.27-2.6 2.06-7.45 2.85-10.68 2.47-1.65-.2-3.4-.8-4.43-2.15-1.06-1.38-.87-2.86-.65-4.47.63-4.6 2.52-15.12 1.23-19.4-.21-.72-.58-1.48-1.28-1.83-1.57-.78-4.72.84-6.27 1.33-.96.3-1.98.43-2.9-.07q-1.06-.6-1.4-1.77c-.8-2.74.28-8.88 1.69-11.37a4.3 4.3 0 0 1 2.95-2.31c2.65-.56 7.22.29 10.08.35 5.68.14 10.67-1 16.1-2.49M340.68 316.65h.15c.87-.02 1.82.13 2.45.77 1.6 1.61.77 5.24.5 7.26-.98 7.36-1.83 14.67-1.32 22.12.2 3.03 1.3 6.1 1.3 9.12 0 .87-.18 1.5-.82 2.1-2.34 2.25-7.56 2.43-10.61 2.41-1.25-.07-2.97-.28-3.99-1.07a2.3 2.3 0 0 1-.92-1.74c-.31-2.8.53-5.9.46-8.76-.16-6.97-3.24-23.21 1.17-28.56 2.32-2.82 8.26-3.33 11.63-3.65"/></g></g><defs><clipPath id="a"><path fill="#fff" d="M0 0h960v560H0z"/></clipPath><clipPath id="c"><path fill="#fff" d="M240 175h480v210H240z"/></clipPath><linearGradient id="b" x1="480" x2="480" y1="560" y2="0" gradientUnits="userSpaceOnUse"><stop stop-color="#ed7401"/><stop offset="1" stop-color="#f07a0a"/></linearGradient></defs></svg>
